%TF.GenerationSoftware,KiCad,Pcbnew,8.0.1*%
%TF.CreationDate,2026-03-25T10:26:10+01:00*%
%TF.ProjectId,memory_pcb,6d656d6f-7279-45f7-9063-622e6b696361,rev?*%
%TF.SameCoordinates,Original*%
%TF.FileFunction,Legend,Top*%
%TF.FilePolarity,Positive*%
%FSLAX46Y46*%
G04 Gerber Fmt 4.6, Leading zero omitted, Abs format (unit mm)*
G04 Created by KiCad (PCBNEW 8.0.1) date 2026-03-25 10:26:10*
%MOMM*%
%LPD*%
G01*
G04 APERTURE LIST*
%ADD10C,0.000000*%
%ADD11C,0.100000*%
%ADD12C,0.300000*%
%ADD13C,0.187500*%
%ADD14C,0.150000*%
%ADD15C,0.254001*%
%ADD16C,0.152400*%
%ADD17C,0.254000*%
%ADD18C,0.120000*%
%ADD19C,0.152000*%
%ADD20C,0.200000*%
%ADD21C,0.248920*%
%ADD22C,0.150013*%
G04 APERTURE END LIST*
D10*
G36*
X96185882Y-113835304D02*
G01*
X96195315Y-113836022D01*
X96204612Y-113837205D01*
X96213760Y-113838841D01*
X96222749Y-113840918D01*
X96231566Y-113843425D01*
X96240200Y-113846349D01*
X96248638Y-113849679D01*
X96256870Y-113853403D01*
X96264884Y-113857510D01*
X96272667Y-113861988D01*
X96280209Y-113866825D01*
X96287497Y-113872009D01*
X96294519Y-113877529D01*
X96301265Y-113883373D01*
X96307721Y-113889529D01*
X96313877Y-113895986D01*
X96319721Y-113902731D01*
X96325241Y-113909754D01*
X96330426Y-113917042D01*
X96335263Y-113924583D01*
X96339740Y-113932366D01*
X96343847Y-113940380D01*
X96347572Y-113948612D01*
X96350902Y-113957051D01*
X96353826Y-113965685D01*
X96356333Y-113974502D01*
X96358410Y-113983491D01*
X96360045Y-113992639D01*
X96361228Y-114001936D01*
X96361947Y-114011369D01*
X96362189Y-114020927D01*
X96361947Y-114030486D01*
X96361228Y-114039919D01*
X96360045Y-114049217D01*
X96358410Y-114058366D01*
X96356333Y-114067355D01*
X96353826Y-114076173D01*
X96350902Y-114084807D01*
X96347572Y-114093246D01*
X96343847Y-114101478D01*
X96339740Y-114109492D01*
X96335263Y-114117275D01*
X96330426Y-114124816D01*
X96325241Y-114132104D01*
X96319721Y-114139126D01*
X96313877Y-114145872D01*
X96307721Y-114152328D01*
X96301265Y-114158484D01*
X96294519Y-114164328D01*
X96287497Y-114169847D01*
X96280209Y-114175031D01*
X96272667Y-114179868D01*
X96264884Y-114184345D01*
X96256870Y-114188452D01*
X96248638Y-114192176D01*
X96240200Y-114195506D01*
X96231566Y-114198430D01*
X96222749Y-114200936D01*
X96213760Y-114203013D01*
X96204612Y-114204648D01*
X96195315Y-114205831D01*
X96185882Y-114206549D01*
X96176324Y-114206791D01*
X96166766Y-114206549D01*
X96157332Y-114205831D01*
X96148034Y-114204648D01*
X96138885Y-114203013D01*
X96129896Y-114200936D01*
X96121078Y-114198430D01*
X96112444Y-114195506D01*
X96104005Y-114192176D01*
X96095773Y-114188452D01*
X96087759Y-114184345D01*
X96079976Y-114179868D01*
X96072435Y-114175031D01*
X96065147Y-114169847D01*
X96058125Y-114164328D01*
X96051379Y-114158484D01*
X96044923Y-114152328D01*
X96038767Y-114145872D01*
X96032923Y-114139126D01*
X96027404Y-114132104D01*
X96022220Y-114124816D01*
X96017383Y-114117275D01*
X96012906Y-114109492D01*
X96008799Y-114101478D01*
X96005075Y-114093246D01*
X96001745Y-114084807D01*
X95998821Y-114076173D01*
X95996315Y-114067355D01*
X95994239Y-114058366D01*
X95992603Y-114049217D01*
X95991420Y-114039919D01*
X95990702Y-114030486D01*
X95990460Y-114020927D01*
X96122751Y-114020927D01*
X96122821Y-114023682D01*
X96123028Y-114026401D01*
X96123369Y-114029081D01*
X96123840Y-114031718D01*
X96124439Y-114034309D01*
X96125161Y-114036851D01*
X96126004Y-114039340D01*
X96126964Y-114041772D01*
X96128037Y-114044145D01*
X96129221Y-114046455D01*
X96130511Y-114048698D01*
X96131905Y-114050872D01*
X96133399Y-114052972D01*
X96134990Y-114054996D01*
X96136675Y-114056941D01*
X96138449Y-114058802D01*
X96140310Y-114060576D01*
X96142254Y-114062260D01*
X96144278Y-114063851D01*
X96146379Y-114065345D01*
X96148552Y-114066739D01*
X96150796Y-114068030D01*
X96153106Y-114069213D01*
X96155478Y-114070287D01*
X96157911Y-114071247D01*
X96160400Y-114072089D01*
X96162941Y-114072812D01*
X96165532Y-114073410D01*
X96168170Y-114073882D01*
X96170850Y-114074223D01*
X96173569Y-114074430D01*
X96176324Y-114074499D01*
X96179080Y-114074430D01*
X96181799Y-114074223D01*
X96184479Y-114073882D01*
X96187116Y-114073410D01*
X96189707Y-114072812D01*
X96192248Y-114072089D01*
X96194737Y-114071247D01*
X96197170Y-114070287D01*
X96199542Y-114069213D01*
X96201852Y-114068030D01*
X96204096Y-114066739D01*
X96206269Y-114065345D01*
X96208370Y-114063851D01*
X96210394Y-114062260D01*
X96212338Y-114060576D01*
X96214199Y-114058802D01*
X96215974Y-114056941D01*
X96217658Y-114054996D01*
X96219249Y-114052972D01*
X96220743Y-114050872D01*
X96222137Y-114048698D01*
X96223428Y-114046455D01*
X96224611Y-114044145D01*
X96225685Y-114041772D01*
X96226644Y-114039340D01*
X96227487Y-114036851D01*
X96228210Y-114034309D01*
X96228808Y-114031718D01*
X96229280Y-114029081D01*
X96229621Y-114026401D01*
X96229828Y-114023682D01*
X96229897Y-114020927D01*
X96229828Y-114018172D01*
X96229621Y-114015454D01*
X96229280Y-114012775D01*
X96228808Y-114010138D01*
X96228210Y-114007548D01*
X96227487Y-114005006D01*
X96226644Y-114002518D01*
X96225685Y-114000086D01*
X96224611Y-113997713D01*
X96223428Y-113995403D01*
X96222137Y-113993160D01*
X96220743Y-113990986D01*
X96219249Y-113988885D01*
X96217658Y-113986861D01*
X96215974Y-113984917D01*
X96214199Y-113983056D01*
X96212338Y-113981281D01*
X96210394Y-113979596D01*
X96208370Y-113978005D01*
X96206269Y-113976511D01*
X96204096Y-113975116D01*
X96201852Y-113973825D01*
X96199542Y-113972642D01*
X96197170Y-113971568D01*
X96194737Y-113970608D01*
X96192248Y-113969765D01*
X96189707Y-113969042D01*
X96187116Y-113968443D01*
X96184479Y-113967972D01*
X96181799Y-113967631D01*
X96179080Y-113967424D01*
X96176324Y-113967354D01*
X96173569Y-113967424D01*
X96170850Y-113967631D01*
X96168170Y-113967972D01*
X96165532Y-113968443D01*
X96162941Y-113969042D01*
X96160400Y-113969765D01*
X96157911Y-113970608D01*
X96155478Y-113971568D01*
X96153106Y-113972642D01*
X96150796Y-113973825D01*
X96148552Y-113975116D01*
X96146379Y-113976511D01*
X96144278Y-113978005D01*
X96142254Y-113979596D01*
X96140310Y-113981281D01*
X96138449Y-113983056D01*
X96136675Y-113984917D01*
X96134990Y-113986861D01*
X96133399Y-113988885D01*
X96131905Y-113990986D01*
X96130511Y-113993160D01*
X96129221Y-113995403D01*
X96128037Y-113997713D01*
X96126964Y-114000086D01*
X96126004Y-114002518D01*
X96125161Y-114005006D01*
X96124439Y-114007548D01*
X96123840Y-114010138D01*
X96123369Y-114012775D01*
X96123028Y-114015454D01*
X96122821Y-114018172D01*
X96122751Y-114020927D01*
X95990460Y-114020927D01*
X95990702Y-114011369D01*
X95991420Y-114001936D01*
X95992603Y-113992639D01*
X95994239Y-113983491D01*
X95996315Y-113974502D01*
X95998821Y-113965685D01*
X96001745Y-113957051D01*
X96005075Y-113948612D01*
X96008799Y-113940380D01*
X96012906Y-113932366D01*
X96017383Y-113924583D01*
X96022220Y-113917042D01*
X96027404Y-113909754D01*
X96032923Y-113902731D01*
X96038767Y-113895986D01*
X96044923Y-113889529D01*
X96051379Y-113883373D01*
X96058125Y-113877529D01*
X96065147Y-113872009D01*
X96072435Y-113866825D01*
X96079976Y-113861988D01*
X96087759Y-113857510D01*
X96095773Y-113853403D01*
X96104005Y-113849679D01*
X96112444Y-113846349D01*
X96121078Y-113843425D01*
X96129896Y-113840918D01*
X96138885Y-113838841D01*
X96148034Y-113837205D01*
X96157332Y-113836022D01*
X96166766Y-113835304D01*
X96176324Y-113835062D01*
X96185882Y-113835304D01*
G37*
G36*
X94780523Y-114945029D02*
G01*
X94789957Y-114945747D01*
X94799254Y-114946930D01*
X94808403Y-114948565D01*
X94817393Y-114950642D01*
X94826210Y-114953148D01*
X94834844Y-114956072D01*
X94843283Y-114959402D01*
X94851515Y-114963126D01*
X94859529Y-114967233D01*
X94867312Y-114971710D01*
X94874854Y-114976547D01*
X94882141Y-114981731D01*
X94889164Y-114987250D01*
X94895909Y-114993094D01*
X94902365Y-114999250D01*
X94908521Y-115005706D01*
X94914365Y-115012452D01*
X94919885Y-115019474D01*
X94925069Y-115026762D01*
X94929905Y-115034303D01*
X94934383Y-115042087D01*
X94938489Y-115050100D01*
X94942213Y-115058332D01*
X94945542Y-115066771D01*
X94948466Y-115075405D01*
X94950972Y-115084223D01*
X94953049Y-115093212D01*
X94954685Y-115102361D01*
X94955867Y-115111659D01*
X94956586Y-115121093D01*
X94956828Y-115130651D01*
X94956586Y-115140210D01*
X94955867Y-115149644D01*
X94954685Y-115158941D01*
X94953049Y-115168091D01*
X94950972Y-115177080D01*
X94948466Y-115185897D01*
X94945542Y-115194531D01*
X94942213Y-115202970D01*
X94938489Y-115211202D01*
X94934383Y-115219216D01*
X94929905Y-115226999D01*
X94925069Y-115234541D01*
X94919885Y-115241828D01*
X94914365Y-115248851D01*
X94908521Y-115255596D01*
X94902365Y-115262052D01*
X94895909Y-115268208D01*
X94889164Y-115274052D01*
X94882141Y-115279572D01*
X94874854Y-115284755D01*
X94867312Y-115289592D01*
X94859529Y-115294069D01*
X94851515Y-115298176D01*
X94843283Y-115301900D01*
X94834844Y-115305230D01*
X94826210Y-115308154D01*
X94817393Y-115310660D01*
X94808403Y-115312737D01*
X94799254Y-115314373D01*
X94789957Y-115315555D01*
X94780523Y-115316274D01*
X94770964Y-115316516D01*
X94761405Y-115316274D01*
X94751971Y-115315555D01*
X94742674Y-115314373D01*
X94733525Y-115312737D01*
X94724536Y-115310660D01*
X94715718Y-115308154D01*
X94707084Y-115305230D01*
X94698645Y-115301900D01*
X94690413Y-115298176D01*
X94682399Y-115294069D01*
X94674616Y-115289592D01*
X94667074Y-115284755D01*
X94659787Y-115279572D01*
X94652764Y-115274052D01*
X94646019Y-115268208D01*
X94639563Y-115262052D01*
X94633407Y-115255596D01*
X94627563Y-115248851D01*
X94622044Y-115241828D01*
X94616860Y-115234541D01*
X94612023Y-115226999D01*
X94607546Y-115219216D01*
X94603439Y-115211202D01*
X94599715Y-115202970D01*
X94596385Y-115194531D01*
X94593461Y-115185897D01*
X94590955Y-115177080D01*
X94588878Y-115168091D01*
X94587243Y-115158941D01*
X94586060Y-115149644D01*
X94585341Y-115140210D01*
X94585099Y-115130651D01*
X94717391Y-115130651D01*
X94717461Y-115133407D01*
X94717668Y-115136126D01*
X94718009Y-115138806D01*
X94718480Y-115141443D01*
X94719079Y-115144034D01*
X94719801Y-115146576D01*
X94720644Y-115149065D01*
X94721604Y-115151497D01*
X94722677Y-115153870D01*
X94723861Y-115156180D01*
X94725151Y-115158423D01*
X94726545Y-115160597D01*
X94728039Y-115162697D01*
X94729630Y-115164721D01*
X94731314Y-115166666D01*
X94733089Y-115168527D01*
X94734950Y-115170301D01*
X94736894Y-115171985D01*
X94738918Y-115173576D01*
X94741018Y-115175070D01*
X94743192Y-115176464D01*
X94745436Y-115177755D01*
X94747745Y-115178938D01*
X94750118Y-115180011D01*
X94752551Y-115180971D01*
X94755039Y-115181814D01*
X94757581Y-115182536D01*
X94760172Y-115183135D01*
X94762809Y-115183606D01*
X94765489Y-115183947D01*
X94768209Y-115184154D01*
X94770964Y-115184224D01*
X94773719Y-115184154D01*
X94776439Y-115183947D01*
X94779119Y-115183606D01*
X94781756Y-115183135D01*
X94784347Y-115182536D01*
X94786888Y-115181814D01*
X94789377Y-115180971D01*
X94791809Y-115180011D01*
X94794182Y-115178938D01*
X94796492Y-115177755D01*
X94798736Y-115176464D01*
X94800909Y-115175070D01*
X94803010Y-115173576D01*
X94805034Y-115171985D01*
X94806978Y-115170301D01*
X94808839Y-115168527D01*
X94810613Y-115166666D01*
X94812298Y-115164721D01*
X94813889Y-115162697D01*
X94815383Y-115160597D01*
X94816777Y-115158423D01*
X94818067Y-115156180D01*
X94819251Y-115153870D01*
X94820324Y-115151497D01*
X94821284Y-115149065D01*
X94822127Y-115146576D01*
X94822849Y-115144034D01*
X94823448Y-115141443D01*
X94823919Y-115138806D01*
X94824260Y-115136126D01*
X94824467Y-115133407D01*
X94824537Y-115130651D01*
X94824467Y-115127896D01*
X94824260Y-115125177D01*
X94823919Y-115122497D01*
X94823448Y-115119860D01*
X94822849Y-115117269D01*
X94822127Y-115114727D01*
X94821284Y-115112238D01*
X94820324Y-115109806D01*
X94819251Y-115107433D01*
X94818067Y-115105123D01*
X94816777Y-115102880D01*
X94815383Y-115100706D01*
X94813889Y-115098605D01*
X94812298Y-115096581D01*
X94810613Y-115094637D01*
X94808839Y-115092776D01*
X94806978Y-115091002D01*
X94805034Y-115089318D01*
X94803010Y-115087727D01*
X94800909Y-115086233D01*
X94798736Y-115084839D01*
X94796492Y-115083548D01*
X94794182Y-115082364D01*
X94791809Y-115081291D01*
X94789377Y-115080331D01*
X94786888Y-115079489D01*
X94784347Y-115078766D01*
X94781756Y-115078168D01*
X94779119Y-115077696D01*
X94776439Y-115077355D01*
X94773719Y-115077148D01*
X94770964Y-115077078D01*
X94768209Y-115077148D01*
X94765489Y-115077355D01*
X94762809Y-115077696D01*
X94760172Y-115078168D01*
X94757581Y-115078766D01*
X94755039Y-115079489D01*
X94752551Y-115080331D01*
X94750118Y-115081291D01*
X94747745Y-115082364D01*
X94745436Y-115083548D01*
X94743192Y-115084839D01*
X94741018Y-115086233D01*
X94738918Y-115087727D01*
X94736894Y-115089318D01*
X94734950Y-115091002D01*
X94733089Y-115092776D01*
X94731314Y-115094637D01*
X94729630Y-115096581D01*
X94728039Y-115098605D01*
X94726545Y-115100706D01*
X94725151Y-115102880D01*
X94723861Y-115105123D01*
X94722677Y-115107433D01*
X94721604Y-115109806D01*
X94720644Y-115112238D01*
X94719801Y-115114727D01*
X94719079Y-115117269D01*
X94718480Y-115119860D01*
X94718009Y-115122497D01*
X94717668Y-115125177D01*
X94717461Y-115127896D01*
X94717391Y-115130651D01*
X94585099Y-115130651D01*
X94585341Y-115121093D01*
X94586060Y-115111659D01*
X94587243Y-115102361D01*
X94588878Y-115093212D01*
X94590955Y-115084223D01*
X94593461Y-115075405D01*
X94596385Y-115066771D01*
X94599715Y-115058332D01*
X94603439Y-115050100D01*
X94607546Y-115042087D01*
X94612023Y-115034303D01*
X94616860Y-115026762D01*
X94622044Y-115019474D01*
X94627563Y-115012452D01*
X94633407Y-115005706D01*
X94639563Y-114999250D01*
X94646019Y-114993094D01*
X94652764Y-114987250D01*
X94659787Y-114981731D01*
X94667074Y-114976547D01*
X94674616Y-114971710D01*
X94682399Y-114967233D01*
X94690413Y-114963126D01*
X94698645Y-114959402D01*
X94707084Y-114956072D01*
X94715718Y-114953148D01*
X94724536Y-114950642D01*
X94733525Y-114948565D01*
X94742674Y-114946930D01*
X94751971Y-114945747D01*
X94761405Y-114945029D01*
X94770964Y-114944787D01*
X94780523Y-114945029D01*
G37*
G36*
X95268500Y-108965516D02*
G01*
X95281016Y-108966464D01*
X95291344Y-108967932D01*
X95301659Y-108970155D01*
X95311948Y-108973141D01*
X95322198Y-108976896D01*
X95332398Y-108981429D01*
X95342535Y-108986748D01*
X95352596Y-108992859D01*
X95362569Y-108999771D01*
X95372442Y-109007492D01*
X95382201Y-109016028D01*
X95391836Y-109025388D01*
X95401332Y-109035579D01*
X95410679Y-109046608D01*
X95419863Y-109058485D01*
X95428871Y-109071215D01*
X95437692Y-109084807D01*
X95447378Y-109101095D01*
X95456927Y-109118590D01*
X95466338Y-109137269D01*
X95475609Y-109157111D01*
X95484737Y-109178097D01*
X95493721Y-109200204D01*
X95502559Y-109223412D01*
X95511247Y-109247699D01*
X95519785Y-109273045D01*
X95528170Y-109299428D01*
X95544474Y-109355223D01*
X95560142Y-109414916D01*
X95575158Y-109478338D01*
X95616697Y-109690284D01*
X95653246Y-109930363D01*
X95712650Y-110473523D01*
X95755924Y-111065036D01*
X95785623Y-111662116D01*
X95814509Y-112701845D01*
X95819740Y-113250439D01*
X95828899Y-113251473D01*
X95838059Y-113252587D01*
X95888590Y-113260201D01*
X95939187Y-113270317D01*
X95989742Y-113282937D01*
X96040144Y-113298059D01*
X96090284Y-113315686D01*
X96140052Y-113335818D01*
X96189339Y-113358455D01*
X96238036Y-113383599D01*
X96286032Y-113411248D01*
X96333219Y-113441405D01*
X96379486Y-113474070D01*
X96424723Y-113509243D01*
X96468823Y-113546925D01*
X96511674Y-113587116D01*
X96553167Y-113629818D01*
X96593193Y-113675030D01*
X96631642Y-113722753D01*
X96668405Y-113772989D01*
X96703372Y-113825737D01*
X96736433Y-113880998D01*
X96767479Y-113938773D01*
X96796400Y-113999062D01*
X96823086Y-114061866D01*
X96847429Y-114127186D01*
X96869319Y-114195021D01*
X96888645Y-114265374D01*
X96905298Y-114338243D01*
X96919170Y-114413631D01*
X96930149Y-114491537D01*
X96938127Y-114571962D01*
X96942995Y-114654905D01*
X96944642Y-114740370D01*
X96942751Y-114842401D01*
X96937163Y-114941728D01*
X96928007Y-115038349D01*
X96915408Y-115132263D01*
X96899495Y-115223469D01*
X96880395Y-115311966D01*
X96858234Y-115397753D01*
X96833142Y-115480828D01*
X96774667Y-115638841D01*
X96705991Y-115785994D01*
X96628131Y-115922279D01*
X96542106Y-116047687D01*
X96448935Y-116162209D01*
X96349637Y-116265835D01*
X96245230Y-116358557D01*
X96136733Y-116440365D01*
X96025165Y-116511251D01*
X95911544Y-116571205D01*
X95796890Y-116620218D01*
X95682220Y-116658281D01*
X95912650Y-118166121D01*
X95946706Y-118165895D01*
X95986501Y-118166677D01*
X96031215Y-118168867D01*
X96080029Y-118172865D01*
X96105716Y-118175668D01*
X96132121Y-118179073D01*
X96159141Y-118183131D01*
X96186673Y-118187891D01*
X96214615Y-118193405D01*
X96242864Y-118199721D01*
X96271317Y-118206891D01*
X96299873Y-118214963D01*
X96344167Y-118229358D01*
X96388086Y-118246125D01*
X96431287Y-118265432D01*
X96473428Y-118287443D01*
X96514167Y-118312326D01*
X96553160Y-118340245D01*
X96571896Y-118355396D01*
X96590066Y-118371368D01*
X96607629Y-118388182D01*
X96624542Y-118405860D01*
X96640761Y-118424421D01*
X96656244Y-118443887D01*
X96670948Y-118464278D01*
X96684831Y-118485615D01*
X96697849Y-118507919D01*
X96709960Y-118531210D01*
X96721121Y-118555510D01*
X96731288Y-118580839D01*
X96740420Y-118607217D01*
X96748473Y-118634667D01*
X96755405Y-118663207D01*
X96761172Y-118692860D01*
X96765733Y-118723646D01*
X96769043Y-118755585D01*
X96771061Y-118788698D01*
X96771743Y-118823007D01*
X96770601Y-118891107D01*
X96767243Y-118956110D01*
X96761765Y-119018088D01*
X96754264Y-119077115D01*
X96744839Y-119133263D01*
X96733587Y-119186607D01*
X96720606Y-119237217D01*
X96705994Y-119285169D01*
X96689847Y-119330534D01*
X96672264Y-119373386D01*
X96653343Y-119413798D01*
X96633180Y-119451843D01*
X96611875Y-119487593D01*
X96589523Y-119521123D01*
X96566223Y-119552504D01*
X96542073Y-119581811D01*
X96523008Y-119602953D01*
X96503512Y-119622971D01*
X96483623Y-119641893D01*
X96463378Y-119659750D01*
X96421977Y-119692387D01*
X96379613Y-119721119D01*
X96336592Y-119746185D01*
X96293218Y-119767821D01*
X96249797Y-119786268D01*
X96206633Y-119801761D01*
X96164032Y-119814541D01*
X96122298Y-119824844D01*
X96081736Y-119832909D01*
X96042652Y-119838974D01*
X96005350Y-119843276D01*
X95970136Y-119846055D01*
X95937314Y-119847547D01*
X95907189Y-119847992D01*
X95872461Y-119847198D01*
X95836397Y-119844917D01*
X95799297Y-119841301D01*
X95761461Y-119836505D01*
X95684778Y-119823978D01*
X95608747Y-119808559D01*
X95535765Y-119791468D01*
X95468230Y-119773929D01*
X95408539Y-119757163D01*
X95359090Y-119742392D01*
X95352289Y-119762390D01*
X95345128Y-119781677D01*
X95337618Y-119800267D01*
X95329767Y-119818174D01*
X95321586Y-119835413D01*
X95313083Y-119851998D01*
X95304268Y-119867945D01*
X95295151Y-119883267D01*
X95285742Y-119897979D01*
X95276050Y-119912096D01*
X95266084Y-119925633D01*
X95255855Y-119938604D01*
X95245371Y-119951024D01*
X95234642Y-119962907D01*
X95223678Y-119974268D01*
X95212489Y-119985121D01*
X95195703Y-120000141D01*
X95178431Y-120014186D01*
X95160691Y-120027292D01*
X95142503Y-120039495D01*
X95123886Y-120050833D01*
X95104860Y-120061341D01*
X95085443Y-120071055D01*
X95065654Y-120080013D01*
X95045514Y-120088250D01*
X95025042Y-120095803D01*
X95004256Y-120102708D01*
X94983176Y-120109002D01*
X94961821Y-120114721D01*
X94940212Y-120119900D01*
X94918366Y-120124578D01*
X94896303Y-120128789D01*
X94856069Y-120135325D01*
X94815335Y-120140744D01*
X94774256Y-120145337D01*
X94732983Y-120149396D01*
X94650468Y-120157074D01*
X94609531Y-120161275D01*
X94569013Y-120166106D01*
X94500080Y-120173408D01*
X94425157Y-120178270D01*
X94345101Y-120180782D01*
X94260765Y-120181035D01*
X94173005Y-120179118D01*
X94082677Y-120175122D01*
X93897737Y-120161257D01*
X93712786Y-120140163D01*
X93534668Y-120112562D01*
X93450309Y-120096548D01*
X93370223Y-120079179D01*
X93295267Y-120060545D01*
X93226295Y-120040736D01*
X93183794Y-120026759D01*
X93163681Y-120019529D01*
X93144353Y-120012155D01*
X93125833Y-120004647D01*
X93108142Y-119997017D01*
X93091301Y-119989278D01*
X93075332Y-119981441D01*
X93060255Y-119973517D01*
X93046092Y-119965519D01*
X93032864Y-119957458D01*
X93020593Y-119949345D01*
X93009300Y-119941193D01*
X92999007Y-119933012D01*
X92989734Y-119924816D01*
X92981502Y-119916615D01*
X92976100Y-119910621D01*
X92971110Y-119904578D01*
X92966526Y-119898493D01*
X92962342Y-119892368D01*
X92958551Y-119886209D01*
X92955149Y-119880019D01*
X92952130Y-119873804D01*
X92949486Y-119867567D01*
X92947213Y-119861312D01*
X92945305Y-119855045D01*
X92943755Y-119848770D01*
X92942558Y-119842490D01*
X92941708Y-119836210D01*
X92941199Y-119829935D01*
X92941024Y-119823669D01*
X92941114Y-119820062D01*
X93073503Y-119820062D01*
X93075380Y-119821994D01*
X93078167Y-119824782D01*
X93081715Y-119828215D01*
X93085875Y-119832082D01*
X93088139Y-119834113D01*
X93090500Y-119836173D01*
X93092940Y-119838236D01*
X93095441Y-119840276D01*
X93097983Y-119842266D01*
X93100549Y-119844180D01*
X93103120Y-119845992D01*
X93105677Y-119847675D01*
X93112976Y-119852139D01*
X93120671Y-119856561D01*
X93128755Y-119860940D01*
X93137219Y-119865278D01*
X93146055Y-119869575D01*
X93155254Y-119873832D01*
X93174712Y-119882230D01*
X93195527Y-119890477D01*
X93217634Y-119898581D01*
X93240968Y-119906547D01*
X93265464Y-119914381D01*
X93331548Y-119933365D01*
X93403365Y-119951232D01*
X93480095Y-119967894D01*
X93560919Y-119983264D01*
X93731573Y-120009777D01*
X93908772Y-120030065D01*
X94085961Y-120043428D01*
X94172503Y-120047292D01*
X94256585Y-120049160D01*
X94337387Y-120048946D01*
X94414090Y-120046561D01*
X94485874Y-120041917D01*
X94551921Y-120034926D01*
X94591651Y-120030197D01*
X94631793Y-120026105D01*
X94712712Y-120018664D01*
X94753187Y-120014732D01*
X94793470Y-120010271D01*
X94833412Y-120004988D01*
X94872861Y-119998593D01*
X94907337Y-119991739D01*
X94924339Y-119987811D01*
X94941158Y-119983501D01*
X94957775Y-119978772D01*
X94974173Y-119973587D01*
X94990333Y-119967910D01*
X95006236Y-119961704D01*
X95021863Y-119954934D01*
X95037195Y-119947562D01*
X95052214Y-119939552D01*
X95066902Y-119930867D01*
X95081238Y-119921472D01*
X95095206Y-119911329D01*
X95108786Y-119900401D01*
X95121960Y-119888654D01*
X95139474Y-119871004D01*
X95156080Y-119851724D01*
X95171752Y-119830741D01*
X95186465Y-119807980D01*
X95200194Y-119783367D01*
X95212913Y-119756828D01*
X95224599Y-119728290D01*
X95235224Y-119697678D01*
X95244765Y-119664919D01*
X95253197Y-119629938D01*
X95260493Y-119592662D01*
X95266629Y-119553017D01*
X95271580Y-119510929D01*
X95275320Y-119466323D01*
X95277825Y-119419127D01*
X95279069Y-119369265D01*
X95278864Y-119338276D01*
X95277531Y-119308329D01*
X95275104Y-119279407D01*
X95271620Y-119251490D01*
X95267116Y-119224563D01*
X95261628Y-119198607D01*
X95255191Y-119173604D01*
X95247843Y-119149537D01*
X95239618Y-119126387D01*
X95230555Y-119104139D01*
X95220687Y-119082772D01*
X95210053Y-119062271D01*
X95198688Y-119042616D01*
X95186628Y-119023792D01*
X95160569Y-118988559D01*
X95132165Y-118956432D01*
X95101707Y-118927269D01*
X95069483Y-118900928D01*
X95035784Y-118877267D01*
X95000899Y-118856144D01*
X94965118Y-118837419D01*
X94928731Y-118820949D01*
X94892026Y-118806592D01*
X94853689Y-118793665D01*
X94815631Y-118782643D01*
X94778154Y-118773377D01*
X94741563Y-118765720D01*
X94706158Y-118759524D01*
X94672243Y-118754642D01*
X94610096Y-118748229D01*
X94557543Y-118745297D01*
X94517006Y-118744666D01*
X94481669Y-118745579D01*
X94478304Y-118745714D01*
X94474972Y-118745680D01*
X94471676Y-118745483D01*
X94468422Y-118745124D01*
X94465212Y-118744608D01*
X94462052Y-118743939D01*
X94458947Y-118743121D01*
X94455899Y-118742156D01*
X94452914Y-118741050D01*
X94449995Y-118739805D01*
X94447148Y-118738425D01*
X94444377Y-118736914D01*
X94441685Y-118735276D01*
X94439077Y-118733514D01*
X94436558Y-118731633D01*
X94434131Y-118729635D01*
X94431801Y-118727525D01*
X94429573Y-118725307D01*
X94427451Y-118722983D01*
X94425438Y-118720559D01*
X94423540Y-118718037D01*
X94421761Y-118715421D01*
X94420104Y-118712715D01*
X94418575Y-118709923D01*
X94417177Y-118707048D01*
X94415915Y-118704095D01*
X94414793Y-118701066D01*
X94413816Y-118697966D01*
X94412987Y-118694798D01*
X94412312Y-118691567D01*
X94411794Y-118688275D01*
X94411438Y-118684926D01*
X94257493Y-116788182D01*
X94257304Y-116784785D01*
X94257287Y-116781418D01*
X94257439Y-116778086D01*
X94257756Y-116774794D01*
X94258234Y-116771545D01*
X94258869Y-116768346D01*
X94259657Y-116765199D01*
X94260596Y-116762110D01*
X94261680Y-116759082D01*
X94262906Y-116756122D01*
X94264270Y-116753232D01*
X94265769Y-116750417D01*
X94267398Y-116747683D01*
X94269154Y-116745033D01*
X94271033Y-116742472D01*
X94273030Y-116740005D01*
X94275143Y-116737635D01*
X94277368Y-116735368D01*
X94279700Y-116733208D01*
X94282136Y-116731160D01*
X94284672Y-116729227D01*
X94287304Y-116727415D01*
X94290028Y-116725727D01*
X94292841Y-116724169D01*
X94295739Y-116722745D01*
X94298717Y-116721459D01*
X94301772Y-116720317D01*
X94304901Y-116719321D01*
X94308099Y-116718478D01*
X94311363Y-116717790D01*
X94314688Y-116717264D01*
X94318072Y-116716903D01*
X94321469Y-116716714D01*
X94324836Y-116716697D01*
X94328168Y-116716849D01*
X94331460Y-116717166D01*
X94334708Y-116717644D01*
X94337908Y-116718279D01*
X94341055Y-116719068D01*
X94344144Y-116720006D01*
X94347171Y-116721090D01*
X94350132Y-116722316D01*
X94353022Y-116723680D01*
X94355836Y-116725179D01*
X94358570Y-116726808D01*
X94361220Y-116728564D01*
X94363781Y-116730442D01*
X94366248Y-116732440D01*
X94368618Y-116734553D01*
X94370885Y-116736777D01*
X94373045Y-116739110D01*
X94375093Y-116741545D01*
X94377026Y-116744081D01*
X94378839Y-116746713D01*
X94380526Y-116749438D01*
X94382084Y-116752251D01*
X94383508Y-116755148D01*
X94384794Y-116758127D01*
X94385937Y-116761182D01*
X94386932Y-116764311D01*
X94387776Y-116767509D01*
X94388463Y-116770773D01*
X94388989Y-116774098D01*
X94389350Y-116777482D01*
X94538290Y-118612631D01*
X94573500Y-118613699D01*
X94614592Y-118616116D01*
X94660716Y-118620299D01*
X94711025Y-118626663D01*
X94737485Y-118630793D01*
X94764672Y-118635624D01*
X94792483Y-118641209D01*
X94820810Y-118647598D01*
X94849547Y-118654845D01*
X94878590Y-118663001D01*
X94907831Y-118672118D01*
X94937165Y-118682248D01*
X94982101Y-118699819D01*
X95026659Y-118719973D01*
X95070480Y-118742883D01*
X95113210Y-118768725D01*
X95154492Y-118797672D01*
X95174479Y-118813365D01*
X95193971Y-118829899D01*
X95212923Y-118847296D01*
X95231292Y-118865579D01*
X95249031Y-118884768D01*
X95266098Y-118904886D01*
X95282447Y-118925954D01*
X95298034Y-118947995D01*
X95312814Y-118971030D01*
X95326744Y-118995080D01*
X95339778Y-119020168D01*
X95351873Y-119046315D01*
X95362983Y-119073543D01*
X95373065Y-119101873D01*
X95382074Y-119131329D01*
X95389965Y-119161930D01*
X95396693Y-119193700D01*
X95402216Y-119226660D01*
X95406487Y-119260831D01*
X95409463Y-119296235D01*
X95411099Y-119332895D01*
X95411350Y-119370831D01*
X95410657Y-119404779D01*
X95409396Y-119437673D01*
X95407578Y-119469532D01*
X95405215Y-119500373D01*
X95402321Y-119530214D01*
X95398907Y-119559074D01*
X95394984Y-119586970D01*
X95390565Y-119613920D01*
X95435685Y-119627719D01*
X95491126Y-119643673D01*
X95554506Y-119660551D01*
X95623445Y-119677121D01*
X95695563Y-119692153D01*
X95732071Y-119698707D01*
X95768480Y-119704414D01*
X95804495Y-119709121D01*
X95839816Y-119712674D01*
X95874147Y-119714919D01*
X95907189Y-119715701D01*
X95932524Y-119715363D01*
X95960152Y-119714208D01*
X95989815Y-119712028D01*
X96021252Y-119708614D01*
X96054203Y-119703755D01*
X96088407Y-119697243D01*
X96123604Y-119688868D01*
X96159535Y-119678421D01*
X96195938Y-119665692D01*
X96232554Y-119650472D01*
X96269123Y-119632552D01*
X96305384Y-119611723D01*
X96323317Y-119600152D01*
X96341077Y-119587775D01*
X96358629Y-119574565D01*
X96375941Y-119560498D01*
X96392982Y-119545546D01*
X96409718Y-119529684D01*
X96426116Y-119512884D01*
X96442145Y-119495122D01*
X96463420Y-119469211D01*
X96483829Y-119441432D01*
X96503300Y-119411725D01*
X96521766Y-119380030D01*
X96539155Y-119346289D01*
X96555399Y-119310441D01*
X96570426Y-119272428D01*
X96584168Y-119232189D01*
X96596555Y-119189665D01*
X96607517Y-119144796D01*
X96616984Y-119097522D01*
X96624886Y-119047785D01*
X96631153Y-118995525D01*
X96635717Y-118940681D01*
X96638506Y-118883195D01*
X96639451Y-118823007D01*
X96638902Y-118795747D01*
X96637278Y-118769448D01*
X96634614Y-118744092D01*
X96630944Y-118719661D01*
X96626305Y-118696140D01*
X96620731Y-118673509D01*
X96614256Y-118651754D01*
X96606916Y-118630855D01*
X96598745Y-118610796D01*
X96589779Y-118591560D01*
X96580053Y-118573130D01*
X96569600Y-118555488D01*
X96558458Y-118538617D01*
X96546659Y-118522500D01*
X96534240Y-118507119D01*
X96521235Y-118492459D01*
X96507679Y-118478501D01*
X96493607Y-118465227D01*
X96464055Y-118440668D01*
X96432858Y-118418643D01*
X96400296Y-118399015D01*
X96366648Y-118381646D01*
X96332194Y-118366399D01*
X96297213Y-118353136D01*
X96261986Y-118341720D01*
X96224580Y-118331420D01*
X96187467Y-118322817D01*
X96150939Y-118315769D01*
X96115290Y-118310134D01*
X96080811Y-118305768D01*
X96047796Y-118302530D01*
X95987325Y-118298865D01*
X95936219Y-118297999D01*
X95896816Y-118298791D01*
X95862486Y-118300794D01*
X95859224Y-118301022D01*
X95855988Y-118301091D01*
X95852780Y-118301004D01*
X95849605Y-118300763D01*
X95846467Y-118300372D01*
X95843370Y-118299835D01*
X95840318Y-118299154D01*
X95837316Y-118298333D01*
X95834367Y-118297374D01*
X95831477Y-118296282D01*
X95828648Y-118295059D01*
X95825885Y-118293709D01*
X95823192Y-118292235D01*
X95820574Y-118290640D01*
X95818034Y-118288927D01*
X95815576Y-118287100D01*
X95813206Y-118285161D01*
X95810926Y-118283115D01*
X95808741Y-118280964D01*
X95806655Y-118278711D01*
X95804673Y-118276360D01*
X95802798Y-118273914D01*
X95801035Y-118271376D01*
X95799387Y-118268749D01*
X95797859Y-118266037D01*
X95796455Y-118263243D01*
X95795180Y-118260370D01*
X95794036Y-118257422D01*
X95793029Y-118254400D01*
X95792163Y-118251310D01*
X95791441Y-118248154D01*
X95790868Y-118244935D01*
X95552976Y-116688264D01*
X95527270Y-116692580D01*
X95501690Y-116696321D01*
X95476249Y-116699486D01*
X95450958Y-116702075D01*
X95425830Y-116704089D01*
X95400877Y-116705528D01*
X95376111Y-116706391D01*
X95351544Y-116706679D01*
X95315913Y-116705968D01*
X95277062Y-116703688D01*
X95235276Y-116699617D01*
X95190841Y-116693533D01*
X95144042Y-116685214D01*
X95095165Y-116674438D01*
X95044497Y-116660983D01*
X94992321Y-116644627D01*
X94938927Y-116625149D01*
X94884596Y-116602327D01*
X94829617Y-116575938D01*
X94774273Y-116545761D01*
X94718852Y-116511574D01*
X94663639Y-116473155D01*
X94608920Y-116430282D01*
X94581835Y-116407106D01*
X94554980Y-116382733D01*
X94503368Y-116331612D01*
X94452978Y-116275541D01*
X94404100Y-116214302D01*
X94357025Y-116147675D01*
X94312045Y-116075442D01*
X94269450Y-115997382D01*
X94229531Y-115913278D01*
X94192579Y-115822908D01*
X94158885Y-115726055D01*
X94128740Y-115622499D01*
X94102434Y-115512021D01*
X94080259Y-115394400D01*
X94062506Y-115269419D01*
X94049464Y-115136858D01*
X94041426Y-114996498D01*
X94038682Y-114848119D01*
X94038768Y-114844717D01*
X94039024Y-114841359D01*
X94039445Y-114838050D01*
X94040027Y-114834794D01*
X94040766Y-114831594D01*
X94041658Y-114828456D01*
X94042699Y-114825383D01*
X94043884Y-114822380D01*
X94045210Y-114819450D01*
X94046671Y-114816598D01*
X94048265Y-114813828D01*
X94049986Y-114811144D01*
X94051832Y-114808551D01*
X94053796Y-114806052D01*
X94055876Y-114803651D01*
X94058067Y-114801354D01*
X94060365Y-114799163D01*
X94062765Y-114797084D01*
X94065264Y-114795120D01*
X94067858Y-114793275D01*
X94070542Y-114791554D01*
X94073312Y-114789961D01*
X94076164Y-114788499D01*
X94079093Y-114787174D01*
X94082097Y-114785989D01*
X94085169Y-114784949D01*
X94088307Y-114784057D01*
X94091506Y-114783318D01*
X94094761Y-114782736D01*
X94098070Y-114782315D01*
X94101427Y-114782060D01*
X94104828Y-114781973D01*
X94108230Y-114782060D01*
X94111588Y-114782315D01*
X94114897Y-114782736D01*
X94118153Y-114783318D01*
X94121352Y-114784057D01*
X94124490Y-114784949D01*
X94127563Y-114785989D01*
X94130567Y-114787174D01*
X94133496Y-114788499D01*
X94136348Y-114789961D01*
X94139118Y-114791554D01*
X94141802Y-114793275D01*
X94144396Y-114795120D01*
X94146895Y-114797084D01*
X94149295Y-114799163D01*
X94151593Y-114801354D01*
X94153783Y-114803651D01*
X94155863Y-114806052D01*
X94157827Y-114808551D01*
X94159672Y-114811144D01*
X94161393Y-114813828D01*
X94162986Y-114816598D01*
X94164448Y-114819450D01*
X94165773Y-114822380D01*
X94166958Y-114825383D01*
X94167998Y-114828456D01*
X94168890Y-114831594D01*
X94169629Y-114834794D01*
X94170211Y-114838050D01*
X94170632Y-114841359D01*
X94170887Y-114844717D01*
X94170974Y-114848119D01*
X94173444Y-114986911D01*
X94180692Y-115118262D01*
X94192469Y-115242369D01*
X94208529Y-115359429D01*
X94228624Y-115469639D01*
X94252507Y-115573196D01*
X94279932Y-115670295D01*
X94310650Y-115761134D01*
X94344415Y-115845909D01*
X94380980Y-115924817D01*
X94420097Y-115998055D01*
X94461519Y-116065820D01*
X94505000Y-116128308D01*
X94550292Y-116185715D01*
X94597147Y-116238240D01*
X94645319Y-116286077D01*
X94693164Y-116328267D01*
X94741691Y-116366329D01*
X94790650Y-116400456D01*
X94839788Y-116430843D01*
X94888852Y-116457684D01*
X94937590Y-116481173D01*
X94985749Y-116501503D01*
X95033078Y-116518870D01*
X95079325Y-116533467D01*
X95124237Y-116545488D01*
X95167561Y-116555127D01*
X95209046Y-116562578D01*
X95248439Y-116568036D01*
X95285488Y-116571694D01*
X95319940Y-116573746D01*
X95351544Y-116574387D01*
X95410818Y-116572564D01*
X95471124Y-116567099D01*
X95532270Y-116557997D01*
X95594066Y-116545266D01*
X95656320Y-116528911D01*
X95718841Y-116508939D01*
X95781439Y-116485356D01*
X95843922Y-116458168D01*
X95906099Y-116427381D01*
X95967779Y-116393002D01*
X96028771Y-116355036D01*
X96088884Y-116313491D01*
X96147927Y-116268372D01*
X96205709Y-116219685D01*
X96262039Y-116167437D01*
X96316726Y-116111634D01*
X96369579Y-116052282D01*
X96420406Y-115989387D01*
X96469017Y-115922956D01*
X96515221Y-115852995D01*
X96558826Y-115779510D01*
X96599642Y-115702507D01*
X96637477Y-115621992D01*
X96672141Y-115537972D01*
X96703443Y-115450453D01*
X96731190Y-115359442D01*
X96755193Y-115264943D01*
X96775260Y-115166965D01*
X96791200Y-115065512D01*
X96802823Y-114960591D01*
X96809936Y-114852208D01*
X96812350Y-114740370D01*
X96810892Y-114662916D01*
X96806580Y-114587697D01*
X96799509Y-114514719D01*
X96789775Y-114443980D01*
X96777473Y-114375485D01*
X96762697Y-114309236D01*
X96745543Y-114245237D01*
X96726105Y-114183489D01*
X96704478Y-114123995D01*
X96680758Y-114066759D01*
X96655040Y-114011782D01*
X96627417Y-113959066D01*
X96597987Y-113908616D01*
X96566842Y-113860433D01*
X96499793Y-113770879D01*
X96427028Y-113690427D01*
X96349310Y-113619096D01*
X96267396Y-113556908D01*
X96182048Y-113503883D01*
X96094025Y-113460043D01*
X96004088Y-113425409D01*
X95912995Y-113400002D01*
X95821507Y-113383841D01*
X95783612Y-113379861D01*
X95745862Y-113377489D01*
X95708316Y-113376731D01*
X95671035Y-113377589D01*
X95634079Y-113380068D01*
X95597507Y-113384170D01*
X95561381Y-113389899D01*
X95525759Y-113397260D01*
X95490701Y-113406255D01*
X95456269Y-113416888D01*
X95422521Y-113429163D01*
X95389519Y-113443083D01*
X95357321Y-113458652D01*
X95325988Y-113475873D01*
X95295581Y-113494750D01*
X95266158Y-113515287D01*
X95263371Y-113517239D01*
X95260519Y-113519029D01*
X95257608Y-113520657D01*
X95254643Y-113522124D01*
X95251631Y-113523431D01*
X95248578Y-113524579D01*
X95245488Y-113525568D01*
X95242368Y-113526400D01*
X95239225Y-113527076D01*
X95236062Y-113527596D01*
X95232887Y-113527961D01*
X95229706Y-113528172D01*
X95226524Y-113528230D01*
X95223346Y-113528136D01*
X95220179Y-113527890D01*
X95217029Y-113527495D01*
X95213902Y-113526949D01*
X95210802Y-113526255D01*
X95207737Y-113525413D01*
X95204712Y-113524424D01*
X95201733Y-113523289D01*
X95198805Y-113522009D01*
X95195934Y-113520585D01*
X95193127Y-113519017D01*
X95190389Y-113517306D01*
X95187726Y-113515454D01*
X95185144Y-113513460D01*
X95182648Y-113511327D01*
X95180245Y-113509055D01*
X95177940Y-113506644D01*
X95175739Y-113504096D01*
X95173648Y-113501412D01*
X95171695Y-113498625D01*
X95169906Y-113495773D01*
X95168278Y-113492862D01*
X95166811Y-113489898D01*
X95165504Y-113486886D01*
X95164356Y-113483832D01*
X95163367Y-113480742D01*
X95162535Y-113477623D01*
X95161859Y-113474479D01*
X95161339Y-113471317D01*
X95160974Y-113468142D01*
X95160763Y-113464960D01*
X95160705Y-113461778D01*
X95160799Y-113458600D01*
X95161044Y-113455434D01*
X95161440Y-113452284D01*
X95161986Y-113449156D01*
X95162680Y-113446057D01*
X95163522Y-113442992D01*
X95164511Y-113439967D01*
X95165646Y-113436987D01*
X95166926Y-113434059D01*
X95168350Y-113431189D01*
X95169918Y-113428382D01*
X95171629Y-113425644D01*
X95173481Y-113422981D01*
X95175475Y-113420399D01*
X95177608Y-113417903D01*
X95179880Y-113415500D01*
X95182291Y-113413195D01*
X95184839Y-113410994D01*
X95187523Y-113408903D01*
X95214563Y-113389778D01*
X95242320Y-113371830D01*
X95270760Y-113355058D01*
X95299851Y-113339466D01*
X95329558Y-113325053D01*
X95359848Y-113311821D01*
X95390688Y-113299771D01*
X95422045Y-113288904D01*
X95453883Y-113279221D01*
X95486172Y-113270724D01*
X95518875Y-113263413D01*
X95551962Y-113257289D01*
X95585396Y-113252354D01*
X95619147Y-113248609D01*
X95653178Y-113246055D01*
X95687459Y-113244692D01*
X95682239Y-112687789D01*
X95672116Y-112211107D01*
X95653641Y-111657671D01*
X95624308Y-111069031D01*
X95581610Y-110486737D01*
X95554466Y-110210955D01*
X95523041Y-109952340D01*
X95487022Y-109716087D01*
X95446095Y-109507389D01*
X95432761Y-109450637D01*
X95418999Y-109397166D01*
X95404771Y-109347144D01*
X95390042Y-109300741D01*
X95374773Y-109258126D01*
X95358928Y-109219466D01*
X95350778Y-109201673D01*
X95342470Y-109184931D01*
X95333999Y-109169263D01*
X95325361Y-109154689D01*
X95318262Y-109143459D01*
X95311336Y-109133105D01*
X95307903Y-109128304D01*
X95304471Y-109123780D01*
X95301025Y-109119553D01*
X95297552Y-109115640D01*
X95294038Y-109112063D01*
X95290467Y-109108840D01*
X95286826Y-109105990D01*
X95283102Y-109103532D01*
X95279279Y-109101487D01*
X95277326Y-109100624D01*
X95275343Y-109099872D01*
X95273329Y-109099233D01*
X95271281Y-109098709D01*
X95269198Y-109098302D01*
X95267077Y-109098015D01*
X95263150Y-109097712D01*
X95259250Y-109097634D01*
X95255375Y-109097774D01*
X95251525Y-109098129D01*
X95247698Y-109098691D01*
X95243893Y-109099456D01*
X95240109Y-109100419D01*
X95236345Y-109101574D01*
X95232599Y-109102915D01*
X95228871Y-109104439D01*
X95225158Y-109106138D01*
X95221461Y-109108007D01*
X95217777Y-109110043D01*
X95214105Y-109112238D01*
X95210445Y-109114587D01*
X95206796Y-109117086D01*
X95201575Y-109120915D01*
X95196395Y-109125006D01*
X95191252Y-109129354D01*
X95186145Y-109133956D01*
X95181071Y-109138808D01*
X95176030Y-109143907D01*
X95171018Y-109149247D01*
X95166034Y-109154827D01*
X95161076Y-109160640D01*
X95156141Y-109166685D01*
X95151228Y-109172957D01*
X95146336Y-109179451D01*
X95141461Y-109186165D01*
X95136602Y-109193095D01*
X95131757Y-109200236D01*
X95126923Y-109207584D01*
X95110123Y-109234887D01*
X95093618Y-109264423D01*
X95077402Y-109296126D01*
X95061470Y-109329926D01*
X95045816Y-109365756D01*
X95030437Y-109403545D01*
X95015326Y-109443227D01*
X95000479Y-109484732D01*
X94985890Y-109527991D01*
X94971555Y-109572937D01*
X94943623Y-109667614D01*
X94916645Y-109768213D01*
X94890577Y-109874186D01*
X94841265Y-110099824D01*
X94795730Y-110340333D01*
X94715658Y-110849721D01*
X94649705Y-111369866D01*
X94597216Y-111868285D01*
X94530000Y-112670000D01*
X94508762Y-112994989D01*
X94508506Y-112998206D01*
X94508099Y-113001376D01*
X94507546Y-113004496D01*
X94506850Y-113007562D01*
X94506015Y-113010572D01*
X94505044Y-113013521D01*
X94503940Y-113016406D01*
X94502708Y-113019224D01*
X94501352Y-113021970D01*
X94499874Y-113024643D01*
X94498278Y-113027237D01*
X94496569Y-113029749D01*
X94494749Y-113032177D01*
X94492823Y-113034515D01*
X94490794Y-113036762D01*
X94488665Y-113038913D01*
X94486441Y-113040965D01*
X94484124Y-113042915D01*
X94481720Y-113044758D01*
X94479230Y-113046492D01*
X94476659Y-113048112D01*
X94474011Y-113049616D01*
X94471289Y-113050999D01*
X94468496Y-113052259D01*
X94465637Y-113053392D01*
X94462715Y-113054394D01*
X94459734Y-113055261D01*
X94456697Y-113055991D01*
X94453608Y-113056579D01*
X94450471Y-113057023D01*
X94447289Y-113057319D01*
X94444065Y-113057462D01*
X94440840Y-113057451D01*
X94437650Y-113057286D01*
X94434498Y-113056971D01*
X94431388Y-113056510D01*
X94428325Y-113055905D01*
X94425311Y-113055160D01*
X94422351Y-113054279D01*
X94419449Y-113053265D01*
X94416608Y-113052120D01*
X94413832Y-113050849D01*
X94411125Y-113049455D01*
X94408490Y-113047942D01*
X94405932Y-113046312D01*
X94403454Y-113044568D01*
X94401060Y-113042716D01*
X94398753Y-113040756D01*
X94396538Y-113038694D01*
X94394419Y-113036533D01*
X94392399Y-113034275D01*
X94390481Y-113031924D01*
X94388670Y-113029484D01*
X94386970Y-113026958D01*
X94385384Y-113024349D01*
X94383915Y-113021660D01*
X94382569Y-113018896D01*
X94381348Y-113016058D01*
X94380257Y-113013152D01*
X94379298Y-113010180D01*
X94378477Y-113007145D01*
X94377796Y-113004051D01*
X94377260Y-113000901D01*
X94376872Y-112997698D01*
X94334810Y-112590510D01*
X94221673Y-111619525D01*
X94144569Y-111040066D01*
X94057038Y-110460609D01*
X93961525Y-109928136D01*
X93911541Y-109694201D01*
X93860480Y-109489630D01*
X93845777Y-109437471D01*
X93831077Y-109388460D01*
X93816367Y-109342756D01*
X93801635Y-109300517D01*
X93786869Y-109261901D01*
X93772057Y-109227068D01*
X93757185Y-109196174D01*
X93749724Y-109182254D01*
X93742243Y-109169379D01*
X93740267Y-109166238D01*
X93738152Y-109163087D01*
X93735927Y-109159949D01*
X93733622Y-109156844D01*
X93728886Y-109150822D01*
X93724176Y-109145193D01*
X93719726Y-109140128D01*
X93715768Y-109135800D01*
X93710260Y-109130040D01*
X93707276Y-109130411D01*
X93704322Y-109130960D01*
X93701397Y-109131683D01*
X93698498Y-109132575D01*
X93695623Y-109133630D01*
X93692770Y-109134843D01*
X93689937Y-109136208D01*
X93687121Y-109137722D01*
X93684321Y-109139379D01*
X93681534Y-109141173D01*
X93678759Y-109143100D01*
X93675992Y-109145154D01*
X93673233Y-109147330D01*
X93670478Y-109149623D01*
X93667725Y-109152028D01*
X93664973Y-109154541D01*
X93660249Y-109159098D01*
X93655569Y-109163930D01*
X93650934Y-109169034D01*
X93646339Y-109174407D01*
X93641784Y-109180046D01*
X93637265Y-109185949D01*
X93632782Y-109192113D01*
X93628331Y-109198535D01*
X93623910Y-109205213D01*
X93619517Y-109212144D01*
X93615151Y-109219324D01*
X93610808Y-109226752D01*
X93606487Y-109234424D01*
X93602185Y-109242339D01*
X93597901Y-109250492D01*
X93593632Y-109258882D01*
X93579018Y-109289659D01*
X93564732Y-109322952D01*
X93550768Y-109358718D01*
X93537117Y-109396918D01*
X93523775Y-109437509D01*
X93510734Y-109480449D01*
X93497987Y-109525698D01*
X93485528Y-109573215D01*
X93461448Y-109674883D01*
X93438440Y-109785123D01*
X93416450Y-109903604D01*
X93395427Y-110029994D01*
X93330917Y-110515531D01*
X93277003Y-111075201D01*
X93196955Y-112367834D01*
X93147262Y-113809687D01*
X93119907Y-115302555D01*
X93100139Y-118048514D01*
X93073503Y-119820062D01*
X92941114Y-119820062D01*
X92941179Y-119817416D01*
X92959556Y-119103775D01*
X92968177Y-118046462D01*
X92988275Y-115295383D01*
X93015813Y-113798901D01*
X93065718Y-112353310D01*
X93146022Y-111057251D01*
X93200083Y-110496122D01*
X93264755Y-110009367D01*
X93291018Y-109854081D01*
X93319000Y-109710360D01*
X93348676Y-109578730D01*
X93380024Y-109459718D01*
X93413020Y-109353848D01*
X93430128Y-109306006D01*
X93447639Y-109261647D01*
X93465550Y-109220837D01*
X93483858Y-109183641D01*
X93502561Y-109150126D01*
X93521654Y-109120357D01*
X93532673Y-109105107D01*
X93543882Y-109090913D01*
X93555270Y-109077767D01*
X93566828Y-109065657D01*
X93578543Y-109054574D01*
X93590407Y-109044507D01*
X93602406Y-109035447D01*
X93614532Y-109027383D01*
X93626774Y-109020306D01*
X93639120Y-109014205D01*
X93651561Y-109009070D01*
X93664084Y-109004891D01*
X93676681Y-109001659D01*
X93689339Y-108999362D01*
X93702049Y-108997992D01*
X93714800Y-108997537D01*
X93721761Y-108997761D01*
X93728803Y-108998441D01*
X93735914Y-108999590D01*
X93743083Y-109001222D01*
X93750299Y-109003351D01*
X93757551Y-109005989D01*
X93764828Y-109009151D01*
X93772119Y-109012849D01*
X93779412Y-109017096D01*
X93786698Y-109021908D01*
X93793964Y-109027296D01*
X93801200Y-109033274D01*
X93808394Y-109039855D01*
X93815536Y-109047054D01*
X93822615Y-109054882D01*
X93829619Y-109063355D01*
X93839461Y-109076588D01*
X93849350Y-109091464D01*
X93859276Y-109107950D01*
X93869233Y-109126015D01*
X93879211Y-109145629D01*
X93889203Y-109166760D01*
X93899200Y-109189377D01*
X93909195Y-109213449D01*
X93919178Y-109238945D01*
X93929143Y-109265834D01*
X93939080Y-109294084D01*
X93948982Y-109323665D01*
X93958840Y-109354546D01*
X93968647Y-109386695D01*
X93988073Y-109454673D01*
X94055234Y-109730802D01*
X94120396Y-110054541D01*
X94182859Y-110412582D01*
X94241925Y-110791617D01*
X94296894Y-111178339D01*
X94347070Y-111559441D01*
X94430245Y-112251551D01*
X94498069Y-111542515D01*
X94543199Y-111151735D01*
X94596173Y-110755484D01*
X94657261Y-110367789D01*
X94726737Y-110002676D01*
X94764705Y-109832971D01*
X94804873Y-109674173D01*
X94847274Y-109528033D01*
X94891943Y-109396306D01*
X94914599Y-109337773D01*
X94937896Y-109283069D01*
X94961795Y-109232349D01*
X94973959Y-109208531D01*
X94986260Y-109185767D01*
X94998693Y-109164076D01*
X95011253Y-109143477D01*
X95023935Y-109123989D01*
X95036736Y-109105633D01*
X95049650Y-109088427D01*
X95062672Y-109072390D01*
X95075798Y-109057542D01*
X95089024Y-109043903D01*
X95100367Y-109033214D01*
X95111817Y-109023314D01*
X95123369Y-109014199D01*
X95135018Y-109005869D01*
X95146763Y-108998322D01*
X95158597Y-108991556D01*
X95170517Y-108985569D01*
X95182519Y-108980359D01*
X95194600Y-108975925D01*
X95206755Y-108972265D01*
X95218980Y-108969377D01*
X95231271Y-108967260D01*
X95243624Y-108965912D01*
X95256035Y-108965331D01*
X95268500Y-108965516D01*
G37*
G36*
X96275001Y-114782063D02*
G01*
X96278234Y-114782326D01*
X96281468Y-114782752D01*
X96284698Y-114783342D01*
X96287917Y-114784099D01*
X96291121Y-114785025D01*
X96294304Y-114786122D01*
X96297460Y-114787392D01*
X96300549Y-114788821D01*
X96303530Y-114790388D01*
X96306401Y-114792087D01*
X96309159Y-114793913D01*
X96311803Y-114795861D01*
X96314330Y-114797925D01*
X96316739Y-114800099D01*
X96319026Y-114802379D01*
X96321190Y-114804758D01*
X96323228Y-114807231D01*
X96325139Y-114809792D01*
X96326920Y-114812437D01*
X96328570Y-114815159D01*
X96330085Y-114817954D01*
X96331464Y-114820815D01*
X96332704Y-114823738D01*
X96333804Y-114826716D01*
X96334761Y-114829744D01*
X96335574Y-114832818D01*
X96336239Y-114835930D01*
X96336754Y-114839077D01*
X96337119Y-114842251D01*
X96337329Y-114845449D01*
X96337384Y-114848664D01*
X96337281Y-114851891D01*
X96337017Y-114855125D01*
X96336592Y-114858360D01*
X96336001Y-114861590D01*
X96335244Y-114864810D01*
X96334319Y-114868015D01*
X96333222Y-114871198D01*
X96331952Y-114874356D01*
X96094250Y-115424455D01*
X96122560Y-115797803D01*
X96122731Y-115801201D01*
X96122731Y-115804568D01*
X96122561Y-115807898D01*
X96122227Y-115811189D01*
X96121732Y-115814434D01*
X96121080Y-115817631D01*
X96120275Y-115820773D01*
X96119320Y-115823857D01*
X96118220Y-115826879D01*
X96116978Y-115829833D01*
X96115599Y-115832715D01*
X96114085Y-115835522D01*
X96112442Y-115838247D01*
X96110672Y-115840888D01*
X96108779Y-115843439D01*
X96106769Y-115845896D01*
X96104643Y-115848254D01*
X96102406Y-115850509D01*
X96100063Y-115852657D01*
X96097616Y-115854693D01*
X96095069Y-115856612D01*
X96092428Y-115858410D01*
X96089694Y-115860083D01*
X96086873Y-115861626D01*
X96083967Y-115863034D01*
X96080982Y-115864304D01*
X96077920Y-115865430D01*
X96074785Y-115866409D01*
X96071582Y-115867235D01*
X96068315Y-115867904D01*
X96064986Y-115868412D01*
X96061600Y-115868754D01*
X96058202Y-115868926D01*
X96054836Y-115868925D01*
X96051505Y-115868756D01*
X96048215Y-115868421D01*
X96044969Y-115867926D01*
X96041773Y-115867274D01*
X96038631Y-115866469D01*
X96035547Y-115865515D01*
X96032525Y-115864415D01*
X96029571Y-115863173D01*
X96026689Y-115861793D01*
X96023882Y-115860280D01*
X96021157Y-115858637D01*
X96018516Y-115856867D01*
X96015965Y-115854975D01*
X96013508Y-115852964D01*
X96011150Y-115850839D01*
X96008895Y-115848602D01*
X96006747Y-115846259D01*
X96004711Y-115843812D01*
X96002792Y-115841266D01*
X96000994Y-115838625D01*
X95999321Y-115835892D01*
X95997778Y-115833071D01*
X95996370Y-115830166D01*
X95995100Y-115827181D01*
X95993974Y-115824120D01*
X95992995Y-115820987D01*
X95992169Y-115817784D01*
X95991500Y-115814517D01*
X95990992Y-115811190D01*
X95990650Y-115807805D01*
X95963663Y-115451877D01*
X95508537Y-115172477D01*
X95505684Y-115170623D01*
X95502957Y-115168649D01*
X95500358Y-115166559D01*
X95497888Y-115164359D01*
X95495549Y-115162055D01*
X95493342Y-115159653D01*
X95491268Y-115157158D01*
X95489329Y-115154577D01*
X95487525Y-115151914D01*
X95485860Y-115149177D01*
X95484333Y-115146369D01*
X95482946Y-115143498D01*
X95481701Y-115140569D01*
X95480599Y-115137587D01*
X95479641Y-115134559D01*
X95478829Y-115131490D01*
X95478164Y-115128386D01*
X95477648Y-115125252D01*
X95477281Y-115122095D01*
X95477066Y-115118919D01*
X95477003Y-115115732D01*
X95477094Y-115112538D01*
X95477341Y-115109343D01*
X95477744Y-115106153D01*
X95478305Y-115102974D01*
X95479026Y-115099811D01*
X95479908Y-115096671D01*
X95480952Y-115093559D01*
X95482159Y-115090480D01*
X95483532Y-115087440D01*
X95485071Y-115084446D01*
X95486777Y-115081503D01*
X95488631Y-115078649D01*
X95490605Y-115075921D01*
X95492695Y-115073321D01*
X95494895Y-115070850D01*
X95497199Y-115068510D01*
X95499601Y-115066302D01*
X95502096Y-115064228D01*
X95504677Y-115062288D01*
X95507339Y-115060484D01*
X95510077Y-115058818D01*
X95512885Y-115057291D01*
X95515756Y-115055904D01*
X95518685Y-115054658D01*
X95521667Y-115053556D01*
X95524695Y-115052598D01*
X95527764Y-115051786D01*
X95530868Y-115051121D01*
X95534002Y-115050604D01*
X95537159Y-115050237D01*
X95540335Y-115050022D01*
X95543522Y-115049959D01*
X95546716Y-115050050D01*
X95549911Y-115050296D01*
X95553101Y-115050700D01*
X95556280Y-115051261D01*
X95559442Y-115051982D01*
X95562583Y-115052863D01*
X95565695Y-115053907D01*
X95568774Y-115055115D01*
X95571813Y-115056487D01*
X95574808Y-115058026D01*
X95577751Y-115059733D01*
X95996618Y-115316876D01*
X96210508Y-114821883D01*
X96211936Y-114818794D01*
X96213502Y-114815813D01*
X96215201Y-114812942D01*
X96217027Y-114810184D01*
X96218974Y-114807540D01*
X96221037Y-114805013D01*
X96223211Y-114802605D01*
X96225490Y-114800318D01*
X96227869Y-114798154D01*
X96230341Y-114796115D01*
X96232903Y-114794204D01*
X96235547Y-114792423D01*
X96238270Y-114790774D01*
X96241064Y-114789258D01*
X96243925Y-114787879D01*
X96246848Y-114786639D01*
X96249826Y-114785539D01*
X96252855Y-114784582D01*
X96255928Y-114783770D01*
X96259040Y-114783105D01*
X96262187Y-114782589D01*
X96265361Y-114782225D01*
X96268559Y-114782014D01*
X96271774Y-114781959D01*
X96275001Y-114782063D01*
G37*
D11*
X165840000Y-70530000D02*
X199840000Y-70530000D01*
X199840000Y-120530000D01*
X165840000Y-120530000D01*
X165840000Y-70530000D01*
D12*
X78754510Y-53929400D02*
X79897368Y-53929400D01*
X71754510Y-53929400D02*
X72897368Y-53929400D01*
X72325939Y-54500828D02*
X72325939Y-53357971D01*
D13*
X85914821Y-93128571D02*
X85971964Y-92957143D01*
X85971964Y-92957143D02*
X86029107Y-92900000D01*
X86029107Y-92900000D02*
X86143392Y-92842857D01*
X86143392Y-92842857D02*
X86314821Y-92842857D01*
X86314821Y-92842857D02*
X86429107Y-92900000D01*
X86429107Y-92900000D02*
X86486250Y-92957143D01*
X86486250Y-92957143D02*
X86543392Y-93071428D01*
X86543392Y-93071428D02*
X86543392Y-93528571D01*
X86543392Y-93528571D02*
X85343392Y-93528571D01*
X85343392Y-93528571D02*
X85343392Y-93128571D01*
X85343392Y-93128571D02*
X85400535Y-93014286D01*
X85400535Y-93014286D02*
X85457678Y-92957143D01*
X85457678Y-92957143D02*
X85571964Y-92900000D01*
X85571964Y-92900000D02*
X85686250Y-92900000D01*
X85686250Y-92900000D02*
X85800535Y-92957143D01*
X85800535Y-92957143D02*
X85857678Y-93014286D01*
X85857678Y-93014286D02*
X85914821Y-93128571D01*
X85914821Y-93128571D02*
X85914821Y-93528571D01*
X85343392Y-92100000D02*
X85343392Y-91871428D01*
X85343392Y-91871428D02*
X85400535Y-91757143D01*
X85400535Y-91757143D02*
X85514821Y-91642857D01*
X85514821Y-91642857D02*
X85743392Y-91585714D01*
X85743392Y-91585714D02*
X86143392Y-91585714D01*
X86143392Y-91585714D02*
X86371964Y-91642857D01*
X86371964Y-91642857D02*
X86486250Y-91757143D01*
X86486250Y-91757143D02*
X86543392Y-91871428D01*
X86543392Y-91871428D02*
X86543392Y-92100000D01*
X86543392Y-92100000D02*
X86486250Y-92214286D01*
X86486250Y-92214286D02*
X86371964Y-92328571D01*
X86371964Y-92328571D02*
X86143392Y-92385714D01*
X86143392Y-92385714D02*
X85743392Y-92385714D01*
X85743392Y-92385714D02*
X85514821Y-92328571D01*
X85514821Y-92328571D02*
X85400535Y-92214286D01*
X85400535Y-92214286D02*
X85343392Y-92100000D01*
X85343392Y-90842857D02*
X85343392Y-90614285D01*
X85343392Y-90614285D02*
X85400535Y-90500000D01*
X85400535Y-90500000D02*
X85514821Y-90385714D01*
X85514821Y-90385714D02*
X85743392Y-90328571D01*
X85743392Y-90328571D02*
X86143392Y-90328571D01*
X86143392Y-90328571D02*
X86371964Y-90385714D01*
X86371964Y-90385714D02*
X86486250Y-90500000D01*
X86486250Y-90500000D02*
X86543392Y-90614285D01*
X86543392Y-90614285D02*
X86543392Y-90842857D01*
X86543392Y-90842857D02*
X86486250Y-90957143D01*
X86486250Y-90957143D02*
X86371964Y-91071428D01*
X86371964Y-91071428D02*
X86143392Y-91128571D01*
X86143392Y-91128571D02*
X85743392Y-91128571D01*
X85743392Y-91128571D02*
X85514821Y-91071428D01*
X85514821Y-91071428D02*
X85400535Y-90957143D01*
X85400535Y-90957143D02*
X85343392Y-90842857D01*
X85343392Y-89985714D02*
X85343392Y-89300000D01*
X86543392Y-89642857D02*
X85343392Y-89642857D01*
X78943392Y-92157143D02*
X78371964Y-92557143D01*
X78943392Y-92842857D02*
X77743392Y-92842857D01*
X77743392Y-92842857D02*
X77743392Y-92385714D01*
X77743392Y-92385714D02*
X77800535Y-92271429D01*
X77800535Y-92271429D02*
X77857678Y-92214286D01*
X77857678Y-92214286D02*
X77971964Y-92157143D01*
X77971964Y-92157143D02*
X78143392Y-92157143D01*
X78143392Y-92157143D02*
X78257678Y-92214286D01*
X78257678Y-92214286D02*
X78314821Y-92271429D01*
X78314821Y-92271429D02*
X78371964Y-92385714D01*
X78371964Y-92385714D02*
X78371964Y-92842857D01*
X78886250Y-91700000D02*
X78943392Y-91528572D01*
X78943392Y-91528572D02*
X78943392Y-91242857D01*
X78943392Y-91242857D02*
X78886250Y-91128572D01*
X78886250Y-91128572D02*
X78829107Y-91071429D01*
X78829107Y-91071429D02*
X78714821Y-91014286D01*
X78714821Y-91014286D02*
X78600535Y-91014286D01*
X78600535Y-91014286D02*
X78486250Y-91071429D01*
X78486250Y-91071429D02*
X78429107Y-91128572D01*
X78429107Y-91128572D02*
X78371964Y-91242857D01*
X78371964Y-91242857D02*
X78314821Y-91471429D01*
X78314821Y-91471429D02*
X78257678Y-91585714D01*
X78257678Y-91585714D02*
X78200535Y-91642857D01*
X78200535Y-91642857D02*
X78086250Y-91700000D01*
X78086250Y-91700000D02*
X77971964Y-91700000D01*
X77971964Y-91700000D02*
X77857678Y-91642857D01*
X77857678Y-91642857D02*
X77800535Y-91585714D01*
X77800535Y-91585714D02*
X77743392Y-91471429D01*
X77743392Y-91471429D02*
X77743392Y-91185714D01*
X77743392Y-91185714D02*
X77800535Y-91014286D01*
X77743392Y-90671429D02*
X77743392Y-89985715D01*
X78943392Y-90328572D02*
X77743392Y-90328572D01*
D14*
X128346667Y-48834702D02*
X128346667Y-49644225D01*
X128346667Y-49644225D02*
X128394286Y-49739463D01*
X128394286Y-49739463D02*
X128441905Y-49787083D01*
X128441905Y-49787083D02*
X128537143Y-49834702D01*
X128537143Y-49834702D02*
X128727619Y-49834702D01*
X128727619Y-49834702D02*
X128822857Y-49787083D01*
X128822857Y-49787083D02*
X128870476Y-49739463D01*
X128870476Y-49739463D02*
X128918095Y-49644225D01*
X128918095Y-49644225D02*
X128918095Y-48834702D01*
X129346667Y-48929940D02*
X129394286Y-48882321D01*
X129394286Y-48882321D02*
X129489524Y-48834702D01*
X129489524Y-48834702D02*
X129727619Y-48834702D01*
X129727619Y-48834702D02*
X129822857Y-48882321D01*
X129822857Y-48882321D02*
X129870476Y-48929940D01*
X129870476Y-48929940D02*
X129918095Y-49025178D01*
X129918095Y-49025178D02*
X129918095Y-49120416D01*
X129918095Y-49120416D02*
X129870476Y-49263273D01*
X129870476Y-49263273D02*
X129299048Y-49834702D01*
X129299048Y-49834702D02*
X129918095Y-49834702D01*
X96654819Y-81363220D02*
X95654819Y-81363220D01*
X95654819Y-81363220D02*
X96369104Y-81029887D01*
X96369104Y-81029887D02*
X95654819Y-80696554D01*
X95654819Y-80696554D02*
X96654819Y-80696554D01*
X95654819Y-80029887D02*
X95654819Y-79839411D01*
X95654819Y-79839411D02*
X95702438Y-79744173D01*
X95702438Y-79744173D02*
X95797676Y-79648935D01*
X95797676Y-79648935D02*
X95988152Y-79601316D01*
X95988152Y-79601316D02*
X96321485Y-79601316D01*
X96321485Y-79601316D02*
X96511961Y-79648935D01*
X96511961Y-79648935D02*
X96607200Y-79744173D01*
X96607200Y-79744173D02*
X96654819Y-79839411D01*
X96654819Y-79839411D02*
X96654819Y-80029887D01*
X96654819Y-80029887D02*
X96607200Y-80125125D01*
X96607200Y-80125125D02*
X96511961Y-80220363D01*
X96511961Y-80220363D02*
X96321485Y-80267982D01*
X96321485Y-80267982D02*
X95988152Y-80267982D01*
X95988152Y-80267982D02*
X95797676Y-80220363D01*
X95797676Y-80220363D02*
X95702438Y-80125125D01*
X95702438Y-80125125D02*
X95654819Y-80029887D01*
X96607200Y-79220363D02*
X96654819Y-79077506D01*
X96654819Y-79077506D02*
X96654819Y-78839411D01*
X96654819Y-78839411D02*
X96607200Y-78744173D01*
X96607200Y-78744173D02*
X96559580Y-78696554D01*
X96559580Y-78696554D02*
X96464342Y-78648935D01*
X96464342Y-78648935D02*
X96369104Y-78648935D01*
X96369104Y-78648935D02*
X96273866Y-78696554D01*
X96273866Y-78696554D02*
X96226247Y-78744173D01*
X96226247Y-78744173D02*
X96178628Y-78839411D01*
X96178628Y-78839411D02*
X96131009Y-79029887D01*
X96131009Y-79029887D02*
X96083390Y-79125125D01*
X96083390Y-79125125D02*
X96035771Y-79172744D01*
X96035771Y-79172744D02*
X95940533Y-79220363D01*
X95940533Y-79220363D02*
X95845295Y-79220363D01*
X95845295Y-79220363D02*
X95750057Y-79172744D01*
X95750057Y-79172744D02*
X95702438Y-79125125D01*
X95702438Y-79125125D02*
X95654819Y-79029887D01*
X95654819Y-79029887D02*
X95654819Y-78791792D01*
X95654819Y-78791792D02*
X95702438Y-78648935D01*
X96654819Y-78220363D02*
X95654819Y-78220363D01*
X99107200Y-81410839D02*
X99154819Y-81267982D01*
X99154819Y-81267982D02*
X99154819Y-81029887D01*
X99154819Y-81029887D02*
X99107200Y-80934649D01*
X99107200Y-80934649D02*
X99059580Y-80887030D01*
X99059580Y-80887030D02*
X98964342Y-80839411D01*
X98964342Y-80839411D02*
X98869104Y-80839411D01*
X98869104Y-80839411D02*
X98773866Y-80887030D01*
X98773866Y-80887030D02*
X98726247Y-80934649D01*
X98726247Y-80934649D02*
X98678628Y-81029887D01*
X98678628Y-81029887D02*
X98631009Y-81220363D01*
X98631009Y-81220363D02*
X98583390Y-81315601D01*
X98583390Y-81315601D02*
X98535771Y-81363220D01*
X98535771Y-81363220D02*
X98440533Y-81410839D01*
X98440533Y-81410839D02*
X98345295Y-81410839D01*
X98345295Y-81410839D02*
X98250057Y-81363220D01*
X98250057Y-81363220D02*
X98202438Y-81315601D01*
X98202438Y-81315601D02*
X98154819Y-81220363D01*
X98154819Y-81220363D02*
X98154819Y-80982268D01*
X98154819Y-80982268D02*
X98202438Y-80839411D01*
X99059580Y-79839411D02*
X99107200Y-79887030D01*
X99107200Y-79887030D02*
X99154819Y-80029887D01*
X99154819Y-80029887D02*
X99154819Y-80125125D01*
X99154819Y-80125125D02*
X99107200Y-80267982D01*
X99107200Y-80267982D02*
X99011961Y-80363220D01*
X99011961Y-80363220D02*
X98916723Y-80410839D01*
X98916723Y-80410839D02*
X98726247Y-80458458D01*
X98726247Y-80458458D02*
X98583390Y-80458458D01*
X98583390Y-80458458D02*
X98392914Y-80410839D01*
X98392914Y-80410839D02*
X98297676Y-80363220D01*
X98297676Y-80363220D02*
X98202438Y-80267982D01*
X98202438Y-80267982D02*
X98154819Y-80125125D01*
X98154819Y-80125125D02*
X98154819Y-80029887D01*
X98154819Y-80029887D02*
X98202438Y-79887030D01*
X98202438Y-79887030D02*
X98250057Y-79839411D01*
X99107200Y-79458458D02*
X99154819Y-79315601D01*
X99154819Y-79315601D02*
X99154819Y-79077506D01*
X99154819Y-79077506D02*
X99107200Y-78982268D01*
X99107200Y-78982268D02*
X99059580Y-78934649D01*
X99059580Y-78934649D02*
X98964342Y-78887030D01*
X98964342Y-78887030D02*
X98869104Y-78887030D01*
X98869104Y-78887030D02*
X98773866Y-78934649D01*
X98773866Y-78934649D02*
X98726247Y-78982268D01*
X98726247Y-78982268D02*
X98678628Y-79077506D01*
X98678628Y-79077506D02*
X98631009Y-79267982D01*
X98631009Y-79267982D02*
X98583390Y-79363220D01*
X98583390Y-79363220D02*
X98535771Y-79410839D01*
X98535771Y-79410839D02*
X98440533Y-79458458D01*
X98440533Y-79458458D02*
X98345295Y-79458458D01*
X98345295Y-79458458D02*
X98250057Y-79410839D01*
X98250057Y-79410839D02*
X98202438Y-79363220D01*
X98202438Y-79363220D02*
X98154819Y-79267982D01*
X98154819Y-79267982D02*
X98154819Y-79029887D01*
X98154819Y-79029887D02*
X98202438Y-78887030D01*
X113154819Y-81506077D02*
X114154819Y-81172744D01*
X114154819Y-81172744D02*
X113154819Y-80839411D01*
X114107200Y-80553696D02*
X114154819Y-80410839D01*
X114154819Y-80410839D02*
X114154819Y-80172744D01*
X114154819Y-80172744D02*
X114107200Y-80077506D01*
X114107200Y-80077506D02*
X114059580Y-80029887D01*
X114059580Y-80029887D02*
X113964342Y-79982268D01*
X113964342Y-79982268D02*
X113869104Y-79982268D01*
X113869104Y-79982268D02*
X113773866Y-80029887D01*
X113773866Y-80029887D02*
X113726247Y-80077506D01*
X113726247Y-80077506D02*
X113678628Y-80172744D01*
X113678628Y-80172744D02*
X113631009Y-80363220D01*
X113631009Y-80363220D02*
X113583390Y-80458458D01*
X113583390Y-80458458D02*
X113535771Y-80506077D01*
X113535771Y-80506077D02*
X113440533Y-80553696D01*
X113440533Y-80553696D02*
X113345295Y-80553696D01*
X113345295Y-80553696D02*
X113250057Y-80506077D01*
X113250057Y-80506077D02*
X113202438Y-80458458D01*
X113202438Y-80458458D02*
X113154819Y-80363220D01*
X113154819Y-80363220D02*
X113154819Y-80125125D01*
X113154819Y-80125125D02*
X113202438Y-79982268D01*
X114107200Y-79601315D02*
X114154819Y-79458458D01*
X114154819Y-79458458D02*
X114154819Y-79220363D01*
X114154819Y-79220363D02*
X114107200Y-79125125D01*
X114107200Y-79125125D02*
X114059580Y-79077506D01*
X114059580Y-79077506D02*
X113964342Y-79029887D01*
X113964342Y-79029887D02*
X113869104Y-79029887D01*
X113869104Y-79029887D02*
X113773866Y-79077506D01*
X113773866Y-79077506D02*
X113726247Y-79125125D01*
X113726247Y-79125125D02*
X113678628Y-79220363D01*
X113678628Y-79220363D02*
X113631009Y-79410839D01*
X113631009Y-79410839D02*
X113583390Y-79506077D01*
X113583390Y-79506077D02*
X113535771Y-79553696D01*
X113535771Y-79553696D02*
X113440533Y-79601315D01*
X113440533Y-79601315D02*
X113345295Y-79601315D01*
X113345295Y-79601315D02*
X113250057Y-79553696D01*
X113250057Y-79553696D02*
X113202438Y-79506077D01*
X113202438Y-79506077D02*
X113154819Y-79410839D01*
X113154819Y-79410839D02*
X113154819Y-79172744D01*
X113154819Y-79172744D02*
X113202438Y-79029887D01*
X104154819Y-81363220D02*
X103154819Y-81363220D01*
X103154819Y-81363220D02*
X103154819Y-81125125D01*
X103154819Y-81125125D02*
X103202438Y-80982268D01*
X103202438Y-80982268D02*
X103297676Y-80887030D01*
X103297676Y-80887030D02*
X103392914Y-80839411D01*
X103392914Y-80839411D02*
X103583390Y-80791792D01*
X103583390Y-80791792D02*
X103726247Y-80791792D01*
X103726247Y-80791792D02*
X103916723Y-80839411D01*
X103916723Y-80839411D02*
X104011961Y-80887030D01*
X104011961Y-80887030D02*
X104107200Y-80982268D01*
X104107200Y-80982268D02*
X104154819Y-81125125D01*
X104154819Y-81125125D02*
X104154819Y-81363220D01*
X104154819Y-80363220D02*
X103154819Y-80363220D01*
X104107200Y-79934649D02*
X104154819Y-79791792D01*
X104154819Y-79791792D02*
X104154819Y-79553697D01*
X104154819Y-79553697D02*
X104107200Y-79458459D01*
X104107200Y-79458459D02*
X104059580Y-79410840D01*
X104059580Y-79410840D02*
X103964342Y-79363221D01*
X103964342Y-79363221D02*
X103869104Y-79363221D01*
X103869104Y-79363221D02*
X103773866Y-79410840D01*
X103773866Y-79410840D02*
X103726247Y-79458459D01*
X103726247Y-79458459D02*
X103678628Y-79553697D01*
X103678628Y-79553697D02*
X103631009Y-79744173D01*
X103631009Y-79744173D02*
X103583390Y-79839411D01*
X103583390Y-79839411D02*
X103535771Y-79887030D01*
X103535771Y-79887030D02*
X103440533Y-79934649D01*
X103440533Y-79934649D02*
X103345295Y-79934649D01*
X103345295Y-79934649D02*
X103250057Y-79887030D01*
X103250057Y-79887030D02*
X103202438Y-79839411D01*
X103202438Y-79839411D02*
X103154819Y-79744173D01*
X103154819Y-79744173D02*
X103154819Y-79506078D01*
X103154819Y-79506078D02*
X103202438Y-79363221D01*
X104154819Y-78934649D02*
X103154819Y-78934649D01*
X103154819Y-78934649D02*
X103154819Y-78553697D01*
X103154819Y-78553697D02*
X103202438Y-78458459D01*
X103202438Y-78458459D02*
X103250057Y-78410840D01*
X103250057Y-78410840D02*
X103345295Y-78363221D01*
X103345295Y-78363221D02*
X103488152Y-78363221D01*
X103488152Y-78363221D02*
X103583390Y-78410840D01*
X103583390Y-78410840D02*
X103631009Y-78458459D01*
X103631009Y-78458459D02*
X103678628Y-78553697D01*
X103678628Y-78553697D02*
X103678628Y-78934649D01*
X84628531Y-40565771D02*
X84580912Y-40613391D01*
X84580912Y-40613391D02*
X84438055Y-40661010D01*
X84438055Y-40661010D02*
X84342817Y-40661010D01*
X84342817Y-40661010D02*
X84199960Y-40613391D01*
X84199960Y-40613391D02*
X84104722Y-40518152D01*
X84104722Y-40518152D02*
X84057103Y-40422914D01*
X84057103Y-40422914D02*
X84009484Y-40232438D01*
X84009484Y-40232438D02*
X84009484Y-40089581D01*
X84009484Y-40089581D02*
X84057103Y-39899105D01*
X84057103Y-39899105D02*
X84104722Y-39803867D01*
X84104722Y-39803867D02*
X84199960Y-39708629D01*
X84199960Y-39708629D02*
X84342817Y-39661010D01*
X84342817Y-39661010D02*
X84438055Y-39661010D01*
X84438055Y-39661010D02*
X84580912Y-39708629D01*
X84580912Y-39708629D02*
X84628531Y-39756248D01*
X85104722Y-40661010D02*
X85295198Y-40661010D01*
X85295198Y-40661010D02*
X85390436Y-40613391D01*
X85390436Y-40613391D02*
X85438055Y-40565771D01*
X85438055Y-40565771D02*
X85533293Y-40422914D01*
X85533293Y-40422914D02*
X85580912Y-40232438D01*
X85580912Y-40232438D02*
X85580912Y-39851486D01*
X85580912Y-39851486D02*
X85533293Y-39756248D01*
X85533293Y-39756248D02*
X85485674Y-39708629D01*
X85485674Y-39708629D02*
X85390436Y-39661010D01*
X85390436Y-39661010D02*
X85199960Y-39661010D01*
X85199960Y-39661010D02*
X85104722Y-39708629D01*
X85104722Y-39708629D02*
X85057103Y-39756248D01*
X85057103Y-39756248D02*
X85009484Y-39851486D01*
X85009484Y-39851486D02*
X85009484Y-40089581D01*
X85009484Y-40089581D02*
X85057103Y-40184819D01*
X85057103Y-40184819D02*
X85104722Y-40232438D01*
X85104722Y-40232438D02*
X85199960Y-40280057D01*
X85199960Y-40280057D02*
X85390436Y-40280057D01*
X85390436Y-40280057D02*
X85485674Y-40232438D01*
X85485674Y-40232438D02*
X85533293Y-40184819D01*
X85533293Y-40184819D02*
X85580912Y-40089581D01*
X108154819Y-81506077D02*
X109154819Y-81172744D01*
X109154819Y-81172744D02*
X108154819Y-80839411D01*
X109154819Y-80506077D02*
X108154819Y-80506077D01*
X108154819Y-80506077D02*
X108154819Y-80267982D01*
X108154819Y-80267982D02*
X108202438Y-80125125D01*
X108202438Y-80125125D02*
X108297676Y-80029887D01*
X108297676Y-80029887D02*
X108392914Y-79982268D01*
X108392914Y-79982268D02*
X108583390Y-79934649D01*
X108583390Y-79934649D02*
X108726247Y-79934649D01*
X108726247Y-79934649D02*
X108916723Y-79982268D01*
X108916723Y-79982268D02*
X109011961Y-80029887D01*
X109011961Y-80029887D02*
X109107200Y-80125125D01*
X109107200Y-80125125D02*
X109154819Y-80267982D01*
X109154819Y-80267982D02*
X109154819Y-80506077D01*
X109154819Y-79506077D02*
X108154819Y-79506077D01*
X108154819Y-79506077D02*
X108154819Y-79267982D01*
X108154819Y-79267982D02*
X108202438Y-79125125D01*
X108202438Y-79125125D02*
X108297676Y-79029887D01*
X108297676Y-79029887D02*
X108392914Y-78982268D01*
X108392914Y-78982268D02*
X108583390Y-78934649D01*
X108583390Y-78934649D02*
X108726247Y-78934649D01*
X108726247Y-78934649D02*
X108916723Y-78982268D01*
X108916723Y-78982268D02*
X109011961Y-79029887D01*
X109011961Y-79029887D02*
X109107200Y-79125125D01*
X109107200Y-79125125D02*
X109154819Y-79267982D01*
X109154819Y-79267982D02*
X109154819Y-79506077D01*
X115654819Y-81506077D02*
X116654819Y-81172744D01*
X116654819Y-81172744D02*
X115654819Y-80839411D01*
X116607200Y-80553696D02*
X116654819Y-80410839D01*
X116654819Y-80410839D02*
X116654819Y-80172744D01*
X116654819Y-80172744D02*
X116607200Y-80077506D01*
X116607200Y-80077506D02*
X116559580Y-80029887D01*
X116559580Y-80029887D02*
X116464342Y-79982268D01*
X116464342Y-79982268D02*
X116369104Y-79982268D01*
X116369104Y-79982268D02*
X116273866Y-80029887D01*
X116273866Y-80029887D02*
X116226247Y-80077506D01*
X116226247Y-80077506D02*
X116178628Y-80172744D01*
X116178628Y-80172744D02*
X116131009Y-80363220D01*
X116131009Y-80363220D02*
X116083390Y-80458458D01*
X116083390Y-80458458D02*
X116035771Y-80506077D01*
X116035771Y-80506077D02*
X115940533Y-80553696D01*
X115940533Y-80553696D02*
X115845295Y-80553696D01*
X115845295Y-80553696D02*
X115750057Y-80506077D01*
X115750057Y-80506077D02*
X115702438Y-80458458D01*
X115702438Y-80458458D02*
X115654819Y-80363220D01*
X115654819Y-80363220D02*
X115654819Y-80125125D01*
X115654819Y-80125125D02*
X115702438Y-79982268D01*
X116607200Y-79601315D02*
X116654819Y-79458458D01*
X116654819Y-79458458D02*
X116654819Y-79220363D01*
X116654819Y-79220363D02*
X116607200Y-79125125D01*
X116607200Y-79125125D02*
X116559580Y-79077506D01*
X116559580Y-79077506D02*
X116464342Y-79029887D01*
X116464342Y-79029887D02*
X116369104Y-79029887D01*
X116369104Y-79029887D02*
X116273866Y-79077506D01*
X116273866Y-79077506D02*
X116226247Y-79125125D01*
X116226247Y-79125125D02*
X116178628Y-79220363D01*
X116178628Y-79220363D02*
X116131009Y-79410839D01*
X116131009Y-79410839D02*
X116083390Y-79506077D01*
X116083390Y-79506077D02*
X116035771Y-79553696D01*
X116035771Y-79553696D02*
X115940533Y-79601315D01*
X115940533Y-79601315D02*
X115845295Y-79601315D01*
X115845295Y-79601315D02*
X115750057Y-79553696D01*
X115750057Y-79553696D02*
X115702438Y-79506077D01*
X115702438Y-79506077D02*
X115654819Y-79410839D01*
X115654819Y-79410839D02*
X115654819Y-79172744D01*
X115654819Y-79172744D02*
X115702438Y-79029887D01*
X116369104Y-78648934D02*
X116369104Y-78172744D01*
X116654819Y-78744172D02*
X115654819Y-78410839D01*
X115654819Y-78410839D02*
X116654819Y-78077506D01*
X101131009Y-81363220D02*
X101131009Y-81029887D01*
X101654819Y-80887030D02*
X101654819Y-81363220D01*
X101654819Y-81363220D02*
X100654819Y-81363220D01*
X100654819Y-81363220D02*
X100654819Y-80887030D01*
X100654819Y-80553696D02*
X101654819Y-79887030D01*
X100654819Y-79887030D02*
X101654819Y-80553696D01*
X100654819Y-79648934D02*
X100654819Y-79077506D01*
X101654819Y-79363220D02*
X100654819Y-79363220D01*
X101559580Y-78172744D02*
X101607200Y-78220363D01*
X101607200Y-78220363D02*
X101654819Y-78363220D01*
X101654819Y-78363220D02*
X101654819Y-78458458D01*
X101654819Y-78458458D02*
X101607200Y-78601315D01*
X101607200Y-78601315D02*
X101511961Y-78696553D01*
X101511961Y-78696553D02*
X101416723Y-78744172D01*
X101416723Y-78744172D02*
X101226247Y-78791791D01*
X101226247Y-78791791D02*
X101083390Y-78791791D01*
X101083390Y-78791791D02*
X100892914Y-78744172D01*
X100892914Y-78744172D02*
X100797676Y-78696553D01*
X100797676Y-78696553D02*
X100702438Y-78601315D01*
X100702438Y-78601315D02*
X100654819Y-78458458D01*
X100654819Y-78458458D02*
X100654819Y-78363220D01*
X100654819Y-78363220D02*
X100702438Y-78220363D01*
X100702438Y-78220363D02*
X100750057Y-78172744D01*
X105654819Y-81506077D02*
X106654819Y-81172744D01*
X106654819Y-81172744D02*
X105654819Y-80839411D01*
X106654819Y-80506077D02*
X105654819Y-80506077D01*
X105654819Y-80506077D02*
X105654819Y-80267982D01*
X105654819Y-80267982D02*
X105702438Y-80125125D01*
X105702438Y-80125125D02*
X105797676Y-80029887D01*
X105797676Y-80029887D02*
X105892914Y-79982268D01*
X105892914Y-79982268D02*
X106083390Y-79934649D01*
X106083390Y-79934649D02*
X106226247Y-79934649D01*
X106226247Y-79934649D02*
X106416723Y-79982268D01*
X106416723Y-79982268D02*
X106511961Y-80029887D01*
X106511961Y-80029887D02*
X106607200Y-80125125D01*
X106607200Y-80125125D02*
X106654819Y-80267982D01*
X106654819Y-80267982D02*
X106654819Y-80506077D01*
X106654819Y-79506077D02*
X105654819Y-79506077D01*
X105654819Y-79506077D02*
X105654819Y-79267982D01*
X105654819Y-79267982D02*
X105702438Y-79125125D01*
X105702438Y-79125125D02*
X105797676Y-79029887D01*
X105797676Y-79029887D02*
X105892914Y-78982268D01*
X105892914Y-78982268D02*
X106083390Y-78934649D01*
X106083390Y-78934649D02*
X106226247Y-78934649D01*
X106226247Y-78934649D02*
X106416723Y-78982268D01*
X106416723Y-78982268D02*
X106511961Y-79029887D01*
X106511961Y-79029887D02*
X106607200Y-79125125D01*
X106607200Y-79125125D02*
X106654819Y-79267982D01*
X106654819Y-79267982D02*
X106654819Y-79506077D01*
X106369104Y-78553696D02*
X106369104Y-78077506D01*
X106654819Y-78648934D02*
X105654819Y-78315601D01*
X105654819Y-78315601D02*
X106654819Y-77982268D01*
X83457142Y-34566971D02*
X83409523Y-34614591D01*
X83409523Y-34614591D02*
X83266666Y-34662210D01*
X83266666Y-34662210D02*
X83171428Y-34662210D01*
X83171428Y-34662210D02*
X83028571Y-34614591D01*
X83028571Y-34614591D02*
X82933333Y-34519352D01*
X82933333Y-34519352D02*
X82885714Y-34424114D01*
X82885714Y-34424114D02*
X82838095Y-34233638D01*
X82838095Y-34233638D02*
X82838095Y-34090781D01*
X82838095Y-34090781D02*
X82885714Y-33900305D01*
X82885714Y-33900305D02*
X82933333Y-33805067D01*
X82933333Y-33805067D02*
X83028571Y-33709829D01*
X83028571Y-33709829D02*
X83171428Y-33662210D01*
X83171428Y-33662210D02*
X83266666Y-33662210D01*
X83266666Y-33662210D02*
X83409523Y-33709829D01*
X83409523Y-33709829D02*
X83457142Y-33757448D01*
X84409523Y-34662210D02*
X83838095Y-34662210D01*
X84123809Y-34662210D02*
X84123809Y-33662210D01*
X84123809Y-33662210D02*
X84028571Y-33805067D01*
X84028571Y-33805067D02*
X83933333Y-33900305D01*
X83933333Y-33900305D02*
X83838095Y-33947924D01*
X84790476Y-33757448D02*
X84838095Y-33709829D01*
X84838095Y-33709829D02*
X84933333Y-33662210D01*
X84933333Y-33662210D02*
X85171428Y-33662210D01*
X85171428Y-33662210D02*
X85266666Y-33709829D01*
X85266666Y-33709829D02*
X85314285Y-33757448D01*
X85314285Y-33757448D02*
X85361904Y-33852686D01*
X85361904Y-33852686D02*
X85361904Y-33947924D01*
X85361904Y-33947924D02*
X85314285Y-34090781D01*
X85314285Y-34090781D02*
X84742857Y-34662210D01*
X84742857Y-34662210D02*
X85361904Y-34662210D01*
X94159580Y-80791792D02*
X94207200Y-80839411D01*
X94207200Y-80839411D02*
X94254819Y-80982268D01*
X94254819Y-80982268D02*
X94254819Y-81077506D01*
X94254819Y-81077506D02*
X94207200Y-81220363D01*
X94207200Y-81220363D02*
X94111961Y-81315601D01*
X94111961Y-81315601D02*
X94016723Y-81363220D01*
X94016723Y-81363220D02*
X93826247Y-81410839D01*
X93826247Y-81410839D02*
X93683390Y-81410839D01*
X93683390Y-81410839D02*
X93492914Y-81363220D01*
X93492914Y-81363220D02*
X93397676Y-81315601D01*
X93397676Y-81315601D02*
X93302438Y-81220363D01*
X93302438Y-81220363D02*
X93254819Y-81077506D01*
X93254819Y-81077506D02*
X93254819Y-80982268D01*
X93254819Y-80982268D02*
X93302438Y-80839411D01*
X93302438Y-80839411D02*
X93350057Y-80791792D01*
X94254819Y-80363220D02*
X93254819Y-80363220D01*
X94254819Y-79791792D02*
X93683390Y-80220363D01*
X93254819Y-79791792D02*
X93826247Y-80363220D01*
X94254819Y-78887030D02*
X94254819Y-79363220D01*
X94254819Y-79363220D02*
X93254819Y-79363220D01*
X84652340Y-42565771D02*
X84604721Y-42613391D01*
X84604721Y-42613391D02*
X84461864Y-42661010D01*
X84461864Y-42661010D02*
X84366626Y-42661010D01*
X84366626Y-42661010D02*
X84223769Y-42613391D01*
X84223769Y-42613391D02*
X84128531Y-42518152D01*
X84128531Y-42518152D02*
X84080912Y-42422914D01*
X84080912Y-42422914D02*
X84033293Y-42232438D01*
X84033293Y-42232438D02*
X84033293Y-42089581D01*
X84033293Y-42089581D02*
X84080912Y-41899105D01*
X84080912Y-41899105D02*
X84128531Y-41803867D01*
X84128531Y-41803867D02*
X84223769Y-41708629D01*
X84223769Y-41708629D02*
X84366626Y-41661010D01*
X84366626Y-41661010D02*
X84461864Y-41661010D01*
X84461864Y-41661010D02*
X84604721Y-41708629D01*
X84604721Y-41708629D02*
X84652340Y-41756248D01*
X85604721Y-42661010D02*
X85033293Y-42661010D01*
X85319007Y-42661010D02*
X85319007Y-41661010D01*
X85319007Y-41661010D02*
X85223769Y-41803867D01*
X85223769Y-41803867D02*
X85128531Y-41899105D01*
X85128531Y-41899105D02*
X85033293Y-41946724D01*
X85938055Y-41661010D02*
X86557102Y-41661010D01*
X86557102Y-41661010D02*
X86223769Y-42041962D01*
X86223769Y-42041962D02*
X86366626Y-42041962D01*
X86366626Y-42041962D02*
X86461864Y-42089581D01*
X86461864Y-42089581D02*
X86509483Y-42137200D01*
X86509483Y-42137200D02*
X86557102Y-42232438D01*
X86557102Y-42232438D02*
X86557102Y-42470533D01*
X86557102Y-42470533D02*
X86509483Y-42565771D01*
X86509483Y-42565771D02*
X86461864Y-42613391D01*
X86461864Y-42613391D02*
X86366626Y-42661010D01*
X86366626Y-42661010D02*
X86080912Y-42661010D01*
X86080912Y-42661010D02*
X85985674Y-42613391D01*
X85985674Y-42613391D02*
X85938055Y-42565771D01*
X111131009Y-81363220D02*
X111131009Y-81029887D01*
X111654819Y-80887030D02*
X111654819Y-81363220D01*
X111654819Y-81363220D02*
X110654819Y-81363220D01*
X110654819Y-81363220D02*
X110654819Y-80887030D01*
X110654819Y-80553696D02*
X111654819Y-79887030D01*
X110654819Y-79887030D02*
X111654819Y-80553696D01*
X110654819Y-79648934D02*
X110654819Y-79077506D01*
X111654819Y-79363220D02*
X110654819Y-79363220D01*
X111654819Y-78744172D02*
X110654819Y-78744172D01*
X110654819Y-78744172D02*
X111369104Y-78410839D01*
X111369104Y-78410839D02*
X110654819Y-78077506D01*
X110654819Y-78077506D02*
X111654819Y-78077506D01*
D15*
%TO.C,C17*%
X114519787Y-59709627D02*
G75*
G02*
X114209957Y-59399772I0J309830D01*
G01*
X114209957Y-58599797D02*
G75*
G02*
X114519787Y-58289967I309830J0D01*
G01*
X116680087Y-58290424D02*
G75*
G02*
X116989891Y-58600255I-26J-309830D01*
G01*
X116989891Y-59400229D02*
G75*
G02*
X116680086Y-59710109I-309830J-50D01*
G01*
X115880163Y-58290424D02*
X116680138Y-58290424D01*
X115319711Y-58289967D02*
X114519736Y-58289967D01*
X115880163Y-59710109D02*
X116680138Y-59710109D01*
X115319711Y-59709627D02*
X114519736Y-59709627D01*
X116989891Y-58600254D02*
X116989891Y-59400305D01*
X114209957Y-59399771D02*
X114209957Y-58599746D01*
D16*
%TO.C,C11*%
X111700356Y-62658496D02*
X111700356Y-62158496D01*
X111702489Y-63601270D02*
X111702489Y-63101270D01*
X111852756Y-62006070D02*
X112545161Y-62006070D01*
X112547269Y-63753696D02*
X111854839Y-63753696D01*
X112697536Y-62158496D02*
X112697536Y-62658496D01*
X112699619Y-63101270D02*
X112699619Y-63601270D01*
X111700356Y-62158496D02*
G75*
G02*
X111852756Y-62006096I152400J0D01*
G01*
X111854839Y-63753670D02*
G75*
G02*
X111702443Y-63601270I1J152397D01*
G01*
X112545161Y-62006096D02*
G75*
G02*
X112697561Y-62158496I0J-152400D01*
G01*
X112699644Y-63601270D02*
G75*
G02*
X112547244Y-63753667I-152394J-3D01*
G01*
%TO.C,R9*%
X116261544Y-63439395D02*
X116261544Y-64760605D01*
X116261544Y-64760605D02*
X117220421Y-64760605D01*
X117220421Y-63439395D02*
X116261544Y-63439395D01*
X118072847Y-63439395D02*
X119031724Y-63439395D01*
X119031724Y-63439395D02*
X119031724Y-64760605D01*
X119031724Y-64760605D02*
X118072847Y-64760605D01*
D17*
%TO.C,U2*%
X120100051Y-51379883D02*
X120100051Y-58198755D01*
X120100051Y-57419507D02*
X138117094Y-57419507D01*
X120100051Y-76071094D02*
X120100051Y-76918948D01*
X120100051Y-76918948D02*
X121433909Y-76918948D01*
X121861062Y-52534899D02*
X121861062Y-56217907D01*
X124147066Y-52534899D02*
X121861062Y-52534899D01*
X124147066Y-54693904D02*
X124147066Y-52534899D01*
X126433071Y-52534899D02*
X126433071Y-54693904D01*
X126433071Y-54693904D02*
X124147066Y-54693904D01*
X128973076Y-52534899D02*
X126433071Y-52534899D01*
X128973076Y-54693904D02*
X128973076Y-52534899D01*
X131513081Y-52534899D02*
X131513081Y-54693904D01*
X131513081Y-54693904D02*
X128973076Y-54693904D01*
X134365253Y-52534899D02*
X131513081Y-52534899D01*
X134365253Y-57419507D02*
X134365253Y-52534899D01*
X136397257Y-52534899D02*
X134162052Y-52534899D01*
X136397257Y-57419507D02*
X136397257Y-52534899D01*
X136766243Y-76918948D02*
X138117094Y-76918948D01*
X138100101Y-51379883D02*
X120100051Y-51379883D01*
X138117094Y-58198755D02*
X138117094Y-51391897D01*
X138117094Y-76918948D02*
X138117094Y-76071094D01*
D18*
X122203196Y-58156460D02*
X122302353Y-58186539D01*
X122393737Y-58235385D01*
X122473835Y-58301120D01*
X122539570Y-58381218D01*
X122588416Y-58472602D01*
X122618495Y-58571759D01*
X122628651Y-58674879D01*
X122618495Y-58777999D01*
X122588416Y-58877156D01*
X122539570Y-58968540D01*
X122473835Y-59048638D01*
X122393737Y-59114373D01*
X122302353Y-59163219D01*
X122203196Y-59193298D01*
X122100076Y-59203454D01*
X121996956Y-59193298D01*
X121897799Y-59163219D01*
X121806415Y-59114373D01*
X121726317Y-59048638D01*
X121660582Y-58968540D01*
X121611736Y-58877156D01*
X121581657Y-58777999D01*
X121571501Y-58674879D01*
X121581657Y-58571759D01*
X121611736Y-58472602D01*
X121660582Y-58381218D01*
X121726317Y-58301120D01*
X121806415Y-58235385D01*
X121897799Y-58186539D01*
X121996956Y-58156460D01*
X122100076Y-58146304D01*
X122203196Y-58156460D01*
G36*
X122203196Y-58156460D02*
G01*
X122302353Y-58186539D01*
X122393737Y-58235385D01*
X122473835Y-58301120D01*
X122539570Y-58381218D01*
X122588416Y-58472602D01*
X122618495Y-58571759D01*
X122628651Y-58674879D01*
X122618495Y-58777999D01*
X122588416Y-58877156D01*
X122539570Y-58968540D01*
X122473835Y-59048638D01*
X122393737Y-59114373D01*
X122302353Y-59163219D01*
X122203196Y-59193298D01*
X122100076Y-59203454D01*
X121996956Y-59193298D01*
X121897799Y-59163219D01*
X121806415Y-59114373D01*
X121726317Y-59048638D01*
X121660582Y-58968540D01*
X121611736Y-58877156D01*
X121581657Y-58777999D01*
X121571501Y-58674879D01*
X121581657Y-58571759D01*
X121611736Y-58472602D01*
X121660582Y-58381218D01*
X121726317Y-58301120D01*
X121806415Y-58235385D01*
X121897799Y-58186539D01*
X121996956Y-58156460D01*
X122100076Y-58146304D01*
X122203196Y-58156460D01*
G37*
D16*
%TO.C,R12*%
X114539395Y-62061544D02*
X114539395Y-63020421D01*
X114539395Y-64831724D02*
X114539395Y-63872847D01*
X115860605Y-62061544D02*
X114539395Y-62061544D01*
X115860605Y-63020421D02*
X115860605Y-62061544D01*
X115860605Y-63872847D02*
X115860605Y-64831724D01*
X115860605Y-64831724D02*
X114539395Y-64831724D01*
%TO.C,C7*%
X99052756Y-60726187D02*
X99745161Y-60726187D01*
X99897536Y-60878613D02*
X99897536Y-61378613D01*
X98900356Y-61378613D02*
X98900356Y-60878613D01*
X99899619Y-61821387D02*
X99899619Y-62321387D01*
X98902489Y-62321387D02*
X98902489Y-61821387D01*
X99747269Y-62473813D02*
X99054839Y-62473813D01*
X99745161Y-60726213D02*
G75*
G02*
X99897561Y-60878613I0J-152400D01*
G01*
X98900356Y-60878613D02*
G75*
G02*
X99052756Y-60726213I152400J0D01*
G01*
X99899644Y-62321387D02*
G75*
G02*
X99747244Y-62473784I-152394J-3D01*
G01*
X99054839Y-62473787D02*
G75*
G02*
X98902443Y-62321387I1J152397D01*
G01*
%TO.C,R8*%
X116261544Y-61939395D02*
X116261544Y-63260605D01*
X116261544Y-63260605D02*
X117220421Y-63260605D01*
X117220421Y-61939395D02*
X116261544Y-61939395D01*
X118072847Y-61939395D02*
X119031724Y-61939395D01*
X119031724Y-61939395D02*
X119031724Y-63260605D01*
X119031724Y-63260605D02*
X118072847Y-63260605D01*
D18*
%TO.C,JP2*%
X95250000Y-84250000D02*
X95250000Y-82850000D01*
X95950000Y-82150000D02*
X96550000Y-82150000D01*
X96550000Y-84950000D02*
X95950000Y-84950000D01*
X97250000Y-82850000D02*
X97250000Y-84250000D01*
X95250000Y-82850000D02*
G75*
G02*
X95950000Y-82150000I699999J1D01*
G01*
X95950000Y-84950000D02*
G75*
G02*
X95250000Y-84250000I0J700000D01*
G01*
X96550000Y-82150000D02*
G75*
G02*
X97250000Y-82850000I1J-699999D01*
G01*
X97250000Y-84250000D02*
G75*
G02*
X96550000Y-84950000I-700000J0D01*
G01*
%TO.C,JP3*%
X97750000Y-84250000D02*
X97750000Y-82850000D01*
X98450000Y-82150000D02*
X99050000Y-82150000D01*
X99050000Y-84950000D02*
X98450000Y-84950000D01*
X99750000Y-82850000D02*
X99750000Y-84250000D01*
X97750000Y-82850000D02*
G75*
G02*
X98450000Y-82150000I699999J1D01*
G01*
X98450000Y-84950000D02*
G75*
G02*
X97750000Y-84250000I0J700000D01*
G01*
X99050000Y-82150000D02*
G75*
G02*
X99750000Y-82850000I1J-699999D01*
G01*
X99750000Y-84250000D02*
G75*
G02*
X99050000Y-84950000I-700000J0D01*
G01*
D16*
%TO.C,U11*%
X103156210Y-65753797D02*
X103156210Y-71046203D01*
X100443790Y-65753797D02*
X100443790Y-71046203D01*
X103156210Y-67130709D02*
X100443790Y-67130709D01*
X103156210Y-71046203D02*
X102772695Y-71046203D01*
X100443790Y-71046203D02*
X100827305Y-71046203D01*
D18*
X103232410Y-65829997D02*
X102721895Y-65829997D01*
X102721895Y-65372797D01*
X103232410Y-65372797D01*
X103232410Y-65829997D01*
G36*
X103232410Y-65829997D02*
G01*
X102721895Y-65829997D01*
X102721895Y-65372797D01*
X103232410Y-65372797D01*
X103232410Y-65829997D01*
G37*
X100878105Y-65829997D02*
X100367590Y-65829997D01*
X100367590Y-65372797D01*
X100878105Y-65372797D01*
X100878105Y-65829997D01*
G36*
X100878105Y-65829997D02*
G01*
X100367590Y-65829997D01*
X100367590Y-65372797D01*
X100878105Y-65372797D01*
X100878105Y-65829997D01*
G37*
D16*
%TO.C,U4*%
X79458801Y-89473787D02*
X79458801Y-93526213D01*
D19*
X79458801Y-89473787D02*
X79889865Y-89473787D01*
X79458801Y-93526213D02*
X79889865Y-93526213D01*
X82110135Y-89473787D02*
X82541199Y-89473787D01*
D16*
X82541199Y-89473787D02*
X82541199Y-93526213D01*
D19*
X82541199Y-93526213D02*
X82110135Y-93526213D01*
D17*
X81899924Y-91500000D02*
G75*
G02*
X80100076Y-91500000I-899924J0D01*
G01*
X80100076Y-91500000D02*
G75*
G02*
X81899924Y-91500000I899924J0D01*
G01*
D16*
%TO.C,R15*%
X114739395Y-69414910D02*
X114739395Y-70373787D01*
X114739395Y-72185090D02*
X114739395Y-71226213D01*
X116060605Y-69414910D02*
X114739395Y-69414910D01*
X116060605Y-70373787D02*
X116060605Y-69414910D01*
X116060605Y-71226213D02*
X116060605Y-72185090D01*
X116060605Y-72185090D02*
X114739395Y-72185090D01*
%TO.C,R6*%
X98639395Y-66085090D02*
X98639395Y-65126213D01*
X99960605Y-66085090D02*
X98639395Y-66085090D01*
X99960605Y-65126213D02*
X99960605Y-66085090D01*
X99960605Y-64273787D02*
X99960605Y-63314910D01*
X98639395Y-63314910D02*
X98639395Y-64273787D01*
X99960605Y-63314910D02*
X98639395Y-63314910D01*
D18*
%TO.C,JP9*%
X112750000Y-84250000D02*
X112750000Y-82850000D01*
X113450000Y-82150000D02*
X114050000Y-82150000D01*
X114050000Y-84950000D02*
X113450000Y-84950000D01*
X114750000Y-82850000D02*
X114750000Y-84250000D01*
X112750000Y-82850000D02*
G75*
G02*
X113450000Y-82150000I699999J1D01*
G01*
X113450000Y-84950000D02*
G75*
G02*
X112750000Y-84250000I0J700000D01*
G01*
X114050000Y-82150000D02*
G75*
G02*
X114750000Y-82850000I1J-699999D01*
G01*
X114750000Y-84250000D02*
G75*
G02*
X114050000Y-84950000I-700000J0D01*
G01*
D17*
%TO.C,U5*%
X89399924Y-91500000D02*
G75*
G02*
X87600076Y-91500000I-899924J0D01*
G01*
X87600076Y-91500000D02*
G75*
G02*
X89399924Y-91500000I899924J0D01*
G01*
D19*
X90041199Y-93526213D02*
X89610135Y-93526213D01*
D16*
X90041199Y-89473787D02*
X90041199Y-93526213D01*
D19*
X89610135Y-89473787D02*
X90041199Y-89473787D01*
X86958801Y-93526213D02*
X87389865Y-93526213D01*
X86958801Y-89473787D02*
X87389865Y-89473787D01*
D16*
X86958801Y-89473787D02*
X86958801Y-93526213D01*
D18*
%TO.C,JP11*%
X67600000Y-70850000D02*
X67600000Y-69450000D01*
X68300000Y-68750000D02*
X68900000Y-68750000D01*
X68900000Y-71550000D02*
X68300000Y-71550000D01*
X69600000Y-69450000D02*
X69600000Y-70850000D01*
X67600000Y-69450000D02*
G75*
G02*
X68300000Y-68750000I699999J1D01*
G01*
X68300000Y-71550000D02*
G75*
G02*
X67600000Y-70850000I0J700000D01*
G01*
X68900000Y-68750000D02*
G75*
G02*
X69600000Y-69450000I1J-699999D01*
G01*
X69600000Y-70850000D02*
G75*
G02*
X68900000Y-71550000I-700000J0D01*
G01*
D16*
%TO.C,R13*%
X112039395Y-72668276D02*
X112039395Y-73627153D01*
X112039395Y-75438456D02*
X112039395Y-74479579D01*
X113360605Y-72668276D02*
X112039395Y-72668276D01*
X113360605Y-73627153D02*
X113360605Y-72668276D01*
X113360605Y-74479579D02*
X113360605Y-75438456D01*
X113360605Y-75438456D02*
X112039395Y-75438456D01*
D17*
%TO.C,C10*%
X108119774Y-65434646D02*
G75*
G02*
X107809935Y-65124791I-12J309827D01*
G01*
X110589878Y-65125248D02*
G75*
G02*
X110280073Y-65435128I-309831J-49D01*
G01*
X107809944Y-64324816D02*
G75*
G02*
X108119774Y-64014981I309848J-13D01*
G01*
X110280074Y-64015443D02*
G75*
G02*
X110589878Y-64325274I-27J-309831D01*
G01*
X109480150Y-65435128D02*
X110280125Y-65435128D01*
X108919698Y-65434646D02*
X108119723Y-65434646D01*
X107809944Y-65124790D02*
X107809944Y-64324765D01*
X110589878Y-64325273D02*
X110589878Y-65125324D01*
X109480150Y-64015443D02*
X110280125Y-64015443D01*
X108919698Y-64014986D02*
X108119723Y-64014986D01*
D16*
%TO.C,R5*%
X96789433Y-64338760D02*
X98110643Y-64338760D01*
X98110643Y-64338760D02*
X98110643Y-63379883D01*
X96789433Y-63379883D02*
X96789433Y-64338760D01*
X96789433Y-62527457D02*
X96789433Y-61568580D01*
X96789433Y-61568580D02*
X98110643Y-61568580D01*
X98110643Y-61568580D02*
X98110643Y-62527457D01*
D18*
%TO.C,JP5*%
X102750000Y-84250000D02*
X102750000Y-82850000D01*
X103450000Y-82150000D02*
X104050000Y-82150000D01*
X104050000Y-84950000D02*
X103450000Y-84950000D01*
X104750000Y-82850000D02*
X104750000Y-84250000D01*
X102750000Y-82850000D02*
G75*
G02*
X103450000Y-82150000I699999J1D01*
G01*
X103450000Y-84950000D02*
G75*
G02*
X102750000Y-84250000I0J700000D01*
G01*
X104050000Y-82150000D02*
G75*
G02*
X104750000Y-82850000I1J-699999D01*
G01*
X104750000Y-84250000D02*
G75*
G02*
X104050000Y-84950000I-700000J0D01*
G01*
D16*
%TO.C,C1*%
X107045161Y-70321336D02*
G75*
G02*
X107197561Y-70473736I0J-152400D01*
G01*
X106200356Y-70473736D02*
G75*
G02*
X106352756Y-70321336I152400J0D01*
G01*
X107199644Y-71916510D02*
G75*
G02*
X107047244Y-72068907I-152394J-3D01*
G01*
X106354839Y-72068910D02*
G75*
G02*
X106202433Y-71916510I1J152407D01*
G01*
X106352756Y-70321310D02*
X107045161Y-70321310D01*
X107197536Y-70473736D02*
X107197536Y-70973736D01*
X106200356Y-70973736D02*
X106200356Y-70473736D01*
X107199619Y-71416510D02*
X107199619Y-71916510D01*
X106202489Y-71916510D02*
X106202489Y-71416510D01*
X107047269Y-72068936D02*
X106354839Y-72068936D01*
D17*
%TO.C,U12*%
X67271019Y-103783144D02*
X67271019Y-102301483D01*
X67271019Y-103783144D02*
X58331013Y-103783144D01*
X67271019Y-100065110D02*
X67271019Y-98201483D01*
X58331013Y-103783144D02*
X58331013Y-102301839D01*
X58331013Y-100064755D02*
X58331013Y-98201839D01*
D16*
%TO.C,R20*%
X110475743Y-72668276D02*
X110475743Y-73627153D01*
X110475743Y-75438456D02*
X110475743Y-74479579D01*
X111796953Y-72668276D02*
X110475743Y-72668276D01*
X111796953Y-73627153D02*
X111796953Y-72668276D01*
X111796953Y-74479579D02*
X111796953Y-75438456D01*
X111796953Y-75438456D02*
X110475743Y-75438456D01*
%TO.C,C9*%
X81536398Y-40384279D02*
X81536398Y-39691874D01*
X81688824Y-39539499D02*
X82188824Y-39539499D01*
X82188824Y-40536679D02*
X81688824Y-40536679D01*
X82631598Y-39537416D02*
X83131598Y-39537416D01*
X83131598Y-40534546D02*
X82631598Y-40534546D01*
X83284024Y-39689766D02*
X83284024Y-40382196D01*
X81536424Y-39691874D02*
G75*
G02*
X81688824Y-39539474I152400J0D01*
G01*
X81688824Y-40536679D02*
G75*
G02*
X81536424Y-40384279I0J152400D01*
G01*
X83131598Y-39537391D02*
G75*
G02*
X83283995Y-39689791I3J-152394D01*
G01*
X83283998Y-40382196D02*
G75*
G02*
X83131598Y-40534602I-152407J1D01*
G01*
%TO.C,R10*%
X112239395Y-68285090D02*
X113560605Y-68285090D01*
X113560605Y-68285090D02*
X113560605Y-67326213D01*
X112239395Y-67326213D02*
X112239395Y-68285090D01*
X112239395Y-66473787D02*
X112239395Y-65514910D01*
X112239395Y-65514910D02*
X113560605Y-65514910D01*
X113560605Y-65514910D02*
X113560605Y-66473787D01*
D18*
%TO.C,JP7*%
X107750000Y-84250000D02*
X107750000Y-82850000D01*
X108450000Y-82150000D02*
X109050000Y-82150000D01*
X109050000Y-84950000D02*
X108450000Y-84950000D01*
X109750000Y-82850000D02*
X109750000Y-84250000D01*
X107750000Y-82850000D02*
G75*
G02*
X108450000Y-82150000I699999J1D01*
G01*
X108450000Y-84950000D02*
G75*
G02*
X107750000Y-84250000I0J700000D01*
G01*
X109050000Y-82150000D02*
G75*
G02*
X109750000Y-82850000I1J-699999D01*
G01*
X109750000Y-84250000D02*
G75*
G02*
X109050000Y-84950000I-700000J0D01*
G01*
D16*
%TO.C,C2*%
X117900381Y-66531979D02*
X117900381Y-66031979D01*
X117902464Y-67474753D02*
X117902464Y-66974753D01*
X118052731Y-65879553D02*
X118745161Y-65879553D01*
X118747244Y-67627179D02*
X118054839Y-67627179D01*
X118897511Y-66031979D02*
X118897511Y-66531979D01*
X118899644Y-66974753D02*
X118899644Y-67474753D01*
X117900356Y-66031979D02*
G75*
G02*
X118052756Y-65879582I152394J3D01*
G01*
X118054839Y-67627153D02*
G75*
G02*
X117902439Y-67474753I0J152400D01*
G01*
X118745161Y-65879579D02*
G75*
G02*
X118897557Y-66031979I-1J-152397D01*
G01*
X118899644Y-67474753D02*
G75*
G02*
X118747244Y-67627153I-152400J0D01*
G01*
%TO.C,C8*%
X104426162Y-62297587D02*
X104426162Y-61605157D01*
X104578588Y-61452807D02*
X105078588Y-61452807D01*
X105078588Y-62449937D02*
X104578588Y-62449937D01*
X105521362Y-61450674D02*
X106021362Y-61450674D01*
X106021362Y-62447854D02*
X105521362Y-62447854D01*
X106173788Y-61603074D02*
X106173788Y-62295479D01*
X104426188Y-61605157D02*
G75*
G02*
X104578588Y-61452761I152397J-1D01*
G01*
X104578588Y-62449962D02*
G75*
G02*
X104426191Y-62297562I-3J152394D01*
G01*
X106021362Y-61450674D02*
G75*
G02*
X106173762Y-61603074I0J-152400D01*
G01*
X106173762Y-62295479D02*
G75*
G02*
X106021362Y-62447879I-152400J0D01*
G01*
D17*
%TO.C,P1*%
X100323520Y-89534970D02*
X102370282Y-89534970D01*
X100323520Y-90877439D02*
X100323520Y-89534970D01*
X100323520Y-94928036D02*
X100323520Y-92939948D01*
X100323520Y-94928036D02*
X109700305Y-94928036D01*
X107633147Y-89534970D02*
X109700000Y-89534970D01*
X109700000Y-89534970D02*
X109700000Y-90808452D01*
X109700000Y-92870911D02*
X109700000Y-94928036D01*
X109700000Y-94005277D02*
X100323520Y-94005277D01*
D16*
%TO.C,R16*%
X116339395Y-65868276D02*
X117660605Y-65868276D01*
X116339395Y-66827153D02*
X116339395Y-65868276D01*
X116339395Y-67679579D02*
X116339395Y-68638456D01*
X116339395Y-68638456D02*
X117660605Y-68638456D01*
X117660605Y-65868276D02*
X117660605Y-66827153D01*
X117660605Y-68638456D02*
X117660605Y-67679579D01*
%TO.C,C15*%
X117900381Y-73298730D02*
X117900381Y-72798730D01*
X117902464Y-74241504D02*
X117902464Y-73741504D01*
X118052731Y-72646304D02*
X118745161Y-72646304D01*
X118747244Y-74393930D02*
X118054839Y-74393930D01*
X118897511Y-72798730D02*
X118897511Y-73298730D01*
X118899644Y-73741504D02*
X118899644Y-74241504D01*
X117900356Y-72798730D02*
G75*
G02*
X118052756Y-72646333I152394J3D01*
G01*
X118054839Y-74393904D02*
G75*
G02*
X117902439Y-74241504I0J152400D01*
G01*
X118745161Y-72646330D02*
G75*
G02*
X118897557Y-72798730I-1J-152397D01*
G01*
X118899644Y-74241504D02*
G75*
G02*
X118747244Y-74393904I-152400J0D01*
G01*
%TO.C,U6*%
X110257304Y-61498729D02*
X108608511Y-61498729D01*
X108104904Y-61498729D02*
X109753697Y-61498729D01*
X110257304Y-63651129D02*
X108608511Y-63651129D01*
X108104904Y-63651129D02*
X109753697Y-63651129D01*
D20*
X107855476Y-61824865D02*
G75*
G02*
X107655322Y-61824865I-100077J0D01*
G01*
X107655322Y-61824865D02*
G75*
G02*
X107855476Y-61824865I100077J0D01*
G01*
D16*
%TO.C,U10*%
X103623825Y-66226213D02*
X103623825Y-64773787D01*
X105605436Y-66226213D02*
X104694640Y-66226213D01*
X106676251Y-66226213D02*
X106676251Y-64773787D01*
X103623825Y-64773787D02*
X104655448Y-64773787D01*
X106676251Y-64773787D02*
X105644628Y-64773787D01*
D18*
%TO.C,JP10*%
X115250000Y-84250000D02*
X115250000Y-82850000D01*
X115950000Y-82150000D02*
X116550000Y-82150000D01*
X116550000Y-84950000D02*
X115950000Y-84950000D01*
X117250000Y-82850000D02*
X117250000Y-84250000D01*
X115250000Y-82850000D02*
G75*
G02*
X115950000Y-82150000I699999J1D01*
G01*
X115950000Y-84950000D02*
G75*
G02*
X115250000Y-84250000I0J700000D01*
G01*
X116550000Y-82150000D02*
G75*
G02*
X117250000Y-82850000I1J-699999D01*
G01*
X117250000Y-84250000D02*
G75*
G02*
X116550000Y-84950000I-700000J0D01*
G01*
D16*
%TO.C,R14*%
X114739395Y-72668276D02*
X114739395Y-73627153D01*
X114739395Y-75438456D02*
X114739395Y-74479579D01*
X116060605Y-72668276D02*
X114739395Y-72668276D01*
X116060605Y-73627153D02*
X116060605Y-72668276D01*
X116060605Y-74479579D02*
X116060605Y-75438456D01*
X116060605Y-75438456D02*
X114739395Y-75438456D01*
%TO.C,C16*%
X109236729Y-73338862D02*
X109236729Y-72838862D01*
X109238812Y-74281636D02*
X109238812Y-73781636D01*
X109389079Y-72686436D02*
X110081509Y-72686436D01*
X110083592Y-74434062D02*
X109391187Y-74434062D01*
X110233859Y-72838862D02*
X110233859Y-73338862D01*
X110235992Y-73781636D02*
X110235992Y-74281636D01*
X109236704Y-72838862D02*
G75*
G02*
X109389104Y-72686465I152394J3D01*
G01*
X109391187Y-74434036D02*
G75*
G02*
X109238787Y-74281636I0J152400D01*
G01*
X110081509Y-72686462D02*
G75*
G02*
X110233905Y-72838862I-1J-152397D01*
G01*
X110235992Y-74281636D02*
G75*
G02*
X110083592Y-74434036I-152400J0D01*
G01*
D18*
%TO.C,JP4*%
X102250000Y-84250000D02*
G75*
G02*
X101550000Y-84950000I-700000J0D01*
G01*
X101550000Y-82150000D02*
G75*
G02*
X102250000Y-82850000I1J-699999D01*
G01*
X100950000Y-84950000D02*
G75*
G02*
X100250000Y-84250000I0J700000D01*
G01*
X100250000Y-82850000D02*
G75*
G02*
X100950000Y-82150000I699999J1D01*
G01*
X102250000Y-82850000D02*
X102250000Y-84250000D01*
X101550000Y-84950000D02*
X100950000Y-84950000D01*
X100950000Y-82150000D02*
X101550000Y-82150000D01*
X100250000Y-84250000D02*
X100250000Y-82850000D01*
%TO.C,J1*%
X117765000Y-53730000D02*
X117765000Y-51070000D01*
X94845000Y-53730000D02*
X117765000Y-53730000D01*
X94845000Y-53730000D02*
X94845000Y-51070000D01*
X94845000Y-51070000D02*
X117765000Y-51070000D01*
X93575000Y-53730000D02*
X92245000Y-53730000D01*
X92245000Y-53730000D02*
X92245000Y-52400000D01*
D12*
%TO.C,U7*%
X98351155Y-65810668D02*
G75*
G02*
X98050927Y-65810668I-150114J0D01*
G01*
X98050927Y-65810668D02*
G75*
G02*
X98351155Y-65810668I150114J0D01*
G01*
D16*
X96073635Y-67804877D02*
X97026441Y-67804877D01*
X95023825Y-66102463D02*
X95023825Y-67804877D01*
X98076251Y-66102463D02*
X98076251Y-67804877D01*
D18*
%TO.C,JP6*%
X105250000Y-84250000D02*
X105250000Y-82850000D01*
X105950000Y-82150000D02*
X106550000Y-82150000D01*
X106550000Y-84950000D02*
X105950000Y-84950000D01*
X107250000Y-82850000D02*
X107250000Y-84250000D01*
X105250000Y-82850000D02*
G75*
G02*
X105950000Y-82150000I699999J1D01*
G01*
X105950000Y-84950000D02*
G75*
G02*
X105250000Y-84250000I0J700000D01*
G01*
X106550000Y-82150000D02*
G75*
G02*
X107250000Y-82850000I1J-699999D01*
G01*
X107250000Y-84250000D02*
G75*
G02*
X106550000Y-84950000I-700000J0D01*
G01*
D16*
%TO.C,C6*%
X95204877Y-64927457D02*
G75*
G02*
X95052481Y-64775057I1J152397D01*
G01*
X96049682Y-64775057D02*
G75*
G02*
X95897282Y-64927454I-152394J-3D01*
G01*
X95050394Y-63332283D02*
G75*
G02*
X95202794Y-63179883I152400J0D01*
G01*
X95895199Y-63179883D02*
G75*
G02*
X96047599Y-63332283I0J-152400D01*
G01*
X95897307Y-64927483D02*
X95204877Y-64927483D01*
X95052527Y-64775057D02*
X95052527Y-64275057D01*
X96049657Y-64275057D02*
X96049657Y-64775057D01*
X95050394Y-63832283D02*
X95050394Y-63332283D01*
X96047574Y-63332283D02*
X96047574Y-63832283D01*
X95202794Y-63179857D02*
X95895199Y-63179857D01*
%TO.C,R11*%
X114739395Y-65868276D02*
X116060605Y-65868276D01*
X114739395Y-66827153D02*
X114739395Y-65868276D01*
X114739395Y-67679579D02*
X114739395Y-68638456D01*
X114739395Y-68638456D02*
X116060605Y-68638456D01*
X116060605Y-65868276D02*
X116060605Y-66827153D01*
X116060605Y-68638456D02*
X116060605Y-67679579D01*
%TO.C,R18*%
X116339395Y-69414910D02*
X117660605Y-69414910D01*
X116339395Y-70373787D02*
X116339395Y-69414910D01*
X116339395Y-71226213D02*
X116339395Y-72185090D01*
X116339395Y-72185090D02*
X117660605Y-72185090D01*
X117660605Y-69414910D02*
X117660605Y-70373787D01*
X117660605Y-72185090D02*
X117660605Y-71226213D01*
%TO.C,R7*%
X99960605Y-69231724D02*
X98639395Y-69231724D01*
X99960605Y-68272847D02*
X99960605Y-69231724D01*
X99960605Y-67420421D02*
X99960605Y-66461544D01*
X99960605Y-66461544D02*
X98639395Y-66461544D01*
X98639395Y-69231724D02*
X98639395Y-68272847D01*
X98639395Y-66461544D02*
X98639395Y-67420421D01*
%TO.C,R2*%
X63539395Y-92161544D02*
X64860605Y-92161544D01*
X63539395Y-93120421D02*
X63539395Y-92161544D01*
X63539395Y-93972847D02*
X63539395Y-94931724D01*
X63539395Y-94931724D02*
X64860605Y-94931724D01*
X64860605Y-92161544D02*
X64860605Y-93120421D01*
X64860605Y-94931724D02*
X64860605Y-93972847D01*
%TO.C,C12*%
X81536398Y-38240208D02*
X81536398Y-36359792D01*
X81688799Y-36207391D02*
X83173787Y-36207391D01*
X83173787Y-38392609D02*
X81688799Y-38392609D01*
X85026213Y-38392609D02*
X86511201Y-38392609D01*
X86511201Y-36207391D02*
X85026213Y-36207391D01*
X86663602Y-38240208D02*
X86663602Y-36359792D01*
X81536398Y-36359792D02*
G75*
G02*
X81688799Y-36207391I152400J1D01*
G01*
X81688799Y-38392609D02*
G75*
G02*
X81536398Y-38240208I-1J152400D01*
G01*
X86511201Y-36207391D02*
G75*
G02*
X86663609Y-36359792I-1J-152409D01*
G01*
X86663602Y-38240208D02*
G75*
G02*
X86511201Y-38392602I-152402J8D01*
G01*
%TO.C,U3*%
D11*
X64300000Y-39350000D02*
X61300000Y-39350000D01*
X61300000Y-46250000D01*
X64300000Y-46250000D01*
X64300000Y-39350000D01*
X65800000Y-46250000D02*
X59800000Y-46250000D01*
X59800000Y-53350000D01*
X65800000Y-53350000D01*
X65800000Y-46250000D01*
X69400000Y-53850000D02*
X56200000Y-53850000D01*
X56200000Y-66300000D01*
X69400000Y-66300000D01*
X69400000Y-53850000D01*
D16*
%TO.C,C3*%
X109804801Y-72098806D02*
G75*
G02*
X109652401Y-71946406I0J152400D01*
G01*
X110649606Y-71946406D02*
G75*
G02*
X110497206Y-72098806I-152400J0D01*
G01*
X109650318Y-70503632D02*
G75*
G02*
X109802718Y-70351235I152394J3D01*
G01*
X110495123Y-70351232D02*
G75*
G02*
X110647529Y-70503632I-1J-152407D01*
G01*
X110497206Y-72098832D02*
X109804801Y-72098832D01*
X109652426Y-71946406D02*
X109652426Y-71446406D01*
X110649606Y-71446406D02*
X110649606Y-71946406D01*
X109650343Y-71003632D02*
X109650343Y-70503632D01*
X110647473Y-70503632D02*
X110647473Y-71003632D01*
X109802693Y-70351206D02*
X110495123Y-70351206D01*
D17*
%TO.C,U1*%
X110749911Y-67075006D02*
X110749911Y-68875031D01*
X107649886Y-67075006D02*
X107649886Y-68875031D01*
X107675997Y-69372009D02*
G75*
G02*
X107421997Y-69372009I-127000J0D01*
G01*
X107421997Y-69372009D02*
G75*
G02*
X107675997Y-69372009I127000J0D01*
G01*
D18*
%TO.C,JP1*%
X92750000Y-84250000D02*
X92750000Y-82850000D01*
X93450000Y-82150000D02*
X94050000Y-82150000D01*
X94050000Y-84950000D02*
X93450000Y-84950000D01*
X94750000Y-82850000D02*
X94750000Y-84250000D01*
X92750000Y-82850000D02*
G75*
G02*
X93450000Y-82150000I699999J1D01*
G01*
X93450000Y-84950000D02*
G75*
G02*
X92750000Y-84250000I0J700000D01*
G01*
X94050000Y-82150000D02*
G75*
G02*
X94750000Y-82850000I1J-699999D01*
G01*
X94750000Y-84250000D02*
G75*
G02*
X94050000Y-84950000I-700000J0D01*
G01*
D16*
%TO.C,C13*%
X81536398Y-42535967D02*
X81536398Y-41843562D01*
X81688824Y-41691187D02*
X82188824Y-41691187D01*
X82188824Y-42688367D02*
X81688824Y-42688367D01*
X82631598Y-41689104D02*
X83131598Y-41689104D01*
X83131598Y-42686234D02*
X82631598Y-42686234D01*
X83284024Y-41841454D02*
X83284024Y-42533884D01*
X81536424Y-41843562D02*
G75*
G02*
X81688824Y-41691162I152400J0D01*
G01*
X81688824Y-42688367D02*
G75*
G02*
X81536424Y-42535967I0J152400D01*
G01*
X83131598Y-41689079D02*
G75*
G02*
X83283995Y-41841479I3J-152394D01*
G01*
X83283998Y-42533884D02*
G75*
G02*
X83131598Y-42686290I-152407J1D01*
G01*
D18*
%TO.C,JP12*%
X56000000Y-70850000D02*
X56000000Y-69450000D01*
X56700000Y-68750000D02*
X57300000Y-68750000D01*
X57300000Y-71550000D02*
X56700000Y-71550000D01*
X58000000Y-69450000D02*
X58000000Y-70850000D01*
X56000000Y-69450000D02*
G75*
G02*
X56700000Y-68750000I699999J1D01*
G01*
X56700000Y-71550000D02*
G75*
G02*
X56000000Y-70850000I0J700000D01*
G01*
X57300000Y-68750000D02*
G75*
G02*
X58000000Y-69450000I1J-699999D01*
G01*
X58000000Y-70850000D02*
G75*
G02*
X57300000Y-71550000I-700000J0D01*
G01*
D16*
%TO.C,R4*%
X99838456Y-70760605D02*
X99838456Y-69439395D01*
X99838456Y-69439395D02*
X98879579Y-69439395D01*
X98879579Y-70760605D02*
X99838456Y-70760605D01*
X98027153Y-70760605D02*
X97068276Y-70760605D01*
X97068276Y-70760605D02*
X97068276Y-69439395D01*
X97068276Y-69439395D02*
X98027153Y-69439395D01*
%TO.C,R17*%
X112939395Y-62061544D02*
X112939395Y-63020421D01*
X112939395Y-64831724D02*
X112939395Y-63872847D01*
X114260605Y-62061544D02*
X112939395Y-62061544D01*
X114260605Y-63020421D02*
X114260605Y-62061544D01*
X114260605Y-63872847D02*
X114260605Y-64831724D01*
X114260605Y-64831724D02*
X112939395Y-64831724D01*
D18*
%TO.C,JP8*%
X112250000Y-84250000D02*
G75*
G02*
X111550000Y-84950000I-700000J0D01*
G01*
X111550000Y-82150000D02*
G75*
G02*
X112250000Y-82850000I1J-699999D01*
G01*
X110950000Y-84950000D02*
G75*
G02*
X110250000Y-84250000I0J700000D01*
G01*
X110250000Y-82850000D02*
G75*
G02*
X110950000Y-82150000I699999J1D01*
G01*
X112250000Y-82850000D02*
X112250000Y-84250000D01*
X111550000Y-84950000D02*
X110950000Y-84950000D01*
X110950000Y-82150000D02*
X111550000Y-82150000D01*
X110250000Y-84250000D02*
X110250000Y-82850000D01*
D17*
%TO.C,U9*%
X101699594Y-61563145D02*
X102700356Y-61563145D01*
X101699594Y-64362231D02*
X101699594Y-61563145D01*
X102700356Y-61563145D02*
X102700356Y-64362231D01*
X102700356Y-64362231D02*
X101699594Y-64362231D01*
D21*
X100678512Y-61173280D02*
G75*
G02*
X100678512Y-61170740I134405J1270D01*
G01*
D16*
%TO.C,C14*%
X118899619Y-70541504D02*
X118899619Y-71041504D01*
X118897536Y-69598730D02*
X118897536Y-70098730D01*
X118747269Y-71193930D02*
X118054839Y-71193930D01*
X118052756Y-69446304D02*
X118745161Y-69446304D01*
X117902489Y-71041504D02*
X117902489Y-70541504D01*
X117900356Y-70098730D02*
X117900356Y-69598730D01*
X118899644Y-71041504D02*
G75*
G02*
X118747244Y-71193901I-152394J-3D01*
G01*
X118745161Y-69446330D02*
G75*
G02*
X118897561Y-69598730I0J-152400D01*
G01*
X118054839Y-71193904D02*
G75*
G02*
X117902443Y-71041504I1J152397D01*
G01*
X117900356Y-69598730D02*
G75*
G02*
X118052756Y-69446330I152400J0D01*
G01*
D17*
%TO.C,U8*%
X79650013Y-54975006D02*
X78700000Y-54975006D01*
X79650013Y-54975006D02*
X79650013Y-59193828D01*
X78700000Y-54975006D02*
X78700000Y-56549987D01*
X71749987Y-54975006D02*
X71749987Y-59193828D01*
X72700254Y-54976226D02*
X71750292Y-54976226D01*
X78700000Y-56549987D02*
X77431140Y-56549987D01*
X75968860Y-56549987D02*
X75431140Y-56549987D01*
X73967717Y-56551029D02*
X72700254Y-56551029D01*
X72700254Y-56551029D02*
X72700254Y-54976226D01*
X78100000Y-62575006D02*
X73300000Y-62575006D01*
D18*
X75200051Y-62274956D02*
X74200000Y-62275057D01*
X74700000Y-60875057D01*
X75200051Y-62274956D01*
G36*
X75200051Y-62274956D02*
G01*
X74200000Y-62275057D01*
X74700000Y-60875057D01*
X75200051Y-62274956D01*
G37*
D16*
%TO.C,R3*%
X114214910Y-60039395D02*
X115173787Y-60039395D01*
X114214910Y-61360605D02*
X114214910Y-60039395D01*
X115173787Y-61360605D02*
X114214910Y-61360605D01*
X116026213Y-61360605D02*
X116985090Y-61360605D01*
X116985090Y-60039395D02*
X116026213Y-60039395D01*
X116985090Y-61360605D02*
X116985090Y-60039395D01*
D22*
%TO.C,LED1*%
X67156490Y-95090475D02*
X65676556Y-95090475D01*
X65656464Y-93940462D02*
X65656464Y-95090475D01*
X67156591Y-93940462D02*
X67156591Y-95090475D01*
X66076480Y-93920422D02*
X66076480Y-93910465D01*
X66406528Y-93920422D02*
X66406528Y-93580417D01*
X66746533Y-93920422D02*
X66406528Y-93580417D01*
X66756515Y-93920422D02*
X66076480Y-93920422D01*
X66756515Y-93920422D02*
X66746533Y-93920422D01*
X66076480Y-93910465D02*
X66406528Y-93580417D01*
X65654153Y-93560452D02*
X65654153Y-92510338D01*
X67154280Y-93560452D02*
X67154280Y-92510338D01*
X65954204Y-92210389D02*
X65654153Y-92510338D01*
X66054229Y-92210389D02*
X65954204Y-92210389D01*
X66754178Y-92210389D02*
X66054229Y-92210389D01*
X66754178Y-92210389D02*
X66854331Y-92210389D01*
X66854331Y-92210389D02*
X67154280Y-92510338D01*
D16*
%TO.C,R19*%
X116339395Y-72668276D02*
X117660605Y-72668276D01*
X116339395Y-73627153D02*
X116339395Y-72668276D01*
X116339395Y-74479579D02*
X116339395Y-75438456D01*
X116339395Y-75438456D02*
X117660605Y-75438456D01*
X117660605Y-72668276D02*
X117660605Y-73627153D01*
X117660605Y-75438456D02*
X117660605Y-74479579D01*
%TO.C,C4*%
X107904801Y-72098806D02*
G75*
G02*
X107752401Y-71946406I0J152400D01*
G01*
X108749606Y-71946406D02*
G75*
G02*
X108597206Y-72098806I-152400J0D01*
G01*
X107750318Y-70503632D02*
G75*
G02*
X107902718Y-70351235I152394J3D01*
G01*
X108595123Y-70351232D02*
G75*
G02*
X108747529Y-70503632I-1J-152407D01*
G01*
X108597206Y-72098832D02*
X107904801Y-72098832D01*
X107752426Y-71946406D02*
X107752426Y-71446406D01*
X108749606Y-71446406D02*
X108749606Y-71946406D01*
X107750343Y-71003632D02*
X107750343Y-70503632D01*
X108747473Y-70503632D02*
X108747473Y-71003632D01*
X107902693Y-70351206D02*
X108595123Y-70351206D01*
%TO.C,R1*%
X60839395Y-92161544D02*
X62160605Y-92161544D01*
X60839395Y-93120421D02*
X60839395Y-92161544D01*
X60839395Y-93972847D02*
X60839395Y-94931724D01*
X60839395Y-94931724D02*
X62160605Y-94931724D01*
X62160605Y-92161544D02*
X62160605Y-93120421D01*
X62160605Y-94931724D02*
X62160605Y-93972847D01*
%TD*%
M02*
