%TF.GenerationSoftware,KiCad,Pcbnew,8.0.1*%
%TF.CreationDate,2026-03-25T10:26:10+01:00*%
%TF.ProjectId,memory_pcb,6d656d6f-7279-45f7-9063-622e6b696361,rev?*%
%TF.SameCoordinates,Original*%
%TF.FileFunction,Soldermask,Top*%
%TF.FilePolarity,Negative*%
%FSLAX46Y46*%
G04 Gerber Fmt 4.6, Leading zero omitted, Abs format (unit mm)*
G04 Created by KiCad (PCBNEW 8.0.1) date 2026-03-25 10:26:10*
%MOMM*%
%LPD*%
G01*
G04 APERTURE LIST*
G04 Aperture macros list*
%AMFreePoly0*
4,1,19,0.500000,-0.750000,0.000000,-0.750000,0.000000,-0.744911,-0.071157,-0.744911,-0.207708,-0.704816,-0.327430,-0.627875,-0.420627,-0.520320,-0.479746,-0.390866,-0.500000,-0.250000,-0.500000,0.250000,-0.479746,0.390866,-0.420627,0.520320,-0.327430,0.627875,-0.207708,0.704816,-0.071157,0.744911,0.000000,0.744911,0.000000,0.750000,0.500000,0.750000,0.500000,-0.750000,0.500000,-0.750000,
$1*%
%AMFreePoly1*
4,1,19,0.000000,0.744911,0.071157,0.744911,0.207708,0.704816,0.327430,0.627875,0.420627,0.520320,0.479746,0.390866,0.500000,0.250000,0.500000,-0.250000,0.479746,-0.390866,0.420627,-0.520320,0.327430,-0.627875,0.207708,-0.704816,0.071157,-0.744911,0.000000,-0.744911,0.000000,-0.750000,-0.500000,-0.750000,-0.500000,0.750000,0.000000,0.750000,0.000000,0.744911,0.000000,0.744911,
$1*%
%AMFreePoly2*
4,1,5,0.299873,-0.649886,-0.300152,-0.649886,-0.300152,0.650089,0.299873,0.650089,0.299873,-0.649886,0.299873,-0.649886,$1*%
%AMFreePoly3*
4,1,9,0.300076,-0.650038,0.000127,-0.650038,0.000127,-0.650064,-0.299898,-0.650064,-0.299898,0.649911,0.000051,0.649911,0.000051,0.649936,0.300076,0.649936,0.300076,-0.650038,0.300076,-0.650038,$1*%
%AMFreePoly4*
4,1,9,0.299924,-0.649936,-0.000051,-0.649936,-0.000051,-0.650089,-0.300051,-0.650089,-0.300051,0.649936,-0.000076,0.649936,-0.000076,0.650089,0.299924,0.650089,0.299924,-0.649936,0.299924,-0.649936,$1*%
G04 Aperture macros list end*
%ADD10R,0.800000X0.900000*%
%ADD11R,0.540005X0.500000*%
%ADD12R,0.806477X0.864008*%
%ADD13R,1.500000X0.900000*%
%ADD14R,0.900000X1.500000*%
%ADD15R,0.900000X0.900000*%
%ADD16R,0.864008X0.806477*%
%ADD17FreePoly0,270.000000*%
%ADD18FreePoly1,270.000000*%
%ADD19R,1.539014X2.062510*%
%ADD20R,1.859995X1.229997*%
%ADD21R,0.300000X1.300000*%
%ADD22FreePoly2,0.000000*%
%ADD23FreePoly3,0.000000*%
%ADD24FreePoly4,0.000000*%
%ADD25O,1.200000X2.000000*%
%ADD26O,1.200000X1.800000*%
%ADD27C,0.750013*%
%ADD28R,0.500000X0.540005*%
%ADD29R,0.299975X1.500000*%
%ADD30R,2.000000X1.600000*%
%ADD31R,0.424994X0.280010*%
%ADD32R,0.800000X1.200000*%
%ADD33R,0.700000X1.250013*%
%ADD34C,3.800000*%
%ADD35O,1.700000X1.700000*%
%ADD36R,1.700000X1.700000*%
%ADD37R,0.489992X1.175006*%
%ADD38R,0.489992X1.156998*%
%ADD39R,1.485014X1.727991*%
%ADD40C,3.000000*%
%ADD41R,0.600000X1.100000*%
%ADD42R,1.104902X0.622301*%
%ADD43R,1.000000X3.800000*%
%ADD44R,1.500000X3.400000*%
%ADD45R,0.800000X0.800000*%
%ADD46C,2.000000*%
%ADD47R,2.000000X3.200000*%
%ADD48R,2.000000X2.000000*%
%ADD49C,2.500000*%
%ADD50C,5.250000*%
G04 APERTURE END LIST*
D10*
%TO.C,C17*%
X114899950Y-59000000D03*
X116300000Y-59000000D03*
%TD*%
D11*
%TO.C,C11*%
X112200000Y-62459766D03*
X112200000Y-63300000D03*
%TD*%
D12*
%TO.C,R9*%
X118400000Y-64100000D03*
X116893268Y-64100000D03*
%TD*%
D13*
%TO.C,U2*%
X120350012Y-58879908D03*
X120350012Y-60149911D03*
X120350012Y-61419913D03*
X120350012Y-62689916D03*
X120350012Y-63959918D03*
X120350012Y-65229921D03*
X120350012Y-66499923D03*
X120350012Y-67769926D03*
X120350012Y-69039929D03*
X120350012Y-70309931D03*
X120350012Y-71579934D03*
X120350012Y-72849936D03*
X120350012Y-74119939D03*
X120350012Y-75389941D03*
D14*
X122115062Y-76669850D03*
X123385065Y-76669850D03*
X124655067Y-76669850D03*
X125925070Y-76669850D03*
X127195072Y-76669850D03*
X128465075Y-76669850D03*
X129735077Y-76669850D03*
X131005080Y-76669850D03*
X132275082Y-76669850D03*
X133545085Y-76669850D03*
X134815087Y-76669850D03*
X136085090Y-76639878D03*
D13*
X137850140Y-75389941D03*
X137850140Y-74119939D03*
X137850140Y-72849936D03*
X137850140Y-71579934D03*
X137850140Y-70309931D03*
X137850140Y-69039929D03*
X137850140Y-67769926D03*
X137850140Y-66499923D03*
X137850140Y-65229921D03*
X137850140Y-63959918D03*
X137850140Y-62689916D03*
X137850140Y-61419913D03*
X137850140Y-60149911D03*
X137850140Y-58879908D03*
D15*
X126199898Y-65199949D03*
X126199898Y-66600000D03*
X126199898Y-68000050D03*
X127599949Y-65199949D03*
X127599949Y-66600000D03*
X127599949Y-68000050D03*
X129000000Y-65199949D03*
X129000000Y-66600000D03*
X129000000Y-68000050D03*
%TD*%
D16*
%TO.C,R12*%
X115200000Y-64200000D03*
X115200000Y-62693268D03*
%TD*%
D11*
%TO.C,C7*%
X99400000Y-61179883D03*
X99400000Y-62020117D03*
%TD*%
D12*
%TO.C,R8*%
X118400000Y-62600000D03*
X116893268Y-62600000D03*
%TD*%
D17*
%TO.C,JP2*%
X96250000Y-82900000D03*
D18*
X96250000Y-84200000D03*
%TD*%
D17*
%TO.C,JP3*%
X98750000Y-82900000D03*
D18*
X98750000Y-84200000D03*
%TD*%
D19*
%TO.C,U11*%
X101800000Y-70903683D03*
X101800000Y-65896317D03*
%TD*%
D20*
%TO.C,U4*%
X81000000Y-93684912D03*
X81000000Y-89315088D03*
%TD*%
D16*
%TO.C,R15*%
X115400000Y-71553366D03*
X115400000Y-70046634D03*
%TD*%
%TO.C,R6*%
X99300000Y-65453366D03*
X99300000Y-63946634D03*
%TD*%
D17*
%TO.C,JP9*%
X113750000Y-82900000D03*
D18*
X113750000Y-84200000D03*
%TD*%
D20*
%TO.C,U5*%
X88500000Y-89315088D03*
X88500000Y-93684912D03*
%TD*%
D17*
%TO.C,JP11*%
X68600000Y-69500000D03*
D18*
X68600000Y-70800000D03*
%TD*%
D16*
%TO.C,R13*%
X112700000Y-74806732D03*
X112700000Y-73300000D03*
%TD*%
D10*
%TO.C,C10*%
X108499937Y-64725019D03*
X109899987Y-64725019D03*
%TD*%
D16*
%TO.C,R5*%
X97450038Y-63707036D03*
X97450038Y-62200304D03*
%TD*%
D17*
%TO.C,JP5*%
X103750000Y-82900000D03*
D18*
X103750000Y-84200000D03*
%TD*%
D11*
%TO.C,C1*%
X106700000Y-71615240D03*
X106700000Y-70775006D03*
%TD*%
D21*
%TO.C,U12*%
X61049936Y-96214945D03*
X62049936Y-96214945D03*
X63550064Y-96214945D03*
X64550064Y-96214945D03*
D22*
X65200305Y-96214945D03*
X66000152Y-96214945D03*
D21*
X64049682Y-96214945D03*
X63049936Y-96214945D03*
X62550064Y-96214945D03*
X61550064Y-96214945D03*
D23*
X60399949Y-96214945D03*
D24*
X59600102Y-96214945D03*
D25*
X58474879Y-96983297D03*
D26*
X58474879Y-101163129D03*
X67125121Y-101163129D03*
D25*
X67125121Y-96983297D03*
D27*
X65699924Y-97483424D03*
X59900076Y-97483424D03*
%TD*%
D16*
%TO.C,R20*%
X111136348Y-74806732D03*
X111136348Y-73300000D03*
%TD*%
D28*
%TO.C,C9*%
X81990094Y-40037035D03*
X82830328Y-40037035D03*
%TD*%
D16*
%TO.C,R10*%
X112900000Y-66146634D03*
X112900000Y-67653366D03*
%TD*%
D17*
%TO.C,JP7*%
X108750000Y-82900000D03*
D18*
X108750000Y-84200000D03*
%TD*%
D11*
%TO.C,C2*%
X118400000Y-67173483D03*
X118400000Y-66333249D03*
%TD*%
D28*
%TO.C,C8*%
X105720092Y-61950318D03*
X104879858Y-61950318D03*
%TD*%
D29*
%TO.C,P1*%
X102752477Y-89161335D03*
X103251588Y-89161335D03*
X103751969Y-89161335D03*
X104252350Y-89161335D03*
X104752731Y-89161335D03*
X105253112Y-89161335D03*
X105753493Y-89161335D03*
X106252604Y-89161335D03*
X106751715Y-89161335D03*
X107252096Y-89161335D03*
D30*
X101050419Y-91908605D03*
X108949581Y-91839771D03*
%TD*%
D16*
%TO.C,R16*%
X117000000Y-66500000D03*
X117000000Y-68006732D03*
%TD*%
D11*
%TO.C,C15*%
X118400000Y-73940234D03*
X118400000Y-73100000D03*
%TD*%
D31*
%TO.C,U6*%
X108243588Y-61824865D03*
X108243588Y-62324993D03*
X108243588Y-62824865D03*
X108243588Y-63324993D03*
X110118620Y-63324993D03*
X110118620Y-62824865D03*
X110118620Y-62324993D03*
X110118620Y-61824865D03*
D32*
X109181104Y-62574929D03*
%TD*%
D33*
%TO.C,U10*%
X104200076Y-66500000D03*
X106100000Y-66500000D03*
X105150038Y-64500000D03*
%TD*%
D34*
%TO.C,H4*%
X157000000Y-101000000D03*
%TD*%
D17*
%TO.C,JP10*%
X116250000Y-82900000D03*
D18*
X116250000Y-84200000D03*
%TD*%
D34*
%TO.C,H2*%
X157000000Y-53000000D03*
%TD*%
D16*
%TO.C,R14*%
X115400000Y-74806732D03*
X115400000Y-73300000D03*
%TD*%
D11*
%TO.C,C16*%
X109736348Y-73980366D03*
X109736348Y-73140132D03*
%TD*%
D18*
%TO.C,JP4*%
X101250000Y-84200000D03*
D17*
X101250000Y-82900000D03*
%TD*%
D35*
%TO.C,J1*%
X116435000Y-52400000D03*
X113895000Y-52400000D03*
X111355000Y-52400000D03*
X108815000Y-52400000D03*
X106275000Y-52400000D03*
X103735000Y-52400000D03*
X101195000Y-52400000D03*
X98655000Y-52400000D03*
X96115000Y-52400000D03*
D36*
X93575000Y-52400000D03*
%TD*%
D37*
%TO.C,U7*%
X97500000Y-68107340D03*
X95600076Y-68107340D03*
D38*
X95600076Y-65800000D03*
X96550038Y-65800000D03*
X97500000Y-65800000D03*
%TD*%
D17*
%TO.C,JP6*%
X106250000Y-82900000D03*
D18*
X106250000Y-84200000D03*
%TD*%
D34*
%TO.C,H3*%
X53000000Y-101000000D03*
%TD*%
D11*
%TO.C,C6*%
X95550038Y-64473787D03*
X95550038Y-63633553D03*
%TD*%
D16*
%TO.C,R11*%
X115400000Y-66500000D03*
X115400000Y-68006732D03*
%TD*%
%TO.C,R18*%
X117000000Y-70046634D03*
X117000000Y-71553366D03*
%TD*%
%TO.C,R7*%
X99300000Y-68600000D03*
X99300000Y-67093268D03*
%TD*%
%TO.C,R2*%
X64200000Y-92793268D03*
X64200000Y-94300000D03*
%TD*%
D39*
%TO.C,C12*%
X82507417Y-37300000D03*
X85692583Y-37300000D03*
%TD*%
D40*
%TO.C,U3*%
X67500000Y-66300000D03*
X62800000Y-66300000D03*
X58100000Y-66300000D03*
X65300000Y-53600000D03*
X60300000Y-53600000D03*
%TD*%
D11*
%TO.C,C3*%
X110149962Y-70804902D03*
X110149962Y-71645136D03*
%TD*%
D41*
%TO.C,U1*%
X108250038Y-69325019D03*
X109200000Y-69325019D03*
X110149962Y-69325019D03*
X110149962Y-66624993D03*
X109200000Y-66624993D03*
X108250038Y-66624993D03*
%TD*%
D17*
%TO.C,JP1*%
X93750000Y-82900000D03*
D18*
X93750000Y-84200000D03*
%TD*%
D28*
%TO.C,C13*%
X81990094Y-42188723D03*
X82830328Y-42188723D03*
%TD*%
D17*
%TO.C,JP12*%
X57000000Y-69500000D03*
D18*
X57000000Y-70800000D03*
%TD*%
D12*
%TO.C,R4*%
X99206732Y-70100000D03*
X97700000Y-70100000D03*
%TD*%
D16*
%TO.C,R17*%
X113600000Y-64200000D03*
X113600000Y-62693268D03*
%TD*%
D18*
%TO.C,JP8*%
X111250000Y-84200000D03*
D17*
X111250000Y-82900000D03*
%TD*%
D42*
%TO.C,U9*%
X100900000Y-62000585D03*
X100900000Y-62949785D03*
X100900000Y-63900000D03*
X103499950Y-63900000D03*
X103499950Y-62000585D03*
%TD*%
D34*
%TO.C,H1*%
X53000000Y-53000000D03*
%TD*%
D11*
%TO.C,C14*%
X118400000Y-69900000D03*
X118400000Y-70740234D03*
%TD*%
D43*
%TO.C,U8*%
X74700000Y-55274930D03*
X76700000Y-55274930D03*
D44*
X79050013Y-61125070D03*
X72349987Y-61125070D03*
%TD*%
D12*
%TO.C,R3*%
X116353366Y-60700000D03*
X114846634Y-60700000D03*
%TD*%
D45*
%TO.C,LED1*%
X66399873Y-92951003D03*
X66400127Y-94448997D03*
%TD*%
D16*
%TO.C,R19*%
X117000000Y-73300000D03*
X117000000Y-74806732D03*
%TD*%
D11*
%TO.C,C4*%
X108249962Y-70804902D03*
X108249962Y-71645136D03*
%TD*%
D16*
%TO.C,R1*%
X61500000Y-92793268D03*
X61500000Y-94300000D03*
%TD*%
D46*
%TO.C,ENC1*%
X65300000Y-70000000D03*
X60300000Y-70000000D03*
D47*
X68400000Y-77000000D03*
X57200000Y-77000000D03*
D46*
X62800000Y-84500000D03*
X60300000Y-84500000D03*
D48*
X65300000Y-84500000D03*
%TD*%
D49*
%TO.C,SW1*%
X151000000Y-62750000D03*
X144000000Y-63800000D03*
D50*
X148400000Y-68500000D03*
%TD*%
D49*
%TO.C,SW2*%
X151000000Y-79750000D03*
X144000000Y-80800000D03*
D50*
X148400000Y-85500000D03*
%TD*%
M02*
