%TF.GenerationSoftware,KiCad,Pcbnew,8.0.1*%
%TF.CreationDate,2026-03-25T10:26:10+01:00*%
%TF.ProjectId,memory_pcb,6d656d6f-7279-45f7-9063-622e6b696361,rev?*%
%TF.SameCoordinates,Original*%
%TF.FileFunction,Paste,Top*%
%TF.FilePolarity,Positive*%
%FSLAX46Y46*%
G04 Gerber Fmt 4.6, Leading zero omitted, Abs format (unit mm)*
G04 Created by KiCad (PCBNEW 8.0.1) date 2026-03-25 10:26:10*
%MOMM*%
%LPD*%
G01*
G04 APERTURE LIST*
G04 Aperture macros list*
%AMFreePoly0*
4,1,5,0.299873,-0.649886,-0.300152,-0.649886,-0.300152,0.650089,0.299873,0.650089,0.299873,-0.649886,0.299873,-0.649886,$1*%
%AMFreePoly1*
4,1,9,0.300076,-0.650038,0.000127,-0.650038,0.000127,-0.650064,-0.299898,-0.650064,-0.299898,0.649911,0.000051,0.649911,0.000051,0.649936,0.300076,0.649936,0.300076,-0.650038,0.300076,-0.650038,$1*%
%AMFreePoly2*
4,1,9,0.299924,-0.649936,-0.000051,-0.649936,-0.000051,-0.650089,-0.300051,-0.650089,-0.300051,0.649936,-0.000076,0.649936,-0.000076,0.650089,0.299924,0.650089,0.299924,-0.649936,0.299924,-0.649936,$1*%
G04 Aperture macros list end*
%ADD10C,0.150000*%
%ADD11R,0.800000X0.900000*%
%ADD12R,0.540005X0.500000*%
%ADD13R,0.806477X0.864008*%
%ADD14R,1.500000X0.900000*%
%ADD15R,0.900000X1.500000*%
%ADD16R,0.900000X0.900000*%
%ADD17R,0.864008X0.806477*%
%ADD18R,1.539014X2.062510*%
%ADD19R,1.859995X1.229997*%
%ADD20R,0.300000X1.300000*%
%ADD21FreePoly0,0.000000*%
%ADD22FreePoly1,0.000000*%
%ADD23FreePoly2,0.000000*%
%ADD24R,0.500000X0.540005*%
%ADD25R,0.299975X1.500000*%
%ADD26R,2.000000X1.600000*%
%ADD27R,0.424994X0.280010*%
%ADD28R,0.800000X1.200000*%
%ADD29R,0.700000X1.250013*%
%ADD30R,0.489992X1.175006*%
%ADD31R,0.489992X1.156998*%
%ADD32R,1.485014X1.727991*%
%ADD33R,0.600000X1.100000*%
%ADD34R,1.104902X0.622301*%
%ADD35R,1.000000X3.800000*%
%ADD36R,1.500000X3.400000*%
%ADD37R,0.800000X0.800000*%
G04 APERTURE END LIST*
D10*
%TO.C,R9*%
X117301625Y-63699975D02*
X117301625Y-63942012D01*
X116931623Y-63942012D01*
X116931623Y-64272009D01*
X117301625Y-64272009D01*
X117301625Y-64499975D01*
X117251612Y-64549987D01*
X116451612Y-64549987D01*
X116401625Y-64499975D01*
X116401625Y-63699975D01*
X116451612Y-63649987D01*
X117251612Y-63649987D01*
X117301625Y-63699975D01*
G36*
X117301625Y-63699975D02*
G01*
X117301625Y-63942012D01*
X116931623Y-63942012D01*
X116931623Y-64272009D01*
X117301625Y-64272009D01*
X117301625Y-64499975D01*
X117251612Y-64549987D01*
X116451612Y-64549987D01*
X116401625Y-64499975D01*
X116401625Y-63699975D01*
X116451612Y-63649987D01*
X117251612Y-63649987D01*
X117301625Y-63699975D01*
G37*
X118891643Y-63700025D02*
X118891643Y-64500025D01*
X118841656Y-64550013D01*
X118041656Y-64550013D01*
X117991643Y-64500025D01*
X117991643Y-64257988D01*
X118361645Y-64257988D01*
X118361645Y-63927991D01*
X117991643Y-63927991D01*
X117991643Y-63700025D01*
X118041656Y-63650013D01*
X118841656Y-63650013D01*
X118891643Y-63700025D01*
G36*
X118891643Y-63700025D02*
G01*
X118891643Y-64500025D01*
X118841656Y-64550013D01*
X118041656Y-64550013D01*
X117991643Y-64500025D01*
X117991643Y-64257988D01*
X118361645Y-64257988D01*
X118361645Y-63927991D01*
X117991643Y-63927991D01*
X117991643Y-63700025D01*
X118041656Y-63650013D01*
X118841656Y-63650013D01*
X118891643Y-63700025D01*
G37*
%TO.C,R12*%
X115650013Y-62251612D02*
X115650013Y-63051612D01*
X115600025Y-63101625D01*
X115357988Y-63101625D01*
X115357988Y-62731623D01*
X115027991Y-62731623D01*
X115027991Y-63101625D01*
X114800025Y-63101625D01*
X114750013Y-63051612D01*
X114750013Y-62251612D01*
X114800025Y-62201625D01*
X115600025Y-62201625D01*
X115650013Y-62251612D01*
G36*
X115650013Y-62251612D02*
G01*
X115650013Y-63051612D01*
X115600025Y-63101625D01*
X115357988Y-63101625D01*
X115357988Y-62731623D01*
X115027991Y-62731623D01*
X115027991Y-63101625D01*
X114800025Y-63101625D01*
X114750013Y-63051612D01*
X114750013Y-62251612D01*
X114800025Y-62201625D01*
X115600025Y-62201625D01*
X115650013Y-62251612D01*
G37*
X115042012Y-64161645D02*
X115372009Y-64161645D01*
X115372009Y-63791643D01*
X115599975Y-63791643D01*
X115649987Y-63841656D01*
X115649987Y-64641656D01*
X115599975Y-64691643D01*
X114799975Y-64691643D01*
X114749987Y-64641656D01*
X114749987Y-63841656D01*
X114799975Y-63791643D01*
X115042012Y-63791643D01*
X115042012Y-64161645D01*
G36*
X115042012Y-64161645D02*
G01*
X115372009Y-64161645D01*
X115372009Y-63791643D01*
X115599975Y-63791643D01*
X115649987Y-63841656D01*
X115649987Y-64641656D01*
X115599975Y-64691643D01*
X114799975Y-64691643D01*
X114749987Y-64641656D01*
X114749987Y-63841656D01*
X114799975Y-63791643D01*
X115042012Y-63791643D01*
X115042012Y-64161645D01*
G37*
%TO.C,R8*%
X117301625Y-62199975D02*
X117301625Y-62442012D01*
X116931623Y-62442012D01*
X116931623Y-62772009D01*
X117301625Y-62772009D01*
X117301625Y-62999975D01*
X117251612Y-63049987D01*
X116451612Y-63049987D01*
X116401625Y-62999975D01*
X116401625Y-62199975D01*
X116451612Y-62149987D01*
X117251612Y-62149987D01*
X117301625Y-62199975D01*
G36*
X117301625Y-62199975D02*
G01*
X117301625Y-62442012D01*
X116931623Y-62442012D01*
X116931623Y-62772009D01*
X117301625Y-62772009D01*
X117301625Y-62999975D01*
X117251612Y-63049987D01*
X116451612Y-63049987D01*
X116401625Y-62999975D01*
X116401625Y-62199975D01*
X116451612Y-62149987D01*
X117251612Y-62149987D01*
X117301625Y-62199975D01*
G37*
X118891643Y-62200025D02*
X118891643Y-63000025D01*
X118841656Y-63050013D01*
X118041656Y-63050013D01*
X117991643Y-63000025D01*
X117991643Y-62757988D01*
X118361645Y-62757988D01*
X118361645Y-62427991D01*
X117991643Y-62427991D01*
X117991643Y-62200025D01*
X118041656Y-62150013D01*
X118841656Y-62150013D01*
X118891643Y-62200025D01*
G36*
X118891643Y-62200025D02*
G01*
X118891643Y-63000025D01*
X118841656Y-63050013D01*
X118041656Y-63050013D01*
X117991643Y-63000025D01*
X117991643Y-62757988D01*
X118361645Y-62757988D01*
X118361645Y-62427991D01*
X117991643Y-62427991D01*
X117991643Y-62200025D01*
X118041656Y-62150013D01*
X118841656Y-62150013D01*
X118891643Y-62200025D01*
G37*
%TO.C,R15*%
X115850013Y-69604978D02*
X115850013Y-70404978D01*
X115800025Y-70454991D01*
X115557988Y-70454991D01*
X115557988Y-70084989D01*
X115227991Y-70084989D01*
X115227991Y-70454991D01*
X115000025Y-70454991D01*
X114950013Y-70404978D01*
X114950013Y-69604978D01*
X115000025Y-69554991D01*
X115800025Y-69554991D01*
X115850013Y-69604978D01*
G36*
X115850013Y-69604978D02*
G01*
X115850013Y-70404978D01*
X115800025Y-70454991D01*
X115557988Y-70454991D01*
X115557988Y-70084989D01*
X115227991Y-70084989D01*
X115227991Y-70454991D01*
X115000025Y-70454991D01*
X114950013Y-70404978D01*
X114950013Y-69604978D01*
X115000025Y-69554991D01*
X115800025Y-69554991D01*
X115850013Y-69604978D01*
G37*
X115242012Y-71515011D02*
X115572009Y-71515011D01*
X115572009Y-71145009D01*
X115799975Y-71145009D01*
X115849987Y-71195022D01*
X115849987Y-71995022D01*
X115799975Y-72045009D01*
X114999975Y-72045009D01*
X114949987Y-71995022D01*
X114949987Y-71195022D01*
X114999975Y-71145009D01*
X115242012Y-71145009D01*
X115242012Y-71515011D01*
G36*
X115242012Y-71515011D02*
G01*
X115572009Y-71515011D01*
X115572009Y-71145009D01*
X115799975Y-71145009D01*
X115849987Y-71195022D01*
X115849987Y-71995022D01*
X115799975Y-72045009D01*
X114999975Y-72045009D01*
X114949987Y-71995022D01*
X114949987Y-71195022D01*
X114999975Y-71145009D01*
X115242012Y-71145009D01*
X115242012Y-71515011D01*
G37*
%TO.C,R6*%
X99142012Y-65415011D02*
X99472009Y-65415011D01*
X99472009Y-65045009D01*
X99699975Y-65045009D01*
X99749987Y-65095022D01*
X99749987Y-65895022D01*
X99699975Y-65945009D01*
X98899975Y-65945009D01*
X98849987Y-65895022D01*
X98849987Y-65095022D01*
X98899975Y-65045009D01*
X99142012Y-65045009D01*
X99142012Y-65415011D01*
G36*
X99142012Y-65415011D02*
G01*
X99472009Y-65415011D01*
X99472009Y-65045009D01*
X99699975Y-65045009D01*
X99749987Y-65095022D01*
X99749987Y-65895022D01*
X99699975Y-65945009D01*
X98899975Y-65945009D01*
X98849987Y-65895022D01*
X98849987Y-65095022D01*
X98899975Y-65045009D01*
X99142012Y-65045009D01*
X99142012Y-65415011D01*
G37*
X99750013Y-63504978D02*
X99750013Y-64304978D01*
X99700025Y-64354991D01*
X99457988Y-64354991D01*
X99457988Y-63984989D01*
X99127991Y-63984989D01*
X99127991Y-64354991D01*
X98900025Y-64354991D01*
X98850013Y-64304978D01*
X98850013Y-63504978D01*
X98900025Y-63454991D01*
X99700025Y-63454991D01*
X99750013Y-63504978D01*
G36*
X99750013Y-63504978D02*
G01*
X99750013Y-64304978D01*
X99700025Y-64354991D01*
X99457988Y-64354991D01*
X99457988Y-63984989D01*
X99127991Y-63984989D01*
X99127991Y-64354991D01*
X98900025Y-64354991D01*
X98850013Y-64304978D01*
X98850013Y-63504978D01*
X98900025Y-63454991D01*
X99700025Y-63454991D01*
X99750013Y-63504978D01*
G37*
%TO.C,R13*%
X113150013Y-72858344D02*
X113150013Y-73658344D01*
X113100025Y-73708357D01*
X112857988Y-73708357D01*
X112857988Y-73338355D01*
X112527991Y-73338355D01*
X112527991Y-73708357D01*
X112300025Y-73708357D01*
X112250013Y-73658344D01*
X112250013Y-72858344D01*
X112300025Y-72808357D01*
X113100025Y-72808357D01*
X113150013Y-72858344D01*
G36*
X113150013Y-72858344D02*
G01*
X113150013Y-73658344D01*
X113100025Y-73708357D01*
X112857988Y-73708357D01*
X112857988Y-73338355D01*
X112527991Y-73338355D01*
X112527991Y-73708357D01*
X112300025Y-73708357D01*
X112250013Y-73658344D01*
X112250013Y-72858344D01*
X112300025Y-72808357D01*
X113100025Y-72808357D01*
X113150013Y-72858344D01*
G37*
X112542012Y-74768377D02*
X112872009Y-74768377D01*
X112872009Y-74398375D01*
X113099975Y-74398375D01*
X113149987Y-74448388D01*
X113149987Y-75248388D01*
X113099975Y-75298375D01*
X112299975Y-75298375D01*
X112249987Y-75248388D01*
X112249987Y-74448388D01*
X112299975Y-74398375D01*
X112542012Y-74398375D01*
X112542012Y-74768377D01*
G36*
X112542012Y-74768377D02*
G01*
X112872009Y-74768377D01*
X112872009Y-74398375D01*
X113099975Y-74398375D01*
X113149987Y-74448388D01*
X113149987Y-75248388D01*
X113099975Y-75298375D01*
X112299975Y-75298375D01*
X112249987Y-75248388D01*
X112249987Y-74448388D01*
X112299975Y-74398375D01*
X112542012Y-74398375D01*
X112542012Y-74768377D01*
G37*
%TO.C,R5*%
X97292050Y-63668681D02*
X97622047Y-63668681D01*
X97622047Y-63298679D01*
X97850013Y-63298679D01*
X97900025Y-63348692D01*
X97900025Y-64148692D01*
X97850013Y-64198679D01*
X97050013Y-64198679D01*
X97000025Y-64148692D01*
X97000025Y-63348692D01*
X97050013Y-63298679D01*
X97292050Y-63298679D01*
X97292050Y-63668681D01*
G36*
X97292050Y-63668681D02*
G01*
X97622047Y-63668681D01*
X97622047Y-63298679D01*
X97850013Y-63298679D01*
X97900025Y-63348692D01*
X97900025Y-64148692D01*
X97850013Y-64198679D01*
X97050013Y-64198679D01*
X97000025Y-64148692D01*
X97000025Y-63348692D01*
X97050013Y-63298679D01*
X97292050Y-63298679D01*
X97292050Y-63668681D01*
G37*
X97900051Y-61758648D02*
X97900051Y-62558648D01*
X97850063Y-62608661D01*
X97608026Y-62608661D01*
X97608026Y-62238659D01*
X97278029Y-62238659D01*
X97278029Y-62608661D01*
X97050063Y-62608661D01*
X97000051Y-62558648D01*
X97000051Y-61758648D01*
X97050063Y-61708661D01*
X97850063Y-61708661D01*
X97900051Y-61758648D01*
G36*
X97900051Y-61758648D02*
G01*
X97900051Y-62558648D01*
X97850063Y-62608661D01*
X97608026Y-62608661D01*
X97608026Y-62238659D01*
X97278029Y-62238659D01*
X97278029Y-62608661D01*
X97050063Y-62608661D01*
X97000051Y-62558648D01*
X97000051Y-61758648D01*
X97050063Y-61708661D01*
X97850063Y-61708661D01*
X97900051Y-61758648D01*
G37*
%TO.C,U12*%
X67169952Y-100264882D02*
X67199721Y-100267853D01*
X67229312Y-100272324D01*
X67258623Y-100278242D01*
X67287630Y-100285633D01*
X67316205Y-100294447D01*
X67344323Y-100304683D01*
X67371882Y-100316291D01*
X67398857Y-100329271D01*
X67425121Y-100343596D01*
X67450648Y-100359192D01*
X67475362Y-100376032D01*
X67499213Y-100394117D01*
X67522123Y-100413345D01*
X67544069Y-100433690D01*
X67564948Y-100455103D01*
X67584760Y-100477531D01*
X67603404Y-100500924D01*
X67620853Y-100525207D01*
X67637084Y-100550353D01*
X67652045Y-100576261D01*
X67665710Y-100602880D01*
X67678004Y-100630134D01*
X67688926Y-100657998D01*
X67698476Y-100686345D01*
X67706579Y-100715148D01*
X67713233Y-100744308D01*
X67718415Y-100773772D01*
X67722149Y-100803464D01*
X67724384Y-100833309D01*
X67725121Y-100863205D01*
X67725121Y-101463205D01*
X67724384Y-101493101D01*
X67722149Y-101522946D01*
X67718415Y-101552639D01*
X67713233Y-101582103D01*
X67706579Y-101611262D01*
X67698476Y-101640066D01*
X67688926Y-101668412D01*
X67678004Y-101696276D01*
X67665710Y-101723530D01*
X67652045Y-101750150D01*
X67637084Y-101776058D01*
X67620853Y-101801204D01*
X67603404Y-101825486D01*
X67584760Y-101848880D01*
X67564948Y-101871308D01*
X67544069Y-101892720D01*
X67522123Y-101913065D01*
X67499213Y-101932293D01*
X67475362Y-101950378D01*
X67450648Y-101967218D01*
X67425121Y-101982814D01*
X67398857Y-101997140D01*
X67371882Y-102010119D01*
X67344323Y-102021727D01*
X67316205Y-102031963D01*
X67287630Y-102040777D01*
X67258623Y-102048168D01*
X67229312Y-102054087D01*
X67199721Y-102058557D01*
X67169952Y-102061529D01*
X67140081Y-102063027D01*
X67110160Y-102063027D01*
X67080290Y-102061529D01*
X67050521Y-102058557D01*
X67020930Y-102054087D01*
X66991618Y-102048168D01*
X66962611Y-102040777D01*
X66934036Y-102031963D01*
X66905918Y-102021727D01*
X66878359Y-102010119D01*
X66851384Y-101997140D01*
X66825121Y-101982814D01*
X66799594Y-101967218D01*
X66774879Y-101950378D01*
X66751029Y-101932293D01*
X66728118Y-101913065D01*
X66706172Y-101892720D01*
X66685293Y-101871308D01*
X66665481Y-101848880D01*
X66646838Y-101825486D01*
X66629388Y-101801204D01*
X66613157Y-101776058D01*
X66598197Y-101750150D01*
X66584531Y-101723530D01*
X66572238Y-101696276D01*
X66561316Y-101668412D01*
X66551765Y-101640066D01*
X66543663Y-101611262D01*
X66537008Y-101582103D01*
X66531826Y-101552639D01*
X66528092Y-101522946D01*
X66525857Y-101493101D01*
X66525121Y-101463205D01*
X66525121Y-100863205D01*
X66525857Y-100833309D01*
X66528092Y-100803464D01*
X66531826Y-100773772D01*
X66537008Y-100744308D01*
X66543663Y-100715148D01*
X66551765Y-100686345D01*
X66561316Y-100657998D01*
X66572238Y-100630134D01*
X66584531Y-100602880D01*
X66598197Y-100576261D01*
X66613157Y-100550353D01*
X66629388Y-100525207D01*
X66646838Y-100500924D01*
X66665481Y-100477531D01*
X66685293Y-100455103D01*
X66706172Y-100433690D01*
X66728118Y-100413345D01*
X66751029Y-100394117D01*
X66774879Y-100376032D01*
X66799594Y-100359192D01*
X66825121Y-100343596D01*
X66851384Y-100329271D01*
X66878359Y-100316291D01*
X66905918Y-100304683D01*
X66934036Y-100294447D01*
X66962611Y-100285633D01*
X66991618Y-100278242D01*
X67020930Y-100272324D01*
X67050521Y-100267853D01*
X67080290Y-100264882D01*
X67110160Y-100263383D01*
X67140081Y-100263383D01*
X67169952Y-100264882D01*
G36*
X67169952Y-100264882D02*
G01*
X67199721Y-100267853D01*
X67229312Y-100272324D01*
X67258623Y-100278242D01*
X67287630Y-100285633D01*
X67316205Y-100294447D01*
X67344323Y-100304683D01*
X67371882Y-100316291D01*
X67398857Y-100329271D01*
X67425121Y-100343596D01*
X67450648Y-100359192D01*
X67475362Y-100376032D01*
X67499213Y-100394117D01*
X67522123Y-100413345D01*
X67544069Y-100433690D01*
X67564948Y-100455103D01*
X67584760Y-100477531D01*
X67603404Y-100500924D01*
X67620853Y-100525207D01*
X67637084Y-100550353D01*
X67652045Y-100576261D01*
X67665710Y-100602880D01*
X67678004Y-100630134D01*
X67688926Y-100657998D01*
X67698476Y-100686345D01*
X67706579Y-100715148D01*
X67713233Y-100744308D01*
X67718415Y-100773772D01*
X67722149Y-100803464D01*
X67724384Y-100833309D01*
X67725121Y-100863205D01*
X67725121Y-101463205D01*
X67724384Y-101493101D01*
X67722149Y-101522946D01*
X67718415Y-101552639D01*
X67713233Y-101582103D01*
X67706579Y-101611262D01*
X67698476Y-101640066D01*
X67688926Y-101668412D01*
X67678004Y-101696276D01*
X67665710Y-101723530D01*
X67652045Y-101750150D01*
X67637084Y-101776058D01*
X67620853Y-101801204D01*
X67603404Y-101825486D01*
X67584760Y-101848880D01*
X67564948Y-101871308D01*
X67544069Y-101892720D01*
X67522123Y-101913065D01*
X67499213Y-101932293D01*
X67475362Y-101950378D01*
X67450648Y-101967218D01*
X67425121Y-101982814D01*
X67398857Y-101997140D01*
X67371882Y-102010119D01*
X67344323Y-102021727D01*
X67316205Y-102031963D01*
X67287630Y-102040777D01*
X67258623Y-102048168D01*
X67229312Y-102054087D01*
X67199721Y-102058557D01*
X67169952Y-102061529D01*
X67140081Y-102063027D01*
X67110160Y-102063027D01*
X67080290Y-102061529D01*
X67050521Y-102058557D01*
X67020930Y-102054087D01*
X66991618Y-102048168D01*
X66962611Y-102040777D01*
X66934036Y-102031963D01*
X66905918Y-102021727D01*
X66878359Y-102010119D01*
X66851384Y-101997140D01*
X66825121Y-101982814D01*
X66799594Y-101967218D01*
X66774879Y-101950378D01*
X66751029Y-101932293D01*
X66728118Y-101913065D01*
X66706172Y-101892720D01*
X66685293Y-101871308D01*
X66665481Y-101848880D01*
X66646838Y-101825486D01*
X66629388Y-101801204D01*
X66613157Y-101776058D01*
X66598197Y-101750150D01*
X66584531Y-101723530D01*
X66572238Y-101696276D01*
X66561316Y-101668412D01*
X66551765Y-101640066D01*
X66543663Y-101611262D01*
X66537008Y-101582103D01*
X66531826Y-101552639D01*
X66528092Y-101522946D01*
X66525857Y-101493101D01*
X66525121Y-101463205D01*
X66525121Y-100863205D01*
X66525857Y-100833309D01*
X66528092Y-100803464D01*
X66531826Y-100773772D01*
X66537008Y-100744308D01*
X66543663Y-100715148D01*
X66551765Y-100686345D01*
X66561316Y-100657998D01*
X66572238Y-100630134D01*
X66584531Y-100602880D01*
X66598197Y-100576261D01*
X66613157Y-100550353D01*
X66629388Y-100525207D01*
X66646838Y-100500924D01*
X66665481Y-100477531D01*
X66685293Y-100455103D01*
X66706172Y-100433690D01*
X66728118Y-100413345D01*
X66751029Y-100394117D01*
X66774879Y-100376032D01*
X66799594Y-100359192D01*
X66825121Y-100343596D01*
X66851384Y-100329271D01*
X66878359Y-100316291D01*
X66905918Y-100304683D01*
X66934036Y-100294447D01*
X66962611Y-100285633D01*
X66991618Y-100278242D01*
X67020930Y-100272324D01*
X67050521Y-100267853D01*
X67080290Y-100264882D01*
X67110160Y-100263383D01*
X67140081Y-100263383D01*
X67169952Y-100264882D01*
G37*
X67169952Y-95984973D02*
X67199721Y-95987945D01*
X67229312Y-95992415D01*
X67258623Y-95998333D01*
X67287630Y-96005725D01*
X67316205Y-96014539D01*
X67344323Y-96024775D01*
X67371882Y-96036383D01*
X67398857Y-96049362D01*
X67425121Y-96063688D01*
X67450648Y-96079283D01*
X67475362Y-96096124D01*
X67499213Y-96114208D01*
X67522123Y-96133436D01*
X67544069Y-96153782D01*
X67564948Y-96175194D01*
X67584760Y-96197622D01*
X67603404Y-96221016D01*
X67620853Y-96245298D01*
X67637084Y-96270444D01*
X67652045Y-96296352D01*
X67665710Y-96322971D01*
X67678004Y-96350226D01*
X67688926Y-96378090D01*
X67698476Y-96406436D01*
X67706579Y-96435240D01*
X67713233Y-96464399D01*
X67718415Y-96493863D01*
X67722149Y-96523556D01*
X67724384Y-96553401D01*
X67725121Y-96583297D01*
X67725121Y-97383297D01*
X67724384Y-97413192D01*
X67722149Y-97443038D01*
X67718415Y-97472730D01*
X67713233Y-97502194D01*
X67706579Y-97531353D01*
X67698476Y-97560157D01*
X67688926Y-97588504D01*
X67678004Y-97616367D01*
X67665710Y-97643622D01*
X67652045Y-97670241D01*
X67637084Y-97696149D01*
X67620853Y-97721295D01*
X67603404Y-97745578D01*
X67584760Y-97768971D01*
X67564948Y-97791399D01*
X67544069Y-97812811D01*
X67522123Y-97833157D01*
X67499213Y-97852385D01*
X67475362Y-97870470D01*
X67450648Y-97887310D01*
X67425121Y-97902905D01*
X67398857Y-97917231D01*
X67371882Y-97930210D01*
X67344323Y-97941818D01*
X67316205Y-97952055D01*
X67287630Y-97960868D01*
X67258623Y-97968260D01*
X67229312Y-97974178D01*
X67199721Y-97978648D01*
X67169952Y-97981620D01*
X67140081Y-97983119D01*
X67110160Y-97983119D01*
X67080290Y-97981620D01*
X67050521Y-97978648D01*
X67020930Y-97974178D01*
X66991618Y-97968260D01*
X66962611Y-97960868D01*
X66934036Y-97952055D01*
X66905918Y-97941818D01*
X66878359Y-97930210D01*
X66851384Y-97917231D01*
X66825121Y-97902905D01*
X66799594Y-97887310D01*
X66774879Y-97870470D01*
X66751029Y-97852385D01*
X66728118Y-97833157D01*
X66706172Y-97812811D01*
X66685293Y-97791399D01*
X66665481Y-97768971D01*
X66646838Y-97745578D01*
X66629388Y-97721295D01*
X66613157Y-97696149D01*
X66598197Y-97670241D01*
X66584531Y-97643622D01*
X66572238Y-97616367D01*
X66561316Y-97588504D01*
X66551765Y-97560157D01*
X66543663Y-97531353D01*
X66537008Y-97502194D01*
X66531826Y-97472730D01*
X66528092Y-97443038D01*
X66525857Y-97413192D01*
X66525121Y-97383297D01*
X66525121Y-96583297D01*
X66525857Y-96553401D01*
X66528092Y-96523556D01*
X66531826Y-96493863D01*
X66537008Y-96464399D01*
X66543663Y-96435240D01*
X66551765Y-96406436D01*
X66561316Y-96378090D01*
X66572238Y-96350226D01*
X66584531Y-96322971D01*
X66598197Y-96296352D01*
X66613157Y-96270444D01*
X66629388Y-96245298D01*
X66646838Y-96221016D01*
X66665481Y-96197622D01*
X66685293Y-96175194D01*
X66706172Y-96153782D01*
X66728118Y-96133436D01*
X66751029Y-96114208D01*
X66774879Y-96096124D01*
X66799594Y-96079283D01*
X66825121Y-96063688D01*
X66851384Y-96049362D01*
X66878359Y-96036383D01*
X66905918Y-96024775D01*
X66934036Y-96014539D01*
X66962611Y-96005725D01*
X66991618Y-95998333D01*
X67020930Y-95992415D01*
X67050521Y-95987945D01*
X67080290Y-95984973D01*
X67110160Y-95983474D01*
X67140081Y-95983474D01*
X67169952Y-95984973D01*
G36*
X67169952Y-95984973D02*
G01*
X67199721Y-95987945D01*
X67229312Y-95992415D01*
X67258623Y-95998333D01*
X67287630Y-96005725D01*
X67316205Y-96014539D01*
X67344323Y-96024775D01*
X67371882Y-96036383D01*
X67398857Y-96049362D01*
X67425121Y-96063688D01*
X67450648Y-96079283D01*
X67475362Y-96096124D01*
X67499213Y-96114208D01*
X67522123Y-96133436D01*
X67544069Y-96153782D01*
X67564948Y-96175194D01*
X67584760Y-96197622D01*
X67603404Y-96221016D01*
X67620853Y-96245298D01*
X67637084Y-96270444D01*
X67652045Y-96296352D01*
X67665710Y-96322971D01*
X67678004Y-96350226D01*
X67688926Y-96378090D01*
X67698476Y-96406436D01*
X67706579Y-96435240D01*
X67713233Y-96464399D01*
X67718415Y-96493863D01*
X67722149Y-96523556D01*
X67724384Y-96553401D01*
X67725121Y-96583297D01*
X67725121Y-97383297D01*
X67724384Y-97413192D01*
X67722149Y-97443038D01*
X67718415Y-97472730D01*
X67713233Y-97502194D01*
X67706579Y-97531353D01*
X67698476Y-97560157D01*
X67688926Y-97588504D01*
X67678004Y-97616367D01*
X67665710Y-97643622D01*
X67652045Y-97670241D01*
X67637084Y-97696149D01*
X67620853Y-97721295D01*
X67603404Y-97745578D01*
X67584760Y-97768971D01*
X67564948Y-97791399D01*
X67544069Y-97812811D01*
X67522123Y-97833157D01*
X67499213Y-97852385D01*
X67475362Y-97870470D01*
X67450648Y-97887310D01*
X67425121Y-97902905D01*
X67398857Y-97917231D01*
X67371882Y-97930210D01*
X67344323Y-97941818D01*
X67316205Y-97952055D01*
X67287630Y-97960868D01*
X67258623Y-97968260D01*
X67229312Y-97974178D01*
X67199721Y-97978648D01*
X67169952Y-97981620D01*
X67140081Y-97983119D01*
X67110160Y-97983119D01*
X67080290Y-97981620D01*
X67050521Y-97978648D01*
X67020930Y-97974178D01*
X66991618Y-97968260D01*
X66962611Y-97960868D01*
X66934036Y-97952055D01*
X66905918Y-97941818D01*
X66878359Y-97930210D01*
X66851384Y-97917231D01*
X66825121Y-97902905D01*
X66799594Y-97887310D01*
X66774879Y-97870470D01*
X66751029Y-97852385D01*
X66728118Y-97833157D01*
X66706172Y-97812811D01*
X66685293Y-97791399D01*
X66665481Y-97768971D01*
X66646838Y-97745578D01*
X66629388Y-97721295D01*
X66613157Y-97696149D01*
X66598197Y-97670241D01*
X66584531Y-97643622D01*
X66572238Y-97616367D01*
X66561316Y-97588504D01*
X66551765Y-97560157D01*
X66543663Y-97531353D01*
X66537008Y-97502194D01*
X66531826Y-97472730D01*
X66528092Y-97443038D01*
X66525857Y-97413192D01*
X66525121Y-97383297D01*
X66525121Y-96583297D01*
X66525857Y-96553401D01*
X66528092Y-96523556D01*
X66531826Y-96493863D01*
X66537008Y-96464399D01*
X66543663Y-96435240D01*
X66551765Y-96406436D01*
X66561316Y-96378090D01*
X66572238Y-96350226D01*
X66584531Y-96322971D01*
X66598197Y-96296352D01*
X66613157Y-96270444D01*
X66629388Y-96245298D01*
X66646838Y-96221016D01*
X66665481Y-96197622D01*
X66685293Y-96175194D01*
X66706172Y-96153782D01*
X66728118Y-96133436D01*
X66751029Y-96114208D01*
X66774879Y-96096124D01*
X66799594Y-96079283D01*
X66825121Y-96063688D01*
X66851384Y-96049362D01*
X66878359Y-96036383D01*
X66905918Y-96024775D01*
X66934036Y-96014539D01*
X66962611Y-96005725D01*
X66991618Y-95998333D01*
X67020930Y-95992415D01*
X67050521Y-95987945D01*
X67080290Y-95984973D01*
X67110160Y-95983474D01*
X67140081Y-95983474D01*
X67169952Y-95984973D01*
G37*
X58519710Y-95984973D02*
X58549479Y-95987945D01*
X58579070Y-95992415D01*
X58608382Y-95998333D01*
X58637389Y-96005725D01*
X58665964Y-96014539D01*
X58694082Y-96024775D01*
X58721641Y-96036383D01*
X58748616Y-96049362D01*
X58774879Y-96063688D01*
X58800406Y-96079283D01*
X58825121Y-96096124D01*
X58848971Y-96114208D01*
X58871882Y-96133436D01*
X58893828Y-96153782D01*
X58914707Y-96175194D01*
X58934519Y-96197622D01*
X58953162Y-96221016D01*
X58970612Y-96245298D01*
X58986843Y-96270444D01*
X59001803Y-96296352D01*
X59015469Y-96322971D01*
X59027762Y-96350226D01*
X59038684Y-96378090D01*
X59048235Y-96406436D01*
X59056337Y-96435240D01*
X59062992Y-96464399D01*
X59068174Y-96493863D01*
X59071908Y-96523556D01*
X59074143Y-96553401D01*
X59074879Y-96583297D01*
X59074879Y-97383297D01*
X59074143Y-97413192D01*
X59071908Y-97443038D01*
X59068174Y-97472730D01*
X59062992Y-97502194D01*
X59056337Y-97531353D01*
X59048235Y-97560157D01*
X59038684Y-97588504D01*
X59027762Y-97616367D01*
X59015469Y-97643622D01*
X59001803Y-97670241D01*
X58986843Y-97696149D01*
X58970612Y-97721295D01*
X58953162Y-97745578D01*
X58934519Y-97768971D01*
X58914707Y-97791399D01*
X58893828Y-97812811D01*
X58871882Y-97833157D01*
X58848971Y-97852385D01*
X58825121Y-97870470D01*
X58800406Y-97887310D01*
X58774879Y-97902905D01*
X58748616Y-97917231D01*
X58721641Y-97930210D01*
X58694082Y-97941818D01*
X58665964Y-97952055D01*
X58637389Y-97960868D01*
X58608382Y-97968260D01*
X58579070Y-97974178D01*
X58549479Y-97978648D01*
X58519710Y-97981620D01*
X58489840Y-97983119D01*
X58459919Y-97983119D01*
X58430048Y-97981620D01*
X58400279Y-97978648D01*
X58370688Y-97974178D01*
X58341377Y-97968260D01*
X58312370Y-97960868D01*
X58283795Y-97952055D01*
X58255677Y-97941818D01*
X58228118Y-97930210D01*
X58201143Y-97917231D01*
X58174879Y-97902905D01*
X58149352Y-97887310D01*
X58124638Y-97870470D01*
X58100787Y-97852385D01*
X58077877Y-97833157D01*
X58055931Y-97812811D01*
X58035052Y-97791399D01*
X58015240Y-97768971D01*
X57996596Y-97745578D01*
X57979147Y-97721295D01*
X57962916Y-97696149D01*
X57947955Y-97670241D01*
X57934290Y-97643622D01*
X57921996Y-97616367D01*
X57911074Y-97588504D01*
X57901524Y-97560157D01*
X57893421Y-97531353D01*
X57886767Y-97502194D01*
X57881585Y-97472730D01*
X57877851Y-97443038D01*
X57875616Y-97413192D01*
X57874879Y-97383297D01*
X57874879Y-96583297D01*
X57875616Y-96553401D01*
X57877851Y-96523556D01*
X57881585Y-96493863D01*
X57886767Y-96464399D01*
X57893421Y-96435240D01*
X57901524Y-96406436D01*
X57911074Y-96378090D01*
X57921996Y-96350226D01*
X57934290Y-96322971D01*
X57947955Y-96296352D01*
X57962916Y-96270444D01*
X57979147Y-96245298D01*
X57996596Y-96221016D01*
X58015240Y-96197622D01*
X58035052Y-96175194D01*
X58055931Y-96153782D01*
X58077877Y-96133436D01*
X58100787Y-96114208D01*
X58124638Y-96096124D01*
X58149352Y-96079283D01*
X58174879Y-96063688D01*
X58201143Y-96049362D01*
X58228118Y-96036383D01*
X58255677Y-96024775D01*
X58283795Y-96014539D01*
X58312370Y-96005725D01*
X58341377Y-95998333D01*
X58370688Y-95992415D01*
X58400279Y-95987945D01*
X58430048Y-95984973D01*
X58459919Y-95983474D01*
X58489840Y-95983474D01*
X58519710Y-95984973D01*
G36*
X58519710Y-95984973D02*
G01*
X58549479Y-95987945D01*
X58579070Y-95992415D01*
X58608382Y-95998333D01*
X58637389Y-96005725D01*
X58665964Y-96014539D01*
X58694082Y-96024775D01*
X58721641Y-96036383D01*
X58748616Y-96049362D01*
X58774879Y-96063688D01*
X58800406Y-96079283D01*
X58825121Y-96096124D01*
X58848971Y-96114208D01*
X58871882Y-96133436D01*
X58893828Y-96153782D01*
X58914707Y-96175194D01*
X58934519Y-96197622D01*
X58953162Y-96221016D01*
X58970612Y-96245298D01*
X58986843Y-96270444D01*
X59001803Y-96296352D01*
X59015469Y-96322971D01*
X59027762Y-96350226D01*
X59038684Y-96378090D01*
X59048235Y-96406436D01*
X59056337Y-96435240D01*
X59062992Y-96464399D01*
X59068174Y-96493863D01*
X59071908Y-96523556D01*
X59074143Y-96553401D01*
X59074879Y-96583297D01*
X59074879Y-97383297D01*
X59074143Y-97413192D01*
X59071908Y-97443038D01*
X59068174Y-97472730D01*
X59062992Y-97502194D01*
X59056337Y-97531353D01*
X59048235Y-97560157D01*
X59038684Y-97588504D01*
X59027762Y-97616367D01*
X59015469Y-97643622D01*
X59001803Y-97670241D01*
X58986843Y-97696149D01*
X58970612Y-97721295D01*
X58953162Y-97745578D01*
X58934519Y-97768971D01*
X58914707Y-97791399D01*
X58893828Y-97812811D01*
X58871882Y-97833157D01*
X58848971Y-97852385D01*
X58825121Y-97870470D01*
X58800406Y-97887310D01*
X58774879Y-97902905D01*
X58748616Y-97917231D01*
X58721641Y-97930210D01*
X58694082Y-97941818D01*
X58665964Y-97952055D01*
X58637389Y-97960868D01*
X58608382Y-97968260D01*
X58579070Y-97974178D01*
X58549479Y-97978648D01*
X58519710Y-97981620D01*
X58489840Y-97983119D01*
X58459919Y-97983119D01*
X58430048Y-97981620D01*
X58400279Y-97978648D01*
X58370688Y-97974178D01*
X58341377Y-97968260D01*
X58312370Y-97960868D01*
X58283795Y-97952055D01*
X58255677Y-97941818D01*
X58228118Y-97930210D01*
X58201143Y-97917231D01*
X58174879Y-97902905D01*
X58149352Y-97887310D01*
X58124638Y-97870470D01*
X58100787Y-97852385D01*
X58077877Y-97833157D01*
X58055931Y-97812811D01*
X58035052Y-97791399D01*
X58015240Y-97768971D01*
X57996596Y-97745578D01*
X57979147Y-97721295D01*
X57962916Y-97696149D01*
X57947955Y-97670241D01*
X57934290Y-97643622D01*
X57921996Y-97616367D01*
X57911074Y-97588504D01*
X57901524Y-97560157D01*
X57893421Y-97531353D01*
X57886767Y-97502194D01*
X57881585Y-97472730D01*
X57877851Y-97443038D01*
X57875616Y-97413192D01*
X57874879Y-97383297D01*
X57874879Y-96583297D01*
X57875616Y-96553401D01*
X57877851Y-96523556D01*
X57881585Y-96493863D01*
X57886767Y-96464399D01*
X57893421Y-96435240D01*
X57901524Y-96406436D01*
X57911074Y-96378090D01*
X57921996Y-96350226D01*
X57934290Y-96322971D01*
X57947955Y-96296352D01*
X57962916Y-96270444D01*
X57979147Y-96245298D01*
X57996596Y-96221016D01*
X58015240Y-96197622D01*
X58035052Y-96175194D01*
X58055931Y-96153782D01*
X58077877Y-96133436D01*
X58100787Y-96114208D01*
X58124638Y-96096124D01*
X58149352Y-96079283D01*
X58174879Y-96063688D01*
X58201143Y-96049362D01*
X58228118Y-96036383D01*
X58255677Y-96024775D01*
X58283795Y-96014539D01*
X58312370Y-96005725D01*
X58341377Y-95998333D01*
X58370688Y-95992415D01*
X58400279Y-95987945D01*
X58430048Y-95984973D01*
X58459919Y-95983474D01*
X58489840Y-95983474D01*
X58519710Y-95984973D01*
G37*
X58519710Y-100264882D02*
X58549479Y-100267853D01*
X58579070Y-100272324D01*
X58608382Y-100278242D01*
X58637389Y-100285633D01*
X58665964Y-100294447D01*
X58694082Y-100304683D01*
X58721641Y-100316291D01*
X58748616Y-100329271D01*
X58774879Y-100343596D01*
X58800406Y-100359192D01*
X58825121Y-100376032D01*
X58848971Y-100394117D01*
X58871882Y-100413345D01*
X58893828Y-100433690D01*
X58914707Y-100455103D01*
X58934519Y-100477531D01*
X58953162Y-100500924D01*
X58970612Y-100525207D01*
X58986843Y-100550353D01*
X59001803Y-100576261D01*
X59015469Y-100602880D01*
X59027762Y-100630134D01*
X59038684Y-100657998D01*
X59048235Y-100686345D01*
X59056337Y-100715148D01*
X59062992Y-100744308D01*
X59068174Y-100773772D01*
X59071908Y-100803464D01*
X59074143Y-100833309D01*
X59074879Y-100863205D01*
X59074879Y-101463205D01*
X59074143Y-101493101D01*
X59071908Y-101522946D01*
X59068174Y-101552639D01*
X59062992Y-101582103D01*
X59056337Y-101611262D01*
X59048235Y-101640066D01*
X59038684Y-101668412D01*
X59027762Y-101696276D01*
X59015469Y-101723530D01*
X59001803Y-101750150D01*
X58986843Y-101776058D01*
X58970612Y-101801204D01*
X58953162Y-101825486D01*
X58934519Y-101848880D01*
X58914707Y-101871308D01*
X58893828Y-101892720D01*
X58871882Y-101913065D01*
X58848971Y-101932293D01*
X58825121Y-101950378D01*
X58800406Y-101967218D01*
X58774879Y-101982814D01*
X58748616Y-101997140D01*
X58721641Y-102010119D01*
X58694082Y-102021727D01*
X58665964Y-102031963D01*
X58637389Y-102040777D01*
X58608382Y-102048168D01*
X58579070Y-102054087D01*
X58549479Y-102058557D01*
X58519710Y-102061529D01*
X58489840Y-102063027D01*
X58459919Y-102063027D01*
X58430048Y-102061529D01*
X58400279Y-102058557D01*
X58370688Y-102054087D01*
X58341377Y-102048168D01*
X58312370Y-102040777D01*
X58283795Y-102031963D01*
X58255677Y-102021727D01*
X58228118Y-102010119D01*
X58201143Y-101997140D01*
X58174879Y-101982814D01*
X58149352Y-101967218D01*
X58124638Y-101950378D01*
X58100787Y-101932293D01*
X58077877Y-101913065D01*
X58055931Y-101892720D01*
X58035052Y-101871308D01*
X58015240Y-101848880D01*
X57996596Y-101825486D01*
X57979147Y-101801204D01*
X57962916Y-101776058D01*
X57947955Y-101750150D01*
X57934290Y-101723530D01*
X57921996Y-101696276D01*
X57911074Y-101668412D01*
X57901524Y-101640066D01*
X57893421Y-101611262D01*
X57886767Y-101582103D01*
X57881585Y-101552639D01*
X57877851Y-101522946D01*
X57875616Y-101493101D01*
X57874879Y-101463205D01*
X57874879Y-100863205D01*
X57875616Y-100833309D01*
X57877851Y-100803464D01*
X57881585Y-100773772D01*
X57886767Y-100744308D01*
X57893421Y-100715148D01*
X57901524Y-100686345D01*
X57911074Y-100657998D01*
X57921996Y-100630134D01*
X57934290Y-100602880D01*
X57947955Y-100576261D01*
X57962916Y-100550353D01*
X57979147Y-100525207D01*
X57996596Y-100500924D01*
X58015240Y-100477531D01*
X58035052Y-100455103D01*
X58055931Y-100433690D01*
X58077877Y-100413345D01*
X58100787Y-100394117D01*
X58124638Y-100376032D01*
X58149352Y-100359192D01*
X58174879Y-100343596D01*
X58201143Y-100329271D01*
X58228118Y-100316291D01*
X58255677Y-100304683D01*
X58283795Y-100294447D01*
X58312370Y-100285633D01*
X58341377Y-100278242D01*
X58370688Y-100272324D01*
X58400279Y-100267853D01*
X58430048Y-100264882D01*
X58459919Y-100263383D01*
X58489840Y-100263383D01*
X58519710Y-100264882D01*
G36*
X58519710Y-100264882D02*
G01*
X58549479Y-100267853D01*
X58579070Y-100272324D01*
X58608382Y-100278242D01*
X58637389Y-100285633D01*
X58665964Y-100294447D01*
X58694082Y-100304683D01*
X58721641Y-100316291D01*
X58748616Y-100329271D01*
X58774879Y-100343596D01*
X58800406Y-100359192D01*
X58825121Y-100376032D01*
X58848971Y-100394117D01*
X58871882Y-100413345D01*
X58893828Y-100433690D01*
X58914707Y-100455103D01*
X58934519Y-100477531D01*
X58953162Y-100500924D01*
X58970612Y-100525207D01*
X58986843Y-100550353D01*
X59001803Y-100576261D01*
X59015469Y-100602880D01*
X59027762Y-100630134D01*
X59038684Y-100657998D01*
X59048235Y-100686345D01*
X59056337Y-100715148D01*
X59062992Y-100744308D01*
X59068174Y-100773772D01*
X59071908Y-100803464D01*
X59074143Y-100833309D01*
X59074879Y-100863205D01*
X59074879Y-101463205D01*
X59074143Y-101493101D01*
X59071908Y-101522946D01*
X59068174Y-101552639D01*
X59062992Y-101582103D01*
X59056337Y-101611262D01*
X59048235Y-101640066D01*
X59038684Y-101668412D01*
X59027762Y-101696276D01*
X59015469Y-101723530D01*
X59001803Y-101750150D01*
X58986843Y-101776058D01*
X58970612Y-101801204D01*
X58953162Y-101825486D01*
X58934519Y-101848880D01*
X58914707Y-101871308D01*
X58893828Y-101892720D01*
X58871882Y-101913065D01*
X58848971Y-101932293D01*
X58825121Y-101950378D01*
X58800406Y-101967218D01*
X58774879Y-101982814D01*
X58748616Y-101997140D01*
X58721641Y-102010119D01*
X58694082Y-102021727D01*
X58665964Y-102031963D01*
X58637389Y-102040777D01*
X58608382Y-102048168D01*
X58579070Y-102054087D01*
X58549479Y-102058557D01*
X58519710Y-102061529D01*
X58489840Y-102063027D01*
X58459919Y-102063027D01*
X58430048Y-102061529D01*
X58400279Y-102058557D01*
X58370688Y-102054087D01*
X58341377Y-102048168D01*
X58312370Y-102040777D01*
X58283795Y-102031963D01*
X58255677Y-102021727D01*
X58228118Y-102010119D01*
X58201143Y-101997140D01*
X58174879Y-101982814D01*
X58149352Y-101967218D01*
X58124638Y-101950378D01*
X58100787Y-101932293D01*
X58077877Y-101913065D01*
X58055931Y-101892720D01*
X58035052Y-101871308D01*
X58015240Y-101848880D01*
X57996596Y-101825486D01*
X57979147Y-101801204D01*
X57962916Y-101776058D01*
X57947955Y-101750150D01*
X57934290Y-101723530D01*
X57921996Y-101696276D01*
X57911074Y-101668412D01*
X57901524Y-101640066D01*
X57893421Y-101611262D01*
X57886767Y-101582103D01*
X57881585Y-101552639D01*
X57877851Y-101522946D01*
X57875616Y-101493101D01*
X57874879Y-101463205D01*
X57874879Y-100863205D01*
X57875616Y-100833309D01*
X57877851Y-100803464D01*
X57881585Y-100773772D01*
X57886767Y-100744308D01*
X57893421Y-100715148D01*
X57901524Y-100686345D01*
X57911074Y-100657998D01*
X57921996Y-100630134D01*
X57934290Y-100602880D01*
X57947955Y-100576261D01*
X57962916Y-100550353D01*
X57979147Y-100525207D01*
X57996596Y-100500924D01*
X58015240Y-100477531D01*
X58035052Y-100455103D01*
X58055931Y-100433690D01*
X58077877Y-100413345D01*
X58100787Y-100394117D01*
X58124638Y-100376032D01*
X58149352Y-100359192D01*
X58174879Y-100343596D01*
X58201143Y-100329271D01*
X58228118Y-100316291D01*
X58255677Y-100304683D01*
X58283795Y-100294447D01*
X58312370Y-100285633D01*
X58341377Y-100278242D01*
X58370688Y-100272324D01*
X58400279Y-100267853D01*
X58430048Y-100264882D01*
X58459919Y-100263383D01*
X58489840Y-100263383D01*
X58519710Y-100264882D01*
G37*
X66300025Y-96865034D02*
X66000025Y-96865034D01*
X66000000Y-96865034D01*
X65700000Y-96865034D01*
X65700000Y-95565059D01*
X66000000Y-95565059D01*
X66000025Y-95565059D01*
X66300025Y-95565059D01*
X66300025Y-96865034D01*
G36*
X66300025Y-96865034D02*
G01*
X66000025Y-96865034D01*
X66000000Y-96865034D01*
X65700000Y-96865034D01*
X65700000Y-95565059D01*
X66000000Y-95565059D01*
X66000025Y-95565059D01*
X66300025Y-95565059D01*
X66300025Y-96865034D01*
G37*
X65500178Y-96864831D02*
X65200178Y-96864831D01*
X65200152Y-96864831D01*
X64900152Y-96864831D01*
X64900152Y-95564856D01*
X65200152Y-95564856D01*
X65200178Y-95564856D01*
X65500178Y-95564856D01*
X65500178Y-96864831D01*
G36*
X65500178Y-96864831D02*
G01*
X65200178Y-96864831D01*
X65200152Y-96864831D01*
X64900152Y-96864831D01*
X64900152Y-95564856D01*
X65200152Y-95564856D01*
X65200178Y-95564856D01*
X65500178Y-95564856D01*
X65500178Y-96864831D01*
G37*
X60700025Y-96864983D02*
X60400076Y-96864983D01*
X60400076Y-96865009D01*
X60100051Y-96865009D01*
X60100051Y-95565034D01*
X60400000Y-95565034D01*
X60400000Y-95565009D01*
X60700025Y-95565009D01*
X60700025Y-96864983D01*
G36*
X60700025Y-96864983D02*
G01*
X60400076Y-96864983D01*
X60400076Y-96865009D01*
X60100051Y-96865009D01*
X60100051Y-95565034D01*
X60400000Y-95565034D01*
X60400000Y-95565009D01*
X60700025Y-95565009D01*
X60700025Y-96864983D01*
G37*
X59900025Y-96864882D02*
X59600051Y-96864882D01*
X59600051Y-96865034D01*
X59300051Y-96865034D01*
X59300051Y-95565009D01*
X59600025Y-95565009D01*
X59600025Y-95564856D01*
X59900025Y-95564856D01*
X59900025Y-96864882D01*
G36*
X59900025Y-96864882D02*
G01*
X59600051Y-96864882D01*
X59600051Y-96865034D01*
X59300051Y-96865034D01*
X59300051Y-95565009D01*
X59600025Y-95565009D01*
X59600025Y-95564856D01*
X59900025Y-95564856D01*
X59900025Y-96864882D01*
G37*
X64700076Y-96864907D02*
X64400076Y-96864907D01*
X64400076Y-95564882D01*
X64700076Y-95564882D01*
X64700076Y-96864907D01*
G36*
X64700076Y-96864907D02*
G01*
X64400076Y-96864907D01*
X64400076Y-95564882D01*
X64700076Y-95564882D01*
X64700076Y-96864907D01*
G37*
X64199695Y-96864907D02*
X63899695Y-96864907D01*
X63899695Y-95564882D01*
X64199695Y-95564882D01*
X64199695Y-96864907D01*
G36*
X64199695Y-96864907D02*
G01*
X63899695Y-96864907D01*
X63899695Y-95564882D01*
X64199695Y-95564882D01*
X64199695Y-96864907D01*
G37*
X63700076Y-96864907D02*
X63400076Y-96864907D01*
X63400076Y-95564882D01*
X63700076Y-95564882D01*
X63700076Y-96864907D01*
G36*
X63700076Y-96864907D02*
G01*
X63400076Y-96864907D01*
X63400076Y-95564882D01*
X63700076Y-95564882D01*
X63700076Y-96864907D01*
G37*
X63199949Y-96864882D02*
X62899949Y-96864882D01*
X62899949Y-95564856D01*
X63199949Y-95564856D01*
X63199949Y-96864882D01*
G36*
X63199949Y-96864882D02*
G01*
X62899949Y-96864882D01*
X62899949Y-95564856D01*
X63199949Y-95564856D01*
X63199949Y-96864882D01*
G37*
X62700076Y-96864907D02*
X62400076Y-96864907D01*
X62400076Y-95564882D01*
X62700076Y-95564882D01*
X62700076Y-96864907D01*
G36*
X62700076Y-96864907D02*
G01*
X62400076Y-96864907D01*
X62400076Y-95564882D01*
X62700076Y-95564882D01*
X62700076Y-96864907D01*
G37*
X62199949Y-96864882D02*
X61899949Y-96864882D01*
X61899949Y-95564856D01*
X62199949Y-95564856D01*
X62199949Y-96864882D01*
G36*
X62199949Y-96864882D02*
G01*
X61899949Y-96864882D01*
X61899949Y-95564856D01*
X62199949Y-95564856D01*
X62199949Y-96864882D01*
G37*
X61700076Y-96864907D02*
X61400076Y-96864907D01*
X61400076Y-95564882D01*
X61700076Y-95564882D01*
X61700076Y-96864907D01*
G36*
X61700076Y-96864907D02*
G01*
X61400076Y-96864907D01*
X61400076Y-95564882D01*
X61700076Y-95564882D01*
X61700076Y-96864907D01*
G37*
X61199949Y-96864907D02*
X60899949Y-96864907D01*
X60899949Y-95564882D01*
X61199949Y-95564882D01*
X61199949Y-96864907D01*
G36*
X61199949Y-96864907D02*
G01*
X60899949Y-96864907D01*
X60899949Y-95564882D01*
X61199949Y-95564882D01*
X61199949Y-96864907D01*
G37*
%TO.C,R20*%
X111586361Y-72858344D02*
X111586361Y-73658344D01*
X111536373Y-73708357D01*
X111294336Y-73708357D01*
X111294336Y-73338355D01*
X110964339Y-73338355D01*
X110964339Y-73708357D01*
X110736373Y-73708357D01*
X110686361Y-73658344D01*
X110686361Y-72858344D01*
X110736373Y-72808357D01*
X111536373Y-72808357D01*
X111586361Y-72858344D01*
G36*
X111586361Y-72858344D02*
G01*
X111586361Y-73658344D01*
X111536373Y-73708357D01*
X111294336Y-73708357D01*
X111294336Y-73338355D01*
X110964339Y-73338355D01*
X110964339Y-73708357D01*
X110736373Y-73708357D01*
X110686361Y-73658344D01*
X110686361Y-72858344D01*
X110736373Y-72808357D01*
X111536373Y-72808357D01*
X111586361Y-72858344D01*
G37*
X110978360Y-74768377D02*
X111308357Y-74768377D01*
X111308357Y-74398375D01*
X111536323Y-74398375D01*
X111586335Y-74448388D01*
X111586335Y-75248388D01*
X111536323Y-75298375D01*
X110736323Y-75298375D01*
X110686335Y-75248388D01*
X110686335Y-74448388D01*
X110736323Y-74398375D01*
X110978360Y-74398375D01*
X110978360Y-74768377D01*
G36*
X110978360Y-74768377D02*
G01*
X111308357Y-74768377D01*
X111308357Y-74398375D01*
X111536323Y-74398375D01*
X111586335Y-74448388D01*
X111586335Y-75248388D01*
X111536323Y-75298375D01*
X110736323Y-75298375D01*
X110686335Y-75248388D01*
X110686335Y-74448388D01*
X110736323Y-74398375D01*
X110978360Y-74398375D01*
X110978360Y-74768377D01*
G37*
%TO.C,R10*%
X112742012Y-67615011D02*
X113072009Y-67615011D01*
X113072009Y-67245009D01*
X113299975Y-67245009D01*
X113349987Y-67295022D01*
X113349987Y-68095022D01*
X113299975Y-68145009D01*
X112499975Y-68145009D01*
X112449987Y-68095022D01*
X112449987Y-67295022D01*
X112499975Y-67245009D01*
X112742012Y-67245009D01*
X112742012Y-67615011D01*
G36*
X112742012Y-67615011D02*
G01*
X113072009Y-67615011D01*
X113072009Y-67245009D01*
X113299975Y-67245009D01*
X113349987Y-67295022D01*
X113349987Y-68095022D01*
X113299975Y-68145009D01*
X112499975Y-68145009D01*
X112449987Y-68095022D01*
X112449987Y-67295022D01*
X112499975Y-67245009D01*
X112742012Y-67245009D01*
X112742012Y-67615011D01*
G37*
X113350013Y-65704978D02*
X113350013Y-66504978D01*
X113300025Y-66554991D01*
X113057988Y-66554991D01*
X113057988Y-66184989D01*
X112727991Y-66184989D01*
X112727991Y-66554991D01*
X112500025Y-66554991D01*
X112450013Y-66504978D01*
X112450013Y-65704978D01*
X112500025Y-65654991D01*
X113300025Y-65654991D01*
X113350013Y-65704978D01*
G36*
X113350013Y-65704978D02*
G01*
X113350013Y-66504978D01*
X113300025Y-66554991D01*
X113057988Y-66554991D01*
X113057988Y-66184989D01*
X112727991Y-66184989D01*
X112727991Y-66554991D01*
X112500025Y-66554991D01*
X112450013Y-66504978D01*
X112450013Y-65704978D01*
X112500025Y-65654991D01*
X113300025Y-65654991D01*
X113350013Y-65704978D01*
G37*
%TO.C,R16*%
X117450013Y-66058344D02*
X117450013Y-66858344D01*
X117400025Y-66908357D01*
X117157988Y-66908357D01*
X117157988Y-66538355D01*
X116827991Y-66538355D01*
X116827991Y-66908357D01*
X116600025Y-66908357D01*
X116550013Y-66858344D01*
X116550013Y-66058344D01*
X116600025Y-66008357D01*
X117400025Y-66008357D01*
X117450013Y-66058344D01*
G36*
X117450013Y-66058344D02*
G01*
X117450013Y-66858344D01*
X117400025Y-66908357D01*
X117157988Y-66908357D01*
X117157988Y-66538355D01*
X116827991Y-66538355D01*
X116827991Y-66908357D01*
X116600025Y-66908357D01*
X116550013Y-66858344D01*
X116550013Y-66058344D01*
X116600025Y-66008357D01*
X117400025Y-66008357D01*
X117450013Y-66058344D01*
G37*
X116842012Y-67968377D02*
X117172009Y-67968377D01*
X117172009Y-67598375D01*
X117399975Y-67598375D01*
X117449987Y-67648388D01*
X117449987Y-68448388D01*
X117399975Y-68498375D01*
X116599975Y-68498375D01*
X116549987Y-68448388D01*
X116549987Y-67648388D01*
X116599975Y-67598375D01*
X116842012Y-67598375D01*
X116842012Y-67968377D01*
G36*
X116842012Y-67968377D02*
G01*
X117172009Y-67968377D01*
X117172009Y-67598375D01*
X117399975Y-67598375D01*
X117449987Y-67648388D01*
X117449987Y-68448388D01*
X117399975Y-68498375D01*
X116599975Y-68498375D01*
X116549987Y-68448388D01*
X116549987Y-67648388D01*
X116599975Y-67598375D01*
X116842012Y-67598375D01*
X116842012Y-67968377D01*
G37*
%TO.C,R14*%
X115850013Y-72858344D02*
X115850013Y-73658344D01*
X115800025Y-73708357D01*
X115557988Y-73708357D01*
X115557988Y-73338355D01*
X115227991Y-73338355D01*
X115227991Y-73708357D01*
X115000025Y-73708357D01*
X114950013Y-73658344D01*
X114950013Y-72858344D01*
X115000025Y-72808357D01*
X115800025Y-72808357D01*
X115850013Y-72858344D01*
G36*
X115850013Y-72858344D02*
G01*
X115850013Y-73658344D01*
X115800025Y-73708357D01*
X115557988Y-73708357D01*
X115557988Y-73338355D01*
X115227991Y-73338355D01*
X115227991Y-73708357D01*
X115000025Y-73708357D01*
X114950013Y-73658344D01*
X114950013Y-72858344D01*
X115000025Y-72808357D01*
X115800025Y-72808357D01*
X115850013Y-72858344D01*
G37*
X115242012Y-74768377D02*
X115572009Y-74768377D01*
X115572009Y-74398375D01*
X115799975Y-74398375D01*
X115849987Y-74448388D01*
X115849987Y-75248388D01*
X115799975Y-75298375D01*
X114999975Y-75298375D01*
X114949987Y-75248388D01*
X114949987Y-74448388D01*
X114999975Y-74398375D01*
X115242012Y-74398375D01*
X115242012Y-74768377D01*
G36*
X115242012Y-74768377D02*
G01*
X115572009Y-74768377D01*
X115572009Y-74398375D01*
X115799975Y-74398375D01*
X115849987Y-74448388D01*
X115849987Y-75248388D01*
X115799975Y-75298375D01*
X114999975Y-75298375D01*
X114949987Y-75248388D01*
X114949987Y-74448388D01*
X114999975Y-74398375D01*
X115242012Y-74398375D01*
X115242012Y-74768377D01*
G37*
%TO.C,R11*%
X115850013Y-66058344D02*
X115850013Y-66858344D01*
X115800025Y-66908357D01*
X115557988Y-66908357D01*
X115557988Y-66538355D01*
X115227991Y-66538355D01*
X115227991Y-66908357D01*
X115000025Y-66908357D01*
X114950013Y-66858344D01*
X114950013Y-66058344D01*
X115000025Y-66008357D01*
X115800025Y-66008357D01*
X115850013Y-66058344D01*
G36*
X115850013Y-66058344D02*
G01*
X115850013Y-66858344D01*
X115800025Y-66908357D01*
X115557988Y-66908357D01*
X115557988Y-66538355D01*
X115227991Y-66538355D01*
X115227991Y-66908357D01*
X115000025Y-66908357D01*
X114950013Y-66858344D01*
X114950013Y-66058344D01*
X115000025Y-66008357D01*
X115800025Y-66008357D01*
X115850013Y-66058344D01*
G37*
X115242012Y-67968377D02*
X115572009Y-67968377D01*
X115572009Y-67598375D01*
X115799975Y-67598375D01*
X115849987Y-67648388D01*
X115849987Y-68448388D01*
X115799975Y-68498375D01*
X114999975Y-68498375D01*
X114949987Y-68448388D01*
X114949987Y-67648388D01*
X114999975Y-67598375D01*
X115242012Y-67598375D01*
X115242012Y-67968377D01*
G36*
X115242012Y-67968377D02*
G01*
X115572009Y-67968377D01*
X115572009Y-67598375D01*
X115799975Y-67598375D01*
X115849987Y-67648388D01*
X115849987Y-68448388D01*
X115799975Y-68498375D01*
X114999975Y-68498375D01*
X114949987Y-68448388D01*
X114949987Y-67648388D01*
X114999975Y-67598375D01*
X115242012Y-67598375D01*
X115242012Y-67968377D01*
G37*
%TO.C,R18*%
X117450013Y-69604978D02*
X117450013Y-70404978D01*
X117400025Y-70454991D01*
X117157988Y-70454991D01*
X117157988Y-70084989D01*
X116827991Y-70084989D01*
X116827991Y-70454991D01*
X116600025Y-70454991D01*
X116550013Y-70404978D01*
X116550013Y-69604978D01*
X116600025Y-69554991D01*
X117400025Y-69554991D01*
X117450013Y-69604978D01*
G36*
X117450013Y-69604978D02*
G01*
X117450013Y-70404978D01*
X117400025Y-70454991D01*
X117157988Y-70454991D01*
X117157988Y-70084989D01*
X116827991Y-70084989D01*
X116827991Y-70454991D01*
X116600025Y-70454991D01*
X116550013Y-70404978D01*
X116550013Y-69604978D01*
X116600025Y-69554991D01*
X117400025Y-69554991D01*
X117450013Y-69604978D01*
G37*
X116842012Y-71515011D02*
X117172009Y-71515011D01*
X117172009Y-71145009D01*
X117399975Y-71145009D01*
X117449987Y-71195022D01*
X117449987Y-71995022D01*
X117399975Y-72045009D01*
X116599975Y-72045009D01*
X116549987Y-71995022D01*
X116549987Y-71195022D01*
X116599975Y-71145009D01*
X116842012Y-71145009D01*
X116842012Y-71515011D01*
G36*
X116842012Y-71515011D02*
G01*
X117172009Y-71515011D01*
X117172009Y-71145009D01*
X117399975Y-71145009D01*
X117449987Y-71195022D01*
X117449987Y-71995022D01*
X117399975Y-72045009D01*
X116599975Y-72045009D01*
X116549987Y-71995022D01*
X116549987Y-71195022D01*
X116599975Y-71145009D01*
X116842012Y-71145009D01*
X116842012Y-71515011D01*
G37*
%TO.C,R7*%
X99142012Y-68561645D02*
X99472009Y-68561645D01*
X99472009Y-68191643D01*
X99699975Y-68191643D01*
X99749987Y-68241656D01*
X99749987Y-69041656D01*
X99699975Y-69091643D01*
X98899975Y-69091643D01*
X98849987Y-69041656D01*
X98849987Y-68241656D01*
X98899975Y-68191643D01*
X99142012Y-68191643D01*
X99142012Y-68561645D01*
G36*
X99142012Y-68561645D02*
G01*
X99472009Y-68561645D01*
X99472009Y-68191643D01*
X99699975Y-68191643D01*
X99749987Y-68241656D01*
X99749987Y-69041656D01*
X99699975Y-69091643D01*
X98899975Y-69091643D01*
X98849987Y-69041656D01*
X98849987Y-68241656D01*
X98899975Y-68191643D01*
X99142012Y-68191643D01*
X99142012Y-68561645D01*
G37*
X99750013Y-66651612D02*
X99750013Y-67451612D01*
X99700025Y-67501625D01*
X99457988Y-67501625D01*
X99457988Y-67131623D01*
X99127991Y-67131623D01*
X99127991Y-67501625D01*
X98900025Y-67501625D01*
X98850013Y-67451612D01*
X98850013Y-66651612D01*
X98900025Y-66601625D01*
X99700025Y-66601625D01*
X99750013Y-66651612D01*
G36*
X99750013Y-66651612D02*
G01*
X99750013Y-67451612D01*
X99700025Y-67501625D01*
X99457988Y-67501625D01*
X99457988Y-67131623D01*
X99127991Y-67131623D01*
X99127991Y-67501625D01*
X98900025Y-67501625D01*
X98850013Y-67451612D01*
X98850013Y-66651612D01*
X98900025Y-66601625D01*
X99700025Y-66601625D01*
X99750013Y-66651612D01*
G37*
%TO.C,R2*%
X64650013Y-92351612D02*
X64650013Y-93151612D01*
X64600025Y-93201625D01*
X64357988Y-93201625D01*
X64357988Y-92831623D01*
X64027991Y-92831623D01*
X64027991Y-93201625D01*
X63800025Y-93201625D01*
X63750013Y-93151612D01*
X63750013Y-92351612D01*
X63800025Y-92301625D01*
X64600025Y-92301625D01*
X64650013Y-92351612D01*
G36*
X64650013Y-92351612D02*
G01*
X64650013Y-93151612D01*
X64600025Y-93201625D01*
X64357988Y-93201625D01*
X64357988Y-92831623D01*
X64027991Y-92831623D01*
X64027991Y-93201625D01*
X63800025Y-93201625D01*
X63750013Y-93151612D01*
X63750013Y-92351612D01*
X63800025Y-92301625D01*
X64600025Y-92301625D01*
X64650013Y-92351612D01*
G37*
X64042012Y-94261645D02*
X64372009Y-94261645D01*
X64372009Y-93891643D01*
X64599975Y-93891643D01*
X64649987Y-93941656D01*
X64649987Y-94741656D01*
X64599975Y-94791643D01*
X63799975Y-94791643D01*
X63749987Y-94741656D01*
X63749987Y-93941656D01*
X63799975Y-93891643D01*
X64042012Y-93891643D01*
X64042012Y-94261645D01*
G36*
X64042012Y-94261645D02*
G01*
X64372009Y-94261645D01*
X64372009Y-93891643D01*
X64599975Y-93891643D01*
X64649987Y-93941656D01*
X64649987Y-94741656D01*
X64599975Y-94791643D01*
X63799975Y-94791643D01*
X63749987Y-94741656D01*
X63749987Y-93941656D01*
X63799975Y-93891643D01*
X64042012Y-93891643D01*
X64042012Y-94261645D01*
G37*
%TO.C,C12*%
X83249987Y-36535992D02*
X83249987Y-36906248D01*
X83149987Y-37006248D01*
X82845085Y-37006248D01*
X82745085Y-37106248D01*
X82745085Y-37493752D01*
X82845085Y-37593752D01*
X83149987Y-37593752D01*
X83249987Y-37693752D01*
X83249987Y-38064008D01*
X83149987Y-38164008D01*
X81864999Y-38164008D01*
X81764999Y-38064008D01*
X81764999Y-36535992D01*
X81864999Y-36435992D01*
X83149987Y-36435992D01*
X83249987Y-36535992D01*
G36*
X83249987Y-36535992D02*
G01*
X83249987Y-36906248D01*
X83149987Y-37006248D01*
X82845085Y-37006248D01*
X82745085Y-37106248D01*
X82745085Y-37493752D01*
X82845085Y-37593752D01*
X83149987Y-37593752D01*
X83249987Y-37693752D01*
X83249987Y-38064008D01*
X83149987Y-38164008D01*
X81864999Y-38164008D01*
X81764999Y-38064008D01*
X81764999Y-36535992D01*
X81864999Y-36435992D01*
X83149987Y-36435992D01*
X83249987Y-36535992D01*
G37*
X86435001Y-36535992D02*
X86435001Y-38064008D01*
X86335001Y-38164008D01*
X85050013Y-38164008D01*
X84950013Y-38064008D01*
X84950013Y-37693752D01*
X85050013Y-37593752D01*
X85354915Y-37593752D01*
X85454915Y-37493752D01*
X85454915Y-37106248D01*
X85354915Y-37006248D01*
X85050013Y-37006248D01*
X84950013Y-36906248D01*
X84950013Y-36535992D01*
X85050013Y-36435992D01*
X86335001Y-36435992D01*
X86435001Y-36535992D01*
G36*
X86435001Y-36535992D02*
G01*
X86435001Y-38064008D01*
X86335001Y-38164008D01*
X85050013Y-38164008D01*
X84950013Y-38064008D01*
X84950013Y-37693752D01*
X85050013Y-37593752D01*
X85354915Y-37593752D01*
X85454915Y-37493752D01*
X85454915Y-37106248D01*
X85354915Y-37006248D01*
X85050013Y-37006248D01*
X84950013Y-36906248D01*
X84950013Y-36535992D01*
X85050013Y-36435992D01*
X86335001Y-36435992D01*
X86435001Y-36535992D01*
G37*
%TO.C,R4*%
X99698375Y-69700025D02*
X99698375Y-70500025D01*
X99648388Y-70550013D01*
X98848388Y-70550013D01*
X98798375Y-70500025D01*
X98798375Y-70257988D01*
X99168377Y-70257988D01*
X99168377Y-69927991D01*
X98798375Y-69927991D01*
X98798375Y-69700025D01*
X98848388Y-69650013D01*
X99648388Y-69650013D01*
X99698375Y-69700025D01*
G36*
X99698375Y-69700025D02*
G01*
X99698375Y-70500025D01*
X99648388Y-70550013D01*
X98848388Y-70550013D01*
X98798375Y-70500025D01*
X98798375Y-70257988D01*
X99168377Y-70257988D01*
X99168377Y-69927991D01*
X98798375Y-69927991D01*
X98798375Y-69700025D01*
X98848388Y-69650013D01*
X99648388Y-69650013D01*
X99698375Y-69700025D01*
G37*
X98108357Y-69699975D02*
X98108357Y-69942012D01*
X97738355Y-69942012D01*
X97738355Y-70272009D01*
X98108357Y-70272009D01*
X98108357Y-70499975D01*
X98058344Y-70549987D01*
X97258344Y-70549987D01*
X97208357Y-70499975D01*
X97208357Y-69699975D01*
X97258344Y-69649987D01*
X98058344Y-69649987D01*
X98108357Y-69699975D01*
G36*
X98108357Y-69699975D02*
G01*
X98108357Y-69942012D01*
X97738355Y-69942012D01*
X97738355Y-70272009D01*
X98108357Y-70272009D01*
X98108357Y-70499975D01*
X98058344Y-70549987D01*
X97258344Y-70549987D01*
X97208357Y-70499975D01*
X97208357Y-69699975D01*
X97258344Y-69649987D01*
X98058344Y-69649987D01*
X98108357Y-69699975D01*
G37*
%TO.C,R17*%
X114050013Y-62251612D02*
X114050013Y-63051612D01*
X114000025Y-63101625D01*
X113757988Y-63101625D01*
X113757988Y-62731623D01*
X113427991Y-62731623D01*
X113427991Y-63101625D01*
X113200025Y-63101625D01*
X113150013Y-63051612D01*
X113150013Y-62251612D01*
X113200025Y-62201625D01*
X114000025Y-62201625D01*
X114050013Y-62251612D01*
G36*
X114050013Y-62251612D02*
G01*
X114050013Y-63051612D01*
X114000025Y-63101625D01*
X113757988Y-63101625D01*
X113757988Y-62731623D01*
X113427991Y-62731623D01*
X113427991Y-63101625D01*
X113200025Y-63101625D01*
X113150013Y-63051612D01*
X113150013Y-62251612D01*
X113200025Y-62201625D01*
X114000025Y-62201625D01*
X114050013Y-62251612D01*
G37*
X113442012Y-64161645D02*
X113772009Y-64161645D01*
X113772009Y-63791643D01*
X113999975Y-63791643D01*
X114049987Y-63841656D01*
X114049987Y-64641656D01*
X113999975Y-64691643D01*
X113199975Y-64691643D01*
X113149987Y-64641656D01*
X113149987Y-63841656D01*
X113199975Y-63791643D01*
X113442012Y-63791643D01*
X113442012Y-64161645D01*
G36*
X113442012Y-64161645D02*
G01*
X113772009Y-64161645D01*
X113772009Y-63791643D01*
X113999975Y-63791643D01*
X114049987Y-63841656D01*
X114049987Y-64641656D01*
X113999975Y-64691643D01*
X113199975Y-64691643D01*
X113149987Y-64641656D01*
X113149987Y-63841656D01*
X113199975Y-63791643D01*
X113442012Y-63791643D01*
X113442012Y-64161645D01*
G37*
%TO.C,R3*%
X115254991Y-60299975D02*
X115254991Y-60542012D01*
X114884989Y-60542012D01*
X114884989Y-60872009D01*
X115254991Y-60872009D01*
X115254991Y-61099975D01*
X115204978Y-61149987D01*
X114404978Y-61149987D01*
X114354991Y-61099975D01*
X114354991Y-60299975D01*
X114404978Y-60249987D01*
X115204978Y-60249987D01*
X115254991Y-60299975D01*
G36*
X115254991Y-60299975D02*
G01*
X115254991Y-60542012D01*
X114884989Y-60542012D01*
X114884989Y-60872009D01*
X115254991Y-60872009D01*
X115254991Y-61099975D01*
X115204978Y-61149987D01*
X114404978Y-61149987D01*
X114354991Y-61099975D01*
X114354991Y-60299975D01*
X114404978Y-60249987D01*
X115204978Y-60249987D01*
X115254991Y-60299975D01*
G37*
X116845009Y-60300025D02*
X116845009Y-61100025D01*
X116795022Y-61150013D01*
X115995022Y-61150013D01*
X115945009Y-61100025D01*
X115945009Y-60857988D01*
X116315011Y-60857988D01*
X116315011Y-60527991D01*
X115945009Y-60527991D01*
X115945009Y-60300025D01*
X115995022Y-60250013D01*
X116795022Y-60250013D01*
X116845009Y-60300025D01*
G36*
X116845009Y-60300025D02*
G01*
X116845009Y-61100025D01*
X116795022Y-61150013D01*
X115995022Y-61150013D01*
X115945009Y-61100025D01*
X115945009Y-60857988D01*
X116315011Y-60857988D01*
X116315011Y-60527991D01*
X115945009Y-60527991D01*
X115945009Y-60300025D01*
X115995022Y-60250013D01*
X116795022Y-60250013D01*
X116845009Y-60300025D01*
G37*
%TO.C,R19*%
X117450013Y-72858344D02*
X117450013Y-73658344D01*
X117400025Y-73708357D01*
X117157988Y-73708357D01*
X117157988Y-73338355D01*
X116827991Y-73338355D01*
X116827991Y-73708357D01*
X116600025Y-73708357D01*
X116550013Y-73658344D01*
X116550013Y-72858344D01*
X116600025Y-72808357D01*
X117400025Y-72808357D01*
X117450013Y-72858344D01*
G36*
X117450013Y-72858344D02*
G01*
X117450013Y-73658344D01*
X117400025Y-73708357D01*
X117157988Y-73708357D01*
X117157988Y-73338355D01*
X116827991Y-73338355D01*
X116827991Y-73708357D01*
X116600025Y-73708357D01*
X116550013Y-73658344D01*
X116550013Y-72858344D01*
X116600025Y-72808357D01*
X117400025Y-72808357D01*
X117450013Y-72858344D01*
G37*
X116842012Y-74768377D02*
X117172009Y-74768377D01*
X117172009Y-74398375D01*
X117399975Y-74398375D01*
X117449987Y-74448388D01*
X117449987Y-75248388D01*
X117399975Y-75298375D01*
X116599975Y-75298375D01*
X116549987Y-75248388D01*
X116549987Y-74448388D01*
X116599975Y-74398375D01*
X116842012Y-74398375D01*
X116842012Y-74768377D01*
G36*
X116842012Y-74768377D02*
G01*
X117172009Y-74768377D01*
X117172009Y-74398375D01*
X117399975Y-74398375D01*
X117449987Y-74448388D01*
X117449987Y-75248388D01*
X117399975Y-75298375D01*
X116599975Y-75298375D01*
X116549987Y-75248388D01*
X116549987Y-74448388D01*
X116599975Y-74398375D01*
X116842012Y-74398375D01*
X116842012Y-74768377D01*
G37*
%TO.C,R1*%
X61950013Y-92351612D02*
X61950013Y-93151612D01*
X61900025Y-93201625D01*
X61657988Y-93201625D01*
X61657988Y-92831623D01*
X61327991Y-92831623D01*
X61327991Y-93201625D01*
X61100025Y-93201625D01*
X61050013Y-93151612D01*
X61050013Y-92351612D01*
X61100025Y-92301625D01*
X61900025Y-92301625D01*
X61950013Y-92351612D01*
G36*
X61950013Y-92351612D02*
G01*
X61950013Y-93151612D01*
X61900025Y-93201625D01*
X61657988Y-93201625D01*
X61657988Y-92831623D01*
X61327991Y-92831623D01*
X61327991Y-93201625D01*
X61100025Y-93201625D01*
X61050013Y-93151612D01*
X61050013Y-92351612D01*
X61100025Y-92301625D01*
X61900025Y-92301625D01*
X61950013Y-92351612D01*
G37*
X61342012Y-94261645D02*
X61672009Y-94261645D01*
X61672009Y-93891643D01*
X61899975Y-93891643D01*
X61949987Y-93941656D01*
X61949987Y-94741656D01*
X61899975Y-94791643D01*
X61099975Y-94791643D01*
X61049987Y-94741656D01*
X61049987Y-93941656D01*
X61099975Y-93891643D01*
X61342012Y-93891643D01*
X61342012Y-94261645D01*
G36*
X61342012Y-94261645D02*
G01*
X61672009Y-94261645D01*
X61672009Y-93891643D01*
X61899975Y-93891643D01*
X61949987Y-93941656D01*
X61949987Y-94741656D01*
X61899975Y-94791643D01*
X61099975Y-94791643D01*
X61049987Y-94741656D01*
X61049987Y-93941656D01*
X61099975Y-93891643D01*
X61342012Y-93891643D01*
X61342012Y-94261645D01*
G37*
%TD*%
D11*
%TO.C,C17*%
X114899950Y-59000000D03*
X116300000Y-59000000D03*
%TD*%
D12*
%TO.C,C11*%
X112200000Y-62459766D03*
X112200000Y-63300000D03*
%TD*%
D13*
%TO.C,R9*%
X118400000Y-64100000D03*
X116893268Y-64100000D03*
%TD*%
D14*
%TO.C,U2*%
X120350012Y-58879908D03*
X120350012Y-60149911D03*
X120350012Y-61419913D03*
X120350012Y-62689916D03*
X120350012Y-63959918D03*
X120350012Y-65229921D03*
X120350012Y-66499923D03*
X120350012Y-67769926D03*
X120350012Y-69039929D03*
X120350012Y-70309931D03*
X120350012Y-71579934D03*
X120350012Y-72849936D03*
X120350012Y-74119939D03*
X120350012Y-75389941D03*
D15*
X122115062Y-76669850D03*
X123385065Y-76669850D03*
X124655067Y-76669850D03*
X125925070Y-76669850D03*
X127195072Y-76669850D03*
X128465075Y-76669850D03*
X129735077Y-76669850D03*
X131005080Y-76669850D03*
X132275082Y-76669850D03*
X133545085Y-76669850D03*
X134815087Y-76669850D03*
X136085090Y-76639878D03*
D14*
X137850140Y-75389941D03*
X137850140Y-74119939D03*
X137850140Y-72849936D03*
X137850140Y-71579934D03*
X137850140Y-70309931D03*
X137850140Y-69039929D03*
X137850140Y-67769926D03*
X137850140Y-66499923D03*
X137850140Y-65229921D03*
X137850140Y-63959918D03*
X137850140Y-62689916D03*
X137850140Y-61419913D03*
X137850140Y-60149911D03*
X137850140Y-58879908D03*
D16*
X126199898Y-65199949D03*
X126199898Y-66600000D03*
X126199898Y-68000050D03*
X127599949Y-65199949D03*
X127599949Y-66600000D03*
X127599949Y-68000050D03*
X129000000Y-65199949D03*
X129000000Y-66600000D03*
X129000000Y-68000050D03*
%TD*%
D17*
%TO.C,R12*%
X115200000Y-64200000D03*
X115200000Y-62693268D03*
%TD*%
D12*
%TO.C,C7*%
X99400000Y-61179883D03*
X99400000Y-62020117D03*
%TD*%
D13*
%TO.C,R8*%
X118400000Y-62600000D03*
X116893268Y-62600000D03*
%TD*%
D18*
%TO.C,U11*%
X101800000Y-70903683D03*
X101800000Y-65896317D03*
%TD*%
D19*
%TO.C,U4*%
X81000000Y-93684912D03*
X81000000Y-89315088D03*
%TD*%
D17*
%TO.C,R15*%
X115400000Y-71553366D03*
X115400000Y-70046634D03*
%TD*%
%TO.C,R6*%
X99300000Y-65453366D03*
X99300000Y-63946634D03*
%TD*%
D19*
%TO.C,U5*%
X88500000Y-89315088D03*
X88500000Y-93684912D03*
%TD*%
D17*
%TO.C,R13*%
X112700000Y-74806732D03*
X112700000Y-73300000D03*
%TD*%
D11*
%TO.C,C10*%
X108499937Y-64725019D03*
X109899987Y-64725019D03*
%TD*%
D17*
%TO.C,R5*%
X97450038Y-63707036D03*
X97450038Y-62200304D03*
%TD*%
D12*
%TO.C,C1*%
X106700000Y-71615240D03*
X106700000Y-70775006D03*
%TD*%
D20*
%TO.C,U12*%
X61049936Y-96214945D03*
X62049936Y-96214945D03*
X63550064Y-96214945D03*
X64550064Y-96214945D03*
D21*
X65200305Y-96214945D03*
X66000152Y-96214945D03*
D20*
X64049682Y-96214945D03*
X63049936Y-96214945D03*
X62550064Y-96214945D03*
X61550064Y-96214945D03*
D22*
X60399949Y-96214945D03*
D23*
X59600102Y-96214945D03*
%TD*%
D17*
%TO.C,R20*%
X111136348Y-74806732D03*
X111136348Y-73300000D03*
%TD*%
D24*
%TO.C,C9*%
X81990094Y-40037035D03*
X82830328Y-40037035D03*
%TD*%
D17*
%TO.C,R10*%
X112900000Y-66146634D03*
X112900000Y-67653366D03*
%TD*%
D12*
%TO.C,C2*%
X118400000Y-67173483D03*
X118400000Y-66333249D03*
%TD*%
D24*
%TO.C,C8*%
X105720092Y-61950318D03*
X104879858Y-61950318D03*
%TD*%
D25*
%TO.C,P1*%
X102752477Y-89161335D03*
X103251588Y-89161335D03*
X103751969Y-89161335D03*
X104252350Y-89161335D03*
X104752731Y-89161335D03*
X105253112Y-89161335D03*
X105753493Y-89161335D03*
X106252604Y-89161335D03*
X106751715Y-89161335D03*
X107252096Y-89161335D03*
D26*
X101050419Y-91908605D03*
X108949581Y-91839771D03*
%TD*%
D17*
%TO.C,R16*%
X117000000Y-66500000D03*
X117000000Y-68006732D03*
%TD*%
D12*
%TO.C,C15*%
X118400000Y-73940234D03*
X118400000Y-73100000D03*
%TD*%
D27*
%TO.C,U6*%
X108243588Y-61824865D03*
X108243588Y-62324993D03*
X108243588Y-62824865D03*
X108243588Y-63324993D03*
X110118620Y-63324993D03*
X110118620Y-62824865D03*
X110118620Y-62324993D03*
X110118620Y-61824865D03*
D28*
X109181104Y-62574929D03*
%TD*%
D29*
%TO.C,U10*%
X104200076Y-66500000D03*
X106100000Y-66500000D03*
X105150038Y-64500000D03*
%TD*%
D17*
%TO.C,R14*%
X115400000Y-74806732D03*
X115400000Y-73300000D03*
%TD*%
D12*
%TO.C,C16*%
X109736348Y-73980366D03*
X109736348Y-73140132D03*
%TD*%
D30*
%TO.C,U7*%
X97500000Y-68107340D03*
X95600076Y-68107340D03*
D31*
X95600076Y-65800000D03*
X96550038Y-65800000D03*
X97500000Y-65800000D03*
%TD*%
D12*
%TO.C,C6*%
X95550038Y-64473787D03*
X95550038Y-63633553D03*
%TD*%
D17*
%TO.C,R11*%
X115400000Y-66500000D03*
X115400000Y-68006732D03*
%TD*%
%TO.C,R18*%
X117000000Y-70046634D03*
X117000000Y-71553366D03*
%TD*%
%TO.C,R7*%
X99300000Y-68600000D03*
X99300000Y-67093268D03*
%TD*%
%TO.C,R2*%
X64200000Y-92793268D03*
X64200000Y-94300000D03*
%TD*%
D32*
%TO.C,C12*%
X82507417Y-37300000D03*
X85692583Y-37300000D03*
%TD*%
D12*
%TO.C,C3*%
X110149962Y-70804902D03*
X110149962Y-71645136D03*
%TD*%
D33*
%TO.C,U1*%
X108250038Y-69325019D03*
X109200000Y-69325019D03*
X110149962Y-69325019D03*
X110149962Y-66624993D03*
X109200000Y-66624993D03*
X108250038Y-66624993D03*
%TD*%
D24*
%TO.C,C13*%
X81990094Y-42188723D03*
X82830328Y-42188723D03*
%TD*%
D13*
%TO.C,R4*%
X99206732Y-70100000D03*
X97700000Y-70100000D03*
%TD*%
D17*
%TO.C,R17*%
X113600000Y-64200000D03*
X113600000Y-62693268D03*
%TD*%
D34*
%TO.C,U9*%
X100900000Y-62000585D03*
X100900000Y-62949785D03*
X100900000Y-63900000D03*
X103499950Y-63900000D03*
X103499950Y-62000585D03*
%TD*%
D12*
%TO.C,C14*%
X118400000Y-69900000D03*
X118400000Y-70740234D03*
%TD*%
D35*
%TO.C,U8*%
X74700000Y-55274930D03*
X76700000Y-55274930D03*
D36*
X79050013Y-61125070D03*
X72349987Y-61125070D03*
%TD*%
D13*
%TO.C,R3*%
X116353366Y-60700000D03*
X114846634Y-60700000D03*
%TD*%
D37*
%TO.C,LED1*%
X66399873Y-92951003D03*
X66400127Y-94448997D03*
%TD*%
D17*
%TO.C,R19*%
X117000000Y-73300000D03*
X117000000Y-74806732D03*
%TD*%
D12*
%TO.C,C4*%
X108249962Y-70804902D03*
X108249962Y-71645136D03*
%TD*%
D17*
%TO.C,R1*%
X61500000Y-92793268D03*
X61500000Y-94300000D03*
%TD*%
M02*
