%TF.GenerationSoftware,KiCad,Pcbnew,8.0.1*%
%TF.CreationDate,2026-03-30T11:56:25+02:00*%
%TF.ProjectId,memory_pcb,6d656d6f-7279-45f7-9063-622e6b696361,rev?*%
%TF.SameCoordinates,Original*%
%TF.FileFunction,Copper,L2,Bot*%
%TF.FilePolarity,Positive*%
%FSLAX46Y46*%
G04 Gerber Fmt 4.6, Leading zero omitted, Abs format (unit mm)*
G04 Created by KiCad (PCBNEW 8.0.1) date 2026-03-30 11:56:25*
%MOMM*%
%LPD*%
G01*
G04 APERTURE LIST*
%TA.AperFunction,ComponentPad*%
%ADD10O,1.200000X2.000000*%
%TD*%
%TA.AperFunction,ComponentPad*%
%ADD11O,1.200000X1.800000*%
%TD*%
%TA.AperFunction,ComponentPad*%
%ADD12C,3.800000*%
%TD*%
%TA.AperFunction,ComponentPad*%
%ADD13O,1.700000X1.700000*%
%TD*%
%TA.AperFunction,ComponentPad*%
%ADD14R,1.700000X1.700000*%
%TD*%
%TA.AperFunction,ComponentPad*%
%ADD15C,3.000000*%
%TD*%
%TA.AperFunction,ComponentPad*%
%ADD16C,2.000000*%
%TD*%
%TA.AperFunction,ComponentPad*%
%ADD17R,2.000000X3.200000*%
%TD*%
%TA.AperFunction,ComponentPad*%
%ADD18R,2.000000X2.000000*%
%TD*%
%TA.AperFunction,ComponentPad*%
%ADD19C,2.500000*%
%TD*%
%TA.AperFunction,ViaPad*%
%ADD20C,0.500000*%
%TD*%
%TA.AperFunction,ViaPad*%
%ADD21C,0.600000*%
%TD*%
%TA.AperFunction,Conductor*%
%ADD22C,0.254000*%
%TD*%
%TA.AperFunction,Conductor*%
%ADD23C,0.508000*%
%TD*%
G04 APERTURE END LIST*
D10*
%TO.P,U12,4,EH*%
%TO.N,GND*%
X58474879Y-96983297D03*
D11*
%TO.P,U12,3,EH*%
X58474879Y-101163129D03*
%TO.P,U12,2,EH*%
X67125121Y-101163129D03*
D10*
%TO.P,U12,1,EH*%
X67125121Y-96983297D03*
%TD*%
D12*
%TO.P,H4,1,1*%
%TO.N,GND*%
X157000000Y-101000000D03*
%TD*%
%TO.P,H2,1,1*%
%TO.N,GND*%
X157000000Y-53000000D03*
%TD*%
D13*
%TO.P,J1,10,Pin_10*%
%TO.N,/21*%
X72265000Y-101000000D03*
%TO.P,J1,9,Pin_9*%
%TO.N,/47*%
X74805000Y-101000000D03*
%TO.P,J1,8,Pin_8*%
%TO.N,/48*%
X77345000Y-101000000D03*
%TO.P,J1,7,Pin_7*%
%TO.N,/02*%
X79885000Y-101000000D03*
%TO.P,J1,6,Pin_6*%
%TO.N,/01*%
X82425000Y-101000000D03*
%TO.P,J1,5,Pin_5*%
%TO.N,/RX*%
X84965000Y-101000000D03*
%TO.P,J1,4,Pin_4*%
%TO.N,/TX*%
X87505000Y-101000000D03*
%TO.P,J1,3,Pin_3*%
%TO.N,+5V*%
X90045000Y-101000000D03*
%TO.P,J1,2,Pin_2*%
%TO.N,+3.3V*%
X92585000Y-101000000D03*
D14*
%TO.P,J1,1,Pin_1*%
%TO.N,GND*%
X95125000Y-101000000D03*
%TD*%
D12*
%TO.P,H3,1,1*%
%TO.N,GND*%
X53000000Y-101000000D03*
%TD*%
D15*
%TO.P,SW5,5,5*%
%TO.N,GND*%
X60300000Y-53600000D03*
%TO.P,SW5,4,4*%
X65300000Y-53600000D03*
%TO.P,SW5,3,3*%
%TO.N,Net-(JP12-A)*%
X58100000Y-66300000D03*
%TO.P,SW5,2,2*%
%TO.N,/PWR_SW*%
X62800000Y-66300000D03*
%TO.P,SW5,1,1*%
%TO.N,Net-(JP11-A)*%
X67500000Y-66300000D03*
%TD*%
D12*
%TO.P,H1,1,1*%
%TO.N,GND*%
X53000000Y-53000000D03*
%TD*%
D16*
%TO.P,ENC1,S2,S2*%
%TO.N,GND*%
X65300000Y-70000000D03*
%TO.P,ENC1,S1,S1*%
%TO.N,Net-(ENC1-PadS1)*%
X60300000Y-70000000D03*
D17*
%TO.P,ENC1,MP*%
%TO.N,N/C*%
X68400000Y-77000000D03*
X57200000Y-77000000D03*
D16*
%TO.P,ENC1,C,C*%
%TO.N,GND*%
X62800000Y-84500000D03*
%TO.P,ENC1,B,B*%
%TO.N,Net-(ENC1-PadB)*%
X60300000Y-84500000D03*
D18*
%TO.P,ENC1,A,A*%
%TO.N,Net-(ENC1-PadA)*%
X65300000Y-84500000D03*
%TD*%
D19*
%TO.P,SW3,2,2*%
%TO.N,GND*%
X150600000Y-62250000D03*
%TO.P,SW3,1,1*%
%TO.N,Net-(R17-Pad2)*%
X143600000Y-63300000D03*
%TD*%
%TO.P,SW4,2,2*%
%TO.N,GND*%
X150600000Y-81250000D03*
%TO.P,SW4,1,1*%
%TO.N,Net-(R16-Pad2)*%
X143600000Y-82300000D03*
%TD*%
D20*
%TO.N,GND*%
X72900000Y-73900000D03*
X96200000Y-78650000D03*
X71850000Y-67150000D03*
%TO.N,+5V*%
X106250000Y-81100000D03*
%TO.N,/CLK*%
X93850000Y-80950000D03*
%TO.N,/DISP_CS*%
X98750000Y-81000000D03*
%TO.N,/MOSI*%
X96200000Y-81000000D03*
%TO.N,/DISP_ON*%
X103750000Y-81100000D03*
%TO.N,GND*%
X113760000Y-81000000D03*
%TO.N,VBAT*%
X75250000Y-69950000D03*
%TO.N,Net-(LED1-K)*%
X74450000Y-71900000D03*
X74850000Y-74300000D03*
%TO.N,GND*%
X86950000Y-71650000D03*
X94984925Y-69900000D03*
X62800000Y-92800000D03*
X78400000Y-73000000D03*
D21*
X89200000Y-79700000D03*
X90500000Y-80900000D03*
D20*
X88700000Y-70300000D03*
X93941569Y-75056644D03*
X103500000Y-64200000D03*
X112000000Y-73300000D03*
X111400000Y-58500000D03*
X86750000Y-77100000D03*
X97900000Y-74900000D03*
D21*
X88500000Y-82900000D03*
D20*
X118000000Y-77950000D03*
X111100000Y-91800000D03*
X73850000Y-78850000D03*
X72000000Y-97000000D03*
D21*
X87200000Y-81700000D03*
D20*
X97800000Y-101000000D03*
X86650000Y-85650000D03*
X84150000Y-72900000D03*
%TO.N,+5V*%
X83150000Y-69350000D03*
%TO.N,+3.3V*%
X90000000Y-84500000D03*
X90850000Y-94950000D03*
X82400000Y-69700000D03*
%TO.N,/CLK*%
X104350000Y-75500000D03*
%TO.N,/DISP_CS*%
X101800000Y-77800000D03*
%TO.N,/MOSI*%
X103050000Y-75500000D03*
%TO.N,/SCL*%
X97384925Y-64000000D03*
X87057030Y-62683684D03*
%TO.N,/SDA*%
X97384925Y-62700000D03*
X87084925Y-61824865D03*
%TO.N,/RX*%
X120200000Y-63950000D03*
X112750000Y-63950000D03*
%TO.N,/ENC_BTN*%
X88584925Y-72200000D03*
X97384925Y-72800000D03*
%TO.N,/TX*%
X119650000Y-62700000D03*
X112750000Y-62700000D03*
%TO.N,/DISP_ON*%
X112650000Y-70350000D03*
%TO.N,VBUS*%
X76100000Y-71850000D03*
X75600000Y-74600000D03*
%TO.N,/D-*%
X63550000Y-97400000D03*
X61900000Y-97400000D03*
%TO.N,Net-(U2-IO0)*%
X97050000Y-76450000D03*
X104350000Y-74512000D03*
%TO.N,VBAT*%
X76500000Y-75550000D03*
X81984925Y-64200000D03*
X81984925Y-67800000D03*
X82484925Y-62300000D03*
%TO.N,/PWR_SW*%
X97484925Y-67500000D03*
X88784925Y-68600000D03*
%TO.N,/BTN1*%
X88084925Y-64200000D03*
X97384925Y-65200000D03*
%TO.N,/ALRT*%
X97384925Y-69000000D03*
X87084925Y-63600000D03*
%TO.N,Net-(ENC1-PadA)*%
X92684925Y-75900000D03*
X92884925Y-70899874D03*
%TO.N,Net-(R16-Pad2)*%
X120963000Y-69700000D03*
X93984925Y-68373000D03*
%TO.N,Net-(R17-Pad2)*%
X89484925Y-61600000D03*
X121350000Y-63300000D03*
%TO.N,Net-(U2-EN)*%
X87800000Y-76700000D03*
X97384925Y-60973000D03*
X89484925Y-60700000D03*
%TD*%
D22*
%TO.N,Net-(LED1-K)*%
X74450000Y-71900000D02*
X74850000Y-72300000D01*
X74850000Y-72300000D02*
X74850000Y-74300000D01*
D23*
%TO.N,VBUS*%
X76100000Y-71850000D02*
X75600000Y-72350000D01*
X75600000Y-72350000D02*
X75600000Y-74600000D01*
D22*
%TO.N,/MOSI*%
X96200000Y-81000000D02*
X96569000Y-80631000D01*
X96569000Y-80631000D02*
X97519000Y-80631000D01*
X97519000Y-80631000D02*
X102650000Y-75500000D01*
X102650000Y-75500000D02*
X103050000Y-75500000D01*
%TO.N,/D-*%
X61900000Y-97400000D02*
X63550000Y-97400000D01*
D23*
%TO.N,VBAT*%
X75250000Y-69950000D02*
X77525000Y-72225000D01*
D22*
%TO.N,/DISP_ON*%
X103750000Y-78500000D02*
X111900000Y-70350000D01*
X103750000Y-81100000D02*
X103750000Y-78500000D01*
X111900000Y-70350000D02*
X112650000Y-70350000D01*
D23*
%TO.N,+5V*%
X106250000Y-81100000D02*
X104300000Y-83050000D01*
X104300000Y-83050000D02*
X91050000Y-83050000D01*
X91050000Y-83050000D02*
X90784000Y-82784000D01*
D22*
%TO.N,/DISP_CS*%
X98750000Y-79938816D02*
X100888816Y-77800000D01*
X98750000Y-81000000D02*
X98750000Y-79938816D01*
X100888816Y-77800000D02*
X101800000Y-77800000D01*
%TO.N,/CLK*%
X97361184Y-80250000D02*
X102718184Y-74893000D01*
X93850000Y-80950000D02*
X94550000Y-80250000D01*
X102718184Y-74893000D02*
X103743000Y-74893000D01*
X94550000Y-80250000D02*
X97361184Y-80250000D01*
X103743000Y-74893000D02*
X104350000Y-75500000D01*
D23*
%TO.N,VBAT*%
X76500000Y-73250000D02*
X76500000Y-75550000D01*
X77250000Y-72500000D02*
X76500000Y-73250000D01*
X81950000Y-67800000D02*
X77250000Y-72500000D01*
X81984925Y-67800000D02*
X81950000Y-67800000D01*
%TO.N,+5V*%
X90045000Y-101000000D02*
X90045000Y-94716967D01*
X90045000Y-94716967D02*
X90784000Y-93977967D01*
X90784000Y-82784000D02*
X87900000Y-79900000D01*
X87900000Y-79900000D02*
X83150000Y-75150000D01*
X90784000Y-93977967D02*
X90784000Y-82784000D01*
X83150000Y-75150000D02*
X83150000Y-69350000D01*
%TO.N,+3.3V*%
X90000000Y-84500000D02*
X90000000Y-83050000D01*
X90850000Y-99250000D02*
X92585000Y-100985000D01*
X82400000Y-75450000D02*
X82400000Y-69700000D01*
X90000000Y-83050000D02*
X82400000Y-75450000D01*
X90850000Y-94950000D02*
X90850000Y-99250000D01*
X92585000Y-100985000D02*
X92585000Y-101000000D01*
D22*
%TO.N,/SCL*%
X96977925Y-63593000D02*
X97384925Y-64000000D01*
X87966346Y-63593000D02*
X96977925Y-63593000D01*
X87057030Y-62683684D02*
X87966346Y-63593000D01*
%TO.N,/SDA*%
X87960060Y-62700000D02*
X97384925Y-62700000D01*
X87084925Y-61824865D02*
X87960060Y-62700000D01*
%TO.N,/RX*%
X112750000Y-63950000D02*
X120200000Y-63950000D01*
%TO.N,/ENC_BTN*%
X97384925Y-72800000D02*
X95643479Y-72800000D01*
X95643479Y-72800000D02*
X93136353Y-70292874D01*
X90492051Y-70292874D02*
X88584925Y-72200000D01*
X93136353Y-70292874D02*
X90492051Y-70292874D01*
%TO.N,/TX*%
X119650000Y-62700000D02*
X112750000Y-62700000D01*
%TO.N,Net-(U2-IO0)*%
X104350000Y-74512000D02*
X100088000Y-74512000D01*
X100088000Y-74512000D02*
X98150000Y-76450000D01*
X98150000Y-76450000D02*
X97050000Y-76450000D01*
%TO.N,VBAT*%
X81984925Y-63500000D02*
X81984925Y-64200000D01*
X82484925Y-63000000D02*
X81984925Y-63500000D01*
X82484925Y-62300000D02*
X82484925Y-63000000D01*
%TO.N,/PWR_SW*%
X88784925Y-68600000D02*
X92871213Y-68600000D01*
X93971213Y-67500000D02*
X97484925Y-67500000D01*
X92871213Y-68600000D02*
X93971213Y-67500000D01*
%TO.N,/BTN1*%
X88084925Y-64200000D02*
X88084925Y-64500000D01*
X88084925Y-64500000D02*
X88784925Y-65200000D01*
X88784925Y-65200000D02*
X97384925Y-65200000D01*
%TO.N,/ALRT*%
X98091925Y-68293000D02*
X97384925Y-69000000D01*
X87084925Y-63600000D02*
X87084925Y-64058428D01*
X88607497Y-65581000D02*
X96424353Y-65581000D01*
X87084925Y-64058428D02*
X88607497Y-65581000D01*
X96424353Y-65581000D02*
X98091925Y-67248572D01*
X98091925Y-67248572D02*
X98091925Y-68293000D01*
%TO.N,Net-(ENC1-PadA)*%
X92884925Y-70899874D02*
X92884925Y-75700000D01*
X92884925Y-75700000D02*
X92684925Y-75900000D01*
%TO.N,Net-(R16-Pad2)*%
X120963000Y-69700000D02*
X96184925Y-69700000D01*
X93984925Y-68373000D02*
X94011925Y-68400000D01*
X96184925Y-69700000D02*
X94857925Y-68373000D01*
X94857925Y-68373000D02*
X93984925Y-68373000D01*
%TO.N,Net-(R17-Pad2)*%
X121350000Y-63300000D02*
X121307000Y-63343000D01*
X121307000Y-63343000D02*
X112498572Y-63343000D01*
X99300000Y-63350000D02*
X97550000Y-61600000D01*
X112491572Y-63350000D02*
X99300000Y-63350000D01*
X112498572Y-63343000D02*
X112491572Y-63350000D01*
X97550000Y-61600000D02*
X89484925Y-61600000D01*
%TO.N,Net-(U2-EN)*%
X97111925Y-60700000D02*
X89484925Y-60700000D01*
X87800000Y-76700000D02*
X87800000Y-65312319D01*
X87323078Y-60700000D02*
X89484925Y-60700000D01*
X97384925Y-60973000D02*
X97111925Y-60700000D01*
X86430030Y-63942349D02*
X86430030Y-61593048D01*
X87800000Y-65312319D02*
X86430030Y-63942349D01*
X86430030Y-61593048D02*
X87323078Y-60700000D01*
%TD*%
%TA.AperFunction,Conductor*%
%TO.N,GND*%
G36*
X73493039Y-50520185D02*
G01*
X73538794Y-50572989D01*
X73550000Y-50624500D01*
X73550000Y-57500000D01*
X136450000Y-57500000D01*
X136450000Y-50624500D01*
X136469685Y-50557461D01*
X136522489Y-50511706D01*
X136574000Y-50500500D01*
X156143454Y-50500500D01*
X156210493Y-50520185D01*
X156256248Y-50572989D01*
X156266192Y-50642147D01*
X156237167Y-50705703D01*
X156189101Y-50739792D01*
X155976117Y-50824117D01*
X155976109Y-50824121D01*
X155711476Y-50969604D01*
X155711471Y-50969607D01*
X155486565Y-51133010D01*
X155486564Y-51133011D01*
X156417262Y-52063709D01*
X156283398Y-52160967D01*
X156160967Y-52283398D01*
X156063709Y-52417262D01*
X155135311Y-51488864D01*
X155054520Y-51586525D01*
X155054518Y-51586528D01*
X154892707Y-51841502D01*
X154892704Y-51841508D01*
X154764127Y-52114747D01*
X154764125Y-52114752D01*
X154670805Y-52401959D01*
X154614216Y-52698609D01*
X154614215Y-52698616D01*
X154595255Y-52999994D01*
X154595255Y-53000005D01*
X154614215Y-53301380D01*
X154670805Y-53598040D01*
X154764125Y-53885247D01*
X154764127Y-53885252D01*
X154892704Y-54158491D01*
X154892707Y-54158497D01*
X155054516Y-54413469D01*
X155135311Y-54511133D01*
X156063708Y-53582736D01*
X156160967Y-53716602D01*
X156283398Y-53839033D01*
X156417262Y-53936290D01*
X155486564Y-54866987D01*
X155486565Y-54866989D01*
X155711461Y-55030385D01*
X155711479Y-55030397D01*
X155976109Y-55175878D01*
X155976117Y-55175882D01*
X156256889Y-55287047D01*
X156256892Y-55287048D01*
X156549399Y-55362150D01*
X156848995Y-55399999D01*
X156849007Y-55400000D01*
X157150993Y-55400000D01*
X157151004Y-55399999D01*
X157450600Y-55362150D01*
X157743107Y-55287048D01*
X157743110Y-55287047D01*
X158023882Y-55175882D01*
X158023890Y-55175878D01*
X158288520Y-55030397D01*
X158288530Y-55030390D01*
X158513433Y-54866987D01*
X158513434Y-54866987D01*
X157582737Y-53936290D01*
X157716602Y-53839033D01*
X157839033Y-53716602D01*
X157936290Y-53582737D01*
X158864687Y-54511134D01*
X158945486Y-54413464D01*
X159107292Y-54158497D01*
X159107295Y-54158491D01*
X159235872Y-53885252D01*
X159235874Y-53885247D01*
X159257569Y-53818479D01*
X159297006Y-53760804D01*
X159361365Y-53733605D01*
X159430211Y-53745520D01*
X159481687Y-53792764D01*
X159499500Y-53856797D01*
X159499500Y-100143202D01*
X159479815Y-100210241D01*
X159427011Y-100255996D01*
X159357853Y-100265940D01*
X159294297Y-100236915D01*
X159257569Y-100181520D01*
X159235874Y-100114752D01*
X159235872Y-100114747D01*
X159107295Y-99841507D01*
X159107292Y-99841502D01*
X158945483Y-99586530D01*
X158864686Y-99488864D01*
X157936289Y-100417261D01*
X157839033Y-100283398D01*
X157716602Y-100160967D01*
X157582736Y-100063709D01*
X158513434Y-99133011D01*
X158513433Y-99133009D01*
X158288538Y-98969614D01*
X158288520Y-98969602D01*
X158023890Y-98824121D01*
X158023882Y-98824117D01*
X157743110Y-98712952D01*
X157743107Y-98712951D01*
X157450600Y-98637849D01*
X157151004Y-98600000D01*
X156848995Y-98600000D01*
X156549399Y-98637849D01*
X156256892Y-98712951D01*
X156256889Y-98712952D01*
X155976117Y-98824117D01*
X155976109Y-98824121D01*
X155711476Y-98969604D01*
X155711471Y-98969607D01*
X155486565Y-99133010D01*
X155486564Y-99133011D01*
X156417262Y-100063709D01*
X156283398Y-100160967D01*
X156160967Y-100283398D01*
X156063709Y-100417262D01*
X155135311Y-99488864D01*
X155054520Y-99586525D01*
X155054518Y-99586528D01*
X154892707Y-99841502D01*
X154892705Y-99841507D01*
X154764127Y-100114747D01*
X154764125Y-100114752D01*
X154670805Y-100401959D01*
X154614216Y-100698609D01*
X154614215Y-100698616D01*
X154595255Y-100999994D01*
X154595255Y-101000005D01*
X154614215Y-101301383D01*
X154614216Y-101301390D01*
X154670805Y-101598040D01*
X154764125Y-101885247D01*
X154764127Y-101885252D01*
X154892704Y-102158491D01*
X154892707Y-102158497D01*
X155054516Y-102413469D01*
X155135311Y-102511133D01*
X156063708Y-101582736D01*
X156160967Y-101716602D01*
X156283398Y-101839033D01*
X156417262Y-101936290D01*
X155486564Y-102866987D01*
X155486565Y-102866989D01*
X155711461Y-103030385D01*
X155711479Y-103030397D01*
X155976109Y-103175878D01*
X155976117Y-103175882D01*
X156189101Y-103260208D01*
X156244187Y-103303189D01*
X156267290Y-103369128D01*
X156251077Y-103437090D01*
X156200694Y-103485498D01*
X156143454Y-103499500D01*
X112005413Y-103499500D01*
X111994605Y-103499028D01*
X111837246Y-103485260D01*
X111815961Y-103481507D01*
X111668630Y-103442030D01*
X111648318Y-103434637D01*
X111510084Y-103370177D01*
X111491366Y-103359370D01*
X111366417Y-103271880D01*
X111349859Y-103257986D01*
X111242013Y-103150140D01*
X111228119Y-103133582D01*
X111140629Y-103008633D01*
X111129822Y-102989915D01*
X111065362Y-102851681D01*
X111057969Y-102831369D01*
X111018492Y-102684038D01*
X111014739Y-102662752D01*
X111014277Y-102657475D01*
X111003758Y-102537243D01*
X111000972Y-102505393D01*
X111000500Y-102494586D01*
X111000500Y-99434110D01*
X111000500Y-99434108D01*
X110966392Y-99306814D01*
X110900500Y-99192686D01*
X110807314Y-99099500D01*
X110750250Y-99066554D01*
X110693187Y-99033608D01*
X110629539Y-99016554D01*
X110565892Y-98999500D01*
X99565892Y-98999500D01*
X99434108Y-98999500D01*
X99306812Y-99033608D01*
X99192686Y-99099500D01*
X99192683Y-99099502D01*
X99099502Y-99192683D01*
X99099500Y-99192686D01*
X99033608Y-99306812D01*
X98999500Y-99434108D01*
X98999500Y-102494586D01*
X98999028Y-102505394D01*
X98985260Y-102662753D01*
X98981507Y-102684038D01*
X98942030Y-102831369D01*
X98934637Y-102851681D01*
X98870177Y-102989915D01*
X98859370Y-103008633D01*
X98771880Y-103133582D01*
X98757986Y-103150140D01*
X98650140Y-103257986D01*
X98633582Y-103271880D01*
X98508633Y-103359370D01*
X98489915Y-103370177D01*
X98351681Y-103434637D01*
X98331369Y-103442030D01*
X98184038Y-103481507D01*
X98162753Y-103485260D01*
X98005395Y-103499028D01*
X97994587Y-103499500D01*
X53856546Y-103499500D01*
X53789507Y-103479815D01*
X53743752Y-103427011D01*
X53733808Y-103357853D01*
X53762833Y-103294297D01*
X53810899Y-103260208D01*
X54023882Y-103175882D01*
X54023890Y-103175878D01*
X54288520Y-103030397D01*
X54288530Y-103030390D01*
X54513433Y-102866987D01*
X54513434Y-102866987D01*
X53582737Y-101936290D01*
X53716602Y-101839033D01*
X53839033Y-101716602D01*
X53936290Y-101582737D01*
X54864687Y-102511134D01*
X54945486Y-102413464D01*
X55107292Y-102158497D01*
X55107295Y-102158491D01*
X55235872Y-101885252D01*
X55235874Y-101885247D01*
X55329194Y-101598040D01*
X55338415Y-101549700D01*
X57374879Y-101549700D01*
X57401964Y-101720713D01*
X57455470Y-101885386D01*
X57534074Y-102039653D01*
X57635846Y-102179731D01*
X57758276Y-102302161D01*
X57898354Y-102403933D01*
X58052623Y-102482537D01*
X58217294Y-102536043D01*
X58217293Y-102536043D01*
X58224878Y-102537244D01*
X58224879Y-102537243D01*
X58224879Y-101778815D01*
X58229273Y-101783209D01*
X58320485Y-101835870D01*
X58422218Y-101863129D01*
X58527540Y-101863129D01*
X58629273Y-101835870D01*
X58720485Y-101783209D01*
X58724879Y-101778815D01*
X58724879Y-102537244D01*
X58732463Y-102536043D01*
X58897134Y-102482537D01*
X59051403Y-102403933D01*
X59191481Y-102302161D01*
X59313911Y-102179731D01*
X59415683Y-102039653D01*
X59494287Y-101885386D01*
X59547793Y-101720713D01*
X59574879Y-101549700D01*
X66025121Y-101549700D01*
X66052206Y-101720713D01*
X66105712Y-101885386D01*
X66184316Y-102039653D01*
X66286088Y-102179731D01*
X66408518Y-102302161D01*
X66548596Y-102403933D01*
X66702865Y-102482537D01*
X66867536Y-102536043D01*
X66867535Y-102536043D01*
X66875120Y-102537244D01*
X66875121Y-102537243D01*
X66875121Y-101778815D01*
X66879515Y-101783209D01*
X66970727Y-101835870D01*
X67072460Y-101863129D01*
X67177782Y-101863129D01*
X67279515Y-101835870D01*
X67370727Y-101783209D01*
X67375121Y-101778815D01*
X67375121Y-102537244D01*
X67382705Y-102536043D01*
X67547376Y-102482537D01*
X67701645Y-102403933D01*
X67841723Y-102302161D01*
X67964153Y-102179731D01*
X68065925Y-102039653D01*
X68144529Y-101885386D01*
X68198035Y-101720713D01*
X68225121Y-101549700D01*
X68225121Y-101413129D01*
X67525121Y-101413129D01*
X67525121Y-101000000D01*
X70909341Y-101000000D01*
X70929936Y-101235403D01*
X70929938Y-101235413D01*
X70991094Y-101463655D01*
X70991096Y-101463659D01*
X70991097Y-101463663D01*
X71031217Y-101549700D01*
X71090965Y-101677830D01*
X71090967Y-101677834D01*
X71164752Y-101783209D01*
X71226505Y-101871401D01*
X71393599Y-102038495D01*
X71470135Y-102092086D01*
X71587165Y-102174032D01*
X71587167Y-102174033D01*
X71587170Y-102174035D01*
X71801337Y-102273903D01*
X72029592Y-102335063D01*
X72200319Y-102350000D01*
X72264999Y-102355659D01*
X72265000Y-102355659D01*
X72265001Y-102355659D01*
X72329681Y-102350000D01*
X72500408Y-102335063D01*
X72728663Y-102273903D01*
X72942830Y-102174035D01*
X73136401Y-102038495D01*
X73303495Y-101871401D01*
X73433425Y-101685842D01*
X73488002Y-101642217D01*
X73557500Y-101635023D01*
X73619855Y-101666546D01*
X73636575Y-101685842D01*
X73766500Y-101871395D01*
X73766505Y-101871401D01*
X73933599Y-102038495D01*
X74010135Y-102092086D01*
X74127165Y-102174032D01*
X74127167Y-102174033D01*
X74127170Y-102174035D01*
X74341337Y-102273903D01*
X74569592Y-102335063D01*
X74740319Y-102350000D01*
X74804999Y-102355659D01*
X74805000Y-102355659D01*
X74805001Y-102355659D01*
X74869681Y-102350000D01*
X75040408Y-102335063D01*
X75268663Y-102273903D01*
X75482830Y-102174035D01*
X75676401Y-102038495D01*
X75843495Y-101871401D01*
X75973425Y-101685842D01*
X76028002Y-101642217D01*
X76097500Y-101635023D01*
X76159855Y-101666546D01*
X76176575Y-101685842D01*
X76306500Y-101871395D01*
X76306505Y-101871401D01*
X76473599Y-102038495D01*
X76550135Y-102092086D01*
X76667165Y-102174032D01*
X76667167Y-102174033D01*
X76667170Y-102174035D01*
X76881337Y-102273903D01*
X77109592Y-102335063D01*
X77280319Y-102350000D01*
X77344999Y-102355659D01*
X77345000Y-102355659D01*
X77345001Y-102355659D01*
X77409681Y-102350000D01*
X77580408Y-102335063D01*
X77808663Y-102273903D01*
X78022830Y-102174035D01*
X78216401Y-102038495D01*
X78383495Y-101871401D01*
X78513425Y-101685842D01*
X78568002Y-101642217D01*
X78637500Y-101635023D01*
X78699855Y-101666546D01*
X78716575Y-101685842D01*
X78846500Y-101871395D01*
X78846505Y-101871401D01*
X79013599Y-102038495D01*
X79090135Y-102092086D01*
X79207165Y-102174032D01*
X79207167Y-102174033D01*
X79207170Y-102174035D01*
X79421337Y-102273903D01*
X79649592Y-102335063D01*
X79820319Y-102350000D01*
X79884999Y-102355659D01*
X79885000Y-102355659D01*
X79885001Y-102355659D01*
X79949681Y-102350000D01*
X80120408Y-102335063D01*
X80348663Y-102273903D01*
X80562830Y-102174035D01*
X80756401Y-102038495D01*
X80923495Y-101871401D01*
X81053425Y-101685842D01*
X81108002Y-101642217D01*
X81177500Y-101635023D01*
X81239855Y-101666546D01*
X81256575Y-101685842D01*
X81386500Y-101871395D01*
X81386505Y-101871401D01*
X81553599Y-102038495D01*
X81630135Y-102092086D01*
X81747165Y-102174032D01*
X81747167Y-102174033D01*
X81747170Y-102174035D01*
X81961337Y-102273903D01*
X82189592Y-102335063D01*
X82360319Y-102350000D01*
X82424999Y-102355659D01*
X82425000Y-102355659D01*
X82425001Y-102355659D01*
X82489681Y-102350000D01*
X82660408Y-102335063D01*
X82888663Y-102273903D01*
X83102830Y-102174035D01*
X83296401Y-102038495D01*
X83463495Y-101871401D01*
X83593425Y-101685842D01*
X83648002Y-101642217D01*
X83717500Y-101635023D01*
X83779855Y-101666546D01*
X83796575Y-101685842D01*
X83926500Y-101871395D01*
X83926505Y-101871401D01*
X84093599Y-102038495D01*
X84170135Y-102092086D01*
X84287165Y-102174032D01*
X84287167Y-102174033D01*
X84287170Y-102174035D01*
X84501337Y-102273903D01*
X84729592Y-102335063D01*
X84900319Y-102350000D01*
X84964999Y-102355659D01*
X84965000Y-102355659D01*
X84965001Y-102355659D01*
X85029681Y-102350000D01*
X85200408Y-102335063D01*
X85428663Y-102273903D01*
X85642830Y-102174035D01*
X85836401Y-102038495D01*
X86003495Y-101871401D01*
X86133425Y-101685842D01*
X86188002Y-101642217D01*
X86257500Y-101635023D01*
X86319855Y-101666546D01*
X86336575Y-101685842D01*
X86466500Y-101871395D01*
X86466505Y-101871401D01*
X86633599Y-102038495D01*
X86710135Y-102092086D01*
X86827165Y-102174032D01*
X86827167Y-102174033D01*
X86827170Y-102174035D01*
X87041337Y-102273903D01*
X87269592Y-102335063D01*
X87440319Y-102350000D01*
X87504999Y-102355659D01*
X87505000Y-102355659D01*
X87505001Y-102355659D01*
X87569681Y-102350000D01*
X87740408Y-102335063D01*
X87968663Y-102273903D01*
X88182830Y-102174035D01*
X88376401Y-102038495D01*
X88543495Y-101871401D01*
X88673425Y-101685842D01*
X88728002Y-101642217D01*
X88797500Y-101635023D01*
X88859855Y-101666546D01*
X88876575Y-101685842D01*
X89006500Y-101871395D01*
X89006505Y-101871401D01*
X89173599Y-102038495D01*
X89250135Y-102092086D01*
X89367165Y-102174032D01*
X89367167Y-102174033D01*
X89367170Y-102174035D01*
X89581337Y-102273903D01*
X89809592Y-102335063D01*
X89980319Y-102350000D01*
X90044999Y-102355659D01*
X90045000Y-102355659D01*
X90045001Y-102355659D01*
X90109681Y-102350000D01*
X90280408Y-102335063D01*
X90508663Y-102273903D01*
X90722830Y-102174035D01*
X90916401Y-102038495D01*
X91083495Y-101871401D01*
X91213425Y-101685842D01*
X91268002Y-101642217D01*
X91337500Y-101635023D01*
X91399855Y-101666546D01*
X91416575Y-101685842D01*
X91546500Y-101871395D01*
X91546505Y-101871401D01*
X91713599Y-102038495D01*
X91790135Y-102092086D01*
X91907165Y-102174032D01*
X91907167Y-102174033D01*
X91907170Y-102174035D01*
X92121337Y-102273903D01*
X92349592Y-102335063D01*
X92520319Y-102350000D01*
X92584999Y-102355659D01*
X92585000Y-102355659D01*
X92585001Y-102355659D01*
X92649681Y-102350000D01*
X92820408Y-102335063D01*
X93048663Y-102273903D01*
X93262830Y-102174035D01*
X93456401Y-102038495D01*
X93578717Y-101916178D01*
X93640036Y-101882696D01*
X93709728Y-101887680D01*
X93765662Y-101929551D01*
X93782577Y-101960528D01*
X93831646Y-102092088D01*
X93831649Y-102092093D01*
X93917809Y-102207187D01*
X93917812Y-102207190D01*
X94032906Y-102293350D01*
X94032913Y-102293354D01*
X94167620Y-102343596D01*
X94167627Y-102343598D01*
X94227155Y-102349999D01*
X94227172Y-102350000D01*
X94875000Y-102350000D01*
X94875000Y-101433012D01*
X94932007Y-101465925D01*
X95059174Y-101500000D01*
X95190826Y-101500000D01*
X95317993Y-101465925D01*
X95375000Y-101433012D01*
X95375000Y-102350000D01*
X96022828Y-102350000D01*
X96022844Y-102349999D01*
X96082372Y-102343598D01*
X96082379Y-102343596D01*
X96217086Y-102293354D01*
X96217093Y-102293350D01*
X96332187Y-102207190D01*
X96332190Y-102207187D01*
X96418350Y-102092093D01*
X96418354Y-102092086D01*
X96468596Y-101957379D01*
X96468598Y-101957372D01*
X96474999Y-101897844D01*
X96475000Y-101897827D01*
X96475000Y-101250000D01*
X95558012Y-101250000D01*
X95590925Y-101192993D01*
X95625000Y-101065826D01*
X95625000Y-100934174D01*
X95590925Y-100807007D01*
X95558012Y-100750000D01*
X96475000Y-100750000D01*
X96475000Y-100102172D01*
X96474999Y-100102155D01*
X96468598Y-100042627D01*
X96468596Y-100042620D01*
X96418354Y-99907913D01*
X96418350Y-99907906D01*
X96332190Y-99792812D01*
X96332187Y-99792809D01*
X96217093Y-99706649D01*
X96217086Y-99706645D01*
X96082379Y-99656403D01*
X96082372Y-99656401D01*
X96022844Y-99650000D01*
X95375000Y-99650000D01*
X95375000Y-100566988D01*
X95317993Y-100534075D01*
X95190826Y-100500000D01*
X95059174Y-100500000D01*
X94932007Y-100534075D01*
X94875000Y-100566988D01*
X94875000Y-99650000D01*
X94227155Y-99650000D01*
X94167627Y-99656401D01*
X94167620Y-99656403D01*
X94032913Y-99706645D01*
X94032906Y-99706649D01*
X93917812Y-99792809D01*
X93917809Y-99792812D01*
X93831649Y-99907906D01*
X93831645Y-99907913D01*
X93782578Y-100039470D01*
X93740707Y-100095404D01*
X93675242Y-100119821D01*
X93606969Y-100104969D01*
X93578715Y-100083819D01*
X93518992Y-100024096D01*
X93456401Y-99961505D01*
X93456397Y-99961502D01*
X93456396Y-99961501D01*
X93262834Y-99825967D01*
X93262830Y-99825965D01*
X93183586Y-99789013D01*
X93048663Y-99726097D01*
X93048659Y-99726096D01*
X93048655Y-99726094D01*
X92820413Y-99664938D01*
X92820403Y-99664936D01*
X92585001Y-99644341D01*
X92584998Y-99644341D01*
X92390981Y-99661315D01*
X92322481Y-99647548D01*
X92292493Y-99625468D01*
X91640819Y-98973794D01*
X91607334Y-98912471D01*
X91604500Y-98886113D01*
X91604500Y-94963610D01*
X91605249Y-94950272D01*
X91605249Y-94949721D01*
X91604500Y-94936390D01*
X91604500Y-94875686D01*
X91596694Y-94836447D01*
X91587931Y-94792393D01*
X91586330Y-94782093D01*
X91586313Y-94781941D01*
X91586310Y-94781934D01*
X91586310Y-94781928D01*
X91584763Y-94775146D01*
X91584851Y-94775125D01*
X91583547Y-94770352D01*
X91575505Y-94729920D01*
X91518629Y-94592610D01*
X91445714Y-94483484D01*
X91424837Y-94416808D01*
X91439328Y-94363985D01*
X91439548Y-94360913D01*
X91440891Y-94358289D01*
X91443322Y-94349428D01*
X91445701Y-94345725D01*
X91452629Y-94335357D01*
X91452630Y-94335356D01*
X91498550Y-94224495D01*
X91509505Y-94198047D01*
X91522860Y-94130908D01*
X91538501Y-94052279D01*
X91538501Y-93903655D01*
X91538501Y-93898545D01*
X91538500Y-93898519D01*
X91538500Y-87161489D01*
X145124500Y-87161489D01*
X145160659Y-87482410D01*
X145160661Y-87482426D01*
X145232527Y-87797294D01*
X145232531Y-87797306D01*
X145339195Y-88102133D01*
X145339201Y-88102147D01*
X145479327Y-88393122D01*
X145479329Y-88393125D01*
X145651159Y-88666591D01*
X145852527Y-88919099D01*
X146080901Y-89147473D01*
X146333409Y-89348841D01*
X146606875Y-89520671D01*
X146897860Y-89660802D01*
X146897866Y-89660804D01*
X147202693Y-89767468D01*
X147202705Y-89767472D01*
X147517577Y-89839339D01*
X147838511Y-89875499D01*
X147838512Y-89875500D01*
X147838515Y-89875500D01*
X148161488Y-89875500D01*
X148161488Y-89875499D01*
X148482423Y-89839339D01*
X148797295Y-89767472D01*
X149102140Y-89660802D01*
X149393125Y-89520671D01*
X149666591Y-89348841D01*
X149919099Y-89147473D01*
X150147473Y-88919099D01*
X150348841Y-88666591D01*
X150520671Y-88393125D01*
X150660802Y-88102140D01*
X150767472Y-87797295D01*
X150839339Y-87482423D01*
X150875500Y-87161485D01*
X150875500Y-86838515D01*
X150839339Y-86517577D01*
X150767472Y-86202705D01*
X150660802Y-85897860D01*
X150520671Y-85606875D01*
X150348841Y-85333409D01*
X150147473Y-85080901D01*
X149919099Y-84852527D01*
X149666591Y-84651159D01*
X149425579Y-84499721D01*
X149393122Y-84479327D01*
X149102147Y-84339201D01*
X149102133Y-84339195D01*
X148797306Y-84232531D01*
X148797294Y-84232527D01*
X148482426Y-84160661D01*
X148482410Y-84160659D01*
X148161489Y-84124500D01*
X148161485Y-84124500D01*
X147838515Y-84124500D01*
X147838510Y-84124500D01*
X147517589Y-84160659D01*
X147517573Y-84160661D01*
X147202705Y-84232527D01*
X147202693Y-84232531D01*
X146897866Y-84339195D01*
X146897852Y-84339201D01*
X146606877Y-84479327D01*
X146333410Y-84651158D01*
X146080901Y-84852526D01*
X145852526Y-85080901D01*
X145651158Y-85333410D01*
X145479327Y-85606877D01*
X145339201Y-85897852D01*
X145339195Y-85897866D01*
X145232531Y-86202693D01*
X145232527Y-86202705D01*
X145160661Y-86517573D01*
X145160659Y-86517589D01*
X145124500Y-86838510D01*
X145124500Y-87161489D01*
X91538500Y-87161489D01*
X91538500Y-83928500D01*
X91558185Y-83861461D01*
X91610989Y-83815706D01*
X91662500Y-83804500D01*
X104219554Y-83804500D01*
X104219574Y-83804501D01*
X104225688Y-83804501D01*
X104374314Y-83804501D01*
X104495894Y-83780315D01*
X104495894Y-83780316D01*
X104495900Y-83780313D01*
X104520080Y-83775505D01*
X104555942Y-83760649D01*
X104576944Y-83751951D01*
X104576947Y-83751949D01*
X104576955Y-83751946D01*
X104657389Y-83718630D01*
X104780966Y-83636059D01*
X106117020Y-82300004D01*
X141844592Y-82300004D01*
X141864196Y-82561620D01*
X141864197Y-82561625D01*
X141922576Y-82817402D01*
X141922578Y-82817411D01*
X141922580Y-82817416D01*
X142018432Y-83061643D01*
X142149614Y-83288857D01*
X142232280Y-83392517D01*
X142313198Y-83493985D01*
X142450007Y-83620924D01*
X142505521Y-83672433D01*
X142722296Y-83820228D01*
X142722301Y-83820230D01*
X142722302Y-83820231D01*
X142722303Y-83820232D01*
X142807917Y-83861461D01*
X142958673Y-83934061D01*
X142958674Y-83934061D01*
X142958677Y-83934063D01*
X143209385Y-84011396D01*
X143468818Y-84050500D01*
X143731182Y-84050500D01*
X143990615Y-84011396D01*
X144241323Y-83934063D01*
X144477704Y-83820228D01*
X144694479Y-83672433D01*
X144886805Y-83493981D01*
X145050386Y-83288857D01*
X145181568Y-83061643D01*
X145277420Y-82817416D01*
X145335802Y-82561630D01*
X145355408Y-82300000D01*
X145354858Y-82292666D01*
X145335803Y-82038379D01*
X145335802Y-82038374D01*
X145335802Y-82038370D01*
X145277420Y-81782584D01*
X145181568Y-81538357D01*
X145050386Y-81311143D01*
X145001629Y-81250004D01*
X148845093Y-81250004D01*
X148864692Y-81511545D01*
X148864693Y-81511550D01*
X148923058Y-81767270D01*
X149018883Y-82011426D01*
X149018882Y-82011426D01*
X149150027Y-82238573D01*
X149197874Y-82298571D01*
X149922421Y-81574024D01*
X149935359Y-81605258D01*
X150017437Y-81728097D01*
X150121903Y-81832563D01*
X150244742Y-81914641D01*
X150275974Y-81927577D01*
X149550830Y-82652720D01*
X149722546Y-82769793D01*
X149722550Y-82769795D01*
X149958854Y-82883594D01*
X149958858Y-82883595D01*
X150209494Y-82960907D01*
X150209500Y-82960909D01*
X150468848Y-82999999D01*
X150468857Y-83000000D01*
X150731143Y-83000000D01*
X150731151Y-82999999D01*
X150990499Y-82960909D01*
X150990505Y-82960907D01*
X151241143Y-82883595D01*
X151477445Y-82769798D01*
X151477447Y-82769797D01*
X151649168Y-82652720D01*
X150924025Y-81927578D01*
X150955258Y-81914641D01*
X151078097Y-81832563D01*
X151182563Y-81728097D01*
X151264641Y-81605258D01*
X151277578Y-81574025D01*
X152002125Y-82298572D01*
X152049971Y-82238573D01*
X152181116Y-82011426D01*
X152276941Y-81767270D01*
X152335306Y-81511550D01*
X152335307Y-81511545D01*
X152354907Y-81250004D01*
X152354907Y-81249995D01*
X152335307Y-80988454D01*
X152335306Y-80988449D01*
X152276941Y-80732729D01*
X152181116Y-80488573D01*
X152181117Y-80488573D01*
X152049972Y-80261426D01*
X152002124Y-80201427D01*
X151277577Y-80925973D01*
X151264641Y-80894742D01*
X151182563Y-80771903D01*
X151078097Y-80667437D01*
X150955258Y-80585359D01*
X150924025Y-80572421D01*
X151649168Y-79847278D01*
X151477454Y-79730206D01*
X151477445Y-79730201D01*
X151241142Y-79616404D01*
X151241144Y-79616404D01*
X150990505Y-79539092D01*
X150990499Y-79539090D01*
X150731151Y-79500000D01*
X150468848Y-79500000D01*
X150209500Y-79539090D01*
X150209494Y-79539092D01*
X149958858Y-79616404D01*
X149958854Y-79616405D01*
X149722547Y-79730205D01*
X149722539Y-79730210D01*
X149550830Y-79847277D01*
X150275974Y-80572421D01*
X150244742Y-80585359D01*
X150121903Y-80667437D01*
X150017437Y-80771903D01*
X149935359Y-80894742D01*
X149922422Y-80925974D01*
X149197875Y-80201427D01*
X149197874Y-80201427D01*
X149150028Y-80261425D01*
X149018883Y-80488573D01*
X148923058Y-80732729D01*
X148864693Y-80988449D01*
X148864692Y-80988454D01*
X148845093Y-81249995D01*
X148845093Y-81250004D01*
X145001629Y-81250004D01*
X144886805Y-81106019D01*
X144886804Y-81106018D01*
X144886801Y-81106014D01*
X144694479Y-80927567D01*
X144648834Y-80896447D01*
X144477704Y-80779772D01*
X144477700Y-80779770D01*
X144477697Y-80779768D01*
X144477696Y-80779767D01*
X144241325Y-80665938D01*
X144241327Y-80665938D01*
X143990623Y-80588606D01*
X143990619Y-80588605D01*
X143990615Y-80588604D01*
X143865823Y-80569794D01*
X143731187Y-80549500D01*
X143731182Y-80549500D01*
X143468818Y-80549500D01*
X143468812Y-80549500D01*
X143307247Y-80573853D01*
X143209385Y-80588604D01*
X143209382Y-80588605D01*
X143209376Y-80588606D01*
X142958673Y-80665938D01*
X142722303Y-80779767D01*
X142722302Y-80779768D01*
X142505520Y-80927567D01*
X142313198Y-81106014D01*
X142149614Y-81311143D01*
X142018432Y-81538356D01*
X141922582Y-81782578D01*
X141922576Y-81782597D01*
X141864197Y-82038374D01*
X141864196Y-82038379D01*
X141844592Y-82299995D01*
X141844592Y-82300004D01*
X106117020Y-82300004D01*
X106836058Y-81580966D01*
X106918629Y-81457390D01*
X106975505Y-81320080D01*
X106983547Y-81279644D01*
X106984852Y-81274873D01*
X106984762Y-81274853D01*
X106986311Y-81268064D01*
X106986313Y-81268059D01*
X106986330Y-81267901D01*
X106987930Y-81257607D01*
X107004500Y-81174312D01*
X107004500Y-81113610D01*
X107005249Y-81100272D01*
X107005249Y-81099721D01*
X107004500Y-81086390D01*
X107004500Y-81025686D01*
X106987934Y-80942411D01*
X106986330Y-80932095D01*
X106986313Y-80931941D01*
X106986312Y-80931938D01*
X106984761Y-80925145D01*
X106984851Y-80925124D01*
X106983545Y-80920345D01*
X106975505Y-80879921D01*
X106930930Y-80772307D01*
X106918632Y-80742617D01*
X106918625Y-80742604D01*
X106836058Y-80619035D01*
X106836055Y-80619031D01*
X106730968Y-80513944D01*
X106730964Y-80513941D01*
X106607395Y-80431374D01*
X106607386Y-80431369D01*
X106470079Y-80374495D01*
X106470073Y-80374493D01*
X106429652Y-80366453D01*
X106424865Y-80365147D01*
X106424845Y-80365236D01*
X106418051Y-80363685D01*
X106417883Y-80363666D01*
X106407594Y-80362065D01*
X106324316Y-80345500D01*
X106324312Y-80345500D01*
X106263610Y-80345500D01*
X106250275Y-80344751D01*
X106249725Y-80344751D01*
X106236390Y-80345500D01*
X106175688Y-80345500D01*
X106092388Y-80362068D01*
X106082103Y-80363668D01*
X106081944Y-80363685D01*
X106075164Y-80365233D01*
X106075144Y-80365145D01*
X106070365Y-80366449D01*
X106029923Y-80374493D01*
X106029921Y-80374494D01*
X105892612Y-80431369D01*
X105892603Y-80431374D01*
X105769034Y-80513941D01*
X105769030Y-80513944D01*
X104023794Y-82259181D01*
X103962471Y-82292666D01*
X103936113Y-82295500D01*
X91413887Y-82295500D01*
X91346848Y-82275815D01*
X91326210Y-82259185D01*
X91264966Y-82197941D01*
X91264965Y-82197940D01*
X91260635Y-82193610D01*
X91260624Y-82193600D01*
X90017027Y-80950002D01*
X93094751Y-80950002D01*
X93113685Y-81118056D01*
X93169545Y-81277694D01*
X93169547Y-81277697D01*
X93259518Y-81420884D01*
X93259523Y-81420890D01*
X93379109Y-81540476D01*
X93379115Y-81540481D01*
X93522302Y-81630452D01*
X93522305Y-81630454D01*
X93522309Y-81630455D01*
X93522310Y-81630456D01*
X93594913Y-81655860D01*
X93681943Y-81686314D01*
X93849997Y-81705249D01*
X93850000Y-81705249D01*
X93850003Y-81705249D01*
X94018056Y-81686314D01*
X94034809Y-81680452D01*
X94177690Y-81630456D01*
X94177692Y-81630454D01*
X94177694Y-81630454D01*
X94177697Y-81630452D01*
X94320884Y-81540481D01*
X94320885Y-81540480D01*
X94320890Y-81540477D01*
X94440477Y-81420890D01*
X94440481Y-81420884D01*
X94530452Y-81277697D01*
X94530455Y-81277692D01*
X94530754Y-81276838D01*
X94586092Y-81118688D01*
X94615447Y-81071970D01*
X94773601Y-80913816D01*
X94834924Y-80880334D01*
X94861281Y-80877500D01*
X95320751Y-80877500D01*
X95387790Y-80897185D01*
X95433545Y-80949989D01*
X95442944Y-80993195D01*
X95443971Y-80993080D01*
X95463685Y-81168056D01*
X95519545Y-81327694D01*
X95519547Y-81327697D01*
X95609518Y-81470884D01*
X95609523Y-81470890D01*
X95729109Y-81590476D01*
X95729115Y-81590481D01*
X95872302Y-81680452D01*
X95872305Y-81680454D01*
X95872309Y-81680455D01*
X95872310Y-81680456D01*
X95900946Y-81690476D01*
X96031943Y-81736314D01*
X96199997Y-81755249D01*
X96200000Y-81755249D01*
X96200003Y-81755249D01*
X96368056Y-81736314D01*
X96391539Y-81728097D01*
X96527690Y-81680456D01*
X96527692Y-81680454D01*
X96527694Y-81680454D01*
X96527697Y-81680452D01*
X96670884Y-81590481D01*
X96670885Y-81590480D01*
X96670890Y-81590477D01*
X96790477Y-81470890D01*
X96798962Y-81457387D01*
X96884162Y-81321794D01*
X96885465Y-81322612D01*
X96926794Y-81276838D01*
X96991691Y-81258500D01*
X97580804Y-81258500D01*
X97580805Y-81258499D01*
X97702035Y-81234386D01*
X97782784Y-81200937D01*
X97816233Y-81187083D01*
X97848593Y-81165460D01*
X97915266Y-81144583D01*
X97982647Y-81163066D01*
X98029338Y-81215044D01*
X98034523Y-81227608D01*
X98069542Y-81327686D01*
X98069547Y-81327697D01*
X98159518Y-81470884D01*
X98159523Y-81470890D01*
X98279109Y-81590476D01*
X98279115Y-81590481D01*
X98422302Y-81680452D01*
X98422305Y-81680454D01*
X98422309Y-81680455D01*
X98422310Y-81680456D01*
X98450946Y-81690476D01*
X98581943Y-81736314D01*
X98749997Y-81755249D01*
X98750000Y-81755249D01*
X98750003Y-81755249D01*
X98918056Y-81736314D01*
X98941539Y-81728097D01*
X99077690Y-81680456D01*
X99077692Y-81680454D01*
X99077694Y-81680454D01*
X99077697Y-81680452D01*
X99220884Y-81590481D01*
X99220885Y-81590480D01*
X99220890Y-81590477D01*
X99340477Y-81470890D01*
X99367622Y-81427690D01*
X99430452Y-81327697D01*
X99430454Y-81327694D01*
X99430454Y-81327692D01*
X99430456Y-81327690D01*
X99486313Y-81168059D01*
X99486313Y-81168058D01*
X99486314Y-81168056D01*
X99505249Y-81000002D01*
X99505249Y-80999997D01*
X99486314Y-80831943D01*
X99455055Y-80742611D01*
X99430456Y-80672310D01*
X99399034Y-80622302D01*
X99396506Y-80618278D01*
X99377500Y-80552306D01*
X99377500Y-80250097D01*
X99397185Y-80183058D01*
X99413819Y-80162416D01*
X101112416Y-78463819D01*
X101173739Y-78430334D01*
X101200097Y-78427500D01*
X101352307Y-78427500D01*
X101418278Y-78446505D01*
X101472310Y-78480456D01*
X101593621Y-78522904D01*
X101631943Y-78536314D01*
X101799997Y-78555249D01*
X101800000Y-78555249D01*
X101800003Y-78555249D01*
X101968056Y-78536314D01*
X101968059Y-78536313D01*
X102127690Y-78480456D01*
X102127692Y-78480454D01*
X102127694Y-78480454D01*
X102127697Y-78480452D01*
X102270884Y-78390481D01*
X102270885Y-78390480D01*
X102270890Y-78390477D01*
X102390477Y-78270890D01*
X102433282Y-78202767D01*
X102480452Y-78127697D01*
X102480454Y-78127694D01*
X102480454Y-78127692D01*
X102480456Y-78127690D01*
X102536313Y-77968059D01*
X102536313Y-77968058D01*
X102536314Y-77968056D01*
X102555249Y-77800002D01*
X102555249Y-77799997D01*
X102536314Y-77631943D01*
X102480454Y-77472305D01*
X102480452Y-77472302D01*
X102390481Y-77329115D01*
X102390476Y-77329109D01*
X102270888Y-77209521D01*
X102130494Y-77121305D01*
X102084204Y-77068971D01*
X102073556Y-76999917D01*
X102101931Y-76936069D01*
X102108774Y-76928643D01*
X102767668Y-76269749D01*
X102828989Y-76236266D01*
X102874911Y-76236501D01*
X102875021Y-76235534D01*
X103049997Y-76255249D01*
X103050000Y-76255249D01*
X103050003Y-76255249D01*
X103218056Y-76236314D01*
X103242682Y-76227697D01*
X103377690Y-76180456D01*
X103377692Y-76180454D01*
X103377694Y-76180454D01*
X103377697Y-76180452D01*
X103520884Y-76090481D01*
X103520885Y-76090480D01*
X103520890Y-76090477D01*
X103612319Y-75999048D01*
X103673642Y-75965563D01*
X103743334Y-75970547D01*
X103787681Y-75999048D01*
X103879109Y-76090476D01*
X103879115Y-76090481D01*
X104022302Y-76180452D01*
X104022305Y-76180454D01*
X104022309Y-76180455D01*
X104022310Y-76180456D01*
X104094913Y-76205860D01*
X104181943Y-76236314D01*
X104349997Y-76255249D01*
X104350000Y-76255249D01*
X104350003Y-76255249D01*
X104518056Y-76236314D01*
X104542682Y-76227697D01*
X104677690Y-76180456D01*
X104677692Y-76180454D01*
X104677694Y-76180454D01*
X104677697Y-76180452D01*
X104820884Y-76090481D01*
X104820885Y-76090480D01*
X104820890Y-76090477D01*
X104940477Y-75970890D01*
X104963324Y-75934530D01*
X105030452Y-75827697D01*
X105030454Y-75827694D01*
X105030454Y-75827692D01*
X105030456Y-75827690D01*
X105086313Y-75668059D01*
X105086313Y-75668058D01*
X105086314Y-75668056D01*
X105105249Y-75500002D01*
X105105249Y-75499997D01*
X105086314Y-75331943D01*
X105064159Y-75268628D01*
X105030456Y-75172310D01*
X105030454Y-75172307D01*
X105030454Y-75172306D01*
X104967410Y-75071973D01*
X104948409Y-75004736D01*
X104967410Y-74940027D01*
X105030454Y-74839693D01*
X105030453Y-74839693D01*
X105030456Y-74839690D01*
X105086313Y-74680059D01*
X105086313Y-74680058D01*
X105086314Y-74680056D01*
X105105249Y-74512002D01*
X105105249Y-74511997D01*
X105086314Y-74343943D01*
X105030454Y-74184305D01*
X105030452Y-74184302D01*
X104940481Y-74041115D01*
X104940476Y-74041109D01*
X104820890Y-73921523D01*
X104820884Y-73921518D01*
X104677697Y-73831547D01*
X104677694Y-73831545D01*
X104518056Y-73775685D01*
X104350003Y-73756751D01*
X104349997Y-73756751D01*
X104181943Y-73775685D01*
X104022307Y-73831545D01*
X103968279Y-73865494D01*
X103902307Y-73884500D01*
X100026192Y-73884500D01*
X99904972Y-73908612D01*
X99904964Y-73908614D01*
X99824215Y-73942062D01*
X99790766Y-73955917D01*
X99790764Y-73955918D01*
X99710539Y-74009523D01*
X99710539Y-74009524D01*
X99687989Y-74024590D01*
X99687988Y-74024591D01*
X97926400Y-75786181D01*
X97865077Y-75819666D01*
X97838719Y-75822500D01*
X97497693Y-75822500D01*
X97431721Y-75803494D01*
X97377692Y-75769545D01*
X97377691Y-75769544D01*
X97377690Y-75769544D01*
X97339370Y-75756135D01*
X97218056Y-75713685D01*
X97050003Y-75694751D01*
X97049997Y-75694751D01*
X96881943Y-75713685D01*
X96722305Y-75769545D01*
X96722302Y-75769547D01*
X96579115Y-75859518D01*
X96579109Y-75859523D01*
X96459523Y-75979109D01*
X96459518Y-75979115D01*
X96369547Y-76122302D01*
X96369545Y-76122305D01*
X96313685Y-76281943D01*
X96294751Y-76449997D01*
X96294751Y-76450002D01*
X96313685Y-76618056D01*
X96369545Y-76777694D01*
X96369547Y-76777697D01*
X96459518Y-76920884D01*
X96459523Y-76920890D01*
X96579109Y-77040476D01*
X96579115Y-77040481D01*
X96722302Y-77130452D01*
X96722305Y-77130454D01*
X96722309Y-77130455D01*
X96722310Y-77130456D01*
X96794913Y-77155860D01*
X96881943Y-77186314D01*
X97049997Y-77205249D01*
X97050000Y-77205249D01*
X97050003Y-77205249D01*
X97218056Y-77186314D01*
X97218059Y-77186313D01*
X97377690Y-77130456D01*
X97431721Y-77096505D01*
X97497693Y-77077500D01*
X98211804Y-77077500D01*
X98211805Y-77077499D01*
X98333035Y-77053386D01*
X98413784Y-77019937D01*
X98447233Y-77006083D01*
X98550008Y-76937411D01*
X98637411Y-76850008D01*
X100311600Y-75175819D01*
X100372923Y-75142334D01*
X100399281Y-75139500D01*
X101284903Y-75139500D01*
X101351942Y-75159185D01*
X101397697Y-75211989D01*
X101407641Y-75281147D01*
X101378616Y-75344703D01*
X101372584Y-75351181D01*
X97137584Y-79586181D01*
X97076261Y-79619666D01*
X97049903Y-79622500D01*
X94488194Y-79622500D01*
X94392262Y-79641583D01*
X94373245Y-79645365D01*
X94366964Y-79646615D01*
X94366960Y-79646616D01*
X94252773Y-79693913D01*
X94252761Y-79693920D01*
X94162564Y-79754189D01*
X94162562Y-79754190D01*
X94149992Y-79762588D01*
X94149987Y-79762592D01*
X93728030Y-80184549D01*
X93681304Y-80213910D01*
X93522305Y-80269545D01*
X93522302Y-80269547D01*
X93379115Y-80359518D01*
X93379109Y-80359523D01*
X93259523Y-80479109D01*
X93259518Y-80479115D01*
X93169547Y-80622302D01*
X93169545Y-80622305D01*
X93113685Y-80781943D01*
X93094751Y-80949997D01*
X93094751Y-80950002D01*
X90017027Y-80950002D01*
X88376647Y-79309621D01*
X88376624Y-79309600D01*
X83940819Y-74873794D01*
X83907334Y-74812471D01*
X83904500Y-74786113D01*
X83904500Y-69363610D01*
X83905249Y-69350272D01*
X83905249Y-69349721D01*
X83904500Y-69336390D01*
X83904500Y-69275686D01*
X83894317Y-69224494D01*
X83887931Y-69192393D01*
X83886330Y-69182093D01*
X83886313Y-69181941D01*
X83886310Y-69181934D01*
X83886310Y-69181928D01*
X83884763Y-69175146D01*
X83884851Y-69175125D01*
X83883547Y-69170352D01*
X83875505Y-69129920D01*
X83818629Y-68992610D01*
X83806536Y-68974512D01*
X83736060Y-68869035D01*
X83736054Y-68869028D01*
X83630971Y-68763945D01*
X83630964Y-68763939D01*
X83507391Y-68681371D01*
X83370078Y-68624494D01*
X83370075Y-68624493D01*
X83329636Y-68616449D01*
X83324856Y-68615145D01*
X83324836Y-68615234D01*
X83318048Y-68613684D01*
X83317891Y-68613667D01*
X83307609Y-68612068D01*
X83224312Y-68595500D01*
X83224310Y-68595500D01*
X83163610Y-68595500D01*
X83150275Y-68594751D01*
X83149725Y-68594751D01*
X83136390Y-68595500D01*
X83075688Y-68595500D01*
X82992388Y-68612068D01*
X82982103Y-68613668D01*
X82981944Y-68613685D01*
X82975164Y-68615233D01*
X82975144Y-68615145D01*
X82970365Y-68616449D01*
X82929923Y-68624493D01*
X82929921Y-68624494D01*
X82792608Y-68681371D01*
X82669035Y-68763939D01*
X82669028Y-68763945D01*
X82563943Y-68869030D01*
X82549670Y-68890392D01*
X82496057Y-68935196D01*
X82446568Y-68945500D01*
X82413610Y-68945500D01*
X82400275Y-68944751D01*
X82399725Y-68944751D01*
X82386390Y-68945500D01*
X82325688Y-68945500D01*
X82242388Y-68962068D01*
X82232103Y-68963668D01*
X82231944Y-68963685D01*
X82225164Y-68965233D01*
X82225144Y-68965145D01*
X82220365Y-68966449D01*
X82179923Y-68974493D01*
X82179916Y-68974496D01*
X82179878Y-68974512D01*
X82179856Y-68974514D01*
X82174096Y-68976262D01*
X82173764Y-68975168D01*
X82110408Y-68981972D01*
X82047932Y-68950690D01*
X82012287Y-68890597D01*
X82014789Y-68820772D01*
X82044756Y-68772266D01*
X82352003Y-68465019D01*
X82370783Y-68449606D01*
X82465891Y-68386059D01*
X82570984Y-68280966D01*
X82653554Y-68157390D01*
X82710430Y-68020080D01*
X82718472Y-67979644D01*
X82719777Y-67974873D01*
X82719687Y-67974853D01*
X82721236Y-67968064D01*
X82721238Y-67968059D01*
X82721255Y-67967901D01*
X82722855Y-67957607D01*
X82739425Y-67874312D01*
X82739425Y-67813610D01*
X82740174Y-67800272D01*
X82740174Y-67799721D01*
X82739425Y-67786390D01*
X82739425Y-67725686D01*
X82722858Y-67642404D01*
X82721255Y-67632093D01*
X82721238Y-67631941D01*
X82721235Y-67631934D01*
X82721235Y-67631928D01*
X82719688Y-67625146D01*
X82719776Y-67625125D01*
X82718472Y-67620352D01*
X82710430Y-67579920D01*
X82653554Y-67442610D01*
X82570984Y-67319034D01*
X82570979Y-67319028D01*
X82465896Y-67213945D01*
X82465889Y-67213939D01*
X82342316Y-67131371D01*
X82205003Y-67074494D01*
X82205000Y-67074493D01*
X82164561Y-67066449D01*
X82159781Y-67065145D01*
X82159761Y-67065234D01*
X82152973Y-67063684D01*
X82152816Y-67063667D01*
X82142534Y-67062068D01*
X82059237Y-67045500D01*
X82059235Y-67045500D01*
X82030446Y-67045500D01*
X82030426Y-67045499D01*
X82024312Y-67045499D01*
X81998526Y-67045499D01*
X81985211Y-67044751D01*
X81984639Y-67044751D01*
X81971324Y-67045499D01*
X81875686Y-67045499D01*
X81770368Y-67066449D01*
X81754105Y-67069684D01*
X81739540Y-67072581D01*
X81729918Y-67074495D01*
X81729917Y-67074495D01*
X81673045Y-67098052D01*
X81673045Y-67098053D01*
X81592611Y-67131370D01*
X81592609Y-67131371D01*
X81469033Y-67213941D01*
X81416487Y-67266487D01*
X81363941Y-67319034D01*
X81363939Y-67319036D01*
X77612680Y-71070293D01*
X77551357Y-71103778D01*
X77481665Y-71098794D01*
X77437318Y-71070293D01*
X75730969Y-69363943D01*
X75730968Y-69363942D01*
X75607392Y-69281372D01*
X75607391Y-69281371D01*
X75607389Y-69281370D01*
X75607386Y-69281368D01*
X75607381Y-69281366D01*
X75470081Y-69224495D01*
X75470076Y-69224494D01*
X75429640Y-69216450D01*
X75424862Y-69215147D01*
X75424842Y-69215236D01*
X75418056Y-69213686D01*
X75417929Y-69213672D01*
X75417894Y-69213668D01*
X75407610Y-69212068D01*
X75324313Y-69195499D01*
X75324312Y-69195499D01*
X75263601Y-69195499D01*
X75250286Y-69194751D01*
X75249714Y-69194751D01*
X75236399Y-69195499D01*
X75175688Y-69195499D01*
X75146705Y-69201263D01*
X75092387Y-69212068D01*
X75082122Y-69213666D01*
X75081944Y-69213686D01*
X75075157Y-69215235D01*
X75075137Y-69215147D01*
X75070360Y-69216450D01*
X75029923Y-69224494D01*
X75029918Y-69224495D01*
X74892618Y-69281366D01*
X74892607Y-69281372D01*
X74769031Y-69363942D01*
X74663942Y-69469031D01*
X74581372Y-69592607D01*
X74581366Y-69592618D01*
X74524495Y-69729918D01*
X74524494Y-69729923D01*
X74516450Y-69770360D01*
X74515147Y-69775137D01*
X74515235Y-69775157D01*
X74513686Y-69781944D01*
X74513666Y-69782122D01*
X74512068Y-69792387D01*
X74509160Y-69807007D01*
X74497017Y-69868059D01*
X74495499Y-69875689D01*
X74495499Y-69936399D01*
X74494751Y-69949714D01*
X74494751Y-69950284D01*
X74495499Y-69963602D01*
X74495499Y-70024313D01*
X74512068Y-70107610D01*
X74513669Y-70117898D01*
X74513686Y-70118056D01*
X74515236Y-70124842D01*
X74515147Y-70124862D01*
X74516450Y-70129640D01*
X74524494Y-70170076D01*
X74524495Y-70170081D01*
X74581366Y-70307381D01*
X74581372Y-70307392D01*
X74663942Y-70430968D01*
X74663943Y-70430969D01*
X75470293Y-71237318D01*
X75503778Y-71298641D01*
X75498794Y-71368332D01*
X75470293Y-71412680D01*
X75309943Y-71573030D01*
X75248620Y-71606515D01*
X75178928Y-71601531D01*
X75122995Y-71559659D01*
X75117269Y-71551322D01*
X75040478Y-71429111D01*
X74920890Y-71309523D01*
X74920884Y-71309518D01*
X74777697Y-71219547D01*
X74777694Y-71219545D01*
X74618056Y-71163685D01*
X74450003Y-71144751D01*
X74449997Y-71144751D01*
X74281943Y-71163685D01*
X74122305Y-71219545D01*
X74122302Y-71219547D01*
X73979115Y-71309518D01*
X73979109Y-71309523D01*
X73859523Y-71429109D01*
X73859518Y-71429115D01*
X73769547Y-71572302D01*
X73769545Y-71572305D01*
X73713685Y-71731943D01*
X73694751Y-71899997D01*
X73694751Y-71900002D01*
X73713685Y-72068056D01*
X73769545Y-72227694D01*
X73769547Y-72227697D01*
X73859518Y-72370884D01*
X73859523Y-72370890D01*
X73979109Y-72490476D01*
X73979115Y-72490481D01*
X74122302Y-72580452D01*
X74122307Y-72580454D01*
X74122310Y-72580456D01*
X74139451Y-72586453D01*
X74196228Y-72627173D01*
X74221977Y-72692124D01*
X74222500Y-72703496D01*
X74222500Y-73852306D01*
X74203494Y-73918278D01*
X74169545Y-73972307D01*
X74113685Y-74131943D01*
X74094751Y-74299997D01*
X74094751Y-74300002D01*
X74113685Y-74468056D01*
X74169545Y-74627694D01*
X74169547Y-74627697D01*
X74259518Y-74770884D01*
X74259523Y-74770890D01*
X74379109Y-74890476D01*
X74379115Y-74890481D01*
X74522302Y-74980452D01*
X74522305Y-74980454D01*
X74522309Y-74980455D01*
X74522310Y-74980456D01*
X74591699Y-75004736D01*
X74681943Y-75036314D01*
X74849997Y-75055249D01*
X74849999Y-75055249D01*
X74849999Y-75055248D01*
X74850000Y-75055249D01*
X74914886Y-75047937D01*
X74983705Y-75059990D01*
X75016450Y-75083476D01*
X75119028Y-75186054D01*
X75119035Y-75186060D01*
X75242608Y-75268628D01*
X75242609Y-75268628D01*
X75242610Y-75268629D01*
X75379920Y-75325505D01*
X75420352Y-75333547D01*
X75425125Y-75334851D01*
X75425146Y-75334763D01*
X75431928Y-75336310D01*
X75431934Y-75336310D01*
X75431941Y-75336313D01*
X75432093Y-75336330D01*
X75442393Y-75337931D01*
X75500021Y-75349394D01*
X75525687Y-75354500D01*
X75525688Y-75354500D01*
X75586390Y-75354500D01*
X75599725Y-75355249D01*
X75600000Y-75355249D01*
X75600275Y-75355249D01*
X75613610Y-75354500D01*
X75621500Y-75354500D01*
X75688539Y-75374185D01*
X75734294Y-75426989D01*
X75745500Y-75478500D01*
X75745500Y-75536390D01*
X75744751Y-75549721D01*
X75744751Y-75550272D01*
X75745500Y-75563610D01*
X75745500Y-75624312D01*
X75762067Y-75707600D01*
X75763667Y-75717891D01*
X75763684Y-75718048D01*
X75765234Y-75724836D01*
X75765145Y-75724856D01*
X75766449Y-75729636D01*
X75774493Y-75770075D01*
X75774494Y-75770078D01*
X75831371Y-75907391D01*
X75913939Y-76030964D01*
X75913945Y-76030971D01*
X76019028Y-76136054D01*
X76019035Y-76136060D01*
X76142608Y-76218628D01*
X76142609Y-76218628D01*
X76142610Y-76218629D01*
X76279920Y-76275505D01*
X76320352Y-76283547D01*
X76325125Y-76284851D01*
X76325146Y-76284763D01*
X76331928Y-76286310D01*
X76331934Y-76286310D01*
X76331941Y-76286313D01*
X76332093Y-76286330D01*
X76342393Y-76287931D01*
X76400021Y-76299394D01*
X76425687Y-76304500D01*
X76425688Y-76304500D01*
X76486390Y-76304500D01*
X76499725Y-76305249D01*
X76500000Y-76305249D01*
X76500275Y-76305249D01*
X76513610Y-76304500D01*
X76574313Y-76304500D01*
X76590097Y-76301359D01*
X76657607Y-76287930D01*
X76667901Y-76286330D01*
X76668059Y-76286313D01*
X76668066Y-76286310D01*
X76674853Y-76284762D01*
X76674873Y-76284852D01*
X76679644Y-76283547D01*
X76720080Y-76275505D01*
X76857390Y-76218629D01*
X76980966Y-76136059D01*
X77086059Y-76030966D01*
X77168629Y-75907390D01*
X77225505Y-75770080D01*
X77233550Y-75729636D01*
X77234852Y-75724873D01*
X77234762Y-75724853D01*
X77236311Y-75718064D01*
X77236313Y-75718059D01*
X77236332Y-75717891D01*
X77237932Y-75707600D01*
X77254500Y-75624312D01*
X77254500Y-75563610D01*
X77255249Y-75550272D01*
X77255249Y-75549721D01*
X77254500Y-75536390D01*
X77254500Y-73613885D01*
X77274185Y-73546846D01*
X77290815Y-73526208D01*
X77720756Y-73096266D01*
X77720761Y-73096263D01*
X77730964Y-73086059D01*
X77730966Y-73086059D01*
X81472264Y-69344758D01*
X81533587Y-69311274D01*
X81603279Y-69316258D01*
X81659212Y-69358130D01*
X81683629Y-69423594D01*
X81675485Y-69473860D01*
X81676262Y-69474096D01*
X81674513Y-69479860D01*
X81674509Y-69479886D01*
X81674495Y-69479919D01*
X81674493Y-69479923D01*
X81666449Y-69520365D01*
X81665145Y-69525144D01*
X81665233Y-69525164D01*
X81663685Y-69531944D01*
X81663668Y-69532103D01*
X81662068Y-69542388D01*
X81645500Y-69625688D01*
X81645500Y-69686390D01*
X81644751Y-69699721D01*
X81644751Y-69700272D01*
X81645500Y-69713610D01*
X81645500Y-75370552D01*
X81645499Y-75370578D01*
X81645499Y-75524313D01*
X81649286Y-75543352D01*
X81665390Y-75624309D01*
X81665391Y-75624311D01*
X81665391Y-75624313D01*
X81674493Y-75670073D01*
X81674496Y-75670083D01*
X81692558Y-75713688D01*
X81731366Y-75807381D01*
X81731372Y-75807392D01*
X81813942Y-75930968D01*
X81813943Y-75930969D01*
X89209181Y-83326206D01*
X89242666Y-83387529D01*
X89245500Y-83413887D01*
X89245500Y-84486390D01*
X89244751Y-84499721D01*
X89244751Y-84500272D01*
X89245500Y-84513610D01*
X89245500Y-84574312D01*
X89262067Y-84657600D01*
X89263667Y-84667891D01*
X89263684Y-84668048D01*
X89265234Y-84674836D01*
X89265145Y-84674856D01*
X89266449Y-84679636D01*
X89274493Y-84720075D01*
X89274494Y-84720078D01*
X89331371Y-84857391D01*
X89413939Y-84980964D01*
X89413945Y-84980971D01*
X89519028Y-85086054D01*
X89519035Y-85086060D01*
X89642608Y-85168628D01*
X89642609Y-85168628D01*
X89642610Y-85168629D01*
X89779920Y-85225505D01*
X89820352Y-85233547D01*
X89825125Y-85234851D01*
X89825146Y-85234763D01*
X89831928Y-85236310D01*
X89831934Y-85236310D01*
X89831941Y-85236313D01*
X89832093Y-85236330D01*
X89842400Y-85237932D01*
X89925688Y-85254500D01*
X89925689Y-85254500D01*
X89929691Y-85255296D01*
X89991602Y-85287681D01*
X90026176Y-85348397D01*
X90029500Y-85376913D01*
X90029500Y-93614079D01*
X90009815Y-93681118D01*
X89993181Y-93701760D01*
X89458943Y-94235997D01*
X89458942Y-94235998D01*
X89376372Y-94359574D01*
X89376366Y-94359585D01*
X89319496Y-94496883D01*
X89319493Y-94496893D01*
X89290499Y-94642652D01*
X89290499Y-94797392D01*
X89290500Y-94797413D01*
X89290500Y-99815099D01*
X89270815Y-99882138D01*
X89237624Y-99916674D01*
X89173599Y-99961505D01*
X89173597Y-99961506D01*
X89006505Y-100128597D01*
X88876575Y-100314158D01*
X88821998Y-100357783D01*
X88752500Y-100364977D01*
X88690145Y-100333454D01*
X88673425Y-100314158D01*
X88543494Y-100128597D01*
X88376402Y-99961506D01*
X88376395Y-99961501D01*
X88182834Y-99825967D01*
X88182830Y-99825965D01*
X88103586Y-99789013D01*
X87968663Y-99726097D01*
X87968659Y-99726096D01*
X87968655Y-99726094D01*
X87740413Y-99664938D01*
X87740403Y-99664936D01*
X87505001Y-99644341D01*
X87504999Y-99644341D01*
X87269596Y-99664936D01*
X87269586Y-99664938D01*
X87041344Y-99726094D01*
X87041335Y-99726098D01*
X86827171Y-99825964D01*
X86827169Y-99825965D01*
X86633597Y-99961505D01*
X86466505Y-100128597D01*
X86336575Y-100314158D01*
X86281998Y-100357783D01*
X86212500Y-100364977D01*
X86150145Y-100333454D01*
X86133425Y-100314158D01*
X86003494Y-100128597D01*
X85836402Y-99961506D01*
X85836395Y-99961501D01*
X85642834Y-99825967D01*
X85642830Y-99825965D01*
X85563586Y-99789013D01*
X85428663Y-99726097D01*
X85428659Y-99726096D01*
X85428655Y-99726094D01*
X85200413Y-99664938D01*
X85200403Y-99664936D01*
X84965001Y-99644341D01*
X84964999Y-99644341D01*
X84729596Y-99664936D01*
X84729586Y-99664938D01*
X84501344Y-99726094D01*
X84501335Y-99726098D01*
X84287171Y-99825964D01*
X84287169Y-99825965D01*
X84093597Y-99961505D01*
X83926505Y-100128597D01*
X83796575Y-100314158D01*
X83741998Y-100357783D01*
X83672500Y-100364977D01*
X83610145Y-100333454D01*
X83593425Y-100314158D01*
X83463494Y-100128597D01*
X83296402Y-99961506D01*
X83296395Y-99961501D01*
X83102834Y-99825967D01*
X83102830Y-99825965D01*
X83023586Y-99789013D01*
X82888663Y-99726097D01*
X82888659Y-99726096D01*
X82888655Y-99726094D01*
X82660413Y-99664938D01*
X82660403Y-99664936D01*
X82425001Y-99644341D01*
X82424999Y-99644341D01*
X82189596Y-99664936D01*
X82189586Y-99664938D01*
X81961344Y-99726094D01*
X81961335Y-99726098D01*
X81747171Y-99825964D01*
X81747169Y-99825965D01*
X81553597Y-99961505D01*
X81386505Y-100128597D01*
X81256575Y-100314158D01*
X81201998Y-100357783D01*
X81132500Y-100364977D01*
X81070145Y-100333454D01*
X81053425Y-100314158D01*
X80923494Y-100128597D01*
X80756402Y-99961506D01*
X80756395Y-99961501D01*
X80562834Y-99825967D01*
X80562830Y-99825965D01*
X80483586Y-99789013D01*
X80348663Y-99726097D01*
X80348659Y-99726096D01*
X80348655Y-99726094D01*
X80120413Y-99664938D01*
X80120403Y-99664936D01*
X79885001Y-99644341D01*
X79884999Y-99644341D01*
X79649596Y-99664936D01*
X79649586Y-99664938D01*
X79421344Y-99726094D01*
X79421335Y-99726098D01*
X79207171Y-99825964D01*
X79207169Y-99825965D01*
X79013597Y-99961505D01*
X78846505Y-100128597D01*
X78716575Y-100314158D01*
X78661998Y-100357783D01*
X78592500Y-100364977D01*
X78530145Y-100333454D01*
X78513425Y-100314158D01*
X78383494Y-100128597D01*
X78216402Y-99961506D01*
X78216395Y-99961501D01*
X78022834Y-99825967D01*
X78022830Y-99825965D01*
X77943586Y-99789013D01*
X77808663Y-99726097D01*
X77808659Y-99726096D01*
X77808655Y-99726094D01*
X77580413Y-99664938D01*
X77580403Y-99664936D01*
X77345001Y-99644341D01*
X77344999Y-99644341D01*
X77109596Y-99664936D01*
X77109586Y-99664938D01*
X76881344Y-99726094D01*
X76881335Y-99726098D01*
X76667171Y-99825964D01*
X76667169Y-99825965D01*
X76473597Y-99961505D01*
X76306505Y-100128597D01*
X76176575Y-100314158D01*
X76121998Y-100357783D01*
X76052500Y-100364977D01*
X75990145Y-100333454D01*
X75973425Y-100314158D01*
X75843494Y-100128597D01*
X75676402Y-99961506D01*
X75676395Y-99961501D01*
X75482834Y-99825967D01*
X75482830Y-99825965D01*
X75403586Y-99789013D01*
X75268663Y-99726097D01*
X75268659Y-99726096D01*
X75268655Y-99726094D01*
X75040413Y-99664938D01*
X75040403Y-99664936D01*
X74805001Y-99644341D01*
X74804999Y-99644341D01*
X74569596Y-99664936D01*
X74569586Y-99664938D01*
X74341344Y-99726094D01*
X74341335Y-99726098D01*
X74127171Y-99825964D01*
X74127169Y-99825965D01*
X73933597Y-99961505D01*
X73766505Y-100128597D01*
X73636575Y-100314158D01*
X73581998Y-100357783D01*
X73512500Y-100364977D01*
X73450145Y-100333454D01*
X73433425Y-100314158D01*
X73303494Y-100128597D01*
X73136402Y-99961506D01*
X73136395Y-99961501D01*
X72942834Y-99825967D01*
X72942830Y-99825965D01*
X72863586Y-99789013D01*
X72728663Y-99726097D01*
X72728659Y-99726096D01*
X72728655Y-99726094D01*
X72500413Y-99664938D01*
X72500403Y-99664936D01*
X72265001Y-99644341D01*
X72264999Y-99644341D01*
X72029596Y-99664936D01*
X72029586Y-99664938D01*
X71801344Y-99726094D01*
X71801335Y-99726098D01*
X71587171Y-99825964D01*
X71587169Y-99825965D01*
X71393597Y-99961505D01*
X71226505Y-100128597D01*
X71090965Y-100322169D01*
X71090964Y-100322171D01*
X70991098Y-100536335D01*
X70991094Y-100536344D01*
X70929938Y-100764586D01*
X70929936Y-100764596D01*
X70909341Y-100999999D01*
X70909341Y-101000000D01*
X67525121Y-101000000D01*
X67525121Y-100913129D01*
X68225121Y-100913129D01*
X68225121Y-100776557D01*
X68198035Y-100605544D01*
X68144529Y-100440871D01*
X68065925Y-100286604D01*
X67964153Y-100146526D01*
X67841723Y-100024096D01*
X67701645Y-99922324D01*
X67547378Y-99843720D01*
X67382710Y-99790216D01*
X67382702Y-99790214D01*
X67375121Y-99789013D01*
X67375121Y-100547443D01*
X67370727Y-100543049D01*
X67279515Y-100490388D01*
X67177782Y-100463129D01*
X67072460Y-100463129D01*
X66970727Y-100490388D01*
X66879515Y-100543049D01*
X66875121Y-100547443D01*
X66875121Y-99789013D01*
X66875120Y-99789013D01*
X66867539Y-99790214D01*
X66867531Y-99790216D01*
X66702863Y-99843720D01*
X66548596Y-99922324D01*
X66408518Y-100024096D01*
X66286088Y-100146526D01*
X66184316Y-100286604D01*
X66105712Y-100440871D01*
X66052206Y-100605544D01*
X66025121Y-100776557D01*
X66025121Y-100913129D01*
X66725121Y-100913129D01*
X66725121Y-101413129D01*
X66025121Y-101413129D01*
X66025121Y-101549700D01*
X59574879Y-101549700D01*
X59574879Y-101413129D01*
X58874879Y-101413129D01*
X58874879Y-100913129D01*
X59574879Y-100913129D01*
X59574879Y-100776557D01*
X59547793Y-100605544D01*
X59494287Y-100440871D01*
X59415683Y-100286604D01*
X59313911Y-100146526D01*
X59191481Y-100024096D01*
X59051403Y-99922324D01*
X58897136Y-99843720D01*
X58732468Y-99790216D01*
X58732460Y-99790214D01*
X58724879Y-99789013D01*
X58724879Y-100547443D01*
X58720485Y-100543049D01*
X58629273Y-100490388D01*
X58527540Y-100463129D01*
X58422218Y-100463129D01*
X58320485Y-100490388D01*
X58229273Y-100543049D01*
X58224879Y-100547443D01*
X58224879Y-99789013D01*
X58224878Y-99789013D01*
X58217297Y-99790214D01*
X58217289Y-99790216D01*
X58052621Y-99843720D01*
X57898354Y-99922324D01*
X57758276Y-100024096D01*
X57635846Y-100146526D01*
X57534074Y-100286604D01*
X57455470Y-100440871D01*
X57401964Y-100605544D01*
X57374879Y-100776557D01*
X57374879Y-100913129D01*
X58074879Y-100913129D01*
X58074879Y-101413129D01*
X57374879Y-101413129D01*
X57374879Y-101549700D01*
X55338415Y-101549700D01*
X55385783Y-101301390D01*
X55385784Y-101301383D01*
X55404745Y-101000005D01*
X55404745Y-100999994D01*
X55385784Y-100698616D01*
X55385783Y-100698609D01*
X55329194Y-100401959D01*
X55235874Y-100114752D01*
X55235872Y-100114747D01*
X55107295Y-99841507D01*
X55107292Y-99841502D01*
X54945483Y-99586530D01*
X54864686Y-99488864D01*
X53936289Y-100417261D01*
X53839033Y-100283398D01*
X53716602Y-100160967D01*
X53582736Y-100063709D01*
X54513434Y-99133011D01*
X54513433Y-99133009D01*
X54288538Y-98969614D01*
X54288520Y-98969602D01*
X54023890Y-98824121D01*
X54023882Y-98824117D01*
X53743110Y-98712952D01*
X53743107Y-98712951D01*
X53450600Y-98637849D01*
X53151004Y-98600000D01*
X52848995Y-98600000D01*
X52549399Y-98637849D01*
X52256892Y-98712951D01*
X52256889Y-98712952D01*
X51976117Y-98824117D01*
X51976109Y-98824121D01*
X51711476Y-98969604D01*
X51711471Y-98969607D01*
X51486565Y-99133010D01*
X51486564Y-99133011D01*
X52417262Y-100063709D01*
X52283398Y-100160967D01*
X52160967Y-100283398D01*
X52063709Y-100417262D01*
X51135311Y-99488864D01*
X51054520Y-99586525D01*
X51054518Y-99586528D01*
X50892707Y-99841502D01*
X50892705Y-99841507D01*
X50764127Y-100114747D01*
X50764125Y-100114752D01*
X50742431Y-100181520D01*
X50702993Y-100239196D01*
X50638635Y-100266394D01*
X50569788Y-100254479D01*
X50518313Y-100207235D01*
X50500500Y-100143202D01*
X50500500Y-97469868D01*
X57374879Y-97469868D01*
X57401964Y-97640881D01*
X57455470Y-97805554D01*
X57534074Y-97959821D01*
X57635846Y-98099899D01*
X57758276Y-98222329D01*
X57898354Y-98324101D01*
X58052623Y-98402705D01*
X58217294Y-98456211D01*
X58217293Y-98456211D01*
X58224878Y-98457412D01*
X58224879Y-98457411D01*
X58224879Y-97698996D01*
X58229273Y-97703390D01*
X58320485Y-97756051D01*
X58422218Y-97783310D01*
X58527540Y-97783310D01*
X58629273Y-97756051D01*
X58720485Y-97703390D01*
X58724879Y-97698996D01*
X58724879Y-98457412D01*
X58732463Y-98456211D01*
X58897134Y-98402705D01*
X59051403Y-98324101D01*
X59191481Y-98222329D01*
X59313913Y-98099897D01*
X59368966Y-98024121D01*
X59424296Y-97981454D01*
X59493909Y-97975473D01*
X59538177Y-97993902D01*
X59603780Y-98037737D01*
X59603784Y-98037739D01*
X59603787Y-98037741D01*
X59717622Y-98084894D01*
X59838469Y-98108931D01*
X59838471Y-98108931D01*
X59961681Y-98108931D01*
X59961683Y-98108931D01*
X60082530Y-98084894D01*
X60196365Y-98037741D01*
X60298814Y-97969287D01*
X60385939Y-97882162D01*
X60454393Y-97779713D01*
X60501546Y-97665878D01*
X60525583Y-97545031D01*
X60525583Y-97421817D01*
X60521244Y-97400002D01*
X61144751Y-97400002D01*
X61163685Y-97568056D01*
X61219545Y-97727694D01*
X61219547Y-97727697D01*
X61309518Y-97870884D01*
X61309523Y-97870890D01*
X61429109Y-97990476D01*
X61429115Y-97990481D01*
X61572302Y-98080452D01*
X61572305Y-98080454D01*
X61572309Y-98080455D01*
X61572310Y-98080456D01*
X61627875Y-98099899D01*
X61731943Y-98136314D01*
X61899997Y-98155249D01*
X61900000Y-98155249D01*
X61900003Y-98155249D01*
X62068056Y-98136314D01*
X62068059Y-98136313D01*
X62227690Y-98080456D01*
X62281721Y-98046505D01*
X62347693Y-98027500D01*
X63102307Y-98027500D01*
X63168278Y-98046505D01*
X63222310Y-98080456D01*
X63343621Y-98122904D01*
X63381943Y-98136314D01*
X63549997Y-98155249D01*
X63550000Y-98155249D01*
X63550003Y-98155249D01*
X63718056Y-98136314D01*
X63718059Y-98136313D01*
X63877690Y-98080456D01*
X63877692Y-98080454D01*
X63877694Y-98080454D01*
X63877697Y-98080452D01*
X64020884Y-97990481D01*
X64020885Y-97990480D01*
X64020890Y-97990477D01*
X64140477Y-97870890D01*
X64181531Y-97805554D01*
X64230452Y-97727697D01*
X64230454Y-97727694D01*
X64230454Y-97727692D01*
X64230456Y-97727690D01*
X64286313Y-97568059D01*
X64286313Y-97568058D01*
X64286314Y-97568056D01*
X64288908Y-97545031D01*
X65074417Y-97545031D01*
X65098454Y-97665878D01*
X65098455Y-97665880D01*
X65145605Y-97779709D01*
X65145610Y-97779719D01*
X65214060Y-97882161D01*
X65214063Y-97882165D01*
X65301182Y-97969284D01*
X65301186Y-97969287D01*
X65403628Y-98037737D01*
X65403632Y-98037739D01*
X65403635Y-98037741D01*
X65517470Y-98084894D01*
X65638317Y-98108931D01*
X65638319Y-98108931D01*
X65761529Y-98108931D01*
X65761531Y-98108931D01*
X65882378Y-98084894D01*
X65996213Y-98037741D01*
X66016597Y-98024121D01*
X66061822Y-97993903D01*
X66128500Y-97973025D01*
X66195880Y-97991510D01*
X66231032Y-98024120D01*
X66286088Y-98099899D01*
X66408518Y-98222329D01*
X66548596Y-98324101D01*
X66702865Y-98402705D01*
X66867536Y-98456211D01*
X66867535Y-98456211D01*
X66875120Y-98457412D01*
X66875121Y-98457411D01*
X66875121Y-97698971D01*
X66879515Y-97703365D01*
X66970727Y-97756026D01*
X67072460Y-97783285D01*
X67177782Y-97783285D01*
X67279515Y-97756026D01*
X67370727Y-97703365D01*
X67375121Y-97698971D01*
X67375121Y-98457412D01*
X67382705Y-98456211D01*
X67547376Y-98402705D01*
X67701645Y-98324101D01*
X67841723Y-98222329D01*
X67964153Y-98099899D01*
X68065925Y-97959821D01*
X68144529Y-97805554D01*
X68198035Y-97640881D01*
X68225121Y-97469868D01*
X68225121Y-97233297D01*
X67525121Y-97233297D01*
X67525121Y-96733297D01*
X68225121Y-96733297D01*
X68225121Y-96496725D01*
X68198035Y-96325712D01*
X68144529Y-96161039D01*
X68065925Y-96006772D01*
X67964153Y-95866694D01*
X67841723Y-95744264D01*
X67701645Y-95642492D01*
X67547378Y-95563888D01*
X67382710Y-95510384D01*
X67382702Y-95510382D01*
X67375121Y-95509181D01*
X67375121Y-96267623D01*
X67370727Y-96263229D01*
X67279515Y-96210568D01*
X67177782Y-96183309D01*
X67072460Y-96183309D01*
X66970727Y-96210568D01*
X66879515Y-96263229D01*
X66875121Y-96267623D01*
X66875121Y-95509181D01*
X66875120Y-95509181D01*
X66867539Y-95510382D01*
X66867531Y-95510384D01*
X66702863Y-95563888D01*
X66548596Y-95642492D01*
X66408518Y-95744264D01*
X66286088Y-95866694D01*
X66184316Y-96006772D01*
X66105712Y-96161039D01*
X66052206Y-96325712D01*
X66025121Y-96496725D01*
X66025121Y-96759253D01*
X66005436Y-96826292D01*
X65952632Y-96872047D01*
X65883474Y-96881991D01*
X65876946Y-96880873D01*
X65761531Y-96857917D01*
X65638317Y-96857917D01*
X65517470Y-96881954D01*
X65517468Y-96881954D01*
X65517467Y-96881955D01*
X65403638Y-96929105D01*
X65403628Y-96929110D01*
X65301186Y-96997560D01*
X65301182Y-96997563D01*
X65214063Y-97084682D01*
X65214060Y-97084686D01*
X65145610Y-97187128D01*
X65145605Y-97187138D01*
X65098455Y-97300967D01*
X65098454Y-97300970D01*
X65074417Y-97421817D01*
X65074417Y-97545031D01*
X64288908Y-97545031D01*
X64305249Y-97400002D01*
X64305249Y-97399997D01*
X64286314Y-97231943D01*
X64255860Y-97144913D01*
X64230456Y-97072310D01*
X64230455Y-97072309D01*
X64230454Y-97072305D01*
X64230452Y-97072302D01*
X64140481Y-96929115D01*
X64140476Y-96929109D01*
X64020890Y-96809523D01*
X64020884Y-96809518D01*
X63877697Y-96719547D01*
X63877694Y-96719545D01*
X63718056Y-96663685D01*
X63550003Y-96644751D01*
X63549997Y-96644751D01*
X63381943Y-96663685D01*
X63222307Y-96719545D01*
X63168279Y-96753494D01*
X63102307Y-96772500D01*
X62347693Y-96772500D01*
X62281721Y-96753494D01*
X62227692Y-96719545D01*
X62227691Y-96719544D01*
X62227690Y-96719544D01*
X62189370Y-96706135D01*
X62068056Y-96663685D01*
X61900003Y-96644751D01*
X61899997Y-96644751D01*
X61731943Y-96663685D01*
X61572305Y-96719545D01*
X61572302Y-96719547D01*
X61429115Y-96809518D01*
X61429109Y-96809523D01*
X61309523Y-96929109D01*
X61309518Y-96929115D01*
X61219547Y-97072302D01*
X61219545Y-97072305D01*
X61163685Y-97231943D01*
X61144751Y-97399997D01*
X61144751Y-97400002D01*
X60521244Y-97400002D01*
X60501546Y-97300970D01*
X60454393Y-97187135D01*
X60454391Y-97187132D01*
X60454389Y-97187128D01*
X60385939Y-97084686D01*
X60385936Y-97084682D01*
X60298817Y-96997563D01*
X60298813Y-96997560D01*
X60196371Y-96929110D01*
X60196361Y-96929105D01*
X60082532Y-96881955D01*
X60082530Y-96881954D01*
X59961683Y-96857917D01*
X59838469Y-96857917D01*
X59723067Y-96880870D01*
X59653478Y-96874643D01*
X59598301Y-96831779D01*
X59575057Y-96765889D01*
X59574879Y-96759253D01*
X59574879Y-96496725D01*
X59547793Y-96325712D01*
X59494287Y-96161039D01*
X59415683Y-96006772D01*
X59313911Y-95866694D01*
X59191481Y-95744264D01*
X59051403Y-95642492D01*
X58897136Y-95563888D01*
X58732468Y-95510384D01*
X58732460Y-95510382D01*
X58724879Y-95509181D01*
X58724879Y-96267598D01*
X58720485Y-96263204D01*
X58629273Y-96210543D01*
X58527540Y-96183284D01*
X58422218Y-96183284D01*
X58320485Y-96210543D01*
X58229273Y-96263204D01*
X58224879Y-96267598D01*
X58224879Y-95509181D01*
X58224878Y-95509181D01*
X58217297Y-95510382D01*
X58217289Y-95510384D01*
X58052621Y-95563888D01*
X57898354Y-95642492D01*
X57758276Y-95744264D01*
X57635846Y-95866694D01*
X57534074Y-96006772D01*
X57455470Y-96161039D01*
X57401964Y-96325712D01*
X57374879Y-96496725D01*
X57374879Y-96733297D01*
X58074879Y-96733297D01*
X58074879Y-97233297D01*
X57374879Y-97233297D01*
X57374879Y-97469868D01*
X50500500Y-97469868D01*
X50500500Y-84500005D01*
X58794357Y-84500005D01*
X58814890Y-84747812D01*
X58814892Y-84747824D01*
X58875936Y-84988881D01*
X58975826Y-85216606D01*
X59111833Y-85424782D01*
X59111836Y-85424785D01*
X59280256Y-85607738D01*
X59476491Y-85760474D01*
X59476493Y-85760475D01*
X59694332Y-85878364D01*
X59695190Y-85878828D01*
X59884426Y-85943793D01*
X59928964Y-85959083D01*
X59930386Y-85959571D01*
X60175665Y-86000500D01*
X60424335Y-86000500D01*
X60669614Y-85959571D01*
X60904810Y-85878828D01*
X61123509Y-85760474D01*
X61319744Y-85607738D01*
X61488164Y-85424785D01*
X61488169Y-85424777D01*
X61491311Y-85420741D01*
X61493050Y-85422094D01*
X61539095Y-85382764D01*
X61568378Y-85378069D01*
X62317037Y-84629409D01*
X62334075Y-84692993D01*
X62399901Y-84807007D01*
X62492993Y-84900099D01*
X62607007Y-84965925D01*
X62670588Y-84982962D01*
X61929942Y-85723609D01*
X61976768Y-85760055D01*
X61976770Y-85760056D01*
X62195385Y-85878364D01*
X62195396Y-85878369D01*
X62430506Y-85959083D01*
X62675707Y-86000000D01*
X62924293Y-86000000D01*
X63169493Y-85959083D01*
X63404603Y-85878369D01*
X63404614Y-85878364D01*
X63623230Y-85760056D01*
X63623236Y-85760051D01*
X63679107Y-85716565D01*
X63744101Y-85690921D01*
X63812641Y-85704487D01*
X63854537Y-85740105D01*
X63942455Y-85857547D01*
X64057664Y-85943793D01*
X64057671Y-85943797D01*
X64192517Y-85994091D01*
X64192516Y-85994091D01*
X64199444Y-85994835D01*
X64252127Y-86000500D01*
X66347872Y-86000499D01*
X66407483Y-85994091D01*
X66542331Y-85943796D01*
X66657546Y-85857546D01*
X66743796Y-85742331D01*
X66794091Y-85607483D01*
X66800500Y-85547873D01*
X66800499Y-83452128D01*
X66794091Y-83392517D01*
X66762101Y-83306748D01*
X66743797Y-83257671D01*
X66743793Y-83257664D01*
X66657547Y-83142455D01*
X66657544Y-83142452D01*
X66542335Y-83056206D01*
X66542328Y-83056202D01*
X66407482Y-83005908D01*
X66407483Y-83005908D01*
X66347883Y-82999501D01*
X66347881Y-82999500D01*
X66347873Y-82999500D01*
X66347864Y-82999500D01*
X64252129Y-82999500D01*
X64252123Y-82999501D01*
X64192516Y-83005908D01*
X64057671Y-83056202D01*
X64057664Y-83056206D01*
X63942455Y-83142452D01*
X63854537Y-83259894D01*
X63798603Y-83301764D01*
X63728911Y-83306748D01*
X63679109Y-83283436D01*
X63623230Y-83239943D01*
X63623228Y-83239942D01*
X63404614Y-83121635D01*
X63404603Y-83121630D01*
X63169493Y-83040916D01*
X62924293Y-83000000D01*
X62675707Y-83000000D01*
X62430506Y-83040916D01*
X62195396Y-83121630D01*
X62195390Y-83121632D01*
X61976761Y-83239949D01*
X61929942Y-83276388D01*
X61929942Y-83276390D01*
X62670590Y-84017037D01*
X62607007Y-84034075D01*
X62492993Y-84099901D01*
X62399901Y-84192993D01*
X62334075Y-84307007D01*
X62317037Y-84370589D01*
X61567372Y-83620924D01*
X61533885Y-83614752D01*
X61492873Y-83578053D01*
X61491317Y-83579265D01*
X61488169Y-83575220D01*
X61442865Y-83526007D01*
X61319744Y-83392262D01*
X61123509Y-83239526D01*
X61123507Y-83239525D01*
X61123506Y-83239524D01*
X60904811Y-83121172D01*
X60904802Y-83121169D01*
X60669616Y-83040429D01*
X60424335Y-82999500D01*
X60175665Y-82999500D01*
X59930383Y-83040429D01*
X59695197Y-83121169D01*
X59695188Y-83121172D01*
X59476493Y-83239524D01*
X59280257Y-83392261D01*
X59111833Y-83575217D01*
X58975826Y-83783393D01*
X58875936Y-84011118D01*
X58814892Y-84252175D01*
X58814890Y-84252187D01*
X58794357Y-84499994D01*
X58794357Y-84500005D01*
X50500500Y-84500005D01*
X50500500Y-78647870D01*
X55699500Y-78647870D01*
X55699501Y-78647876D01*
X55705908Y-78707483D01*
X55756202Y-78842328D01*
X55756206Y-78842335D01*
X55842452Y-78957544D01*
X55842455Y-78957547D01*
X55957664Y-79043793D01*
X55957671Y-79043797D01*
X56092517Y-79094091D01*
X56092516Y-79094091D01*
X56099444Y-79094835D01*
X56152127Y-79100500D01*
X58247872Y-79100499D01*
X58307483Y-79094091D01*
X58442331Y-79043796D01*
X58557546Y-78957546D01*
X58643796Y-78842331D01*
X58694091Y-78707483D01*
X58700500Y-78647873D01*
X58700499Y-78103547D01*
X58720183Y-78036511D01*
X58772987Y-77990756D01*
X58842146Y-77980812D01*
X58905702Y-78009837D01*
X58943476Y-78068615D01*
X58944783Y-78073418D01*
X58967143Y-78162684D01*
X59005860Y-78270890D01*
X59099561Y-78532770D01*
X59099562Y-78532772D01*
X59267620Y-78888100D01*
X59394928Y-79100500D01*
X59469694Y-79225239D01*
X59702463Y-79539092D01*
X59703846Y-79540956D01*
X59967807Y-79832192D01*
X60259043Y-80096153D01*
X60259049Y-80096158D01*
X60574761Y-80330306D01*
X60632890Y-80365147D01*
X60911899Y-80532379D01*
X60911902Y-80532380D01*
X60911903Y-80532381D01*
X61267228Y-80700438D01*
X61637316Y-80832857D01*
X62018600Y-80928364D01*
X62407409Y-80986038D01*
X62800000Y-81005325D01*
X63192591Y-80986038D01*
X63581400Y-80928364D01*
X63962684Y-80832857D01*
X64332772Y-80700438D01*
X64688097Y-80532381D01*
X65025239Y-80330306D01*
X65340951Y-80096158D01*
X65632192Y-79832192D01*
X65896158Y-79540951D01*
X66130306Y-79225239D01*
X66332381Y-78888097D01*
X66500438Y-78532772D01*
X66632857Y-78162684D01*
X66655217Y-78073414D01*
X66690599Y-78013171D01*
X66752938Y-77981617D01*
X66822440Y-77988775D01*
X66877039Y-78032372D01*
X66899400Y-78098567D01*
X66899500Y-78103547D01*
X66899500Y-78647870D01*
X66899501Y-78647876D01*
X66905908Y-78707483D01*
X66956202Y-78842328D01*
X66956206Y-78842335D01*
X67042452Y-78957544D01*
X67042455Y-78957547D01*
X67157664Y-79043793D01*
X67157671Y-79043797D01*
X67292517Y-79094091D01*
X67292516Y-79094091D01*
X67299444Y-79094835D01*
X67352127Y-79100500D01*
X69447872Y-79100499D01*
X69507483Y-79094091D01*
X69642331Y-79043796D01*
X69757546Y-78957546D01*
X69843796Y-78842331D01*
X69894091Y-78707483D01*
X69900500Y-78647873D01*
X69900499Y-75352128D01*
X69894091Y-75292517D01*
X69890259Y-75282244D01*
X69843797Y-75157671D01*
X69843793Y-75157664D01*
X69757547Y-75042455D01*
X69757544Y-75042452D01*
X69642335Y-74956206D01*
X69642328Y-74956202D01*
X69507482Y-74905908D01*
X69507483Y-74905908D01*
X69447883Y-74899501D01*
X69447881Y-74899500D01*
X69447873Y-74899500D01*
X69447864Y-74899500D01*
X67352129Y-74899500D01*
X67352123Y-74899501D01*
X67292516Y-74905908D01*
X67157671Y-74956202D01*
X67157664Y-74956206D01*
X67042455Y-75042452D01*
X67042452Y-75042455D01*
X66956206Y-75157664D01*
X66956202Y-75157671D01*
X66905908Y-75292517D01*
X66901026Y-75337933D01*
X66899501Y-75352123D01*
X66899500Y-75352135D01*
X66899500Y-75896449D01*
X66879815Y-75963488D01*
X66827011Y-76009243D01*
X66757853Y-76019187D01*
X66694297Y-75990162D01*
X66656523Y-75931384D01*
X66655216Y-75926579D01*
X66650410Y-75907391D01*
X66632857Y-75837316D01*
X66500438Y-75467228D01*
X66332381Y-75111903D01*
X66294041Y-75047937D01*
X66130307Y-74774763D01*
X66127435Y-74770890D01*
X65896158Y-74459049D01*
X65896153Y-74459043D01*
X65632192Y-74167807D01*
X65340956Y-73903846D01*
X65289244Y-73865494D01*
X65025239Y-73669694D01*
X65025236Y-73669692D01*
X64688100Y-73467620D01*
X64332772Y-73299562D01*
X64332770Y-73299561D01*
X63962684Y-73167143D01*
X63581406Y-73071637D01*
X63581401Y-73071636D01*
X63581400Y-73071636D01*
X63437256Y-73050254D01*
X63192599Y-73013963D01*
X63192597Y-73013962D01*
X63192591Y-73013962D01*
X62800000Y-72994675D01*
X62407409Y-73013962D01*
X62407403Y-73013962D01*
X62407400Y-73013963D01*
X62018593Y-73071637D01*
X61637315Y-73167143D01*
X61267229Y-73299561D01*
X61267227Y-73299562D01*
X60911899Y-73467620D01*
X60574763Y-73669692D01*
X60259043Y-73903846D01*
X59967807Y-74167807D01*
X59703846Y-74459043D01*
X59469692Y-74774763D01*
X59267620Y-75111899D01*
X59099562Y-75467227D01*
X59099561Y-75467229D01*
X58967143Y-75837315D01*
X58944783Y-75926582D01*
X58909398Y-75986829D01*
X58847059Y-76018382D01*
X58777557Y-76011223D01*
X58722959Y-75967625D01*
X58700599Y-75901430D01*
X58700499Y-75896452D01*
X58700499Y-75352129D01*
X58700498Y-75352123D01*
X58700497Y-75352116D01*
X58694091Y-75292517D01*
X58690259Y-75282244D01*
X58643797Y-75157671D01*
X58643793Y-75157664D01*
X58557547Y-75042455D01*
X58557544Y-75042452D01*
X58442335Y-74956206D01*
X58442328Y-74956202D01*
X58307482Y-74905908D01*
X58307483Y-74905908D01*
X58247883Y-74899501D01*
X58247881Y-74899500D01*
X58247873Y-74899500D01*
X58247864Y-74899500D01*
X56152129Y-74899500D01*
X56152123Y-74899501D01*
X56092516Y-74905908D01*
X55957671Y-74956202D01*
X55957664Y-74956206D01*
X55842455Y-75042452D01*
X55842452Y-75042455D01*
X55756206Y-75157664D01*
X55756202Y-75157671D01*
X55705908Y-75292517D01*
X55701026Y-75337933D01*
X55699501Y-75352123D01*
X55699500Y-75352135D01*
X55699500Y-78647870D01*
X50500500Y-78647870D01*
X50500500Y-70000005D01*
X58794357Y-70000005D01*
X58814890Y-70247812D01*
X58814892Y-70247824D01*
X58875936Y-70488881D01*
X58975826Y-70716606D01*
X59111833Y-70924782D01*
X59126281Y-70940477D01*
X59280256Y-71107738D01*
X59476491Y-71260474D01*
X59525182Y-71286824D01*
X59694332Y-71378364D01*
X59695190Y-71378828D01*
X59841671Y-71429115D01*
X59928964Y-71459083D01*
X59930386Y-71459571D01*
X60175665Y-71500500D01*
X60424335Y-71500500D01*
X60669614Y-71459571D01*
X60904810Y-71378828D01*
X61123509Y-71260474D01*
X61319744Y-71107738D01*
X61488164Y-70924785D01*
X61624173Y-70716607D01*
X61724063Y-70488881D01*
X61785108Y-70247821D01*
X61795297Y-70124862D01*
X61805643Y-70000005D01*
X63794859Y-70000005D01*
X63815385Y-70247729D01*
X63815387Y-70247738D01*
X63876412Y-70488717D01*
X63976266Y-70716364D01*
X64076564Y-70869882D01*
X64817037Y-70129409D01*
X64834075Y-70192993D01*
X64899901Y-70307007D01*
X64992993Y-70400099D01*
X65107007Y-70465925D01*
X65170590Y-70482962D01*
X64429942Y-71223609D01*
X64476768Y-71260055D01*
X64476770Y-71260056D01*
X64695385Y-71378364D01*
X64695396Y-71378369D01*
X64930506Y-71459083D01*
X65175707Y-71500000D01*
X65424293Y-71500000D01*
X65669493Y-71459083D01*
X65904603Y-71378369D01*
X65904614Y-71378364D01*
X66123228Y-71260057D01*
X66123231Y-71260055D01*
X66170056Y-71223609D01*
X65429409Y-70482962D01*
X65492993Y-70465925D01*
X65607007Y-70400099D01*
X65700099Y-70307007D01*
X65765925Y-70192993D01*
X65782962Y-70129409D01*
X66523434Y-70869882D01*
X66623731Y-70716369D01*
X66723587Y-70488717D01*
X66784612Y-70247738D01*
X66784614Y-70247729D01*
X66805141Y-70000005D01*
X66805141Y-69999994D01*
X66784614Y-69752270D01*
X66784612Y-69752261D01*
X66723587Y-69511282D01*
X66623731Y-69283630D01*
X66523434Y-69130116D01*
X65782962Y-69870589D01*
X65765925Y-69807007D01*
X65700099Y-69692993D01*
X65607007Y-69599901D01*
X65492993Y-69534075D01*
X65429410Y-69517037D01*
X66170057Y-68776390D01*
X66170056Y-68776389D01*
X66123229Y-68739943D01*
X65904614Y-68621635D01*
X65904603Y-68621630D01*
X65669493Y-68540916D01*
X65424293Y-68500000D01*
X65175707Y-68500000D01*
X64930506Y-68540916D01*
X64695396Y-68621630D01*
X64695390Y-68621632D01*
X64476761Y-68739949D01*
X64429942Y-68776388D01*
X64429942Y-68776390D01*
X65170590Y-69517037D01*
X65107007Y-69534075D01*
X64992993Y-69599901D01*
X64899901Y-69692993D01*
X64834075Y-69807007D01*
X64817037Y-69870589D01*
X64076564Y-69130116D01*
X63976267Y-69283632D01*
X63876412Y-69511282D01*
X63815387Y-69752261D01*
X63815385Y-69752270D01*
X63794859Y-69999994D01*
X63794859Y-70000005D01*
X61805643Y-70000005D01*
X61805643Y-69999994D01*
X61785109Y-69752187D01*
X61785107Y-69752175D01*
X61724063Y-69511118D01*
X61624173Y-69283393D01*
X61488166Y-69075217D01*
X61418931Y-69000008D01*
X61319744Y-68892262D01*
X61123509Y-68739526D01*
X61123507Y-68739525D01*
X61123506Y-68739524D01*
X60904811Y-68621172D01*
X60904802Y-68621169D01*
X60669616Y-68540429D01*
X60424335Y-68499500D01*
X60175665Y-68499500D01*
X59930383Y-68540429D01*
X59695197Y-68621169D01*
X59695188Y-68621172D01*
X59476493Y-68739524D01*
X59280257Y-68892261D01*
X59111833Y-69075217D01*
X58975826Y-69283393D01*
X58875936Y-69511118D01*
X58814892Y-69752175D01*
X58814890Y-69752187D01*
X58794357Y-69999994D01*
X58794357Y-70000005D01*
X50500500Y-70000005D01*
X50500500Y-66300001D01*
X56094390Y-66300001D01*
X56114804Y-66585433D01*
X56175628Y-66865037D01*
X56175630Y-66865043D01*
X56175631Y-66865046D01*
X56274965Y-67131370D01*
X56275635Y-67133166D01*
X56412770Y-67384309D01*
X56412775Y-67384317D01*
X56584254Y-67613387D01*
X56584270Y-67613405D01*
X56786594Y-67815729D01*
X56786612Y-67815745D01*
X57015682Y-67987224D01*
X57015690Y-67987229D01*
X57266833Y-68124364D01*
X57266832Y-68124364D01*
X57266836Y-68124365D01*
X57266839Y-68124367D01*
X57534954Y-68224369D01*
X57534960Y-68224370D01*
X57534962Y-68224371D01*
X57814566Y-68285195D01*
X57814568Y-68285195D01*
X57814572Y-68285196D01*
X58068220Y-68303337D01*
X58099999Y-68305610D01*
X58100000Y-68305610D01*
X58100001Y-68305610D01*
X58128595Y-68303564D01*
X58385428Y-68285196D01*
X58404883Y-68280964D01*
X58665037Y-68224371D01*
X58665037Y-68224370D01*
X58665046Y-68224369D01*
X58933161Y-68124367D01*
X59184315Y-67987226D01*
X59413395Y-67815739D01*
X59615739Y-67613395D01*
X59787226Y-67384315D01*
X59924367Y-67133161D01*
X60024369Y-66865046D01*
X60085196Y-66585428D01*
X60105610Y-66300001D01*
X60794390Y-66300001D01*
X60814804Y-66585433D01*
X60875628Y-66865037D01*
X60875630Y-66865043D01*
X60875631Y-66865046D01*
X60974965Y-67131370D01*
X60975635Y-67133166D01*
X61112770Y-67384309D01*
X61112775Y-67384317D01*
X61284254Y-67613387D01*
X61284270Y-67613405D01*
X61486594Y-67815729D01*
X61486612Y-67815745D01*
X61715682Y-67987224D01*
X61715690Y-67987229D01*
X61966833Y-68124364D01*
X61966832Y-68124364D01*
X61966836Y-68124365D01*
X61966839Y-68124367D01*
X62234954Y-68224369D01*
X62234960Y-68224370D01*
X62234962Y-68224371D01*
X62514566Y-68285195D01*
X62514568Y-68285195D01*
X62514572Y-68285196D01*
X62768220Y-68303337D01*
X62799999Y-68305610D01*
X62800000Y-68305610D01*
X62800001Y-68305610D01*
X62828595Y-68303564D01*
X63085428Y-68285196D01*
X63104883Y-68280964D01*
X63365037Y-68224371D01*
X63365037Y-68224370D01*
X63365046Y-68224369D01*
X63633161Y-68124367D01*
X63884315Y-67987226D01*
X64113395Y-67815739D01*
X64315739Y-67613395D01*
X64487226Y-67384315D01*
X64624367Y-67133161D01*
X64724369Y-66865046D01*
X64785196Y-66585428D01*
X64805610Y-66300001D01*
X65494390Y-66300001D01*
X65514804Y-66585433D01*
X65575628Y-66865037D01*
X65575630Y-66865043D01*
X65575631Y-66865046D01*
X65674965Y-67131370D01*
X65675635Y-67133166D01*
X65812770Y-67384309D01*
X65812775Y-67384317D01*
X65984254Y-67613387D01*
X65984270Y-67613405D01*
X66186594Y-67815729D01*
X66186612Y-67815745D01*
X66415682Y-67987224D01*
X66415690Y-67987229D01*
X66666833Y-68124364D01*
X66666832Y-68124364D01*
X66666836Y-68124365D01*
X66666839Y-68124367D01*
X66934954Y-68224369D01*
X66934960Y-68224370D01*
X66934962Y-68224371D01*
X67214566Y-68285195D01*
X67214568Y-68285195D01*
X67214572Y-68285196D01*
X67468220Y-68303337D01*
X67499999Y-68305610D01*
X67500000Y-68305610D01*
X67500001Y-68305610D01*
X67528595Y-68303564D01*
X67785428Y-68285196D01*
X67804883Y-68280964D01*
X68065037Y-68224371D01*
X68065037Y-68224370D01*
X68065046Y-68224369D01*
X68333161Y-68124367D01*
X68584315Y-67987226D01*
X68813395Y-67815739D01*
X69015739Y-67613395D01*
X69187226Y-67384315D01*
X69324367Y-67133161D01*
X69424369Y-66865046D01*
X69485196Y-66585428D01*
X69505610Y-66300000D01*
X69485196Y-66014572D01*
X69475109Y-65968204D01*
X69424371Y-65734962D01*
X69424370Y-65734960D01*
X69424369Y-65734954D01*
X69324367Y-65466839D01*
X69254669Y-65339198D01*
X69187229Y-65215690D01*
X69187224Y-65215682D01*
X69015745Y-64986612D01*
X69015729Y-64986594D01*
X68813405Y-64784270D01*
X68813387Y-64784254D01*
X68584317Y-64612775D01*
X68584309Y-64612770D01*
X68333166Y-64475635D01*
X68333167Y-64475635D01*
X68186390Y-64420890D01*
X68065046Y-64375631D01*
X68065043Y-64375630D01*
X68065037Y-64375628D01*
X67785433Y-64314804D01*
X67500001Y-64294390D01*
X67499999Y-64294390D01*
X67214566Y-64314804D01*
X66934962Y-64375628D01*
X66666833Y-64475635D01*
X66415690Y-64612770D01*
X66415682Y-64612775D01*
X66186612Y-64784254D01*
X66186594Y-64784270D01*
X65984270Y-64986594D01*
X65984254Y-64986612D01*
X65812775Y-65215682D01*
X65812770Y-65215690D01*
X65675635Y-65466833D01*
X65575628Y-65734962D01*
X65514804Y-66014566D01*
X65494390Y-66299998D01*
X65494390Y-66300001D01*
X64805610Y-66300001D01*
X64805610Y-66300000D01*
X64785196Y-66014572D01*
X64775109Y-65968204D01*
X64724371Y-65734962D01*
X64724370Y-65734960D01*
X64724369Y-65734954D01*
X64624367Y-65466839D01*
X64554669Y-65339198D01*
X64487229Y-65215690D01*
X64487224Y-65215682D01*
X64315745Y-64986612D01*
X64315729Y-64986594D01*
X64113405Y-64784270D01*
X64113387Y-64784254D01*
X63884317Y-64612775D01*
X63884309Y-64612770D01*
X63633166Y-64475635D01*
X63633167Y-64475635D01*
X63486390Y-64420890D01*
X63365046Y-64375631D01*
X63365043Y-64375630D01*
X63365037Y-64375628D01*
X63085433Y-64314804D01*
X62800001Y-64294390D01*
X62799999Y-64294390D01*
X62514566Y-64314804D01*
X62234962Y-64375628D01*
X61966833Y-64475635D01*
X61715690Y-64612770D01*
X61715682Y-64612775D01*
X61486612Y-64784254D01*
X61486594Y-64784270D01*
X61284270Y-64986594D01*
X61284254Y-64986612D01*
X61112775Y-65215682D01*
X61112770Y-65215690D01*
X60975635Y-65466833D01*
X60875628Y-65734962D01*
X60814804Y-66014566D01*
X60794390Y-66299998D01*
X60794390Y-66300001D01*
X60105610Y-66300001D01*
X60105610Y-66300000D01*
X60085196Y-66014572D01*
X60075109Y-65968204D01*
X60024371Y-65734962D01*
X60024370Y-65734960D01*
X60024369Y-65734954D01*
X59924367Y-65466839D01*
X59854669Y-65339198D01*
X59787229Y-65215690D01*
X59787224Y-65215682D01*
X59615745Y-64986612D01*
X59615729Y-64986594D01*
X59413405Y-64784270D01*
X59413387Y-64784254D01*
X59184317Y-64612775D01*
X59184309Y-64612770D01*
X58933166Y-64475635D01*
X58933167Y-64475635D01*
X58786390Y-64420890D01*
X58665046Y-64375631D01*
X58665043Y-64375630D01*
X58665037Y-64375628D01*
X58385433Y-64314804D01*
X58100001Y-64294390D01*
X58099999Y-64294390D01*
X57814566Y-64314804D01*
X57534962Y-64375628D01*
X57266833Y-64475635D01*
X57015690Y-64612770D01*
X57015682Y-64612775D01*
X56786612Y-64784254D01*
X56786594Y-64784270D01*
X56584270Y-64986594D01*
X56584254Y-64986612D01*
X56412775Y-65215682D01*
X56412770Y-65215690D01*
X56275635Y-65466833D01*
X56175628Y-65734962D01*
X56114804Y-66014566D01*
X56094390Y-66299998D01*
X56094390Y-66300001D01*
X50500500Y-66300001D01*
X50500500Y-64200002D01*
X81229676Y-64200002D01*
X81248610Y-64368056D01*
X81304470Y-64527694D01*
X81304472Y-64527697D01*
X81394443Y-64670884D01*
X81394448Y-64670890D01*
X81514034Y-64790476D01*
X81514040Y-64790481D01*
X81657227Y-64880452D01*
X81657230Y-64880454D01*
X81657234Y-64880455D01*
X81657235Y-64880456D01*
X81729838Y-64905860D01*
X81816868Y-64936314D01*
X81984922Y-64955249D01*
X81984925Y-64955249D01*
X81984928Y-64955249D01*
X82152981Y-64936314D01*
X82159420Y-64934061D01*
X82312615Y-64880456D01*
X82312617Y-64880454D01*
X82312619Y-64880454D01*
X82312622Y-64880452D01*
X82455809Y-64790481D01*
X82455810Y-64790480D01*
X82455815Y-64790477D01*
X82575402Y-64670890D01*
X82600811Y-64630452D01*
X82665377Y-64527697D01*
X82665379Y-64527694D01*
X82665379Y-64527692D01*
X82665381Y-64527690D01*
X82721238Y-64368059D01*
X82721238Y-64368058D01*
X82721239Y-64368056D01*
X82740174Y-64200002D01*
X82740174Y-64199997D01*
X82721239Y-64031943D01*
X82711516Y-64004156D01*
X85802530Y-64004156D01*
X85826642Y-64125376D01*
X85826644Y-64125384D01*
X85853607Y-64190478D01*
X85873946Y-64239581D01*
X85917339Y-64304523D01*
X85917339Y-64304524D01*
X85942615Y-64342352D01*
X85942621Y-64342360D01*
X87136181Y-65535919D01*
X87169666Y-65597242D01*
X87172500Y-65623600D01*
X87172500Y-76252306D01*
X87153494Y-76318278D01*
X87119545Y-76372307D01*
X87063685Y-76531943D01*
X87044751Y-76699997D01*
X87044751Y-76700002D01*
X87063685Y-76868056D01*
X87119545Y-77027694D01*
X87119547Y-77027697D01*
X87209518Y-77170884D01*
X87209523Y-77170890D01*
X87329109Y-77290476D01*
X87329115Y-77290481D01*
X87472302Y-77380452D01*
X87472305Y-77380454D01*
X87472309Y-77380455D01*
X87472310Y-77380456D01*
X87506990Y-77392591D01*
X87631943Y-77436314D01*
X87799997Y-77455249D01*
X87800000Y-77455249D01*
X87800003Y-77455249D01*
X87968056Y-77436314D01*
X87968059Y-77436313D01*
X88127690Y-77380456D01*
X88127692Y-77380454D01*
X88127694Y-77380454D01*
X88127697Y-77380452D01*
X88270884Y-77290481D01*
X88270885Y-77290480D01*
X88270890Y-77290477D01*
X88390477Y-77170890D01*
X88415886Y-77130452D01*
X88480452Y-77027697D01*
X88480454Y-77027694D01*
X88480454Y-77027692D01*
X88480456Y-77027690D01*
X88536313Y-76868059D01*
X88536313Y-76868058D01*
X88536314Y-76868056D01*
X88555249Y-76700002D01*
X88555249Y-76699997D01*
X88536314Y-76531943D01*
X88507641Y-76450002D01*
X88480456Y-76372310D01*
X88474604Y-76362996D01*
X88446506Y-76318278D01*
X88427500Y-76252306D01*
X88427500Y-73076267D01*
X88447185Y-73009228D01*
X88499989Y-72963473D01*
X88565384Y-72953047D01*
X88584925Y-72955249D01*
X88584925Y-72955248D01*
X88584926Y-72955249D01*
X88584928Y-72955249D01*
X88752981Y-72936314D01*
X88752984Y-72936313D01*
X88912615Y-72880456D01*
X88912617Y-72880454D01*
X88912619Y-72880454D01*
X88912622Y-72880452D01*
X89055809Y-72790481D01*
X89055810Y-72790480D01*
X89055815Y-72790477D01*
X89175402Y-72670890D01*
X89199874Y-72631943D01*
X89265377Y-72527697D01*
X89265380Y-72527692D01*
X89265381Y-72527690D01*
X89321017Y-72368688D01*
X89350374Y-72321968D01*
X90715652Y-70956693D01*
X90776975Y-70923208D01*
X90803333Y-70920374D01*
X92021173Y-70920374D01*
X92088212Y-70940059D01*
X92133967Y-70992863D01*
X92144393Y-71030492D01*
X92148610Y-71067931D01*
X92204468Y-71227564D01*
X92238418Y-71281593D01*
X92257425Y-71347566D01*
X92257425Y-75215205D01*
X92237740Y-75282244D01*
X92218224Y-75303864D01*
X92218959Y-75304599D01*
X92094448Y-75429109D01*
X92094443Y-75429115D01*
X92004472Y-75572302D01*
X92004470Y-75572305D01*
X91948610Y-75731943D01*
X91929676Y-75899997D01*
X91929676Y-75900002D01*
X91948610Y-76068056D01*
X92004470Y-76227694D01*
X92004472Y-76227697D01*
X92094443Y-76370884D01*
X92094448Y-76370890D01*
X92214034Y-76490476D01*
X92214040Y-76490481D01*
X92357227Y-76580452D01*
X92357230Y-76580454D01*
X92357234Y-76580455D01*
X92357235Y-76580456D01*
X92429838Y-76605860D01*
X92516868Y-76636314D01*
X92684922Y-76655249D01*
X92684925Y-76655249D01*
X92684928Y-76655249D01*
X92852981Y-76636314D01*
X92905151Y-76618059D01*
X93012615Y-76580456D01*
X93012617Y-76580454D01*
X93012619Y-76580454D01*
X93012622Y-76580452D01*
X93155809Y-76490481D01*
X93155810Y-76490480D01*
X93155815Y-76490477D01*
X93275402Y-76370890D01*
X93275406Y-76370884D01*
X93365377Y-76227697D01*
X93365380Y-76227691D01*
X93365381Y-76227690D01*
X93421238Y-76068059D01*
X93423451Y-76048407D01*
X93439877Y-76003539D01*
X93438135Y-76002608D01*
X93441004Y-75997237D01*
X93441008Y-75997233D01*
X93466980Y-75934530D01*
X93488311Y-75883034D01*
X93512425Y-75761803D01*
X93512425Y-75638197D01*
X93512425Y-71855727D01*
X93532110Y-71788688D01*
X93584914Y-71742933D01*
X93654072Y-71732989D01*
X93717628Y-71762014D01*
X93724106Y-71768046D01*
X95156068Y-73200008D01*
X95226944Y-73270884D01*
X95243473Y-73287413D01*
X95243475Y-73287414D01*
X95346235Y-73356076D01*
X95346237Y-73356077D01*
X95346246Y-73356083D01*
X95371251Y-73366440D01*
X95393550Y-73375677D01*
X95429278Y-73390476D01*
X95460445Y-73403386D01*
X95581671Y-73427499D01*
X95581675Y-73427500D01*
X95581676Y-73427500D01*
X95705283Y-73427500D01*
X96937232Y-73427500D01*
X97003203Y-73446505D01*
X97057235Y-73480456D01*
X97178546Y-73522904D01*
X97216868Y-73536314D01*
X97384922Y-73555249D01*
X97384925Y-73555249D01*
X97384928Y-73555249D01*
X97552981Y-73536314D01*
X97581874Y-73526204D01*
X97712615Y-73480456D01*
X97712617Y-73480454D01*
X97712619Y-73480454D01*
X97712622Y-73480452D01*
X97855809Y-73390481D01*
X97855810Y-73390480D01*
X97855815Y-73390477D01*
X97975402Y-73270890D01*
X97975406Y-73270884D01*
X98065377Y-73127697D01*
X98065379Y-73127694D01*
X98065379Y-73127692D01*
X98065381Y-73127690D01*
X98121238Y-72968059D01*
X98121238Y-72968058D01*
X98121239Y-72968056D01*
X98140174Y-72800002D01*
X98140174Y-72799997D01*
X98121239Y-72631943D01*
X98071738Y-72490477D01*
X98065381Y-72472310D01*
X98065380Y-72472309D01*
X98065379Y-72472305D01*
X98065377Y-72472302D01*
X97975406Y-72329115D01*
X97975401Y-72329109D01*
X97855815Y-72209523D01*
X97855809Y-72209518D01*
X97712622Y-72119547D01*
X97712619Y-72119545D01*
X97552981Y-72063685D01*
X97384928Y-72044751D01*
X97384922Y-72044751D01*
X97216868Y-72063685D01*
X97057232Y-72119545D01*
X97003204Y-72153494D01*
X96937232Y-72172500D01*
X95954760Y-72172500D01*
X95887721Y-72152815D01*
X95867079Y-72136181D01*
X93536366Y-69805467D01*
X93536360Y-69805462D01*
X93517980Y-69793181D01*
X93433589Y-69736792D01*
X93399084Y-69722500D01*
X93399082Y-69722499D01*
X93319388Y-69689488D01*
X93319380Y-69689486D01*
X93198160Y-69665374D01*
X93198156Y-69665374D01*
X90553854Y-69665374D01*
X90430247Y-69665374D01*
X90430245Y-69665374D01*
X90309021Y-69689487D01*
X90309011Y-69689490D01*
X90194825Y-69736787D01*
X90194807Y-69736797D01*
X90092043Y-69805461D01*
X90092036Y-69805467D01*
X88639181Y-71258323D01*
X88577858Y-71291808D01*
X88508166Y-71286824D01*
X88452233Y-71244952D01*
X88427816Y-71179488D01*
X88427500Y-71170642D01*
X88427500Y-69444813D01*
X88447185Y-69377774D01*
X88499989Y-69332019D01*
X88569147Y-69322075D01*
X88592455Y-69327772D01*
X88616864Y-69336313D01*
X88784922Y-69355249D01*
X88784925Y-69355249D01*
X88784928Y-69355249D01*
X88952981Y-69336314D01*
X88952984Y-69336313D01*
X89112615Y-69280456D01*
X89166646Y-69246505D01*
X89232618Y-69227500D01*
X92933017Y-69227500D01*
X92933018Y-69227499D01*
X93054248Y-69203386D01*
X93157258Y-69160717D01*
X93168446Y-69156083D01*
X93271221Y-69087411D01*
X93358624Y-69000008D01*
X93371104Y-68987527D01*
X93432422Y-68954043D01*
X93502114Y-68959024D01*
X93524756Y-68970213D01*
X93657235Y-69053456D01*
X93754282Y-69087414D01*
X93816868Y-69109314D01*
X93984922Y-69128249D01*
X93984925Y-69128249D01*
X93984928Y-69128249D01*
X94152981Y-69109314D01*
X94173503Y-69102133D01*
X94312615Y-69053456D01*
X94366646Y-69019505D01*
X94432618Y-69000500D01*
X94546644Y-69000500D01*
X94613683Y-69020185D01*
X94634325Y-69036819D01*
X95784913Y-70187408D01*
X95784917Y-70187411D01*
X95887685Y-70256079D01*
X95887698Y-70256086D01*
X96001885Y-70303383D01*
X96001890Y-70303385D01*
X96001894Y-70303385D01*
X96001895Y-70303386D01*
X96123118Y-70327500D01*
X96123121Y-70327500D01*
X96123122Y-70327500D01*
X110735719Y-70327500D01*
X110802758Y-70347185D01*
X110848513Y-70399989D01*
X110858457Y-70469147D01*
X110829432Y-70532703D01*
X110823400Y-70539181D01*
X103349992Y-78012589D01*
X103326070Y-78036511D01*
X103262586Y-78099994D01*
X103262585Y-78099996D01*
X103193233Y-78203789D01*
X103191586Y-78208393D01*
X103146614Y-78316963D01*
X103124629Y-78427497D01*
X103124628Y-78427501D01*
X103122500Y-78438197D01*
X103122500Y-80652306D01*
X103103494Y-80718278D01*
X103069545Y-80772307D01*
X103013685Y-80931943D01*
X102994751Y-81099997D01*
X102994751Y-81100002D01*
X103013685Y-81268056D01*
X103069545Y-81427694D01*
X103069547Y-81427697D01*
X103159518Y-81570884D01*
X103159523Y-81570890D01*
X103279109Y-81690476D01*
X103279115Y-81690481D01*
X103422302Y-81780452D01*
X103422305Y-81780454D01*
X103422309Y-81780455D01*
X103422310Y-81780456D01*
X103428392Y-81782584D01*
X103581943Y-81836314D01*
X103749997Y-81855249D01*
X103750000Y-81855249D01*
X103750003Y-81855249D01*
X103918056Y-81836314D01*
X103928776Y-81832563D01*
X104077690Y-81780456D01*
X104077692Y-81780454D01*
X104077694Y-81780454D01*
X104077697Y-81780452D01*
X104220884Y-81690481D01*
X104220885Y-81690480D01*
X104220890Y-81690477D01*
X104340477Y-81570890D01*
X104340481Y-81570884D01*
X104430452Y-81427697D01*
X104430454Y-81427694D01*
X104430454Y-81427692D01*
X104430456Y-81427690D01*
X104486313Y-81268059D01*
X104486313Y-81268058D01*
X104486314Y-81268056D01*
X104505249Y-81100002D01*
X104505249Y-81099997D01*
X104486314Y-80931943D01*
X104468111Y-80879922D01*
X104430456Y-80772310D01*
X104411795Y-80742611D01*
X104396506Y-80718278D01*
X104377500Y-80652306D01*
X104377500Y-78811281D01*
X104397185Y-78744242D01*
X104413819Y-78723600D01*
X108263625Y-74873794D01*
X112120139Y-71017279D01*
X112181460Y-70983796D01*
X112251152Y-70988780D01*
X112273783Y-70999964D01*
X112322310Y-71030456D01*
X112429408Y-71067931D01*
X112481943Y-71086314D01*
X112649997Y-71105249D01*
X112650000Y-71105249D01*
X112650003Y-71105249D01*
X112818056Y-71086314D01*
X112818059Y-71086313D01*
X112977690Y-71030456D01*
X112977692Y-71030454D01*
X112977694Y-71030454D01*
X112977697Y-71030452D01*
X113120884Y-70940481D01*
X113120885Y-70940480D01*
X113120890Y-70940477D01*
X113240477Y-70820890D01*
X113274042Y-70767472D01*
X113330452Y-70677697D01*
X113330454Y-70677694D01*
X113330454Y-70677692D01*
X113330456Y-70677690D01*
X113386313Y-70518059D01*
X113386313Y-70518057D01*
X113386314Y-70518055D01*
X113395377Y-70437617D01*
X113422443Y-70373203D01*
X113480038Y-70333648D01*
X113518597Y-70327500D01*
X120515307Y-70327500D01*
X120581278Y-70346505D01*
X120635310Y-70380456D01*
X120756621Y-70422904D01*
X120794943Y-70436314D01*
X120962997Y-70455249D01*
X120963000Y-70455249D01*
X120963003Y-70455249D01*
X121131056Y-70436314D01*
X121146340Y-70430966D01*
X121290690Y-70380456D01*
X121290692Y-70380454D01*
X121290694Y-70380454D01*
X121290697Y-70380452D01*
X121433884Y-70290481D01*
X121433885Y-70290480D01*
X121433890Y-70290477D01*
X121553477Y-70170890D01*
X121553481Y-70170884D01*
X121643452Y-70027697D01*
X121643454Y-70027694D01*
X121643454Y-70027692D01*
X121643456Y-70027690D01*
X121699313Y-69868059D01*
X121699313Y-69868058D01*
X121699314Y-69868056D01*
X121718249Y-69700002D01*
X121718249Y-69699997D01*
X121699314Y-69531943D01*
X121643454Y-69372305D01*
X121643452Y-69372302D01*
X121553481Y-69229115D01*
X121553476Y-69229109D01*
X121433890Y-69109523D01*
X121433884Y-69109518D01*
X121290697Y-69019547D01*
X121290694Y-69019545D01*
X121131056Y-68963685D01*
X120963003Y-68944751D01*
X120962997Y-68944751D01*
X120794943Y-68963685D01*
X120635307Y-69019545D01*
X120581279Y-69053494D01*
X120515307Y-69072500D01*
X98499206Y-69072500D01*
X98432167Y-69052815D01*
X98386412Y-69000011D01*
X98376468Y-68930853D01*
X98405493Y-68867297D01*
X98411525Y-68860819D01*
X98475050Y-68797294D01*
X98579336Y-68693008D01*
X98600186Y-68661803D01*
X98648008Y-68590233D01*
X98662809Y-68554500D01*
X98695311Y-68476035D01*
X98719425Y-68354803D01*
X98719425Y-68231197D01*
X98719425Y-68161489D01*
X145124500Y-68161489D01*
X145160659Y-68482410D01*
X145160661Y-68482426D01*
X145232527Y-68797294D01*
X145232531Y-68797306D01*
X145339195Y-69102133D01*
X145339201Y-69102147D01*
X145479327Y-69393122D01*
X145479329Y-69393125D01*
X145651159Y-69666591D01*
X145852527Y-69919099D01*
X146080901Y-70147473D01*
X146333409Y-70348841D01*
X146606875Y-70520671D01*
X146897860Y-70660802D01*
X146897866Y-70660804D01*
X147202693Y-70767468D01*
X147202705Y-70767472D01*
X147517577Y-70839339D01*
X147838511Y-70875499D01*
X147838512Y-70875500D01*
X147838515Y-70875500D01*
X148161488Y-70875500D01*
X148161488Y-70875499D01*
X148482423Y-70839339D01*
X148797295Y-70767472D01*
X149102140Y-70660802D01*
X149393125Y-70520671D01*
X149666591Y-70348841D01*
X149919099Y-70147473D01*
X150147473Y-69919099D01*
X150348841Y-69666591D01*
X150520671Y-69393125D01*
X150660802Y-69102140D01*
X150767472Y-68797295D01*
X150839339Y-68482423D01*
X150875500Y-68161485D01*
X150875500Y-67838515D01*
X150839339Y-67517577D01*
X150767472Y-67202705D01*
X150761895Y-67186768D01*
X150660804Y-66897866D01*
X150660802Y-66897860D01*
X150520671Y-66606875D01*
X150348841Y-66333409D01*
X150147473Y-66080901D01*
X149919099Y-65852527D01*
X149666591Y-65651159D01*
X149470102Y-65527697D01*
X149393122Y-65479327D01*
X149102147Y-65339201D01*
X149102133Y-65339195D01*
X148797306Y-65232531D01*
X148797294Y-65232527D01*
X148482426Y-65160661D01*
X148482410Y-65160659D01*
X148161489Y-65124500D01*
X148161485Y-65124500D01*
X147838515Y-65124500D01*
X147838510Y-65124500D01*
X147517589Y-65160659D01*
X147517573Y-65160661D01*
X147202705Y-65232527D01*
X147202693Y-65232531D01*
X146897866Y-65339195D01*
X146897852Y-65339201D01*
X146606877Y-65479327D01*
X146333410Y-65651158D01*
X146080901Y-65852526D01*
X145852526Y-66080901D01*
X145651158Y-66333410D01*
X145479327Y-66606877D01*
X145339201Y-66897852D01*
X145339195Y-66897866D01*
X145232531Y-67202693D01*
X145232527Y-67202705D01*
X145160661Y-67517573D01*
X145160659Y-67517589D01*
X145124500Y-67838510D01*
X145124500Y-68161489D01*
X98719425Y-68161489D01*
X98719425Y-67186769D01*
X98708762Y-67133161D01*
X98695311Y-67065537D01*
X98650337Y-66956964D01*
X98648689Y-66952358D01*
X98579339Y-66848568D01*
X98579338Y-66848566D01*
X98578539Y-66847767D01*
X98491933Y-66761161D01*
X97760299Y-66029527D01*
X97726814Y-65968204D01*
X97731798Y-65898512D01*
X97773670Y-65842579D01*
X97781998Y-65836859D01*
X97855815Y-65790477D01*
X97975402Y-65670890D01*
X97987801Y-65651158D01*
X98065377Y-65527697D01*
X98065379Y-65527694D01*
X98065379Y-65527692D01*
X98065381Y-65527690D01*
X98121238Y-65368059D01*
X98121238Y-65368058D01*
X98121239Y-65368056D01*
X98140174Y-65200002D01*
X98140174Y-65199997D01*
X98121239Y-65031943D01*
X98068231Y-64880456D01*
X98065381Y-64872310D01*
X98065380Y-64872309D01*
X98065379Y-64872305D01*
X98065377Y-64872302D01*
X97975406Y-64729115D01*
X97975401Y-64729109D01*
X97933973Y-64687681D01*
X97900488Y-64626358D01*
X97905472Y-64556666D01*
X97933973Y-64512319D01*
X97952311Y-64493981D01*
X97975402Y-64470890D01*
X97975406Y-64470884D01*
X98065377Y-64327697D01*
X98065379Y-64327694D01*
X98065379Y-64327692D01*
X98065381Y-64327690D01*
X98121238Y-64168059D01*
X98121238Y-64168058D01*
X98121239Y-64168056D01*
X98140174Y-64000000D01*
X98140174Y-63999997D01*
X98121239Y-63831943D01*
X98065379Y-63672305D01*
X98065377Y-63672302D01*
X97975406Y-63529115D01*
X97975401Y-63529109D01*
X97883973Y-63437681D01*
X97850488Y-63376358D01*
X97855472Y-63306666D01*
X97883973Y-63262319D01*
X97907719Y-63238573D01*
X97975402Y-63170890D01*
X97992260Y-63144060D01*
X98044589Y-63097772D01*
X98113642Y-63087121D01*
X98177492Y-63115494D01*
X98184933Y-63122352D01*
X98812589Y-63750008D01*
X98879983Y-63817402D01*
X98899994Y-63837413D01*
X98899996Y-63837414D01*
X99002756Y-63906076D01*
X99002758Y-63906077D01*
X99002767Y-63906083D01*
X99027772Y-63916440D01*
X99050071Y-63925677D01*
X99092254Y-63943149D01*
X99116966Y-63953386D01*
X99203005Y-63970500D01*
X99238192Y-63977499D01*
X99238196Y-63977500D01*
X99238197Y-63977500D01*
X111887037Y-63977500D01*
X111954076Y-63997185D01*
X111999831Y-64049989D01*
X112010256Y-64087614D01*
X112012919Y-64111241D01*
X112013687Y-64118059D01*
X112069544Y-64277691D01*
X112069547Y-64277697D01*
X112159518Y-64420884D01*
X112159523Y-64420890D01*
X112279109Y-64540476D01*
X112279115Y-64540481D01*
X112422302Y-64630452D01*
X112422305Y-64630454D01*
X112422309Y-64630455D01*
X112422310Y-64630456D01*
X112494913Y-64655860D01*
X112581943Y-64686314D01*
X112749997Y-64705249D01*
X112750000Y-64705249D01*
X112750003Y-64705249D01*
X112918056Y-64686314D01*
X112918059Y-64686313D01*
X113077690Y-64630456D01*
X113131721Y-64596505D01*
X113197693Y-64577500D01*
X119752307Y-64577500D01*
X119818278Y-64596505D01*
X119872310Y-64630456D01*
X119987847Y-64670884D01*
X120031943Y-64686314D01*
X120199997Y-64705249D01*
X120200000Y-64705249D01*
X120200003Y-64705249D01*
X120368056Y-64686314D01*
X120368059Y-64686313D01*
X120527690Y-64630456D01*
X120527692Y-64630454D01*
X120527694Y-64630454D01*
X120527697Y-64630452D01*
X120670884Y-64540481D01*
X120670885Y-64540480D01*
X120670890Y-64540477D01*
X120790477Y-64420890D01*
X120814582Y-64382528D01*
X120880452Y-64277697D01*
X120880454Y-64277694D01*
X120880455Y-64277691D01*
X120880456Y-64277690D01*
X120936313Y-64118059D01*
X120937081Y-64111240D01*
X120964147Y-64046826D01*
X121021741Y-64007270D01*
X121091578Y-64005131D01*
X121101257Y-64008081D01*
X121181939Y-64036313D01*
X121349997Y-64055249D01*
X121350000Y-64055249D01*
X121350003Y-64055249D01*
X121518056Y-64036314D01*
X121530548Y-64031943D01*
X121677690Y-63980456D01*
X121677692Y-63980454D01*
X121677694Y-63980454D01*
X121677697Y-63980452D01*
X121820884Y-63890481D01*
X121820885Y-63890480D01*
X121820890Y-63890477D01*
X121940477Y-63770890D01*
X121941165Y-63769795D01*
X122030452Y-63627697D01*
X122030454Y-63627694D01*
X122030454Y-63627692D01*
X122030456Y-63627690D01*
X122086313Y-63468059D01*
X122086313Y-63468058D01*
X122086314Y-63468056D01*
X122105249Y-63300004D01*
X141844592Y-63300004D01*
X141864196Y-63561620D01*
X141864197Y-63561625D01*
X141922576Y-63817402D01*
X141922578Y-63817411D01*
X141922580Y-63817416D01*
X142018432Y-64061643D01*
X142149614Y-64288857D01*
X142254902Y-64420884D01*
X142313198Y-64493985D01*
X142455864Y-64626358D01*
X142505521Y-64672433D01*
X142722296Y-64820228D01*
X142722301Y-64820230D01*
X142722302Y-64820231D01*
X142722303Y-64820232D01*
X142830429Y-64872302D01*
X142958673Y-64934061D01*
X142958674Y-64934061D01*
X142958677Y-64934063D01*
X143209385Y-65011396D01*
X143468818Y-65050500D01*
X143731182Y-65050500D01*
X143990615Y-65011396D01*
X144241323Y-64934063D01*
X144477704Y-64820228D01*
X144694479Y-64672433D01*
X144850475Y-64527690D01*
X144886801Y-64493985D01*
X144886801Y-64493983D01*
X144886805Y-64493981D01*
X145050386Y-64288857D01*
X145181568Y-64061643D01*
X145277420Y-63817416D01*
X145335802Y-63561630D01*
X145342814Y-63468059D01*
X145355408Y-63300004D01*
X145355408Y-63299995D01*
X145335803Y-63038379D01*
X145335802Y-63038374D01*
X145335802Y-63038370D01*
X145277420Y-62782584D01*
X145181568Y-62538357D01*
X145050386Y-62311143D01*
X145001629Y-62250004D01*
X148845093Y-62250004D01*
X148864692Y-62511545D01*
X148864693Y-62511550D01*
X148923058Y-62767270D01*
X149018883Y-63011426D01*
X149018882Y-63011426D01*
X149150027Y-63238573D01*
X149197874Y-63298571D01*
X149922421Y-62574024D01*
X149935359Y-62605258D01*
X150017437Y-62728097D01*
X150121903Y-62832563D01*
X150244742Y-62914641D01*
X150275974Y-62927577D01*
X149550830Y-63652720D01*
X149722546Y-63769793D01*
X149722550Y-63769795D01*
X149958854Y-63883594D01*
X149958858Y-63883595D01*
X150209494Y-63960907D01*
X150209500Y-63960909D01*
X150468848Y-63999999D01*
X150468857Y-64000000D01*
X150731143Y-64000000D01*
X150731151Y-63999999D01*
X150990499Y-63960909D01*
X150990505Y-63960907D01*
X151241143Y-63883595D01*
X151477445Y-63769798D01*
X151477447Y-63769797D01*
X151649168Y-63652720D01*
X150924025Y-62927578D01*
X150955258Y-62914641D01*
X151078097Y-62832563D01*
X151182563Y-62728097D01*
X151264641Y-62605258D01*
X151277578Y-62574025D01*
X152002125Y-63298572D01*
X152049971Y-63238573D01*
X152181116Y-63011426D01*
X152276941Y-62767270D01*
X152335306Y-62511550D01*
X152335307Y-62511545D01*
X152354907Y-62250004D01*
X152354907Y-62249995D01*
X152335307Y-61988454D01*
X152335306Y-61988449D01*
X152276941Y-61732729D01*
X152181116Y-61488573D01*
X152181117Y-61488573D01*
X152049972Y-61261426D01*
X152002124Y-61201427D01*
X151277577Y-61925973D01*
X151264641Y-61894742D01*
X151182563Y-61771903D01*
X151078097Y-61667437D01*
X150955258Y-61585359D01*
X150924025Y-61572421D01*
X151649168Y-60847278D01*
X151477454Y-60730206D01*
X151477445Y-60730201D01*
X151241142Y-60616404D01*
X151241144Y-60616404D01*
X150990505Y-60539092D01*
X150990499Y-60539090D01*
X150731151Y-60500000D01*
X150468848Y-60500000D01*
X150209500Y-60539090D01*
X150209494Y-60539092D01*
X149958858Y-60616404D01*
X149958854Y-60616405D01*
X149722547Y-60730205D01*
X149722539Y-60730210D01*
X149550830Y-60847277D01*
X150275974Y-61572421D01*
X150244742Y-61585359D01*
X150121903Y-61667437D01*
X150017437Y-61771903D01*
X149935359Y-61894742D01*
X149922422Y-61925974D01*
X149197875Y-61201427D01*
X149197874Y-61201427D01*
X149150028Y-61261425D01*
X149018883Y-61488573D01*
X148923058Y-61732729D01*
X148864693Y-61988449D01*
X148864692Y-61988454D01*
X148845093Y-62249995D01*
X148845093Y-62250004D01*
X145001629Y-62250004D01*
X144886805Y-62106019D01*
X144886804Y-62106018D01*
X144886801Y-62106014D01*
X144694479Y-61927567D01*
X144477704Y-61779772D01*
X144477700Y-61779770D01*
X144477697Y-61779768D01*
X144477696Y-61779767D01*
X144241325Y-61665938D01*
X144241327Y-61665938D01*
X143990623Y-61588606D01*
X143990619Y-61588605D01*
X143990615Y-61588604D01*
X143865823Y-61569794D01*
X143731187Y-61549500D01*
X143731182Y-61549500D01*
X143468818Y-61549500D01*
X143468812Y-61549500D01*
X143307247Y-61573853D01*
X143209385Y-61588604D01*
X143209382Y-61588605D01*
X143209376Y-61588606D01*
X142958673Y-61665938D01*
X142722303Y-61779767D01*
X142722302Y-61779768D01*
X142505520Y-61927567D01*
X142313198Y-62106014D01*
X142149614Y-62311143D01*
X142018432Y-62538356D01*
X141922582Y-62782578D01*
X141922576Y-62782597D01*
X141864197Y-63038374D01*
X141864196Y-63038379D01*
X141844592Y-63299995D01*
X141844592Y-63300004D01*
X122105249Y-63300004D01*
X122105249Y-63300002D01*
X122105249Y-63299997D01*
X122086314Y-63131943D01*
X122049834Y-63027690D01*
X122030456Y-62972310D01*
X122030455Y-62972309D01*
X122030454Y-62972305D01*
X122030452Y-62972302D01*
X121940481Y-62829115D01*
X121940476Y-62829109D01*
X121820890Y-62709523D01*
X121820884Y-62709518D01*
X121677697Y-62619547D01*
X121677694Y-62619545D01*
X121518056Y-62563685D01*
X121350003Y-62544751D01*
X121349997Y-62544751D01*
X121181943Y-62563685D01*
X121022306Y-62619545D01*
X120899847Y-62696493D01*
X120833874Y-62715500D01*
X120517809Y-62715500D01*
X120450770Y-62695815D01*
X120405015Y-62643011D01*
X120394589Y-62605384D01*
X120386314Y-62531944D01*
X120379176Y-62511545D01*
X120330456Y-62372310D01*
X120330455Y-62372309D01*
X120330454Y-62372305D01*
X120330452Y-62372302D01*
X120240481Y-62229115D01*
X120240476Y-62229109D01*
X120120890Y-62109523D01*
X120120884Y-62109518D01*
X119977697Y-62019547D01*
X119977694Y-62019545D01*
X119818056Y-61963685D01*
X119650003Y-61944751D01*
X119649997Y-61944751D01*
X119481943Y-61963685D01*
X119322307Y-62019545D01*
X119268279Y-62053494D01*
X119202307Y-62072500D01*
X113197693Y-62072500D01*
X113131721Y-62053494D01*
X113077692Y-62019545D01*
X113077691Y-62019544D01*
X113077690Y-62019544D01*
X113039370Y-62006135D01*
X112918056Y-61963685D01*
X112750003Y-61944751D01*
X112749997Y-61944751D01*
X112581943Y-61963685D01*
X112422305Y-62019545D01*
X112422302Y-62019547D01*
X112279115Y-62109518D01*
X112279109Y-62109523D01*
X112159523Y-62229109D01*
X112159518Y-62229115D01*
X112069547Y-62372302D01*
X112069545Y-62372305D01*
X112013685Y-62531944D01*
X112004623Y-62612383D01*
X111977557Y-62676797D01*
X111919962Y-62716352D01*
X111881403Y-62722500D01*
X99611281Y-62722500D01*
X99544242Y-62702815D01*
X99523600Y-62686181D01*
X98139326Y-61301907D01*
X98105841Y-61240584D01*
X98109965Y-61173272D01*
X98121238Y-61141059D01*
X98140174Y-60973000D01*
X98140174Y-60972997D01*
X98121239Y-60804943D01*
X98065379Y-60645305D01*
X98065377Y-60645302D01*
X97975406Y-60502115D01*
X97975401Y-60502109D01*
X97855815Y-60382523D01*
X97855809Y-60382518D01*
X97712622Y-60292547D01*
X97712616Y-60292544D01*
X97636381Y-60265869D01*
X97553341Y-60236811D01*
X97515634Y-60215626D01*
X97511932Y-60212588D01*
X97409164Y-60143920D01*
X97409151Y-60143913D01*
X97375710Y-60130062D01*
X97294960Y-60096614D01*
X97294952Y-60096612D01*
X97173732Y-60072500D01*
X97173728Y-60072500D01*
X89932618Y-60072500D01*
X89866646Y-60053494D01*
X89812617Y-60019545D01*
X89812616Y-60019544D01*
X89812615Y-60019544D01*
X89774295Y-60006135D01*
X89652981Y-59963685D01*
X89484928Y-59944751D01*
X89484922Y-59944751D01*
X89316868Y-59963685D01*
X89157232Y-60019545D01*
X89103204Y-60053494D01*
X89037232Y-60072500D01*
X87261270Y-60072500D01*
X87140051Y-60096611D01*
X87140051Y-60096612D01*
X87140048Y-60096613D01*
X87140044Y-60096614D01*
X87073148Y-60124323D01*
X87073146Y-60124323D01*
X87025848Y-60143915D01*
X86923067Y-60212590D01*
X86923066Y-60212591D01*
X86162662Y-60972997D01*
X86030022Y-61105637D01*
X85994607Y-61141052D01*
X85942616Y-61193042D01*
X85942615Y-61193044D01*
X85873950Y-61295809D01*
X85873946Y-61295816D01*
X85866956Y-61312693D01*
X85866955Y-61312695D01*
X85826644Y-61410012D01*
X85826642Y-61410020D01*
X85809306Y-61497176D01*
X85802530Y-61531240D01*
X85802530Y-64004156D01*
X82711516Y-64004156D01*
X82696382Y-63960907D01*
X82665381Y-63872310D01*
X82654188Y-63854497D01*
X82635187Y-63787263D01*
X82655553Y-63720427D01*
X82671495Y-63700848D01*
X82972336Y-63400008D01*
X82976406Y-63393917D01*
X83041008Y-63297233D01*
X83062747Y-63244751D01*
X83088311Y-63183034D01*
X83112425Y-63061803D01*
X83112425Y-62938197D01*
X83112425Y-62747692D01*
X83131432Y-62681719D01*
X83165381Y-62627690D01*
X83194402Y-62544751D01*
X83221238Y-62468059D01*
X83230706Y-62384029D01*
X83240174Y-62300002D01*
X83240174Y-62299997D01*
X83221239Y-62131943D01*
X83165379Y-61972305D01*
X83165377Y-61972302D01*
X83075406Y-61829115D01*
X83075401Y-61829109D01*
X82955815Y-61709523D01*
X82955809Y-61709518D01*
X82812622Y-61619547D01*
X82812619Y-61619545D01*
X82652981Y-61563685D01*
X82484928Y-61544751D01*
X82484922Y-61544751D01*
X82316868Y-61563685D01*
X82157230Y-61619545D01*
X82157227Y-61619547D01*
X82014040Y-61709518D01*
X82014034Y-61709523D01*
X81894448Y-61829109D01*
X81894443Y-61829115D01*
X81804472Y-61972302D01*
X81804470Y-61972305D01*
X81748610Y-62131943D01*
X81729676Y-62299997D01*
X81729676Y-62300002D01*
X81748611Y-62468057D01*
X81804468Y-62627688D01*
X81815661Y-62645501D01*
X81834662Y-62712737D01*
X81814296Y-62779573D01*
X81798349Y-62799156D01*
X81682865Y-62914641D01*
X81584917Y-63012589D01*
X81559136Y-63038370D01*
X81497511Y-63099994D01*
X81497510Y-63099996D01*
X81428158Y-63203789D01*
X81426511Y-63208393D01*
X81381540Y-63316962D01*
X81381537Y-63316972D01*
X81363040Y-63409966D01*
X81363040Y-63409967D01*
X81357425Y-63438194D01*
X81357425Y-63752306D01*
X81338419Y-63818278D01*
X81304470Y-63872307D01*
X81248610Y-64031943D01*
X81229676Y-64199997D01*
X81229676Y-64200002D01*
X50500500Y-64200002D01*
X50500500Y-53856797D01*
X50520185Y-53789758D01*
X50572989Y-53744003D01*
X50642147Y-53734059D01*
X50705703Y-53763084D01*
X50742431Y-53818479D01*
X50764125Y-53885247D01*
X50764127Y-53885252D01*
X50892704Y-54158491D01*
X50892707Y-54158497D01*
X51054516Y-54413469D01*
X51135311Y-54511133D01*
X52063708Y-53582736D01*
X52160967Y-53716602D01*
X52283398Y-53839033D01*
X52417262Y-53936290D01*
X51486564Y-54866987D01*
X51486565Y-54866989D01*
X51711461Y-55030385D01*
X51711479Y-55030397D01*
X51976109Y-55175878D01*
X51976117Y-55175882D01*
X52256889Y-55287047D01*
X52256892Y-55287048D01*
X52549399Y-55362150D01*
X52848995Y-55399999D01*
X52849007Y-55400000D01*
X53150993Y-55400000D01*
X53151004Y-55399999D01*
X53450600Y-55362150D01*
X53743107Y-55287048D01*
X53743110Y-55287047D01*
X54023882Y-55175882D01*
X54023890Y-55175878D01*
X54288520Y-55030397D01*
X54288530Y-55030390D01*
X54513433Y-54866987D01*
X54513434Y-54866987D01*
X53582737Y-53936290D01*
X53716602Y-53839033D01*
X53839033Y-53716602D01*
X53936290Y-53582737D01*
X54864687Y-54511134D01*
X54945486Y-54413464D01*
X55107292Y-54158497D01*
X55107295Y-54158491D01*
X55235872Y-53885252D01*
X55235874Y-53885247D01*
X55328557Y-53600001D01*
X58294891Y-53600001D01*
X58315300Y-53885362D01*
X58376109Y-54164895D01*
X58476091Y-54432958D01*
X58613191Y-54684038D01*
X58613196Y-54684046D01*
X58719882Y-54826561D01*
X58719883Y-54826562D01*
X59473474Y-54072971D01*
X59562087Y-54205590D01*
X59694410Y-54337913D01*
X59827027Y-54426525D01*
X59073436Y-55180115D01*
X59215960Y-55286807D01*
X59215961Y-55286808D01*
X59467042Y-55423908D01*
X59467041Y-55423908D01*
X59735104Y-55523890D01*
X60014637Y-55584699D01*
X60299999Y-55605109D01*
X60300001Y-55605109D01*
X60585362Y-55584699D01*
X60864895Y-55523890D01*
X61132958Y-55423908D01*
X61384047Y-55286803D01*
X61526561Y-55180116D01*
X61526562Y-55180115D01*
X60772972Y-54426525D01*
X60905590Y-54337913D01*
X61037913Y-54205590D01*
X61126525Y-54072972D01*
X61880115Y-54826562D01*
X61880116Y-54826561D01*
X61986803Y-54684047D01*
X62123908Y-54432958D01*
X62223890Y-54164895D01*
X62284699Y-53885362D01*
X62305109Y-53600001D01*
X63294891Y-53600001D01*
X63315300Y-53885362D01*
X63376109Y-54164895D01*
X63476091Y-54432958D01*
X63613191Y-54684038D01*
X63613196Y-54684046D01*
X63719882Y-54826561D01*
X63719883Y-54826562D01*
X64473474Y-54072971D01*
X64562087Y-54205590D01*
X64694410Y-54337913D01*
X64827027Y-54426525D01*
X64073436Y-55180115D01*
X64215960Y-55286807D01*
X64215961Y-55286808D01*
X64467042Y-55423908D01*
X64467041Y-55423908D01*
X64735104Y-55523890D01*
X65014637Y-55584699D01*
X65299999Y-55605109D01*
X65300001Y-55605109D01*
X65585362Y-55584699D01*
X65864895Y-55523890D01*
X66132958Y-55423908D01*
X66384047Y-55286803D01*
X66526561Y-55180116D01*
X66526562Y-55180115D01*
X65772972Y-54426525D01*
X65905590Y-54337913D01*
X66037913Y-54205590D01*
X66126525Y-54072972D01*
X66880115Y-54826562D01*
X66880116Y-54826561D01*
X66986803Y-54684047D01*
X67123908Y-54432958D01*
X67223890Y-54164895D01*
X67284699Y-53885362D01*
X67305109Y-53600001D01*
X67305109Y-53599998D01*
X67284699Y-53314637D01*
X67223890Y-53035104D01*
X67123908Y-52767041D01*
X66986808Y-52515961D01*
X66986807Y-52515960D01*
X66880115Y-52373436D01*
X66126524Y-53127026D01*
X66037913Y-52994410D01*
X65905590Y-52862087D01*
X65772971Y-52773474D01*
X66526562Y-52019883D01*
X66526561Y-52019882D01*
X66384046Y-51913196D01*
X66384038Y-51913191D01*
X66132957Y-51776091D01*
X66132958Y-51776091D01*
X65864895Y-51676109D01*
X65585362Y-51615300D01*
X65300001Y-51594891D01*
X65299999Y-51594891D01*
X65014637Y-51615300D01*
X64735104Y-51676109D01*
X64467041Y-51776091D01*
X64215961Y-51913191D01*
X64215953Y-51913196D01*
X64073437Y-52019882D01*
X64073436Y-52019883D01*
X64827028Y-52773474D01*
X64694410Y-52862087D01*
X64562087Y-52994410D01*
X64473474Y-53127027D01*
X63719883Y-52373436D01*
X63719882Y-52373437D01*
X63613196Y-52515953D01*
X63613191Y-52515961D01*
X63476091Y-52767041D01*
X63376109Y-53035104D01*
X63315300Y-53314637D01*
X63294891Y-53599998D01*
X63294891Y-53600001D01*
X62305109Y-53600001D01*
X62305109Y-53599998D01*
X62284699Y-53314637D01*
X62223890Y-53035104D01*
X62123908Y-52767041D01*
X61986808Y-52515961D01*
X61986807Y-52515960D01*
X61880115Y-52373436D01*
X61126524Y-53127026D01*
X61037913Y-52994410D01*
X60905590Y-52862087D01*
X60772971Y-52773474D01*
X61526562Y-52019883D01*
X61526561Y-52019882D01*
X61384046Y-51913196D01*
X61384038Y-51913191D01*
X61132957Y-51776091D01*
X61132958Y-51776091D01*
X60864895Y-51676109D01*
X60585362Y-51615300D01*
X60300001Y-51594891D01*
X60299999Y-51594891D01*
X60014637Y-51615300D01*
X59735104Y-51676109D01*
X59467041Y-51776091D01*
X59215961Y-51913191D01*
X59215953Y-51913196D01*
X59073437Y-52019882D01*
X59073436Y-52019883D01*
X59827028Y-52773474D01*
X59694410Y-52862087D01*
X59562087Y-52994410D01*
X59473474Y-53127027D01*
X58719883Y-52373436D01*
X58719882Y-52373437D01*
X58613196Y-52515953D01*
X58613191Y-52515961D01*
X58476091Y-52767041D01*
X58376109Y-53035104D01*
X58315300Y-53314637D01*
X58294891Y-53599998D01*
X58294891Y-53600001D01*
X55328557Y-53600001D01*
X55329194Y-53598040D01*
X55385785Y-53301380D01*
X55404745Y-53000005D01*
X55404745Y-52999994D01*
X55385784Y-52698616D01*
X55385783Y-52698609D01*
X55329194Y-52401959D01*
X55235874Y-52114752D01*
X55235872Y-52114747D01*
X55107295Y-51841508D01*
X55107292Y-51841502D01*
X54945483Y-51586530D01*
X54864686Y-51488864D01*
X53936289Y-52417261D01*
X53839033Y-52283398D01*
X53716602Y-52160967D01*
X53582736Y-52063709D01*
X54513434Y-51133011D01*
X54513433Y-51133009D01*
X54288538Y-50969614D01*
X54288520Y-50969602D01*
X54023890Y-50824121D01*
X54023882Y-50824117D01*
X53810899Y-50739792D01*
X53755813Y-50696811D01*
X53732710Y-50630872D01*
X53748923Y-50562910D01*
X53799306Y-50514502D01*
X53856546Y-50500500D01*
X73426000Y-50500500D01*
X73493039Y-50520185D01*
G37*
%TD.AperFunction*%
%TD*%
M02*
