%TF.GenerationSoftware,KiCad,Pcbnew,8.0.1*%
%TF.CreationDate,2026-03-25T15:57:47+01:00*%
%TF.ProjectId,memory_pcb,6d656d6f-7279-45f7-9063-622e6b696361,rev?*%
%TF.SameCoordinates,Original*%
%TF.FileFunction,Copper,L2,Bot*%
%TF.FilePolarity,Positive*%
%FSLAX46Y46*%
G04 Gerber Fmt 4.6, Leading zero omitted, Abs format (unit mm)*
G04 Created by KiCad (PCBNEW 8.0.1) date 2026-03-25 15:57:47*
%MOMM*%
%LPD*%
G01*
G04 APERTURE LIST*
%TA.AperFunction,ComponentPad*%
%ADD10C,3.000000*%
%TD*%
%TA.AperFunction,ComponentPad*%
%ADD11O,1.200000X2.000000*%
%TD*%
%TA.AperFunction,ComponentPad*%
%ADD12O,1.200000X1.800000*%
%TD*%
%TA.AperFunction,ComponentPad*%
%ADD13C,3.800000*%
%TD*%
%TA.AperFunction,ComponentPad*%
%ADD14O,1.700000X1.700000*%
%TD*%
%TA.AperFunction,ComponentPad*%
%ADD15R,1.700000X1.700000*%
%TD*%
%TA.AperFunction,ComponentPad*%
%ADD16C,2.000000*%
%TD*%
%TA.AperFunction,ComponentPad*%
%ADD17R,2.000000X3.200000*%
%TD*%
%TA.AperFunction,ComponentPad*%
%ADD18R,2.000000X2.000000*%
%TD*%
%TA.AperFunction,ComponentPad*%
%ADD19C,2.500000*%
%TD*%
%TA.AperFunction,ViaPad*%
%ADD20C,0.500000*%
%TD*%
%TA.AperFunction,Conductor*%
%ADD21C,0.508000*%
%TD*%
%TA.AperFunction,Conductor*%
%ADD22C,0.254000*%
%TD*%
G04 APERTURE END LIST*
D10*
%TO.P,U3,1,1*%
%TO.N,Net-(JP11-A)*%
X67500000Y-66300000D03*
%TO.P,U3,2,2*%
%TO.N,/PWR_SW*%
X62800000Y-66300000D03*
%TO.P,U3,3,3*%
%TO.N,Net-(JP12-A)*%
X58100000Y-66300000D03*
%TO.P,U3,4,4*%
%TO.N,GND*%
X65300000Y-53600000D03*
%TO.P,U3,5,5*%
X60300000Y-53600000D03*
%TD*%
D11*
%TO.P,U12,4,EH*%
%TO.N,GND*%
X58474879Y-96983297D03*
D12*
%TO.P,U12,3,EH*%
X58474879Y-101163129D03*
%TO.P,U12,2,EH*%
X67125121Y-101163129D03*
D11*
%TO.P,U12,1,EH*%
X67125121Y-96983297D03*
%TD*%
D13*
%TO.P,H4,1,1*%
%TO.N,GND*%
X157000000Y-101000000D03*
%TD*%
%TO.P,H2,1,1*%
%TO.N,GND*%
X157000000Y-53000000D03*
%TD*%
D14*
%TO.P,J1,10,Pin_10*%
%TO.N,/48*%
X116435000Y-52400000D03*
%TO.P,J1,9,Pin_9*%
%TO.N,/47*%
X113895000Y-52400000D03*
%TO.P,J1,8,Pin_8*%
%TO.N,/21*%
X111355000Y-52400000D03*
%TO.P,J1,7,Pin_7*%
%TO.N,/02*%
X108815000Y-52400000D03*
%TO.P,J1,6,Pin_6*%
%TO.N,/01*%
X106275000Y-52400000D03*
%TO.P,J1,5,Pin_5*%
%TO.N,/RX*%
X103735000Y-52400000D03*
%TO.P,J1,4,Pin_4*%
%TO.N,/TX*%
X101195000Y-52400000D03*
%TO.P,J1,3,Pin_3*%
%TO.N,+5V*%
X98655000Y-52400000D03*
%TO.P,J1,2,Pin_2*%
%TO.N,+3.3V*%
X96115000Y-52400000D03*
D15*
%TO.P,J1,1,Pin_1*%
%TO.N,GND*%
X93575000Y-52400000D03*
%TD*%
D13*
%TO.P,H3,1,1*%
%TO.N,GND*%
X53000000Y-101000000D03*
%TD*%
%TO.P,H1,1,1*%
%TO.N,GND*%
X53000000Y-53000000D03*
%TD*%
D16*
%TO.P,ENC1,S2,S2*%
%TO.N,GND*%
X65300000Y-70000000D03*
%TO.P,ENC1,S1,S1*%
%TO.N,Net-(ENC1-PadS1)*%
X60300000Y-70000000D03*
D17*
%TO.P,ENC1,MP*%
%TO.N,N/C*%
X68400000Y-77000000D03*
X57200000Y-77000000D03*
D16*
%TO.P,ENC1,C,C*%
%TO.N,GND*%
X62800000Y-84500000D03*
%TO.P,ENC1,B,B*%
%TO.N,Net-(ENC1-PadB)*%
X60300000Y-84500000D03*
D18*
%TO.P,ENC1,A,A*%
%TO.N,Net-(ENC1-PadA)*%
X65300000Y-84500000D03*
%TD*%
D19*
%TO.P,SW1,2,2*%
%TO.N,GND*%
X151000000Y-62750000D03*
%TO.P,SW1,1,1*%
%TO.N,Net-(R17-Pad2)*%
X144000000Y-63800000D03*
%TD*%
%TO.P,SW2,2,2*%
%TO.N,GND*%
X151000000Y-79750000D03*
%TO.P,SW2,1,1*%
%TO.N,Net-(R16-Pad2)*%
X144000000Y-80800000D03*
%TD*%
D20*
%TO.N,GND*%
X130500000Y-74600000D03*
X122200000Y-74700000D03*
X62800000Y-82200000D03*
X113500000Y-58600000D03*
X119000000Y-58227000D03*
X109200000Y-60800000D03*
X112200000Y-59600000D03*
X102200000Y-63000000D03*
X111600000Y-69500000D03*
X118056644Y-75056644D03*
X109200000Y-71873000D03*
X108843356Y-73556644D03*
X119100000Y-69900000D03*
X62800000Y-92800000D03*
X113760000Y-81530000D03*
X96600000Y-64800000D03*
X98300000Y-68600000D03*
%TO.N,+5V*%
X106250000Y-81540000D03*
X106700000Y-69600000D03*
%TO.N,+3.3V*%
X106800000Y-64200000D03*
X103500000Y-63000000D03*
%TO.N,/CLK*%
X117000000Y-79199997D03*
X122000000Y-80800000D03*
%TO.N,/DISP_CS*%
X117000000Y-80800000D03*
X121000000Y-80800003D03*
%TO.N,/MOSI*%
X117000000Y-80000000D03*
X121000000Y-80000000D03*
%TO.N,/SCL*%
X121500000Y-64000000D03*
X111172105Y-62683684D03*
%TO.N,/SDA*%
X121500000Y-62700000D03*
X111200000Y-61824865D03*
%TO.N,/ENC_BTN*%
X112700000Y-72200000D03*
X121500000Y-72800000D03*
%TO.N,/TX*%
X136100000Y-62700000D03*
X138900000Y-62700000D03*
%TO.N,/48*%
X131823526Y-59318000D03*
X134000000Y-61715000D03*
%TO.N,/01*%
X135200000Y-60100000D03*
X138900000Y-60100000D03*
%TO.N,/21*%
X130000000Y-59318000D03*
X132400000Y-61715000D03*
%TO.N,/47*%
X133199643Y-61715000D03*
X130963318Y-59318000D03*
%TO.N,VBUS*%
X99400000Y-71873000D03*
X99400000Y-74289000D03*
%TO.N,/D+*%
X62550000Y-98654000D03*
X62549863Y-97400000D03*
%TO.N,/RESET*%
X121500000Y-60973000D03*
X110580000Y-77772994D03*
X113600000Y-60700000D03*
%TO.N,/BOOT*%
X135704410Y-75389876D03*
X117000000Y-78399994D03*
%TO.N,VBAT*%
X94900000Y-65800000D03*
X106100000Y-67800000D03*
%TO.N,Net-(LED1-K)*%
X94300000Y-75043000D03*
X96100000Y-62200000D03*
%TO.N,/PWR_SW*%
X121600000Y-67500000D03*
X112900000Y-68600000D03*
%TO.N,/BTN1*%
X112200000Y-64200000D03*
X121500000Y-65200000D03*
%TO.N,/ALRT*%
X121500000Y-69000000D03*
X111200000Y-63600000D03*
%TO.N,Net-(ENC1-PadA)*%
X116800000Y-75900000D03*
X117000000Y-70899874D03*
%TO.N,Net-(R16-Pad2)*%
X142000000Y-80800000D03*
X118100000Y-68373000D03*
%TO.N,Net-(R17-Pad2)*%
X142000000Y-63800000D03*
X113600000Y-61600000D03*
%TD*%
D21*
%TO.N,GND*%
X119000000Y-58227000D02*
X113873000Y-58227000D01*
X113873000Y-58227000D02*
X113500000Y-58600000D01*
%TO.N,VBAT*%
X106100000Y-67800000D02*
X100200000Y-67800000D01*
X100200000Y-67800000D02*
X98646000Y-69354000D01*
X98646000Y-69354000D02*
X97987682Y-69354000D01*
X94900000Y-66266318D02*
X94900000Y-65800000D01*
X97987682Y-69354000D02*
X94900000Y-66266318D01*
D22*
%TO.N,/BTN1*%
X112200000Y-64200000D02*
X112200000Y-64500000D01*
X112200000Y-64500000D02*
X112900000Y-65200000D01*
X112900000Y-65200000D02*
X121500000Y-65200000D01*
%TO.N,GND*%
X108843356Y-72229644D02*
X109200000Y-71873000D01*
X108843356Y-73556644D02*
X108843356Y-72229644D01*
D21*
%TO.N,+5V*%
X107534000Y-62134000D02*
X106300000Y-60900000D01*
X106250000Y-76650000D02*
X107534000Y-75366000D01*
D22*
%TO.N,/ENC_BTN*%
X116541572Y-76500000D02*
X116548572Y-76507000D01*
%TO.N,/RESET*%
X110580000Y-62978291D02*
X110545105Y-62943396D01*
X110545105Y-61593048D02*
X111438153Y-60700000D01*
%TO.N,/PWR_SW*%
X116986288Y-68600000D02*
X118086288Y-67500000D01*
%TO.N,Net-(R17-Pad2)*%
X132140288Y-62342000D02*
X131398288Y-61600000D01*
X135001712Y-61600000D02*
X134259712Y-62342000D01*
%TO.N,GND*%
X98300000Y-66500000D02*
X98300000Y-68600000D01*
X96600000Y-64800000D02*
X98300000Y-66500000D01*
D21*
%TO.N,+5V*%
X106250000Y-81540000D02*
X106250000Y-76650000D01*
X98655000Y-56155000D02*
X98655000Y-52400000D01*
X106300000Y-60900000D02*
X103400000Y-60900000D01*
X107534000Y-70434000D02*
X106700000Y-69600000D01*
X107534000Y-75366000D02*
X107534000Y-70434000D01*
X103400000Y-60900000D02*
X98655000Y-56155000D01*
X106700000Y-69600000D02*
X107534000Y-68766000D01*
X107534000Y-68766000D02*
X107534000Y-62134000D01*
D22*
%TO.N,+3.3V*%
X103500000Y-63000000D02*
X105600000Y-63000000D01*
X105600000Y-63000000D02*
X106800000Y-64200000D01*
%TO.N,/CLK*%
X122000000Y-80800000D02*
X122000000Y-80113288D01*
X121086712Y-79200000D02*
X117000003Y-79200000D01*
X117000003Y-79200000D02*
X117000000Y-79199997D01*
X122000000Y-80113288D02*
X121086712Y-79200000D01*
%TO.N,/DISP_CS*%
X121000000Y-80800003D02*
X120999997Y-80800000D01*
X120999997Y-80800000D02*
X117000000Y-80800000D01*
%TO.N,/MOSI*%
X121000000Y-80000000D02*
X117000000Y-80000000D01*
%TO.N,/SCL*%
X121093000Y-63593000D02*
X121500000Y-64000000D01*
X112081421Y-63593000D02*
X121093000Y-63593000D01*
X111172105Y-62683684D02*
X112081421Y-63593000D01*
%TO.N,/SDA*%
X112075135Y-62700000D02*
X121500000Y-62700000D01*
X111200000Y-61824865D02*
X112075135Y-62700000D01*
%TO.N,/ENC_BTN*%
X112700000Y-72200000D02*
X112700000Y-74000000D01*
X115200000Y-76500000D02*
X116541572Y-76500000D01*
X112700000Y-74000000D02*
X115200000Y-76500000D01*
X121500000Y-73300000D02*
X121500000Y-72800000D01*
X116548572Y-76507000D02*
X118293000Y-76507000D01*
X118293000Y-76507000D02*
X121500000Y-73300000D01*
%TO.N,/TX*%
X138900000Y-62700000D02*
X136100000Y-62700000D01*
%TO.N,/48*%
X131823526Y-59318000D02*
X134000000Y-61494474D01*
X134000000Y-61494474D02*
X134000000Y-61715000D01*
%TO.N,/01*%
X138900000Y-60100000D02*
X135200000Y-60100000D01*
%TO.N,/21*%
X130000000Y-59318000D02*
X130003000Y-59318000D01*
X130003000Y-59318000D02*
X132400000Y-61715000D01*
%TO.N,/47*%
X133199643Y-61627931D02*
X133199643Y-61715000D01*
X130963318Y-59318000D02*
X130963318Y-59391606D01*
X130963318Y-59391606D02*
X133199643Y-61627931D01*
D21*
%TO.N,VBUS*%
X99400000Y-74289000D02*
X99400000Y-71873000D01*
D22*
%TO.N,/D+*%
X62550000Y-98654000D02*
X62549863Y-98653863D01*
X62549863Y-98653863D02*
X62549863Y-97400000D01*
%TO.N,/RESET*%
X121227000Y-60700000D02*
X113600000Y-60700000D01*
X111438153Y-60700000D02*
X113600000Y-60700000D01*
X121500000Y-60973000D02*
X121227000Y-60700000D01*
X110580000Y-77772994D02*
X110580000Y-62978291D01*
X110545105Y-62943396D02*
X110545105Y-61593048D01*
%TO.N,/BOOT*%
X132499429Y-78399994D02*
X117000000Y-78399994D01*
X135509547Y-75389876D02*
X132499429Y-78399994D01*
X135704410Y-75389876D02*
X135509547Y-75389876D01*
%TO.N,Net-(LED1-K)*%
X94273000Y-64027000D02*
X96100000Y-62200000D01*
X94300000Y-75043000D02*
X94273000Y-75016000D01*
X94273000Y-75016000D02*
X94273000Y-64027000D01*
%TO.N,/PWR_SW*%
X112900000Y-68600000D02*
X116986288Y-68600000D01*
X118086288Y-67500000D02*
X121600000Y-67500000D01*
%TO.N,/ALRT*%
X122207000Y-68293000D02*
X121500000Y-69000000D01*
X111200000Y-63600000D02*
X111200000Y-64058428D01*
X112722572Y-65581000D02*
X120539428Y-65581000D01*
X111200000Y-64058428D02*
X112722572Y-65581000D01*
X120539428Y-65581000D02*
X122207000Y-67248572D01*
X122207000Y-67248572D02*
X122207000Y-68293000D01*
%TO.N,Net-(ENC1-PadA)*%
X117000000Y-70899874D02*
X117000000Y-75700000D01*
X117000000Y-75700000D02*
X116800000Y-75900000D01*
%TO.N,Net-(R16-Pad2)*%
X130807000Y-69607000D02*
X142000000Y-80800000D01*
X118100000Y-68373000D02*
X118127000Y-68400000D01*
X118100000Y-68373000D02*
X118973000Y-68373000D01*
X118973000Y-68373000D02*
X120207000Y-69607000D01*
X120207000Y-69607000D02*
X130807000Y-69607000D01*
%TO.N,Net-(R17-Pad2)*%
X131398288Y-61600000D02*
X113600000Y-61600000D01*
X139800000Y-61600000D02*
X135001712Y-61600000D01*
X134259712Y-62342000D02*
X132140288Y-62342000D01*
X142000000Y-63800000D02*
X139800000Y-61600000D01*
%TD*%
%TA.AperFunction,Conductor*%
%TO.N,GND*%
G36*
X156210493Y-50520185D02*
G01*
X156256248Y-50572989D01*
X156266192Y-50642147D01*
X156237167Y-50705703D01*
X156189101Y-50739792D01*
X155976117Y-50824117D01*
X155976109Y-50824121D01*
X155711476Y-50969604D01*
X155711471Y-50969607D01*
X155486565Y-51133010D01*
X155486564Y-51133011D01*
X156417262Y-52063709D01*
X156283398Y-52160967D01*
X156160967Y-52283398D01*
X156063709Y-52417262D01*
X155135311Y-51488864D01*
X155054520Y-51586525D01*
X155054518Y-51586528D01*
X154892707Y-51841502D01*
X154892704Y-51841508D01*
X154764127Y-52114747D01*
X154764125Y-52114752D01*
X154670805Y-52401959D01*
X154614216Y-52698609D01*
X154614215Y-52698616D01*
X154595255Y-52999994D01*
X154595255Y-53000005D01*
X154614215Y-53301380D01*
X154670805Y-53598040D01*
X154764125Y-53885247D01*
X154764127Y-53885252D01*
X154892704Y-54158491D01*
X154892707Y-54158497D01*
X155054516Y-54413469D01*
X155135311Y-54511133D01*
X156063708Y-53582736D01*
X156160967Y-53716602D01*
X156283398Y-53839033D01*
X156417262Y-53936290D01*
X155486564Y-54866987D01*
X155486565Y-54866989D01*
X155711461Y-55030385D01*
X155711479Y-55030397D01*
X155976109Y-55175878D01*
X155976117Y-55175882D01*
X156256889Y-55287047D01*
X156256892Y-55287048D01*
X156549399Y-55362150D01*
X156848995Y-55399999D01*
X156849007Y-55400000D01*
X157150993Y-55400000D01*
X157151004Y-55399999D01*
X157450600Y-55362150D01*
X157743107Y-55287048D01*
X157743110Y-55287047D01*
X158023882Y-55175882D01*
X158023890Y-55175878D01*
X158288520Y-55030397D01*
X158288530Y-55030390D01*
X158513433Y-54866987D01*
X158513434Y-54866987D01*
X157582737Y-53936290D01*
X157716602Y-53839033D01*
X157839033Y-53716602D01*
X157936290Y-53582737D01*
X158864687Y-54511134D01*
X158945486Y-54413464D01*
X159107292Y-54158497D01*
X159107295Y-54158491D01*
X159235872Y-53885252D01*
X159235874Y-53885247D01*
X159257569Y-53818479D01*
X159297006Y-53760804D01*
X159361365Y-53733605D01*
X159430211Y-53745520D01*
X159481687Y-53792764D01*
X159499500Y-53856797D01*
X159499500Y-100143202D01*
X159479815Y-100210241D01*
X159427011Y-100255996D01*
X159357853Y-100265940D01*
X159294297Y-100236915D01*
X159257569Y-100181520D01*
X159235874Y-100114752D01*
X159235872Y-100114747D01*
X159107295Y-99841507D01*
X159107292Y-99841502D01*
X158945483Y-99586530D01*
X158864686Y-99488864D01*
X157936289Y-100417261D01*
X157839033Y-100283398D01*
X157716602Y-100160967D01*
X157582736Y-100063709D01*
X158513434Y-99133011D01*
X158513433Y-99133009D01*
X158288538Y-98969614D01*
X158288520Y-98969602D01*
X158023890Y-98824121D01*
X158023882Y-98824117D01*
X157743110Y-98712952D01*
X157743107Y-98712951D01*
X157450600Y-98637849D01*
X157151004Y-98600000D01*
X156848995Y-98600000D01*
X156549399Y-98637849D01*
X156256892Y-98712951D01*
X156256889Y-98712952D01*
X155976117Y-98824117D01*
X155976109Y-98824121D01*
X155711476Y-98969604D01*
X155711471Y-98969607D01*
X155486565Y-99133010D01*
X155486564Y-99133011D01*
X156417262Y-100063709D01*
X156283398Y-100160967D01*
X156160967Y-100283398D01*
X156063709Y-100417262D01*
X155135311Y-99488864D01*
X155054520Y-99586525D01*
X155054518Y-99586528D01*
X154892707Y-99841502D01*
X154892705Y-99841507D01*
X154764127Y-100114747D01*
X154764125Y-100114752D01*
X154670805Y-100401959D01*
X154614216Y-100698609D01*
X154614215Y-100698616D01*
X154595255Y-100999994D01*
X154595255Y-101000005D01*
X154614215Y-101301383D01*
X154614216Y-101301390D01*
X154670805Y-101598040D01*
X154764125Y-101885247D01*
X154764127Y-101885252D01*
X154892704Y-102158491D01*
X154892707Y-102158497D01*
X155054516Y-102413469D01*
X155135311Y-102511133D01*
X156063708Y-101582736D01*
X156160967Y-101716602D01*
X156283398Y-101839033D01*
X156417262Y-101936290D01*
X155486564Y-102866987D01*
X155486565Y-102866989D01*
X155711461Y-103030385D01*
X155711479Y-103030397D01*
X155976109Y-103175878D01*
X155976117Y-103175882D01*
X156189101Y-103260208D01*
X156244187Y-103303189D01*
X156267290Y-103369128D01*
X156251077Y-103437090D01*
X156200694Y-103485498D01*
X156143454Y-103499500D01*
X112005413Y-103499500D01*
X111994605Y-103499028D01*
X111837246Y-103485260D01*
X111815961Y-103481507D01*
X111668630Y-103442030D01*
X111648318Y-103434637D01*
X111510084Y-103370177D01*
X111491366Y-103359370D01*
X111366417Y-103271880D01*
X111349859Y-103257986D01*
X111242013Y-103150140D01*
X111228119Y-103133582D01*
X111140629Y-103008633D01*
X111129822Y-102989915D01*
X111065362Y-102851681D01*
X111057969Y-102831369D01*
X111018492Y-102684038D01*
X111014739Y-102662752D01*
X111014277Y-102657475D01*
X111003758Y-102537243D01*
X111000972Y-102505393D01*
X111000500Y-102494586D01*
X111000500Y-99434110D01*
X111000500Y-99434108D01*
X110966392Y-99306814D01*
X110900500Y-99192686D01*
X110807314Y-99099500D01*
X110750250Y-99066554D01*
X110693187Y-99033608D01*
X110629539Y-99016554D01*
X110565892Y-98999500D01*
X99565892Y-98999500D01*
X99434108Y-98999500D01*
X99306812Y-99033608D01*
X99192686Y-99099500D01*
X99192683Y-99099502D01*
X99099502Y-99192683D01*
X99099500Y-99192686D01*
X99033608Y-99306812D01*
X98999500Y-99434108D01*
X98999500Y-102494586D01*
X98999028Y-102505394D01*
X98985260Y-102662753D01*
X98981507Y-102684038D01*
X98942030Y-102831369D01*
X98934637Y-102851681D01*
X98870177Y-102989915D01*
X98859370Y-103008633D01*
X98771880Y-103133582D01*
X98757986Y-103150140D01*
X98650140Y-103257986D01*
X98633582Y-103271880D01*
X98508633Y-103359370D01*
X98489915Y-103370177D01*
X98351681Y-103434637D01*
X98331369Y-103442030D01*
X98184038Y-103481507D01*
X98162753Y-103485260D01*
X98005395Y-103499028D01*
X97994587Y-103499500D01*
X53856546Y-103499500D01*
X53789507Y-103479815D01*
X53743752Y-103427011D01*
X53733808Y-103357853D01*
X53762833Y-103294297D01*
X53810899Y-103260208D01*
X54023882Y-103175882D01*
X54023890Y-103175878D01*
X54288520Y-103030397D01*
X54288530Y-103030390D01*
X54513433Y-102866987D01*
X54513434Y-102866987D01*
X53582737Y-101936290D01*
X53716602Y-101839033D01*
X53839033Y-101716602D01*
X53936290Y-101582737D01*
X54864687Y-102511134D01*
X54945486Y-102413464D01*
X55107292Y-102158497D01*
X55107295Y-102158491D01*
X55235872Y-101885252D01*
X55235874Y-101885247D01*
X55329194Y-101598040D01*
X55338415Y-101549700D01*
X57374879Y-101549700D01*
X57401964Y-101720713D01*
X57455470Y-101885386D01*
X57534074Y-102039653D01*
X57635846Y-102179731D01*
X57758276Y-102302161D01*
X57898354Y-102403933D01*
X58052623Y-102482537D01*
X58217294Y-102536043D01*
X58217293Y-102536043D01*
X58224878Y-102537244D01*
X58224879Y-102537243D01*
X58224879Y-101778815D01*
X58229273Y-101783209D01*
X58320485Y-101835870D01*
X58422218Y-101863129D01*
X58527540Y-101863129D01*
X58629273Y-101835870D01*
X58720485Y-101783209D01*
X58724879Y-101778815D01*
X58724879Y-102537244D01*
X58732463Y-102536043D01*
X58897134Y-102482537D01*
X59051403Y-102403933D01*
X59191481Y-102302161D01*
X59313911Y-102179731D01*
X59415683Y-102039653D01*
X59494287Y-101885386D01*
X59547793Y-101720713D01*
X59574879Y-101549700D01*
X66025121Y-101549700D01*
X66052206Y-101720713D01*
X66105712Y-101885386D01*
X66184316Y-102039653D01*
X66286088Y-102179731D01*
X66408518Y-102302161D01*
X66548596Y-102403933D01*
X66702865Y-102482537D01*
X66867536Y-102536043D01*
X66867535Y-102536043D01*
X66875120Y-102537244D01*
X66875121Y-102537243D01*
X66875121Y-101778815D01*
X66879515Y-101783209D01*
X66970727Y-101835870D01*
X67072460Y-101863129D01*
X67177782Y-101863129D01*
X67279515Y-101835870D01*
X67370727Y-101783209D01*
X67375121Y-101778815D01*
X67375121Y-102537244D01*
X67382705Y-102536043D01*
X67547376Y-102482537D01*
X67701645Y-102403933D01*
X67841723Y-102302161D01*
X67964153Y-102179731D01*
X68065925Y-102039653D01*
X68144529Y-101885386D01*
X68198035Y-101720713D01*
X68225121Y-101549700D01*
X68225121Y-101413129D01*
X67525121Y-101413129D01*
X67525121Y-100913129D01*
X68225121Y-100913129D01*
X68225121Y-100776557D01*
X68198035Y-100605544D01*
X68144529Y-100440871D01*
X68065925Y-100286604D01*
X67964153Y-100146526D01*
X67841723Y-100024096D01*
X67701645Y-99922324D01*
X67547378Y-99843720D01*
X67382710Y-99790216D01*
X67382702Y-99790214D01*
X67375121Y-99789013D01*
X67375121Y-100547443D01*
X67370727Y-100543049D01*
X67279515Y-100490388D01*
X67177782Y-100463129D01*
X67072460Y-100463129D01*
X66970727Y-100490388D01*
X66879515Y-100543049D01*
X66875121Y-100547443D01*
X66875121Y-99789013D01*
X66875120Y-99789013D01*
X66867539Y-99790214D01*
X66867531Y-99790216D01*
X66702863Y-99843720D01*
X66548596Y-99922324D01*
X66408518Y-100024096D01*
X66286088Y-100146526D01*
X66184316Y-100286604D01*
X66105712Y-100440871D01*
X66052206Y-100605544D01*
X66025121Y-100776557D01*
X66025121Y-100913129D01*
X66725121Y-100913129D01*
X66725121Y-101413129D01*
X66025121Y-101413129D01*
X66025121Y-101549700D01*
X59574879Y-101549700D01*
X59574879Y-101413129D01*
X58874879Y-101413129D01*
X58874879Y-100913129D01*
X59574879Y-100913129D01*
X59574879Y-100776557D01*
X59547793Y-100605544D01*
X59494287Y-100440871D01*
X59415683Y-100286604D01*
X59313911Y-100146526D01*
X59191481Y-100024096D01*
X59051403Y-99922324D01*
X58897136Y-99843720D01*
X58732468Y-99790216D01*
X58732460Y-99790214D01*
X58724879Y-99789013D01*
X58724879Y-100547443D01*
X58720485Y-100543049D01*
X58629273Y-100490388D01*
X58527540Y-100463129D01*
X58422218Y-100463129D01*
X58320485Y-100490388D01*
X58229273Y-100543049D01*
X58224879Y-100547443D01*
X58224879Y-99789013D01*
X58224878Y-99789013D01*
X58217297Y-99790214D01*
X58217289Y-99790216D01*
X58052621Y-99843720D01*
X57898354Y-99922324D01*
X57758276Y-100024096D01*
X57635846Y-100146526D01*
X57534074Y-100286604D01*
X57455470Y-100440871D01*
X57401964Y-100605544D01*
X57374879Y-100776557D01*
X57374879Y-100913129D01*
X58074879Y-100913129D01*
X58074879Y-101413129D01*
X57374879Y-101413129D01*
X57374879Y-101549700D01*
X55338415Y-101549700D01*
X55385783Y-101301390D01*
X55385784Y-101301383D01*
X55404745Y-101000005D01*
X55404745Y-100999994D01*
X55385784Y-100698616D01*
X55385783Y-100698609D01*
X55329194Y-100401959D01*
X55235874Y-100114752D01*
X55235872Y-100114747D01*
X55107295Y-99841507D01*
X55107292Y-99841502D01*
X54945483Y-99586530D01*
X54864686Y-99488864D01*
X53936289Y-100417261D01*
X53839033Y-100283398D01*
X53716602Y-100160967D01*
X53582736Y-100063709D01*
X54513434Y-99133011D01*
X54513433Y-99133009D01*
X54288538Y-98969614D01*
X54288520Y-98969602D01*
X54023890Y-98824121D01*
X54023882Y-98824117D01*
X53743110Y-98712952D01*
X53743107Y-98712951D01*
X53450600Y-98637849D01*
X53151004Y-98600000D01*
X52848995Y-98600000D01*
X52549399Y-98637849D01*
X52256892Y-98712951D01*
X52256889Y-98712952D01*
X51976117Y-98824117D01*
X51976109Y-98824121D01*
X51711476Y-98969604D01*
X51711471Y-98969607D01*
X51486565Y-99133010D01*
X51486564Y-99133011D01*
X52417262Y-100063709D01*
X52283398Y-100160967D01*
X52160967Y-100283398D01*
X52063709Y-100417262D01*
X51135311Y-99488864D01*
X51054520Y-99586525D01*
X51054518Y-99586528D01*
X50892707Y-99841502D01*
X50892705Y-99841507D01*
X50764127Y-100114747D01*
X50764125Y-100114752D01*
X50742431Y-100181520D01*
X50702993Y-100239196D01*
X50638635Y-100266394D01*
X50569788Y-100254479D01*
X50518313Y-100207235D01*
X50500500Y-100143202D01*
X50500500Y-97469868D01*
X57374879Y-97469868D01*
X57401964Y-97640881D01*
X57455470Y-97805554D01*
X57534074Y-97959821D01*
X57635846Y-98099899D01*
X57758276Y-98222329D01*
X57898354Y-98324101D01*
X58052623Y-98402705D01*
X58217294Y-98456211D01*
X58217293Y-98456211D01*
X58224878Y-98457412D01*
X58224879Y-98457411D01*
X58224879Y-97698996D01*
X58229273Y-97703390D01*
X58320485Y-97756051D01*
X58422218Y-97783310D01*
X58527540Y-97783310D01*
X58629273Y-97756051D01*
X58720485Y-97703390D01*
X58724879Y-97698996D01*
X58724879Y-98457412D01*
X58732463Y-98456211D01*
X58897134Y-98402705D01*
X59051403Y-98324101D01*
X59191481Y-98222329D01*
X59313913Y-98099897D01*
X59368966Y-98024121D01*
X59424296Y-97981454D01*
X59493909Y-97975473D01*
X59538177Y-97993902D01*
X59603780Y-98037737D01*
X59603784Y-98037739D01*
X59603787Y-98037741D01*
X59717622Y-98084894D01*
X59838469Y-98108931D01*
X59838471Y-98108931D01*
X59961681Y-98108931D01*
X59961683Y-98108931D01*
X60082530Y-98084894D01*
X60196365Y-98037741D01*
X60298814Y-97969287D01*
X60385939Y-97882162D01*
X60454393Y-97779713D01*
X60501546Y-97665878D01*
X60525583Y-97545031D01*
X60525583Y-97421817D01*
X60521244Y-97400002D01*
X61794614Y-97400002D01*
X61813549Y-97568057D01*
X61869406Y-97727690D01*
X61903356Y-97781719D01*
X61922363Y-97847692D01*
X61922363Y-98206524D01*
X61903357Y-98272496D01*
X61869545Y-98326307D01*
X61813685Y-98485943D01*
X61794751Y-98653997D01*
X61794751Y-98654002D01*
X61813685Y-98822056D01*
X61869545Y-98981694D01*
X61869547Y-98981697D01*
X61959518Y-99124884D01*
X61959523Y-99124890D01*
X62079109Y-99244476D01*
X62079115Y-99244481D01*
X62222302Y-99334452D01*
X62222305Y-99334454D01*
X62222309Y-99334455D01*
X62222310Y-99334456D01*
X62294913Y-99359860D01*
X62381943Y-99390314D01*
X62549997Y-99409249D01*
X62550000Y-99409249D01*
X62550003Y-99409249D01*
X62718056Y-99390314D01*
X62718059Y-99390313D01*
X62877690Y-99334456D01*
X62877692Y-99334454D01*
X62877694Y-99334454D01*
X62877697Y-99334452D01*
X63020884Y-99244481D01*
X63020885Y-99244480D01*
X63020890Y-99244477D01*
X63140477Y-99124890D01*
X63140481Y-99124884D01*
X63230452Y-98981697D01*
X63230454Y-98981694D01*
X63230454Y-98981692D01*
X63230456Y-98981690D01*
X63286313Y-98822059D01*
X63286313Y-98822058D01*
X63286314Y-98822056D01*
X63305249Y-98654002D01*
X63305249Y-98653997D01*
X63286314Y-98485943D01*
X63272904Y-98447621D01*
X63230456Y-98326310D01*
X63224511Y-98316849D01*
X63196369Y-98272060D01*
X63177363Y-98206088D01*
X63177363Y-97847692D01*
X63196370Y-97781719D01*
X63230319Y-97727690D01*
X63251948Y-97665878D01*
X63286176Y-97568059D01*
X63288771Y-97545031D01*
X65074417Y-97545031D01*
X65098454Y-97665878D01*
X65098455Y-97665880D01*
X65145605Y-97779709D01*
X65145610Y-97779719D01*
X65214060Y-97882161D01*
X65214063Y-97882165D01*
X65301182Y-97969284D01*
X65301186Y-97969287D01*
X65403628Y-98037737D01*
X65403632Y-98037739D01*
X65403635Y-98037741D01*
X65517470Y-98084894D01*
X65638317Y-98108931D01*
X65638319Y-98108931D01*
X65761529Y-98108931D01*
X65761531Y-98108931D01*
X65882378Y-98084894D01*
X65996213Y-98037741D01*
X66016597Y-98024121D01*
X66061822Y-97993903D01*
X66128500Y-97973025D01*
X66195880Y-97991510D01*
X66231032Y-98024120D01*
X66286088Y-98099899D01*
X66408518Y-98222329D01*
X66548596Y-98324101D01*
X66702865Y-98402705D01*
X66867536Y-98456211D01*
X66867535Y-98456211D01*
X66875120Y-98457412D01*
X66875121Y-98457411D01*
X66875121Y-97698971D01*
X66879515Y-97703365D01*
X66970727Y-97756026D01*
X67072460Y-97783285D01*
X67177782Y-97783285D01*
X67279515Y-97756026D01*
X67370727Y-97703365D01*
X67375121Y-97698971D01*
X67375121Y-98457412D01*
X67382705Y-98456211D01*
X67547376Y-98402705D01*
X67701645Y-98324101D01*
X67841723Y-98222329D01*
X67964153Y-98099899D01*
X68065925Y-97959821D01*
X68144529Y-97805554D01*
X68198035Y-97640881D01*
X68225121Y-97469868D01*
X68225121Y-97233297D01*
X67525121Y-97233297D01*
X67525121Y-96733297D01*
X68225121Y-96733297D01*
X68225121Y-96496725D01*
X68198035Y-96325712D01*
X68144529Y-96161039D01*
X68065925Y-96006772D01*
X67964153Y-95866694D01*
X67841723Y-95744264D01*
X67701645Y-95642492D01*
X67547378Y-95563888D01*
X67382710Y-95510384D01*
X67382702Y-95510382D01*
X67375121Y-95509181D01*
X67375121Y-96267623D01*
X67370727Y-96263229D01*
X67279515Y-96210568D01*
X67177782Y-96183309D01*
X67072460Y-96183309D01*
X66970727Y-96210568D01*
X66879515Y-96263229D01*
X66875121Y-96267623D01*
X66875121Y-95509181D01*
X66875120Y-95509181D01*
X66867539Y-95510382D01*
X66867531Y-95510384D01*
X66702863Y-95563888D01*
X66548596Y-95642492D01*
X66408518Y-95744264D01*
X66286088Y-95866694D01*
X66184316Y-96006772D01*
X66105712Y-96161039D01*
X66052206Y-96325712D01*
X66025121Y-96496725D01*
X66025121Y-96759253D01*
X66005436Y-96826292D01*
X65952632Y-96872047D01*
X65883474Y-96881991D01*
X65876946Y-96880873D01*
X65761531Y-96857917D01*
X65638317Y-96857917D01*
X65517470Y-96881954D01*
X65517468Y-96881954D01*
X65517467Y-96881955D01*
X65403638Y-96929105D01*
X65403628Y-96929110D01*
X65301186Y-96997560D01*
X65301182Y-96997563D01*
X65214063Y-97084682D01*
X65214060Y-97084686D01*
X65145610Y-97187128D01*
X65145605Y-97187138D01*
X65098455Y-97300967D01*
X65098454Y-97300970D01*
X65074417Y-97421817D01*
X65074417Y-97545031D01*
X63288771Y-97545031D01*
X63305112Y-97400000D01*
X63293954Y-97300970D01*
X63286177Y-97231943D01*
X63255723Y-97144913D01*
X63230319Y-97072310D01*
X63230318Y-97072309D01*
X63230317Y-97072305D01*
X63230315Y-97072302D01*
X63140344Y-96929115D01*
X63140339Y-96929109D01*
X63020753Y-96809523D01*
X63020747Y-96809518D01*
X62877560Y-96719547D01*
X62877557Y-96719545D01*
X62717919Y-96663685D01*
X62549866Y-96644751D01*
X62549860Y-96644751D01*
X62381806Y-96663685D01*
X62222168Y-96719545D01*
X62222165Y-96719547D01*
X62078978Y-96809518D01*
X62078972Y-96809523D01*
X61959386Y-96929109D01*
X61959381Y-96929115D01*
X61869410Y-97072302D01*
X61869408Y-97072305D01*
X61813548Y-97231943D01*
X61794614Y-97399997D01*
X61794614Y-97400002D01*
X60521244Y-97400002D01*
X60501546Y-97300970D01*
X60454393Y-97187135D01*
X60454391Y-97187132D01*
X60454389Y-97187128D01*
X60385939Y-97084686D01*
X60385936Y-97084682D01*
X60298817Y-96997563D01*
X60298813Y-96997560D01*
X60196371Y-96929110D01*
X60196361Y-96929105D01*
X60082532Y-96881955D01*
X60082530Y-96881954D01*
X59961683Y-96857917D01*
X59838469Y-96857917D01*
X59723067Y-96880870D01*
X59653478Y-96874643D01*
X59598301Y-96831779D01*
X59575057Y-96765889D01*
X59574879Y-96759253D01*
X59574879Y-96496725D01*
X59547793Y-96325712D01*
X59494287Y-96161039D01*
X59415683Y-96006772D01*
X59313911Y-95866694D01*
X59191481Y-95744264D01*
X59051403Y-95642492D01*
X58897136Y-95563888D01*
X58732468Y-95510384D01*
X58732460Y-95510382D01*
X58724879Y-95509181D01*
X58724879Y-96267598D01*
X58720485Y-96263204D01*
X58629273Y-96210543D01*
X58527540Y-96183284D01*
X58422218Y-96183284D01*
X58320485Y-96210543D01*
X58229273Y-96263204D01*
X58224879Y-96267598D01*
X58224879Y-95509181D01*
X58224878Y-95509181D01*
X58217297Y-95510382D01*
X58217289Y-95510384D01*
X58052621Y-95563888D01*
X57898354Y-95642492D01*
X57758276Y-95744264D01*
X57635846Y-95866694D01*
X57534074Y-96006772D01*
X57455470Y-96161039D01*
X57401964Y-96325712D01*
X57374879Y-96496725D01*
X57374879Y-96733297D01*
X58074879Y-96733297D01*
X58074879Y-97233297D01*
X57374879Y-97233297D01*
X57374879Y-97469868D01*
X50500500Y-97469868D01*
X50500500Y-84500005D01*
X58794357Y-84500005D01*
X58814890Y-84747812D01*
X58814892Y-84747824D01*
X58875936Y-84988881D01*
X58975826Y-85216606D01*
X59111833Y-85424782D01*
X59111836Y-85424785D01*
X59280256Y-85607738D01*
X59476491Y-85760474D01*
X59476493Y-85760475D01*
X59694332Y-85878364D01*
X59695190Y-85878828D01*
X59884426Y-85943793D01*
X59928964Y-85959083D01*
X59930386Y-85959571D01*
X60175665Y-86000500D01*
X60424335Y-86000500D01*
X60669614Y-85959571D01*
X60904810Y-85878828D01*
X61123509Y-85760474D01*
X61319744Y-85607738D01*
X61488164Y-85424785D01*
X61488169Y-85424777D01*
X61491311Y-85420741D01*
X61493050Y-85422094D01*
X61539095Y-85382764D01*
X61568378Y-85378069D01*
X62317037Y-84629409D01*
X62334075Y-84692993D01*
X62399901Y-84807007D01*
X62492993Y-84900099D01*
X62607007Y-84965925D01*
X62670588Y-84982962D01*
X61929942Y-85723609D01*
X61976768Y-85760055D01*
X61976770Y-85760056D01*
X62195385Y-85878364D01*
X62195396Y-85878369D01*
X62430506Y-85959083D01*
X62675707Y-86000000D01*
X62924293Y-86000000D01*
X63169493Y-85959083D01*
X63404603Y-85878369D01*
X63404614Y-85878364D01*
X63623230Y-85760056D01*
X63623236Y-85760051D01*
X63679107Y-85716565D01*
X63744101Y-85690921D01*
X63812641Y-85704487D01*
X63854537Y-85740105D01*
X63942455Y-85857547D01*
X64057664Y-85943793D01*
X64057671Y-85943797D01*
X64192517Y-85994091D01*
X64192516Y-85994091D01*
X64199444Y-85994835D01*
X64252127Y-86000500D01*
X66347872Y-86000499D01*
X66407483Y-85994091D01*
X66542331Y-85943796D01*
X66657546Y-85857546D01*
X66743796Y-85742331D01*
X66773948Y-85661489D01*
X145524500Y-85661489D01*
X145560659Y-85982410D01*
X145560661Y-85982426D01*
X145632527Y-86297294D01*
X145632531Y-86297306D01*
X145739195Y-86602133D01*
X145739201Y-86602147D01*
X145879327Y-86893122D01*
X145879329Y-86893125D01*
X146051159Y-87166591D01*
X146252527Y-87419099D01*
X146480901Y-87647473D01*
X146733409Y-87848841D01*
X147006875Y-88020671D01*
X147297860Y-88160802D01*
X147297866Y-88160804D01*
X147602693Y-88267468D01*
X147602705Y-88267472D01*
X147917577Y-88339339D01*
X148238511Y-88375499D01*
X148238512Y-88375500D01*
X148238515Y-88375500D01*
X148561488Y-88375500D01*
X148561488Y-88375499D01*
X148882423Y-88339339D01*
X149197295Y-88267472D01*
X149502140Y-88160802D01*
X149793125Y-88020671D01*
X150066591Y-87848841D01*
X150319099Y-87647473D01*
X150547473Y-87419099D01*
X150748841Y-87166591D01*
X150920671Y-86893125D01*
X151060802Y-86602140D01*
X151167472Y-86297295D01*
X151239339Y-85982423D01*
X151275500Y-85661485D01*
X151275500Y-85338515D01*
X151239339Y-85017577D01*
X151167472Y-84702705D01*
X151060802Y-84397860D01*
X150920671Y-84106875D01*
X150748841Y-83833409D01*
X150547473Y-83580901D01*
X150319099Y-83352527D01*
X150066591Y-83151159D01*
X149793125Y-82979329D01*
X149793122Y-82979327D01*
X149502147Y-82839201D01*
X149502133Y-82839195D01*
X149197306Y-82732531D01*
X149197294Y-82732527D01*
X148882426Y-82660661D01*
X148882410Y-82660659D01*
X148561489Y-82624500D01*
X148561485Y-82624500D01*
X148238515Y-82624500D01*
X148238510Y-82624500D01*
X147917589Y-82660659D01*
X147917573Y-82660661D01*
X147602705Y-82732527D01*
X147602693Y-82732531D01*
X147297866Y-82839195D01*
X147297852Y-82839201D01*
X147006877Y-82979327D01*
X146733410Y-83151158D01*
X146480901Y-83352526D01*
X146252526Y-83580901D01*
X146051158Y-83833410D01*
X145879327Y-84106877D01*
X145739201Y-84397852D01*
X145739195Y-84397866D01*
X145632531Y-84702693D01*
X145632527Y-84702705D01*
X145560661Y-85017573D01*
X145560659Y-85017589D01*
X145524500Y-85338510D01*
X145524500Y-85661489D01*
X66773948Y-85661489D01*
X66794091Y-85607483D01*
X66800500Y-85547873D01*
X66800499Y-83452128D01*
X66794091Y-83392517D01*
X66779175Y-83352526D01*
X66743797Y-83257671D01*
X66743793Y-83257664D01*
X66657547Y-83142455D01*
X66657544Y-83142452D01*
X66542335Y-83056206D01*
X66542328Y-83056202D01*
X66407482Y-83005908D01*
X66407483Y-83005908D01*
X66347883Y-82999501D01*
X66347881Y-82999500D01*
X66347873Y-82999500D01*
X66347864Y-82999500D01*
X64252129Y-82999500D01*
X64252123Y-82999501D01*
X64192516Y-83005908D01*
X64057671Y-83056202D01*
X64057664Y-83056206D01*
X63942455Y-83142452D01*
X63854537Y-83259894D01*
X63798603Y-83301764D01*
X63728911Y-83306748D01*
X63679109Y-83283436D01*
X63623230Y-83239943D01*
X63623228Y-83239942D01*
X63404614Y-83121635D01*
X63404603Y-83121630D01*
X63169493Y-83040916D01*
X62924293Y-83000000D01*
X62675707Y-83000000D01*
X62430506Y-83040916D01*
X62195396Y-83121630D01*
X62195390Y-83121632D01*
X61976761Y-83239949D01*
X61929942Y-83276388D01*
X61929942Y-83276390D01*
X62670590Y-84017037D01*
X62607007Y-84034075D01*
X62492993Y-84099901D01*
X62399901Y-84192993D01*
X62334075Y-84307007D01*
X62317037Y-84370589D01*
X61567372Y-83620924D01*
X61533885Y-83614752D01*
X61492873Y-83578053D01*
X61491317Y-83579265D01*
X61488169Y-83575220D01*
X61374855Y-83452129D01*
X61319744Y-83392262D01*
X61123509Y-83239526D01*
X61123507Y-83239525D01*
X61123506Y-83239524D01*
X60904811Y-83121172D01*
X60904802Y-83121169D01*
X60669616Y-83040429D01*
X60424335Y-82999500D01*
X60175665Y-82999500D01*
X59930383Y-83040429D01*
X59695197Y-83121169D01*
X59695188Y-83121172D01*
X59476493Y-83239524D01*
X59280257Y-83392261D01*
X59111833Y-83575217D01*
X58975826Y-83783393D01*
X58875936Y-84011118D01*
X58814892Y-84252175D01*
X58814890Y-84252187D01*
X58794357Y-84499994D01*
X58794357Y-84500005D01*
X50500500Y-84500005D01*
X50500500Y-78647870D01*
X55699500Y-78647870D01*
X55699501Y-78647876D01*
X55705908Y-78707483D01*
X55756202Y-78842328D01*
X55756206Y-78842335D01*
X55842452Y-78957544D01*
X55842455Y-78957547D01*
X55957664Y-79043793D01*
X55957671Y-79043797D01*
X56092517Y-79094091D01*
X56092516Y-79094091D01*
X56099444Y-79094835D01*
X56152127Y-79100500D01*
X58247872Y-79100499D01*
X58307483Y-79094091D01*
X58442331Y-79043796D01*
X58557546Y-78957546D01*
X58643796Y-78842331D01*
X58694091Y-78707483D01*
X58700500Y-78647873D01*
X58700500Y-78647870D01*
X66899500Y-78647870D01*
X66899501Y-78647876D01*
X66905908Y-78707483D01*
X66956202Y-78842328D01*
X66956206Y-78842335D01*
X67042452Y-78957544D01*
X67042455Y-78957547D01*
X67157664Y-79043793D01*
X67157671Y-79043797D01*
X67292517Y-79094091D01*
X67292516Y-79094091D01*
X67299444Y-79094835D01*
X67352127Y-79100500D01*
X69447872Y-79100499D01*
X69507483Y-79094091D01*
X69642331Y-79043796D01*
X69757546Y-78957546D01*
X69843796Y-78842331D01*
X69894091Y-78707483D01*
X69900500Y-78647873D01*
X69900499Y-75352128D01*
X69894091Y-75292517D01*
X69890259Y-75282244D01*
X69843797Y-75157671D01*
X69843793Y-75157664D01*
X69757547Y-75042455D01*
X69757544Y-75042452D01*
X69642335Y-74956206D01*
X69642328Y-74956202D01*
X69507482Y-74905908D01*
X69507483Y-74905908D01*
X69447883Y-74899501D01*
X69447881Y-74899500D01*
X69447873Y-74899500D01*
X69447864Y-74899500D01*
X67352129Y-74899500D01*
X67352123Y-74899501D01*
X67292516Y-74905908D01*
X67157671Y-74956202D01*
X67157664Y-74956206D01*
X67042455Y-75042452D01*
X67042452Y-75042455D01*
X66956206Y-75157664D01*
X66956202Y-75157671D01*
X66905908Y-75292517D01*
X66899501Y-75352116D01*
X66899501Y-75352123D01*
X66899500Y-75352135D01*
X66899500Y-78647870D01*
X58700500Y-78647870D01*
X58700499Y-75352128D01*
X58694091Y-75292517D01*
X58690259Y-75282244D01*
X58643797Y-75157671D01*
X58643793Y-75157664D01*
X58557547Y-75042455D01*
X58557544Y-75042452D01*
X58442335Y-74956206D01*
X58442328Y-74956202D01*
X58307482Y-74905908D01*
X58307483Y-74905908D01*
X58247883Y-74899501D01*
X58247881Y-74899500D01*
X58247873Y-74899500D01*
X58247864Y-74899500D01*
X56152129Y-74899500D01*
X56152123Y-74899501D01*
X56092516Y-74905908D01*
X55957671Y-74956202D01*
X55957664Y-74956206D01*
X55842455Y-75042452D01*
X55842452Y-75042455D01*
X55756206Y-75157664D01*
X55756202Y-75157671D01*
X55705908Y-75292517D01*
X55699501Y-75352116D01*
X55699501Y-75352123D01*
X55699500Y-75352135D01*
X55699500Y-78647870D01*
X50500500Y-78647870D01*
X50500500Y-70000005D01*
X58794357Y-70000005D01*
X58814890Y-70247812D01*
X58814892Y-70247824D01*
X58875936Y-70488881D01*
X58975826Y-70716606D01*
X59111833Y-70924782D01*
X59111836Y-70924785D01*
X59280256Y-71107738D01*
X59476491Y-71260474D01*
X59525394Y-71286939D01*
X59694332Y-71378364D01*
X59695190Y-71378828D01*
X59887217Y-71444751D01*
X59928964Y-71459083D01*
X59930386Y-71459571D01*
X60175665Y-71500500D01*
X60424335Y-71500500D01*
X60669614Y-71459571D01*
X60904810Y-71378828D01*
X61123509Y-71260474D01*
X61319744Y-71107738D01*
X61488164Y-70924785D01*
X61624173Y-70716607D01*
X61724063Y-70488881D01*
X61785108Y-70247821D01*
X61786212Y-70234499D01*
X61805643Y-70000005D01*
X63794859Y-70000005D01*
X63815385Y-70247729D01*
X63815387Y-70247738D01*
X63876412Y-70488717D01*
X63976266Y-70716364D01*
X64076564Y-70869882D01*
X64817037Y-70129409D01*
X64834075Y-70192993D01*
X64899901Y-70307007D01*
X64992993Y-70400099D01*
X65107007Y-70465925D01*
X65170590Y-70482962D01*
X64429942Y-71223609D01*
X64476768Y-71260055D01*
X64476770Y-71260056D01*
X64695385Y-71378364D01*
X64695396Y-71378369D01*
X64930506Y-71459083D01*
X65175707Y-71500000D01*
X65424293Y-71500000D01*
X65669493Y-71459083D01*
X65904603Y-71378369D01*
X65904614Y-71378364D01*
X66123228Y-71260057D01*
X66123231Y-71260055D01*
X66170056Y-71223609D01*
X65429409Y-70482962D01*
X65492993Y-70465925D01*
X65607007Y-70400099D01*
X65700099Y-70307007D01*
X65765925Y-70192993D01*
X65782962Y-70129409D01*
X66523434Y-70869882D01*
X66623731Y-70716369D01*
X66723587Y-70488717D01*
X66784612Y-70247738D01*
X66784614Y-70247729D01*
X66805141Y-70000005D01*
X66805141Y-69999994D01*
X66784614Y-69752270D01*
X66784612Y-69752261D01*
X66723587Y-69511282D01*
X66623731Y-69283630D01*
X66523434Y-69130116D01*
X65782962Y-69870589D01*
X65765925Y-69807007D01*
X65700099Y-69692993D01*
X65607007Y-69599901D01*
X65492993Y-69534075D01*
X65429410Y-69517037D01*
X66170057Y-68776390D01*
X66170056Y-68776389D01*
X66123229Y-68739943D01*
X65904614Y-68621635D01*
X65904603Y-68621630D01*
X65669493Y-68540916D01*
X65424293Y-68500000D01*
X65175707Y-68500000D01*
X64930506Y-68540916D01*
X64695396Y-68621630D01*
X64695390Y-68621632D01*
X64476761Y-68739949D01*
X64429942Y-68776388D01*
X64429942Y-68776390D01*
X65170590Y-69517037D01*
X65107007Y-69534075D01*
X64992993Y-69599901D01*
X64899901Y-69692993D01*
X64834075Y-69807007D01*
X64817037Y-69870589D01*
X64076564Y-69130116D01*
X63976267Y-69283632D01*
X63876412Y-69511282D01*
X63815387Y-69752261D01*
X63815385Y-69752270D01*
X63794859Y-69999994D01*
X63794859Y-70000005D01*
X61805643Y-70000005D01*
X61805643Y-69999994D01*
X61785109Y-69752187D01*
X61785107Y-69752175D01*
X61724063Y-69511118D01*
X61624173Y-69283393D01*
X61488166Y-69075217D01*
X61431757Y-69013941D01*
X61319744Y-68892262D01*
X61123509Y-68739526D01*
X61123507Y-68739525D01*
X61123506Y-68739524D01*
X60904811Y-68621172D01*
X60904802Y-68621169D01*
X60669616Y-68540429D01*
X60424335Y-68499500D01*
X60175665Y-68499500D01*
X59930383Y-68540429D01*
X59695197Y-68621169D01*
X59695188Y-68621172D01*
X59476493Y-68739524D01*
X59280257Y-68892261D01*
X59111833Y-69075217D01*
X58975826Y-69283393D01*
X58875936Y-69511118D01*
X58814892Y-69752175D01*
X58814890Y-69752187D01*
X58794357Y-69999994D01*
X58794357Y-70000005D01*
X50500500Y-70000005D01*
X50500500Y-66300001D01*
X56094390Y-66300001D01*
X56114804Y-66585433D01*
X56175628Y-66865037D01*
X56175630Y-66865043D01*
X56175631Y-66865046D01*
X56265829Y-67106875D01*
X56275635Y-67133166D01*
X56412770Y-67384309D01*
X56412775Y-67384317D01*
X56584254Y-67613387D01*
X56584270Y-67613405D01*
X56786594Y-67815729D01*
X56786612Y-67815745D01*
X57015682Y-67987224D01*
X57015690Y-67987229D01*
X57266833Y-68124364D01*
X57266832Y-68124364D01*
X57266836Y-68124365D01*
X57266839Y-68124367D01*
X57534954Y-68224369D01*
X57534960Y-68224370D01*
X57534962Y-68224371D01*
X57814566Y-68285195D01*
X57814568Y-68285195D01*
X57814572Y-68285196D01*
X58068220Y-68303337D01*
X58099999Y-68305610D01*
X58100000Y-68305610D01*
X58100001Y-68305610D01*
X58128595Y-68303564D01*
X58385428Y-68285196D01*
X58419161Y-68277858D01*
X58665037Y-68224371D01*
X58665037Y-68224370D01*
X58665046Y-68224369D01*
X58933161Y-68124367D01*
X59184315Y-67987226D01*
X59413395Y-67815739D01*
X59615739Y-67613395D01*
X59787226Y-67384315D01*
X59924367Y-67133161D01*
X60024369Y-66865046D01*
X60085196Y-66585428D01*
X60105610Y-66300001D01*
X60794390Y-66300001D01*
X60814804Y-66585433D01*
X60875628Y-66865037D01*
X60875630Y-66865043D01*
X60875631Y-66865046D01*
X60965829Y-67106875D01*
X60975635Y-67133166D01*
X61112770Y-67384309D01*
X61112775Y-67384317D01*
X61284254Y-67613387D01*
X61284270Y-67613405D01*
X61486594Y-67815729D01*
X61486612Y-67815745D01*
X61715682Y-67987224D01*
X61715690Y-67987229D01*
X61966833Y-68124364D01*
X61966832Y-68124364D01*
X61966836Y-68124365D01*
X61966839Y-68124367D01*
X62234954Y-68224369D01*
X62234960Y-68224370D01*
X62234962Y-68224371D01*
X62514566Y-68285195D01*
X62514568Y-68285195D01*
X62514572Y-68285196D01*
X62768220Y-68303337D01*
X62799999Y-68305610D01*
X62800000Y-68305610D01*
X62800001Y-68305610D01*
X62828595Y-68303564D01*
X63085428Y-68285196D01*
X63119161Y-68277858D01*
X63365037Y-68224371D01*
X63365037Y-68224370D01*
X63365046Y-68224369D01*
X63633161Y-68124367D01*
X63884315Y-67987226D01*
X64113395Y-67815739D01*
X64315739Y-67613395D01*
X64487226Y-67384315D01*
X64624367Y-67133161D01*
X64724369Y-66865046D01*
X64785196Y-66585428D01*
X64805610Y-66300001D01*
X65494390Y-66300001D01*
X65514804Y-66585433D01*
X65575628Y-66865037D01*
X65575630Y-66865043D01*
X65575631Y-66865046D01*
X65665829Y-67106875D01*
X65675635Y-67133166D01*
X65812770Y-67384309D01*
X65812775Y-67384317D01*
X65984254Y-67613387D01*
X65984270Y-67613405D01*
X66186594Y-67815729D01*
X66186612Y-67815745D01*
X66415682Y-67987224D01*
X66415690Y-67987229D01*
X66666833Y-68124364D01*
X66666832Y-68124364D01*
X66666836Y-68124365D01*
X66666839Y-68124367D01*
X66934954Y-68224369D01*
X66934960Y-68224370D01*
X66934962Y-68224371D01*
X67214566Y-68285195D01*
X67214568Y-68285195D01*
X67214572Y-68285196D01*
X67468220Y-68303337D01*
X67499999Y-68305610D01*
X67500000Y-68305610D01*
X67500001Y-68305610D01*
X67528595Y-68303564D01*
X67785428Y-68285196D01*
X67819161Y-68277858D01*
X68065037Y-68224371D01*
X68065037Y-68224370D01*
X68065046Y-68224369D01*
X68333161Y-68124367D01*
X68584315Y-67987226D01*
X68813395Y-67815739D01*
X69015739Y-67613395D01*
X69187226Y-67384315D01*
X69324367Y-67133161D01*
X69424369Y-66865046D01*
X69485196Y-66585428D01*
X69505610Y-66300000D01*
X69485196Y-66014572D01*
X69477529Y-65979329D01*
X69424371Y-65734962D01*
X69424370Y-65734960D01*
X69424369Y-65734954D01*
X69324367Y-65466839D01*
X69187226Y-65215685D01*
X69187224Y-65215682D01*
X69015745Y-64986612D01*
X69015729Y-64986594D01*
X68813405Y-64784270D01*
X68813387Y-64784254D01*
X68584317Y-64612775D01*
X68584309Y-64612770D01*
X68333166Y-64475635D01*
X68333167Y-64475635D01*
X68104860Y-64390481D01*
X68065046Y-64375631D01*
X68065043Y-64375630D01*
X68065037Y-64375628D01*
X67785433Y-64314804D01*
X67500001Y-64294390D01*
X67499999Y-64294390D01*
X67214566Y-64314804D01*
X66934962Y-64375628D01*
X66666833Y-64475635D01*
X66415690Y-64612770D01*
X66415682Y-64612775D01*
X66186612Y-64784254D01*
X66186594Y-64784270D01*
X65984270Y-64986594D01*
X65984254Y-64986612D01*
X65812775Y-65215682D01*
X65812770Y-65215690D01*
X65675635Y-65466833D01*
X65575628Y-65734962D01*
X65514804Y-66014566D01*
X65494390Y-66299998D01*
X65494390Y-66300001D01*
X64805610Y-66300001D01*
X64805610Y-66300000D01*
X64785196Y-66014572D01*
X64777529Y-65979329D01*
X64724371Y-65734962D01*
X64724370Y-65734960D01*
X64724369Y-65734954D01*
X64624367Y-65466839D01*
X64487226Y-65215685D01*
X64487224Y-65215682D01*
X64315745Y-64986612D01*
X64315729Y-64986594D01*
X64113405Y-64784270D01*
X64113387Y-64784254D01*
X63884317Y-64612775D01*
X63884309Y-64612770D01*
X63633166Y-64475635D01*
X63633167Y-64475635D01*
X63404860Y-64390481D01*
X63365046Y-64375631D01*
X63365043Y-64375630D01*
X63365037Y-64375628D01*
X63085433Y-64314804D01*
X62800001Y-64294390D01*
X62799999Y-64294390D01*
X62514566Y-64314804D01*
X62234962Y-64375628D01*
X61966833Y-64475635D01*
X61715690Y-64612770D01*
X61715682Y-64612775D01*
X61486612Y-64784254D01*
X61486594Y-64784270D01*
X61284270Y-64986594D01*
X61284254Y-64986612D01*
X61112775Y-65215682D01*
X61112770Y-65215690D01*
X60975635Y-65466833D01*
X60875628Y-65734962D01*
X60814804Y-66014566D01*
X60794390Y-66299998D01*
X60794390Y-66300001D01*
X60105610Y-66300001D01*
X60105610Y-66300000D01*
X60085196Y-66014572D01*
X60077529Y-65979329D01*
X60024371Y-65734962D01*
X60024370Y-65734960D01*
X60024369Y-65734954D01*
X59924367Y-65466839D01*
X59787226Y-65215685D01*
X59787224Y-65215682D01*
X59615745Y-64986612D01*
X59615729Y-64986594D01*
X59413405Y-64784270D01*
X59413387Y-64784254D01*
X59184317Y-64612775D01*
X59184309Y-64612770D01*
X58933166Y-64475635D01*
X58933167Y-64475635D01*
X58704860Y-64390481D01*
X58665046Y-64375631D01*
X58665043Y-64375630D01*
X58665037Y-64375628D01*
X58385433Y-64314804D01*
X58100001Y-64294390D01*
X58099999Y-64294390D01*
X57814566Y-64314804D01*
X57534962Y-64375628D01*
X57266833Y-64475635D01*
X57015690Y-64612770D01*
X57015682Y-64612775D01*
X56786612Y-64784254D01*
X56786594Y-64784270D01*
X56584270Y-64986594D01*
X56584254Y-64986612D01*
X56412775Y-65215682D01*
X56412770Y-65215690D01*
X56275635Y-65466833D01*
X56175628Y-65734962D01*
X56114804Y-66014566D01*
X56094390Y-66299998D01*
X56094390Y-66300001D01*
X50500500Y-66300001D01*
X50500500Y-53856797D01*
X50520185Y-53789758D01*
X50572989Y-53744003D01*
X50642147Y-53734059D01*
X50705703Y-53763084D01*
X50742431Y-53818479D01*
X50764125Y-53885247D01*
X50764127Y-53885252D01*
X50892704Y-54158491D01*
X50892707Y-54158497D01*
X51054516Y-54413469D01*
X51135311Y-54511133D01*
X52063708Y-53582736D01*
X52160967Y-53716602D01*
X52283398Y-53839033D01*
X52417262Y-53936290D01*
X51486564Y-54866987D01*
X51486565Y-54866989D01*
X51711461Y-55030385D01*
X51711479Y-55030397D01*
X51976109Y-55175878D01*
X51976117Y-55175882D01*
X52256889Y-55287047D01*
X52256892Y-55287048D01*
X52549399Y-55362150D01*
X52848995Y-55399999D01*
X52849007Y-55400000D01*
X53150993Y-55400000D01*
X53151004Y-55399999D01*
X53450600Y-55362150D01*
X53743107Y-55287048D01*
X53743110Y-55287047D01*
X54023882Y-55175882D01*
X54023890Y-55175878D01*
X54288520Y-55030397D01*
X54288530Y-55030390D01*
X54513433Y-54866987D01*
X54513434Y-54866987D01*
X53582737Y-53936290D01*
X53716602Y-53839033D01*
X53839033Y-53716602D01*
X53936290Y-53582737D01*
X54864687Y-54511134D01*
X54945486Y-54413464D01*
X55107292Y-54158497D01*
X55107295Y-54158491D01*
X55235872Y-53885252D01*
X55235874Y-53885247D01*
X55328557Y-53600001D01*
X58294891Y-53600001D01*
X58315300Y-53885362D01*
X58376109Y-54164895D01*
X58476091Y-54432958D01*
X58613191Y-54684038D01*
X58613196Y-54684046D01*
X58719882Y-54826561D01*
X58719883Y-54826562D01*
X59473474Y-54072971D01*
X59562087Y-54205590D01*
X59694410Y-54337913D01*
X59827027Y-54426525D01*
X59073436Y-55180115D01*
X59215960Y-55286807D01*
X59215961Y-55286808D01*
X59467042Y-55423908D01*
X59467041Y-55423908D01*
X59735104Y-55523890D01*
X60014637Y-55584699D01*
X60299999Y-55605109D01*
X60300001Y-55605109D01*
X60585362Y-55584699D01*
X60864895Y-55523890D01*
X61132958Y-55423908D01*
X61384047Y-55286803D01*
X61526561Y-55180116D01*
X61526562Y-55180115D01*
X60772972Y-54426525D01*
X60905590Y-54337913D01*
X61037913Y-54205590D01*
X61126525Y-54072972D01*
X61880115Y-54826562D01*
X61880116Y-54826561D01*
X61986803Y-54684047D01*
X62123908Y-54432958D01*
X62223890Y-54164895D01*
X62284699Y-53885362D01*
X62305109Y-53600001D01*
X63294891Y-53600001D01*
X63315300Y-53885362D01*
X63376109Y-54164895D01*
X63476091Y-54432958D01*
X63613191Y-54684038D01*
X63613196Y-54684046D01*
X63719882Y-54826561D01*
X63719883Y-54826562D01*
X64473474Y-54072971D01*
X64562087Y-54205590D01*
X64694410Y-54337913D01*
X64827027Y-54426525D01*
X64073436Y-55180115D01*
X64215960Y-55286807D01*
X64215961Y-55286808D01*
X64467042Y-55423908D01*
X64467041Y-55423908D01*
X64735104Y-55523890D01*
X65014637Y-55584699D01*
X65299999Y-55605109D01*
X65300001Y-55605109D01*
X65585362Y-55584699D01*
X65864895Y-55523890D01*
X66132958Y-55423908D01*
X66384047Y-55286803D01*
X66526561Y-55180116D01*
X66526562Y-55180115D01*
X65772972Y-54426525D01*
X65905590Y-54337913D01*
X66037913Y-54205590D01*
X66126525Y-54072972D01*
X66880115Y-54826562D01*
X66880116Y-54826561D01*
X66986803Y-54684047D01*
X67123908Y-54432958D01*
X67223890Y-54164895D01*
X67284699Y-53885362D01*
X67305109Y-53600001D01*
X67305109Y-53599998D01*
X67284699Y-53314637D01*
X67281046Y-53297844D01*
X92225000Y-53297844D01*
X92231401Y-53357372D01*
X92231403Y-53357379D01*
X92281645Y-53492086D01*
X92281649Y-53492093D01*
X92367809Y-53607187D01*
X92367812Y-53607190D01*
X92482906Y-53693350D01*
X92482913Y-53693354D01*
X92617620Y-53743596D01*
X92617627Y-53743598D01*
X92677155Y-53749999D01*
X92677172Y-53750000D01*
X93325000Y-53750000D01*
X93325000Y-52833012D01*
X93382007Y-52865925D01*
X93509174Y-52900000D01*
X93640826Y-52900000D01*
X93767993Y-52865925D01*
X93825000Y-52833012D01*
X93825000Y-53750000D01*
X94472828Y-53750000D01*
X94472844Y-53749999D01*
X94532372Y-53743598D01*
X94532379Y-53743596D01*
X94667086Y-53693354D01*
X94667093Y-53693350D01*
X94782187Y-53607190D01*
X94782190Y-53607187D01*
X94868350Y-53492093D01*
X94868354Y-53492086D01*
X94917422Y-53360529D01*
X94959293Y-53304595D01*
X95024757Y-53280178D01*
X95093030Y-53295030D01*
X95121285Y-53316181D01*
X95243599Y-53438495D01*
X95307623Y-53483325D01*
X95437165Y-53574032D01*
X95437167Y-53574033D01*
X95437170Y-53574035D01*
X95651337Y-53673903D01*
X95879592Y-53735063D01*
X96050319Y-53750000D01*
X96114999Y-53755659D01*
X96115000Y-53755659D01*
X96115001Y-53755659D01*
X96179681Y-53750000D01*
X96350408Y-53735063D01*
X96578663Y-53673903D01*
X96792830Y-53574035D01*
X96986401Y-53438495D01*
X97153495Y-53271401D01*
X97283425Y-53085842D01*
X97338002Y-53042217D01*
X97407500Y-53035023D01*
X97469855Y-53066546D01*
X97486575Y-53085842D01*
X97616501Y-53271396D01*
X97616506Y-53271402D01*
X97783597Y-53438493D01*
X97783603Y-53438498D01*
X97847623Y-53483325D01*
X97891248Y-53537901D01*
X97900500Y-53584900D01*
X97900500Y-56075552D01*
X97900499Y-56075578D01*
X97900499Y-56080688D01*
X97900499Y-56229312D01*
X97900499Y-56229314D01*
X97900498Y-56229314D01*
X97929493Y-56375073D01*
X97929496Y-56375083D01*
X97986366Y-56512381D01*
X97986372Y-56512392D01*
X98068942Y-56635968D01*
X98068943Y-56635969D01*
X102809600Y-61376624D01*
X102809621Y-61376647D01*
X102919028Y-61486054D01*
X102919035Y-61486060D01*
X103042608Y-61568628D01*
X103042609Y-61568628D01*
X103042610Y-61568629D01*
X103179920Y-61625505D01*
X103318303Y-61653031D01*
X103325683Y-61654499D01*
X103325687Y-61654500D01*
X103325688Y-61654500D01*
X103474312Y-61654500D01*
X105936113Y-61654500D01*
X106003152Y-61674185D01*
X106023794Y-61690819D01*
X106743181Y-62410205D01*
X106776666Y-62471528D01*
X106779500Y-62497886D01*
X106779500Y-62992719D01*
X106759815Y-63059758D01*
X106707011Y-63105513D01*
X106637853Y-63115457D01*
X106574297Y-63086432D01*
X106567819Y-63080400D01*
X106000008Y-62512589D01*
X105998544Y-62511611D01*
X105987940Y-62504525D01*
X105987936Y-62504521D01*
X105987936Y-62504523D01*
X105897235Y-62443918D01*
X105897236Y-62443918D01*
X105857760Y-62427567D01*
X105857758Y-62427566D01*
X105783035Y-62396614D01*
X105783027Y-62396612D01*
X105661807Y-62372500D01*
X105661803Y-62372500D01*
X103947693Y-62372500D01*
X103881721Y-62353494D01*
X103827692Y-62319545D01*
X103827691Y-62319544D01*
X103827690Y-62319544D01*
X103783751Y-62304169D01*
X103668056Y-62263685D01*
X103500003Y-62244751D01*
X103499997Y-62244751D01*
X103331943Y-62263685D01*
X103172305Y-62319545D01*
X103172302Y-62319547D01*
X103029115Y-62409518D01*
X103029109Y-62409523D01*
X102909523Y-62529109D01*
X102909518Y-62529115D01*
X102819547Y-62672302D01*
X102819545Y-62672305D01*
X102763685Y-62831943D01*
X102744751Y-62999997D01*
X102744751Y-63000002D01*
X102763685Y-63168056D01*
X102819545Y-63327694D01*
X102819547Y-63327697D01*
X102909518Y-63470884D01*
X102909523Y-63470890D01*
X103029109Y-63590476D01*
X103029115Y-63590481D01*
X103172302Y-63680452D01*
X103172305Y-63680454D01*
X103172309Y-63680455D01*
X103172310Y-63680456D01*
X103244913Y-63705860D01*
X103331943Y-63736314D01*
X103499997Y-63755249D01*
X103500000Y-63755249D01*
X103500003Y-63755249D01*
X103668056Y-63736314D01*
X103686786Y-63729760D01*
X103827690Y-63680456D01*
X103881721Y-63646505D01*
X103947693Y-63627500D01*
X105288719Y-63627500D01*
X105355758Y-63647185D01*
X105376400Y-63663819D01*
X106034549Y-64321968D01*
X106063908Y-64368693D01*
X106095364Y-64458587D01*
X106119544Y-64527691D01*
X106119547Y-64527697D01*
X106209518Y-64670884D01*
X106209523Y-64670890D01*
X106329109Y-64790476D01*
X106329115Y-64790481D01*
X106472302Y-64880452D01*
X106472305Y-64880454D01*
X106472309Y-64880455D01*
X106472310Y-64880456D01*
X106611193Y-64929053D01*
X106631944Y-64936314D01*
X106669382Y-64940532D01*
X106733796Y-64967598D01*
X106773352Y-65025192D01*
X106779500Y-65063752D01*
X106779500Y-67114698D01*
X106759815Y-67181737D01*
X106707011Y-67227492D01*
X106637853Y-67237436D01*
X106587433Y-67215226D01*
X106586031Y-67217325D01*
X106457391Y-67131371D01*
X106320078Y-67074494D01*
X106320075Y-67074493D01*
X106279636Y-67066449D01*
X106274856Y-67065145D01*
X106274836Y-67065234D01*
X106268048Y-67063684D01*
X106267891Y-67063667D01*
X106257609Y-67062068D01*
X106174312Y-67045500D01*
X106174310Y-67045500D01*
X106113610Y-67045500D01*
X106100275Y-67044751D01*
X106099725Y-67044751D01*
X106086390Y-67045500D01*
X100280446Y-67045500D01*
X100280426Y-67045499D01*
X100274312Y-67045499D01*
X100125688Y-67045499D01*
X100125686Y-67045499D01*
X100020368Y-67066449D01*
X100004105Y-67069684D01*
X99989540Y-67072581D01*
X99979918Y-67074495D01*
X99979917Y-67074495D01*
X99923045Y-67098052D01*
X99923045Y-67098053D01*
X99882861Y-67114698D01*
X99842609Y-67131371D01*
X99719033Y-67213941D01*
X99666487Y-67266487D01*
X99613941Y-67319034D01*
X99613939Y-67319036D01*
X98404521Y-68528453D01*
X98343198Y-68561938D01*
X98273506Y-68556954D01*
X98229159Y-68528453D01*
X95690819Y-65990112D01*
X95657334Y-65928789D01*
X95654500Y-65902431D01*
X95654500Y-65813610D01*
X95655249Y-65800272D01*
X95655249Y-65799721D01*
X95654500Y-65786390D01*
X95654500Y-65725686D01*
X95643600Y-65670890D01*
X95637931Y-65642393D01*
X95636330Y-65632093D01*
X95636313Y-65631941D01*
X95636310Y-65631934D01*
X95636310Y-65631928D01*
X95634763Y-65625146D01*
X95634851Y-65625125D01*
X95633547Y-65620352D01*
X95625505Y-65579920D01*
X95568629Y-65442610D01*
X95486859Y-65320232D01*
X95486060Y-65319035D01*
X95486054Y-65319028D01*
X95380971Y-65213945D01*
X95380964Y-65213939D01*
X95257391Y-65131371D01*
X95120078Y-65074494D01*
X95120075Y-65074493D01*
X95079636Y-65066449D01*
X95074856Y-65065145D01*
X95074836Y-65065234D01*
X95068048Y-65063684D01*
X95067891Y-65063667D01*
X95057600Y-65062066D01*
X95000309Y-65050670D01*
X94938398Y-65018285D01*
X94903824Y-64957569D01*
X94900500Y-64929053D01*
X94900500Y-64338280D01*
X94920185Y-64271241D01*
X94936814Y-64250604D01*
X96221968Y-62965449D01*
X96268688Y-62936092D01*
X96427690Y-62880456D01*
X96427692Y-62880455D01*
X96427697Y-62880452D01*
X96570884Y-62790481D01*
X96570885Y-62790480D01*
X96570890Y-62790477D01*
X96690477Y-62670890D01*
X96703957Y-62649437D01*
X96780452Y-62527697D01*
X96780454Y-62527694D01*
X96780454Y-62527692D01*
X96780456Y-62527690D01*
X96836313Y-62368059D01*
X96836313Y-62368058D01*
X96836314Y-62368056D01*
X96855249Y-62200002D01*
X96855249Y-62199997D01*
X96836314Y-62031943D01*
X96795014Y-61913915D01*
X96780456Y-61872310D01*
X96780455Y-61872309D01*
X96780454Y-61872305D01*
X96780452Y-61872302D01*
X96690478Y-61729111D01*
X96570890Y-61609523D01*
X96570884Y-61609518D01*
X96427697Y-61519547D01*
X96427694Y-61519545D01*
X96268056Y-61463685D01*
X96100003Y-61444751D01*
X96099997Y-61444751D01*
X95931943Y-61463685D01*
X95772305Y-61519545D01*
X95772302Y-61519547D01*
X95629115Y-61609518D01*
X95629109Y-61609523D01*
X95509523Y-61729109D01*
X95509522Y-61729111D01*
X95419547Y-61872302D01*
X95419545Y-61872305D01*
X95363910Y-62031304D01*
X95334549Y-62078030D01*
X94235458Y-63177123D01*
X93872992Y-63539589D01*
X93829289Y-63583291D01*
X93785587Y-63626993D01*
X93716920Y-63729760D01*
X93716913Y-63729773D01*
X93706362Y-63755248D01*
X93706362Y-63755249D01*
X93669615Y-63843962D01*
X93669614Y-63843964D01*
X93650872Y-63938194D01*
X93650871Y-63938198D01*
X93645500Y-63965196D01*
X93645500Y-74638277D01*
X93626495Y-74704247D01*
X93619544Y-74715308D01*
X93563685Y-74874943D01*
X93544751Y-75042997D01*
X93544751Y-75043002D01*
X93563685Y-75211056D01*
X93619545Y-75370694D01*
X93619547Y-75370697D01*
X93709518Y-75513884D01*
X93709523Y-75513890D01*
X93829109Y-75633476D01*
X93829115Y-75633481D01*
X93972302Y-75723452D01*
X93972305Y-75723454D01*
X93972309Y-75723455D01*
X93972310Y-75723456D01*
X93996556Y-75731940D01*
X94131943Y-75779314D01*
X94299997Y-75798249D01*
X94300000Y-75798249D01*
X94300003Y-75798249D01*
X94468056Y-75779314D01*
X94516448Y-75762381D01*
X94627690Y-75723456D01*
X94627692Y-75723454D01*
X94627694Y-75723454D01*
X94627697Y-75723452D01*
X94770884Y-75633481D01*
X94770885Y-75633480D01*
X94770890Y-75633477D01*
X94890477Y-75513890D01*
X94936709Y-75440313D01*
X94980452Y-75370697D01*
X94980454Y-75370694D01*
X94980454Y-75370692D01*
X94980456Y-75370690D01*
X95036313Y-75211059D01*
X95036313Y-75211058D01*
X95036314Y-75211056D01*
X95055249Y-75043002D01*
X95055249Y-75042997D01*
X95036314Y-74874943D01*
X95018262Y-74823353D01*
X94980456Y-74715310D01*
X94954500Y-74674001D01*
X94919506Y-74618308D01*
X94900500Y-74552336D01*
X94900500Y-74289272D01*
X98644751Y-74289272D01*
X98645500Y-74302610D01*
X98645500Y-74363312D01*
X98662067Y-74446600D01*
X98663667Y-74456891D01*
X98663684Y-74457048D01*
X98665234Y-74463836D01*
X98665145Y-74463856D01*
X98666449Y-74468636D01*
X98674493Y-74509075D01*
X98674494Y-74509078D01*
X98731371Y-74646391D01*
X98813939Y-74769964D01*
X98813945Y-74769971D01*
X98919028Y-74875054D01*
X98919035Y-74875060D01*
X99042608Y-74957628D01*
X99042609Y-74957628D01*
X99042610Y-74957629D01*
X99179920Y-75014505D01*
X99220352Y-75022547D01*
X99225125Y-75023851D01*
X99225146Y-75023763D01*
X99231928Y-75025310D01*
X99231934Y-75025310D01*
X99231941Y-75025313D01*
X99232093Y-75025330D01*
X99242393Y-75026931D01*
X99300021Y-75038394D01*
X99325687Y-75043500D01*
X99325688Y-75043500D01*
X99386390Y-75043500D01*
X99399725Y-75044249D01*
X99400000Y-75044249D01*
X99400275Y-75044249D01*
X99413610Y-75043500D01*
X99474313Y-75043500D01*
X99490097Y-75040359D01*
X99557607Y-75026930D01*
X99567901Y-75025330D01*
X99568059Y-75025313D01*
X99568066Y-75025310D01*
X99574853Y-75023762D01*
X99574873Y-75023852D01*
X99579644Y-75022547D01*
X99620080Y-75014505D01*
X99757390Y-74957629D01*
X99880966Y-74875059D01*
X99986059Y-74769966D01*
X100068629Y-74646390D01*
X100125505Y-74509080D01*
X100133550Y-74468636D01*
X100134852Y-74463873D01*
X100134762Y-74463853D01*
X100136311Y-74457064D01*
X100136313Y-74457059D01*
X100136332Y-74456891D01*
X100137932Y-74446600D01*
X100154500Y-74363312D01*
X100154500Y-74302610D01*
X100155249Y-74289272D01*
X100155249Y-74288721D01*
X100154500Y-74275390D01*
X100154500Y-71886610D01*
X100155249Y-71873272D01*
X100155249Y-71872721D01*
X100154500Y-71859390D01*
X100154500Y-71798686D01*
X100146694Y-71759447D01*
X100137931Y-71715393D01*
X100136330Y-71705093D01*
X100136313Y-71704941D01*
X100136310Y-71704934D01*
X100136310Y-71704928D01*
X100134763Y-71698146D01*
X100134851Y-71698125D01*
X100133547Y-71693352D01*
X100125505Y-71652920D01*
X100068629Y-71515610D01*
X100033934Y-71463685D01*
X99986060Y-71392035D01*
X99986054Y-71392028D01*
X99880971Y-71286945D01*
X99880964Y-71286939D01*
X99757391Y-71204371D01*
X99620078Y-71147494D01*
X99620075Y-71147493D01*
X99579636Y-71139449D01*
X99574856Y-71138145D01*
X99574836Y-71138234D01*
X99568048Y-71136684D01*
X99567891Y-71136667D01*
X99557609Y-71135068D01*
X99474312Y-71118500D01*
X99474310Y-71118500D01*
X99413610Y-71118500D01*
X99400275Y-71117751D01*
X99399725Y-71117751D01*
X99386390Y-71118500D01*
X99325688Y-71118500D01*
X99242388Y-71135068D01*
X99232103Y-71136668D01*
X99231944Y-71136685D01*
X99225164Y-71138233D01*
X99225144Y-71138145D01*
X99220365Y-71139449D01*
X99179923Y-71147493D01*
X99179921Y-71147494D01*
X99042608Y-71204371D01*
X98919035Y-71286939D01*
X98919028Y-71286945D01*
X98813945Y-71392028D01*
X98813939Y-71392035D01*
X98731371Y-71515608D01*
X98674494Y-71652921D01*
X98674493Y-71652923D01*
X98666449Y-71693365D01*
X98665145Y-71698144D01*
X98665233Y-71698164D01*
X98663685Y-71704944D01*
X98663668Y-71705103D01*
X98662068Y-71715388D01*
X98645500Y-71798688D01*
X98645500Y-71859390D01*
X98644751Y-71872721D01*
X98644751Y-71873272D01*
X98645500Y-71886610D01*
X98645500Y-74275390D01*
X98644751Y-74288721D01*
X98644751Y-74289272D01*
X94900500Y-74289272D01*
X94900500Y-67633204D01*
X94920185Y-67566165D01*
X94972989Y-67520410D01*
X95042147Y-67510466D01*
X95105703Y-67539491D01*
X95112181Y-67545523D01*
X97397282Y-69830624D01*
X97397303Y-69830647D01*
X97506711Y-69940055D01*
X97506714Y-69940057D01*
X97506716Y-69940059D01*
X97589287Y-69995230D01*
X97630293Y-70022630D01*
X97710725Y-70055945D01*
X97710726Y-70055946D01*
X97734285Y-70065704D01*
X97767602Y-70079505D01*
X97767611Y-70079506D01*
X97767612Y-70079507D01*
X97791785Y-70084315D01*
X97791792Y-70084316D01*
X97913368Y-70108501D01*
X97913370Y-70108501D01*
X98068108Y-70108501D01*
X98068128Y-70108500D01*
X98565554Y-70108500D01*
X98565574Y-70108501D01*
X98571688Y-70108501D01*
X98720314Y-70108501D01*
X98841894Y-70084315D01*
X98841894Y-70084316D01*
X98841900Y-70084313D01*
X98866080Y-70079505D01*
X98901942Y-70064649D01*
X98922944Y-70055951D01*
X98922947Y-70055949D01*
X98922955Y-70055946D01*
X99003389Y-70022630D01*
X99126966Y-69940059D01*
X100476205Y-68590818D01*
X100537528Y-68557334D01*
X100563886Y-68554500D01*
X106086390Y-68554500D01*
X106099725Y-68555249D01*
X106100000Y-68555249D01*
X106100275Y-68555249D01*
X106113610Y-68554500D01*
X106174313Y-68554500D01*
X106190097Y-68551359D01*
X106257607Y-68537930D01*
X106267901Y-68536330D01*
X106268059Y-68536313D01*
X106268066Y-68536310D01*
X106274853Y-68534762D01*
X106274873Y-68534852D01*
X106279644Y-68533547D01*
X106320080Y-68525505D01*
X106405461Y-68490138D01*
X106474928Y-68482670D01*
X106537407Y-68513945D01*
X106573060Y-68574033D01*
X106570567Y-68643858D01*
X106540593Y-68692381D01*
X106363593Y-68869382D01*
X106219034Y-69013941D01*
X106162091Y-69070884D01*
X106113941Y-69119034D01*
X106031372Y-69242607D01*
X106031366Y-69242618D01*
X105974495Y-69379918D01*
X105974494Y-69379923D01*
X105966450Y-69420360D01*
X105965147Y-69425137D01*
X105965235Y-69425157D01*
X105963686Y-69431944D01*
X105963666Y-69432122D01*
X105962068Y-69442387D01*
X105948365Y-69511282D01*
X105945499Y-69525689D01*
X105945499Y-69586399D01*
X105944751Y-69599714D01*
X105944751Y-69600284D01*
X105945499Y-69613602D01*
X105945499Y-69674313D01*
X105962068Y-69757610D01*
X105963669Y-69767898D01*
X105963686Y-69768056D01*
X105965236Y-69774842D01*
X105965147Y-69774862D01*
X105966450Y-69779640D01*
X105974494Y-69820076D01*
X105974495Y-69820081D01*
X106031366Y-69957381D01*
X106031372Y-69957392D01*
X106113942Y-70080968D01*
X106113943Y-70080969D01*
X106743181Y-70710206D01*
X106776666Y-70771529D01*
X106779500Y-70797887D01*
X106779500Y-75002112D01*
X106759815Y-75069151D01*
X106743181Y-75089793D01*
X105663943Y-76169030D01*
X105663942Y-76169031D01*
X105581372Y-76292607D01*
X105581366Y-76292618D01*
X105524496Y-76429916D01*
X105524493Y-76429926D01*
X105495499Y-76575685D01*
X105495499Y-76730425D01*
X105495500Y-76730446D01*
X105495500Y-81526390D01*
X105494751Y-81539721D01*
X105494751Y-81540272D01*
X105495500Y-81553610D01*
X105495500Y-81614312D01*
X105512067Y-81697600D01*
X105513667Y-81707891D01*
X105513684Y-81708048D01*
X105515234Y-81714836D01*
X105515145Y-81714856D01*
X105516449Y-81719636D01*
X105524493Y-81760075D01*
X105524494Y-81760078D01*
X105581371Y-81897391D01*
X105663939Y-82020964D01*
X105663945Y-82020971D01*
X105769028Y-82126054D01*
X105769035Y-82126060D01*
X105892608Y-82208628D01*
X105892609Y-82208628D01*
X105892610Y-82208629D01*
X106029920Y-82265505D01*
X106070352Y-82273547D01*
X106075125Y-82274851D01*
X106075146Y-82274763D01*
X106081928Y-82276310D01*
X106081934Y-82276310D01*
X106081941Y-82276313D01*
X106082093Y-82276330D01*
X106092393Y-82277931D01*
X106150021Y-82289394D01*
X106175687Y-82294500D01*
X106175688Y-82294500D01*
X106236390Y-82294500D01*
X106249725Y-82295249D01*
X106250000Y-82295249D01*
X106250275Y-82295249D01*
X106263610Y-82294500D01*
X106324313Y-82294500D01*
X106340097Y-82291359D01*
X106407607Y-82277930D01*
X106417901Y-82276330D01*
X106418059Y-82276313D01*
X106418066Y-82276310D01*
X106424853Y-82274762D01*
X106424873Y-82274852D01*
X106429644Y-82273547D01*
X106470080Y-82265505D01*
X106607390Y-82208629D01*
X106730966Y-82126059D01*
X106836059Y-82020966D01*
X106918629Y-81897390D01*
X106975505Y-81760080D01*
X106983550Y-81719636D01*
X106984852Y-81714873D01*
X106984762Y-81714853D01*
X106986311Y-81708064D01*
X106986313Y-81708059D01*
X106986332Y-81707891D01*
X106987932Y-81697600D01*
X107004500Y-81614312D01*
X107004500Y-81553610D01*
X107005249Y-81540272D01*
X107005249Y-81539721D01*
X107004500Y-81526390D01*
X107004500Y-77772996D01*
X109824751Y-77772996D01*
X109843685Y-77941050D01*
X109899545Y-78100688D01*
X109899547Y-78100691D01*
X109989518Y-78243878D01*
X109989523Y-78243884D01*
X110109109Y-78363470D01*
X110109115Y-78363475D01*
X110252302Y-78453446D01*
X110252305Y-78453448D01*
X110252309Y-78453449D01*
X110252310Y-78453450D01*
X110324913Y-78478854D01*
X110411943Y-78509308D01*
X110579997Y-78528243D01*
X110580000Y-78528243D01*
X110580003Y-78528243D01*
X110748056Y-78509308D01*
X110748059Y-78509307D01*
X110907690Y-78453450D01*
X110907692Y-78453448D01*
X110907694Y-78453448D01*
X110907697Y-78453446D01*
X111050884Y-78363475D01*
X111050885Y-78363474D01*
X111050890Y-78363471D01*
X111170477Y-78243884D01*
X111250578Y-78116405D01*
X111260452Y-78100691D01*
X111260454Y-78100688D01*
X111260454Y-78100686D01*
X111260456Y-78100684D01*
X111316313Y-77941053D01*
X111316313Y-77941052D01*
X111316314Y-77941050D01*
X111335249Y-77772996D01*
X111335249Y-77772991D01*
X111316314Y-77604937D01*
X111302904Y-77566615D01*
X111260456Y-77445304D01*
X111254604Y-77435990D01*
X111226506Y-77391272D01*
X111207500Y-77325300D01*
X111207500Y-72200002D01*
X111944751Y-72200002D01*
X111963686Y-72368057D01*
X112019543Y-72527690D01*
X112053493Y-72581719D01*
X112072500Y-72647692D01*
X112072500Y-74061807D01*
X112096612Y-74183027D01*
X112096614Y-74183035D01*
X112130062Y-74263785D01*
X112143915Y-74297230D01*
X112188069Y-74363310D01*
X112188069Y-74363311D01*
X112212590Y-74400010D01*
X112212593Y-74400013D01*
X114712589Y-76900008D01*
X114759427Y-76946846D01*
X114799994Y-76987413D01*
X114799996Y-76987414D01*
X114902756Y-77056076D01*
X114902758Y-77056077D01*
X114902767Y-77056083D01*
X114910427Y-77059255D01*
X114919668Y-77063084D01*
X114968316Y-77083234D01*
X115016965Y-77103386D01*
X115138192Y-77127499D01*
X115138196Y-77127500D01*
X115138197Y-77127500D01*
X115261803Y-77127500D01*
X116439365Y-77127500D01*
X116463558Y-77129883D01*
X116486767Y-77134500D01*
X116486768Y-77134500D01*
X118354804Y-77134500D01*
X118354805Y-77134499D01*
X118476035Y-77110386D01*
X118556784Y-77076937D01*
X118590233Y-77063083D01*
X118693008Y-76994411D01*
X118780411Y-76907008D01*
X121987411Y-73700008D01*
X122054232Y-73600001D01*
X122054240Y-73599995D01*
X122054238Y-73599994D01*
X122056082Y-73597234D01*
X122056083Y-73597233D01*
X122073473Y-73555249D01*
X122103386Y-73483035D01*
X122127500Y-73361803D01*
X122127500Y-73247692D01*
X122146507Y-73181719D01*
X122180456Y-73127690D01*
X122215172Y-73028477D01*
X122236313Y-72968059D01*
X122255249Y-72800000D01*
X122238088Y-72647692D01*
X122236314Y-72631943D01*
X122180454Y-72472305D01*
X122180452Y-72472302D01*
X122090481Y-72329115D01*
X122090476Y-72329109D01*
X121970890Y-72209523D01*
X121970884Y-72209518D01*
X121827697Y-72119547D01*
X121827694Y-72119545D01*
X121668056Y-72063685D01*
X121500003Y-72044751D01*
X121499997Y-72044751D01*
X121331943Y-72063685D01*
X121172305Y-72119545D01*
X121172302Y-72119547D01*
X121029115Y-72209518D01*
X121029109Y-72209523D01*
X120909523Y-72329109D01*
X120909518Y-72329115D01*
X120819547Y-72472302D01*
X120819545Y-72472305D01*
X120763685Y-72631943D01*
X120744751Y-72799997D01*
X120744751Y-72800002D01*
X120763685Y-72968054D01*
X120763686Y-72968057D01*
X120784828Y-73028477D01*
X120788389Y-73098255D01*
X120755467Y-73157112D01*
X118069400Y-75843181D01*
X118008077Y-75876666D01*
X117981719Y-75879500D01*
X117751500Y-75879500D01*
X117684461Y-75859815D01*
X117638706Y-75807011D01*
X117627500Y-75755500D01*
X117627500Y-71347566D01*
X117646507Y-71281593D01*
X117680456Y-71227564D01*
X117681840Y-71223609D01*
X117736313Y-71067933D01*
X117752442Y-70924785D01*
X117755249Y-70899876D01*
X117755249Y-70899871D01*
X117736314Y-70731817D01*
X117680454Y-70572179D01*
X117680452Y-70572176D01*
X117590481Y-70428989D01*
X117590476Y-70428983D01*
X117470890Y-70309397D01*
X117470884Y-70309392D01*
X117327697Y-70219421D01*
X117327694Y-70219419D01*
X117168056Y-70163559D01*
X117000003Y-70144625D01*
X116999997Y-70144625D01*
X116831943Y-70163559D01*
X116672305Y-70219419D01*
X116672302Y-70219421D01*
X116529115Y-70309392D01*
X116529109Y-70309397D01*
X116409523Y-70428983D01*
X116409518Y-70428989D01*
X116319547Y-70572176D01*
X116319545Y-70572179D01*
X116263685Y-70731817D01*
X116244751Y-70899871D01*
X116244751Y-70899876D01*
X116263686Y-71067931D01*
X116319543Y-71227564D01*
X116353493Y-71281593D01*
X116372500Y-71347566D01*
X116372500Y-75215205D01*
X116352815Y-75282244D01*
X116333299Y-75303864D01*
X116334034Y-75304599D01*
X116209523Y-75429109D01*
X116209518Y-75429115D01*
X116119547Y-75572302D01*
X116119544Y-75572308D01*
X116066656Y-75723456D01*
X116063687Y-75731941D01*
X116060257Y-75762383D01*
X116033192Y-75826796D01*
X115975598Y-75866352D01*
X115937037Y-75872500D01*
X115511281Y-75872500D01*
X115444242Y-75852815D01*
X115423600Y-75836181D01*
X113363819Y-73776400D01*
X113330334Y-73715077D01*
X113327500Y-73688719D01*
X113327500Y-72647692D01*
X113346507Y-72581719D01*
X113380456Y-72527690D01*
X113399837Y-72472302D01*
X113436313Y-72368059D01*
X113455249Y-72200000D01*
X113455249Y-72199997D01*
X113436314Y-72031943D01*
X113383023Y-71879647D01*
X113380456Y-71872310D01*
X113380455Y-71872309D01*
X113380454Y-71872305D01*
X113380452Y-71872302D01*
X113290481Y-71729115D01*
X113290476Y-71729109D01*
X113170890Y-71609523D01*
X113170884Y-71609518D01*
X113027697Y-71519547D01*
X113027694Y-71519545D01*
X112868056Y-71463685D01*
X112700003Y-71444751D01*
X112699997Y-71444751D01*
X112531943Y-71463685D01*
X112372305Y-71519545D01*
X112372302Y-71519547D01*
X112229115Y-71609518D01*
X112229109Y-71609523D01*
X112109523Y-71729109D01*
X112109518Y-71729115D01*
X112019547Y-71872302D01*
X112019545Y-71872305D01*
X111963685Y-72031943D01*
X111944751Y-72199997D01*
X111944751Y-72200002D01*
X111207500Y-72200002D01*
X111207500Y-65252709D01*
X111227185Y-65185670D01*
X111279989Y-65139915D01*
X111349147Y-65129971D01*
X111412703Y-65158996D01*
X111419181Y-65165028D01*
X112235161Y-65981008D01*
X112283680Y-66029527D01*
X112322566Y-66068413D01*
X112322569Y-66068414D01*
X112425339Y-66137083D01*
X112458787Y-66150937D01*
X112539537Y-66184386D01*
X112660764Y-66208499D01*
X112660768Y-66208500D01*
X112660769Y-66208500D01*
X112784375Y-66208500D01*
X120228147Y-66208500D01*
X120295186Y-66228185D01*
X120315828Y-66244819D01*
X120731828Y-66660819D01*
X120765313Y-66722142D01*
X120760329Y-66791834D01*
X120718457Y-66847767D01*
X120652993Y-66872184D01*
X120644147Y-66872500D01*
X118024480Y-66872500D01*
X117903260Y-66896612D01*
X117903252Y-66896614D01*
X117822503Y-66930062D01*
X117789054Y-66943917D01*
X117789051Y-66943918D01*
X117717359Y-66991821D01*
X117717360Y-66991822D01*
X117686277Y-67012590D01*
X117686274Y-67012593D01*
X116762688Y-67936181D01*
X116701365Y-67969666D01*
X116675007Y-67972500D01*
X113347693Y-67972500D01*
X113281721Y-67953494D01*
X113227692Y-67919545D01*
X113227691Y-67919544D01*
X113227690Y-67919544D01*
X113189370Y-67906135D01*
X113068056Y-67863685D01*
X112900003Y-67844751D01*
X112899997Y-67844751D01*
X112731943Y-67863685D01*
X112572305Y-67919545D01*
X112572302Y-67919547D01*
X112429115Y-68009518D01*
X112429109Y-68009523D01*
X112309523Y-68129109D01*
X112309518Y-68129115D01*
X112219547Y-68272302D01*
X112219545Y-68272305D01*
X112163685Y-68431943D01*
X112144751Y-68599997D01*
X112144751Y-68600002D01*
X112163685Y-68768056D01*
X112219545Y-68927694D01*
X112219547Y-68927697D01*
X112309518Y-69070884D01*
X112309523Y-69070890D01*
X112429109Y-69190476D01*
X112429115Y-69190481D01*
X112572302Y-69280452D01*
X112572305Y-69280454D01*
X112572309Y-69280455D01*
X112572310Y-69280456D01*
X112620465Y-69297306D01*
X112731943Y-69336314D01*
X112899997Y-69355249D01*
X112900000Y-69355249D01*
X112900003Y-69355249D01*
X113068056Y-69336314D01*
X113068059Y-69336313D01*
X113227690Y-69280456D01*
X113281721Y-69246505D01*
X113347693Y-69227500D01*
X117048092Y-69227500D01*
X117048093Y-69227499D01*
X117169323Y-69203386D01*
X117254608Y-69168059D01*
X117283521Y-69156083D01*
X117386296Y-69087411D01*
X117473699Y-69000008D01*
X117486179Y-68987527D01*
X117547497Y-68954043D01*
X117617189Y-68959024D01*
X117639831Y-68970213D01*
X117772310Y-69053456D01*
X117869357Y-69087414D01*
X117931943Y-69109314D01*
X118099997Y-69128249D01*
X118100000Y-69128249D01*
X118100003Y-69128249D01*
X118268056Y-69109314D01*
X118268059Y-69109313D01*
X118427690Y-69053456D01*
X118481721Y-69019505D01*
X118547693Y-69000500D01*
X118661719Y-69000500D01*
X118728758Y-69020185D01*
X118749400Y-69036819D01*
X119719589Y-70007008D01*
X119768525Y-70055944D01*
X119806994Y-70094413D01*
X119806996Y-70094414D01*
X119909756Y-70163076D01*
X119909758Y-70163077D01*
X119909767Y-70163083D01*
X119934772Y-70173440D01*
X119957071Y-70182677D01*
X119999254Y-70200149D01*
X120023966Y-70210386D01*
X120069374Y-70219418D01*
X120145192Y-70234499D01*
X120145196Y-70234500D01*
X120145197Y-70234500D01*
X130495719Y-70234500D01*
X130562758Y-70254185D01*
X130583400Y-70270819D01*
X135074611Y-74762030D01*
X135108096Y-74823353D01*
X135103112Y-74893045D01*
X135074611Y-74937392D01*
X132275829Y-77736175D01*
X132214506Y-77769660D01*
X132188148Y-77772494D01*
X117447693Y-77772494D01*
X117381721Y-77753488D01*
X117327692Y-77719539D01*
X117327691Y-77719538D01*
X117327690Y-77719538D01*
X117289370Y-77706129D01*
X117168056Y-77663679D01*
X117000003Y-77644745D01*
X116999997Y-77644745D01*
X116831943Y-77663679D01*
X116672305Y-77719539D01*
X116672302Y-77719541D01*
X116529115Y-77809512D01*
X116529109Y-77809517D01*
X116409523Y-77929103D01*
X116409518Y-77929109D01*
X116319547Y-78072296D01*
X116319545Y-78072299D01*
X116263685Y-78231937D01*
X116244751Y-78399991D01*
X116244751Y-78399996D01*
X116263685Y-78568050D01*
X116319545Y-78727687D01*
X116323526Y-78734022D01*
X116342527Y-78801258D01*
X116323531Y-78865961D01*
X116319544Y-78872305D01*
X116263685Y-79031940D01*
X116244751Y-79199994D01*
X116244751Y-79199999D01*
X116263685Y-79368053D01*
X116319545Y-79527690D01*
X116323526Y-79534025D01*
X116342527Y-79601261D01*
X116323531Y-79665964D01*
X116319544Y-79672308D01*
X116263685Y-79831943D01*
X116244751Y-79999997D01*
X116244751Y-80000002D01*
X116263685Y-80168056D01*
X116284695Y-80228097D01*
X116319544Y-80327690D01*
X116319545Y-80327691D01*
X116323529Y-80334033D01*
X116342525Y-80401270D01*
X116323529Y-80465967D01*
X116319545Y-80472308D01*
X116263685Y-80631943D01*
X116244751Y-80799997D01*
X116244751Y-80800002D01*
X116263685Y-80968056D01*
X116319545Y-81127694D01*
X116319547Y-81127697D01*
X116409518Y-81270884D01*
X116409523Y-81270890D01*
X116529109Y-81390476D01*
X116529115Y-81390481D01*
X116672302Y-81480452D01*
X116672305Y-81480454D01*
X116672309Y-81480455D01*
X116672310Y-81480456D01*
X116728161Y-81499999D01*
X116831943Y-81536314D01*
X116999997Y-81555249D01*
X117000000Y-81555249D01*
X117000003Y-81555249D01*
X117168056Y-81536314D01*
X117196417Y-81526390D01*
X117327690Y-81480456D01*
X117381721Y-81446505D01*
X117447693Y-81427500D01*
X120552302Y-81427500D01*
X120618274Y-81446506D01*
X120659696Y-81472533D01*
X120672310Y-81480459D01*
X120793621Y-81522907D01*
X120831943Y-81536317D01*
X120999997Y-81555252D01*
X121000000Y-81555252D01*
X121000003Y-81555252D01*
X121168056Y-81536317D01*
X121168065Y-81536314D01*
X121327690Y-81480459D01*
X121434030Y-81413640D01*
X121501266Y-81394640D01*
X121565975Y-81413641D01*
X121672307Y-81480454D01*
X121672305Y-81480454D01*
X121672309Y-81480455D01*
X121672310Y-81480456D01*
X121728161Y-81499999D01*
X121831943Y-81536314D01*
X121999997Y-81555249D01*
X122000000Y-81555249D01*
X122000003Y-81555249D01*
X122168056Y-81536314D01*
X122196417Y-81526390D01*
X122327690Y-81480456D01*
X122327692Y-81480454D01*
X122327694Y-81480454D01*
X122327697Y-81480452D01*
X122470884Y-81390481D01*
X122470885Y-81390480D01*
X122470890Y-81390477D01*
X122590477Y-81270890D01*
X122591165Y-81269795D01*
X122680452Y-81127697D01*
X122680454Y-81127694D01*
X122680455Y-81127691D01*
X122680456Y-81127690D01*
X122736313Y-80968059D01*
X122736313Y-80968058D01*
X122736314Y-80968056D01*
X122755249Y-80800002D01*
X122755249Y-80799997D01*
X122736314Y-80631943D01*
X122703574Y-80538379D01*
X122680456Y-80472310D01*
X122674604Y-80462996D01*
X122646506Y-80418278D01*
X122627500Y-80352306D01*
X122627500Y-80051482D01*
X122603386Y-79930258D01*
X122603385Y-79930257D01*
X122603385Y-79930253D01*
X122562664Y-79831943D01*
X122556086Y-79816061D01*
X122556079Y-79816048D01*
X122487412Y-79713281D01*
X122446439Y-79672308D01*
X122400008Y-79625877D01*
X122013306Y-79239175D01*
X121979821Y-79177852D01*
X121984805Y-79108160D01*
X122026677Y-79052227D01*
X122092141Y-79027810D01*
X122100987Y-79027494D01*
X132561233Y-79027494D01*
X132561234Y-79027493D01*
X132682464Y-79003380D01*
X132755512Y-78973121D01*
X132793109Y-78957549D01*
X132795522Y-78956548D01*
X132796662Y-78956077D01*
X132899437Y-78887405D01*
X132986840Y-78800002D01*
X135605841Y-76180999D01*
X135667162Y-76147516D01*
X135697446Y-76145972D01*
X135697446Y-76145125D01*
X135704413Y-76145125D01*
X135872466Y-76126190D01*
X135872469Y-76126189D01*
X136032100Y-76070332D01*
X136163811Y-75987571D01*
X136231048Y-75968571D01*
X136297883Y-75988938D01*
X136317465Y-76004884D01*
X141234549Y-80921968D01*
X141263910Y-80968695D01*
X141319544Y-81127691D01*
X141319547Y-81127697D01*
X141409518Y-81270884D01*
X141409523Y-81270890D01*
X141529109Y-81390476D01*
X141529115Y-81390481D01*
X141672302Y-81480452D01*
X141672305Y-81480454D01*
X141672309Y-81480455D01*
X141672310Y-81480456D01*
X141728161Y-81499999D01*
X141831943Y-81536314D01*
X141999997Y-81555249D01*
X142000000Y-81555249D01*
X142000003Y-81555249D01*
X142135336Y-81540000D01*
X142168059Y-81536313D01*
X142267292Y-81501589D01*
X142337069Y-81498027D01*
X142397697Y-81532756D01*
X142415295Y-81558096D01*
X142416112Y-81557625D01*
X142418432Y-81561643D01*
X142549614Y-81788857D01*
X142636166Y-81897390D01*
X142713198Y-81993985D01*
X142894753Y-82162441D01*
X142905521Y-82172433D01*
X143122296Y-82320228D01*
X143122301Y-82320230D01*
X143122302Y-82320231D01*
X143122303Y-82320232D01*
X143247843Y-82380688D01*
X143358673Y-82434061D01*
X143358674Y-82434061D01*
X143358677Y-82434063D01*
X143609385Y-82511396D01*
X143868818Y-82550500D01*
X144131182Y-82550500D01*
X144390615Y-82511396D01*
X144641323Y-82434063D01*
X144877704Y-82320228D01*
X145094479Y-82172433D01*
X145286805Y-81993981D01*
X145450386Y-81788857D01*
X145581568Y-81561643D01*
X145677420Y-81317416D01*
X145735802Y-81061630D01*
X145735803Y-81061620D01*
X145755408Y-80800004D01*
X145755408Y-80799995D01*
X145735803Y-80538379D01*
X145735802Y-80538374D01*
X145735802Y-80538370D01*
X145677420Y-80282584D01*
X145581568Y-80038357D01*
X145450386Y-79811143D01*
X145401629Y-79750004D01*
X149245093Y-79750004D01*
X149264692Y-80011545D01*
X149264693Y-80011550D01*
X149323058Y-80267270D01*
X149418883Y-80511426D01*
X149418882Y-80511426D01*
X149550027Y-80738573D01*
X149597874Y-80798571D01*
X150322421Y-80074024D01*
X150335359Y-80105258D01*
X150417437Y-80228097D01*
X150521903Y-80332563D01*
X150644742Y-80414641D01*
X150675974Y-80427577D01*
X149950830Y-81152720D01*
X150122546Y-81269793D01*
X150122550Y-81269795D01*
X150358854Y-81383594D01*
X150358858Y-81383595D01*
X150609494Y-81460907D01*
X150609500Y-81460909D01*
X150868848Y-81499999D01*
X150868857Y-81500000D01*
X151131143Y-81500000D01*
X151131151Y-81499999D01*
X151390499Y-81460909D01*
X151390505Y-81460907D01*
X151641143Y-81383595D01*
X151877445Y-81269798D01*
X151877447Y-81269797D01*
X152049168Y-81152720D01*
X151324025Y-80427578D01*
X151355258Y-80414641D01*
X151478097Y-80332563D01*
X151582563Y-80228097D01*
X151664641Y-80105258D01*
X151677578Y-80074025D01*
X152402125Y-80798572D01*
X152449971Y-80738573D01*
X152581116Y-80511426D01*
X152676941Y-80267270D01*
X152735306Y-80011550D01*
X152735307Y-80011545D01*
X152754907Y-79750004D01*
X152754907Y-79749995D01*
X152735307Y-79488454D01*
X152735306Y-79488449D01*
X152676941Y-79232729D01*
X152581116Y-78988573D01*
X152581117Y-78988573D01*
X152449972Y-78761426D01*
X152402124Y-78701427D01*
X151677577Y-79425973D01*
X151664641Y-79394742D01*
X151582563Y-79271903D01*
X151478097Y-79167437D01*
X151355258Y-79085359D01*
X151324025Y-79072421D01*
X152049168Y-78347278D01*
X151877454Y-78230206D01*
X151877445Y-78230201D01*
X151641142Y-78116404D01*
X151641144Y-78116404D01*
X151390505Y-78039092D01*
X151390499Y-78039090D01*
X151131151Y-78000000D01*
X150868848Y-78000000D01*
X150609500Y-78039090D01*
X150609494Y-78039092D01*
X150358858Y-78116404D01*
X150358854Y-78116405D01*
X150122547Y-78230205D01*
X150122539Y-78230210D01*
X149950830Y-78347277D01*
X150675974Y-79072421D01*
X150644742Y-79085359D01*
X150521903Y-79167437D01*
X150417437Y-79271903D01*
X150335359Y-79394742D01*
X150322422Y-79425974D01*
X149597875Y-78701427D01*
X149597874Y-78701427D01*
X149550028Y-78761425D01*
X149418883Y-78988573D01*
X149323058Y-79232729D01*
X149264693Y-79488449D01*
X149264692Y-79488454D01*
X149245093Y-79749995D01*
X149245093Y-79750004D01*
X145401629Y-79750004D01*
X145286805Y-79606019D01*
X145286804Y-79606018D01*
X145286801Y-79606014D01*
X145094479Y-79427567D01*
X145048834Y-79396447D01*
X144877704Y-79279772D01*
X144877700Y-79279770D01*
X144877697Y-79279768D01*
X144877696Y-79279767D01*
X144641325Y-79165938D01*
X144641327Y-79165938D01*
X144390623Y-79088606D01*
X144390619Y-79088605D01*
X144390615Y-79088604D01*
X144265823Y-79069794D01*
X144131187Y-79049500D01*
X144131182Y-79049500D01*
X143868818Y-79049500D01*
X143868812Y-79049500D01*
X143707247Y-79073853D01*
X143609385Y-79088604D01*
X143609382Y-79088605D01*
X143609376Y-79088606D01*
X143358673Y-79165938D01*
X143122303Y-79279767D01*
X143122302Y-79279768D01*
X142905520Y-79427567D01*
X142713198Y-79606014D01*
X142549614Y-79811143D01*
X142416112Y-80042375D01*
X142414384Y-80041377D01*
X142373075Y-80087071D01*
X142305636Y-80105341D01*
X142267292Y-80098410D01*
X142168693Y-80063908D01*
X142121968Y-80034549D01*
X131207011Y-69119591D01*
X131207006Y-69119587D01*
X131158851Y-69087412D01*
X131158849Y-69087410D01*
X131104233Y-69050917D01*
X131104226Y-69050913D01*
X131064672Y-69034530D01*
X130990035Y-69003614D01*
X130990027Y-69003612D01*
X130868807Y-68979500D01*
X130868803Y-68979500D01*
X122707282Y-68979500D01*
X122640243Y-68959815D01*
X122594488Y-68907011D01*
X122584544Y-68837853D01*
X122613569Y-68774297D01*
X122619601Y-68767819D01*
X122694407Y-68693012D01*
X122694411Y-68693008D01*
X122715471Y-68661489D01*
X145524500Y-68661489D01*
X145560659Y-68982410D01*
X145560661Y-68982426D01*
X145632527Y-69297294D01*
X145632531Y-69297306D01*
X145739195Y-69602133D01*
X145739201Y-69602147D01*
X145879327Y-69893122D01*
X145879329Y-69893125D01*
X146051159Y-70166591D01*
X146252527Y-70419099D01*
X146480901Y-70647473D01*
X146733409Y-70848841D01*
X147006875Y-71020671D01*
X147297860Y-71160802D01*
X147297866Y-71160804D01*
X147602693Y-71267468D01*
X147602705Y-71267472D01*
X147917577Y-71339339D01*
X148238511Y-71375499D01*
X148238512Y-71375500D01*
X148238515Y-71375500D01*
X148561488Y-71375500D01*
X148561488Y-71375499D01*
X148882423Y-71339339D01*
X149197295Y-71267472D01*
X149502140Y-71160802D01*
X149793125Y-71020671D01*
X150066591Y-70848841D01*
X150319099Y-70647473D01*
X150547473Y-70419099D01*
X150748841Y-70166591D01*
X150920671Y-69893125D01*
X151060802Y-69602140D01*
X151167472Y-69297295D01*
X151239339Y-68982423D01*
X151275500Y-68661485D01*
X151275500Y-68338515D01*
X151239339Y-68017577D01*
X151167472Y-67702705D01*
X151060802Y-67397860D01*
X150920671Y-67106875D01*
X150748841Y-66833409D01*
X150547473Y-66580901D01*
X150319099Y-66352527D01*
X150066591Y-66151159D01*
X149793125Y-65979329D01*
X149793122Y-65979327D01*
X149502147Y-65839201D01*
X149502133Y-65839195D01*
X149197306Y-65732531D01*
X149197294Y-65732527D01*
X148882426Y-65660661D01*
X148882410Y-65660659D01*
X148561489Y-65624500D01*
X148561485Y-65624500D01*
X148238515Y-65624500D01*
X148238510Y-65624500D01*
X147917589Y-65660659D01*
X147917573Y-65660661D01*
X147602705Y-65732527D01*
X147602693Y-65732531D01*
X147297866Y-65839195D01*
X147297852Y-65839201D01*
X147006877Y-65979327D01*
X146733410Y-66151158D01*
X146480901Y-66352526D01*
X146252526Y-66580901D01*
X146051158Y-66833410D01*
X145879327Y-67106877D01*
X145739201Y-67397852D01*
X145739195Y-67397866D01*
X145632531Y-67702693D01*
X145632527Y-67702705D01*
X145560661Y-68017573D01*
X145560659Y-68017589D01*
X145524500Y-68338510D01*
X145524500Y-68661489D01*
X122715471Y-68661489D01*
X122742410Y-68621172D01*
X122763083Y-68590233D01*
X122777884Y-68554500D01*
X122810386Y-68476035D01*
X122834500Y-68354803D01*
X122834500Y-68231197D01*
X122834500Y-67186769D01*
X122823837Y-67133161D01*
X122810386Y-67065537D01*
X122765412Y-66956964D01*
X122763764Y-66952358D01*
X122694414Y-66848568D01*
X122694413Y-66848566D01*
X122679256Y-66833409D01*
X122607008Y-66761161D01*
X121875374Y-66029527D01*
X121841889Y-65968204D01*
X121846873Y-65898512D01*
X121888745Y-65842579D01*
X121897073Y-65836859D01*
X121959482Y-65797644D01*
X121970887Y-65790479D01*
X121970887Y-65790478D01*
X121970890Y-65790477D01*
X122090477Y-65670890D01*
X122090481Y-65670884D01*
X122180452Y-65527697D01*
X122180454Y-65527694D01*
X122180454Y-65527692D01*
X122180456Y-65527690D01*
X122236313Y-65368059D01*
X122236313Y-65368058D01*
X122236314Y-65368056D01*
X122255249Y-65200002D01*
X122255249Y-65199997D01*
X122236314Y-65031943D01*
X122183306Y-64880456D01*
X122180456Y-64872310D01*
X122180455Y-64872309D01*
X122180454Y-64872305D01*
X122180452Y-64872302D01*
X122090481Y-64729115D01*
X122090476Y-64729109D01*
X122049048Y-64687681D01*
X122015563Y-64626358D01*
X122020547Y-64556666D01*
X122049048Y-64512319D01*
X122063340Y-64498027D01*
X122090477Y-64470890D01*
X122096750Y-64460907D01*
X122180452Y-64327697D01*
X122180454Y-64327694D01*
X122180454Y-64327692D01*
X122180456Y-64327690D01*
X122236313Y-64168059D01*
X122236313Y-64168058D01*
X122236314Y-64168056D01*
X122255249Y-64000002D01*
X122255249Y-63999997D01*
X122236314Y-63831943D01*
X122200561Y-63729767D01*
X122180456Y-63672310D01*
X122180455Y-63672309D01*
X122180454Y-63672305D01*
X122180452Y-63672302D01*
X122090481Y-63529115D01*
X122090476Y-63529109D01*
X121999048Y-63437681D01*
X121965563Y-63376358D01*
X121970547Y-63306666D01*
X121999048Y-63262319D01*
X122033270Y-63228097D01*
X122090477Y-63170890D01*
X122125308Y-63115457D01*
X122180452Y-63027697D01*
X122180454Y-63027694D01*
X122180454Y-63027692D01*
X122180456Y-63027690D01*
X122236313Y-62868059D01*
X122236313Y-62868058D01*
X122236314Y-62868056D01*
X122255249Y-62700002D01*
X122255249Y-62699997D01*
X122236313Y-62531942D01*
X122234825Y-62527690D01*
X122211833Y-62461981D01*
X122187505Y-62392454D01*
X122183944Y-62322676D01*
X122218673Y-62262048D01*
X122280666Y-62229821D01*
X122304547Y-62227500D01*
X131087007Y-62227500D01*
X131154046Y-62247185D01*
X131174688Y-62263819D01*
X131652877Y-62742008D01*
X131740280Y-62829411D01*
X131798121Y-62868059D01*
X131843055Y-62898083D01*
X131843057Y-62898084D01*
X131843061Y-62898086D01*
X131957248Y-62945383D01*
X131957253Y-62945385D01*
X131957257Y-62945385D01*
X131957258Y-62945386D01*
X132078481Y-62969500D01*
X132078484Y-62969500D01*
X134321516Y-62969500D01*
X134321517Y-62969499D01*
X134442747Y-62945386D01*
X134523496Y-62911937D01*
X134556945Y-62898083D01*
X134659720Y-62829411D01*
X134747123Y-62742008D01*
X135198333Y-62290797D01*
X135259654Y-62257314D01*
X135329345Y-62262298D01*
X135385279Y-62304169D01*
X135409696Y-62369634D01*
X135403054Y-62419434D01*
X135363686Y-62531942D01*
X135344751Y-62699997D01*
X135344751Y-62700002D01*
X135363685Y-62868056D01*
X135419545Y-63027694D01*
X135419547Y-63027697D01*
X135509518Y-63170884D01*
X135509523Y-63170890D01*
X135629109Y-63290476D01*
X135629115Y-63290481D01*
X135772302Y-63380452D01*
X135772305Y-63380454D01*
X135772309Y-63380455D01*
X135772310Y-63380456D01*
X135844913Y-63405860D01*
X135931943Y-63436314D01*
X136099997Y-63455249D01*
X136100000Y-63455249D01*
X136100003Y-63455249D01*
X136268056Y-63436314D01*
X136268059Y-63436313D01*
X136427690Y-63380456D01*
X136481721Y-63346505D01*
X136547693Y-63327500D01*
X138452307Y-63327500D01*
X138518278Y-63346505D01*
X138572310Y-63380456D01*
X138670006Y-63414641D01*
X138731943Y-63436314D01*
X138899997Y-63455249D01*
X138900000Y-63455249D01*
X138900003Y-63455249D01*
X139068056Y-63436314D01*
X139129994Y-63414641D01*
X139227690Y-63380456D01*
X139227692Y-63380454D01*
X139227694Y-63380454D01*
X139227697Y-63380452D01*
X139370884Y-63290481D01*
X139370885Y-63290480D01*
X139370890Y-63290477D01*
X139490477Y-63170890D01*
X139525308Y-63115457D01*
X139580452Y-63027697D01*
X139580454Y-63027694D01*
X139580454Y-63027692D01*
X139580456Y-63027690D01*
X139636313Y-62868059D01*
X139636313Y-62868058D01*
X139636314Y-62868056D01*
X139655249Y-62700002D01*
X139655249Y-62699997D01*
X139649552Y-62649437D01*
X139661606Y-62580615D01*
X139708955Y-62529236D01*
X139776565Y-62511611D01*
X139842971Y-62533337D01*
X139860453Y-62547872D01*
X141234549Y-63921968D01*
X141263908Y-63968693D01*
X141295364Y-64058587D01*
X141319544Y-64127691D01*
X141319547Y-64127697D01*
X141409518Y-64270884D01*
X141409523Y-64270890D01*
X141529109Y-64390476D01*
X141529115Y-64390481D01*
X141672302Y-64480452D01*
X141672305Y-64480454D01*
X141672309Y-64480455D01*
X141672310Y-64480456D01*
X141728161Y-64499999D01*
X141831943Y-64536314D01*
X141999997Y-64555249D01*
X142000000Y-64555249D01*
X142000003Y-64555249D01*
X142126044Y-64541047D01*
X142168059Y-64536313D01*
X142267292Y-64501589D01*
X142337069Y-64498027D01*
X142397697Y-64532756D01*
X142415295Y-64558096D01*
X142416112Y-64557625D01*
X142447950Y-64612770D01*
X142549614Y-64788857D01*
X142622662Y-64880456D01*
X142713198Y-64993985D01*
X142870475Y-65139915D01*
X142905521Y-65172433D01*
X143122296Y-65320228D01*
X143122301Y-65320230D01*
X143122302Y-65320231D01*
X143122303Y-65320232D01*
X143221612Y-65368056D01*
X143358673Y-65434061D01*
X143358674Y-65434061D01*
X143358677Y-65434063D01*
X143609385Y-65511396D01*
X143868818Y-65550500D01*
X144131182Y-65550500D01*
X144390615Y-65511396D01*
X144641323Y-65434063D01*
X144877704Y-65320228D01*
X145094479Y-65172433D01*
X145245894Y-65031941D01*
X145286801Y-64993985D01*
X145286801Y-64993983D01*
X145286805Y-64993981D01*
X145450386Y-64788857D01*
X145581568Y-64561643D01*
X145677420Y-64317416D01*
X145735802Y-64061630D01*
X145735803Y-64061620D01*
X145755408Y-63800004D01*
X145755408Y-63799995D01*
X145735803Y-63538379D01*
X145735802Y-63538374D01*
X145735802Y-63538370D01*
X145677420Y-63282584D01*
X145581568Y-63038357D01*
X145450386Y-62811143D01*
X145401629Y-62750004D01*
X149245093Y-62750004D01*
X149264692Y-63011545D01*
X149264693Y-63011550D01*
X149323058Y-63267270D01*
X149418883Y-63511426D01*
X149418882Y-63511426D01*
X149550027Y-63738573D01*
X149597874Y-63798571D01*
X150322421Y-63074024D01*
X150335359Y-63105258D01*
X150417437Y-63228097D01*
X150521903Y-63332563D01*
X150644742Y-63414641D01*
X150675974Y-63427577D01*
X149950830Y-64152720D01*
X150122546Y-64269793D01*
X150122550Y-64269795D01*
X150358854Y-64383594D01*
X150358858Y-64383595D01*
X150609494Y-64460907D01*
X150609500Y-64460909D01*
X150868848Y-64499999D01*
X150868857Y-64500000D01*
X151131143Y-64500000D01*
X151131151Y-64499999D01*
X151390499Y-64460909D01*
X151390505Y-64460907D01*
X151641143Y-64383595D01*
X151877445Y-64269798D01*
X151877447Y-64269797D01*
X152049168Y-64152720D01*
X151324025Y-63427578D01*
X151355258Y-63414641D01*
X151478097Y-63332563D01*
X151582563Y-63228097D01*
X151664641Y-63105258D01*
X151677578Y-63074025D01*
X152402125Y-63798572D01*
X152449971Y-63738573D01*
X152581116Y-63511426D01*
X152676941Y-63267270D01*
X152735306Y-63011550D01*
X152735307Y-63011545D01*
X152754907Y-62750004D01*
X152754907Y-62749995D01*
X152735307Y-62488454D01*
X152735306Y-62488449D01*
X152676941Y-62232729D01*
X152581116Y-61988573D01*
X152581117Y-61988573D01*
X152449972Y-61761426D01*
X152402124Y-61701427D01*
X151677577Y-62425973D01*
X151664641Y-62394742D01*
X151582563Y-62271903D01*
X151478097Y-62167437D01*
X151355258Y-62085359D01*
X151324025Y-62072421D01*
X152049168Y-61347278D01*
X151877454Y-61230206D01*
X151877445Y-61230201D01*
X151641142Y-61116404D01*
X151641144Y-61116404D01*
X151390505Y-61039092D01*
X151390499Y-61039090D01*
X151131151Y-61000000D01*
X150868848Y-61000000D01*
X150609500Y-61039090D01*
X150609494Y-61039092D01*
X150358858Y-61116404D01*
X150358854Y-61116405D01*
X150122547Y-61230205D01*
X150122539Y-61230210D01*
X149950830Y-61347277D01*
X150675974Y-62072421D01*
X150644742Y-62085359D01*
X150521903Y-62167437D01*
X150417437Y-62271903D01*
X150335359Y-62394742D01*
X150322422Y-62425974D01*
X149597875Y-61701427D01*
X149597874Y-61701427D01*
X149550028Y-61761425D01*
X149418883Y-61988573D01*
X149323058Y-62232729D01*
X149264693Y-62488449D01*
X149264692Y-62488454D01*
X149245093Y-62749995D01*
X149245093Y-62750004D01*
X145401629Y-62750004D01*
X145286805Y-62606019D01*
X145286804Y-62606018D01*
X145286801Y-62606014D01*
X145094479Y-62427567D01*
X145048834Y-62396447D01*
X144877704Y-62279772D01*
X144877700Y-62279770D01*
X144877697Y-62279768D01*
X144877696Y-62279767D01*
X144641325Y-62165938D01*
X144641327Y-62165938D01*
X144390623Y-62088606D01*
X144390619Y-62088605D01*
X144390615Y-62088604D01*
X144265823Y-62069794D01*
X144131187Y-62049500D01*
X144131182Y-62049500D01*
X143868818Y-62049500D01*
X143868812Y-62049500D01*
X143731624Y-62070179D01*
X143609385Y-62088604D01*
X143609382Y-62088605D01*
X143609376Y-62088606D01*
X143358673Y-62165938D01*
X143122303Y-62279767D01*
X143122302Y-62279768D01*
X142905520Y-62427567D01*
X142713198Y-62606014D01*
X142549614Y-62811143D01*
X142416112Y-63042375D01*
X142414384Y-63041377D01*
X142373075Y-63087071D01*
X142305636Y-63105341D01*
X142267292Y-63098410D01*
X142168693Y-63063908D01*
X142121968Y-63034549D01*
X140200011Y-61112591D01*
X140200007Y-61112588D01*
X140097239Y-61043920D01*
X140097226Y-61043913D01*
X140050468Y-61024546D01*
X139983035Y-60996614D01*
X139983027Y-60996612D01*
X139861807Y-60972500D01*
X139861803Y-60972500D01*
X139352467Y-60972500D01*
X139285428Y-60952815D01*
X139239673Y-60900011D01*
X139229729Y-60830853D01*
X139258754Y-60767297D01*
X139286495Y-60743506D01*
X139370890Y-60690477D01*
X139490477Y-60570890D01*
X139490481Y-60570884D01*
X139580452Y-60427697D01*
X139580454Y-60427694D01*
X139580454Y-60427692D01*
X139580456Y-60427690D01*
X139636313Y-60268059D01*
X139636313Y-60268058D01*
X139636314Y-60268056D01*
X139655249Y-60100002D01*
X139655249Y-60099997D01*
X139636314Y-59931943D01*
X139605860Y-59844913D01*
X139580456Y-59772310D01*
X139580455Y-59772309D01*
X139580454Y-59772305D01*
X139580452Y-59772302D01*
X139490481Y-59629115D01*
X139490476Y-59629109D01*
X139370890Y-59509523D01*
X139370884Y-59509518D01*
X139227697Y-59419547D01*
X139227694Y-59419545D01*
X139068056Y-59363685D01*
X138900003Y-59344751D01*
X138899997Y-59344751D01*
X138731943Y-59363685D01*
X138572307Y-59419545D01*
X138518279Y-59453494D01*
X138452307Y-59472500D01*
X135647693Y-59472500D01*
X135581721Y-59453494D01*
X135527692Y-59419545D01*
X135527691Y-59419544D01*
X135527690Y-59419544D01*
X135489370Y-59406135D01*
X135368056Y-59363685D01*
X135200003Y-59344751D01*
X135199997Y-59344751D01*
X135031943Y-59363685D01*
X134872305Y-59419545D01*
X134872302Y-59419547D01*
X134729115Y-59509518D01*
X134729109Y-59509523D01*
X134609523Y-59629109D01*
X134609518Y-59629115D01*
X134519547Y-59772302D01*
X134519545Y-59772305D01*
X134463685Y-59931943D01*
X134444751Y-60099997D01*
X134444751Y-60100002D01*
X134463685Y-60268056D01*
X134519545Y-60427694D01*
X134519547Y-60427697D01*
X134609518Y-60570884D01*
X134609523Y-60570890D01*
X134729111Y-60690478D01*
X134856825Y-60770727D01*
X134903115Y-60823062D01*
X134913763Y-60892115D01*
X134885388Y-60955963D01*
X134826998Y-60994335D01*
X134822318Y-60995510D01*
X134818672Y-60996616D01*
X134704485Y-61043913D01*
X134704474Y-61043919D01*
X134628667Y-61094572D01*
X134561990Y-61115449D01*
X134494610Y-61096964D01*
X134472096Y-61079151D01*
X134436858Y-61043913D01*
X134400008Y-61007063D01*
X132588977Y-59196032D01*
X132559616Y-59149305D01*
X132503981Y-58990308D01*
X132503978Y-58990302D01*
X132414007Y-58847115D01*
X132414002Y-58847109D01*
X132294416Y-58727523D01*
X132294410Y-58727518D01*
X132151223Y-58637547D01*
X132151220Y-58637545D01*
X131991582Y-58581685D01*
X131823529Y-58562751D01*
X131823523Y-58562751D01*
X131655469Y-58581685D01*
X131495834Y-58637544D01*
X131459393Y-58660442D01*
X131392156Y-58679441D01*
X131327451Y-58660442D01*
X131291009Y-58637544D01*
X131131374Y-58581685D01*
X130963321Y-58562751D01*
X130963315Y-58562751D01*
X130795261Y-58581685D01*
X130635625Y-58637545D01*
X130547631Y-58692836D01*
X130480394Y-58711836D01*
X130415687Y-58692836D01*
X130327692Y-58637545D01*
X130327691Y-58637544D01*
X130327690Y-58637544D01*
X130289370Y-58624135D01*
X130168056Y-58581685D01*
X130000003Y-58562751D01*
X129999997Y-58562751D01*
X129831943Y-58581685D01*
X129672305Y-58637545D01*
X129672302Y-58637547D01*
X129529115Y-58727518D01*
X129529109Y-58727523D01*
X129409523Y-58847109D01*
X129409518Y-58847115D01*
X129319547Y-58990302D01*
X129319545Y-58990305D01*
X129263685Y-59149943D01*
X129244751Y-59317997D01*
X129244751Y-59318002D01*
X129263685Y-59486056D01*
X129319545Y-59645694D01*
X129319547Y-59645697D01*
X129409518Y-59788884D01*
X129409523Y-59788890D01*
X129529109Y-59908476D01*
X129529115Y-59908481D01*
X129672302Y-59998452D01*
X129672308Y-59998455D01*
X129672310Y-59998456D01*
X129831941Y-60054313D01*
X129831942Y-60054313D01*
X129835920Y-60055705D01*
X129882647Y-60085066D01*
X130558400Y-60760819D01*
X130591885Y-60822142D01*
X130586901Y-60891834D01*
X130545029Y-60947767D01*
X130479565Y-60972184D01*
X130470719Y-60972500D01*
X122366006Y-60972500D01*
X122298967Y-60952815D01*
X122253212Y-60900011D01*
X122242786Y-60862384D01*
X122236314Y-60804946D01*
X122236313Y-60804944D01*
X122236313Y-60804941D01*
X122180456Y-60645310D01*
X122180455Y-60645307D01*
X122180452Y-60645302D01*
X122090481Y-60502115D01*
X122090476Y-60502109D01*
X121970890Y-60382523D01*
X121970884Y-60382518D01*
X121827697Y-60292547D01*
X121827691Y-60292544D01*
X121751456Y-60265869D01*
X121668416Y-60236811D01*
X121630709Y-60215626D01*
X121627009Y-60212590D01*
X121627008Y-60212589D01*
X121551001Y-60161803D01*
X121550997Y-60161800D01*
X121524235Y-60143918D01*
X121524228Y-60143914D01*
X121490785Y-60130062D01*
X121410035Y-60096614D01*
X121410027Y-60096612D01*
X121288807Y-60072500D01*
X121288803Y-60072500D01*
X114047693Y-60072500D01*
X113981721Y-60053494D01*
X113927692Y-60019545D01*
X113927691Y-60019544D01*
X113927690Y-60019544D01*
X113867421Y-59998455D01*
X113768056Y-59963685D01*
X113600003Y-59944751D01*
X113599997Y-59944751D01*
X113431943Y-59963685D01*
X113272307Y-60019545D01*
X113218279Y-60053494D01*
X113152307Y-60072500D01*
X111376345Y-60072500D01*
X111255126Y-60096611D01*
X111255126Y-60096612D01*
X111255123Y-60096613D01*
X111255119Y-60096614D01*
X111188223Y-60124323D01*
X111188221Y-60124323D01*
X111140922Y-60143915D01*
X111140917Y-60143918D01*
X111114151Y-60161803D01*
X111114151Y-60161804D01*
X111038142Y-60212590D01*
X111038141Y-60212591D01*
X110358900Y-60891834D01*
X110145097Y-61105637D01*
X110101394Y-61149340D01*
X110057691Y-61193042D01*
X110057690Y-61193044D01*
X109989025Y-61295809D01*
X109989021Y-61295816D01*
X109982031Y-61312693D01*
X109982030Y-61312695D01*
X109941719Y-61410012D01*
X109919775Y-61520338D01*
X109919773Y-61520344D01*
X109917605Y-61531240D01*
X109917605Y-63005203D01*
X109941717Y-63126423D01*
X109941719Y-63126432D01*
X109943060Y-63129668D01*
X109952500Y-63177123D01*
X109952500Y-77325300D01*
X109933494Y-77391272D01*
X109899545Y-77445301D01*
X109843685Y-77604937D01*
X109824751Y-77772991D01*
X109824751Y-77772996D01*
X107004500Y-77772996D01*
X107004500Y-77013885D01*
X107024185Y-76946846D01*
X107040814Y-76926208D01*
X108014963Y-75952060D01*
X108014966Y-75952059D01*
X108120059Y-75846966D01*
X108202629Y-75723390D01*
X108259505Y-75586080D01*
X108288500Y-75440312D01*
X108288500Y-70514446D01*
X108288501Y-70514425D01*
X108288501Y-70359685D01*
X108263599Y-70234501D01*
X108263599Y-70234500D01*
X108259505Y-70213920D01*
X108202629Y-70076610D01*
X108195423Y-70065826D01*
X108120060Y-69953035D01*
X108120059Y-69953034D01*
X108101199Y-69934174D01*
X108014966Y-69847941D01*
X107854706Y-69687681D01*
X107821221Y-69626358D01*
X107826205Y-69556666D01*
X107854706Y-69512319D01*
X108120054Y-69246971D01*
X108120059Y-69246966D01*
X108202629Y-69123390D01*
X108244005Y-69023500D01*
X108259505Y-68986080D01*
X108259505Y-68986076D01*
X108259507Y-68986073D01*
X108269030Y-68938198D01*
X108269030Y-68938197D01*
X108288501Y-68840314D01*
X108288501Y-68686578D01*
X108288500Y-68686552D01*
X108288500Y-62214446D01*
X108288501Y-62214425D01*
X108288501Y-62059685D01*
X108259506Y-61913925D01*
X108259503Y-61913915D01*
X108255614Y-61904527D01*
X108255611Y-61904521D01*
X108222617Y-61824866D01*
X108222617Y-61824865D01*
X108202630Y-61776611D01*
X108170891Y-61729110D01*
X108120059Y-61653034D01*
X108120057Y-61653031D01*
X108010647Y-61543621D01*
X108010624Y-61543600D01*
X106780969Y-60313943D01*
X106780968Y-60313942D01*
X106712298Y-60268059D01*
X106657389Y-60231370D01*
X106657386Y-60231368D01*
X106657385Y-60231368D01*
X106576955Y-60198053D01*
X106520080Y-60174495D01*
X106495894Y-60169684D01*
X106374314Y-60145499D01*
X106374312Y-60145499D01*
X106225688Y-60145499D01*
X106219574Y-60145499D01*
X106219554Y-60145500D01*
X103763886Y-60145500D01*
X103696847Y-60125815D01*
X103676205Y-60109181D01*
X99445819Y-55878794D01*
X99412334Y-55817471D01*
X99409500Y-55791113D01*
X99409500Y-53584900D01*
X99429185Y-53517861D01*
X99462377Y-53483325D01*
X99526401Y-53438495D01*
X99693495Y-53271401D01*
X99823425Y-53085842D01*
X99878002Y-53042217D01*
X99947500Y-53035023D01*
X100009855Y-53066546D01*
X100026575Y-53085842D01*
X100156500Y-53271395D01*
X100156505Y-53271401D01*
X100323599Y-53438495D01*
X100387623Y-53483325D01*
X100517165Y-53574032D01*
X100517167Y-53574033D01*
X100517170Y-53574035D01*
X100731337Y-53673903D01*
X100959592Y-53735063D01*
X101130319Y-53750000D01*
X101194999Y-53755659D01*
X101195000Y-53755659D01*
X101195001Y-53755659D01*
X101259681Y-53750000D01*
X101430408Y-53735063D01*
X101658663Y-53673903D01*
X101872830Y-53574035D01*
X102066401Y-53438495D01*
X102233495Y-53271401D01*
X102363425Y-53085842D01*
X102418002Y-53042217D01*
X102487500Y-53035023D01*
X102549855Y-53066546D01*
X102566575Y-53085842D01*
X102696500Y-53271395D01*
X102696505Y-53271401D01*
X102863599Y-53438495D01*
X102927623Y-53483325D01*
X103057165Y-53574032D01*
X103057167Y-53574033D01*
X103057170Y-53574035D01*
X103271337Y-53673903D01*
X103499592Y-53735063D01*
X103670319Y-53750000D01*
X103734999Y-53755659D01*
X103735000Y-53755659D01*
X103735001Y-53755659D01*
X103799681Y-53750000D01*
X103970408Y-53735063D01*
X104198663Y-53673903D01*
X104412830Y-53574035D01*
X104606401Y-53438495D01*
X104773495Y-53271401D01*
X104903425Y-53085842D01*
X104958002Y-53042217D01*
X105027500Y-53035023D01*
X105089855Y-53066546D01*
X105106575Y-53085842D01*
X105236500Y-53271395D01*
X105236505Y-53271401D01*
X105403599Y-53438495D01*
X105467623Y-53483325D01*
X105597165Y-53574032D01*
X105597167Y-53574033D01*
X105597170Y-53574035D01*
X105811337Y-53673903D01*
X106039592Y-53735063D01*
X106210319Y-53750000D01*
X106274999Y-53755659D01*
X106275000Y-53755659D01*
X106275001Y-53755659D01*
X106339681Y-53750000D01*
X106510408Y-53735063D01*
X106738663Y-53673903D01*
X106952830Y-53574035D01*
X107146401Y-53438495D01*
X107313495Y-53271401D01*
X107443425Y-53085842D01*
X107498002Y-53042217D01*
X107567500Y-53035023D01*
X107629855Y-53066546D01*
X107646575Y-53085842D01*
X107776500Y-53271395D01*
X107776505Y-53271401D01*
X107943599Y-53438495D01*
X108007623Y-53483325D01*
X108137165Y-53574032D01*
X108137167Y-53574033D01*
X108137170Y-53574035D01*
X108351337Y-53673903D01*
X108579592Y-53735063D01*
X108750319Y-53750000D01*
X108814999Y-53755659D01*
X108815000Y-53755659D01*
X108815001Y-53755659D01*
X108879681Y-53750000D01*
X109050408Y-53735063D01*
X109278663Y-53673903D01*
X109492830Y-53574035D01*
X109686401Y-53438495D01*
X109853495Y-53271401D01*
X109983425Y-53085842D01*
X110038002Y-53042217D01*
X110107500Y-53035023D01*
X110169855Y-53066546D01*
X110186575Y-53085842D01*
X110316500Y-53271395D01*
X110316505Y-53271401D01*
X110483599Y-53438495D01*
X110547623Y-53483325D01*
X110677165Y-53574032D01*
X110677167Y-53574033D01*
X110677170Y-53574035D01*
X110891337Y-53673903D01*
X111119592Y-53735063D01*
X111290319Y-53750000D01*
X111354999Y-53755659D01*
X111355000Y-53755659D01*
X111355001Y-53755659D01*
X111419681Y-53750000D01*
X111590408Y-53735063D01*
X111818663Y-53673903D01*
X112032830Y-53574035D01*
X112226401Y-53438495D01*
X112393495Y-53271401D01*
X112523425Y-53085842D01*
X112578002Y-53042217D01*
X112647500Y-53035023D01*
X112709855Y-53066546D01*
X112726575Y-53085842D01*
X112856500Y-53271395D01*
X112856505Y-53271401D01*
X113023599Y-53438495D01*
X113087623Y-53483325D01*
X113217165Y-53574032D01*
X113217167Y-53574033D01*
X113217170Y-53574035D01*
X113431337Y-53673903D01*
X113659592Y-53735063D01*
X113830319Y-53750000D01*
X113894999Y-53755659D01*
X113895000Y-53755659D01*
X113895001Y-53755659D01*
X113959681Y-53750000D01*
X114130408Y-53735063D01*
X114358663Y-53673903D01*
X114572830Y-53574035D01*
X114766401Y-53438495D01*
X114933495Y-53271401D01*
X115063425Y-53085842D01*
X115118002Y-53042217D01*
X115187500Y-53035023D01*
X115249855Y-53066546D01*
X115266575Y-53085842D01*
X115396500Y-53271395D01*
X115396505Y-53271401D01*
X115563599Y-53438495D01*
X115627623Y-53483325D01*
X115757165Y-53574032D01*
X115757167Y-53574033D01*
X115757170Y-53574035D01*
X115971337Y-53673903D01*
X116199592Y-53735063D01*
X116370319Y-53750000D01*
X116434999Y-53755659D01*
X116435000Y-53755659D01*
X116435001Y-53755659D01*
X116499681Y-53750000D01*
X116670408Y-53735063D01*
X116898663Y-53673903D01*
X117112830Y-53574035D01*
X117306401Y-53438495D01*
X117473495Y-53271401D01*
X117609035Y-53077830D01*
X117708903Y-52863663D01*
X117770063Y-52635408D01*
X117790659Y-52400000D01*
X117770063Y-52164592D01*
X117708903Y-51936337D01*
X117609035Y-51722171D01*
X117603425Y-51714158D01*
X117473494Y-51528597D01*
X117306402Y-51361506D01*
X117306395Y-51361501D01*
X117112834Y-51225967D01*
X117112830Y-51225965D01*
X117112828Y-51225964D01*
X116898663Y-51126097D01*
X116898659Y-51126096D01*
X116898655Y-51126094D01*
X116670413Y-51064938D01*
X116670403Y-51064936D01*
X116435001Y-51044341D01*
X116434999Y-51044341D01*
X116199596Y-51064936D01*
X116199586Y-51064938D01*
X115971344Y-51126094D01*
X115971335Y-51126098D01*
X115757171Y-51225964D01*
X115757169Y-51225965D01*
X115563597Y-51361505D01*
X115396505Y-51528597D01*
X115266575Y-51714158D01*
X115211998Y-51757783D01*
X115142500Y-51764977D01*
X115080145Y-51733454D01*
X115063425Y-51714158D01*
X114933494Y-51528597D01*
X114766402Y-51361506D01*
X114766395Y-51361501D01*
X114572834Y-51225967D01*
X114572830Y-51225965D01*
X114572828Y-51225964D01*
X114358663Y-51126097D01*
X114358659Y-51126096D01*
X114358655Y-51126094D01*
X114130413Y-51064938D01*
X114130403Y-51064936D01*
X113895001Y-51044341D01*
X113894999Y-51044341D01*
X113659596Y-51064936D01*
X113659586Y-51064938D01*
X113431344Y-51126094D01*
X113431335Y-51126098D01*
X113217171Y-51225964D01*
X113217169Y-51225965D01*
X113023597Y-51361505D01*
X112856505Y-51528597D01*
X112726575Y-51714158D01*
X112671998Y-51757783D01*
X112602500Y-51764977D01*
X112540145Y-51733454D01*
X112523425Y-51714158D01*
X112393494Y-51528597D01*
X112226402Y-51361506D01*
X112226395Y-51361501D01*
X112032834Y-51225967D01*
X112032830Y-51225965D01*
X112032828Y-51225964D01*
X111818663Y-51126097D01*
X111818659Y-51126096D01*
X111818655Y-51126094D01*
X111590413Y-51064938D01*
X111590403Y-51064936D01*
X111355001Y-51044341D01*
X111354999Y-51044341D01*
X111119596Y-51064936D01*
X111119586Y-51064938D01*
X110891344Y-51126094D01*
X110891335Y-51126098D01*
X110677171Y-51225964D01*
X110677169Y-51225965D01*
X110483597Y-51361505D01*
X110316505Y-51528597D01*
X110186575Y-51714158D01*
X110131998Y-51757783D01*
X110062500Y-51764977D01*
X110000145Y-51733454D01*
X109983425Y-51714158D01*
X109853494Y-51528597D01*
X109686402Y-51361506D01*
X109686395Y-51361501D01*
X109492834Y-51225967D01*
X109492830Y-51225965D01*
X109492828Y-51225964D01*
X109278663Y-51126097D01*
X109278659Y-51126096D01*
X109278655Y-51126094D01*
X109050413Y-51064938D01*
X109050403Y-51064936D01*
X108815001Y-51044341D01*
X108814999Y-51044341D01*
X108579596Y-51064936D01*
X108579586Y-51064938D01*
X108351344Y-51126094D01*
X108351335Y-51126098D01*
X108137171Y-51225964D01*
X108137169Y-51225965D01*
X107943597Y-51361505D01*
X107776505Y-51528597D01*
X107646575Y-51714158D01*
X107591998Y-51757783D01*
X107522500Y-51764977D01*
X107460145Y-51733454D01*
X107443425Y-51714158D01*
X107313494Y-51528597D01*
X107146402Y-51361506D01*
X107146395Y-51361501D01*
X106952834Y-51225967D01*
X106952830Y-51225965D01*
X106952828Y-51225964D01*
X106738663Y-51126097D01*
X106738659Y-51126096D01*
X106738655Y-51126094D01*
X106510413Y-51064938D01*
X106510403Y-51064936D01*
X106275001Y-51044341D01*
X106274999Y-51044341D01*
X106039596Y-51064936D01*
X106039586Y-51064938D01*
X105811344Y-51126094D01*
X105811335Y-51126098D01*
X105597171Y-51225964D01*
X105597169Y-51225965D01*
X105403597Y-51361505D01*
X105236505Y-51528597D01*
X105106575Y-51714158D01*
X105051998Y-51757783D01*
X104982500Y-51764977D01*
X104920145Y-51733454D01*
X104903425Y-51714158D01*
X104773494Y-51528597D01*
X104606402Y-51361506D01*
X104606395Y-51361501D01*
X104412834Y-51225967D01*
X104412830Y-51225965D01*
X104412828Y-51225964D01*
X104198663Y-51126097D01*
X104198659Y-51126096D01*
X104198655Y-51126094D01*
X103970413Y-51064938D01*
X103970403Y-51064936D01*
X103735001Y-51044341D01*
X103734999Y-51044341D01*
X103499596Y-51064936D01*
X103499586Y-51064938D01*
X103271344Y-51126094D01*
X103271335Y-51126098D01*
X103057171Y-51225964D01*
X103057169Y-51225965D01*
X102863597Y-51361505D01*
X102696505Y-51528597D01*
X102566575Y-51714158D01*
X102511998Y-51757783D01*
X102442500Y-51764977D01*
X102380145Y-51733454D01*
X102363425Y-51714158D01*
X102233494Y-51528597D01*
X102066402Y-51361506D01*
X102066395Y-51361501D01*
X101872834Y-51225967D01*
X101872830Y-51225965D01*
X101872828Y-51225964D01*
X101658663Y-51126097D01*
X101658659Y-51126096D01*
X101658655Y-51126094D01*
X101430413Y-51064938D01*
X101430403Y-51064936D01*
X101195001Y-51044341D01*
X101194999Y-51044341D01*
X100959596Y-51064936D01*
X100959586Y-51064938D01*
X100731344Y-51126094D01*
X100731335Y-51126098D01*
X100517171Y-51225964D01*
X100517169Y-51225965D01*
X100323597Y-51361505D01*
X100156505Y-51528597D01*
X100026575Y-51714158D01*
X99971998Y-51757783D01*
X99902500Y-51764977D01*
X99840145Y-51733454D01*
X99823425Y-51714158D01*
X99693494Y-51528597D01*
X99526402Y-51361506D01*
X99526395Y-51361501D01*
X99332834Y-51225967D01*
X99332830Y-51225965D01*
X99332828Y-51225964D01*
X99118663Y-51126097D01*
X99118659Y-51126096D01*
X99118655Y-51126094D01*
X98890413Y-51064938D01*
X98890403Y-51064936D01*
X98655001Y-51044341D01*
X98654999Y-51044341D01*
X98419596Y-51064936D01*
X98419586Y-51064938D01*
X98191344Y-51126094D01*
X98191335Y-51126098D01*
X97977171Y-51225964D01*
X97977169Y-51225965D01*
X97783597Y-51361505D01*
X97616505Y-51528597D01*
X97486575Y-51714158D01*
X97431998Y-51757783D01*
X97362500Y-51764977D01*
X97300145Y-51733454D01*
X97283425Y-51714158D01*
X97153494Y-51528597D01*
X96986402Y-51361506D01*
X96986395Y-51361501D01*
X96792834Y-51225967D01*
X96792830Y-51225965D01*
X96792828Y-51225964D01*
X96578663Y-51126097D01*
X96578659Y-51126096D01*
X96578655Y-51126094D01*
X96350413Y-51064938D01*
X96350403Y-51064936D01*
X96115001Y-51044341D01*
X96114999Y-51044341D01*
X95879596Y-51064936D01*
X95879586Y-51064938D01*
X95651344Y-51126094D01*
X95651335Y-51126098D01*
X95437171Y-51225964D01*
X95437169Y-51225965D01*
X95243600Y-51361503D01*
X95121284Y-51483819D01*
X95059961Y-51517303D01*
X94990269Y-51512319D01*
X94934336Y-51470447D01*
X94917421Y-51439470D01*
X94868354Y-51307913D01*
X94868350Y-51307906D01*
X94782190Y-51192812D01*
X94782187Y-51192809D01*
X94667093Y-51106649D01*
X94667086Y-51106645D01*
X94532379Y-51056403D01*
X94532372Y-51056401D01*
X94472844Y-51050000D01*
X93825000Y-51050000D01*
X93825000Y-51966988D01*
X93767993Y-51934075D01*
X93640826Y-51900000D01*
X93509174Y-51900000D01*
X93382007Y-51934075D01*
X93325000Y-51966988D01*
X93325000Y-51050000D01*
X92677155Y-51050000D01*
X92617627Y-51056401D01*
X92617620Y-51056403D01*
X92482913Y-51106645D01*
X92482906Y-51106649D01*
X92367812Y-51192809D01*
X92367809Y-51192812D01*
X92281649Y-51307906D01*
X92281645Y-51307913D01*
X92231403Y-51442620D01*
X92231401Y-51442627D01*
X92225000Y-51502155D01*
X92225000Y-52150000D01*
X93141988Y-52150000D01*
X93109075Y-52207007D01*
X93075000Y-52334174D01*
X93075000Y-52465826D01*
X93109075Y-52592993D01*
X93141988Y-52650000D01*
X92225000Y-52650000D01*
X92225000Y-53297844D01*
X67281046Y-53297844D01*
X67223890Y-53035104D01*
X67123908Y-52767041D01*
X66986808Y-52515961D01*
X66986807Y-52515960D01*
X66880115Y-52373436D01*
X66126524Y-53127026D01*
X66037913Y-52994410D01*
X65905590Y-52862087D01*
X65772971Y-52773474D01*
X66526562Y-52019883D01*
X66526561Y-52019882D01*
X66384046Y-51913196D01*
X66384038Y-51913191D01*
X66132957Y-51776091D01*
X66132958Y-51776091D01*
X65864895Y-51676109D01*
X65585362Y-51615300D01*
X65300001Y-51594891D01*
X65299999Y-51594891D01*
X65014637Y-51615300D01*
X64735104Y-51676109D01*
X64467041Y-51776091D01*
X64215961Y-51913191D01*
X64215953Y-51913196D01*
X64073437Y-52019882D01*
X64073436Y-52019883D01*
X64827028Y-52773474D01*
X64694410Y-52862087D01*
X64562087Y-52994410D01*
X64473474Y-53127027D01*
X63719883Y-52373436D01*
X63719882Y-52373437D01*
X63613196Y-52515953D01*
X63613191Y-52515961D01*
X63476091Y-52767041D01*
X63376109Y-53035104D01*
X63315300Y-53314637D01*
X63294891Y-53599998D01*
X63294891Y-53600001D01*
X62305109Y-53600001D01*
X62305109Y-53599998D01*
X62284699Y-53314637D01*
X62223890Y-53035104D01*
X62123908Y-52767041D01*
X61986808Y-52515961D01*
X61986807Y-52515960D01*
X61880115Y-52373436D01*
X61126524Y-53127026D01*
X61037913Y-52994410D01*
X60905590Y-52862087D01*
X60772971Y-52773474D01*
X61526562Y-52019883D01*
X61526561Y-52019882D01*
X61384046Y-51913196D01*
X61384038Y-51913191D01*
X61132957Y-51776091D01*
X61132958Y-51776091D01*
X60864895Y-51676109D01*
X60585362Y-51615300D01*
X60300001Y-51594891D01*
X60299999Y-51594891D01*
X60014637Y-51615300D01*
X59735104Y-51676109D01*
X59467041Y-51776091D01*
X59215961Y-51913191D01*
X59215953Y-51913196D01*
X59073437Y-52019882D01*
X59073436Y-52019883D01*
X59827028Y-52773474D01*
X59694410Y-52862087D01*
X59562087Y-52994410D01*
X59473474Y-53127027D01*
X58719883Y-52373436D01*
X58719882Y-52373437D01*
X58613196Y-52515953D01*
X58613191Y-52515961D01*
X58476091Y-52767041D01*
X58376109Y-53035104D01*
X58315300Y-53314637D01*
X58294891Y-53599998D01*
X58294891Y-53600001D01*
X55328557Y-53600001D01*
X55329194Y-53598040D01*
X55385785Y-53301380D01*
X55404745Y-53000005D01*
X55404745Y-52999994D01*
X55385784Y-52698616D01*
X55385783Y-52698609D01*
X55329194Y-52401959D01*
X55235874Y-52114752D01*
X55235872Y-52114747D01*
X55107295Y-51841508D01*
X55107292Y-51841502D01*
X54945483Y-51586530D01*
X54864686Y-51488864D01*
X53936289Y-52417261D01*
X53839033Y-52283398D01*
X53716602Y-52160967D01*
X53582736Y-52063709D01*
X54513434Y-51133011D01*
X54513433Y-51133009D01*
X54288538Y-50969614D01*
X54288520Y-50969602D01*
X54023890Y-50824121D01*
X54023882Y-50824117D01*
X53810899Y-50739792D01*
X53755813Y-50696811D01*
X53732710Y-50630872D01*
X53748923Y-50562910D01*
X53799306Y-50514502D01*
X53856546Y-50500500D01*
X156143454Y-50500500D01*
X156210493Y-50520185D01*
G37*
%TD.AperFunction*%
%TD*%
M02*
