M48
; DRILL file {KiCad 8.0.1} date 2026-03-25T15:57:47+0100
; FORMAT={-:-/ absolute / inch / decimal}
; #@! TF.CreationDate,2026-03-25T15:57:47+01:00
; #@! TF.GenerationSoftware,Kicad,Pcbnew,8.0.1
; #@! TF.FileFunction,Plated,1,2,PTH
FMAT,2
INCH
; #@! TA.AperFunction,Plated,PTH,ViaDrill
T1C0.0118
; #@! TA.AperFunction,Plated,PTH,ComponentDrill
T2C0.0315
; #@! TA.AperFunction,Plated,PTH,ComponentDrill
T3C0.0394
; #@! TA.AperFunction,Plated,PTH,ComponentDrill
T4C0.0591
; #@! TA.AperFunction,Plated,PTH,ComponentDrill
T5C0.0748
; #@! TA.AperFunction,Plated,PTH,ComponentDrill
T6C0.0866
%
G90
G05
T1
X2.4626Y-3.8346
X2.4626Y-3.884
X2.4724Y-3.2362
X2.4724Y-3.6535
X3.7126Y-2.9544
X3.7362Y-2.5906
X3.7835Y-2.4488
X3.8031Y-2.5512
X3.8701Y-2.7008
X3.9134Y-2.8296
X3.9134Y-2.9248
X4.0236Y-2.4803
X4.0748Y-2.4803
X4.1772Y-2.6693
X4.1831Y-3.2102
X4.2008Y-2.7402
X4.2047Y-2.5276
X4.2852Y-2.8959
X4.2992Y-2.3937
X4.2992Y-2.8296
X4.3535Y-3.0619
X4.3769Y-2.4679
X4.378Y-2.434
X4.378Y-2.5039
X4.3937Y-2.7362
X4.4173Y-2.3465
X4.4173Y-2.5276
X4.437Y-2.8425
X4.4449Y-2.7008
X4.4685Y-2.3071
X4.4724Y-2.3898
X4.4724Y-2.4252
X4.4787Y-3.2098
X4.5984Y-2.9882
X4.6063Y-2.7913
X4.6063Y-3.0866
X4.6063Y-3.1181
X4.6063Y-3.1496
X4.6063Y-3.1811
X4.6479Y-2.955
X4.6496Y-2.6919
X4.685Y-2.2924
X4.689Y-2.752
X4.7638Y-3.1496
X4.7638Y-3.1811
X4.7835Y-2.4005
X4.7835Y-2.4685
X4.7835Y-2.5197
X4.7835Y-2.5669
X4.7835Y-2.7165
X4.7835Y-2.8661
X4.7874Y-2.6575
X4.8031Y-3.1811
X4.811Y-2.9409
X5.1181Y-2.3354
X5.1378Y-2.937
X5.156Y-2.3354
X5.1899Y-2.3354
X5.2126Y-2.4297
X5.2441Y-2.4297
X5.2756Y-2.4297
X5.3228Y-2.3661
X5.3427Y-2.9681
X5.3583Y-2.4685
X5.4685Y-2.3661
X5.4685Y-2.4685
X5.5906Y-2.5118
X5.5906Y-3.1811
T3
X2.374Y-2.7559
X2.374Y-3.3268
X2.4724Y-3.3268
X2.5709Y-2.7559
X2.5709Y-3.3268
X3.6841Y-2.063
X3.7841Y-2.063
X3.8841Y-2.063
X3.9841Y-2.063
X4.0841Y-2.063
X4.1841Y-2.063
X4.2841Y-2.063
X4.3841Y-2.063
X4.4841Y-2.063
X4.5841Y-2.063
T4
X5.6693Y-2.5118
X5.6693Y-3.1811
X5.9449Y-2.4705
X5.9449Y-3.1398
T5
X2.2874Y-2.6102
X2.374Y-2.1102
X2.4724Y-2.6102
X2.5709Y-2.1102
X2.6575Y-2.6102
T6
X2.0866Y-2.0866
X2.0866Y-3.9764
X6.1811Y-2.0866
X6.1811Y-3.9764
T2
G00X2.3022Y-3.8025
M15
G01X2.3022Y-3.834
M16
G05
G00X2.3022Y-3.971
M15
G01X2.3022Y-3.9946
M16
G05
G00X2.6427Y-3.8025
M15
G01X2.6427Y-3.834
M16
G05
G00X2.6427Y-3.971
M15
G01X2.6427Y-3.9946
M16
G05
T4
G00X2.252Y-3.0571
M15
G01X2.252Y-3.0059
M16
G05
G00X2.6929Y-3.0571
M15
G01X2.6929Y-3.0059
M16
G05
M30
