M48
; DRILL file {KiCad 8.0.1} date 2026-03-26T11:22:20+0100
; FORMAT={-:-/ absolute / inch / decimal}
; #@! TF.CreationDate,2026-03-26T11:22:20+01:00
; #@! TF.GenerationSoftware,Kicad,Pcbnew,8.0.1
; #@! TF.FileFunction,Plated,1,2,PTH
FMAT,2
INCH
; #@! TA.AperFunction,Plated,PTH,ViaDrill
T1C0.0118
; #@! TA.AperFunction,Plated,PTH,ComponentDrill
T2C0.0315
; #@! TA.AperFunction,Plated,PTH,ComponentDrill
T3C0.0394
; #@! TA.AperFunction,Plated,PTH,ComponentDrill
T4C0.0591
; #@! TA.AperFunction,Plated,PTH,ComponentDrill
T5C0.0748
; #@! TA.AperFunction,Plated,PTH,ComponentDrill
T6C0.0866
%
G90
G05
T1
X2.4626Y-3.8346
X2.4626Y-3.884
X2.4724Y-3.2362
X2.4724Y-3.6535
X2.7776Y-2.8287
X2.7776Y-2.9252
X2.7783Y-2.9653
X2.8527Y-2.6748
X2.8537Y-2.5512
X2.8839Y-2.8228
X2.8976Y-3.1181
X2.9207Y-2.7008
X2.9646Y-2.9272
X3.0742Y-2.4803
X3.1949Y-2.8051
X3.2278Y-2.5276
X3.2278Y-2.6693
X3.2441Y-2.7441
X3.2474Y-2.4528
X3.2736Y-2.7303
X3.3358Y-2.8959
X3.3498Y-2.3937
X3.3498Y-2.8296
X3.4114Y-3.372
X3.4213Y-2.8209
X3.4274Y-2.4679
X3.4285Y-2.434
X3.4285Y-2.5039
X3.4567Y-3.0197
X3.4679Y-2.3465
X3.4679Y-2.5276
X3.4876Y-2.8425
X3.4955Y-2.7008
X3.5191Y-2.3071
X3.523Y-2.3898
X3.523Y-2.4252
X3.5453Y-3.2717
X3.5768Y-3.7382
X3.622Y-3.2087
X3.649Y-2.9882
X3.6516Y-3.1457
X3.6569Y-2.7913
X3.6909Y-3.2244
X3.6985Y-2.955
X3.7002Y-2.6919
X3.7356Y-2.2924
X3.7362Y-3.0945
X3.7396Y-2.752
X3.7894Y-3.2244
X3.8209Y-3.0098
X3.8341Y-2.4005
X3.8341Y-2.4685
X3.8341Y-2.5197
X3.8341Y-2.5669
X3.8341Y-2.7165
X3.8341Y-2.8661
X3.838Y-2.6575
X3.8878Y-3.2244
X4.0079Y-3.063
X4.0571Y-2.9724
X4.1083Y-2.9724
X4.374Y-3.6142
X4.435Y-2.9685
X4.439Y-2.4685
X4.439Y-2.5177
X4.4787Y-3.2098
X4.7106Y-2.4685
X4.7323Y-2.5177
T3
X2.374Y-2.7559
X2.374Y-3.3268
X2.4724Y-3.3268
X2.5709Y-2.7559
X2.5709Y-3.3268
X2.8451Y-3.9764
X2.9451Y-3.9764
X3.0451Y-3.9764
X3.1451Y-3.9764
X3.2451Y-3.9764
X3.3451Y-3.9764
X3.4451Y-3.9764
X3.5451Y-3.9764
X3.6451Y-3.9764
X3.7451Y-3.9764
T4
X5.6535Y-2.4921
X5.6535Y-3.2402
X5.9291Y-2.4508
X5.9291Y-3.1988
T5
X2.2874Y-2.6102
X2.374Y-2.1102
X2.4724Y-2.6102
X2.5709Y-2.1102
X2.6575Y-2.6102
T6
X2.0866Y-2.0866
X2.0866Y-3.9764
X6.1811Y-2.0866
X6.1811Y-3.9764
T2
G00X2.3022Y-3.8025
M15
G01X2.3022Y-3.834
M16
G05
G00X2.3022Y-3.971
M15
G01X2.3022Y-3.9946
M16
G05
G00X2.6427Y-3.8025
M15
G01X2.6427Y-3.834
M16
G05
G00X2.6427Y-3.971
M15
G01X2.6427Y-3.9946
M16
G05
T4
G00X2.252Y-3.0571
M15
G01X2.252Y-3.0059
M16
G05
G00X2.6929Y-3.0571
M15
G01X2.6929Y-3.0059
M16
G05
M30
