%TF.GenerationSoftware,KiCad,Pcbnew,8.0.1*%
%TF.CreationDate,2026-03-30T11:56:25+02:00*%
%TF.ProjectId,memory_pcb,6d656d6f-7279-45f7-9063-622e6b696361,rev?*%
%TF.SameCoordinates,Original*%
%TF.FileFunction,Soldermask,Top*%
%TF.FilePolarity,Negative*%
%FSLAX46Y46*%
G04 Gerber Fmt 4.6, Leading zero omitted, Abs format (unit mm)*
G04 Created by KiCad (PCBNEW 8.0.1) date 2026-03-30 11:56:25*
%MOMM*%
%LPD*%
G01*
G04 APERTURE LIST*
G04 Aperture macros list*
%AMFreePoly0*
4,1,19,0.000000,0.744911,0.071157,0.744911,0.207708,0.704816,0.327430,0.627875,0.420627,0.520320,0.479746,0.390866,0.500000,0.250000,0.500000,-0.250000,0.479746,-0.390866,0.420627,-0.520320,0.327430,-0.627875,0.207708,-0.704816,0.071157,-0.744911,0.000000,-0.744911,0.000000,-0.750000,-0.500000,-0.750000,-0.500000,0.750000,0.000000,0.750000,0.000000,0.744911,0.000000,0.744911,
$1*%
%AMFreePoly1*
4,1,19,0.500000,-0.750000,0.000000,-0.750000,0.000000,-0.744911,-0.071157,-0.744911,-0.207708,-0.704816,-0.327430,-0.627875,-0.420627,-0.520320,-0.479746,-0.390866,-0.500000,-0.250000,-0.500000,0.250000,-0.479746,0.390866,-0.420627,0.520320,-0.327430,0.627875,-0.207708,0.704816,-0.071157,0.744911,0.000000,0.744911,0.000000,0.750000,0.500000,0.750000,0.500000,-0.750000,0.500000,-0.750000,
$1*%
%AMFreePoly2*
4,1,5,0.299873,-0.649886,-0.300152,-0.649886,-0.300152,0.650089,0.299873,0.650089,0.299873,-0.649886,0.299873,-0.649886,$1*%
%AMFreePoly3*
4,1,9,0.300076,-0.650038,0.000127,-0.650038,0.000127,-0.650064,-0.299898,-0.650064,-0.299898,0.649911,0.000051,0.649911,0.000051,0.649936,0.300076,0.649936,0.300076,-0.650038,0.300076,-0.650038,$1*%
%AMFreePoly4*
4,1,9,0.299924,-0.649936,-0.000051,-0.649936,-0.000051,-0.650089,-0.300051,-0.650089,-0.300051,0.649936,-0.000076,0.649936,-0.000076,0.650089,0.299924,0.650089,0.299924,-0.649936,0.299924,-0.649936,$1*%
G04 Aperture macros list end*
%ADD10R,0.540005X0.500000*%
%ADD11R,0.806477X0.864008*%
%ADD12R,0.900000X0.900000*%
%ADD13R,1.500000X0.900000*%
%ADD14R,0.900000X1.500000*%
%ADD15R,0.864008X0.806477*%
%ADD16R,0.800000X0.900000*%
%ADD17FreePoly0,270.000000*%
%ADD18FreePoly1,270.000000*%
%ADD19R,1.539014X2.062510*%
%ADD20R,1.859995X1.229997*%
%ADD21FreePoly0,0.000000*%
%ADD22FreePoly1,0.000000*%
%ADD23R,0.500000X0.540005*%
%ADD24R,0.300000X1.300000*%
%ADD25FreePoly2,0.000000*%
%ADD26FreePoly3,0.000000*%
%ADD27FreePoly4,0.000000*%
%ADD28O,1.200000X2.000000*%
%ADD29O,1.200000X1.800000*%
%ADD30C,0.750013*%
%ADD31R,0.900000X0.800000*%
%ADD32R,0.299975X1.500000*%
%ADD33R,2.000000X1.600000*%
%ADD34C,1.000000*%
%ADD35R,0.424994X0.280010*%
%ADD36R,0.800000X1.200000*%
%ADD37R,0.700000X1.250013*%
%ADD38C,3.800000*%
%ADD39O,1.700000X1.700000*%
%ADD40R,1.700000X1.700000*%
%ADD41R,0.489992X1.156998*%
%ADD42R,0.489992X1.175006*%
%ADD43C,3.000000*%
%ADD44R,0.600000X1.100000*%
%ADD45R,1.104902X0.622301*%
%ADD46R,3.800000X1.000000*%
%ADD47R,3.400000X1.500000*%
%ADD48R,0.800000X0.800000*%
%ADD49C,2.000000*%
%ADD50R,2.000000X3.200000*%
%ADD51R,2.000000X2.000000*%
%ADD52C,2.500000*%
%ADD53C,5.250000*%
G04 APERTURE END LIST*
D10*
%TO.C,C11*%
X88084925Y-62459766D03*
X88084925Y-63300000D03*
%TD*%
D11*
%TO.C,R9*%
X94284925Y-64100000D03*
X92778193Y-64100000D03*
%TD*%
D12*
%TO.C,U2*%
X104884925Y-68000050D03*
X104884925Y-66600000D03*
X104884925Y-65199949D03*
X103484874Y-68000050D03*
X103484874Y-66600000D03*
X103484874Y-65199949D03*
X102084823Y-68000050D03*
X102084823Y-66600000D03*
X102084823Y-65199949D03*
D13*
X113735065Y-58879908D03*
X113735065Y-60149911D03*
X113735065Y-61419913D03*
X113735065Y-62689916D03*
X113735065Y-63959918D03*
X113735065Y-65229921D03*
X113735065Y-66499923D03*
X113735065Y-67769926D03*
X113735065Y-69039929D03*
X113735065Y-70309931D03*
X113735065Y-71579934D03*
X113735065Y-72849936D03*
X113735065Y-74119939D03*
X113735065Y-75389941D03*
D14*
X111970015Y-76639878D03*
X110700012Y-76669850D03*
X109430010Y-76669850D03*
X108160007Y-76669850D03*
X106890005Y-76669850D03*
X105620002Y-76669850D03*
X104350000Y-76669850D03*
X103079997Y-76669850D03*
X101809995Y-76669850D03*
X100539992Y-76669850D03*
X99269990Y-76669850D03*
X97999987Y-76669850D03*
D13*
X96234937Y-75389941D03*
X96234937Y-74119939D03*
X96234937Y-72849936D03*
X96234937Y-71579934D03*
X96234937Y-70309931D03*
X96234937Y-69039929D03*
X96234937Y-67769926D03*
X96234937Y-66499923D03*
X96234937Y-65229921D03*
X96234937Y-63959918D03*
X96234937Y-62689916D03*
X96234937Y-61419913D03*
X96234937Y-60149911D03*
X96234937Y-58879908D03*
%TD*%
D15*
%TO.C,R12*%
X91084925Y-64200000D03*
X91084925Y-62693268D03*
%TD*%
D10*
%TO.C,C7*%
X75284925Y-61179883D03*
X75284925Y-62020117D03*
%TD*%
D16*
%TO.C,C17*%
X92184925Y-59000000D03*
X90784875Y-59000000D03*
%TD*%
D11*
%TO.C,R8*%
X94284925Y-62600000D03*
X92778193Y-62600000D03*
%TD*%
D17*
%TO.C,JP2*%
X96250000Y-83400000D03*
D18*
X96250000Y-82100000D03*
%TD*%
D17*
%TO.C,JP3*%
X98750000Y-83400000D03*
D18*
X98750000Y-82100000D03*
%TD*%
D19*
%TO.C,U11*%
X77684925Y-70903683D03*
X77684925Y-65896317D03*
%TD*%
D20*
%TO.C,SW2*%
X81000000Y-87365088D03*
X81000000Y-91734912D03*
%TD*%
D15*
%TO.C,R15*%
X91284925Y-71553366D03*
X91284925Y-70046634D03*
%TD*%
%TO.C,R6*%
X75184925Y-65453366D03*
X75184925Y-63946634D03*
%TD*%
D17*
%TO.C,JP9*%
X113750000Y-83400000D03*
D18*
X113750000Y-82100000D03*
%TD*%
D20*
%TO.C,SW1*%
X87900000Y-91734912D03*
X87900000Y-87365088D03*
%TD*%
D21*
%TO.C,JP11*%
X72150000Y-60250000D03*
D22*
X70850000Y-60250000D03*
%TD*%
D15*
%TO.C,R13*%
X88584925Y-74806732D03*
X88584925Y-73300000D03*
%TD*%
D16*
%TO.C,C10*%
X85784912Y-64725019D03*
X84384862Y-64725019D03*
%TD*%
D11*
%TO.C,R5*%
X72903366Y-71300000D03*
X71396634Y-71300000D03*
%TD*%
D17*
%TO.C,JP5*%
X103750000Y-83400000D03*
D18*
X103750000Y-82100000D03*
%TD*%
D10*
%TO.C,C1*%
X82584925Y-70775006D03*
X82584925Y-71615240D03*
%TD*%
D23*
%TO.C,C18*%
X109600000Y-80450000D03*
X108759766Y-80450000D03*
%TD*%
D24*
%TO.C,U12*%
X61049936Y-96214945D03*
X62049936Y-96214945D03*
X63550064Y-96214945D03*
X64550064Y-96214945D03*
D25*
X65200305Y-96214945D03*
X66000152Y-96214945D03*
D24*
X64049682Y-96214945D03*
X63049936Y-96214945D03*
X62550064Y-96214945D03*
X61550064Y-96214945D03*
D26*
X60399949Y-96214945D03*
D27*
X59600102Y-96214945D03*
D28*
X58474879Y-96983297D03*
D29*
X58474879Y-101163129D03*
X67125121Y-101163129D03*
D28*
X67125121Y-96983297D03*
D30*
X65699924Y-97483424D03*
X59900076Y-97483424D03*
%TD*%
D15*
%TO.C,R20*%
X87021273Y-74806732D03*
X87021273Y-73300000D03*
%TD*%
D10*
%TO.C,C9*%
X93684925Y-59620117D03*
X93684925Y-58779883D03*
%TD*%
D15*
%TO.C,R10*%
X88784925Y-66146634D03*
X88784925Y-67653366D03*
%TD*%
D17*
%TO.C,JP7*%
X108750000Y-83400000D03*
D18*
X108750000Y-82100000D03*
%TD*%
D10*
%TO.C,C2*%
X94284925Y-67173483D03*
X94284925Y-66333249D03*
%TD*%
D31*
%TO.C,C5*%
X80350000Y-69599975D03*
X80350000Y-71000025D03*
%TD*%
D23*
%TO.C,C8*%
X81605017Y-61950318D03*
X80764783Y-61950318D03*
%TD*%
D32*
%TO.C,P1*%
X102752477Y-89161335D03*
X103251588Y-89161335D03*
X103751969Y-89161335D03*
X104252350Y-89161335D03*
X104752731Y-89161335D03*
X105253112Y-89161335D03*
X105753493Y-89161335D03*
X106252604Y-89161335D03*
X106751715Y-89161335D03*
X107252096Y-89161335D03*
D33*
X101050419Y-91908605D03*
X108949581Y-91839771D03*
%TD*%
D34*
%TO.C,TP1*%
X69400000Y-101100000D03*
%TD*%
D15*
%TO.C,R16*%
X92884925Y-66500000D03*
X92884925Y-68006732D03*
%TD*%
D10*
%TO.C,C15*%
X94284925Y-73940234D03*
X94284925Y-73100000D03*
%TD*%
D35*
%TO.C,U6*%
X84128513Y-61824865D03*
X84128513Y-62324993D03*
X84128513Y-62824865D03*
X84128513Y-63324993D03*
X86003545Y-63324993D03*
X86003545Y-62824865D03*
X86003545Y-62324993D03*
X86003545Y-61824865D03*
D36*
X85066029Y-62574929D03*
%TD*%
D37*
%TO.C,U10*%
X80085001Y-66500000D03*
X81984925Y-66500000D03*
X81034963Y-64500000D03*
%TD*%
D38*
%TO.C,H4*%
X157000000Y-101000000D03*
%TD*%
D17*
%TO.C,JP10*%
X116250000Y-83400000D03*
D18*
X116250000Y-82100000D03*
%TD*%
D38*
%TO.C,H2*%
X157000000Y-53000000D03*
%TD*%
D34*
%TO.C,TP2*%
X69400000Y-96300000D03*
%TD*%
D15*
%TO.C,R14*%
X91284925Y-74806732D03*
X91284925Y-73300000D03*
%TD*%
D23*
%TO.C,C16*%
X84079883Y-74100000D03*
X84920117Y-74100000D03*
%TD*%
D17*
%TO.C,JP4*%
X101250000Y-83400000D03*
D18*
X101250000Y-82100000D03*
%TD*%
D39*
%TO.C,J1*%
X72265000Y-101000000D03*
X74805000Y-101000000D03*
X77345000Y-101000000D03*
X79885000Y-101000000D03*
X82425000Y-101000000D03*
X84965000Y-101000000D03*
X87505000Y-101000000D03*
X90045000Y-101000000D03*
X92585000Y-101000000D03*
D40*
X95125000Y-101000000D03*
%TD*%
D41*
%TO.C,U7*%
X70885192Y-68417558D03*
X71835154Y-68417558D03*
X72785116Y-68417558D03*
D42*
X72785116Y-66110218D03*
X70885192Y-66110218D03*
%TD*%
D17*
%TO.C,JP6*%
X106250000Y-83400000D03*
D18*
X106250000Y-82100000D03*
%TD*%
D38*
%TO.C,H3*%
X53000000Y-101000000D03*
%TD*%
D23*
%TO.C,C6*%
X72900000Y-69867558D03*
X72059766Y-69867558D03*
%TD*%
D16*
%TO.C,C19*%
X105549975Y-79900000D03*
X106950025Y-79900000D03*
%TD*%
D15*
%TO.C,R11*%
X91284925Y-66500000D03*
X91284925Y-68006732D03*
%TD*%
%TO.C,R18*%
X92884925Y-70046634D03*
X92884925Y-71553366D03*
%TD*%
D23*
%TO.C,C12*%
X101720117Y-80400000D03*
X100879883Y-80400000D03*
%TD*%
D15*
%TO.C,R7*%
X75184925Y-68600000D03*
X75184925Y-67093268D03*
%TD*%
%TO.C,R2*%
X64200000Y-94300000D03*
X64200000Y-92793268D03*
%TD*%
D43*
%TO.C,SW5*%
X60300000Y-53600000D03*
X65300000Y-53600000D03*
X58100000Y-66300000D03*
X62800000Y-66300000D03*
X67500000Y-66300000D03*
%TD*%
D10*
%TO.C,C3*%
X86034887Y-71645136D03*
X86034887Y-70804902D03*
%TD*%
D44*
%TO.C,U1*%
X84134963Y-69325019D03*
X85084925Y-69325019D03*
X86034887Y-69325019D03*
X86034887Y-66624993D03*
X85084925Y-66624993D03*
X84134963Y-66624993D03*
%TD*%
D17*
%TO.C,JP1*%
X93750000Y-83400000D03*
D18*
X93750000Y-82100000D03*
%TD*%
D23*
%TO.C,C13*%
X79929883Y-72550000D03*
X80770117Y-72550000D03*
%TD*%
D21*
%TO.C,JP12*%
X72150000Y-57700000D03*
D22*
X70850000Y-57700000D03*
%TD*%
D15*
%TO.C,R4*%
X70926849Y-64467558D03*
X70926849Y-62960826D03*
%TD*%
%TO.C,R17*%
X89484925Y-64200000D03*
X89484925Y-62693268D03*
%TD*%
D17*
%TO.C,JP8*%
X111250000Y-83400000D03*
D18*
X111250000Y-82100000D03*
%TD*%
D45*
%TO.C,U9*%
X76784925Y-62000585D03*
X76784925Y-62949785D03*
X76784925Y-63900000D03*
X79384875Y-63900000D03*
X79384875Y-62000585D03*
%TD*%
D38*
%TO.C,H1*%
X53000000Y-53000000D03*
%TD*%
D10*
%TO.C,C14*%
X94284925Y-69900000D03*
X94284925Y-70740234D03*
%TD*%
D46*
%TO.C,U8*%
X73824930Y-82150000D03*
X73824930Y-80150000D03*
D47*
X79675070Y-77799987D03*
X79675070Y-84500013D03*
%TD*%
D11*
%TO.C,R3*%
X90731559Y-60700000D03*
X92238291Y-60700000D03*
%TD*%
D48*
%TO.C,LED1*%
X59150000Y-94450000D03*
X59149746Y-92952006D03*
%TD*%
D15*
%TO.C,R19*%
X92884925Y-73300000D03*
X92884925Y-74806732D03*
%TD*%
D10*
%TO.C,C4*%
X84134887Y-71645136D03*
X84134887Y-70804902D03*
%TD*%
D15*
%TO.C,R1*%
X61500000Y-94300000D03*
X61500000Y-92793268D03*
%TD*%
D49*
%TO.C,ENC1*%
X65300000Y-70000000D03*
X60300000Y-70000000D03*
D50*
X68400000Y-77000000D03*
X57200000Y-77000000D03*
D49*
X62800000Y-84500000D03*
X60300000Y-84500000D03*
D51*
X65300000Y-84500000D03*
%TD*%
D52*
%TO.C,SW3*%
X150600000Y-62250000D03*
X143600000Y-63300000D03*
D53*
X148000000Y-68000000D03*
%TD*%
D52*
%TO.C,SW4*%
X150600000Y-81250000D03*
X143600000Y-82300000D03*
D53*
X148000000Y-87000000D03*
%TD*%
M02*
