%TF.GenerationSoftware,KiCad,Pcbnew,8.0.1*%
%TF.CreationDate,2026-03-30T11:56:25+02:00*%
%TF.ProjectId,memory_pcb,6d656d6f-7279-45f7-9063-622e6b696361,rev?*%
%TF.SameCoordinates,Original*%
%TF.FileFunction,Legend,Top*%
%TF.FilePolarity,Positive*%
%FSLAX46Y46*%
G04 Gerber Fmt 4.6, Leading zero omitted, Abs format (unit mm)*
G04 Created by KiCad (PCBNEW 8.0.1) date 2026-03-30 11:56:25*
%MOMM*%
%LPD*%
G01*
G04 APERTURE LIST*
G04 Aperture macros list*
%AMFreePoly0*
4,1,19,0.000000,0.744911,0.071157,0.744911,0.207708,0.704816,0.327430,0.627875,0.420627,0.520320,0.479746,0.390866,0.500000,0.250000,0.500000,-0.250000,0.479746,-0.390866,0.420627,-0.520320,0.327430,-0.627875,0.207708,-0.704816,0.071157,-0.744911,0.000000,-0.744911,0.000000,-0.750000,-0.500000,-0.750000,-0.500000,0.750000,0.000000,0.750000,0.000000,0.744911,0.000000,0.744911,
$1*%
%AMFreePoly1*
4,1,19,0.500000,-0.750000,0.000000,-0.750000,0.000000,-0.744911,-0.071157,-0.744911,-0.207708,-0.704816,-0.327430,-0.627875,-0.420627,-0.520320,-0.479746,-0.390866,-0.500000,-0.250000,-0.500000,0.250000,-0.479746,0.390866,-0.420627,0.520320,-0.327430,0.627875,-0.207708,0.704816,-0.071157,0.744911,0.000000,0.744911,0.000000,0.750000,0.500000,0.750000,0.500000,-0.750000,0.500000,-0.750000,
$1*%
%AMFreePoly2*
4,1,5,0.299873,-0.649886,-0.300152,-0.649886,-0.300152,0.650089,0.299873,0.650089,0.299873,-0.649886,0.299873,-0.649886,$1*%
%AMFreePoly3*
4,1,9,0.300076,-0.650038,0.000127,-0.650038,0.000127,-0.650064,-0.299898,-0.650064,-0.299898,0.649911,0.000051,0.649911,0.000051,0.649936,0.300076,0.649936,0.300076,-0.650038,0.300076,-0.650038,$1*%
%AMFreePoly4*
4,1,9,0.299924,-0.649936,-0.000051,-0.649936,-0.000051,-0.650089,-0.300051,-0.650089,-0.300051,0.649936,-0.000076,0.649936,-0.000076,0.650089,0.299924,0.650089,0.299924,-0.649936,0.299924,-0.649936,$1*%
G04 Aperture macros list end*
%ADD10C,0.000000*%
%ADD11C,0.300000*%
%ADD12C,0.187500*%
%ADD13C,0.152400*%
%ADD14C,0.120000*%
%ADD15C,0.254000*%
%ADD16C,0.152000*%
%ADD17C,0.200000*%
%ADD18C,0.100000*%
%ADD19C,0.248920*%
%ADD20C,0.150013*%
%ADD21R,0.540005X0.500000*%
%ADD22R,0.806477X0.864008*%
%ADD23R,0.900000X0.900000*%
%ADD24R,1.500000X0.900000*%
%ADD25R,0.900000X1.500000*%
%ADD26R,0.864008X0.806477*%
%ADD27R,0.800000X0.900000*%
%ADD28FreePoly0,270.000000*%
%ADD29FreePoly1,270.000000*%
%ADD30R,1.539014X2.062510*%
%ADD31R,1.859995X1.229997*%
%ADD32FreePoly0,0.000000*%
%ADD33FreePoly1,0.000000*%
%ADD34R,0.500000X0.540005*%
%ADD35R,0.300000X1.300000*%
%ADD36FreePoly2,0.000000*%
%ADD37FreePoly3,0.000000*%
%ADD38FreePoly4,0.000000*%
%ADD39O,1.200000X2.000000*%
%ADD40O,1.200000X1.800000*%
%ADD41C,0.750013*%
%ADD42R,0.900000X0.800000*%
%ADD43R,0.299975X1.500000*%
%ADD44R,2.000000X1.600000*%
%ADD45C,1.000000*%
%ADD46R,0.424994X0.280010*%
%ADD47R,0.800000X1.200000*%
%ADD48R,0.700000X1.250013*%
%ADD49C,3.800000*%
%ADD50O,1.700000X1.700000*%
%ADD51R,1.700000X1.700000*%
%ADD52R,0.489992X1.156998*%
%ADD53R,0.489992X1.175006*%
%ADD54C,3.000000*%
%ADD55R,0.600000X1.100000*%
%ADD56R,1.104902X0.622301*%
%ADD57R,3.800000X1.000000*%
%ADD58R,3.400000X1.500000*%
%ADD59R,0.800000X0.800000*%
%ADD60C,2.000000*%
%ADD61R,2.000000X3.200000*%
%ADD62R,2.000000X2.000000*%
%ADD63C,2.500000*%
%ADD64C,5.250000*%
G04 APERTURE END LIST*
D10*
G36*
X55663766Y-91074197D02*
G01*
X55673199Y-91074915D01*
X55682496Y-91076098D01*
X55691644Y-91077734D01*
X55700633Y-91079811D01*
X55709450Y-91082318D01*
X55718084Y-91085242D01*
X55726522Y-91088572D01*
X55734754Y-91092296D01*
X55742768Y-91096403D01*
X55750551Y-91100881D01*
X55758093Y-91105718D01*
X55765381Y-91110902D01*
X55772403Y-91116422D01*
X55779149Y-91122266D01*
X55785605Y-91128422D01*
X55791761Y-91134879D01*
X55797605Y-91141624D01*
X55803125Y-91148647D01*
X55808310Y-91155935D01*
X55813147Y-91163476D01*
X55817624Y-91171259D01*
X55821731Y-91179273D01*
X55825456Y-91187505D01*
X55828786Y-91195944D01*
X55831710Y-91204578D01*
X55834217Y-91213395D01*
X55836294Y-91222384D01*
X55837929Y-91231532D01*
X55839112Y-91240829D01*
X55839831Y-91250262D01*
X55840073Y-91259820D01*
X55839831Y-91269379D01*
X55839112Y-91278812D01*
X55837929Y-91288110D01*
X55836294Y-91297259D01*
X55834217Y-91306248D01*
X55831710Y-91315066D01*
X55828786Y-91323700D01*
X55825456Y-91332139D01*
X55821731Y-91340371D01*
X55817624Y-91348385D01*
X55813147Y-91356168D01*
X55808310Y-91363709D01*
X55803125Y-91370997D01*
X55797605Y-91378019D01*
X55791761Y-91384765D01*
X55785605Y-91391221D01*
X55779149Y-91397377D01*
X55772403Y-91403221D01*
X55765381Y-91408740D01*
X55758093Y-91413924D01*
X55750551Y-91418761D01*
X55742768Y-91423238D01*
X55734754Y-91427345D01*
X55726522Y-91431069D01*
X55718084Y-91434399D01*
X55709450Y-91437323D01*
X55700633Y-91439829D01*
X55691644Y-91441906D01*
X55682496Y-91443541D01*
X55673199Y-91444724D01*
X55663766Y-91445442D01*
X55654208Y-91445684D01*
X55644650Y-91445442D01*
X55635216Y-91444724D01*
X55625918Y-91443541D01*
X55616769Y-91441906D01*
X55607780Y-91439829D01*
X55598962Y-91437323D01*
X55590328Y-91434399D01*
X55581889Y-91431069D01*
X55573657Y-91427345D01*
X55565643Y-91423238D01*
X55557860Y-91418761D01*
X55550319Y-91413924D01*
X55543031Y-91408740D01*
X55536009Y-91403221D01*
X55529263Y-91397377D01*
X55522807Y-91391221D01*
X55516651Y-91384765D01*
X55510807Y-91378019D01*
X55505288Y-91370997D01*
X55500104Y-91363709D01*
X55495267Y-91356168D01*
X55490790Y-91348385D01*
X55486683Y-91340371D01*
X55482959Y-91332139D01*
X55479629Y-91323700D01*
X55476705Y-91315066D01*
X55474199Y-91306248D01*
X55472123Y-91297259D01*
X55470487Y-91288110D01*
X55469304Y-91278812D01*
X55468586Y-91269379D01*
X55468344Y-91259820D01*
X55600635Y-91259820D01*
X55600705Y-91262575D01*
X55600912Y-91265294D01*
X55601253Y-91267974D01*
X55601724Y-91270611D01*
X55602323Y-91273202D01*
X55603045Y-91275744D01*
X55603888Y-91278233D01*
X55604848Y-91280665D01*
X55605921Y-91283038D01*
X55607105Y-91285348D01*
X55608395Y-91287591D01*
X55609789Y-91289765D01*
X55611283Y-91291865D01*
X55612874Y-91293889D01*
X55614559Y-91295834D01*
X55616333Y-91297695D01*
X55618194Y-91299469D01*
X55620138Y-91301153D01*
X55622162Y-91302744D01*
X55624263Y-91304238D01*
X55626436Y-91305632D01*
X55628680Y-91306923D01*
X55630990Y-91308106D01*
X55633362Y-91309180D01*
X55635795Y-91310140D01*
X55638284Y-91310982D01*
X55640825Y-91311705D01*
X55643416Y-91312303D01*
X55646054Y-91312775D01*
X55648734Y-91313116D01*
X55651453Y-91313323D01*
X55654208Y-91313392D01*
X55656964Y-91313323D01*
X55659683Y-91313116D01*
X55662363Y-91312775D01*
X55665000Y-91312303D01*
X55667591Y-91311705D01*
X55670132Y-91310982D01*
X55672621Y-91310140D01*
X55675054Y-91309180D01*
X55677426Y-91308106D01*
X55679736Y-91306923D01*
X55681980Y-91305632D01*
X55684153Y-91304238D01*
X55686254Y-91302744D01*
X55688278Y-91301153D01*
X55690222Y-91299469D01*
X55692083Y-91297695D01*
X55693858Y-91295834D01*
X55695542Y-91293889D01*
X55697133Y-91291865D01*
X55698627Y-91289765D01*
X55700021Y-91287591D01*
X55701312Y-91285348D01*
X55702495Y-91283038D01*
X55703569Y-91280665D01*
X55704528Y-91278233D01*
X55705371Y-91275744D01*
X55706094Y-91273202D01*
X55706692Y-91270611D01*
X55707164Y-91267974D01*
X55707505Y-91265294D01*
X55707712Y-91262575D01*
X55707781Y-91259820D01*
X55707712Y-91257065D01*
X55707505Y-91254347D01*
X55707164Y-91251668D01*
X55706692Y-91249031D01*
X55706094Y-91246441D01*
X55705371Y-91243899D01*
X55704528Y-91241411D01*
X55703569Y-91238979D01*
X55702495Y-91236606D01*
X55701312Y-91234296D01*
X55700021Y-91232053D01*
X55698627Y-91229879D01*
X55697133Y-91227778D01*
X55695542Y-91225754D01*
X55693858Y-91223810D01*
X55692083Y-91221949D01*
X55690222Y-91220174D01*
X55688278Y-91218489D01*
X55686254Y-91216898D01*
X55684153Y-91215404D01*
X55681980Y-91214009D01*
X55679736Y-91212718D01*
X55677426Y-91211535D01*
X55675054Y-91210461D01*
X55672621Y-91209501D01*
X55670132Y-91208658D01*
X55667591Y-91207935D01*
X55665000Y-91207336D01*
X55662363Y-91206865D01*
X55659683Y-91206524D01*
X55656964Y-91206317D01*
X55654208Y-91206247D01*
X55651453Y-91206317D01*
X55648734Y-91206524D01*
X55646054Y-91206865D01*
X55643416Y-91207336D01*
X55640825Y-91207935D01*
X55638284Y-91208658D01*
X55635795Y-91209501D01*
X55633362Y-91210461D01*
X55630990Y-91211535D01*
X55628680Y-91212718D01*
X55626436Y-91214009D01*
X55624263Y-91215404D01*
X55622162Y-91216898D01*
X55620138Y-91218489D01*
X55618194Y-91220174D01*
X55616333Y-91221949D01*
X55614559Y-91223810D01*
X55612874Y-91225754D01*
X55611283Y-91227778D01*
X55609789Y-91229879D01*
X55608395Y-91232053D01*
X55607105Y-91234296D01*
X55605921Y-91236606D01*
X55604848Y-91238979D01*
X55603888Y-91241411D01*
X55603045Y-91243899D01*
X55602323Y-91246441D01*
X55601724Y-91249031D01*
X55601253Y-91251668D01*
X55600912Y-91254347D01*
X55600705Y-91257065D01*
X55600635Y-91259820D01*
X55468344Y-91259820D01*
X55468586Y-91250262D01*
X55469304Y-91240829D01*
X55470487Y-91231532D01*
X55472123Y-91222384D01*
X55474199Y-91213395D01*
X55476705Y-91204578D01*
X55479629Y-91195944D01*
X55482959Y-91187505D01*
X55486683Y-91179273D01*
X55490790Y-91171259D01*
X55495267Y-91163476D01*
X55500104Y-91155935D01*
X55505288Y-91148647D01*
X55510807Y-91141624D01*
X55516651Y-91134879D01*
X55522807Y-91128422D01*
X55529263Y-91122266D01*
X55536009Y-91116422D01*
X55543031Y-91110902D01*
X55550319Y-91105718D01*
X55557860Y-91100881D01*
X55565643Y-91096403D01*
X55573657Y-91092296D01*
X55581889Y-91088572D01*
X55590328Y-91085242D01*
X55598962Y-91082318D01*
X55607780Y-91079811D01*
X55616769Y-91077734D01*
X55625918Y-91076098D01*
X55635216Y-91074915D01*
X55644650Y-91074197D01*
X55654208Y-91073955D01*
X55663766Y-91074197D01*
G37*
G36*
X54258407Y-92183922D02*
G01*
X54267841Y-92184640D01*
X54277138Y-92185823D01*
X54286287Y-92187458D01*
X54295277Y-92189535D01*
X54304094Y-92192041D01*
X54312728Y-92194965D01*
X54321167Y-92198295D01*
X54329399Y-92202019D01*
X54337413Y-92206126D01*
X54345196Y-92210603D01*
X54352738Y-92215440D01*
X54360025Y-92220624D01*
X54367048Y-92226143D01*
X54373793Y-92231987D01*
X54380249Y-92238143D01*
X54386405Y-92244599D01*
X54392249Y-92251345D01*
X54397769Y-92258367D01*
X54402953Y-92265655D01*
X54407789Y-92273196D01*
X54412267Y-92280980D01*
X54416373Y-92288993D01*
X54420097Y-92297225D01*
X54423426Y-92305664D01*
X54426350Y-92314298D01*
X54428856Y-92323116D01*
X54430933Y-92332105D01*
X54432569Y-92341254D01*
X54433751Y-92350552D01*
X54434470Y-92359986D01*
X54434712Y-92369544D01*
X54434470Y-92379103D01*
X54433751Y-92388537D01*
X54432569Y-92397834D01*
X54430933Y-92406984D01*
X54428856Y-92415973D01*
X54426350Y-92424790D01*
X54423426Y-92433424D01*
X54420097Y-92441863D01*
X54416373Y-92450095D01*
X54412267Y-92458109D01*
X54407789Y-92465892D01*
X54402953Y-92473434D01*
X54397769Y-92480721D01*
X54392249Y-92487744D01*
X54386405Y-92494489D01*
X54380249Y-92500945D01*
X54373793Y-92507101D01*
X54367048Y-92512945D01*
X54360025Y-92518465D01*
X54352738Y-92523648D01*
X54345196Y-92528485D01*
X54337413Y-92532962D01*
X54329399Y-92537069D01*
X54321167Y-92540793D01*
X54312728Y-92544123D01*
X54304094Y-92547047D01*
X54295277Y-92549553D01*
X54286287Y-92551630D01*
X54277138Y-92553266D01*
X54267841Y-92554448D01*
X54258407Y-92555167D01*
X54248848Y-92555409D01*
X54239289Y-92555167D01*
X54229855Y-92554448D01*
X54220558Y-92553266D01*
X54211409Y-92551630D01*
X54202420Y-92549553D01*
X54193602Y-92547047D01*
X54184968Y-92544123D01*
X54176529Y-92540793D01*
X54168297Y-92537069D01*
X54160283Y-92532962D01*
X54152500Y-92528485D01*
X54144958Y-92523648D01*
X54137671Y-92518465D01*
X54130648Y-92512945D01*
X54123903Y-92507101D01*
X54117447Y-92500945D01*
X54111291Y-92494489D01*
X54105447Y-92487744D01*
X54099928Y-92480721D01*
X54094744Y-92473434D01*
X54089907Y-92465892D01*
X54085430Y-92458109D01*
X54081323Y-92450095D01*
X54077599Y-92441863D01*
X54074269Y-92433424D01*
X54071345Y-92424790D01*
X54068839Y-92415973D01*
X54066762Y-92406984D01*
X54065127Y-92397834D01*
X54063944Y-92388537D01*
X54063225Y-92379103D01*
X54062983Y-92369544D01*
X54195275Y-92369544D01*
X54195345Y-92372300D01*
X54195552Y-92375019D01*
X54195893Y-92377699D01*
X54196364Y-92380336D01*
X54196963Y-92382927D01*
X54197685Y-92385469D01*
X54198528Y-92387958D01*
X54199488Y-92390390D01*
X54200561Y-92392763D01*
X54201745Y-92395073D01*
X54203035Y-92397316D01*
X54204429Y-92399490D01*
X54205923Y-92401590D01*
X54207514Y-92403614D01*
X54209198Y-92405559D01*
X54210973Y-92407420D01*
X54212834Y-92409194D01*
X54214778Y-92410878D01*
X54216802Y-92412469D01*
X54218902Y-92413963D01*
X54221076Y-92415357D01*
X54223320Y-92416648D01*
X54225629Y-92417831D01*
X54228002Y-92418904D01*
X54230435Y-92419864D01*
X54232923Y-92420707D01*
X54235465Y-92421429D01*
X54238056Y-92422028D01*
X54240693Y-92422499D01*
X54243373Y-92422840D01*
X54246093Y-92423047D01*
X54248848Y-92423117D01*
X54251603Y-92423047D01*
X54254323Y-92422840D01*
X54257003Y-92422499D01*
X54259640Y-92422028D01*
X54262231Y-92421429D01*
X54264772Y-92420707D01*
X54267261Y-92419864D01*
X54269693Y-92418904D01*
X54272066Y-92417831D01*
X54274376Y-92416648D01*
X54276620Y-92415357D01*
X54278793Y-92413963D01*
X54280894Y-92412469D01*
X54282918Y-92410878D01*
X54284862Y-92409194D01*
X54286723Y-92407420D01*
X54288497Y-92405559D01*
X54290182Y-92403614D01*
X54291773Y-92401590D01*
X54293267Y-92399490D01*
X54294661Y-92397316D01*
X54295951Y-92395073D01*
X54297135Y-92392763D01*
X54298208Y-92390390D01*
X54299168Y-92387958D01*
X54300011Y-92385469D01*
X54300733Y-92382927D01*
X54301332Y-92380336D01*
X54301803Y-92377699D01*
X54302144Y-92375019D01*
X54302351Y-92372300D01*
X54302421Y-92369544D01*
X54302351Y-92366789D01*
X54302144Y-92364070D01*
X54301803Y-92361390D01*
X54301332Y-92358753D01*
X54300733Y-92356162D01*
X54300011Y-92353620D01*
X54299168Y-92351131D01*
X54298208Y-92348699D01*
X54297135Y-92346326D01*
X54295951Y-92344016D01*
X54294661Y-92341773D01*
X54293267Y-92339599D01*
X54291773Y-92337498D01*
X54290182Y-92335474D01*
X54288497Y-92333530D01*
X54286723Y-92331669D01*
X54284862Y-92329895D01*
X54282918Y-92328211D01*
X54280894Y-92326620D01*
X54278793Y-92325126D01*
X54276620Y-92323732D01*
X54274376Y-92322441D01*
X54272066Y-92321257D01*
X54269693Y-92320184D01*
X54267261Y-92319224D01*
X54264772Y-92318382D01*
X54262231Y-92317659D01*
X54259640Y-92317061D01*
X54257003Y-92316589D01*
X54254323Y-92316248D01*
X54251603Y-92316041D01*
X54248848Y-92315971D01*
X54246093Y-92316041D01*
X54243373Y-92316248D01*
X54240693Y-92316589D01*
X54238056Y-92317061D01*
X54235465Y-92317659D01*
X54232923Y-92318382D01*
X54230435Y-92319224D01*
X54228002Y-92320184D01*
X54225629Y-92321257D01*
X54223320Y-92322441D01*
X54221076Y-92323732D01*
X54218902Y-92325126D01*
X54216802Y-92326620D01*
X54214778Y-92328211D01*
X54212834Y-92329895D01*
X54210973Y-92331669D01*
X54209198Y-92333530D01*
X54207514Y-92335474D01*
X54205923Y-92337498D01*
X54204429Y-92339599D01*
X54203035Y-92341773D01*
X54201745Y-92344016D01*
X54200561Y-92346326D01*
X54199488Y-92348699D01*
X54198528Y-92351131D01*
X54197685Y-92353620D01*
X54196963Y-92356162D01*
X54196364Y-92358753D01*
X54195893Y-92361390D01*
X54195552Y-92364070D01*
X54195345Y-92366789D01*
X54195275Y-92369544D01*
X54062983Y-92369544D01*
X54063225Y-92359986D01*
X54063944Y-92350552D01*
X54065127Y-92341254D01*
X54066762Y-92332105D01*
X54068839Y-92323116D01*
X54071345Y-92314298D01*
X54074269Y-92305664D01*
X54077599Y-92297225D01*
X54081323Y-92288993D01*
X54085430Y-92280980D01*
X54089907Y-92273196D01*
X54094744Y-92265655D01*
X54099928Y-92258367D01*
X54105447Y-92251345D01*
X54111291Y-92244599D01*
X54117447Y-92238143D01*
X54123903Y-92231987D01*
X54130648Y-92226143D01*
X54137671Y-92220624D01*
X54144958Y-92215440D01*
X54152500Y-92210603D01*
X54160283Y-92206126D01*
X54168297Y-92202019D01*
X54176529Y-92198295D01*
X54184968Y-92194965D01*
X54193602Y-92192041D01*
X54202420Y-92189535D01*
X54211409Y-92187458D01*
X54220558Y-92185823D01*
X54229855Y-92184640D01*
X54239289Y-92183922D01*
X54248848Y-92183680D01*
X54258407Y-92183922D01*
G37*
G36*
X54746384Y-86204409D02*
G01*
X54758900Y-86205357D01*
X54769228Y-86206825D01*
X54779543Y-86209048D01*
X54789832Y-86212034D01*
X54800082Y-86215789D01*
X54810282Y-86220322D01*
X54820419Y-86225641D01*
X54830480Y-86231752D01*
X54840453Y-86238664D01*
X54850326Y-86246385D01*
X54860085Y-86254921D01*
X54869720Y-86264281D01*
X54879216Y-86274472D01*
X54888563Y-86285501D01*
X54897747Y-86297378D01*
X54906755Y-86310108D01*
X54915576Y-86323700D01*
X54925262Y-86339988D01*
X54934811Y-86357483D01*
X54944222Y-86376162D01*
X54953493Y-86396004D01*
X54962621Y-86416990D01*
X54971605Y-86439097D01*
X54980443Y-86462305D01*
X54989131Y-86486592D01*
X54997669Y-86511938D01*
X55006054Y-86538321D01*
X55022358Y-86594116D01*
X55038026Y-86653809D01*
X55053042Y-86717231D01*
X55094581Y-86929177D01*
X55131130Y-87169256D01*
X55190534Y-87712416D01*
X55233808Y-88303929D01*
X55263507Y-88901009D01*
X55292393Y-89940738D01*
X55297624Y-90489332D01*
X55306783Y-90490366D01*
X55315943Y-90491480D01*
X55366474Y-90499094D01*
X55417071Y-90509210D01*
X55467626Y-90521830D01*
X55518028Y-90536952D01*
X55568168Y-90554579D01*
X55617936Y-90574711D01*
X55667223Y-90597348D01*
X55715920Y-90622492D01*
X55763916Y-90650141D01*
X55811103Y-90680298D01*
X55857370Y-90712963D01*
X55902607Y-90748136D01*
X55946707Y-90785818D01*
X55989558Y-90826009D01*
X56031051Y-90868711D01*
X56071077Y-90913923D01*
X56109526Y-90961646D01*
X56146289Y-91011882D01*
X56181256Y-91064630D01*
X56214317Y-91119891D01*
X56245363Y-91177666D01*
X56274284Y-91237955D01*
X56300970Y-91300759D01*
X56325313Y-91366079D01*
X56347203Y-91433914D01*
X56366529Y-91504267D01*
X56383182Y-91577136D01*
X56397054Y-91652524D01*
X56408033Y-91730430D01*
X56416011Y-91810855D01*
X56420879Y-91893798D01*
X56422526Y-91979263D01*
X56420635Y-92081294D01*
X56415047Y-92180621D01*
X56405891Y-92277242D01*
X56393292Y-92371156D01*
X56377379Y-92462362D01*
X56358279Y-92550859D01*
X56336118Y-92636646D01*
X56311026Y-92719721D01*
X56252551Y-92877734D01*
X56183875Y-93024887D01*
X56106015Y-93161172D01*
X56019990Y-93286580D01*
X55926819Y-93401102D01*
X55827521Y-93504728D01*
X55723114Y-93597450D01*
X55614617Y-93679258D01*
X55503049Y-93750144D01*
X55389428Y-93810098D01*
X55274774Y-93859111D01*
X55160104Y-93897174D01*
X55390534Y-95405014D01*
X55424590Y-95404788D01*
X55464385Y-95405570D01*
X55509099Y-95407760D01*
X55557913Y-95411758D01*
X55583600Y-95414561D01*
X55610005Y-95417966D01*
X55637025Y-95422024D01*
X55664557Y-95426784D01*
X55692499Y-95432298D01*
X55720748Y-95438614D01*
X55749201Y-95445784D01*
X55777757Y-95453856D01*
X55822051Y-95468251D01*
X55865970Y-95485018D01*
X55909171Y-95504325D01*
X55951312Y-95526336D01*
X55992051Y-95551219D01*
X56031044Y-95579138D01*
X56049780Y-95594289D01*
X56067950Y-95610261D01*
X56085513Y-95627075D01*
X56102426Y-95644753D01*
X56118645Y-95663314D01*
X56134128Y-95682780D01*
X56148832Y-95703171D01*
X56162715Y-95724508D01*
X56175733Y-95746812D01*
X56187844Y-95770103D01*
X56199005Y-95794403D01*
X56209172Y-95819732D01*
X56218304Y-95846110D01*
X56226357Y-95873560D01*
X56233289Y-95902100D01*
X56239056Y-95931753D01*
X56243617Y-95962539D01*
X56246927Y-95994478D01*
X56248945Y-96027591D01*
X56249627Y-96061900D01*
X56248485Y-96130000D01*
X56245127Y-96195003D01*
X56239649Y-96256981D01*
X56232148Y-96316008D01*
X56222723Y-96372156D01*
X56211471Y-96425500D01*
X56198490Y-96476110D01*
X56183878Y-96524062D01*
X56167731Y-96569427D01*
X56150148Y-96612279D01*
X56131227Y-96652691D01*
X56111064Y-96690736D01*
X56089759Y-96726486D01*
X56067407Y-96760016D01*
X56044107Y-96791397D01*
X56019957Y-96820704D01*
X56000892Y-96841846D01*
X55981396Y-96861864D01*
X55961507Y-96880786D01*
X55941262Y-96898643D01*
X55899861Y-96931280D01*
X55857497Y-96960012D01*
X55814476Y-96985078D01*
X55771102Y-97006714D01*
X55727681Y-97025161D01*
X55684517Y-97040654D01*
X55641916Y-97053434D01*
X55600182Y-97063737D01*
X55559620Y-97071802D01*
X55520536Y-97077867D01*
X55483234Y-97082169D01*
X55448020Y-97084948D01*
X55415198Y-97086440D01*
X55385073Y-97086885D01*
X55350345Y-97086091D01*
X55314281Y-97083810D01*
X55277181Y-97080194D01*
X55239345Y-97075398D01*
X55162662Y-97062871D01*
X55086631Y-97047452D01*
X55013649Y-97030361D01*
X54946114Y-97012822D01*
X54886423Y-96996056D01*
X54836974Y-96981285D01*
X54830173Y-97001283D01*
X54823012Y-97020570D01*
X54815502Y-97039160D01*
X54807651Y-97057067D01*
X54799470Y-97074306D01*
X54790967Y-97090891D01*
X54782152Y-97106838D01*
X54773035Y-97122160D01*
X54763626Y-97136872D01*
X54753934Y-97150989D01*
X54743968Y-97164526D01*
X54733739Y-97177497D01*
X54723255Y-97189917D01*
X54712526Y-97201800D01*
X54701562Y-97213161D01*
X54690373Y-97224014D01*
X54673587Y-97239034D01*
X54656315Y-97253079D01*
X54638575Y-97266185D01*
X54620387Y-97278388D01*
X54601770Y-97289726D01*
X54582744Y-97300234D01*
X54563327Y-97309948D01*
X54543538Y-97318906D01*
X54523398Y-97327143D01*
X54502926Y-97334696D01*
X54482140Y-97341601D01*
X54461060Y-97347895D01*
X54439705Y-97353614D01*
X54418096Y-97358793D01*
X54396250Y-97363471D01*
X54374187Y-97367682D01*
X54333953Y-97374218D01*
X54293219Y-97379637D01*
X54252140Y-97384230D01*
X54210867Y-97388289D01*
X54128352Y-97395967D01*
X54087415Y-97400168D01*
X54046897Y-97404999D01*
X53977964Y-97412301D01*
X53903041Y-97417163D01*
X53822985Y-97419675D01*
X53738649Y-97419928D01*
X53650889Y-97418011D01*
X53560561Y-97414015D01*
X53375621Y-97400150D01*
X53190670Y-97379056D01*
X53012552Y-97351455D01*
X52928193Y-97335441D01*
X52848107Y-97318072D01*
X52773151Y-97299438D01*
X52704179Y-97279629D01*
X52661678Y-97265652D01*
X52641565Y-97258422D01*
X52622237Y-97251048D01*
X52603717Y-97243540D01*
X52586026Y-97235910D01*
X52569185Y-97228171D01*
X52553216Y-97220334D01*
X52538139Y-97212410D01*
X52523976Y-97204412D01*
X52510748Y-97196351D01*
X52498477Y-97188238D01*
X52487184Y-97180086D01*
X52476891Y-97171905D01*
X52467618Y-97163709D01*
X52459386Y-97155508D01*
X52453984Y-97149514D01*
X52448994Y-97143471D01*
X52444410Y-97137386D01*
X52440226Y-97131261D01*
X52436435Y-97125102D01*
X52433033Y-97118912D01*
X52430014Y-97112697D01*
X52427370Y-97106460D01*
X52425097Y-97100205D01*
X52423189Y-97093938D01*
X52421639Y-97087663D01*
X52420442Y-97081383D01*
X52419592Y-97075103D01*
X52419083Y-97068828D01*
X52418908Y-97062562D01*
X52418998Y-97058955D01*
X52551387Y-97058955D01*
X52553264Y-97060887D01*
X52556051Y-97063675D01*
X52559599Y-97067108D01*
X52563759Y-97070975D01*
X52566023Y-97073006D01*
X52568384Y-97075066D01*
X52570824Y-97077129D01*
X52573325Y-97079169D01*
X52575867Y-97081159D01*
X52578433Y-97083073D01*
X52581004Y-97084885D01*
X52583561Y-97086568D01*
X52590860Y-97091032D01*
X52598555Y-97095454D01*
X52606639Y-97099833D01*
X52615103Y-97104171D01*
X52623939Y-97108468D01*
X52633138Y-97112725D01*
X52652596Y-97121123D01*
X52673411Y-97129370D01*
X52695518Y-97137474D01*
X52718852Y-97145440D01*
X52743348Y-97153274D01*
X52809432Y-97172258D01*
X52881249Y-97190125D01*
X52957979Y-97206787D01*
X53038803Y-97222157D01*
X53209457Y-97248670D01*
X53386656Y-97268958D01*
X53563845Y-97282321D01*
X53650387Y-97286185D01*
X53734469Y-97288053D01*
X53815271Y-97287839D01*
X53891974Y-97285454D01*
X53963758Y-97280810D01*
X54029805Y-97273819D01*
X54069535Y-97269090D01*
X54109677Y-97264998D01*
X54190596Y-97257557D01*
X54231071Y-97253625D01*
X54271354Y-97249164D01*
X54311296Y-97243881D01*
X54350745Y-97237486D01*
X54385221Y-97230632D01*
X54402223Y-97226704D01*
X54419042Y-97222394D01*
X54435659Y-97217665D01*
X54452057Y-97212480D01*
X54468217Y-97206803D01*
X54484120Y-97200597D01*
X54499747Y-97193827D01*
X54515079Y-97186455D01*
X54530098Y-97178445D01*
X54544786Y-97169760D01*
X54559122Y-97160365D01*
X54573090Y-97150222D01*
X54586670Y-97139294D01*
X54599844Y-97127547D01*
X54617358Y-97109897D01*
X54633964Y-97090617D01*
X54649636Y-97069634D01*
X54664349Y-97046873D01*
X54678078Y-97022260D01*
X54690797Y-96995721D01*
X54702483Y-96967183D01*
X54713108Y-96936571D01*
X54722649Y-96903812D01*
X54731081Y-96868831D01*
X54738377Y-96831555D01*
X54744513Y-96791910D01*
X54749464Y-96749822D01*
X54753204Y-96705216D01*
X54755709Y-96658020D01*
X54756953Y-96608158D01*
X54756748Y-96577169D01*
X54755415Y-96547222D01*
X54752988Y-96518300D01*
X54749504Y-96490383D01*
X54745000Y-96463456D01*
X54739512Y-96437500D01*
X54733075Y-96412497D01*
X54725727Y-96388430D01*
X54717502Y-96365280D01*
X54708439Y-96343032D01*
X54698571Y-96321665D01*
X54687937Y-96301164D01*
X54676572Y-96281509D01*
X54664512Y-96262685D01*
X54638453Y-96227452D01*
X54610049Y-96195325D01*
X54579591Y-96166162D01*
X54547367Y-96139821D01*
X54513668Y-96116160D01*
X54478783Y-96095037D01*
X54443002Y-96076312D01*
X54406615Y-96059842D01*
X54369910Y-96045485D01*
X54331573Y-96032558D01*
X54293515Y-96021536D01*
X54256038Y-96012270D01*
X54219447Y-96004613D01*
X54184042Y-95998417D01*
X54150127Y-95993535D01*
X54087980Y-95987122D01*
X54035427Y-95984190D01*
X53994890Y-95983559D01*
X53959553Y-95984472D01*
X53956188Y-95984607D01*
X53952856Y-95984573D01*
X53949560Y-95984376D01*
X53946306Y-95984017D01*
X53943096Y-95983501D01*
X53939936Y-95982832D01*
X53936831Y-95982014D01*
X53933783Y-95981049D01*
X53930798Y-95979943D01*
X53927879Y-95978698D01*
X53925032Y-95977318D01*
X53922261Y-95975807D01*
X53919569Y-95974169D01*
X53916961Y-95972407D01*
X53914442Y-95970526D01*
X53912015Y-95968528D01*
X53909685Y-95966418D01*
X53907457Y-95964200D01*
X53905335Y-95961876D01*
X53903322Y-95959452D01*
X53901424Y-95956930D01*
X53899645Y-95954314D01*
X53897988Y-95951608D01*
X53896459Y-95948816D01*
X53895061Y-95945941D01*
X53893799Y-95942988D01*
X53892677Y-95939959D01*
X53891700Y-95936859D01*
X53890871Y-95933691D01*
X53890196Y-95930460D01*
X53889678Y-95927168D01*
X53889322Y-95923819D01*
X53735377Y-94027075D01*
X53735188Y-94023678D01*
X53735171Y-94020311D01*
X53735323Y-94016979D01*
X53735640Y-94013687D01*
X53736118Y-94010438D01*
X53736753Y-94007239D01*
X53737541Y-94004092D01*
X53738480Y-94001003D01*
X53739564Y-93997975D01*
X53740790Y-93995015D01*
X53742154Y-93992125D01*
X53743653Y-93989310D01*
X53745282Y-93986576D01*
X53747038Y-93983926D01*
X53748917Y-93981365D01*
X53750914Y-93978898D01*
X53753027Y-93976528D01*
X53755252Y-93974261D01*
X53757584Y-93972101D01*
X53760020Y-93970053D01*
X53762556Y-93968120D01*
X53765188Y-93966308D01*
X53767912Y-93964620D01*
X53770725Y-93963062D01*
X53773623Y-93961638D01*
X53776601Y-93960352D01*
X53779656Y-93959210D01*
X53782785Y-93958214D01*
X53785983Y-93957371D01*
X53789247Y-93956683D01*
X53792572Y-93956157D01*
X53795956Y-93955796D01*
X53799353Y-93955607D01*
X53802720Y-93955590D01*
X53806052Y-93955742D01*
X53809344Y-93956059D01*
X53812592Y-93956537D01*
X53815792Y-93957172D01*
X53818939Y-93957961D01*
X53822028Y-93958899D01*
X53825055Y-93959983D01*
X53828016Y-93961209D01*
X53830906Y-93962573D01*
X53833720Y-93964072D01*
X53836454Y-93965701D01*
X53839104Y-93967457D01*
X53841665Y-93969335D01*
X53844132Y-93971333D01*
X53846502Y-93973446D01*
X53848769Y-93975670D01*
X53850929Y-93978003D01*
X53852977Y-93980438D01*
X53854910Y-93982974D01*
X53856723Y-93985606D01*
X53858410Y-93988331D01*
X53859968Y-93991144D01*
X53861392Y-93994041D01*
X53862678Y-93997020D01*
X53863821Y-94000075D01*
X53864816Y-94003204D01*
X53865660Y-94006402D01*
X53866347Y-94009666D01*
X53866873Y-94012991D01*
X53867234Y-94016375D01*
X54016174Y-95851524D01*
X54051384Y-95852592D01*
X54092476Y-95855009D01*
X54138600Y-95859192D01*
X54188909Y-95865556D01*
X54215369Y-95869686D01*
X54242556Y-95874517D01*
X54270367Y-95880102D01*
X54298694Y-95886491D01*
X54327431Y-95893738D01*
X54356474Y-95901894D01*
X54385715Y-95911011D01*
X54415049Y-95921141D01*
X54459985Y-95938712D01*
X54504543Y-95958866D01*
X54548364Y-95981776D01*
X54591094Y-96007618D01*
X54632376Y-96036565D01*
X54652363Y-96052258D01*
X54671855Y-96068792D01*
X54690807Y-96086189D01*
X54709176Y-96104472D01*
X54726915Y-96123661D01*
X54743982Y-96143779D01*
X54760331Y-96164847D01*
X54775918Y-96186888D01*
X54790698Y-96209923D01*
X54804628Y-96233973D01*
X54817662Y-96259061D01*
X54829757Y-96285208D01*
X54840867Y-96312436D01*
X54850949Y-96340766D01*
X54859958Y-96370222D01*
X54867849Y-96400823D01*
X54874577Y-96432593D01*
X54880100Y-96465553D01*
X54884371Y-96499724D01*
X54887347Y-96535128D01*
X54888983Y-96571788D01*
X54889234Y-96609724D01*
X54888541Y-96643672D01*
X54887280Y-96676566D01*
X54885462Y-96708425D01*
X54883099Y-96739266D01*
X54880205Y-96769107D01*
X54876791Y-96797967D01*
X54872868Y-96825863D01*
X54868449Y-96852813D01*
X54913569Y-96866612D01*
X54969010Y-96882566D01*
X55032390Y-96899444D01*
X55101329Y-96916014D01*
X55173447Y-96931046D01*
X55209955Y-96937600D01*
X55246364Y-96943307D01*
X55282379Y-96948014D01*
X55317700Y-96951567D01*
X55352031Y-96953812D01*
X55385073Y-96954594D01*
X55410408Y-96954256D01*
X55438036Y-96953101D01*
X55467699Y-96950921D01*
X55499136Y-96947507D01*
X55532087Y-96942648D01*
X55566291Y-96936136D01*
X55601488Y-96927761D01*
X55637419Y-96917314D01*
X55673822Y-96904585D01*
X55710438Y-96889365D01*
X55747007Y-96871445D01*
X55783268Y-96850616D01*
X55801201Y-96839045D01*
X55818961Y-96826668D01*
X55836513Y-96813458D01*
X55853825Y-96799391D01*
X55870866Y-96784439D01*
X55887602Y-96768577D01*
X55904000Y-96751777D01*
X55920029Y-96734015D01*
X55941304Y-96708104D01*
X55961713Y-96680325D01*
X55981184Y-96650618D01*
X55999650Y-96618923D01*
X56017039Y-96585182D01*
X56033283Y-96549334D01*
X56048310Y-96511321D01*
X56062052Y-96471082D01*
X56074439Y-96428558D01*
X56085401Y-96383689D01*
X56094868Y-96336415D01*
X56102770Y-96286678D01*
X56109037Y-96234418D01*
X56113601Y-96179574D01*
X56116390Y-96122088D01*
X56117335Y-96061900D01*
X56116786Y-96034640D01*
X56115162Y-96008341D01*
X56112498Y-95982985D01*
X56108828Y-95958554D01*
X56104189Y-95935033D01*
X56098615Y-95912402D01*
X56092140Y-95890647D01*
X56084800Y-95869748D01*
X56076629Y-95849689D01*
X56067663Y-95830453D01*
X56057937Y-95812023D01*
X56047484Y-95794381D01*
X56036342Y-95777510D01*
X56024543Y-95761393D01*
X56012124Y-95746012D01*
X55999119Y-95731352D01*
X55985563Y-95717394D01*
X55971491Y-95704120D01*
X55941939Y-95679561D01*
X55910742Y-95657536D01*
X55878180Y-95637908D01*
X55844532Y-95620539D01*
X55810078Y-95605292D01*
X55775097Y-95592029D01*
X55739870Y-95580613D01*
X55702464Y-95570313D01*
X55665351Y-95561710D01*
X55628823Y-95554662D01*
X55593174Y-95549027D01*
X55558695Y-95544661D01*
X55525680Y-95541423D01*
X55465209Y-95537758D01*
X55414103Y-95536892D01*
X55374700Y-95537684D01*
X55340370Y-95539687D01*
X55337108Y-95539915D01*
X55333872Y-95539984D01*
X55330664Y-95539897D01*
X55327489Y-95539656D01*
X55324351Y-95539265D01*
X55321254Y-95538728D01*
X55318202Y-95538047D01*
X55315200Y-95537226D01*
X55312251Y-95536267D01*
X55309361Y-95535175D01*
X55306532Y-95533952D01*
X55303769Y-95532602D01*
X55301076Y-95531128D01*
X55298458Y-95529533D01*
X55295918Y-95527820D01*
X55293460Y-95525993D01*
X55291090Y-95524054D01*
X55288810Y-95522008D01*
X55286625Y-95519857D01*
X55284539Y-95517604D01*
X55282557Y-95515253D01*
X55280682Y-95512807D01*
X55278919Y-95510269D01*
X55277271Y-95507642D01*
X55275743Y-95504930D01*
X55274339Y-95502136D01*
X55273064Y-95499263D01*
X55271920Y-95496315D01*
X55270913Y-95493293D01*
X55270047Y-95490203D01*
X55269325Y-95487047D01*
X55268752Y-95483828D01*
X55030860Y-93927157D01*
X55005154Y-93931473D01*
X54979574Y-93935214D01*
X54954133Y-93938379D01*
X54928842Y-93940968D01*
X54903714Y-93942982D01*
X54878761Y-93944421D01*
X54853995Y-93945284D01*
X54829428Y-93945572D01*
X54793797Y-93944861D01*
X54754946Y-93942581D01*
X54713160Y-93938510D01*
X54668725Y-93932426D01*
X54621926Y-93924107D01*
X54573049Y-93913331D01*
X54522381Y-93899876D01*
X54470205Y-93883520D01*
X54416811Y-93864042D01*
X54362480Y-93841220D01*
X54307501Y-93814831D01*
X54252157Y-93784654D01*
X54196736Y-93750467D01*
X54141523Y-93712048D01*
X54086804Y-93669175D01*
X54059719Y-93645999D01*
X54032864Y-93621626D01*
X53981252Y-93570505D01*
X53930862Y-93514434D01*
X53881984Y-93453195D01*
X53834909Y-93386568D01*
X53789929Y-93314335D01*
X53747334Y-93236275D01*
X53707415Y-93152171D01*
X53670463Y-93061801D01*
X53636769Y-92964948D01*
X53606624Y-92861392D01*
X53580318Y-92750914D01*
X53558143Y-92633293D01*
X53540390Y-92508312D01*
X53527348Y-92375751D01*
X53519310Y-92235391D01*
X53516566Y-92087012D01*
X53516652Y-92083610D01*
X53516908Y-92080252D01*
X53517329Y-92076943D01*
X53517911Y-92073687D01*
X53518650Y-92070487D01*
X53519542Y-92067349D01*
X53520583Y-92064276D01*
X53521768Y-92061273D01*
X53523094Y-92058343D01*
X53524555Y-92055491D01*
X53526149Y-92052721D01*
X53527870Y-92050037D01*
X53529716Y-92047444D01*
X53531680Y-92044945D01*
X53533760Y-92042544D01*
X53535951Y-92040247D01*
X53538249Y-92038056D01*
X53540649Y-92035977D01*
X53543148Y-92034013D01*
X53545742Y-92032168D01*
X53548426Y-92030447D01*
X53551196Y-92028854D01*
X53554048Y-92027392D01*
X53556977Y-92026067D01*
X53559981Y-92024882D01*
X53563053Y-92023842D01*
X53566191Y-92022950D01*
X53569390Y-92022211D01*
X53572645Y-92021629D01*
X53575954Y-92021208D01*
X53579311Y-92020953D01*
X53582712Y-92020866D01*
X53586114Y-92020953D01*
X53589472Y-92021208D01*
X53592781Y-92021629D01*
X53596037Y-92022211D01*
X53599236Y-92022950D01*
X53602374Y-92023842D01*
X53605447Y-92024882D01*
X53608451Y-92026067D01*
X53611380Y-92027392D01*
X53614232Y-92028854D01*
X53617002Y-92030447D01*
X53619686Y-92032168D01*
X53622280Y-92034013D01*
X53624779Y-92035977D01*
X53627179Y-92038056D01*
X53629477Y-92040247D01*
X53631667Y-92042544D01*
X53633747Y-92044945D01*
X53635711Y-92047444D01*
X53637556Y-92050037D01*
X53639277Y-92052721D01*
X53640870Y-92055491D01*
X53642332Y-92058343D01*
X53643657Y-92061273D01*
X53644842Y-92064276D01*
X53645882Y-92067349D01*
X53646774Y-92070487D01*
X53647513Y-92073687D01*
X53648095Y-92076943D01*
X53648516Y-92080252D01*
X53648771Y-92083610D01*
X53648858Y-92087012D01*
X53651328Y-92225804D01*
X53658576Y-92357155D01*
X53670353Y-92481262D01*
X53686413Y-92598322D01*
X53706508Y-92708532D01*
X53730391Y-92812089D01*
X53757816Y-92909188D01*
X53788534Y-93000027D01*
X53822299Y-93084802D01*
X53858864Y-93163710D01*
X53897981Y-93236948D01*
X53939403Y-93304713D01*
X53982884Y-93367201D01*
X54028176Y-93424608D01*
X54075031Y-93477133D01*
X54123203Y-93524970D01*
X54171048Y-93567160D01*
X54219575Y-93605222D01*
X54268534Y-93639349D01*
X54317672Y-93669736D01*
X54366736Y-93696577D01*
X54415474Y-93720066D01*
X54463633Y-93740396D01*
X54510962Y-93757763D01*
X54557209Y-93772360D01*
X54602121Y-93784381D01*
X54645445Y-93794020D01*
X54686930Y-93801471D01*
X54726323Y-93806929D01*
X54763372Y-93810587D01*
X54797824Y-93812639D01*
X54829428Y-93813280D01*
X54888702Y-93811457D01*
X54949008Y-93805992D01*
X55010154Y-93796890D01*
X55071950Y-93784159D01*
X55134204Y-93767804D01*
X55196725Y-93747832D01*
X55259323Y-93724249D01*
X55321806Y-93697061D01*
X55383983Y-93666274D01*
X55445663Y-93631895D01*
X55506655Y-93593929D01*
X55566768Y-93552384D01*
X55625811Y-93507265D01*
X55683593Y-93458578D01*
X55739923Y-93406330D01*
X55794610Y-93350527D01*
X55847463Y-93291175D01*
X55898290Y-93228280D01*
X55946901Y-93161849D01*
X55993105Y-93091888D01*
X56036710Y-93018403D01*
X56077526Y-92941400D01*
X56115361Y-92860885D01*
X56150025Y-92776865D01*
X56181327Y-92689346D01*
X56209074Y-92598335D01*
X56233077Y-92503836D01*
X56253144Y-92405858D01*
X56269084Y-92304405D01*
X56280707Y-92199484D01*
X56287820Y-92091101D01*
X56290234Y-91979263D01*
X56288776Y-91901809D01*
X56284464Y-91826590D01*
X56277393Y-91753612D01*
X56267659Y-91682873D01*
X56255357Y-91614378D01*
X56240581Y-91548129D01*
X56223427Y-91484130D01*
X56203989Y-91422382D01*
X56182362Y-91362888D01*
X56158642Y-91305652D01*
X56132924Y-91250675D01*
X56105301Y-91197959D01*
X56075871Y-91147509D01*
X56044726Y-91099326D01*
X55977677Y-91009772D01*
X55904912Y-90929320D01*
X55827194Y-90857989D01*
X55745280Y-90795801D01*
X55659932Y-90742776D01*
X55571909Y-90698936D01*
X55481972Y-90664302D01*
X55390879Y-90638895D01*
X55299391Y-90622734D01*
X55261496Y-90618754D01*
X55223746Y-90616382D01*
X55186200Y-90615624D01*
X55148919Y-90616482D01*
X55111963Y-90618961D01*
X55075391Y-90623063D01*
X55039265Y-90628792D01*
X55003643Y-90636153D01*
X54968585Y-90645148D01*
X54934153Y-90655781D01*
X54900405Y-90668056D01*
X54867403Y-90681976D01*
X54835205Y-90697545D01*
X54803872Y-90714766D01*
X54773465Y-90733643D01*
X54744042Y-90754180D01*
X54741255Y-90756132D01*
X54738403Y-90757922D01*
X54735492Y-90759550D01*
X54732527Y-90761017D01*
X54729515Y-90762324D01*
X54726462Y-90763472D01*
X54723372Y-90764461D01*
X54720252Y-90765293D01*
X54717109Y-90765969D01*
X54713946Y-90766489D01*
X54710771Y-90766854D01*
X54707590Y-90767065D01*
X54704408Y-90767123D01*
X54701230Y-90767029D01*
X54698063Y-90766783D01*
X54694913Y-90766388D01*
X54691786Y-90765842D01*
X54688686Y-90765148D01*
X54685621Y-90764306D01*
X54682596Y-90763317D01*
X54679617Y-90762182D01*
X54676689Y-90760902D01*
X54673818Y-90759478D01*
X54671011Y-90757910D01*
X54668273Y-90756199D01*
X54665610Y-90754347D01*
X54663028Y-90752353D01*
X54660532Y-90750220D01*
X54658129Y-90747948D01*
X54655824Y-90745537D01*
X54653623Y-90742989D01*
X54651532Y-90740305D01*
X54649579Y-90737518D01*
X54647790Y-90734666D01*
X54646162Y-90731755D01*
X54644695Y-90728791D01*
X54643388Y-90725779D01*
X54642240Y-90722725D01*
X54641251Y-90719635D01*
X54640419Y-90716516D01*
X54639743Y-90713372D01*
X54639223Y-90710210D01*
X54638858Y-90707035D01*
X54638647Y-90703853D01*
X54638589Y-90700671D01*
X54638683Y-90697493D01*
X54638928Y-90694327D01*
X54639324Y-90691177D01*
X54639870Y-90688049D01*
X54640564Y-90684950D01*
X54641406Y-90681885D01*
X54642395Y-90678860D01*
X54643530Y-90675880D01*
X54644810Y-90672952D01*
X54646234Y-90670082D01*
X54647802Y-90667275D01*
X54649513Y-90664537D01*
X54651365Y-90661874D01*
X54653359Y-90659292D01*
X54655492Y-90656796D01*
X54657764Y-90654393D01*
X54660175Y-90652088D01*
X54662723Y-90649887D01*
X54665407Y-90647796D01*
X54692447Y-90628671D01*
X54720204Y-90610723D01*
X54748644Y-90593951D01*
X54777735Y-90578359D01*
X54807442Y-90563946D01*
X54837732Y-90550714D01*
X54868572Y-90538664D01*
X54899929Y-90527797D01*
X54931767Y-90518114D01*
X54964056Y-90509617D01*
X54996759Y-90502306D01*
X55029846Y-90496182D01*
X55063280Y-90491247D01*
X55097031Y-90487502D01*
X55131062Y-90484948D01*
X55165343Y-90483585D01*
X55160123Y-89926682D01*
X55150000Y-89450000D01*
X55131525Y-88896564D01*
X55102192Y-88307924D01*
X55059494Y-87725630D01*
X55032350Y-87449848D01*
X55000925Y-87191233D01*
X54964906Y-86954980D01*
X54923979Y-86746282D01*
X54910645Y-86689530D01*
X54896883Y-86636059D01*
X54882655Y-86586037D01*
X54867926Y-86539634D01*
X54852657Y-86497019D01*
X54836812Y-86458359D01*
X54828662Y-86440566D01*
X54820354Y-86423824D01*
X54811883Y-86408156D01*
X54803245Y-86393582D01*
X54796146Y-86382352D01*
X54789220Y-86371998D01*
X54785787Y-86367197D01*
X54782355Y-86362673D01*
X54778909Y-86358446D01*
X54775436Y-86354533D01*
X54771922Y-86350956D01*
X54768351Y-86347733D01*
X54764710Y-86344883D01*
X54760986Y-86342425D01*
X54757163Y-86340380D01*
X54755210Y-86339517D01*
X54753227Y-86338765D01*
X54751213Y-86338126D01*
X54749165Y-86337602D01*
X54747082Y-86337195D01*
X54744961Y-86336908D01*
X54741034Y-86336605D01*
X54737134Y-86336527D01*
X54733259Y-86336667D01*
X54729409Y-86337022D01*
X54725582Y-86337584D01*
X54721777Y-86338349D01*
X54717993Y-86339312D01*
X54714229Y-86340467D01*
X54710483Y-86341808D01*
X54706755Y-86343332D01*
X54703042Y-86345031D01*
X54699345Y-86346900D01*
X54695661Y-86348936D01*
X54691989Y-86351131D01*
X54688329Y-86353480D01*
X54684680Y-86355979D01*
X54679459Y-86359808D01*
X54674279Y-86363899D01*
X54669136Y-86368247D01*
X54664029Y-86372849D01*
X54658955Y-86377701D01*
X54653914Y-86382800D01*
X54648902Y-86388140D01*
X54643918Y-86393720D01*
X54638960Y-86399533D01*
X54634025Y-86405578D01*
X54629112Y-86411850D01*
X54624220Y-86418344D01*
X54619345Y-86425058D01*
X54614486Y-86431988D01*
X54609641Y-86439129D01*
X54604807Y-86446477D01*
X54588007Y-86473780D01*
X54571502Y-86503316D01*
X54555286Y-86535019D01*
X54539354Y-86568819D01*
X54523700Y-86604649D01*
X54508321Y-86642438D01*
X54493210Y-86682120D01*
X54478363Y-86723625D01*
X54463774Y-86766884D01*
X54449439Y-86811830D01*
X54421507Y-86906507D01*
X54394529Y-87007106D01*
X54368461Y-87113079D01*
X54319149Y-87338717D01*
X54273614Y-87579226D01*
X54193542Y-88088614D01*
X54127589Y-88608759D01*
X54075100Y-89107178D01*
X54007884Y-89908893D01*
X53986646Y-90233882D01*
X53986390Y-90237099D01*
X53985983Y-90240269D01*
X53985430Y-90243389D01*
X53984734Y-90246455D01*
X53983899Y-90249465D01*
X53982928Y-90252414D01*
X53981824Y-90255299D01*
X53980592Y-90258117D01*
X53979236Y-90260863D01*
X53977758Y-90263536D01*
X53976162Y-90266130D01*
X53974453Y-90268642D01*
X53972633Y-90271070D01*
X53970707Y-90273408D01*
X53968678Y-90275655D01*
X53966549Y-90277806D01*
X53964325Y-90279858D01*
X53962008Y-90281808D01*
X53959604Y-90283651D01*
X53957114Y-90285385D01*
X53954543Y-90287005D01*
X53951895Y-90288509D01*
X53949173Y-90289892D01*
X53946380Y-90291152D01*
X53943521Y-90292285D01*
X53940599Y-90293287D01*
X53937618Y-90294154D01*
X53934581Y-90294884D01*
X53931492Y-90295472D01*
X53928355Y-90295916D01*
X53925173Y-90296212D01*
X53921949Y-90296355D01*
X53918724Y-90296344D01*
X53915534Y-90296179D01*
X53912382Y-90295864D01*
X53909272Y-90295403D01*
X53906209Y-90294798D01*
X53903195Y-90294053D01*
X53900235Y-90293172D01*
X53897333Y-90292158D01*
X53894492Y-90291013D01*
X53891716Y-90289742D01*
X53889009Y-90288348D01*
X53886374Y-90286835D01*
X53883816Y-90285205D01*
X53881338Y-90283461D01*
X53878944Y-90281609D01*
X53876637Y-90279649D01*
X53874422Y-90277587D01*
X53872303Y-90275426D01*
X53870283Y-90273168D01*
X53868365Y-90270817D01*
X53866554Y-90268377D01*
X53864854Y-90265851D01*
X53863268Y-90263242D01*
X53861799Y-90260553D01*
X53860453Y-90257789D01*
X53859232Y-90254951D01*
X53858141Y-90252045D01*
X53857182Y-90249073D01*
X53856361Y-90246038D01*
X53855680Y-90242944D01*
X53855144Y-90239794D01*
X53854756Y-90236591D01*
X53812694Y-89829403D01*
X53699557Y-88858418D01*
X53622453Y-88278959D01*
X53534922Y-87699502D01*
X53439409Y-87167029D01*
X53389425Y-86933094D01*
X53338364Y-86728523D01*
X53323661Y-86676364D01*
X53308961Y-86627353D01*
X53294251Y-86581649D01*
X53279519Y-86539410D01*
X53264753Y-86500794D01*
X53249941Y-86465961D01*
X53235069Y-86435067D01*
X53227608Y-86421147D01*
X53220127Y-86408272D01*
X53218151Y-86405131D01*
X53216036Y-86401980D01*
X53213811Y-86398842D01*
X53211506Y-86395737D01*
X53206770Y-86389715D01*
X53202060Y-86384086D01*
X53197610Y-86379021D01*
X53193652Y-86374693D01*
X53188144Y-86368933D01*
X53185160Y-86369304D01*
X53182206Y-86369853D01*
X53179281Y-86370576D01*
X53176382Y-86371468D01*
X53173507Y-86372523D01*
X53170654Y-86373736D01*
X53167821Y-86375101D01*
X53165005Y-86376615D01*
X53162205Y-86378272D01*
X53159418Y-86380066D01*
X53156643Y-86381993D01*
X53153876Y-86384047D01*
X53151117Y-86386223D01*
X53148362Y-86388516D01*
X53145609Y-86390921D01*
X53142857Y-86393434D01*
X53138133Y-86397991D01*
X53133453Y-86402823D01*
X53128818Y-86407927D01*
X53124223Y-86413300D01*
X53119668Y-86418939D01*
X53115149Y-86424842D01*
X53110666Y-86431006D01*
X53106215Y-86437428D01*
X53101794Y-86444106D01*
X53097401Y-86451037D01*
X53093035Y-86458217D01*
X53088692Y-86465645D01*
X53084371Y-86473317D01*
X53080069Y-86481232D01*
X53075785Y-86489385D01*
X53071516Y-86497775D01*
X53056902Y-86528552D01*
X53042616Y-86561845D01*
X53028652Y-86597611D01*
X53015001Y-86635811D01*
X53001659Y-86676402D01*
X52988618Y-86719342D01*
X52975871Y-86764591D01*
X52963412Y-86812108D01*
X52939332Y-86913776D01*
X52916324Y-87024016D01*
X52894334Y-87142497D01*
X52873311Y-87268887D01*
X52808801Y-87754424D01*
X52754887Y-88314094D01*
X52674839Y-89606727D01*
X52625146Y-91048580D01*
X52597791Y-92541448D01*
X52578023Y-95287407D01*
X52551387Y-97058955D01*
X52418998Y-97058955D01*
X52419063Y-97056309D01*
X52437440Y-96342668D01*
X52446061Y-95285355D01*
X52466159Y-92534276D01*
X52493697Y-91037794D01*
X52543602Y-89592203D01*
X52623906Y-88296144D01*
X52677967Y-87735015D01*
X52742639Y-87248260D01*
X52768902Y-87092974D01*
X52796884Y-86949253D01*
X52826560Y-86817623D01*
X52857908Y-86698611D01*
X52890904Y-86592741D01*
X52908012Y-86544899D01*
X52925523Y-86500540D01*
X52943434Y-86459730D01*
X52961742Y-86422534D01*
X52980445Y-86389019D01*
X52999538Y-86359250D01*
X53010557Y-86344000D01*
X53021766Y-86329806D01*
X53033154Y-86316660D01*
X53044712Y-86304550D01*
X53056427Y-86293467D01*
X53068291Y-86283400D01*
X53080290Y-86274340D01*
X53092416Y-86266276D01*
X53104658Y-86259199D01*
X53117004Y-86253098D01*
X53129445Y-86247963D01*
X53141968Y-86243784D01*
X53154565Y-86240552D01*
X53167223Y-86238255D01*
X53179933Y-86236885D01*
X53192684Y-86236430D01*
X53199645Y-86236654D01*
X53206687Y-86237334D01*
X53213798Y-86238483D01*
X53220967Y-86240115D01*
X53228183Y-86242244D01*
X53235435Y-86244882D01*
X53242712Y-86248044D01*
X53250003Y-86251742D01*
X53257296Y-86255989D01*
X53264582Y-86260801D01*
X53271848Y-86266189D01*
X53279084Y-86272167D01*
X53286278Y-86278748D01*
X53293420Y-86285947D01*
X53300499Y-86293775D01*
X53307503Y-86302248D01*
X53317345Y-86315481D01*
X53327234Y-86330357D01*
X53337160Y-86346843D01*
X53347117Y-86364908D01*
X53357095Y-86384522D01*
X53367087Y-86405653D01*
X53377084Y-86428270D01*
X53387079Y-86452342D01*
X53397062Y-86477838D01*
X53407027Y-86504727D01*
X53416964Y-86532977D01*
X53426866Y-86562558D01*
X53436724Y-86593439D01*
X53446531Y-86625588D01*
X53465957Y-86693566D01*
X53533118Y-86969695D01*
X53598280Y-87293434D01*
X53660743Y-87651475D01*
X53719809Y-88030510D01*
X53774778Y-88417232D01*
X53824954Y-88798334D01*
X53908129Y-89490444D01*
X53975953Y-88781408D01*
X54021083Y-88390628D01*
X54074057Y-87994377D01*
X54135145Y-87606682D01*
X54204621Y-87241569D01*
X54242589Y-87071864D01*
X54282757Y-86913066D01*
X54325158Y-86766926D01*
X54369827Y-86635199D01*
X54392483Y-86576666D01*
X54415780Y-86521962D01*
X54439679Y-86471242D01*
X54451843Y-86447424D01*
X54464144Y-86424660D01*
X54476577Y-86402969D01*
X54489137Y-86382370D01*
X54501819Y-86362882D01*
X54514620Y-86344526D01*
X54527534Y-86327320D01*
X54540556Y-86311283D01*
X54553682Y-86296435D01*
X54566908Y-86282796D01*
X54578251Y-86272107D01*
X54589701Y-86262207D01*
X54601253Y-86253092D01*
X54612902Y-86244762D01*
X54624647Y-86237215D01*
X54636481Y-86230449D01*
X54648401Y-86224462D01*
X54660403Y-86219252D01*
X54672484Y-86214818D01*
X54684639Y-86211158D01*
X54696864Y-86208270D01*
X54709155Y-86206153D01*
X54721508Y-86204805D01*
X54733919Y-86204224D01*
X54746384Y-86204409D01*
G37*
G36*
X55752885Y-92020956D02*
G01*
X55756118Y-92021219D01*
X55759352Y-92021645D01*
X55762582Y-92022235D01*
X55765801Y-92022992D01*
X55769005Y-92023918D01*
X55772188Y-92025015D01*
X55775344Y-92026285D01*
X55778433Y-92027714D01*
X55781414Y-92029281D01*
X55784285Y-92030980D01*
X55787043Y-92032806D01*
X55789687Y-92034754D01*
X55792214Y-92036818D01*
X55794623Y-92038992D01*
X55796910Y-92041272D01*
X55799074Y-92043651D01*
X55801112Y-92046124D01*
X55803023Y-92048685D01*
X55804804Y-92051330D01*
X55806454Y-92054052D01*
X55807969Y-92056847D01*
X55809348Y-92059708D01*
X55810588Y-92062631D01*
X55811688Y-92065609D01*
X55812645Y-92068637D01*
X55813458Y-92071711D01*
X55814123Y-92074823D01*
X55814638Y-92077970D01*
X55815003Y-92081144D01*
X55815213Y-92084342D01*
X55815268Y-92087557D01*
X55815165Y-92090784D01*
X55814901Y-92094018D01*
X55814476Y-92097253D01*
X55813885Y-92100483D01*
X55813128Y-92103703D01*
X55812203Y-92106908D01*
X55811106Y-92110091D01*
X55809836Y-92113249D01*
X55572134Y-92663348D01*
X55600444Y-93036696D01*
X55600615Y-93040094D01*
X55600615Y-93043461D01*
X55600445Y-93046791D01*
X55600111Y-93050082D01*
X55599616Y-93053327D01*
X55598964Y-93056524D01*
X55598159Y-93059666D01*
X55597204Y-93062750D01*
X55596104Y-93065772D01*
X55594862Y-93068726D01*
X55593483Y-93071608D01*
X55591969Y-93074415D01*
X55590326Y-93077140D01*
X55588556Y-93079781D01*
X55586663Y-93082332D01*
X55584653Y-93084789D01*
X55582527Y-93087147D01*
X55580290Y-93089402D01*
X55577947Y-93091550D01*
X55575500Y-93093586D01*
X55572953Y-93095505D01*
X55570312Y-93097303D01*
X55567578Y-93098976D01*
X55564757Y-93100519D01*
X55561851Y-93101927D01*
X55558866Y-93103197D01*
X55555804Y-93104323D01*
X55552669Y-93105302D01*
X55549466Y-93106128D01*
X55546199Y-93106797D01*
X55542870Y-93107305D01*
X55539484Y-93107647D01*
X55536086Y-93107819D01*
X55532720Y-93107818D01*
X55529389Y-93107649D01*
X55526099Y-93107314D01*
X55522853Y-93106819D01*
X55519657Y-93106167D01*
X55516515Y-93105362D01*
X55513431Y-93104408D01*
X55510409Y-93103308D01*
X55507455Y-93102066D01*
X55504573Y-93100686D01*
X55501766Y-93099173D01*
X55499041Y-93097530D01*
X55496400Y-93095760D01*
X55493849Y-93093868D01*
X55491392Y-93091857D01*
X55489034Y-93089732D01*
X55486779Y-93087495D01*
X55484631Y-93085152D01*
X55482595Y-93082705D01*
X55480676Y-93080159D01*
X55478878Y-93077518D01*
X55477205Y-93074785D01*
X55475662Y-93071964D01*
X55474254Y-93069059D01*
X55472984Y-93066074D01*
X55471858Y-93063013D01*
X55470879Y-93059880D01*
X55470053Y-93056677D01*
X55469384Y-93053410D01*
X55468876Y-93050083D01*
X55468534Y-93046698D01*
X55441547Y-92690770D01*
X54986421Y-92411370D01*
X54983568Y-92409516D01*
X54980841Y-92407542D01*
X54978242Y-92405452D01*
X54975772Y-92403252D01*
X54973433Y-92400948D01*
X54971226Y-92398546D01*
X54969152Y-92396051D01*
X54967213Y-92393470D01*
X54965409Y-92390807D01*
X54963744Y-92388070D01*
X54962217Y-92385262D01*
X54960830Y-92382391D01*
X54959585Y-92379462D01*
X54958483Y-92376480D01*
X54957525Y-92373452D01*
X54956713Y-92370383D01*
X54956048Y-92367279D01*
X54955532Y-92364145D01*
X54955165Y-92360988D01*
X54954950Y-92357812D01*
X54954887Y-92354625D01*
X54954978Y-92351431D01*
X54955225Y-92348236D01*
X54955628Y-92345046D01*
X54956189Y-92341867D01*
X54956910Y-92338704D01*
X54957792Y-92335564D01*
X54958836Y-92332452D01*
X54960043Y-92329373D01*
X54961416Y-92326333D01*
X54962955Y-92323339D01*
X54964661Y-92320396D01*
X54966515Y-92317542D01*
X54968489Y-92314814D01*
X54970579Y-92312214D01*
X54972779Y-92309743D01*
X54975083Y-92307403D01*
X54977485Y-92305195D01*
X54979980Y-92303121D01*
X54982561Y-92301181D01*
X54985223Y-92299377D01*
X54987961Y-92297711D01*
X54990769Y-92296184D01*
X54993640Y-92294797D01*
X54996569Y-92293551D01*
X54999551Y-92292449D01*
X55002579Y-92291491D01*
X55005648Y-92290679D01*
X55008752Y-92290014D01*
X55011886Y-92289497D01*
X55015043Y-92289130D01*
X55018219Y-92288915D01*
X55021406Y-92288852D01*
X55024600Y-92288943D01*
X55027795Y-92289189D01*
X55030985Y-92289593D01*
X55034164Y-92290154D01*
X55037326Y-92290875D01*
X55040467Y-92291756D01*
X55043579Y-92292800D01*
X55046658Y-92294008D01*
X55049697Y-92295380D01*
X55052692Y-92296919D01*
X55055635Y-92298626D01*
X55474502Y-92555769D01*
X55688392Y-92060776D01*
X55689820Y-92057687D01*
X55691386Y-92054706D01*
X55693085Y-92051835D01*
X55694911Y-92049077D01*
X55696858Y-92046433D01*
X55698921Y-92043906D01*
X55701095Y-92041498D01*
X55703374Y-92039211D01*
X55705753Y-92037047D01*
X55708225Y-92035008D01*
X55710787Y-92033097D01*
X55713431Y-92031316D01*
X55716154Y-92029667D01*
X55718948Y-92028151D01*
X55721809Y-92026772D01*
X55724732Y-92025532D01*
X55727710Y-92024432D01*
X55730739Y-92023475D01*
X55733812Y-92022663D01*
X55736924Y-92021998D01*
X55740071Y-92021482D01*
X55743245Y-92021118D01*
X55746443Y-92020907D01*
X55749658Y-92020852D01*
X55752885Y-92020956D01*
G37*
D11*
X72479400Y-78095489D02*
X72479400Y-76952632D01*
X72479400Y-85095489D02*
X72479400Y-83952632D01*
X73050828Y-84524060D02*
X71907971Y-84524060D01*
D12*
X90514821Y-91178571D02*
X90571964Y-91007143D01*
X90571964Y-91007143D02*
X90629107Y-90950000D01*
X90629107Y-90950000D02*
X90743392Y-90892857D01*
X90743392Y-90892857D02*
X90914821Y-90892857D01*
X90914821Y-90892857D02*
X91029107Y-90950000D01*
X91029107Y-90950000D02*
X91086250Y-91007143D01*
X91086250Y-91007143D02*
X91143392Y-91121428D01*
X91143392Y-91121428D02*
X91143392Y-91578571D01*
X91143392Y-91578571D02*
X89943392Y-91578571D01*
X89943392Y-91578571D02*
X89943392Y-91178571D01*
X89943392Y-91178571D02*
X90000535Y-91064286D01*
X90000535Y-91064286D02*
X90057678Y-91007143D01*
X90057678Y-91007143D02*
X90171964Y-90950000D01*
X90171964Y-90950000D02*
X90286250Y-90950000D01*
X90286250Y-90950000D02*
X90400535Y-91007143D01*
X90400535Y-91007143D02*
X90457678Y-91064286D01*
X90457678Y-91064286D02*
X90514821Y-91178571D01*
X90514821Y-91178571D02*
X90514821Y-91578571D01*
X89943392Y-90150000D02*
X89943392Y-89921428D01*
X89943392Y-89921428D02*
X90000535Y-89807143D01*
X90000535Y-89807143D02*
X90114821Y-89692857D01*
X90114821Y-89692857D02*
X90343392Y-89635714D01*
X90343392Y-89635714D02*
X90743392Y-89635714D01*
X90743392Y-89635714D02*
X90971964Y-89692857D01*
X90971964Y-89692857D02*
X91086250Y-89807143D01*
X91086250Y-89807143D02*
X91143392Y-89921428D01*
X91143392Y-89921428D02*
X91143392Y-90150000D01*
X91143392Y-90150000D02*
X91086250Y-90264286D01*
X91086250Y-90264286D02*
X90971964Y-90378571D01*
X90971964Y-90378571D02*
X90743392Y-90435714D01*
X90743392Y-90435714D02*
X90343392Y-90435714D01*
X90343392Y-90435714D02*
X90114821Y-90378571D01*
X90114821Y-90378571D02*
X90000535Y-90264286D01*
X90000535Y-90264286D02*
X89943392Y-90150000D01*
X89943392Y-88892857D02*
X89943392Y-88664285D01*
X89943392Y-88664285D02*
X90000535Y-88550000D01*
X90000535Y-88550000D02*
X90114821Y-88435714D01*
X90114821Y-88435714D02*
X90343392Y-88378571D01*
X90343392Y-88378571D02*
X90743392Y-88378571D01*
X90743392Y-88378571D02*
X90971964Y-88435714D01*
X90971964Y-88435714D02*
X91086250Y-88550000D01*
X91086250Y-88550000D02*
X91143392Y-88664285D01*
X91143392Y-88664285D02*
X91143392Y-88892857D01*
X91143392Y-88892857D02*
X91086250Y-89007143D01*
X91086250Y-89007143D02*
X90971964Y-89121428D01*
X90971964Y-89121428D02*
X90743392Y-89178571D01*
X90743392Y-89178571D02*
X90343392Y-89178571D01*
X90343392Y-89178571D02*
X90114821Y-89121428D01*
X90114821Y-89121428D02*
X90000535Y-89007143D01*
X90000535Y-89007143D02*
X89943392Y-88892857D01*
X89943392Y-88035714D02*
X89943392Y-87350000D01*
X91143392Y-87692857D02*
X89943392Y-87692857D01*
X79043392Y-90207142D02*
X78471964Y-90607142D01*
X79043392Y-90892856D02*
X77843392Y-90892856D01*
X77843392Y-90892856D02*
X77843392Y-90435713D01*
X77843392Y-90435713D02*
X77900535Y-90321428D01*
X77900535Y-90321428D02*
X77957678Y-90264285D01*
X77957678Y-90264285D02*
X78071964Y-90207142D01*
X78071964Y-90207142D02*
X78243392Y-90207142D01*
X78243392Y-90207142D02*
X78357678Y-90264285D01*
X78357678Y-90264285D02*
X78414821Y-90321428D01*
X78414821Y-90321428D02*
X78471964Y-90435713D01*
X78471964Y-90435713D02*
X78471964Y-90892856D01*
X78986250Y-89749999D02*
X79043392Y-89578571D01*
X79043392Y-89578571D02*
X79043392Y-89292856D01*
X79043392Y-89292856D02*
X78986250Y-89178571D01*
X78986250Y-89178571D02*
X78929107Y-89121428D01*
X78929107Y-89121428D02*
X78814821Y-89064285D01*
X78814821Y-89064285D02*
X78700535Y-89064285D01*
X78700535Y-89064285D02*
X78586250Y-89121428D01*
X78586250Y-89121428D02*
X78529107Y-89178571D01*
X78529107Y-89178571D02*
X78471964Y-89292856D01*
X78471964Y-89292856D02*
X78414821Y-89521428D01*
X78414821Y-89521428D02*
X78357678Y-89635713D01*
X78357678Y-89635713D02*
X78300535Y-89692856D01*
X78300535Y-89692856D02*
X78186250Y-89749999D01*
X78186250Y-89749999D02*
X78071964Y-89749999D01*
X78071964Y-89749999D02*
X77957678Y-89692856D01*
X77957678Y-89692856D02*
X77900535Y-89635713D01*
X77900535Y-89635713D02*
X77843392Y-89521428D01*
X77843392Y-89521428D02*
X77843392Y-89235713D01*
X77843392Y-89235713D02*
X77900535Y-89064285D01*
X77843392Y-88721428D02*
X77843392Y-88035714D01*
X79043392Y-88378571D02*
X77843392Y-88378571D01*
D13*
%TO.C,C11*%
X87585281Y-62658496D02*
X87585281Y-62158496D01*
X87587414Y-63601270D02*
X87587414Y-63101270D01*
X87737681Y-62006070D02*
X88430086Y-62006070D01*
X88432194Y-63753696D02*
X87739764Y-63753696D01*
X88582461Y-62158496D02*
X88582461Y-62658496D01*
X88584544Y-63101270D02*
X88584544Y-63601270D01*
X87585281Y-62158496D02*
G75*
G02*
X87737681Y-62006096I152400J0D01*
G01*
X87739764Y-63753670D02*
G75*
G02*
X87587368Y-63601270I1J152397D01*
G01*
X88430086Y-62006096D02*
G75*
G02*
X88582486Y-62158496I0J-152400D01*
G01*
X88584569Y-63601270D02*
G75*
G02*
X88432169Y-63753667I-152394J-3D01*
G01*
%TO.C,R9*%
X92146469Y-63439395D02*
X92146469Y-64760605D01*
X92146469Y-64760605D02*
X93105346Y-64760605D01*
X93105346Y-63439395D02*
X92146469Y-63439395D01*
X93957772Y-63439395D02*
X94916649Y-63439395D01*
X94916649Y-63439395D02*
X94916649Y-64760605D01*
X94916649Y-64760605D02*
X93957772Y-64760605D01*
D14*
%TO.C,U2*%
X98088121Y-58156460D02*
X98187278Y-58186539D01*
X98278662Y-58235385D01*
X98358760Y-58301120D01*
X98424495Y-58381218D01*
X98473341Y-58472602D01*
X98503420Y-58571759D01*
X98513576Y-58674879D01*
X98503420Y-58777999D01*
X98473341Y-58877156D01*
X98424495Y-58968540D01*
X98358760Y-59048638D01*
X98278662Y-59114373D01*
X98187278Y-59163219D01*
X98088121Y-59193298D01*
X97985001Y-59203454D01*
X97881881Y-59193298D01*
X97782724Y-59163219D01*
X97691340Y-59114373D01*
X97611242Y-59048638D01*
X97545507Y-58968540D01*
X97496661Y-58877156D01*
X97466582Y-58777999D01*
X97456426Y-58674879D01*
X97466582Y-58571759D01*
X97496661Y-58472602D01*
X97545507Y-58381218D01*
X97611242Y-58301120D01*
X97691340Y-58235385D01*
X97782724Y-58186539D01*
X97881881Y-58156460D01*
X97985001Y-58146304D01*
X98088121Y-58156460D01*
G36*
X98088121Y-58156460D02*
G01*
X98187278Y-58186539D01*
X98278662Y-58235385D01*
X98358760Y-58301120D01*
X98424495Y-58381218D01*
X98473341Y-58472602D01*
X98503420Y-58571759D01*
X98513576Y-58674879D01*
X98503420Y-58777999D01*
X98473341Y-58877156D01*
X98424495Y-58968540D01*
X98358760Y-59048638D01*
X98278662Y-59114373D01*
X98187278Y-59163219D01*
X98088121Y-59193298D01*
X97985001Y-59203454D01*
X97881881Y-59193298D01*
X97782724Y-59163219D01*
X97691340Y-59114373D01*
X97611242Y-59048638D01*
X97545507Y-58968540D01*
X97496661Y-58877156D01*
X97466582Y-58777999D01*
X97456426Y-58674879D01*
X97466582Y-58571759D01*
X97496661Y-58472602D01*
X97545507Y-58381218D01*
X97611242Y-58301120D01*
X97691340Y-58235385D01*
X97782724Y-58186539D01*
X97881881Y-58156460D01*
X97985001Y-58146304D01*
X98088121Y-58156460D01*
G37*
D15*
X114002019Y-76918948D02*
X114002019Y-76071094D01*
X114002019Y-58198755D02*
X114002019Y-51391897D01*
X113985026Y-51379883D02*
X95984976Y-51379883D01*
X112651168Y-76918948D02*
X114002019Y-76918948D01*
X112282182Y-57419507D02*
X112282182Y-52534899D01*
X112282182Y-52534899D02*
X110046977Y-52534899D01*
X110250178Y-57419507D02*
X110250178Y-52534899D01*
X110250178Y-52534899D02*
X107398006Y-52534899D01*
X107398006Y-54693904D02*
X104858001Y-54693904D01*
X107398006Y-52534899D02*
X107398006Y-54693904D01*
X104858001Y-54693904D02*
X104858001Y-52534899D01*
X104858001Y-52534899D02*
X102317996Y-52534899D01*
X102317996Y-54693904D02*
X100031991Y-54693904D01*
X102317996Y-52534899D02*
X102317996Y-54693904D01*
X100031991Y-54693904D02*
X100031991Y-52534899D01*
X100031991Y-52534899D02*
X97745987Y-52534899D01*
X97745987Y-52534899D02*
X97745987Y-56217907D01*
X95984976Y-76918948D02*
X97318834Y-76918948D01*
X95984976Y-76071094D02*
X95984976Y-76918948D01*
X95984976Y-57419507D02*
X114002019Y-57419507D01*
X95984976Y-51379883D02*
X95984976Y-58198755D01*
D13*
%TO.C,R12*%
X90424320Y-62061544D02*
X90424320Y-63020421D01*
X90424320Y-64831724D02*
X90424320Y-63872847D01*
X91745530Y-62061544D02*
X90424320Y-62061544D01*
X91745530Y-63020421D02*
X91745530Y-62061544D01*
X91745530Y-63872847D02*
X91745530Y-64831724D01*
X91745530Y-64831724D02*
X90424320Y-64831724D01*
%TO.C,C7*%
X74785281Y-61378613D02*
X74785281Y-60878613D01*
X74787414Y-62321387D02*
X74787414Y-61821387D01*
X74937681Y-60726187D02*
X75630086Y-60726187D01*
X75632194Y-62473813D02*
X74939764Y-62473813D01*
X75782461Y-60878613D02*
X75782461Y-61378613D01*
X75784544Y-61821387D02*
X75784544Y-62321387D01*
X74785281Y-60878613D02*
G75*
G02*
X74937681Y-60726213I152400J0D01*
G01*
X74939764Y-62473787D02*
G75*
G02*
X74787368Y-62321387I1J152397D01*
G01*
X75630086Y-60726213D02*
G75*
G02*
X75782486Y-60878613I0J-152400D01*
G01*
X75784569Y-62321387D02*
G75*
G02*
X75632169Y-62473784I-152394J-3D01*
G01*
D15*
%TO.C,C17*%
X90094882Y-59399771D02*
X90094882Y-58599746D01*
X91204636Y-58289967D02*
X90404661Y-58289967D01*
X91204636Y-59709627D02*
X90404661Y-59709627D01*
X91765088Y-58290424D02*
X92565063Y-58290424D01*
X91765088Y-59710109D02*
X92565063Y-59710109D01*
X92874816Y-58600254D02*
X92874816Y-59400305D01*
X90094882Y-58599797D02*
G75*
G02*
X90404712Y-58289962I309848J-13D01*
G01*
X90404712Y-59709627D02*
G75*
G02*
X90094873Y-59399772I-12J309827D01*
G01*
X92565012Y-58290424D02*
G75*
G02*
X92874816Y-58600255I-27J-309831D01*
G01*
X92874816Y-59400229D02*
G75*
G02*
X92565011Y-59710109I-309831J-49D01*
G01*
D13*
%TO.C,R8*%
X92146469Y-61939395D02*
X92146469Y-63260605D01*
X92146469Y-63260605D02*
X93105346Y-63260605D01*
X93105346Y-61939395D02*
X92146469Y-61939395D01*
X93957772Y-61939395D02*
X94916649Y-61939395D01*
X94916649Y-61939395D02*
X94916649Y-63260605D01*
X94916649Y-63260605D02*
X93957772Y-63260605D01*
D14*
%TO.C,JP2*%
X97250000Y-83450000D02*
G75*
G02*
X96550000Y-84150000I-700000J0D01*
G01*
X96550000Y-81350000D02*
G75*
G02*
X97250000Y-82050000I1J-699999D01*
G01*
X95950000Y-84150000D02*
G75*
G02*
X95250000Y-83450000I0J700000D01*
G01*
X95250000Y-82050000D02*
G75*
G02*
X95950000Y-81350000I699999J1D01*
G01*
X97250000Y-82050000D02*
X97250000Y-83450000D01*
X96550000Y-84150000D02*
X95950000Y-84150000D01*
X95950000Y-81350000D02*
X96550000Y-81350000D01*
X95250000Y-83450000D02*
X95250000Y-82050000D01*
%TO.C,JP3*%
X99750000Y-83450000D02*
G75*
G02*
X99050000Y-84150000I-700000J0D01*
G01*
X99050000Y-81350000D02*
G75*
G02*
X99750000Y-82050000I1J-699999D01*
G01*
X98450000Y-84150000D02*
G75*
G02*
X97750000Y-83450000I0J700000D01*
G01*
X97750000Y-82050000D02*
G75*
G02*
X98450000Y-81350000I699999J1D01*
G01*
X99750000Y-82050000D02*
X99750000Y-83450000D01*
X99050000Y-84150000D02*
X98450000Y-84150000D01*
X98450000Y-81350000D02*
X99050000Y-81350000D01*
X97750000Y-83450000D02*
X97750000Y-82050000D01*
D13*
%TO.C,U11*%
X76328715Y-65753797D02*
X76328715Y-71046203D01*
X76328715Y-71046203D02*
X76712230Y-71046203D01*
X79041135Y-65753797D02*
X79041135Y-71046203D01*
X79041135Y-67130709D02*
X76328715Y-67130709D01*
X79041135Y-71046203D02*
X78657620Y-71046203D01*
D14*
X76763030Y-65829997D02*
X76252515Y-65829997D01*
X76252515Y-65372797D01*
X76763030Y-65372797D01*
X76763030Y-65829997D01*
G36*
X76763030Y-65829997D02*
G01*
X76252515Y-65829997D01*
X76252515Y-65372797D01*
X76763030Y-65372797D01*
X76763030Y-65829997D01*
G37*
X79117335Y-65829997D02*
X78606820Y-65829997D01*
X78606820Y-65372797D01*
X79117335Y-65372797D01*
X79117335Y-65829997D01*
G36*
X79117335Y-65829997D02*
G01*
X78606820Y-65829997D01*
X78606820Y-65372797D01*
X79117335Y-65372797D01*
X79117335Y-65829997D01*
G37*
D15*
%TO.C,SW2*%
X81899924Y-89550000D02*
G75*
G02*
X80100076Y-89550000I-899924J0D01*
G01*
X80100076Y-89550000D02*
G75*
G02*
X81899924Y-89550000I899924J0D01*
G01*
D16*
X82541199Y-91576213D02*
X82110135Y-91576213D01*
D13*
X82541199Y-87523787D02*
X82541199Y-91576213D01*
D16*
X82110135Y-87523787D02*
X82541199Y-87523787D01*
X79458801Y-91576213D02*
X79889865Y-91576213D01*
X79458801Y-87523787D02*
X79889865Y-87523787D01*
D13*
X79458801Y-87523787D02*
X79458801Y-91576213D01*
%TO.C,R15*%
X90624320Y-69414910D02*
X90624320Y-70373787D01*
X90624320Y-72185090D02*
X90624320Y-71226213D01*
X91945530Y-69414910D02*
X90624320Y-69414910D01*
X91945530Y-70373787D02*
X91945530Y-69414910D01*
X91945530Y-71226213D02*
X91945530Y-72185090D01*
X91945530Y-72185090D02*
X90624320Y-72185090D01*
%TO.C,R6*%
X74524320Y-63314910D02*
X74524320Y-64273787D01*
X74524320Y-66085090D02*
X74524320Y-65126213D01*
X75845530Y-63314910D02*
X74524320Y-63314910D01*
X75845530Y-64273787D02*
X75845530Y-63314910D01*
X75845530Y-65126213D02*
X75845530Y-66085090D01*
X75845530Y-66085090D02*
X74524320Y-66085090D01*
D14*
%TO.C,JP9*%
X114750000Y-83450000D02*
G75*
G02*
X114050000Y-84150000I-700000J0D01*
G01*
X114050000Y-81350000D02*
G75*
G02*
X114750000Y-82050000I1J-699999D01*
G01*
X113450000Y-84150000D02*
G75*
G02*
X112750000Y-83450000I0J700000D01*
G01*
X112750000Y-82050000D02*
G75*
G02*
X113450000Y-81350000I699999J1D01*
G01*
X114750000Y-82050000D02*
X114750000Y-83450000D01*
X114050000Y-84150000D02*
X113450000Y-84150000D01*
X113450000Y-81350000D02*
X114050000Y-81350000D01*
X112750000Y-83450000D02*
X112750000Y-82050000D01*
D15*
%TO.C,SW1*%
X88799924Y-89550000D02*
G75*
G02*
X87000076Y-89550000I-899924J0D01*
G01*
X87000076Y-89550000D02*
G75*
G02*
X88799924Y-89550000I899924J0D01*
G01*
D13*
X89441199Y-91576213D02*
X89441199Y-87523787D01*
D16*
X89441199Y-91576213D02*
X89010135Y-91576213D01*
X89441199Y-87523787D02*
X89010135Y-87523787D01*
X86789865Y-91576213D02*
X86358801Y-91576213D01*
D13*
X86358801Y-91576213D02*
X86358801Y-87523787D01*
D16*
X86358801Y-87523787D02*
X86789865Y-87523787D01*
D14*
%TO.C,JP11*%
X72200000Y-59250000D02*
G75*
G02*
X72900000Y-59950000I0J-700000D01*
G01*
X70100000Y-59950000D02*
G75*
G02*
X70800000Y-59250000I699999J1D01*
G01*
X72900000Y-60550000D02*
G75*
G02*
X72200000Y-61250000I-700000J0D01*
G01*
X70800000Y-61250000D02*
G75*
G02*
X70100000Y-60550000I-1J699999D01*
G01*
X70800000Y-59250000D02*
X72200000Y-59250000D01*
X72900000Y-59950000D02*
X72900000Y-60550000D01*
X70100000Y-60550000D02*
X70100000Y-59950000D01*
X72200000Y-61250000D02*
X70800000Y-61250000D01*
D13*
%TO.C,R13*%
X87924320Y-72668276D02*
X87924320Y-73627153D01*
X87924320Y-75438456D02*
X87924320Y-74479579D01*
X89245530Y-72668276D02*
X87924320Y-72668276D01*
X89245530Y-73627153D02*
X89245530Y-72668276D01*
X89245530Y-74479579D02*
X89245530Y-75438456D01*
X89245530Y-75438456D02*
X87924320Y-75438456D01*
D15*
%TO.C,C10*%
X83694869Y-65124790D02*
X83694869Y-64324765D01*
X84804623Y-64014986D02*
X84004648Y-64014986D01*
X84804623Y-65434646D02*
X84004648Y-65434646D01*
X85365075Y-64015443D02*
X86165050Y-64015443D01*
X85365075Y-65435128D02*
X86165050Y-65435128D01*
X86474803Y-64325273D02*
X86474803Y-65125324D01*
X83694869Y-64324816D02*
G75*
G02*
X84004699Y-64014981I309848J-13D01*
G01*
X84004699Y-65434646D02*
G75*
G02*
X83694860Y-65124791I-12J309827D01*
G01*
X86164999Y-64015443D02*
G75*
G02*
X86474803Y-64325274I-27J-309831D01*
G01*
X86474803Y-65125248D02*
G75*
G02*
X86164998Y-65435128I-309831J-49D01*
G01*
D13*
%TO.C,R5*%
X73535090Y-71960605D02*
X72576213Y-71960605D01*
X73535090Y-70639395D02*
X73535090Y-71960605D01*
X72576213Y-70639395D02*
X73535090Y-70639395D01*
X71723787Y-70639395D02*
X70764910Y-70639395D01*
X70764910Y-71960605D02*
X71723787Y-71960605D01*
X70764910Y-70639395D02*
X70764910Y-71960605D01*
D14*
%TO.C,JP5*%
X104750000Y-83450000D02*
G75*
G02*
X104050000Y-84150000I-700000J0D01*
G01*
X104050000Y-81350000D02*
G75*
G02*
X104750000Y-82050000I1J-699999D01*
G01*
X103450000Y-84150000D02*
G75*
G02*
X102750000Y-83450000I0J700000D01*
G01*
X102750000Y-82050000D02*
G75*
G02*
X103450000Y-81350000I699999J1D01*
G01*
X104750000Y-82050000D02*
X104750000Y-83450000D01*
X104050000Y-84150000D02*
X103450000Y-84150000D01*
X103450000Y-81350000D02*
X104050000Y-81350000D01*
X102750000Y-83450000D02*
X102750000Y-82050000D01*
D13*
%TO.C,C1*%
X82085281Y-70973736D02*
X82085281Y-70473736D01*
X82087414Y-71916510D02*
X82087414Y-71416510D01*
X82237681Y-70321310D02*
X82930086Y-70321310D01*
X82932194Y-72068936D02*
X82239764Y-72068936D01*
X83082461Y-70473736D02*
X83082461Y-70973736D01*
X83084544Y-71416510D02*
X83084544Y-71916510D01*
X82085281Y-70473736D02*
G75*
G02*
X82237681Y-70321336I152400J0D01*
G01*
X82239764Y-72068910D02*
G75*
G02*
X82087358Y-71916510I1J152407D01*
G01*
X82930086Y-70321336D02*
G75*
G02*
X83082486Y-70473736I0J-152400D01*
G01*
X83084569Y-71916510D02*
G75*
G02*
X82932169Y-72068907I-152394J-3D01*
G01*
%TO.C,C18*%
X108958496Y-80949619D02*
X108458496Y-80949619D01*
X109901270Y-80947536D02*
X109401270Y-80947536D01*
X108306070Y-80797269D02*
X108306070Y-80104839D01*
X110053696Y-80102756D02*
X110053696Y-80795161D01*
X108458496Y-79952489D02*
X108958496Y-79952489D01*
X109401270Y-79950356D02*
X109901270Y-79950356D01*
X108458496Y-80949644D02*
G75*
G02*
X108306089Y-80797244I-3J152404D01*
G01*
X110053670Y-80795161D02*
G75*
G02*
X109901270Y-80947561I-152400J0D01*
G01*
X108306096Y-80104839D02*
G75*
G02*
X108458496Y-79952443I152397J-1D01*
G01*
X109901270Y-79950356D02*
G75*
G02*
X110053670Y-80102756I0J-152400D01*
G01*
D15*
%TO.C,U12*%
X67271019Y-103783144D02*
X67271019Y-102301483D01*
X67271019Y-103783144D02*
X58331013Y-103783144D01*
X67271019Y-100065110D02*
X67271019Y-98201483D01*
X58331013Y-103783144D02*
X58331013Y-102301839D01*
X58331013Y-100064755D02*
X58331013Y-98201839D01*
D13*
%TO.C,R20*%
X86360668Y-72668276D02*
X86360668Y-73627153D01*
X86360668Y-75438456D02*
X86360668Y-74479579D01*
X87681878Y-72668276D02*
X86360668Y-72668276D01*
X87681878Y-73627153D02*
X87681878Y-72668276D01*
X87681878Y-74479579D02*
X87681878Y-75438456D01*
X87681878Y-75438456D02*
X86360668Y-75438456D01*
%TO.C,C9*%
X93185306Y-58978613D02*
X93185306Y-58478613D01*
X93187389Y-59921387D02*
X93187389Y-59421387D01*
X93337656Y-58326187D02*
X94030086Y-58326187D01*
X94032169Y-60073813D02*
X93339764Y-60073813D01*
X94182436Y-58478613D02*
X94182436Y-58978613D01*
X94184569Y-59421387D02*
X94184569Y-59921387D01*
X93185281Y-58478613D02*
G75*
G02*
X93337681Y-58326216I152394J3D01*
G01*
X93339764Y-60073787D02*
G75*
G02*
X93187364Y-59921387I0J152400D01*
G01*
X94030086Y-58326213D02*
G75*
G02*
X94182492Y-58478613I-1J-152407D01*
G01*
X94184569Y-59921387D02*
G75*
G02*
X94032169Y-60073787I-152400J0D01*
G01*
%TO.C,R10*%
X88124320Y-65514910D02*
X89445530Y-65514910D01*
X88124320Y-66473787D02*
X88124320Y-65514910D01*
X88124320Y-67326213D02*
X88124320Y-68285090D01*
X88124320Y-68285090D02*
X89445530Y-68285090D01*
X89445530Y-65514910D02*
X89445530Y-66473787D01*
X89445530Y-68285090D02*
X89445530Y-67326213D01*
D14*
%TO.C,JP7*%
X109750000Y-83450000D02*
G75*
G02*
X109050000Y-84150000I-700000J0D01*
G01*
X109050000Y-81350000D02*
G75*
G02*
X109750000Y-82050000I1J-699999D01*
G01*
X108450000Y-84150000D02*
G75*
G02*
X107750000Y-83450000I0J700000D01*
G01*
X107750000Y-82050000D02*
G75*
G02*
X108450000Y-81350000I699999J1D01*
G01*
X109750000Y-82050000D02*
X109750000Y-83450000D01*
X109050000Y-84150000D02*
X108450000Y-84150000D01*
X108450000Y-81350000D02*
X109050000Y-81350000D01*
X107750000Y-83450000D02*
X107750000Y-82050000D01*
D13*
%TO.C,C2*%
X93785306Y-66531979D02*
X93785306Y-66031979D01*
X93787389Y-67474753D02*
X93787389Y-66974753D01*
X93937656Y-65879553D02*
X94630086Y-65879553D01*
X94632169Y-67627179D02*
X93939764Y-67627179D01*
X94782436Y-66031979D02*
X94782436Y-66531979D01*
X94784569Y-66974753D02*
X94784569Y-67474753D01*
X93785281Y-66031979D02*
G75*
G02*
X93937681Y-65879582I152394J3D01*
G01*
X93939764Y-67627153D02*
G75*
G02*
X93787364Y-67474753I0J152400D01*
G01*
X94630086Y-65879579D02*
G75*
G02*
X94782482Y-66031979I-1J-152397D01*
G01*
X94784569Y-67474753D02*
G75*
G02*
X94632169Y-67627153I-152400J0D01*
G01*
D15*
%TO.C,C5*%
X79639967Y-70580264D02*
X79639967Y-71380239D01*
X79640424Y-70019812D02*
X79640424Y-69219837D01*
X79950254Y-68910084D02*
X80750305Y-68910084D01*
X80749771Y-71690018D02*
X79949746Y-71690018D01*
X81059627Y-70580264D02*
X81059627Y-71380239D01*
X81060109Y-70019812D02*
X81060109Y-69219837D01*
X79640424Y-69219888D02*
G75*
G02*
X79950255Y-68910084I309831J-27D01*
G01*
X79949797Y-71690018D02*
G75*
G02*
X79639962Y-71380188I13J309848D01*
G01*
X80750229Y-68910084D02*
G75*
G02*
X81060109Y-69219889I49J-309831D01*
G01*
X81059627Y-71380188D02*
G75*
G02*
X80749772Y-71690027I-309827J-12D01*
G01*
D13*
%TO.C,C8*%
X80311087Y-62297587D02*
X80311087Y-61605157D01*
X80463513Y-61452807D02*
X80963513Y-61452807D01*
X80963513Y-62449937D02*
X80463513Y-62449937D01*
X81406287Y-61450674D02*
X81906287Y-61450674D01*
X81906287Y-62447854D02*
X81406287Y-62447854D01*
X82058713Y-61603074D02*
X82058713Y-62295479D01*
X80311113Y-61605157D02*
G75*
G02*
X80463513Y-61452761I152397J-1D01*
G01*
X80463513Y-62449962D02*
G75*
G02*
X80311116Y-62297562I-3J152394D01*
G01*
X81906287Y-61450674D02*
G75*
G02*
X82058687Y-61603074I0J-152400D01*
G01*
X82058687Y-62295479D02*
G75*
G02*
X81906287Y-62447879I-152400J0D01*
G01*
D15*
%TO.C,P1*%
X100323520Y-89534970D02*
X102370282Y-89534970D01*
X100323520Y-90877439D02*
X100323520Y-89534970D01*
X100323520Y-94928036D02*
X100323520Y-92939948D01*
X100323520Y-94928036D02*
X109700305Y-94928036D01*
X107633147Y-89534970D02*
X109700000Y-89534970D01*
X109700000Y-89534970D02*
X109700000Y-90808452D01*
X109700000Y-92870911D02*
X109700000Y-94928036D01*
X109700000Y-94005277D02*
X100323520Y-94005277D01*
D14*
%TO.C,TP1*%
X70100000Y-101100000D02*
G75*
G02*
X68700000Y-101100000I-700000J0D01*
G01*
X68700000Y-101100000D02*
G75*
G02*
X70100000Y-101100000I700000J0D01*
G01*
D13*
%TO.C,R16*%
X92224320Y-65868276D02*
X93545530Y-65868276D01*
X92224320Y-66827153D02*
X92224320Y-65868276D01*
X92224320Y-67679579D02*
X92224320Y-68638456D01*
X92224320Y-68638456D02*
X93545530Y-68638456D01*
X93545530Y-65868276D02*
X93545530Y-66827153D01*
X93545530Y-68638456D02*
X93545530Y-67679579D01*
%TO.C,C15*%
X93785306Y-73298730D02*
X93785306Y-72798730D01*
X93787389Y-74241504D02*
X93787389Y-73741504D01*
X93937656Y-72646304D02*
X94630086Y-72646304D01*
X94632169Y-74393930D02*
X93939764Y-74393930D01*
X94782436Y-72798730D02*
X94782436Y-73298730D01*
X94784569Y-73741504D02*
X94784569Y-74241504D01*
X93785281Y-72798730D02*
G75*
G02*
X93937681Y-72646333I152394J3D01*
G01*
X93939764Y-74393904D02*
G75*
G02*
X93787364Y-74241504I0J152400D01*
G01*
X94630086Y-72646330D02*
G75*
G02*
X94782482Y-72798730I-1J-152397D01*
G01*
X94784569Y-74241504D02*
G75*
G02*
X94632169Y-74393904I-152400J0D01*
G01*
%TO.C,U6*%
X83989829Y-61498729D02*
X85638622Y-61498729D01*
X83989829Y-63651129D02*
X85638622Y-63651129D01*
X86142229Y-61498729D02*
X84493436Y-61498729D01*
X86142229Y-63651129D02*
X84493436Y-63651129D01*
D17*
X83740401Y-61824865D02*
G75*
G02*
X83540247Y-61824865I-100077J0D01*
G01*
X83540247Y-61824865D02*
G75*
G02*
X83740401Y-61824865I100077J0D01*
G01*
D13*
%TO.C,U10*%
X79508750Y-64773787D02*
X80540373Y-64773787D01*
X79508750Y-66226213D02*
X79508750Y-64773787D01*
X81490361Y-66226213D02*
X80579565Y-66226213D01*
X82561176Y-64773787D02*
X81529553Y-64773787D01*
X82561176Y-66226213D02*
X82561176Y-64773787D01*
D14*
%TO.C,JP10*%
X117250000Y-83450000D02*
G75*
G02*
X116550000Y-84150000I-700000J0D01*
G01*
X116550000Y-81350000D02*
G75*
G02*
X117250000Y-82050000I1J-699999D01*
G01*
X115950000Y-84150000D02*
G75*
G02*
X115250000Y-83450000I0J700000D01*
G01*
X115250000Y-82050000D02*
G75*
G02*
X115950000Y-81350000I699999J1D01*
G01*
X117250000Y-82050000D02*
X117250000Y-83450000D01*
X116550000Y-84150000D02*
X115950000Y-84150000D01*
X115950000Y-81350000D02*
X116550000Y-81350000D01*
X115250000Y-83450000D02*
X115250000Y-82050000D01*
%TO.C,TP2*%
X70100000Y-96300000D02*
G75*
G02*
X68700000Y-96300000I-700000J0D01*
G01*
X68700000Y-96300000D02*
G75*
G02*
X70100000Y-96300000I700000J0D01*
G01*
D13*
%TO.C,R14*%
X90624320Y-72668276D02*
X90624320Y-73627153D01*
X90624320Y-75438456D02*
X90624320Y-74479579D01*
X91945530Y-72668276D02*
X90624320Y-72668276D01*
X91945530Y-73627153D02*
X91945530Y-72668276D01*
X91945530Y-74479579D02*
X91945530Y-75438456D01*
X91945530Y-75438456D02*
X90624320Y-75438456D01*
%TO.C,C16*%
X83626187Y-74447244D02*
X83626187Y-73754839D01*
X83778613Y-73602464D02*
X84278613Y-73602464D01*
X84278613Y-74599644D02*
X83778613Y-74599644D01*
X84721387Y-73600381D02*
X85221387Y-73600381D01*
X85221387Y-74597511D02*
X84721387Y-74597511D01*
X85373813Y-73752731D02*
X85373813Y-74445161D01*
X83626213Y-73754839D02*
G75*
G02*
X83778613Y-73602439I152400J0D01*
G01*
X83778613Y-74599644D02*
G75*
G02*
X83626213Y-74447244I0J152400D01*
G01*
X85221387Y-73600356D02*
G75*
G02*
X85373784Y-73752756I3J-152394D01*
G01*
X85373787Y-74445161D02*
G75*
G02*
X85221387Y-74597557I-152397J1D01*
G01*
D14*
%TO.C,JP4*%
X102250000Y-83450000D02*
G75*
G02*
X101550000Y-84150000I-700000J0D01*
G01*
X101550000Y-81350000D02*
G75*
G02*
X102250000Y-82050000I1J-699999D01*
G01*
X100950000Y-84150000D02*
G75*
G02*
X100250000Y-83450000I0J700000D01*
G01*
X100250000Y-82050000D02*
G75*
G02*
X100950000Y-81350000I699999J1D01*
G01*
X102250000Y-82050000D02*
X102250000Y-83450000D01*
X101550000Y-84150000D02*
X100950000Y-84150000D01*
X100950000Y-81350000D02*
X101550000Y-81350000D01*
X100250000Y-83450000D02*
X100250000Y-82050000D01*
%TO.C,J1*%
X96455000Y-99670000D02*
X96455000Y-101000000D01*
X95125000Y-99670000D02*
X96455000Y-99670000D01*
X93855000Y-102330000D02*
X70935000Y-102330000D01*
X93855000Y-99670000D02*
X93855000Y-102330000D01*
X93855000Y-99670000D02*
X70935000Y-99670000D01*
X70935000Y-99670000D02*
X70935000Y-102330000D01*
D13*
%TO.C,U7*%
X73361367Y-68115095D02*
X73361367Y-66412681D01*
X72311557Y-66412681D02*
X71358751Y-66412681D01*
X70308941Y-68115095D02*
X70308941Y-66412681D01*
D11*
X70334265Y-68406890D02*
G75*
G02*
X70034037Y-68406890I-150114J0D01*
G01*
X70034037Y-68406890D02*
G75*
G02*
X70334265Y-68406890I150114J0D01*
G01*
D14*
%TO.C,JP6*%
X107250000Y-83450000D02*
G75*
G02*
X106550000Y-84150000I-700000J0D01*
G01*
X106550000Y-81350000D02*
G75*
G02*
X107250000Y-82050000I1J-699999D01*
G01*
X105950000Y-84150000D02*
G75*
G02*
X105250000Y-83450000I0J700000D01*
G01*
X105250000Y-82050000D02*
G75*
G02*
X105950000Y-81350000I699999J1D01*
G01*
X107250000Y-82050000D02*
X107250000Y-83450000D01*
X106550000Y-84150000D02*
X105950000Y-84150000D01*
X105950000Y-81350000D02*
X106550000Y-81350000D01*
X105250000Y-83450000D02*
X105250000Y-82050000D01*
D13*
%TO.C,C6*%
X71606096Y-69522397D02*
G75*
G02*
X71758496Y-69369997I152400J0D01*
G01*
X71758496Y-70367202D02*
G75*
G02*
X71606096Y-70214802I0J152400D01*
G01*
X73201270Y-69367914D02*
G75*
G02*
X73353667Y-69520314I3J-152394D01*
G01*
X73353670Y-70212719D02*
G75*
G02*
X73201270Y-70365115I-152397J1D01*
G01*
X71606070Y-70214802D02*
X71606070Y-69522397D01*
X71758496Y-69370022D02*
X72258496Y-69370022D01*
X72258496Y-70367202D02*
X71758496Y-70367202D01*
X72701270Y-69367939D02*
X73201270Y-69367939D01*
X73201270Y-70365069D02*
X72701270Y-70365069D01*
X73353696Y-69520289D02*
X73353696Y-70212719D01*
D15*
%TO.C,C19*%
X104859982Y-79499797D02*
G75*
G02*
X105169812Y-79189982I309818J-3D01*
G01*
X105169812Y-80609627D02*
G75*
G02*
X104859973Y-80299772I-12J309827D01*
G01*
X107330112Y-79190424D02*
G75*
G02*
X107639916Y-79500255I-27J-309831D01*
G01*
X107639916Y-80300229D02*
G75*
G02*
X107330111Y-80610109I-309831J-49D01*
G01*
X104859982Y-80299771D02*
X104859982Y-79499746D01*
X105969736Y-79189967D02*
X105169761Y-79189967D01*
X105969736Y-80609627D02*
X105169761Y-80609627D01*
X106530188Y-79190424D02*
X107330163Y-79190424D01*
X106530188Y-80610109D02*
X107330163Y-80610109D01*
X107639916Y-79500254D02*
X107639916Y-80300305D01*
D13*
%TO.C,R11*%
X90624320Y-65868276D02*
X91945530Y-65868276D01*
X90624320Y-66827153D02*
X90624320Y-65868276D01*
X90624320Y-67679579D02*
X90624320Y-68638456D01*
X90624320Y-68638456D02*
X91945530Y-68638456D01*
X91945530Y-65868276D02*
X91945530Y-66827153D01*
X91945530Y-68638456D02*
X91945530Y-67679579D01*
%TO.C,R18*%
X92224320Y-69414910D02*
X93545530Y-69414910D01*
X92224320Y-70373787D02*
X92224320Y-69414910D01*
X92224320Y-71226213D02*
X92224320Y-72185090D01*
X92224320Y-72185090D02*
X93545530Y-72185090D01*
X93545530Y-69414910D02*
X93545530Y-70373787D01*
X93545530Y-72185090D02*
X93545530Y-71226213D01*
%TO.C,C12*%
X102173787Y-80745161D02*
G75*
G02*
X102021387Y-80897557I-152397J1D01*
G01*
X102021387Y-79900356D02*
G75*
G02*
X102173794Y-80052756I3J-152404D01*
G01*
X100578613Y-80899644D02*
G75*
G02*
X100426213Y-80747244I0J152400D01*
G01*
X100426213Y-80054839D02*
G75*
G02*
X100578613Y-79902439I152400J0D01*
G01*
X102173813Y-80052731D02*
X102173813Y-80745161D01*
X102021387Y-80897511D02*
X101521387Y-80897511D01*
X101521387Y-79900381D02*
X102021387Y-79900381D01*
X101078613Y-80899644D02*
X100578613Y-80899644D01*
X100578613Y-79902464D02*
X101078613Y-79902464D01*
X100426187Y-80747244D02*
X100426187Y-80054839D01*
%TO.C,R7*%
X74524320Y-66461544D02*
X74524320Y-67420421D01*
X74524320Y-69231724D02*
X74524320Y-68272847D01*
X75845530Y-66461544D02*
X74524320Y-66461544D01*
X75845530Y-67420421D02*
X75845530Y-66461544D01*
X75845530Y-68272847D02*
X75845530Y-69231724D01*
X75845530Y-69231724D02*
X74524320Y-69231724D01*
%TO.C,R2*%
X64860605Y-94931724D02*
X64860605Y-93972847D01*
X64860605Y-92161544D02*
X64860605Y-93120421D01*
X63539395Y-94931724D02*
X64860605Y-94931724D01*
X63539395Y-93972847D02*
X63539395Y-94931724D01*
X63539395Y-93120421D02*
X63539395Y-92161544D01*
X63539395Y-92161544D02*
X64860605Y-92161544D01*
%TO.C,SW5*%
D18*
X64300000Y-39350000D02*
X61300000Y-39350000D01*
X61300000Y-46250000D01*
X64300000Y-46250000D01*
X64300000Y-39350000D01*
X69400000Y-53850000D02*
X69400000Y-66300000D01*
X67300000Y-53850000D02*
X69400000Y-53850000D01*
X65800000Y-66300000D02*
X64500000Y-66300000D01*
X65800000Y-46250000D02*
X65800000Y-51800000D01*
X62300000Y-53800000D02*
X63300000Y-53800000D01*
X61050000Y-66300000D02*
X59750000Y-66300000D01*
X59800000Y-51800000D02*
X59800000Y-46250000D01*
X59800000Y-46250000D02*
X65800000Y-46250000D01*
X56200000Y-66300000D02*
X56200000Y-53850000D01*
X56200000Y-53850000D02*
X58300000Y-53850000D01*
D13*
%TO.C,C3*%
X85535268Y-71003632D02*
X85535268Y-70503632D01*
X85537351Y-71946406D02*
X85537351Y-71446406D01*
X85687618Y-70351206D02*
X86380048Y-70351206D01*
X86382131Y-72098832D02*
X85689726Y-72098832D01*
X86532398Y-70503632D02*
X86532398Y-71003632D01*
X86534531Y-71446406D02*
X86534531Y-71946406D01*
X85535243Y-70503632D02*
G75*
G02*
X85687643Y-70351235I152394J3D01*
G01*
X85689726Y-72098806D02*
G75*
G02*
X85537326Y-71946406I0J152400D01*
G01*
X86380048Y-70351232D02*
G75*
G02*
X86532454Y-70503632I-1J-152407D01*
G01*
X86534531Y-71946406D02*
G75*
G02*
X86382131Y-72098806I-152400J0D01*
G01*
D15*
%TO.C,U1*%
X83534811Y-67075006D02*
X83534811Y-68875031D01*
X86634836Y-67075006D02*
X86634836Y-68875031D01*
X83560922Y-69372009D02*
G75*
G02*
X83306922Y-69372009I-127000J0D01*
G01*
X83306922Y-69372009D02*
G75*
G02*
X83560922Y-69372009I127000J0D01*
G01*
D14*
%TO.C,JP1*%
X94750000Y-83450000D02*
G75*
G02*
X94050000Y-84150000I-700000J0D01*
G01*
X94050000Y-81350000D02*
G75*
G02*
X94750000Y-82050000I1J-699999D01*
G01*
X93450000Y-84150000D02*
G75*
G02*
X92750000Y-83450000I0J700000D01*
G01*
X92750000Y-82050000D02*
G75*
G02*
X93450000Y-81350000I699999J1D01*
G01*
X94750000Y-82050000D02*
X94750000Y-83450000D01*
X94050000Y-84150000D02*
X93450000Y-84150000D01*
X93450000Y-81350000D02*
X94050000Y-81350000D01*
X92750000Y-83450000D02*
X92750000Y-82050000D01*
D13*
%TO.C,C13*%
X79476187Y-72897244D02*
X79476187Y-72204839D01*
X79628613Y-72052464D02*
X80128613Y-72052464D01*
X80128613Y-73049644D02*
X79628613Y-73049644D01*
X80571387Y-72050381D02*
X81071387Y-72050381D01*
X81071387Y-73047511D02*
X80571387Y-73047511D01*
X81223813Y-72202731D02*
X81223813Y-72895161D01*
X79476213Y-72204839D02*
G75*
G02*
X79628613Y-72052439I152400J0D01*
G01*
X79628613Y-73049644D02*
G75*
G02*
X79476213Y-72897244I0J152400D01*
G01*
X81071387Y-72050356D02*
G75*
G02*
X81223784Y-72202756I3J-152394D01*
G01*
X81223787Y-72895161D02*
G75*
G02*
X81071387Y-73047567I-152407J1D01*
G01*
D14*
%TO.C,JP12*%
X72200000Y-56700000D02*
G75*
G02*
X72900000Y-57400000I0J-700000D01*
G01*
X70100000Y-57400000D02*
G75*
G02*
X70800000Y-56700000I699999J1D01*
G01*
X72900000Y-58000000D02*
G75*
G02*
X72200000Y-58700000I-700000J0D01*
G01*
X70800000Y-58700000D02*
G75*
G02*
X70100000Y-58000000I-1J699999D01*
G01*
X70800000Y-56700000D02*
X72200000Y-56700000D01*
X72900000Y-57400000D02*
X72900000Y-58000000D01*
X70100000Y-58000000D02*
X70100000Y-57400000D01*
X72200000Y-58700000D02*
X70800000Y-58700000D01*
D13*
%TO.C,R4*%
X71587454Y-62329102D02*
X70266244Y-62329102D01*
X70266244Y-62329102D02*
X70266244Y-63287979D01*
X71587454Y-63287979D02*
X71587454Y-62329102D01*
X71587454Y-64140405D02*
X71587454Y-65099282D01*
X71587454Y-65099282D02*
X70266244Y-65099282D01*
X70266244Y-65099282D02*
X70266244Y-64140405D01*
%TO.C,R17*%
X88824320Y-62061544D02*
X88824320Y-63020421D01*
X88824320Y-64831724D02*
X88824320Y-63872847D01*
X90145530Y-62061544D02*
X88824320Y-62061544D01*
X90145530Y-63020421D02*
X90145530Y-62061544D01*
X90145530Y-63872847D02*
X90145530Y-64831724D01*
X90145530Y-64831724D02*
X88824320Y-64831724D01*
D14*
%TO.C,JP8*%
X112250000Y-83450000D02*
G75*
G02*
X111550000Y-84150000I-700000J0D01*
G01*
X111550000Y-81350000D02*
G75*
G02*
X112250000Y-82050000I1J-699999D01*
G01*
X110950000Y-84150000D02*
G75*
G02*
X110250000Y-83450000I0J700000D01*
G01*
X110250000Y-82050000D02*
G75*
G02*
X110950000Y-81350000I699999J1D01*
G01*
X112250000Y-82050000D02*
X112250000Y-83450000D01*
X111550000Y-84150000D02*
X110950000Y-84150000D01*
X110950000Y-81350000D02*
X111550000Y-81350000D01*
X110250000Y-83450000D02*
X110250000Y-82050000D01*
D15*
%TO.C,U9*%
X77584519Y-61563145D02*
X78585281Y-61563145D01*
X77584519Y-64362231D02*
X77584519Y-61563145D01*
X78585281Y-61563145D02*
X78585281Y-64362231D01*
X78585281Y-64362231D02*
X77584519Y-64362231D01*
D19*
X76563437Y-61173280D02*
G75*
G02*
X76563437Y-61170740I134405J1270D01*
G01*
D13*
%TO.C,C14*%
X93785281Y-70098730D02*
X93785281Y-69598730D01*
X93787414Y-71041504D02*
X93787414Y-70541504D01*
X93937681Y-69446304D02*
X94630086Y-69446304D01*
X94632194Y-71193930D02*
X93939764Y-71193930D01*
X94782461Y-69598730D02*
X94782461Y-70098730D01*
X94784544Y-70541504D02*
X94784544Y-71041504D01*
X93785281Y-69598730D02*
G75*
G02*
X93937681Y-69446330I152400J0D01*
G01*
X93939764Y-71193904D02*
G75*
G02*
X93787368Y-71041504I1J152397D01*
G01*
X94630086Y-69446330D02*
G75*
G02*
X94782486Y-69598730I0J-152400D01*
G01*
X94784569Y-71041504D02*
G75*
G02*
X94632169Y-71193901I-152394J-3D01*
G01*
D15*
%TO.C,U8*%
X73525006Y-77199987D02*
X73525006Y-78150000D01*
X73525006Y-77199987D02*
X77743828Y-77199987D01*
X73525006Y-78150000D02*
X75099987Y-78150000D01*
X73525006Y-85100013D02*
X77743828Y-85100013D01*
X73526226Y-84149746D02*
X73526226Y-85099708D01*
X75099987Y-78150000D02*
X75099987Y-79418860D01*
X75099987Y-80881140D02*
X75099987Y-81418860D01*
X75101029Y-82882283D02*
X75101029Y-84149746D01*
X75101029Y-84149746D02*
X73526226Y-84149746D01*
X81125006Y-78750000D02*
X81125006Y-83550000D01*
D14*
X80825057Y-82650000D02*
X79425057Y-82150000D01*
X80824956Y-81649949D01*
X80825057Y-82650000D01*
G36*
X80825057Y-82650000D02*
G01*
X79425057Y-82150000D01*
X80824956Y-81649949D01*
X80825057Y-82650000D01*
G37*
D13*
%TO.C,R3*%
X90099835Y-60039395D02*
X91058712Y-60039395D01*
X90099835Y-61360605D02*
X90099835Y-60039395D01*
X91058712Y-61360605D02*
X90099835Y-61360605D01*
X91911138Y-61360605D02*
X92870015Y-61360605D01*
X92870015Y-60039395D02*
X91911138Y-60039395D01*
X92870015Y-61360605D02*
X92870015Y-60039395D01*
D20*
%TO.C,LED1*%
X59906464Y-93941465D02*
X59906464Y-95091478D01*
X59906363Y-95091478D02*
X58426429Y-95091478D01*
X59904153Y-93561455D02*
X59904153Y-92511341D01*
X59604204Y-92211392D02*
X59904153Y-92511341D01*
X59506388Y-93921425D02*
X59496406Y-93921425D01*
X59506388Y-93921425D02*
X58826353Y-93921425D01*
X59504051Y-92211392D02*
X59604204Y-92211392D01*
X59504051Y-92211392D02*
X58804102Y-92211392D01*
X59496406Y-93921425D02*
X59156401Y-93581420D01*
X59156401Y-93921425D02*
X59156401Y-93581420D01*
X58826353Y-93921425D02*
X58826353Y-93911468D01*
X58826353Y-93911468D02*
X59156401Y-93581420D01*
X58804102Y-92211392D02*
X58704077Y-92211392D01*
X58704077Y-92211392D02*
X58404026Y-92511341D01*
X58406337Y-93941465D02*
X58406337Y-95091478D01*
X58404026Y-93561455D02*
X58404026Y-92511341D01*
D13*
%TO.C,R19*%
X92224320Y-72668276D02*
X93545530Y-72668276D01*
X92224320Y-73627153D02*
X92224320Y-72668276D01*
X92224320Y-74479579D02*
X92224320Y-75438456D01*
X92224320Y-75438456D02*
X93545530Y-75438456D01*
X93545530Y-72668276D02*
X93545530Y-73627153D01*
X93545530Y-75438456D02*
X93545530Y-74479579D01*
%TO.C,C4*%
X83635268Y-71003632D02*
X83635268Y-70503632D01*
X83637351Y-71946406D02*
X83637351Y-71446406D01*
X83787618Y-70351206D02*
X84480048Y-70351206D01*
X84482131Y-72098832D02*
X83789726Y-72098832D01*
X84632398Y-70503632D02*
X84632398Y-71003632D01*
X84634531Y-71446406D02*
X84634531Y-71946406D01*
X83635243Y-70503632D02*
G75*
G02*
X83787643Y-70351235I152394J3D01*
G01*
X83789726Y-72098806D02*
G75*
G02*
X83637326Y-71946406I0J152400D01*
G01*
X84480048Y-70351232D02*
G75*
G02*
X84632454Y-70503632I-1J-152407D01*
G01*
X84634531Y-71946406D02*
G75*
G02*
X84482131Y-72098806I-152400J0D01*
G01*
%TO.C,R1*%
X62160605Y-94931724D02*
X62160605Y-93972847D01*
X62160605Y-92161544D02*
X62160605Y-93120421D01*
X60839395Y-94931724D02*
X62160605Y-94931724D01*
X60839395Y-93972847D02*
X60839395Y-94931724D01*
X60839395Y-93120421D02*
X60839395Y-92161544D01*
X60839395Y-92161544D02*
X62160605Y-92161544D01*
%TD*%
%LPC*%
D21*
%TO.C,C11*%
X88084925Y-62459766D03*
X88084925Y-63300000D03*
%TD*%
D22*
%TO.C,R9*%
X94284925Y-64100000D03*
X92778193Y-64100000D03*
%TD*%
D23*
%TO.C,U2*%
X104884925Y-68000050D03*
X104884925Y-66600000D03*
X104884925Y-65199949D03*
X103484874Y-68000050D03*
X103484874Y-66600000D03*
X103484874Y-65199949D03*
X102084823Y-68000050D03*
X102084823Y-66600000D03*
X102084823Y-65199949D03*
D24*
X113735065Y-58879908D03*
X113735065Y-60149911D03*
X113735065Y-61419913D03*
X113735065Y-62689916D03*
X113735065Y-63959918D03*
X113735065Y-65229921D03*
X113735065Y-66499923D03*
X113735065Y-67769926D03*
X113735065Y-69039929D03*
X113735065Y-70309931D03*
X113735065Y-71579934D03*
X113735065Y-72849936D03*
X113735065Y-74119939D03*
X113735065Y-75389941D03*
D25*
X111970015Y-76639878D03*
X110700012Y-76669850D03*
X109430010Y-76669850D03*
X108160007Y-76669850D03*
X106890005Y-76669850D03*
X105620002Y-76669850D03*
X104350000Y-76669850D03*
X103079997Y-76669850D03*
X101809995Y-76669850D03*
X100539992Y-76669850D03*
X99269990Y-76669850D03*
X97999987Y-76669850D03*
D24*
X96234937Y-75389941D03*
X96234937Y-74119939D03*
X96234937Y-72849936D03*
X96234937Y-71579934D03*
X96234937Y-70309931D03*
X96234937Y-69039929D03*
X96234937Y-67769926D03*
X96234937Y-66499923D03*
X96234937Y-65229921D03*
X96234937Y-63959918D03*
X96234937Y-62689916D03*
X96234937Y-61419913D03*
X96234937Y-60149911D03*
X96234937Y-58879908D03*
%TD*%
D26*
%TO.C,R12*%
X91084925Y-64200000D03*
X91084925Y-62693268D03*
%TD*%
D21*
%TO.C,C7*%
X75284925Y-61179883D03*
X75284925Y-62020117D03*
%TD*%
D27*
%TO.C,C17*%
X92184925Y-59000000D03*
X90784875Y-59000000D03*
%TD*%
D22*
%TO.C,R8*%
X94284925Y-62600000D03*
X92778193Y-62600000D03*
%TD*%
D28*
%TO.C,JP2*%
X96250000Y-83400000D03*
D29*
X96250000Y-82100000D03*
%TD*%
D28*
%TO.C,JP3*%
X98750000Y-83400000D03*
D29*
X98750000Y-82100000D03*
%TD*%
D30*
%TO.C,U11*%
X77684925Y-70903683D03*
X77684925Y-65896317D03*
%TD*%
D31*
%TO.C,SW2*%
X81000000Y-87365088D03*
X81000000Y-91734912D03*
%TD*%
D26*
%TO.C,R15*%
X91284925Y-71553366D03*
X91284925Y-70046634D03*
%TD*%
%TO.C,R6*%
X75184925Y-65453366D03*
X75184925Y-63946634D03*
%TD*%
D28*
%TO.C,JP9*%
X113750000Y-83400000D03*
D29*
X113750000Y-82100000D03*
%TD*%
D31*
%TO.C,SW1*%
X87900000Y-91734912D03*
X87900000Y-87365088D03*
%TD*%
D32*
%TO.C,JP11*%
X72150000Y-60250000D03*
D33*
X70850000Y-60250000D03*
%TD*%
D26*
%TO.C,R13*%
X88584925Y-74806732D03*
X88584925Y-73300000D03*
%TD*%
D27*
%TO.C,C10*%
X85784912Y-64725019D03*
X84384862Y-64725019D03*
%TD*%
D22*
%TO.C,R5*%
X72903366Y-71300000D03*
X71396634Y-71300000D03*
%TD*%
D28*
%TO.C,JP5*%
X103750000Y-83400000D03*
D29*
X103750000Y-82100000D03*
%TD*%
D21*
%TO.C,C1*%
X82584925Y-70775006D03*
X82584925Y-71615240D03*
%TD*%
D34*
%TO.C,C18*%
X109600000Y-80450000D03*
X108759766Y-80450000D03*
%TD*%
D35*
%TO.C,U12*%
X61049936Y-96214945D03*
X62049936Y-96214945D03*
X63550064Y-96214945D03*
X64550064Y-96214945D03*
D36*
X65200305Y-96214945D03*
X66000152Y-96214945D03*
D35*
X64049682Y-96214945D03*
X63049936Y-96214945D03*
X62550064Y-96214945D03*
X61550064Y-96214945D03*
D37*
X60399949Y-96214945D03*
D38*
X59600102Y-96214945D03*
D39*
X58474879Y-96983297D03*
D40*
X58474879Y-101163129D03*
X67125121Y-101163129D03*
D39*
X67125121Y-96983297D03*
D41*
X65699924Y-97483424D03*
X59900076Y-97483424D03*
%TD*%
D26*
%TO.C,R20*%
X87021273Y-74806732D03*
X87021273Y-73300000D03*
%TD*%
D21*
%TO.C,C9*%
X93684925Y-59620117D03*
X93684925Y-58779883D03*
%TD*%
D26*
%TO.C,R10*%
X88784925Y-66146634D03*
X88784925Y-67653366D03*
%TD*%
D28*
%TO.C,JP7*%
X108750000Y-83400000D03*
D29*
X108750000Y-82100000D03*
%TD*%
D21*
%TO.C,C2*%
X94284925Y-67173483D03*
X94284925Y-66333249D03*
%TD*%
D42*
%TO.C,C5*%
X80350000Y-69599975D03*
X80350000Y-71000025D03*
%TD*%
D34*
%TO.C,C8*%
X81605017Y-61950318D03*
X80764783Y-61950318D03*
%TD*%
D43*
%TO.C,P1*%
X102752477Y-89161335D03*
X103251588Y-89161335D03*
X103751969Y-89161335D03*
X104252350Y-89161335D03*
X104752731Y-89161335D03*
X105253112Y-89161335D03*
X105753493Y-89161335D03*
X106252604Y-89161335D03*
X106751715Y-89161335D03*
X107252096Y-89161335D03*
D44*
X101050419Y-91908605D03*
X108949581Y-91839771D03*
%TD*%
D45*
%TO.C,TP1*%
X69400000Y-101100000D03*
%TD*%
D26*
%TO.C,R16*%
X92884925Y-66500000D03*
X92884925Y-68006732D03*
%TD*%
D21*
%TO.C,C15*%
X94284925Y-73940234D03*
X94284925Y-73100000D03*
%TD*%
D46*
%TO.C,U6*%
X84128513Y-61824865D03*
X84128513Y-62324993D03*
X84128513Y-62824865D03*
X84128513Y-63324993D03*
X86003545Y-63324993D03*
X86003545Y-62824865D03*
X86003545Y-62324993D03*
X86003545Y-61824865D03*
D47*
X85066029Y-62574929D03*
%TD*%
D48*
%TO.C,U10*%
X80085001Y-66500000D03*
X81984925Y-66500000D03*
X81034963Y-64500000D03*
%TD*%
D49*
%TO.C,H4*%
X157000000Y-101000000D03*
%TD*%
D28*
%TO.C,JP10*%
X116250000Y-83400000D03*
D29*
X116250000Y-82100000D03*
%TD*%
D49*
%TO.C,H2*%
X157000000Y-53000000D03*
%TD*%
D45*
%TO.C,TP2*%
X69400000Y-96300000D03*
%TD*%
D26*
%TO.C,R14*%
X91284925Y-74806732D03*
X91284925Y-73300000D03*
%TD*%
D34*
%TO.C,C16*%
X84079883Y-74100000D03*
X84920117Y-74100000D03*
%TD*%
D28*
%TO.C,JP4*%
X101250000Y-83400000D03*
D29*
X101250000Y-82100000D03*
%TD*%
D50*
%TO.C,J1*%
X72265000Y-101000000D03*
X74805000Y-101000000D03*
X77345000Y-101000000D03*
X79885000Y-101000000D03*
X82425000Y-101000000D03*
X84965000Y-101000000D03*
X87505000Y-101000000D03*
X90045000Y-101000000D03*
X92585000Y-101000000D03*
D51*
X95125000Y-101000000D03*
%TD*%
D52*
%TO.C,U7*%
X70885192Y-68417558D03*
X71835154Y-68417558D03*
X72785116Y-68417558D03*
D53*
X72785116Y-66110218D03*
X70885192Y-66110218D03*
%TD*%
D28*
%TO.C,JP6*%
X106250000Y-83400000D03*
D29*
X106250000Y-82100000D03*
%TD*%
D49*
%TO.C,H3*%
X53000000Y-101000000D03*
%TD*%
D34*
%TO.C,C6*%
X72900000Y-69867558D03*
X72059766Y-69867558D03*
%TD*%
D27*
%TO.C,C19*%
X105549975Y-79900000D03*
X106950025Y-79900000D03*
%TD*%
D26*
%TO.C,R11*%
X91284925Y-66500000D03*
X91284925Y-68006732D03*
%TD*%
%TO.C,R18*%
X92884925Y-70046634D03*
X92884925Y-71553366D03*
%TD*%
D34*
%TO.C,C12*%
X101720117Y-80400000D03*
X100879883Y-80400000D03*
%TD*%
D26*
%TO.C,R7*%
X75184925Y-68600000D03*
X75184925Y-67093268D03*
%TD*%
%TO.C,R2*%
X64200000Y-94300000D03*
X64200000Y-92793268D03*
%TD*%
D54*
%TO.C,SW5*%
X60300000Y-53600000D03*
X65300000Y-53600000D03*
X58100000Y-66300000D03*
X62800000Y-66300000D03*
X67500000Y-66300000D03*
%TD*%
D21*
%TO.C,C3*%
X86034887Y-71645136D03*
X86034887Y-70804902D03*
%TD*%
D55*
%TO.C,U1*%
X84134963Y-69325019D03*
X85084925Y-69325019D03*
X86034887Y-69325019D03*
X86034887Y-66624993D03*
X85084925Y-66624993D03*
X84134963Y-66624993D03*
%TD*%
D28*
%TO.C,JP1*%
X93750000Y-83400000D03*
D29*
X93750000Y-82100000D03*
%TD*%
D34*
%TO.C,C13*%
X79929883Y-72550000D03*
X80770117Y-72550000D03*
%TD*%
D32*
%TO.C,JP12*%
X72150000Y-57700000D03*
D33*
X70850000Y-57700000D03*
%TD*%
D26*
%TO.C,R4*%
X70926849Y-64467558D03*
X70926849Y-62960826D03*
%TD*%
%TO.C,R17*%
X89484925Y-64200000D03*
X89484925Y-62693268D03*
%TD*%
D28*
%TO.C,JP8*%
X111250000Y-83400000D03*
D29*
X111250000Y-82100000D03*
%TD*%
D56*
%TO.C,U9*%
X76784925Y-62000585D03*
X76784925Y-62949785D03*
X76784925Y-63900000D03*
X79384875Y-63900000D03*
X79384875Y-62000585D03*
%TD*%
D49*
%TO.C,H1*%
X53000000Y-53000000D03*
%TD*%
D21*
%TO.C,C14*%
X94284925Y-69900000D03*
X94284925Y-70740234D03*
%TD*%
D57*
%TO.C,U8*%
X73824930Y-82150000D03*
X73824930Y-80150000D03*
D58*
X79675070Y-77799987D03*
X79675070Y-84500013D03*
%TD*%
D22*
%TO.C,R3*%
X90731559Y-60700000D03*
X92238291Y-60700000D03*
%TD*%
D59*
%TO.C,LED1*%
X59150000Y-94450000D03*
X59149746Y-92952006D03*
%TD*%
D26*
%TO.C,R19*%
X92884925Y-73300000D03*
X92884925Y-74806732D03*
%TD*%
D21*
%TO.C,C4*%
X84134887Y-71645136D03*
X84134887Y-70804902D03*
%TD*%
D26*
%TO.C,R1*%
X61500000Y-94300000D03*
X61500000Y-92793268D03*
%TD*%
D60*
%TO.C,ENC1*%
X65300000Y-70000000D03*
X60300000Y-70000000D03*
D61*
X68400000Y-77000000D03*
X57200000Y-77000000D03*
D60*
X62800000Y-84500000D03*
X60300000Y-84500000D03*
D62*
X65300000Y-84500000D03*
%TD*%
D63*
%TO.C,SW3*%
X150600000Y-62250000D03*
X143600000Y-63300000D03*
D64*
X148000000Y-68000000D03*
%TD*%
D63*
%TO.C,SW4*%
X150600000Y-81250000D03*
X143600000Y-82300000D03*
D64*
X148000000Y-87000000D03*
%TD*%
%LPD*%
M02*
