%TF.GenerationSoftware,KiCad,Pcbnew,8.0.1*%
%TF.CreationDate,2026-04-02T15:47:01+02:00*%
%TF.ProjectId,memory_pcb,6d656d6f-7279-45f7-9063-622e6b696361,rev?*%
%TF.SameCoordinates,Original*%
%TF.FileFunction,Copper,L2,Bot*%
%TF.FilePolarity,Positive*%
%FSLAX46Y46*%
G04 Gerber Fmt 4.6, Leading zero omitted, Abs format (unit mm)*
G04 Created by KiCad (PCBNEW 8.0.1) date 2026-04-02 15:47:01*
%MOMM*%
%LPD*%
G01*
G04 APERTURE LIST*
%TA.AperFunction,ComponentPad*%
%ADD10O,1.200000X2.000000*%
%TD*%
%TA.AperFunction,ComponentPad*%
%ADD11O,1.200000X1.800000*%
%TD*%
%TA.AperFunction,ComponentPad*%
%ADD12C,3.800000*%
%TD*%
%TA.AperFunction,ComponentPad*%
%ADD13R,1.700000X1.700000*%
%TD*%
%TA.AperFunction,ComponentPad*%
%ADD14O,1.700000X1.700000*%
%TD*%
%TA.AperFunction,ComponentPad*%
%ADD15C,3.000000*%
%TD*%
%TA.AperFunction,ComponentPad*%
%ADD16R,2.000000X2.000000*%
%TD*%
%TA.AperFunction,ComponentPad*%
%ADD17C,2.000000*%
%TD*%
%TA.AperFunction,ComponentPad*%
%ADD18R,2.000000X3.200000*%
%TD*%
%TA.AperFunction,ComponentPad*%
%ADD19C,2.500000*%
%TD*%
%TA.AperFunction,ViaPad*%
%ADD20C,0.500000*%
%TD*%
%TA.AperFunction,Conductor*%
%ADD21C,0.254000*%
%TD*%
%TA.AperFunction,Conductor*%
%ADD22C,0.508000*%
%TD*%
%TA.AperFunction,Conductor*%
%ADD23C,0.200000*%
%TD*%
G04 APERTURE END LIST*
D10*
%TO.P,U12,1,EH*%
%TO.N,GND*%
X67125121Y-96983297D03*
D11*
%TO.P,U12,2,EH*%
X67125121Y-101163129D03*
%TO.P,U12,3,EH*%
X58474879Y-101163129D03*
D10*
%TO.P,U12,4,EH*%
X58474879Y-96983297D03*
%TD*%
D12*
%TO.P,H4,1,1*%
%TO.N,GND*%
X157000000Y-101000000D03*
%TD*%
%TO.P,H2,1,1*%
%TO.N,GND*%
X157000000Y-53000000D03*
%TD*%
D13*
%TO.P,J1,1,Pin_1*%
%TO.N,GND*%
X95125000Y-101000000D03*
D14*
%TO.P,J1,2,Pin_2*%
%TO.N,+5V*%
X92585000Y-101000000D03*
%TO.P,J1,3,Pin_3*%
%TO.N,+3.3V*%
X90045000Y-101000000D03*
%TO.P,J1,4,Pin_4*%
%TO.N,/TX*%
X87505000Y-101000000D03*
%TO.P,J1,5,Pin_5*%
%TO.N,/RX*%
X84965000Y-101000000D03*
%TO.P,J1,6,Pin_6*%
%TO.N,/01*%
X82425000Y-101000000D03*
%TO.P,J1,7,Pin_7*%
%TO.N,/02*%
X79885000Y-101000000D03*
%TO.P,J1,8,Pin_8*%
%TO.N,/48*%
X77345000Y-101000000D03*
%TO.P,J1,9,Pin_9*%
%TO.N,/47*%
X74805000Y-101000000D03*
%TO.P,J1,10,Pin_10*%
%TO.N,/21*%
X72265000Y-101000000D03*
%TD*%
D12*
%TO.P,H3,1,1*%
%TO.N,GND*%
X53000000Y-101000000D03*
%TD*%
D15*
%TO.P,SW5,1,1*%
%TO.N,Net-(JP11-A)*%
X67500000Y-66300000D03*
%TO.P,SW5,2,2*%
%TO.N,/PWR_SW*%
X62800000Y-66300000D03*
%TO.P,SW5,3,3*%
%TO.N,Net-(JP12-A)*%
X58100000Y-66300000D03*
%TO.P,SW5,4,4*%
%TO.N,GND*%
X65300000Y-53600000D03*
%TO.P,SW5,5,5*%
X60300000Y-53600000D03*
%TD*%
D12*
%TO.P,H1,1,1*%
%TO.N,GND*%
X53000000Y-53000000D03*
%TD*%
D16*
%TO.P,ENC1,A,A*%
%TO.N,Net-(ENC1-PadA)*%
X65300000Y-84500000D03*
D17*
%TO.P,ENC1,B,B*%
%TO.N,Net-(ENC1-PadB)*%
X60300000Y-84500000D03*
%TO.P,ENC1,C,C*%
%TO.N,GND*%
X62800000Y-84500000D03*
D18*
%TO.P,ENC1,MP*%
%TO.N,N/C*%
X57200000Y-77000000D03*
X68400000Y-77000000D03*
D17*
%TO.P,ENC1,S1,S1*%
%TO.N,Net-(ENC1-PadS1)*%
X60300000Y-70000000D03*
%TO.P,ENC1,S2,S2*%
%TO.N,GND*%
X65300000Y-70000000D03*
%TD*%
D19*
%TO.P,SW3,1,1*%
%TO.N,Net-(R17-Pad2)*%
X143800000Y-62650000D03*
%TO.P,SW3,2,2*%
%TO.N,GND*%
X150800000Y-61600000D03*
%TD*%
%TO.P,SW4,1,1*%
%TO.N,Net-(R16-Pad2)*%
X143800000Y-81650000D03*
%TO.P,SW4,2,2*%
%TO.N,GND*%
X150800000Y-80600000D03*
%TD*%
D20*
%TO.N,GND*%
X62800000Y-64100000D03*
X99000000Y-58900000D03*
%TO.N,/TX*%
X87505000Y-97500000D03*
%TO.N,/RX*%
X84960000Y-96970000D03*
%TO.N,GND*%
X136000000Y-97600000D03*
X74000000Y-97600000D03*
X91600000Y-79500000D03*
X88600000Y-82500000D03*
X90400000Y-78300000D03*
X87400000Y-81300000D03*
X62800000Y-92800000D03*
X116000000Y-70200000D03*
X82600000Y-69200000D03*
X116000000Y-64800000D03*
X88650000Y-71450000D03*
X64500000Y-98000000D03*
X82250000Y-73200000D03*
X88250000Y-57750000D03*
X111400000Y-58500000D03*
X90950000Y-70550000D03*
X86100000Y-73150000D03*
%TO.N,+5V*%
X86829883Y-69150000D03*
X108750000Y-81000000D03*
%TO.N,+3.3V*%
X87800000Y-72550000D03*
X97500000Y-60150000D03*
X91850000Y-61000000D03*
X99300000Y-67500000D03*
X118600000Y-67500000D03*
%TO.N,/CLK*%
X104350000Y-75500000D03*
X93750000Y-81000000D03*
%TO.N,/DISP_CS*%
X98750000Y-81000000D03*
X101800000Y-75500000D03*
%TO.N,/MOSI*%
X96250000Y-81000000D03*
X103050000Y-75500000D03*
%TO.N,/SCL*%
X93800000Y-64100000D03*
X90200000Y-58750000D03*
%TO.N,/SDA*%
X93800000Y-62550000D03*
X90000000Y-57650064D03*
%TO.N,/ENC_BTN*%
X90350000Y-75200000D03*
X97425000Y-72925000D03*
%TO.N,/DISP_ON*%
X112650000Y-70350000D03*
X103750000Y-81000000D03*
%TO.N,VBUS*%
X79650000Y-74000000D03*
X79650000Y-79400000D03*
%TO.N,/D-*%
X63550000Y-97400000D03*
X61900000Y-97400000D03*
%TO.N,Net-(U2-IO0)*%
X119793000Y-78600000D03*
X119793000Y-82793000D03*
%TO.N,VBAT*%
X80600000Y-66500000D03*
X78900000Y-80100000D03*
X83500000Y-71300000D03*
X86600000Y-58700000D03*
%TO.N,Net-(LED1-K)*%
X86400000Y-75950000D03*
X86400000Y-79050000D03*
%TO.N,/PWR_SW*%
X89450000Y-68250000D03*
X93750000Y-66300000D03*
%TO.N,/BTN2*%
X97500000Y-66499923D03*
X116300000Y-66500000D03*
%TO.N,/BTN1*%
X97500000Y-65229921D03*
X117200000Y-66500000D03*
%TO.N,/ALRT*%
X95000000Y-69000000D03*
X90000000Y-60250000D03*
%TO.N,Net-(ENC1-PadA)*%
X91196634Y-69750000D03*
X93850000Y-72200000D03*
%TO.N,Net-(R16-Pad2)*%
X125700000Y-68500000D03*
X121200000Y-68500000D03*
%TO.N,Net-(R17-Pad2)*%
X121200000Y-66500000D03*
X125700000Y-66500000D03*
%TO.N,Net-(U2-EN)*%
X121500000Y-80300000D03*
X97500000Y-61400000D03*
X120400000Y-82100000D03*
X121450000Y-65400000D03*
%TD*%
D21*
%TO.N,/TX*%
X87505000Y-97500000D02*
X87505000Y-101000000D01*
%TO.N,/SCL*%
X93550000Y-64100000D02*
X93800000Y-64100000D01*
X90200000Y-58750000D02*
X90862000Y-59412000D01*
X90862000Y-59412000D02*
X90862000Y-61412000D01*
X90862000Y-61412000D02*
X93550000Y-64100000D01*
D22*
%TO.N,VBUS*%
X79650000Y-79400000D02*
X79650000Y-74000000D01*
D21*
%TO.N,/RX*%
X84960000Y-96970000D02*
X84965000Y-96975000D01*
X84965000Y-96975000D02*
X84965000Y-101000000D01*
%TO.N,Net-(U2-IO0)*%
X119793000Y-82793000D02*
X119793000Y-78600000D01*
%TO.N,Net-(U2-EN)*%
X120400000Y-82100000D02*
X120900000Y-81600000D01*
X120900000Y-81600000D02*
X120900000Y-80900000D01*
X120900000Y-80900000D02*
X121500000Y-80300000D01*
D22*
%TO.N,VBAT*%
X80600000Y-66500000D02*
X81100000Y-67000000D01*
X81100000Y-67000000D02*
X81100000Y-71300000D01*
X78900000Y-80100000D02*
X78900000Y-73500000D01*
X78900000Y-73500000D02*
X81100000Y-71300000D01*
X81100000Y-71300000D02*
X81700000Y-71300000D01*
X81700000Y-71300000D02*
X83500000Y-71300000D01*
%TO.N,+5V*%
X91650000Y-100065000D02*
X92585000Y-101000000D01*
X106550000Y-83200000D02*
X108750000Y-81000000D01*
X91650000Y-83150000D02*
X91650000Y-100065000D01*
X91700000Y-83200000D02*
X106550000Y-83200000D01*
X89550000Y-70900000D02*
X89550000Y-81050000D01*
X91650000Y-83150000D02*
X91700000Y-83200000D01*
X86829883Y-69150000D02*
X87800000Y-69150000D01*
X87800000Y-69150000D02*
X89550000Y-70900000D01*
X89550000Y-81050000D02*
X91650000Y-83150000D01*
%TO.N,+3.3V*%
X91015000Y-83413026D02*
X88915000Y-81313026D01*
X90045000Y-101000000D02*
X91015000Y-100030000D01*
X88915000Y-73665000D02*
X87800000Y-72550000D01*
X97500000Y-60150000D02*
X92700000Y-60150000D01*
X99300000Y-67500000D02*
X118600000Y-67500000D01*
X91015000Y-100030000D02*
X91015000Y-83413026D01*
X88915000Y-81313026D02*
X88915000Y-73665000D01*
X92700000Y-60150000D02*
X91850000Y-61000000D01*
D21*
%TO.N,/CLK*%
X103362000Y-74512000D02*
X104350000Y-75500000D01*
X93750000Y-81050000D02*
X93750000Y-81000000D01*
X94861185Y-81000000D02*
X101349185Y-74512000D01*
X101349185Y-74512000D02*
X103362000Y-74512000D01*
X93750000Y-81000000D02*
X94861185Y-81000000D01*
%TO.N,/DISP_CS*%
X98750000Y-81000000D02*
X98750000Y-78188816D01*
X101438816Y-75500000D02*
X101800000Y-75500000D01*
X98750000Y-78188816D02*
X101438816Y-75500000D01*
%TO.N,/MOSI*%
X102443000Y-74893000D02*
X103050000Y-75500000D01*
X96250000Y-81000000D02*
X96250000Y-80150000D01*
X101507000Y-74893000D02*
X102443000Y-74893000D01*
X96250000Y-80150000D02*
X101507000Y-74893000D01*
%TO.N,/SDA*%
X92541572Y-62550000D02*
X93800000Y-62550000D01*
X91243000Y-61251428D02*
X92541572Y-62550000D01*
X91243000Y-58893064D02*
X91243000Y-61251428D01*
X90000000Y-57650064D02*
X91243000Y-58893064D01*
%TO.N,/RX*%
X85000000Y-100965000D02*
X84965000Y-101000000D01*
%TO.N,/ENC_BTN*%
X97343000Y-73007000D02*
X97425000Y-72925000D01*
X92943000Y-73007000D02*
X97343000Y-73007000D01*
X90750000Y-75200000D02*
X92943000Y-73007000D01*
X90350000Y-75200000D02*
X90750000Y-75200000D01*
%TO.N,/TX*%
X87500000Y-100995000D02*
X87505000Y-101000000D01*
%TO.N,/DISP_ON*%
X103750000Y-81000000D02*
X103750000Y-78500000D01*
X103750000Y-78500000D02*
X111900000Y-70350000D01*
X111900000Y-70350000D02*
X112650000Y-70350000D01*
%TO.N,/D-*%
X61900000Y-97400000D02*
X63550000Y-97400000D01*
D22*
%TO.N,VBAT*%
X86600000Y-60500000D02*
X80600000Y-66500000D01*
X86600000Y-58700000D02*
X86600000Y-60500000D01*
D21*
%TO.N,Net-(LED1-K)*%
X86400000Y-79050000D02*
X86400000Y-75950000D01*
%TO.N,/PWR_SW*%
X91800000Y-68250000D02*
X93750000Y-66300000D01*
X89450000Y-68250000D02*
X91800000Y-68250000D01*
%TO.N,/BTN2*%
X115881000Y-66081000D02*
X97918923Y-66081000D01*
X97918923Y-66081000D02*
X97500000Y-66499923D01*
X116300000Y-66500000D02*
X115881000Y-66081000D01*
%TO.N,/BTN1*%
X116400000Y-65700000D02*
X117200000Y-66500000D01*
X97970079Y-65700000D02*
X116400000Y-65700000D01*
X97500000Y-65229921D02*
X97970079Y-65700000D01*
%TO.N,/ALRT*%
X90000000Y-61158428D02*
X95000000Y-66158428D01*
X90000000Y-60250000D02*
X90000000Y-61158428D01*
X95000000Y-66158428D02*
X95000000Y-69000000D01*
%TO.N,Net-(ENC1-PadA)*%
X91200000Y-69753366D02*
X91196634Y-69750000D01*
X91200000Y-69800000D02*
X91200000Y-69753366D01*
X93600000Y-72200000D02*
X91200000Y-69800000D01*
X93850000Y-72200000D02*
X93600000Y-72200000D01*
D23*
%TO.N,Net-(R16-Pad2)*%
X121200000Y-68500000D02*
X125700000Y-68500000D01*
%TO.N,Net-(R17-Pad2)*%
X121200000Y-66500000D02*
X121500000Y-66500000D01*
X121500000Y-66500000D02*
X125700000Y-66500000D01*
D21*
%TO.N,Net-(U2-EN)*%
X118000000Y-61400000D02*
X97500000Y-61400000D01*
X121450000Y-64850000D02*
X118000000Y-61400000D01*
X121450000Y-65400000D02*
X121450000Y-64850000D01*
%TD*%
%TA.AperFunction,Conductor*%
%TO.N,GND*%
G36*
X70530935Y-50500512D02*
G01*
X70532437Y-50500532D01*
X70662293Y-50502323D01*
X70674437Y-50503089D01*
X70996054Y-50539328D01*
X71009732Y-50541652D01*
X71319342Y-50612319D01*
X71324422Y-50613479D01*
X71337784Y-50617328D01*
X71642446Y-50723933D01*
X71655283Y-50729250D01*
X71852276Y-50824117D01*
X71946093Y-50869297D01*
X71958263Y-50876023D01*
X72107202Y-50969607D01*
X72231551Y-51047739D01*
X72242890Y-51055783D01*
X72339731Y-51133010D01*
X72495246Y-51257027D01*
X72505614Y-51266293D01*
X72733851Y-51494526D01*
X72743117Y-51504894D01*
X72944356Y-51757234D01*
X72952403Y-51768575D01*
X73124133Y-52041873D01*
X73130859Y-52054042D01*
X73270906Y-52344838D01*
X73276228Y-52357685D01*
X73382837Y-52662337D01*
X73386686Y-52675699D01*
X73458516Y-52990377D01*
X73460846Y-53004085D01*
X73497085Y-53325646D01*
X73497854Y-53337864D01*
X73500026Y-53499267D01*
X73500037Y-53500936D01*
X73500037Y-54500096D01*
X73502264Y-54668425D01*
X73502264Y-54668433D01*
X73502265Y-54668440D01*
X73539956Y-55003030D01*
X73539957Y-55003033D01*
X73614872Y-55331293D01*
X73614873Y-55331298D01*
X73726074Y-55649112D01*
X73726074Y-55649113D01*
X73816537Y-55836967D01*
X73872161Y-55952476D01*
X73872163Y-55952480D01*
X73872164Y-55952481D01*
X74051298Y-56237580D01*
X74261220Y-56500821D01*
X74261223Y-56500824D01*
X74499312Y-56738918D01*
X74762548Y-56948846D01*
X74762550Y-56948848D01*
X74762553Y-56948850D01*
X74762557Y-56948853D01*
X74956329Y-57070609D01*
X75047644Y-57127987D01*
X75047648Y-57127990D01*
X75047653Y-57127992D01*
X75047654Y-57127993D01*
X75351016Y-57274086D01*
X75351022Y-57274088D01*
X75668816Y-57385289D01*
X75668828Y-57385293D01*
X75997094Y-57460217D01*
X75997101Y-57460217D01*
X75997108Y-57460219D01*
X76186499Y-57481556D01*
X76331684Y-57497914D01*
X76500037Y-57500086D01*
X76500062Y-57500086D01*
X89423327Y-57500086D01*
X89490366Y-57519771D01*
X89536121Y-57572575D01*
X89546065Y-57641733D01*
X89546065Y-57641734D01*
X89544867Y-57650064D01*
X89563302Y-57778289D01*
X89617117Y-57896125D01*
X89617118Y-57896127D01*
X89701951Y-57994031D01*
X89810931Y-58064068D01*
X89935225Y-58100563D01*
X89935227Y-58100564D01*
X89935228Y-58100564D01*
X89935983Y-58100564D01*
X89936708Y-58100777D01*
X89944005Y-58101826D01*
X89943854Y-58102875D01*
X90003022Y-58120249D01*
X90023664Y-58136883D01*
X90031090Y-58144309D01*
X90064575Y-58205632D01*
X90059591Y-58275324D01*
X90017719Y-58331257D01*
X90010449Y-58336305D01*
X89901951Y-58406032D01*
X89817118Y-58503937D01*
X89817117Y-58503938D01*
X89763302Y-58621774D01*
X89744867Y-58750000D01*
X89763302Y-58878225D01*
X89817117Y-58996061D01*
X89817118Y-58996063D01*
X89901951Y-59093967D01*
X90010931Y-59164004D01*
X90135225Y-59200499D01*
X90135227Y-59200500D01*
X90135228Y-59200500D01*
X90135983Y-59200500D01*
X90136708Y-59200713D01*
X90144005Y-59201762D01*
X90143854Y-59202811D01*
X90203022Y-59220185D01*
X90223664Y-59236819D01*
X90498181Y-59511336D01*
X90531666Y-59572659D01*
X90534500Y-59599017D01*
X90534500Y-59846454D01*
X90514815Y-59913493D01*
X90462011Y-59959248D01*
X90392853Y-59969192D01*
X90329297Y-59940167D01*
X90316788Y-59927657D01*
X90298052Y-59906035D01*
X90295446Y-59904360D01*
X90189069Y-59835996D01*
X90189065Y-59835994D01*
X90189064Y-59835994D01*
X90064774Y-59799500D01*
X90064772Y-59799500D01*
X89935228Y-59799500D01*
X89935226Y-59799500D01*
X89810935Y-59835994D01*
X89810932Y-59835995D01*
X89810931Y-59835996D01*
X89759677Y-59868934D01*
X89701950Y-59906033D01*
X89617118Y-60003937D01*
X89617117Y-60003938D01*
X89563302Y-60121774D01*
X89544867Y-60250000D01*
X89563302Y-60378225D01*
X89586523Y-60429070D01*
X89617118Y-60496063D01*
X89642213Y-60525024D01*
X89671238Y-60588577D01*
X89672500Y-60606226D01*
X89672500Y-61115312D01*
X89672500Y-61201544D01*
X89694819Y-61284838D01*
X89713454Y-61317116D01*
X89737934Y-61359516D01*
X89737936Y-61359519D01*
X94056120Y-65677703D01*
X94089605Y-65739026D01*
X94084621Y-65808718D01*
X94042749Y-65864651D01*
X93977285Y-65889068D01*
X93933506Y-65884362D01*
X93814772Y-65849500D01*
X93685228Y-65849500D01*
X93685226Y-65849500D01*
X93560935Y-65885994D01*
X93560932Y-65885995D01*
X93560931Y-65885996D01*
X93526294Y-65908256D01*
X93451950Y-65956033D01*
X93367118Y-66053937D01*
X93367117Y-66053938D01*
X93313303Y-66171772D01*
X93313302Y-66171776D01*
X93302087Y-66249780D01*
X93273062Y-66313335D01*
X93267030Y-66319813D01*
X91700664Y-67886181D01*
X91639341Y-67919666D01*
X91612983Y-67922500D01*
X89810082Y-67922500D01*
X89743043Y-67902816D01*
X89719035Y-67887387D01*
X89639069Y-67835996D01*
X89639065Y-67835994D01*
X89639064Y-67835994D01*
X89514774Y-67799500D01*
X89514772Y-67799500D01*
X89385228Y-67799500D01*
X89385226Y-67799500D01*
X89260935Y-67835994D01*
X89260932Y-67835995D01*
X89260931Y-67835996D01*
X89217841Y-67863688D01*
X89151950Y-67906033D01*
X89067118Y-68003937D01*
X89067117Y-68003938D01*
X89013302Y-68121774D01*
X88994867Y-68250000D01*
X89013302Y-68378225D01*
X89047059Y-68452140D01*
X89067118Y-68496063D01*
X89151951Y-68593967D01*
X89260931Y-68664004D01*
X89385225Y-68700499D01*
X89385227Y-68700500D01*
X89385228Y-68700500D01*
X89514773Y-68700500D01*
X89514773Y-68700499D01*
X89639069Y-68664004D01*
X89743043Y-68597183D01*
X89810082Y-68577500D01*
X91843114Y-68577500D01*
X91843116Y-68577500D01*
X91926410Y-68555181D01*
X92001090Y-68512065D01*
X93726336Y-66786819D01*
X93787659Y-66753334D01*
X93814017Y-66750500D01*
X93814773Y-66750500D01*
X93814773Y-66750499D01*
X93939069Y-66714004D01*
X94048049Y-66643967D01*
X94132882Y-66546063D01*
X94186697Y-66428226D01*
X94205133Y-66300000D01*
X94186697Y-66171774D01*
X94166668Y-66127919D01*
X94156725Y-66058762D01*
X94185749Y-65995206D01*
X94244527Y-65957431D01*
X94314397Y-65957431D01*
X94367144Y-65988727D01*
X94636181Y-66257764D01*
X94669666Y-66319087D01*
X94672500Y-66345445D01*
X94672500Y-68643772D01*
X94652815Y-68710811D01*
X94642215Y-68724972D01*
X94617119Y-68753935D01*
X94617116Y-68753939D01*
X94563302Y-68871774D01*
X94544867Y-69000000D01*
X94563302Y-69128225D01*
X94590492Y-69187761D01*
X94617118Y-69246063D01*
X94701951Y-69343967D01*
X94810931Y-69414004D01*
X94935225Y-69450499D01*
X94935227Y-69450500D01*
X94935228Y-69450500D01*
X95064773Y-69450500D01*
X95064773Y-69450499D01*
X95189069Y-69414004D01*
X95298049Y-69343967D01*
X95382882Y-69246063D01*
X95436697Y-69128226D01*
X95455133Y-69000000D01*
X95436697Y-68871774D01*
X95382882Y-68753937D01*
X95370762Y-68739949D01*
X95357785Y-68724972D01*
X95328762Y-68661416D01*
X95327500Y-68643772D01*
X95327500Y-68500000D01*
X120744867Y-68500000D01*
X120763302Y-68628225D01*
X120779642Y-68664004D01*
X120817118Y-68746063D01*
X120868640Y-68805523D01*
X120901369Y-68843296D01*
X120901951Y-68843967D01*
X121010931Y-68914004D01*
X121135225Y-68950499D01*
X121135227Y-68950500D01*
X121135228Y-68950500D01*
X121264773Y-68950500D01*
X121264773Y-68950499D01*
X121389069Y-68914004D01*
X121498049Y-68843967D01*
X121498374Y-68843591D01*
X121498631Y-68843296D01*
X121499379Y-68842815D01*
X121504754Y-68838158D01*
X121505423Y-68838930D01*
X121557409Y-68805523D01*
X121592343Y-68800500D01*
X125307657Y-68800500D01*
X125374696Y-68820185D01*
X125401369Y-68843296D01*
X125401949Y-68843965D01*
X125401951Y-68843967D01*
X125510931Y-68914004D01*
X125635225Y-68950499D01*
X125635227Y-68950500D01*
X125635228Y-68950500D01*
X125764773Y-68950500D01*
X125764773Y-68950499D01*
X125889069Y-68914004D01*
X125998049Y-68843967D01*
X126082882Y-68746063D01*
X126136697Y-68628226D01*
X126155133Y-68500000D01*
X126136697Y-68371774D01*
X126082882Y-68253937D01*
X125998049Y-68156033D01*
X125889069Y-68085996D01*
X125889065Y-68085994D01*
X125889064Y-68085994D01*
X125764774Y-68049500D01*
X125764772Y-68049500D01*
X125635228Y-68049500D01*
X125635226Y-68049500D01*
X125510935Y-68085994D01*
X125510932Y-68085995D01*
X125510931Y-68085996D01*
X125455259Y-68121774D01*
X125401949Y-68156034D01*
X125401369Y-68156704D01*
X125400620Y-68157184D01*
X125395246Y-68161842D01*
X125394576Y-68161069D01*
X125342591Y-68194477D01*
X125307657Y-68199500D01*
X121592343Y-68199500D01*
X121525304Y-68179815D01*
X121498631Y-68156704D01*
X121498050Y-68156034D01*
X121498049Y-68156033D01*
X121389069Y-68085996D01*
X121389065Y-68085994D01*
X121389064Y-68085994D01*
X121264774Y-68049500D01*
X121264772Y-68049500D01*
X121135228Y-68049500D01*
X121135226Y-68049500D01*
X121010935Y-68085994D01*
X121010932Y-68085995D01*
X121010931Y-68085996D01*
X120959677Y-68118934D01*
X120901950Y-68156033D01*
X120817118Y-68253937D01*
X120817117Y-68253938D01*
X120763302Y-68371774D01*
X120744867Y-68500000D01*
X95327500Y-68500000D01*
X95327500Y-66499923D01*
X97044867Y-66499923D01*
X97063302Y-66628148D01*
X97114297Y-66739809D01*
X97117118Y-66745986D01*
X97181411Y-66820185D01*
X97201019Y-66842815D01*
X97201951Y-66843890D01*
X97310931Y-66913927D01*
X97400292Y-66940165D01*
X97435225Y-66950422D01*
X97435227Y-66950423D01*
X97435228Y-66950423D01*
X97564773Y-66950423D01*
X97564773Y-66950422D01*
X97689069Y-66913927D01*
X97798049Y-66843890D01*
X97882882Y-66745986D01*
X97936697Y-66628149D01*
X97947911Y-66550143D01*
X97976935Y-66486589D01*
X97982952Y-66480124D01*
X98018262Y-66444816D01*
X98079586Y-66411333D01*
X98105941Y-66408500D01*
X115693983Y-66408500D01*
X115761022Y-66428185D01*
X115781664Y-66444819D01*
X115817030Y-66480185D01*
X115850515Y-66541508D01*
X115852087Y-66550219D01*
X115863302Y-66628222D01*
X115863303Y-66628227D01*
X115902477Y-66714004D01*
X115917118Y-66746063D01*
X115998772Y-66840298D01*
X116027796Y-66903854D01*
X116017852Y-66973012D01*
X115972097Y-67025816D01*
X115905058Y-67045500D01*
X99240164Y-67045500D01*
X99124569Y-67076473D01*
X99124566Y-67076474D01*
X99020933Y-67136307D01*
X99020931Y-67136308D01*
X98936308Y-67220930D01*
X98919900Y-67249348D01*
X98916857Y-67254342D01*
X98915863Y-67255888D01*
X98913675Y-67260131D01*
X98876472Y-67324570D01*
X98867239Y-67359027D01*
X98865718Y-67363261D01*
X98865796Y-67363284D01*
X98862675Y-67373907D01*
X98860789Y-67383100D01*
X98845500Y-67440163D01*
X98845500Y-67486729D01*
X98844867Y-67495584D01*
X98844867Y-67504420D01*
X98845500Y-67513273D01*
X98845500Y-67559841D01*
X98860789Y-67616900D01*
X98862673Y-67626083D01*
X98865800Y-67636729D01*
X98865721Y-67636751D01*
X98867242Y-67640984D01*
X98876472Y-67675429D01*
X98876474Y-67675433D01*
X98913660Y-67739841D01*
X98915857Y-67744102D01*
X98916840Y-67745631D01*
X98919907Y-67750663D01*
X98932301Y-67772129D01*
X98936309Y-67779070D01*
X99020930Y-67863691D01*
X99124569Y-67923527D01*
X99240164Y-67954500D01*
X99240166Y-67954500D01*
X118659834Y-67954500D01*
X118659836Y-67954500D01*
X118775431Y-67923527D01*
X118879070Y-67863691D01*
X118963691Y-67779070D01*
X118980078Y-67750685D01*
X118983169Y-67745616D01*
X118984159Y-67744075D01*
X118986355Y-67739812D01*
X119023527Y-67675431D01*
X119032751Y-67641001D01*
X119034277Y-67636759D01*
X119034197Y-67636736D01*
X119037330Y-67626070D01*
X119039214Y-67616883D01*
X119054500Y-67559836D01*
X119054500Y-67513273D01*
X119054628Y-67511489D01*
X145324500Y-67511489D01*
X145360659Y-67832410D01*
X145360661Y-67832426D01*
X145432527Y-68147294D01*
X145432531Y-68147306D01*
X145539195Y-68452133D01*
X145539201Y-68452147D01*
X145679327Y-68743122D01*
X145714752Y-68799500D01*
X145851159Y-69016591D01*
X146052527Y-69269099D01*
X146280901Y-69497473D01*
X146533409Y-69698841D01*
X146806875Y-69870671D01*
X147097860Y-70010802D01*
X147097866Y-70010804D01*
X147402693Y-70117468D01*
X147402705Y-70117472D01*
X147717577Y-70189339D01*
X148038511Y-70225499D01*
X148038512Y-70225500D01*
X148038515Y-70225500D01*
X148361488Y-70225500D01*
X148361488Y-70225499D01*
X148682423Y-70189339D01*
X148997295Y-70117472D01*
X149302140Y-70010802D01*
X149593125Y-69870671D01*
X149866591Y-69698841D01*
X150119099Y-69497473D01*
X150347473Y-69269099D01*
X150548841Y-69016591D01*
X150720671Y-68743125D01*
X150860802Y-68452140D01*
X150967472Y-68147295D01*
X151039339Y-67832423D01*
X151075500Y-67511485D01*
X151075500Y-67188515D01*
X151039339Y-66867577D01*
X150967472Y-66552705D01*
X150958252Y-66526357D01*
X150865111Y-66260174D01*
X150860802Y-66247860D01*
X150720671Y-65956875D01*
X150548841Y-65683409D01*
X150347473Y-65430901D01*
X150119099Y-65202527D01*
X149866591Y-65001159D01*
X149593125Y-64829329D01*
X149593122Y-64829327D01*
X149302147Y-64689201D01*
X149302133Y-64689195D01*
X148997306Y-64582531D01*
X148997294Y-64582527D01*
X148682426Y-64510661D01*
X148682410Y-64510659D01*
X148361489Y-64474500D01*
X148361485Y-64474500D01*
X148038515Y-64474500D01*
X148038510Y-64474500D01*
X147717589Y-64510659D01*
X147717573Y-64510661D01*
X147402705Y-64582527D01*
X147402693Y-64582531D01*
X147097866Y-64689195D01*
X147097852Y-64689201D01*
X146806877Y-64829327D01*
X146533410Y-65001158D01*
X146280901Y-65202526D01*
X146052526Y-65430901D01*
X145851158Y-65683410D01*
X145679327Y-65956877D01*
X145539201Y-66247852D01*
X145539195Y-66247866D01*
X145432531Y-66552693D01*
X145432527Y-66552705D01*
X145360661Y-66867573D01*
X145360659Y-66867589D01*
X145324500Y-67188510D01*
X145324500Y-67511489D01*
X119054628Y-67511489D01*
X119055133Y-67504420D01*
X119055133Y-67495584D01*
X119054500Y-67486729D01*
X119054500Y-67440166D01*
X119054500Y-67440164D01*
X119039210Y-67383100D01*
X119037329Y-67373929D01*
X119036697Y-67371778D01*
X119036697Y-67371774D01*
X119036694Y-67371769D01*
X119034197Y-67363262D01*
X119034275Y-67363238D01*
X119032754Y-67359006D01*
X119023527Y-67324569D01*
X118986339Y-67260159D01*
X118984156Y-67255920D01*
X118983153Y-67254360D01*
X118980081Y-67249319D01*
X118963693Y-67220933D01*
X118963689Y-67220928D01*
X118879072Y-67136311D01*
X118879070Y-67136309D01*
X118775431Y-67076473D01*
X118659836Y-67045500D01*
X117594942Y-67045500D01*
X117527903Y-67025815D01*
X117482148Y-66973011D01*
X117472204Y-66903853D01*
X117501228Y-66840298D01*
X117582882Y-66746063D01*
X117636697Y-66628226D01*
X117655133Y-66500000D01*
X117636697Y-66371774D01*
X117582882Y-66253937D01*
X117498049Y-66156033D01*
X117389069Y-66085996D01*
X117389065Y-66085994D01*
X117389064Y-66085994D01*
X117264774Y-66049500D01*
X117264772Y-66049500D01*
X117264017Y-66049500D01*
X117263291Y-66049286D01*
X117255995Y-66048238D01*
X117256145Y-66047188D01*
X117196978Y-66029815D01*
X117176336Y-66013181D01*
X116601091Y-65437936D01*
X116601090Y-65437935D01*
X116526410Y-65394819D01*
X116526411Y-65394819D01*
X116498645Y-65387379D01*
X116443116Y-65372500D01*
X116443114Y-65372500D01*
X98157096Y-65372500D01*
X98090057Y-65352815D01*
X98069415Y-65336181D01*
X97982968Y-65249734D01*
X97949483Y-65188411D01*
X97947913Y-65179712D01*
X97936697Y-65101695D01*
X97895122Y-65010659D01*
X97882884Y-64983861D01*
X97882882Y-64983859D01*
X97882882Y-64983858D01*
X97798049Y-64885954D01*
X97689069Y-64815917D01*
X97689065Y-64815915D01*
X97689064Y-64815915D01*
X97564774Y-64779421D01*
X97564772Y-64779421D01*
X97435228Y-64779421D01*
X97435226Y-64779421D01*
X97310935Y-64815915D01*
X97310932Y-64815916D01*
X97310931Y-64815917D01*
X97259677Y-64848855D01*
X97201950Y-64885954D01*
X97117118Y-64983858D01*
X97117117Y-64983859D01*
X97063302Y-65101695D01*
X97044867Y-65229921D01*
X97063302Y-65358146D01*
X97096529Y-65430901D01*
X97117118Y-65475984D01*
X97201951Y-65573888D01*
X97310931Y-65643925D01*
X97435225Y-65680420D01*
X97435227Y-65680421D01*
X97435228Y-65680421D01*
X97435983Y-65680421D01*
X97436708Y-65680634D01*
X97444005Y-65681683D01*
X97443854Y-65682732D01*
X97503022Y-65700106D01*
X97523664Y-65716740D01*
X97584165Y-65777241D01*
X97617650Y-65838564D01*
X97612666Y-65908256D01*
X97584165Y-65952603D01*
X97523664Y-66013104D01*
X97462341Y-66046589D01*
X97435983Y-66049423D01*
X97435226Y-66049423D01*
X97310935Y-66085917D01*
X97310932Y-66085918D01*
X97310931Y-66085919D01*
X97265193Y-66115313D01*
X97201950Y-66155956D01*
X97117118Y-66253860D01*
X97117117Y-66253861D01*
X97063302Y-66371697D01*
X97044867Y-66499923D01*
X95327500Y-66499923D01*
X95327500Y-66115313D01*
X95327500Y-66115312D01*
X95305181Y-66032018D01*
X95262065Y-65957338D01*
X95201090Y-65896363D01*
X93994178Y-64689451D01*
X93960693Y-64628128D01*
X93965677Y-64558436D01*
X94007549Y-64502503D01*
X94014802Y-64497465D01*
X94098049Y-64443967D01*
X94182882Y-64346063D01*
X94236697Y-64228226D01*
X94255133Y-64100000D01*
X94236697Y-63971774D01*
X94182882Y-63853937D01*
X94098049Y-63756033D01*
X93989069Y-63685996D01*
X93989065Y-63685994D01*
X93989064Y-63685994D01*
X93864774Y-63649500D01*
X93864772Y-63649500D01*
X93735228Y-63649500D01*
X93735226Y-63649500D01*
X93672416Y-63667942D01*
X93602546Y-63667942D01*
X93549801Y-63636646D01*
X93002336Y-63089181D01*
X92968851Y-63027858D01*
X92973835Y-62958166D01*
X93015707Y-62902233D01*
X93081171Y-62877816D01*
X93090017Y-62877500D01*
X93439918Y-62877500D01*
X93506956Y-62897183D01*
X93610931Y-62964004D01*
X93735225Y-63000499D01*
X93735227Y-63000500D01*
X93735228Y-63000500D01*
X93864773Y-63000500D01*
X93864773Y-63000499D01*
X93989069Y-62964004D01*
X94098049Y-62893967D01*
X94182882Y-62796063D01*
X94236697Y-62678226D01*
X94255133Y-62550000D01*
X94236697Y-62421774D01*
X94182882Y-62303937D01*
X94098049Y-62206033D01*
X93989069Y-62135996D01*
X93989065Y-62135994D01*
X93989064Y-62135994D01*
X93864774Y-62099500D01*
X93864772Y-62099500D01*
X93735228Y-62099500D01*
X93735226Y-62099500D01*
X93610935Y-62135994D01*
X93610932Y-62135995D01*
X93610931Y-62135996D01*
X93506957Y-62202816D01*
X93439918Y-62222500D01*
X92728589Y-62222500D01*
X92661550Y-62202815D01*
X92640908Y-62186181D01*
X92046392Y-61591665D01*
X92012907Y-61530342D01*
X92017891Y-61460650D01*
X92059763Y-61404717D01*
X92066913Y-61400000D01*
X97044867Y-61400000D01*
X97063302Y-61528225D01*
X97086571Y-61579175D01*
X97117118Y-61646063D01*
X97201951Y-61743967D01*
X97310931Y-61814004D01*
X97327153Y-61818767D01*
X97435225Y-61850499D01*
X97435227Y-61850500D01*
X97435228Y-61850500D01*
X97564773Y-61850500D01*
X97564773Y-61850499D01*
X97689069Y-61814004D01*
X97793043Y-61747183D01*
X97860082Y-61727500D01*
X117812983Y-61727500D01*
X117880022Y-61747185D01*
X117900664Y-61763819D01*
X121086181Y-64949336D01*
X121119666Y-65010659D01*
X121122500Y-65037017D01*
X121122500Y-65043772D01*
X121102815Y-65110811D01*
X121092215Y-65124972D01*
X121067119Y-65153935D01*
X121067116Y-65153939D01*
X121013302Y-65271774D01*
X120994867Y-65400000D01*
X121013302Y-65528225D01*
X121027865Y-65560112D01*
X121067118Y-65646063D01*
X121151951Y-65743967D01*
X121260931Y-65814004D01*
X121260933Y-65814004D01*
X121268392Y-65818798D01*
X121267221Y-65820618D01*
X121310895Y-65858465D01*
X121330577Y-65925505D01*
X121310889Y-65992544D01*
X121258083Y-66038297D01*
X121206577Y-66049500D01*
X121135226Y-66049500D01*
X121010935Y-66085994D01*
X121010932Y-66085995D01*
X121010931Y-66085996D01*
X120965314Y-66115312D01*
X120901950Y-66156033D01*
X120817118Y-66253937D01*
X120817117Y-66253938D01*
X120763302Y-66371774D01*
X120744867Y-66500000D01*
X120763302Y-66628225D01*
X120802477Y-66714004D01*
X120817118Y-66746063D01*
X120866133Y-66802630D01*
X120901369Y-66843296D01*
X120901951Y-66843967D01*
X121010931Y-66914004D01*
X121134966Y-66950423D01*
X121135225Y-66950499D01*
X121135227Y-66950500D01*
X121135228Y-66950500D01*
X121264773Y-66950500D01*
X121264773Y-66950499D01*
X121389069Y-66914004D01*
X121498049Y-66843967D01*
X121498374Y-66843591D01*
X121498631Y-66843296D01*
X121499379Y-66842815D01*
X121504754Y-66838158D01*
X121505423Y-66838930D01*
X121557409Y-66805523D01*
X121592343Y-66800500D01*
X125307657Y-66800500D01*
X125374696Y-66820185D01*
X125401369Y-66843296D01*
X125401883Y-66843889D01*
X125401951Y-66843967D01*
X125510931Y-66914004D01*
X125634966Y-66950423D01*
X125635225Y-66950499D01*
X125635227Y-66950500D01*
X125635228Y-66950500D01*
X125764773Y-66950500D01*
X125764773Y-66950499D01*
X125889069Y-66914004D01*
X125998049Y-66843967D01*
X126082882Y-66746063D01*
X126136697Y-66628226D01*
X126155133Y-66500000D01*
X126136697Y-66371774D01*
X126082882Y-66253937D01*
X125998049Y-66156033D01*
X125889069Y-66085996D01*
X125889065Y-66085994D01*
X125889064Y-66085994D01*
X125764774Y-66049500D01*
X125764772Y-66049500D01*
X125635228Y-66049500D01*
X125635226Y-66049500D01*
X125510935Y-66085994D01*
X125510932Y-66085995D01*
X125510931Y-66085996D01*
X125465313Y-66115313D01*
X125401949Y-66156034D01*
X125401369Y-66156704D01*
X125400620Y-66157184D01*
X125395246Y-66161842D01*
X125394576Y-66161069D01*
X125342591Y-66194477D01*
X125307657Y-66199500D01*
X121592343Y-66199500D01*
X121525304Y-66179815D01*
X121498631Y-66156704D01*
X121498050Y-66156034D01*
X121498049Y-66156033D01*
X121389069Y-66085996D01*
X121389066Y-66085995D01*
X121381608Y-66081202D01*
X121382778Y-66079381D01*
X121339105Y-66041535D01*
X121319423Y-65974495D01*
X121339111Y-65907456D01*
X121391917Y-65861703D01*
X121443423Y-65850500D01*
X121514773Y-65850500D01*
X121514773Y-65850499D01*
X121639069Y-65814004D01*
X121748049Y-65743967D01*
X121832882Y-65646063D01*
X121886697Y-65528226D01*
X121905133Y-65400000D01*
X121886697Y-65271774D01*
X121832882Y-65153937D01*
X121825345Y-65145238D01*
X121807785Y-65124972D01*
X121778762Y-65061416D01*
X121777500Y-65043772D01*
X121777500Y-64806885D01*
X121770141Y-64779421D01*
X121755181Y-64723590D01*
X121712065Y-64648910D01*
X121651090Y-64587935D01*
X119713160Y-62650005D01*
X142344529Y-62650005D01*
X142364379Y-62889559D01*
X142423389Y-63122589D01*
X142519951Y-63342729D01*
X142651427Y-63543966D01*
X142651429Y-63543969D01*
X142814236Y-63720825D01*
X142814239Y-63720827D01*
X142814242Y-63720830D01*
X143003924Y-63868466D01*
X143003930Y-63868470D01*
X143003933Y-63868472D01*
X143215344Y-63982882D01*
X143215347Y-63982883D01*
X143442699Y-64060933D01*
X143442701Y-64060933D01*
X143442703Y-64060934D01*
X143679808Y-64100500D01*
X143679809Y-64100500D01*
X143920191Y-64100500D01*
X143920192Y-64100500D01*
X144157297Y-64060934D01*
X144384656Y-63982882D01*
X144596067Y-63868472D01*
X144614741Y-63853938D01*
X144659768Y-63818891D01*
X144785764Y-63720825D01*
X144948571Y-63543969D01*
X145080049Y-63342728D01*
X145176610Y-63122591D01*
X145235620Y-62889563D01*
X145253132Y-62678226D01*
X145255471Y-62650005D01*
X145255471Y-62649994D01*
X145235620Y-62410440D01*
X145235620Y-62410437D01*
X145176610Y-62177409D01*
X145080049Y-61957272D01*
X145077619Y-61953553D01*
X144989559Y-61818767D01*
X144948571Y-61756031D01*
X144804938Y-61600004D01*
X149045093Y-61600004D01*
X149064692Y-61861545D01*
X149064693Y-61861550D01*
X149123058Y-62117270D01*
X149218883Y-62361426D01*
X149218882Y-62361426D01*
X149350027Y-62588573D01*
X149397874Y-62648571D01*
X150122421Y-61924024D01*
X150135359Y-61955258D01*
X150217437Y-62078097D01*
X150321903Y-62182563D01*
X150444742Y-62264641D01*
X150475974Y-62277577D01*
X149750830Y-63002720D01*
X149922546Y-63119793D01*
X149922550Y-63119795D01*
X150158854Y-63233594D01*
X150158858Y-63233595D01*
X150409494Y-63310907D01*
X150409500Y-63310909D01*
X150668848Y-63349999D01*
X150668857Y-63350000D01*
X150931143Y-63350000D01*
X150931151Y-63349999D01*
X151190499Y-63310909D01*
X151190505Y-63310907D01*
X151441143Y-63233595D01*
X151677445Y-63119798D01*
X151677447Y-63119797D01*
X151849168Y-63002720D01*
X151124025Y-62277578D01*
X151155258Y-62264641D01*
X151278097Y-62182563D01*
X151382563Y-62078097D01*
X151464641Y-61955258D01*
X151477578Y-61924025D01*
X152202125Y-62648572D01*
X152249971Y-62588573D01*
X152381116Y-62361426D01*
X152476941Y-62117270D01*
X152535306Y-61861550D01*
X152535307Y-61861545D01*
X152554907Y-61600004D01*
X152554907Y-61599995D01*
X152535307Y-61338454D01*
X152535306Y-61338449D01*
X152476941Y-61082729D01*
X152381116Y-60838573D01*
X152381117Y-60838573D01*
X152249972Y-60611426D01*
X152202124Y-60551427D01*
X151477577Y-61275973D01*
X151464641Y-61244742D01*
X151382563Y-61121903D01*
X151278097Y-61017437D01*
X151155258Y-60935359D01*
X151124025Y-60922421D01*
X151849168Y-60197278D01*
X151677454Y-60080206D01*
X151677445Y-60080201D01*
X151441142Y-59966404D01*
X151441144Y-59966404D01*
X151190505Y-59889092D01*
X151190499Y-59889090D01*
X150931151Y-59850000D01*
X150668848Y-59850000D01*
X150409500Y-59889090D01*
X150409494Y-59889092D01*
X150158858Y-59966404D01*
X150158854Y-59966405D01*
X149922547Y-60080205D01*
X149922539Y-60080210D01*
X149750830Y-60197277D01*
X150475974Y-60922421D01*
X150444742Y-60935359D01*
X150321903Y-61017437D01*
X150217437Y-61121903D01*
X150135359Y-61244742D01*
X150122422Y-61275974D01*
X149397874Y-60551427D01*
X149350028Y-60611425D01*
X149218883Y-60838573D01*
X149123058Y-61082729D01*
X149064693Y-61338449D01*
X149064692Y-61338454D01*
X149045093Y-61599995D01*
X149045093Y-61600004D01*
X144804938Y-61600004D01*
X144785764Y-61579175D01*
X144785759Y-61579171D01*
X144785757Y-61579169D01*
X144596075Y-61431533D01*
X144596069Y-61431529D01*
X144384657Y-61317118D01*
X144384652Y-61317116D01*
X144157300Y-61239066D01*
X143979468Y-61209391D01*
X143920192Y-61199500D01*
X143679808Y-61199500D01*
X143632387Y-61207413D01*
X143442699Y-61239066D01*
X143215347Y-61317116D01*
X143215342Y-61317118D01*
X143003930Y-61431529D01*
X143003924Y-61431533D01*
X142814242Y-61579169D01*
X142814239Y-61579172D01*
X142651430Y-61756029D01*
X142651427Y-61756033D01*
X142519951Y-61957270D01*
X142423389Y-62177410D01*
X142364379Y-62410440D01*
X142344529Y-62649994D01*
X142344529Y-62650005D01*
X119713160Y-62650005D01*
X118201090Y-61137935D01*
X118126410Y-61094819D01*
X118126411Y-61094819D01*
X118081290Y-61082729D01*
X118043116Y-61072500D01*
X118043114Y-61072500D01*
X97860082Y-61072500D01*
X97793043Y-61052816D01*
X97689069Y-60985996D01*
X97689065Y-60985994D01*
X97689064Y-60985994D01*
X97564774Y-60949500D01*
X97564772Y-60949500D01*
X97435228Y-60949500D01*
X97435226Y-60949500D01*
X97310935Y-60985994D01*
X97310932Y-60985995D01*
X97310931Y-60985996D01*
X97262008Y-61017437D01*
X97201950Y-61056033D01*
X97117118Y-61153937D01*
X97117117Y-61153938D01*
X97063302Y-61271774D01*
X97044867Y-61400000D01*
X92066913Y-61400000D01*
X92072067Y-61396600D01*
X92129070Y-61363690D01*
X92851941Y-60640819D01*
X92913264Y-60607334D01*
X92939622Y-60604500D01*
X97559834Y-60604500D01*
X97559836Y-60604500D01*
X97675431Y-60573527D01*
X97779070Y-60513691D01*
X97863691Y-60429070D01*
X97880078Y-60400685D01*
X97883169Y-60395616D01*
X97884159Y-60394075D01*
X97886355Y-60389812D01*
X97923527Y-60325431D01*
X97932751Y-60291001D01*
X97934277Y-60286759D01*
X97934197Y-60286736D01*
X97937330Y-60276070D01*
X97939214Y-60266883D01*
X97943738Y-60250000D01*
X97954500Y-60209836D01*
X97954500Y-60163273D01*
X97955133Y-60154420D01*
X97955133Y-60145584D01*
X97954500Y-60136729D01*
X97954500Y-60090166D01*
X97954500Y-60090164D01*
X97939211Y-60033104D01*
X97937329Y-60023929D01*
X97936697Y-60021778D01*
X97936697Y-60021774D01*
X97936694Y-60021769D01*
X97934197Y-60013262D01*
X97934275Y-60013238D01*
X97932754Y-60009006D01*
X97923527Y-59974569D01*
X97886339Y-59910159D01*
X97884156Y-59905920D01*
X97883153Y-59904360D01*
X97880081Y-59899319D01*
X97863693Y-59870933D01*
X97863689Y-59870928D01*
X97779072Y-59786311D01*
X97779070Y-59786309D01*
X97675431Y-59726473D01*
X97559836Y-59695500D01*
X97559835Y-59695500D01*
X92767448Y-59695500D01*
X92767432Y-59695499D01*
X92759836Y-59695499D01*
X92640164Y-59695499D01*
X92524567Y-59726472D01*
X92493333Y-59744507D01*
X92493331Y-59744508D01*
X92420933Y-59786307D01*
X92420927Y-59786311D01*
X91782181Y-60425058D01*
X91720858Y-60458543D01*
X91651166Y-60453559D01*
X91595233Y-60411687D01*
X91570816Y-60346223D01*
X91570500Y-60337377D01*
X91570500Y-58849950D01*
X91570500Y-58849948D01*
X91548181Y-58766653D01*
X91505065Y-58691974D01*
X90524858Y-57711767D01*
X90491373Y-57650444D01*
X90496357Y-57580752D01*
X90538229Y-57524819D01*
X90603693Y-57500402D01*
X90612539Y-57500086D01*
X133500052Y-57500086D01*
X133668385Y-57497765D01*
X134002949Y-57460066D01*
X134002949Y-57460065D01*
X134002957Y-57460065D01*
X134331207Y-57385143D01*
X134649004Y-57273939D01*
X134952352Y-57127853D01*
X135237437Y-56948722D01*
X135500672Y-56738798D01*
X135738749Y-56500721D01*
X135948673Y-56237486D01*
X136127804Y-55952401D01*
X136273890Y-55649053D01*
X136385094Y-55331256D01*
X136460016Y-55003006D01*
X136460017Y-55002998D01*
X136497716Y-54668434D01*
X136500037Y-54500101D01*
X136500037Y-53500898D01*
X136500048Y-53499255D01*
X136502186Y-53337857D01*
X136502954Y-53325645D01*
X136539185Y-53004066D01*
X136541514Y-52990361D01*
X136550743Y-52949927D01*
X136613339Y-52675666D01*
X136617180Y-52662332D01*
X136723798Y-52357634D01*
X136729110Y-52344811D01*
X136869162Y-52053988D01*
X136875877Y-52041837D01*
X137047620Y-51768509D01*
X137055650Y-51757191D01*
X137256915Y-51504811D01*
X137266164Y-51494463D01*
X137494414Y-51266213D01*
X137504762Y-51256964D01*
X137757142Y-51055699D01*
X137768460Y-51047669D01*
X138041788Y-50875926D01*
X138053939Y-50869211D01*
X138344762Y-50729159D01*
X138357585Y-50723847D01*
X138662283Y-50617229D01*
X138675617Y-50613388D01*
X138990316Y-50541562D01*
X139004017Y-50539234D01*
X139325596Y-50503003D01*
X139337809Y-50502235D01*
X139464348Y-50500558D01*
X139467968Y-50500511D01*
X139469610Y-50500500D01*
X156143454Y-50500500D01*
X156210493Y-50520185D01*
X156256248Y-50572989D01*
X156266192Y-50642147D01*
X156237167Y-50705703D01*
X156189101Y-50739792D01*
X155976117Y-50824117D01*
X155976109Y-50824121D01*
X155711476Y-50969604D01*
X155711471Y-50969607D01*
X155486565Y-51133010D01*
X155486564Y-51133011D01*
X156417262Y-52063709D01*
X156283398Y-52160967D01*
X156160967Y-52283398D01*
X156063709Y-52417262D01*
X155135311Y-51488864D01*
X155054520Y-51586525D01*
X155054518Y-51586528D01*
X154892707Y-51841502D01*
X154892704Y-51841508D01*
X154764127Y-52114747D01*
X154764125Y-52114752D01*
X154670805Y-52401959D01*
X154614216Y-52698609D01*
X154614215Y-52698616D01*
X154595255Y-52999994D01*
X154595255Y-53000005D01*
X154614215Y-53301380D01*
X154670805Y-53598040D01*
X154764125Y-53885247D01*
X154764127Y-53885252D01*
X154892704Y-54158491D01*
X154892707Y-54158497D01*
X155054516Y-54413469D01*
X155135311Y-54511133D01*
X156063708Y-53582736D01*
X156160967Y-53716602D01*
X156283398Y-53839033D01*
X156417262Y-53936290D01*
X155486564Y-54866987D01*
X155486565Y-54866989D01*
X155711461Y-55030385D01*
X155711479Y-55030397D01*
X155976109Y-55175878D01*
X155976117Y-55175882D01*
X156256889Y-55287047D01*
X156256892Y-55287048D01*
X156549399Y-55362150D01*
X156848995Y-55399999D01*
X156849007Y-55400000D01*
X157150993Y-55400000D01*
X157151004Y-55399999D01*
X157450600Y-55362150D01*
X157743107Y-55287048D01*
X157743110Y-55287047D01*
X158023882Y-55175882D01*
X158023890Y-55175878D01*
X158288520Y-55030397D01*
X158288530Y-55030390D01*
X158513433Y-54866987D01*
X158513434Y-54866987D01*
X157582737Y-53936290D01*
X157716602Y-53839033D01*
X157839033Y-53716602D01*
X157936290Y-53582737D01*
X158864687Y-54511134D01*
X158945486Y-54413464D01*
X159107292Y-54158497D01*
X159107295Y-54158491D01*
X159235872Y-53885252D01*
X159235874Y-53885247D01*
X159257569Y-53818479D01*
X159297006Y-53760804D01*
X159361365Y-53733605D01*
X159430211Y-53745520D01*
X159481687Y-53792764D01*
X159499500Y-53856797D01*
X159499500Y-100143202D01*
X159479815Y-100210241D01*
X159427011Y-100255996D01*
X159357853Y-100265940D01*
X159294297Y-100236915D01*
X159257569Y-100181520D01*
X159235874Y-100114752D01*
X159235872Y-100114747D01*
X159107295Y-99841507D01*
X159107292Y-99841502D01*
X158945483Y-99586530D01*
X158864686Y-99488864D01*
X157936289Y-100417261D01*
X157839033Y-100283398D01*
X157716602Y-100160967D01*
X157582736Y-100063709D01*
X158513434Y-99133011D01*
X158513433Y-99133009D01*
X158288538Y-98969614D01*
X158288520Y-98969602D01*
X158023890Y-98824121D01*
X158023882Y-98824117D01*
X157743110Y-98712952D01*
X157743107Y-98712951D01*
X157450600Y-98637849D01*
X157151004Y-98600000D01*
X156848995Y-98600000D01*
X156549399Y-98637849D01*
X156256892Y-98712951D01*
X156256889Y-98712952D01*
X155976117Y-98824117D01*
X155976109Y-98824121D01*
X155711476Y-98969604D01*
X155711471Y-98969607D01*
X155486565Y-99133010D01*
X155486564Y-99133011D01*
X156417262Y-100063709D01*
X156283398Y-100160967D01*
X156160967Y-100283398D01*
X156063709Y-100417262D01*
X155135311Y-99488864D01*
X155054520Y-99586525D01*
X155054518Y-99586528D01*
X154892707Y-99841502D01*
X154892705Y-99841507D01*
X154764127Y-100114747D01*
X154764125Y-100114752D01*
X154670805Y-100401959D01*
X154614216Y-100698609D01*
X154614215Y-100698616D01*
X154595255Y-100999994D01*
X154595255Y-101000005D01*
X154614215Y-101301383D01*
X154614216Y-101301390D01*
X154670805Y-101598040D01*
X154764125Y-101885247D01*
X154764127Y-101885252D01*
X154892704Y-102158491D01*
X154892707Y-102158497D01*
X155054516Y-102413469D01*
X155135311Y-102511133D01*
X156063708Y-101582736D01*
X156160967Y-101716602D01*
X156283398Y-101839033D01*
X156417262Y-101936290D01*
X155486564Y-102866987D01*
X155486565Y-102866989D01*
X155711461Y-103030385D01*
X155711479Y-103030397D01*
X155976109Y-103175878D01*
X155976117Y-103175882D01*
X156189101Y-103260208D01*
X156244187Y-103303189D01*
X156267290Y-103369128D01*
X156251077Y-103437090D01*
X156200694Y-103485498D01*
X156143454Y-103499500D01*
X112005413Y-103499500D01*
X111994605Y-103499028D01*
X111837246Y-103485260D01*
X111815961Y-103481507D01*
X111668630Y-103442030D01*
X111648318Y-103434637D01*
X111510084Y-103370177D01*
X111491366Y-103359370D01*
X111366417Y-103271880D01*
X111349859Y-103257986D01*
X111242013Y-103150140D01*
X111228119Y-103133582D01*
X111140629Y-103008633D01*
X111129822Y-102989915D01*
X111065362Y-102851681D01*
X111057969Y-102831369D01*
X111018492Y-102684038D01*
X111014739Y-102662752D01*
X111014277Y-102657475D01*
X111003758Y-102537243D01*
X111000972Y-102505393D01*
X111000500Y-102494586D01*
X111000500Y-99434110D01*
X111000500Y-99434108D01*
X110966392Y-99306814D01*
X110900500Y-99192686D01*
X110807314Y-99099500D01*
X110750250Y-99066554D01*
X110693187Y-99033608D01*
X110629539Y-99016554D01*
X110565892Y-98999500D01*
X99565892Y-98999500D01*
X99434108Y-98999500D01*
X99306812Y-99033608D01*
X99192686Y-99099500D01*
X99192683Y-99099502D01*
X99099502Y-99192683D01*
X99099500Y-99192686D01*
X99033608Y-99306812D01*
X98999500Y-99434108D01*
X98999500Y-102494586D01*
X98999028Y-102505394D01*
X98985260Y-102662753D01*
X98981507Y-102684038D01*
X98942030Y-102831369D01*
X98934637Y-102851681D01*
X98870177Y-102989915D01*
X98859370Y-103008633D01*
X98771880Y-103133582D01*
X98757986Y-103150140D01*
X98650140Y-103257986D01*
X98633582Y-103271880D01*
X98508633Y-103359370D01*
X98489915Y-103370177D01*
X98351681Y-103434637D01*
X98331369Y-103442030D01*
X98184038Y-103481507D01*
X98162753Y-103485260D01*
X98005395Y-103499028D01*
X97994587Y-103499500D01*
X53856546Y-103499500D01*
X53789507Y-103479815D01*
X53743752Y-103427011D01*
X53733808Y-103357853D01*
X53762833Y-103294297D01*
X53810899Y-103260208D01*
X54023882Y-103175882D01*
X54023890Y-103175878D01*
X54288520Y-103030397D01*
X54288530Y-103030390D01*
X54513433Y-102866987D01*
X54513434Y-102866987D01*
X53582737Y-101936290D01*
X53716602Y-101839033D01*
X53839033Y-101716602D01*
X53936290Y-101582737D01*
X54864687Y-102511134D01*
X54945486Y-102413464D01*
X55107292Y-102158497D01*
X55107295Y-102158491D01*
X55235872Y-101885252D01*
X55235874Y-101885247D01*
X55329194Y-101598040D01*
X55338415Y-101549700D01*
X57374879Y-101549700D01*
X57401964Y-101720713D01*
X57455470Y-101885386D01*
X57534074Y-102039653D01*
X57635846Y-102179731D01*
X57758276Y-102302161D01*
X57898354Y-102403933D01*
X58052623Y-102482537D01*
X58217294Y-102536043D01*
X58217293Y-102536043D01*
X58224878Y-102537244D01*
X58224879Y-102537243D01*
X58224879Y-101778815D01*
X58229273Y-101783209D01*
X58320485Y-101835870D01*
X58422218Y-101863129D01*
X58527540Y-101863129D01*
X58629273Y-101835870D01*
X58720485Y-101783209D01*
X58724879Y-101778815D01*
X58724879Y-102537244D01*
X58732463Y-102536043D01*
X58897134Y-102482537D01*
X59051403Y-102403933D01*
X59191481Y-102302161D01*
X59313911Y-102179731D01*
X59415683Y-102039653D01*
X59494287Y-101885386D01*
X59547793Y-101720713D01*
X59574879Y-101549700D01*
X66025121Y-101549700D01*
X66052206Y-101720713D01*
X66105712Y-101885386D01*
X66184316Y-102039653D01*
X66286088Y-102179731D01*
X66408518Y-102302161D01*
X66548596Y-102403933D01*
X66702865Y-102482537D01*
X66867536Y-102536043D01*
X66867535Y-102536043D01*
X66875120Y-102537244D01*
X66875121Y-102537243D01*
X66875121Y-101778815D01*
X66879515Y-101783209D01*
X66970727Y-101835870D01*
X67072460Y-101863129D01*
X67177782Y-101863129D01*
X67279515Y-101835870D01*
X67370727Y-101783209D01*
X67375121Y-101778815D01*
X67375121Y-102537244D01*
X67382705Y-102536043D01*
X67547376Y-102482537D01*
X67701645Y-102403933D01*
X67841723Y-102302161D01*
X67964153Y-102179731D01*
X68065925Y-102039653D01*
X68144529Y-101885386D01*
X68198035Y-101720713D01*
X68225121Y-101549700D01*
X68225121Y-101413129D01*
X67525121Y-101413129D01*
X67525121Y-101000000D01*
X71209417Y-101000000D01*
X71229699Y-101205932D01*
X71258623Y-101301281D01*
X71289768Y-101403954D01*
X71387315Y-101586450D01*
X71412816Y-101617523D01*
X71518589Y-101746410D01*
X71615209Y-101825702D01*
X71678550Y-101877685D01*
X71861046Y-101975232D01*
X72059066Y-102035300D01*
X72059065Y-102035300D01*
X72077529Y-102037118D01*
X72265000Y-102055583D01*
X72470934Y-102035300D01*
X72668954Y-101975232D01*
X72851450Y-101877685D01*
X73011410Y-101746410D01*
X73142685Y-101586450D01*
X73240232Y-101403954D01*
X73300300Y-101205934D01*
X73320583Y-101000000D01*
X73749417Y-101000000D01*
X73769699Y-101205932D01*
X73798623Y-101301281D01*
X73829768Y-101403954D01*
X73927315Y-101586450D01*
X73952816Y-101617523D01*
X74058589Y-101746410D01*
X74155209Y-101825702D01*
X74218550Y-101877685D01*
X74401046Y-101975232D01*
X74599066Y-102035300D01*
X74599065Y-102035300D01*
X74617529Y-102037118D01*
X74805000Y-102055583D01*
X75010934Y-102035300D01*
X75208954Y-101975232D01*
X75391450Y-101877685D01*
X75551410Y-101746410D01*
X75682685Y-101586450D01*
X75780232Y-101403954D01*
X75840300Y-101205934D01*
X75860583Y-101000000D01*
X76289417Y-101000000D01*
X76309699Y-101205932D01*
X76338623Y-101301281D01*
X76369768Y-101403954D01*
X76467315Y-101586450D01*
X76492816Y-101617523D01*
X76598589Y-101746410D01*
X76695209Y-101825702D01*
X76758550Y-101877685D01*
X76941046Y-101975232D01*
X77139066Y-102035300D01*
X77139065Y-102035300D01*
X77157529Y-102037118D01*
X77345000Y-102055583D01*
X77550934Y-102035300D01*
X77748954Y-101975232D01*
X77931450Y-101877685D01*
X78091410Y-101746410D01*
X78222685Y-101586450D01*
X78320232Y-101403954D01*
X78380300Y-101205934D01*
X78400583Y-101000000D01*
X78829417Y-101000000D01*
X78849699Y-101205932D01*
X78878623Y-101301281D01*
X78909768Y-101403954D01*
X79007315Y-101586450D01*
X79032816Y-101617523D01*
X79138589Y-101746410D01*
X79235209Y-101825702D01*
X79298550Y-101877685D01*
X79481046Y-101975232D01*
X79679066Y-102035300D01*
X79679065Y-102035300D01*
X79697529Y-102037118D01*
X79885000Y-102055583D01*
X80090934Y-102035300D01*
X80288954Y-101975232D01*
X80471450Y-101877685D01*
X80631410Y-101746410D01*
X80762685Y-101586450D01*
X80860232Y-101403954D01*
X80920300Y-101205934D01*
X80940583Y-101000000D01*
X81369417Y-101000000D01*
X81389699Y-101205932D01*
X81418623Y-101301281D01*
X81449768Y-101403954D01*
X81547315Y-101586450D01*
X81572816Y-101617523D01*
X81678589Y-101746410D01*
X81775209Y-101825702D01*
X81838550Y-101877685D01*
X82021046Y-101975232D01*
X82219066Y-102035300D01*
X82219065Y-102035300D01*
X82237529Y-102037118D01*
X82425000Y-102055583D01*
X82630934Y-102035300D01*
X82828954Y-101975232D01*
X83011450Y-101877685D01*
X83171410Y-101746410D01*
X83302685Y-101586450D01*
X83400232Y-101403954D01*
X83460300Y-101205934D01*
X83480583Y-101000000D01*
X83909417Y-101000000D01*
X83929699Y-101205932D01*
X83958623Y-101301281D01*
X83989768Y-101403954D01*
X84087315Y-101586450D01*
X84112816Y-101617523D01*
X84218589Y-101746410D01*
X84315209Y-101825702D01*
X84378550Y-101877685D01*
X84561046Y-101975232D01*
X84759066Y-102035300D01*
X84759065Y-102035300D01*
X84777529Y-102037118D01*
X84965000Y-102055583D01*
X85170934Y-102035300D01*
X85368954Y-101975232D01*
X85551450Y-101877685D01*
X85711410Y-101746410D01*
X85842685Y-101586450D01*
X85940232Y-101403954D01*
X86000300Y-101205934D01*
X86020583Y-101000000D01*
X86449417Y-101000000D01*
X86469699Y-101205932D01*
X86498623Y-101301281D01*
X86529768Y-101403954D01*
X86627315Y-101586450D01*
X86652816Y-101617523D01*
X86758589Y-101746410D01*
X86855209Y-101825702D01*
X86918550Y-101877685D01*
X87101046Y-101975232D01*
X87299066Y-102035300D01*
X87299065Y-102035300D01*
X87317529Y-102037118D01*
X87505000Y-102055583D01*
X87710934Y-102035300D01*
X87908954Y-101975232D01*
X88091450Y-101877685D01*
X88251410Y-101746410D01*
X88382685Y-101586450D01*
X88480232Y-101403954D01*
X88540300Y-101205934D01*
X88560583Y-101000000D01*
X88540300Y-100794066D01*
X88480232Y-100596046D01*
X88382685Y-100413550D01*
X88275873Y-100283398D01*
X88251410Y-100253589D01*
X88091452Y-100122317D01*
X88091453Y-100122317D01*
X88091450Y-100122315D01*
X87908954Y-100024768D01*
X87903581Y-100021896D01*
X87904138Y-100020852D01*
X87854640Y-99980960D01*
X87832579Y-99914665D01*
X87832500Y-99910245D01*
X87832500Y-97856226D01*
X87852185Y-97789187D01*
X87862780Y-97775032D01*
X87887882Y-97746063D01*
X87941697Y-97628226D01*
X87960133Y-97500000D01*
X87941697Y-97371774D01*
X87887882Y-97253937D01*
X87803049Y-97156033D01*
X87694069Y-97085996D01*
X87694065Y-97085994D01*
X87694064Y-97085994D01*
X87569774Y-97049500D01*
X87569772Y-97049500D01*
X87440228Y-97049500D01*
X87440226Y-97049500D01*
X87315935Y-97085994D01*
X87315932Y-97085995D01*
X87315931Y-97085996D01*
X87296901Y-97098226D01*
X87206950Y-97156033D01*
X87122118Y-97253937D01*
X87122117Y-97253938D01*
X87068302Y-97371774D01*
X87049867Y-97500000D01*
X87068302Y-97628225D01*
X87113640Y-97727500D01*
X87122118Y-97746063D01*
X87147213Y-97775024D01*
X87176238Y-97838577D01*
X87177500Y-97856226D01*
X87177500Y-99910245D01*
X87157815Y-99977284D01*
X87106390Y-100021843D01*
X87106419Y-100021896D01*
X87106186Y-100022020D01*
X87105011Y-100023039D01*
X87101064Y-100024757D01*
X86959308Y-100100528D01*
X86918550Y-100122315D01*
X86918548Y-100122316D01*
X86918547Y-100122317D01*
X86758589Y-100253589D01*
X86636827Y-100401959D01*
X86627315Y-100413550D01*
X86602252Y-100460440D01*
X86529769Y-100596043D01*
X86469699Y-100794067D01*
X86449417Y-101000000D01*
X86020583Y-101000000D01*
X86000300Y-100794066D01*
X85940232Y-100596046D01*
X85842685Y-100413550D01*
X85735873Y-100283398D01*
X85711410Y-100253589D01*
X85551452Y-100122317D01*
X85551453Y-100122317D01*
X85551450Y-100122315D01*
X85368954Y-100024768D01*
X85363581Y-100021896D01*
X85364138Y-100020852D01*
X85314640Y-99980960D01*
X85292579Y-99914665D01*
X85292500Y-99910245D01*
X85292500Y-97320456D01*
X85312185Y-97253417D01*
X85322783Y-97239257D01*
X85342882Y-97216063D01*
X85396697Y-97098226D01*
X85415133Y-96970000D01*
X85396697Y-96841774D01*
X85342882Y-96723937D01*
X85258049Y-96626033D01*
X85149069Y-96555996D01*
X85149065Y-96555994D01*
X85149064Y-96555994D01*
X85024774Y-96519500D01*
X85024772Y-96519500D01*
X84895228Y-96519500D01*
X84895226Y-96519500D01*
X84770935Y-96555994D01*
X84770932Y-96555995D01*
X84770931Y-96555996D01*
X84719677Y-96588934D01*
X84661950Y-96626033D01*
X84577118Y-96723937D01*
X84577117Y-96723938D01*
X84523302Y-96841774D01*
X84504867Y-96970000D01*
X84523302Y-97098225D01*
X84563907Y-97187135D01*
X84577118Y-97216063D01*
X84607213Y-97250795D01*
X84636238Y-97314350D01*
X84637500Y-97331997D01*
X84637500Y-99910245D01*
X84617815Y-99977284D01*
X84566390Y-100021843D01*
X84566419Y-100021896D01*
X84566186Y-100022020D01*
X84565011Y-100023039D01*
X84561064Y-100024757D01*
X84419308Y-100100528D01*
X84378550Y-100122315D01*
X84378548Y-100122316D01*
X84378547Y-100122317D01*
X84218589Y-100253589D01*
X84096827Y-100401959D01*
X84087315Y-100413550D01*
X84062252Y-100460440D01*
X83989769Y-100596043D01*
X83929699Y-100794067D01*
X83909417Y-101000000D01*
X83480583Y-101000000D01*
X83460300Y-100794066D01*
X83400232Y-100596046D01*
X83302685Y-100413550D01*
X83195873Y-100283398D01*
X83171410Y-100253589D01*
X83011452Y-100122317D01*
X83011453Y-100122317D01*
X83011450Y-100122315D01*
X82828954Y-100024768D01*
X82630934Y-99964700D01*
X82630932Y-99964699D01*
X82630934Y-99964699D01*
X82425000Y-99944417D01*
X82219067Y-99964699D01*
X82075891Y-100008131D01*
X82021083Y-100024757D01*
X82021043Y-100024769D01*
X81987634Y-100042627D01*
X81838550Y-100122315D01*
X81838548Y-100122316D01*
X81838547Y-100122317D01*
X81678589Y-100253589D01*
X81556827Y-100401959D01*
X81547315Y-100413550D01*
X81522252Y-100460440D01*
X81449769Y-100596043D01*
X81389699Y-100794067D01*
X81369417Y-101000000D01*
X80940583Y-101000000D01*
X80920300Y-100794066D01*
X80860232Y-100596046D01*
X80762685Y-100413550D01*
X80655873Y-100283398D01*
X80631410Y-100253589D01*
X80471452Y-100122317D01*
X80471453Y-100122317D01*
X80471450Y-100122315D01*
X80288954Y-100024768D01*
X80090934Y-99964700D01*
X80090932Y-99964699D01*
X80090934Y-99964699D01*
X79885000Y-99944417D01*
X79679067Y-99964699D01*
X79535891Y-100008131D01*
X79481083Y-100024757D01*
X79481043Y-100024769D01*
X79447634Y-100042627D01*
X79298550Y-100122315D01*
X79298548Y-100122316D01*
X79298547Y-100122317D01*
X79138589Y-100253589D01*
X79016827Y-100401959D01*
X79007315Y-100413550D01*
X78982252Y-100460440D01*
X78909769Y-100596043D01*
X78849699Y-100794067D01*
X78829417Y-101000000D01*
X78400583Y-101000000D01*
X78380300Y-100794066D01*
X78320232Y-100596046D01*
X78222685Y-100413550D01*
X78115873Y-100283398D01*
X78091410Y-100253589D01*
X77931452Y-100122317D01*
X77931453Y-100122317D01*
X77931450Y-100122315D01*
X77748954Y-100024768D01*
X77550934Y-99964700D01*
X77550932Y-99964699D01*
X77550934Y-99964699D01*
X77345000Y-99944417D01*
X77139067Y-99964699D01*
X76995891Y-100008131D01*
X76941083Y-100024757D01*
X76941043Y-100024769D01*
X76907634Y-100042627D01*
X76758550Y-100122315D01*
X76758548Y-100122316D01*
X76758547Y-100122317D01*
X76598589Y-100253589D01*
X76476827Y-100401959D01*
X76467315Y-100413550D01*
X76442252Y-100460440D01*
X76369769Y-100596043D01*
X76309699Y-100794067D01*
X76289417Y-101000000D01*
X75860583Y-101000000D01*
X75840300Y-100794066D01*
X75780232Y-100596046D01*
X75682685Y-100413550D01*
X75575873Y-100283398D01*
X75551410Y-100253589D01*
X75391452Y-100122317D01*
X75391453Y-100122317D01*
X75391450Y-100122315D01*
X75208954Y-100024768D01*
X75010934Y-99964700D01*
X75010932Y-99964699D01*
X75010934Y-99964699D01*
X74805000Y-99944417D01*
X74599067Y-99964699D01*
X74455891Y-100008131D01*
X74401083Y-100024757D01*
X74401043Y-100024769D01*
X74367634Y-100042627D01*
X74218550Y-100122315D01*
X74218548Y-100122316D01*
X74218547Y-100122317D01*
X74058589Y-100253589D01*
X73936827Y-100401959D01*
X73927315Y-100413550D01*
X73902252Y-100460440D01*
X73829769Y-100596043D01*
X73769699Y-100794067D01*
X73749417Y-101000000D01*
X73320583Y-101000000D01*
X73300300Y-100794066D01*
X73240232Y-100596046D01*
X73142685Y-100413550D01*
X73035873Y-100283398D01*
X73011410Y-100253589D01*
X72851452Y-100122317D01*
X72851453Y-100122317D01*
X72851450Y-100122315D01*
X72668954Y-100024768D01*
X72470934Y-99964700D01*
X72470932Y-99964699D01*
X72470934Y-99964699D01*
X72265000Y-99944417D01*
X72059067Y-99964699D01*
X71915891Y-100008131D01*
X71861083Y-100024757D01*
X71861043Y-100024769D01*
X71827634Y-100042627D01*
X71678550Y-100122315D01*
X71678548Y-100122316D01*
X71678547Y-100122317D01*
X71518589Y-100253589D01*
X71396827Y-100401959D01*
X71387315Y-100413550D01*
X71362252Y-100460440D01*
X71289769Y-100596043D01*
X71229699Y-100794067D01*
X71209417Y-101000000D01*
X67525121Y-101000000D01*
X67525121Y-100913129D01*
X68225121Y-100913129D01*
X68225121Y-100776557D01*
X68198035Y-100605544D01*
X68144529Y-100440871D01*
X68065925Y-100286604D01*
X67964153Y-100146526D01*
X67841723Y-100024096D01*
X67701645Y-99922324D01*
X67547378Y-99843720D01*
X67382710Y-99790216D01*
X67382702Y-99790214D01*
X67375121Y-99789013D01*
X67375121Y-100547443D01*
X67370727Y-100543049D01*
X67279515Y-100490388D01*
X67177782Y-100463129D01*
X67072460Y-100463129D01*
X66970727Y-100490388D01*
X66879515Y-100543049D01*
X66875121Y-100547443D01*
X66875121Y-99789013D01*
X66875120Y-99789013D01*
X66867539Y-99790214D01*
X66867531Y-99790216D01*
X66702863Y-99843720D01*
X66548596Y-99922324D01*
X66408518Y-100024096D01*
X66286088Y-100146526D01*
X66184316Y-100286604D01*
X66105712Y-100440871D01*
X66052206Y-100605544D01*
X66025121Y-100776557D01*
X66025121Y-100913129D01*
X66725121Y-100913129D01*
X66725121Y-101413129D01*
X66025121Y-101413129D01*
X66025121Y-101549700D01*
X59574879Y-101549700D01*
X59574879Y-101413129D01*
X58874879Y-101413129D01*
X58874879Y-100913129D01*
X59574879Y-100913129D01*
X59574879Y-100776557D01*
X59547793Y-100605544D01*
X59494287Y-100440871D01*
X59415683Y-100286604D01*
X59313911Y-100146526D01*
X59191481Y-100024096D01*
X59051403Y-99922324D01*
X58897136Y-99843720D01*
X58732468Y-99790216D01*
X58732460Y-99790214D01*
X58724879Y-99789013D01*
X58724879Y-100547443D01*
X58720485Y-100543049D01*
X58629273Y-100490388D01*
X58527540Y-100463129D01*
X58422218Y-100463129D01*
X58320485Y-100490388D01*
X58229273Y-100543049D01*
X58224879Y-100547443D01*
X58224879Y-99789013D01*
X58224878Y-99789013D01*
X58217297Y-99790214D01*
X58217289Y-99790216D01*
X58052621Y-99843720D01*
X57898354Y-99922324D01*
X57758276Y-100024096D01*
X57635846Y-100146526D01*
X57534074Y-100286604D01*
X57455470Y-100440871D01*
X57401964Y-100605544D01*
X57374879Y-100776557D01*
X57374879Y-100913129D01*
X58074879Y-100913129D01*
X58074879Y-101413129D01*
X57374879Y-101413129D01*
X57374879Y-101549700D01*
X55338415Y-101549700D01*
X55385783Y-101301390D01*
X55385784Y-101301383D01*
X55404745Y-101000005D01*
X55404745Y-100999994D01*
X55385784Y-100698616D01*
X55385783Y-100698609D01*
X55329194Y-100401959D01*
X55235874Y-100114752D01*
X55235872Y-100114747D01*
X55107295Y-99841507D01*
X55107292Y-99841502D01*
X54945483Y-99586530D01*
X54864686Y-99488864D01*
X53936289Y-100417261D01*
X53839033Y-100283398D01*
X53716602Y-100160967D01*
X53582736Y-100063709D01*
X54513434Y-99133011D01*
X54513433Y-99133009D01*
X54288538Y-98969614D01*
X54288520Y-98969602D01*
X54023890Y-98824121D01*
X54023882Y-98824117D01*
X53743110Y-98712952D01*
X53743107Y-98712951D01*
X53450600Y-98637849D01*
X53151004Y-98600000D01*
X52848995Y-98600000D01*
X52549399Y-98637849D01*
X52256892Y-98712951D01*
X52256889Y-98712952D01*
X51976117Y-98824117D01*
X51976109Y-98824121D01*
X51711476Y-98969604D01*
X51711471Y-98969607D01*
X51486565Y-99133010D01*
X51486564Y-99133011D01*
X52417262Y-100063709D01*
X52283398Y-100160967D01*
X52160967Y-100283398D01*
X52063709Y-100417262D01*
X51135311Y-99488864D01*
X51054520Y-99586525D01*
X51054518Y-99586528D01*
X50892707Y-99841502D01*
X50892705Y-99841507D01*
X50764127Y-100114747D01*
X50764125Y-100114752D01*
X50742431Y-100181520D01*
X50702993Y-100239196D01*
X50638635Y-100266394D01*
X50569788Y-100254479D01*
X50518313Y-100207235D01*
X50500500Y-100143202D01*
X50500500Y-97469868D01*
X57374879Y-97469868D01*
X57401964Y-97640881D01*
X57455470Y-97805554D01*
X57534074Y-97959821D01*
X57635846Y-98099899D01*
X57758276Y-98222329D01*
X57898354Y-98324101D01*
X58052623Y-98402705D01*
X58217294Y-98456211D01*
X58217293Y-98456211D01*
X58224878Y-98457412D01*
X58224879Y-98457411D01*
X58224879Y-97698996D01*
X58229273Y-97703390D01*
X58320485Y-97756051D01*
X58422218Y-97783310D01*
X58527540Y-97783310D01*
X58629273Y-97756051D01*
X58720485Y-97703390D01*
X58724879Y-97698996D01*
X58724879Y-98457412D01*
X58732463Y-98456211D01*
X58897134Y-98402705D01*
X59051403Y-98324101D01*
X59191481Y-98222329D01*
X59313913Y-98099897D01*
X59368966Y-98024121D01*
X59424296Y-97981454D01*
X59493909Y-97975473D01*
X59538177Y-97993902D01*
X59603780Y-98037737D01*
X59603784Y-98037739D01*
X59603787Y-98037741D01*
X59717622Y-98084894D01*
X59838469Y-98108931D01*
X59838471Y-98108931D01*
X59961681Y-98108931D01*
X59961683Y-98108931D01*
X60082530Y-98084894D01*
X60196365Y-98037741D01*
X60298814Y-97969287D01*
X60385939Y-97882162D01*
X60454393Y-97779713D01*
X60501546Y-97665878D01*
X60525583Y-97545031D01*
X60525583Y-97421817D01*
X60521244Y-97400000D01*
X61444867Y-97400000D01*
X61463302Y-97528225D01*
X61508972Y-97628226D01*
X61517118Y-97646063D01*
X61601951Y-97743967D01*
X61710931Y-97814004D01*
X61794621Y-97838577D01*
X61835225Y-97850499D01*
X61835227Y-97850500D01*
X61835228Y-97850500D01*
X61964773Y-97850500D01*
X61964773Y-97850499D01*
X62089069Y-97814004D01*
X62193043Y-97747183D01*
X62260082Y-97727500D01*
X63189918Y-97727500D01*
X63256956Y-97747183D01*
X63360931Y-97814004D01*
X63444621Y-97838577D01*
X63485225Y-97850499D01*
X63485227Y-97850500D01*
X63485228Y-97850500D01*
X63614773Y-97850500D01*
X63614773Y-97850499D01*
X63739069Y-97814004D01*
X63848049Y-97743967D01*
X63932882Y-97646063D01*
X63979022Y-97545031D01*
X65074417Y-97545031D01*
X65098454Y-97665878D01*
X65098455Y-97665880D01*
X65145605Y-97779709D01*
X65145610Y-97779719D01*
X65214060Y-97882161D01*
X65214063Y-97882165D01*
X65301182Y-97969284D01*
X65301186Y-97969287D01*
X65403628Y-98037737D01*
X65403632Y-98037739D01*
X65403635Y-98037741D01*
X65517470Y-98084894D01*
X65638317Y-98108931D01*
X65638319Y-98108931D01*
X65761529Y-98108931D01*
X65761531Y-98108931D01*
X65882378Y-98084894D01*
X65996213Y-98037741D01*
X66016597Y-98024121D01*
X66061822Y-97993903D01*
X66128500Y-97973025D01*
X66195880Y-97991510D01*
X66231032Y-98024120D01*
X66286088Y-98099899D01*
X66408518Y-98222329D01*
X66548596Y-98324101D01*
X66702865Y-98402705D01*
X66867536Y-98456211D01*
X66867535Y-98456211D01*
X66875120Y-98457412D01*
X66875121Y-98457411D01*
X66875121Y-97698971D01*
X66879515Y-97703365D01*
X66970727Y-97756026D01*
X67072460Y-97783285D01*
X67177782Y-97783285D01*
X67279515Y-97756026D01*
X67370727Y-97703365D01*
X67375121Y-97698971D01*
X67375121Y-98457412D01*
X67382705Y-98456211D01*
X67547376Y-98402705D01*
X67701645Y-98324101D01*
X67841723Y-98222329D01*
X67964153Y-98099899D01*
X68065925Y-97959821D01*
X68144529Y-97805554D01*
X68198035Y-97640881D01*
X68225121Y-97469868D01*
X68225121Y-97233297D01*
X67525121Y-97233297D01*
X67525121Y-96733297D01*
X68225121Y-96733297D01*
X68225121Y-96496725D01*
X68198035Y-96325712D01*
X68144529Y-96161039D01*
X68065925Y-96006772D01*
X67964153Y-95866694D01*
X67841723Y-95744264D01*
X67701645Y-95642492D01*
X67547378Y-95563888D01*
X67382710Y-95510384D01*
X67382702Y-95510382D01*
X67375121Y-95509181D01*
X67375121Y-96267623D01*
X67370727Y-96263229D01*
X67279515Y-96210568D01*
X67177782Y-96183309D01*
X67072460Y-96183309D01*
X66970727Y-96210568D01*
X66879515Y-96263229D01*
X66875121Y-96267623D01*
X66875121Y-95509181D01*
X66875120Y-95509181D01*
X66867539Y-95510382D01*
X66867531Y-95510384D01*
X66702863Y-95563888D01*
X66548596Y-95642492D01*
X66408518Y-95744264D01*
X66286088Y-95866694D01*
X66184316Y-96006772D01*
X66105712Y-96161039D01*
X66052206Y-96325712D01*
X66025121Y-96496725D01*
X66025121Y-96759253D01*
X66005436Y-96826292D01*
X65952632Y-96872047D01*
X65883474Y-96881991D01*
X65876946Y-96880873D01*
X65761531Y-96857917D01*
X65638317Y-96857917D01*
X65517470Y-96881954D01*
X65517468Y-96881954D01*
X65517467Y-96881955D01*
X65403638Y-96929105D01*
X65403628Y-96929110D01*
X65301186Y-96997560D01*
X65301182Y-96997563D01*
X65214063Y-97084682D01*
X65214060Y-97084686D01*
X65145610Y-97187128D01*
X65145605Y-97187138D01*
X65104759Y-97285748D01*
X65098454Y-97300970D01*
X65074417Y-97421817D01*
X65074417Y-97545031D01*
X63979022Y-97545031D01*
X63986697Y-97528226D01*
X64005133Y-97400000D01*
X63986697Y-97271774D01*
X63932882Y-97153937D01*
X63848049Y-97056033D01*
X63739069Y-96985996D01*
X63739065Y-96985994D01*
X63739064Y-96985994D01*
X63614774Y-96949500D01*
X63614772Y-96949500D01*
X63485228Y-96949500D01*
X63485226Y-96949500D01*
X63360935Y-96985994D01*
X63360932Y-96985995D01*
X63360931Y-96985996D01*
X63262117Y-97049500D01*
X63256957Y-97052816D01*
X63189918Y-97072500D01*
X62260082Y-97072500D01*
X62193043Y-97052816D01*
X62187883Y-97049500D01*
X62089069Y-96985996D01*
X62089065Y-96985994D01*
X62089064Y-96985994D01*
X61964774Y-96949500D01*
X61964772Y-96949500D01*
X61835228Y-96949500D01*
X61835226Y-96949500D01*
X61710935Y-96985994D01*
X61710932Y-96985995D01*
X61710931Y-96985996D01*
X61659677Y-97018934D01*
X61601950Y-97056033D01*
X61517118Y-97153937D01*
X61517117Y-97153938D01*
X61463302Y-97271774D01*
X61444867Y-97400000D01*
X60521244Y-97400000D01*
X60501546Y-97300970D01*
X60454393Y-97187135D01*
X60454391Y-97187132D01*
X60454389Y-97187128D01*
X60385939Y-97084686D01*
X60385936Y-97084682D01*
X60298817Y-96997563D01*
X60298813Y-96997560D01*
X60196371Y-96929110D01*
X60196361Y-96929105D01*
X60082532Y-96881955D01*
X60082530Y-96881954D01*
X59961683Y-96857917D01*
X59838469Y-96857917D01*
X59723067Y-96880870D01*
X59653478Y-96874643D01*
X59598301Y-96831779D01*
X59575057Y-96765889D01*
X59574879Y-96759253D01*
X59574879Y-96496725D01*
X59547793Y-96325712D01*
X59494287Y-96161039D01*
X59415683Y-96006772D01*
X59313911Y-95866694D01*
X59191481Y-95744264D01*
X59051403Y-95642492D01*
X58897136Y-95563888D01*
X58732468Y-95510384D01*
X58732460Y-95510382D01*
X58724879Y-95509181D01*
X58724879Y-96267598D01*
X58720485Y-96263204D01*
X58629273Y-96210543D01*
X58527540Y-96183284D01*
X58422218Y-96183284D01*
X58320485Y-96210543D01*
X58229273Y-96263204D01*
X58224879Y-96267598D01*
X58224879Y-95509181D01*
X58224878Y-95509181D01*
X58217297Y-95510382D01*
X58217289Y-95510384D01*
X58052621Y-95563888D01*
X57898354Y-95642492D01*
X57758276Y-95744264D01*
X57635846Y-95866694D01*
X57534074Y-96006772D01*
X57455470Y-96161039D01*
X57401964Y-96325712D01*
X57374879Y-96496725D01*
X57374879Y-96733297D01*
X58074879Y-96733297D01*
X58074879Y-97233297D01*
X57374879Y-97233297D01*
X57374879Y-97469868D01*
X50500500Y-97469868D01*
X50500500Y-84500000D01*
X59094357Y-84500000D01*
X59114884Y-84721535D01*
X59114885Y-84721537D01*
X59175769Y-84935523D01*
X59175775Y-84935538D01*
X59274938Y-85134683D01*
X59274943Y-85134691D01*
X59409020Y-85312238D01*
X59573437Y-85462123D01*
X59573439Y-85462125D01*
X59762595Y-85579245D01*
X59762596Y-85579245D01*
X59762599Y-85579247D01*
X59970060Y-85659618D01*
X60188757Y-85700500D01*
X60188759Y-85700500D01*
X60411241Y-85700500D01*
X60411243Y-85700500D01*
X60629940Y-85659618D01*
X60837401Y-85579247D01*
X61026562Y-85462124D01*
X61190981Y-85312236D01*
X61271226Y-85205973D01*
X61327335Y-85164338D01*
X61397047Y-85159647D01*
X61458229Y-85193389D01*
X61473989Y-85212879D01*
X61576564Y-85369882D01*
X62317037Y-84629409D01*
X62334075Y-84692993D01*
X62399901Y-84807007D01*
X62492993Y-84900099D01*
X62607007Y-84965925D01*
X62670590Y-84982962D01*
X61929942Y-85723609D01*
X61976768Y-85760055D01*
X61976770Y-85760056D01*
X62195385Y-85878364D01*
X62195396Y-85878369D01*
X62430506Y-85959083D01*
X62675707Y-86000000D01*
X62924293Y-86000000D01*
X63169493Y-85959083D01*
X63404603Y-85878369D01*
X63404614Y-85878364D01*
X63623228Y-85760057D01*
X63623231Y-85760055D01*
X63670056Y-85723609D01*
X62929409Y-84982962D01*
X62992993Y-84965925D01*
X63107007Y-84900099D01*
X63200099Y-84807007D01*
X63265925Y-84692993D01*
X63282962Y-84629409D01*
X64063181Y-85409628D01*
X64096666Y-85470951D01*
X64099500Y-85497309D01*
X64099500Y-85519752D01*
X64111131Y-85578229D01*
X64111132Y-85578230D01*
X64155447Y-85644552D01*
X64221769Y-85688867D01*
X64221770Y-85688868D01*
X64280247Y-85700499D01*
X64280250Y-85700500D01*
X64280252Y-85700500D01*
X66319750Y-85700500D01*
X66319751Y-85700499D01*
X66334568Y-85697552D01*
X66378229Y-85688868D01*
X66378229Y-85688867D01*
X66378231Y-85688867D01*
X66444552Y-85644552D01*
X66488867Y-85578231D01*
X66488867Y-85578229D01*
X66488868Y-85578229D01*
X66500499Y-85519752D01*
X66500500Y-85519750D01*
X66500500Y-83480249D01*
X66500499Y-83480247D01*
X66488868Y-83421770D01*
X66488867Y-83421769D01*
X66444552Y-83355447D01*
X66378230Y-83311132D01*
X66378229Y-83311131D01*
X66319752Y-83299500D01*
X66319748Y-83299500D01*
X64280252Y-83299500D01*
X64280247Y-83299500D01*
X64221770Y-83311131D01*
X64221769Y-83311132D01*
X64155447Y-83355447D01*
X64111132Y-83421769D01*
X64111131Y-83421770D01*
X64099500Y-83480247D01*
X64099500Y-83502689D01*
X64079815Y-83569728D01*
X64063181Y-83590370D01*
X63282962Y-84370589D01*
X63265925Y-84307007D01*
X63200099Y-84192993D01*
X63107007Y-84099901D01*
X62992993Y-84034075D01*
X62929410Y-84017037D01*
X63670057Y-83276390D01*
X63670056Y-83276389D01*
X63623229Y-83239943D01*
X63404614Y-83121635D01*
X63404603Y-83121630D01*
X63169493Y-83040916D01*
X62924293Y-83000000D01*
X62675707Y-83000000D01*
X62430506Y-83040916D01*
X62195396Y-83121630D01*
X62195390Y-83121632D01*
X61976761Y-83239949D01*
X61929942Y-83276388D01*
X61929942Y-83276390D01*
X62670590Y-84017037D01*
X62607007Y-84034075D01*
X62492993Y-84099901D01*
X62399901Y-84192993D01*
X62334075Y-84307007D01*
X62317037Y-84370589D01*
X61576564Y-83630116D01*
X61473989Y-83787120D01*
X61420842Y-83832476D01*
X61351611Y-83841900D01*
X61288275Y-83812398D01*
X61271226Y-83794025D01*
X61190979Y-83687761D01*
X61026562Y-83537876D01*
X61026560Y-83537874D01*
X60837404Y-83420754D01*
X60837398Y-83420752D01*
X60629940Y-83340382D01*
X60411243Y-83299500D01*
X60188757Y-83299500D01*
X59970060Y-83340382D01*
X59838864Y-83391207D01*
X59762601Y-83420752D01*
X59762595Y-83420754D01*
X59573439Y-83537874D01*
X59573437Y-83537876D01*
X59409020Y-83687761D01*
X59274943Y-83865308D01*
X59274938Y-83865316D01*
X59175775Y-84064461D01*
X59175769Y-84064476D01*
X59114885Y-84278462D01*
X59114884Y-84278464D01*
X59094357Y-84499999D01*
X59094357Y-84500000D01*
X50500500Y-84500000D01*
X50500500Y-78619752D01*
X55999500Y-78619752D01*
X56011131Y-78678229D01*
X56011132Y-78678230D01*
X56055447Y-78744552D01*
X56121769Y-78788867D01*
X56121770Y-78788868D01*
X56180247Y-78800499D01*
X56180250Y-78800500D01*
X56180252Y-78800500D01*
X58219750Y-78800500D01*
X58219751Y-78800499D01*
X58234568Y-78797552D01*
X58278229Y-78788868D01*
X58278229Y-78788867D01*
X58278231Y-78788867D01*
X58344552Y-78744552D01*
X58388867Y-78678231D01*
X58388867Y-78678229D01*
X58388868Y-78678229D01*
X58400499Y-78619752D01*
X58400500Y-78619750D01*
X58400500Y-77000000D01*
X58794675Y-77000000D01*
X58813962Y-77392591D01*
X58813962Y-77392597D01*
X58813963Y-77392599D01*
X58871637Y-77781406D01*
X58967143Y-78162684D01*
X59099561Y-78532770D01*
X59099562Y-78532772D01*
X59267620Y-78888100D01*
X59443632Y-79181757D01*
X59469694Y-79225239D01*
X59696454Y-79530990D01*
X59703846Y-79540956D01*
X59967807Y-79832192D01*
X60258430Y-80095597D01*
X60259049Y-80096158D01*
X60574761Y-80330306D01*
X60656112Y-80379066D01*
X60911899Y-80532379D01*
X60911902Y-80532380D01*
X60911903Y-80532381D01*
X61267228Y-80700438D01*
X61637316Y-80832857D01*
X62018600Y-80928364D01*
X62407409Y-80986038D01*
X62800000Y-81005325D01*
X63192591Y-80986038D01*
X63581400Y-80928364D01*
X63962684Y-80832857D01*
X64332772Y-80700438D01*
X64688097Y-80532381D01*
X65025239Y-80330306D01*
X65329811Y-80104420D01*
X78444867Y-80104420D01*
X78445500Y-80113273D01*
X78445500Y-80159841D01*
X78460789Y-80216900D01*
X78462673Y-80226083D01*
X78465800Y-80236729D01*
X78465721Y-80236751D01*
X78467242Y-80240984D01*
X78476472Y-80275429D01*
X78476473Y-80275431D01*
X78512029Y-80337017D01*
X78513660Y-80339841D01*
X78515857Y-80344102D01*
X78516840Y-80345631D01*
X78519907Y-80350663D01*
X78532301Y-80372129D01*
X78536309Y-80379070D01*
X78620930Y-80463691D01*
X78724569Y-80523527D01*
X78840164Y-80554500D01*
X78840166Y-80554500D01*
X78959834Y-80554500D01*
X78959836Y-80554500D01*
X79075431Y-80523527D01*
X79179070Y-80463691D01*
X79263691Y-80379070D01*
X79280078Y-80350685D01*
X79283169Y-80345616D01*
X79284159Y-80344075D01*
X79286355Y-80339812D01*
X79323527Y-80275431D01*
X79332751Y-80241001D01*
X79334277Y-80236759D01*
X79334197Y-80236736D01*
X79337330Y-80226070D01*
X79339214Y-80216883D01*
X79354500Y-80159836D01*
X79354500Y-80113273D01*
X79355133Y-80104420D01*
X79355133Y-80095584D01*
X79354500Y-80086729D01*
X79354500Y-79952954D01*
X79374185Y-79885915D01*
X79426989Y-79840160D01*
X79496147Y-79830216D01*
X79510586Y-79833177D01*
X79590164Y-79854500D01*
X79590166Y-79854500D01*
X79709834Y-79854500D01*
X79709836Y-79854500D01*
X79825431Y-79823527D01*
X79929070Y-79763691D01*
X80013691Y-79679070D01*
X80030078Y-79650685D01*
X80033169Y-79645616D01*
X80034159Y-79644075D01*
X80036355Y-79639812D01*
X80073527Y-79575431D01*
X80082751Y-79541001D01*
X80084277Y-79536759D01*
X80084197Y-79536736D01*
X80087330Y-79526070D01*
X80089214Y-79516883D01*
X80093604Y-79500499D01*
X80104500Y-79459836D01*
X80104500Y-79413273D01*
X80105133Y-79404420D01*
X80105133Y-79395584D01*
X80104500Y-79386729D01*
X80104500Y-79050000D01*
X85944867Y-79050000D01*
X85963302Y-79178225D01*
X85984772Y-79225236D01*
X86017118Y-79296063D01*
X86101951Y-79393967D01*
X86210931Y-79464004D01*
X86335225Y-79500499D01*
X86335227Y-79500500D01*
X86335228Y-79500500D01*
X86464773Y-79500500D01*
X86464773Y-79500499D01*
X86589069Y-79464004D01*
X86698049Y-79393967D01*
X86782882Y-79296063D01*
X86836697Y-79178226D01*
X86855133Y-79050000D01*
X86836697Y-78921774D01*
X86782882Y-78803937D01*
X86769824Y-78788867D01*
X86757785Y-78774972D01*
X86728762Y-78711416D01*
X86727500Y-78693772D01*
X86727500Y-76306226D01*
X86747185Y-76239187D01*
X86757780Y-76225032D01*
X86782882Y-76196063D01*
X86836697Y-76078226D01*
X86855133Y-75950000D01*
X86836697Y-75821774D01*
X86782882Y-75703937D01*
X86698049Y-75606033D01*
X86589069Y-75535996D01*
X86589065Y-75535994D01*
X86589064Y-75535994D01*
X86464774Y-75499500D01*
X86464772Y-75499500D01*
X86335228Y-75499500D01*
X86335226Y-75499500D01*
X86210935Y-75535994D01*
X86210932Y-75535995D01*
X86210931Y-75535996D01*
X86188800Y-75550219D01*
X86101950Y-75606033D01*
X86017118Y-75703937D01*
X86017117Y-75703938D01*
X85963302Y-75821774D01*
X85944867Y-75950000D01*
X85963302Y-76078225D01*
X86017117Y-76196061D01*
X86017118Y-76196063D01*
X86042213Y-76225024D01*
X86071238Y-76288577D01*
X86072500Y-76306226D01*
X86072500Y-78693772D01*
X86052815Y-78760811D01*
X86042215Y-78774972D01*
X86017119Y-78803935D01*
X86017116Y-78803939D01*
X85963302Y-78921774D01*
X85944867Y-79050000D01*
X80104500Y-79050000D01*
X80104500Y-74013273D01*
X80105133Y-74004420D01*
X80105133Y-73995584D01*
X80104500Y-73986729D01*
X80104500Y-73940166D01*
X80104500Y-73940164D01*
X80089211Y-73883104D01*
X80087329Y-73873929D01*
X80086697Y-73871778D01*
X80086697Y-73871774D01*
X80086694Y-73871769D01*
X80084197Y-73863262D01*
X80084275Y-73863238D01*
X80082754Y-73859006D01*
X80073527Y-73824569D01*
X80036339Y-73760159D01*
X80034156Y-73755920D01*
X80033153Y-73754360D01*
X80030081Y-73749319D01*
X80013693Y-73720933D01*
X80013689Y-73720928D01*
X79929072Y-73636311D01*
X79929070Y-73636309D01*
X79825431Y-73576473D01*
X79749637Y-73556164D01*
X79689977Y-73519800D01*
X79659448Y-73456953D01*
X79667743Y-73387578D01*
X79694050Y-73348709D01*
X80375865Y-72666895D01*
X81251941Y-71790819D01*
X81313264Y-71757334D01*
X81339622Y-71754500D01*
X83559834Y-71754500D01*
X83559836Y-71754500D01*
X83675431Y-71723527D01*
X83779070Y-71663691D01*
X83863691Y-71579070D01*
X83880078Y-71550685D01*
X83883169Y-71545616D01*
X83884159Y-71544075D01*
X83886355Y-71539812D01*
X83923527Y-71475431D01*
X83932751Y-71441001D01*
X83934277Y-71436759D01*
X83934197Y-71436736D01*
X83937330Y-71426070D01*
X83939214Y-71416883D01*
X83954500Y-71359836D01*
X83954500Y-71313273D01*
X83955133Y-71304420D01*
X83955133Y-71295584D01*
X83954500Y-71286729D01*
X83954500Y-71240166D01*
X83954500Y-71240164D01*
X83939211Y-71183104D01*
X83937329Y-71173929D01*
X83936697Y-71171778D01*
X83936697Y-71171774D01*
X83936694Y-71171769D01*
X83934197Y-71163262D01*
X83934275Y-71163238D01*
X83932754Y-71159006D01*
X83923527Y-71124569D01*
X83886339Y-71060159D01*
X83884156Y-71055920D01*
X83883153Y-71054360D01*
X83880081Y-71049319D01*
X83863693Y-71020933D01*
X83863689Y-71020928D01*
X83779072Y-70936311D01*
X83779070Y-70936309D01*
X83675431Y-70876473D01*
X83559836Y-70845500D01*
X83559835Y-70845500D01*
X81678500Y-70845500D01*
X81611461Y-70825815D01*
X81565706Y-70773011D01*
X81554500Y-70721500D01*
X81554500Y-69154420D01*
X86374750Y-69154420D01*
X86375383Y-69163273D01*
X86375383Y-69209841D01*
X86390672Y-69266900D01*
X86392556Y-69276083D01*
X86395683Y-69286729D01*
X86395604Y-69286751D01*
X86397125Y-69290984D01*
X86406355Y-69325429D01*
X86406357Y-69325433D01*
X86443543Y-69389841D01*
X86445740Y-69394102D01*
X86446723Y-69395631D01*
X86449790Y-69400663D01*
X86457494Y-69414005D01*
X86466192Y-69429070D01*
X86550813Y-69513691D01*
X86654452Y-69573527D01*
X86770047Y-69604500D01*
X87560378Y-69604500D01*
X87627417Y-69624185D01*
X87648059Y-69640819D01*
X89059181Y-71051941D01*
X89092666Y-71113264D01*
X89095500Y-71139622D01*
X89095500Y-72903378D01*
X89075815Y-72970417D01*
X89023011Y-73016172D01*
X88953853Y-73026116D01*
X88890297Y-72997091D01*
X88883819Y-72991059D01*
X88079072Y-72186312D01*
X88079070Y-72186310D01*
X87975430Y-72126473D01*
X87859836Y-72095499D01*
X87740164Y-72095499D01*
X87663101Y-72116148D01*
X87624569Y-72126473D01*
X87520930Y-72186310D01*
X87436309Y-72270930D01*
X87419925Y-72299309D01*
X87416876Y-72304312D01*
X87415853Y-72305904D01*
X87413652Y-72310174D01*
X87376472Y-72374572D01*
X87376470Y-72374575D01*
X87367239Y-72409027D01*
X87365721Y-72413251D01*
X87365798Y-72413274D01*
X87362671Y-72423926D01*
X87360789Y-72433098D01*
X87353028Y-72462065D01*
X87345499Y-72490164D01*
X87345499Y-72490166D01*
X87345499Y-72536736D01*
X87344867Y-72545577D01*
X87344867Y-72554435D01*
X87345499Y-72563264D01*
X87345499Y-72609838D01*
X87360787Y-72666895D01*
X87362668Y-72676064D01*
X87365799Y-72686726D01*
X87365720Y-72686749D01*
X87367241Y-72690980D01*
X87376470Y-72725425D01*
X87376473Y-72725430D01*
X87413642Y-72789809D01*
X87415841Y-72794077D01*
X87416852Y-72795649D01*
X87419929Y-72800698D01*
X87436310Y-72829070D01*
X87436312Y-72829072D01*
X88424181Y-73816941D01*
X88457666Y-73878264D01*
X88460500Y-73904622D01*
X88460500Y-81245577D01*
X88460499Y-81245595D01*
X88460499Y-81372861D01*
X88484926Y-81464026D01*
X88491472Y-81488455D01*
X88491474Y-81488460D01*
X88551306Y-81592092D01*
X88551311Y-81592098D01*
X88642995Y-81683782D01*
X88643001Y-81683787D01*
X90524181Y-83564967D01*
X90557666Y-83626290D01*
X90560500Y-83652648D01*
X90560500Y-99790376D01*
X90540815Y-99857415D01*
X90524181Y-99878058D01*
X90446661Y-99955577D01*
X90385337Y-99989061D01*
X90322986Y-99986556D01*
X90250933Y-99964699D01*
X90250934Y-99964699D01*
X90045000Y-99944417D01*
X89839067Y-99964699D01*
X89695891Y-100008131D01*
X89641083Y-100024757D01*
X89641043Y-100024769D01*
X89607634Y-100042627D01*
X89458550Y-100122315D01*
X89458548Y-100122316D01*
X89458547Y-100122317D01*
X89298589Y-100253589D01*
X89176827Y-100401959D01*
X89167315Y-100413550D01*
X89142252Y-100460440D01*
X89069769Y-100596043D01*
X89009699Y-100794067D01*
X88989417Y-101000000D01*
X89009699Y-101205932D01*
X89038623Y-101301281D01*
X89069768Y-101403954D01*
X89167315Y-101586450D01*
X89192816Y-101617523D01*
X89298589Y-101746410D01*
X89395209Y-101825702D01*
X89458550Y-101877685D01*
X89641046Y-101975232D01*
X89839066Y-102035300D01*
X89839065Y-102035300D01*
X89857529Y-102037118D01*
X90045000Y-102055583D01*
X90250934Y-102035300D01*
X90448954Y-101975232D01*
X90631450Y-101877685D01*
X90791410Y-101746410D01*
X90922685Y-101586450D01*
X91020232Y-101403954D01*
X91080300Y-101205934D01*
X91100583Y-101000000D01*
X91080300Y-100794066D01*
X91058443Y-100722013D01*
X91057819Y-100652146D01*
X91089420Y-100598338D01*
X91227320Y-100460438D01*
X91288641Y-100426955D01*
X91358333Y-100431939D01*
X91402680Y-100460440D01*
X91540576Y-100598336D01*
X91574061Y-100659659D01*
X91571556Y-100722010D01*
X91549700Y-100794062D01*
X91549699Y-100794065D01*
X91529417Y-101000000D01*
X91549699Y-101205932D01*
X91578623Y-101301281D01*
X91609768Y-101403954D01*
X91707315Y-101586450D01*
X91732816Y-101617523D01*
X91838589Y-101746410D01*
X91935209Y-101825702D01*
X91998550Y-101877685D01*
X92181046Y-101975232D01*
X92379066Y-102035300D01*
X92379065Y-102035300D01*
X92397529Y-102037118D01*
X92585000Y-102055583D01*
X92790934Y-102035300D01*
X92988954Y-101975232D01*
X93171450Y-101877685D01*
X93331410Y-101746410D01*
X93462685Y-101586450D01*
X93541643Y-101438730D01*
X93590605Y-101388888D01*
X93658742Y-101373428D01*
X93724422Y-101397260D01*
X93766791Y-101452818D01*
X93775000Y-101497186D01*
X93775000Y-101897844D01*
X93781401Y-101957372D01*
X93781403Y-101957379D01*
X93831645Y-102092086D01*
X93831649Y-102092093D01*
X93917809Y-102207187D01*
X93917812Y-102207190D01*
X94032906Y-102293350D01*
X94032913Y-102293354D01*
X94167620Y-102343596D01*
X94167627Y-102343598D01*
X94227155Y-102349999D01*
X94227172Y-102350000D01*
X94875000Y-102350000D01*
X94875000Y-101433012D01*
X94932007Y-101465925D01*
X95059174Y-101500000D01*
X95190826Y-101500000D01*
X95317993Y-101465925D01*
X95375000Y-101433012D01*
X95375000Y-102350000D01*
X96022828Y-102350000D01*
X96022844Y-102349999D01*
X96082372Y-102343598D01*
X96082379Y-102343596D01*
X96217086Y-102293354D01*
X96217093Y-102293350D01*
X96332187Y-102207190D01*
X96332190Y-102207187D01*
X96418350Y-102092093D01*
X96418354Y-102092086D01*
X96468596Y-101957379D01*
X96468598Y-101957372D01*
X96474999Y-101897844D01*
X96475000Y-101897827D01*
X96475000Y-101250000D01*
X95558012Y-101250000D01*
X95590925Y-101192993D01*
X95625000Y-101065826D01*
X95625000Y-100934174D01*
X95590925Y-100807007D01*
X95558012Y-100750000D01*
X96475000Y-100750000D01*
X96475000Y-100102172D01*
X96474999Y-100102155D01*
X96468598Y-100042627D01*
X96468596Y-100042620D01*
X96418354Y-99907913D01*
X96418350Y-99907906D01*
X96332190Y-99792812D01*
X96332187Y-99792809D01*
X96217093Y-99706649D01*
X96217086Y-99706645D01*
X96082379Y-99656403D01*
X96082372Y-99656401D01*
X96022844Y-99650000D01*
X95375000Y-99650000D01*
X95375000Y-100566988D01*
X95317993Y-100534075D01*
X95190826Y-100500000D01*
X95059174Y-100500000D01*
X94932007Y-100534075D01*
X94875000Y-100566988D01*
X94875000Y-99650000D01*
X94227155Y-99650000D01*
X94167627Y-99656401D01*
X94167620Y-99656403D01*
X94032913Y-99706645D01*
X94032906Y-99706649D01*
X93917812Y-99792809D01*
X93917809Y-99792812D01*
X93831649Y-99907906D01*
X93831645Y-99907913D01*
X93781403Y-100042620D01*
X93781401Y-100042627D01*
X93775000Y-100102155D01*
X93775000Y-100502813D01*
X93755315Y-100569852D01*
X93702511Y-100615607D01*
X93633353Y-100625551D01*
X93569797Y-100596526D01*
X93541642Y-100561267D01*
X93531904Y-100543049D01*
X93462685Y-100413550D01*
X93355873Y-100283398D01*
X93331410Y-100253589D01*
X93171452Y-100122317D01*
X93171453Y-100122317D01*
X93171450Y-100122315D01*
X92988954Y-100024768D01*
X92790934Y-99964700D01*
X92790932Y-99964699D01*
X92790934Y-99964699D01*
X92585000Y-99944417D01*
X92379065Y-99964699D01*
X92379062Y-99964700D01*
X92307010Y-99986556D01*
X92237143Y-99987179D01*
X92183336Y-99955576D01*
X92140819Y-99913059D01*
X92107334Y-99851736D01*
X92104500Y-99825378D01*
X92104500Y-86511489D01*
X145324500Y-86511489D01*
X145360659Y-86832410D01*
X145360661Y-86832426D01*
X145432527Y-87147294D01*
X145432531Y-87147306D01*
X145539195Y-87452133D01*
X145539201Y-87452147D01*
X145679327Y-87743122D01*
X145679329Y-87743125D01*
X145851159Y-88016591D01*
X146052527Y-88269099D01*
X146280901Y-88497473D01*
X146533409Y-88698841D01*
X146806875Y-88870671D01*
X147097860Y-89010802D01*
X147097866Y-89010804D01*
X147402693Y-89117468D01*
X147402705Y-89117472D01*
X147717577Y-89189339D01*
X148038511Y-89225499D01*
X148038512Y-89225500D01*
X148038515Y-89225500D01*
X148361488Y-89225500D01*
X148361488Y-89225499D01*
X148682423Y-89189339D01*
X148997295Y-89117472D01*
X149302140Y-89010802D01*
X149593125Y-88870671D01*
X149866591Y-88698841D01*
X150119099Y-88497473D01*
X150347473Y-88269099D01*
X150548841Y-88016591D01*
X150720671Y-87743125D01*
X150860802Y-87452140D01*
X150967472Y-87147295D01*
X151039339Y-86832423D01*
X151075500Y-86511485D01*
X151075500Y-86188515D01*
X151039339Y-85867577D01*
X150967472Y-85552705D01*
X150860802Y-85247860D01*
X150720671Y-84956875D01*
X150548841Y-84683409D01*
X150347473Y-84430901D01*
X150119099Y-84202527D01*
X149866591Y-84001159D01*
X149613132Y-83841900D01*
X149593122Y-83829327D01*
X149302147Y-83689201D01*
X149302133Y-83689195D01*
X148997306Y-83582531D01*
X148997294Y-83582527D01*
X148682426Y-83510661D01*
X148682410Y-83510659D01*
X148361489Y-83474500D01*
X148361485Y-83474500D01*
X148038515Y-83474500D01*
X148038510Y-83474500D01*
X147717589Y-83510659D01*
X147717573Y-83510661D01*
X147402705Y-83582527D01*
X147402693Y-83582531D01*
X147097866Y-83689195D01*
X147097852Y-83689201D01*
X146806877Y-83829327D01*
X146533410Y-84001158D01*
X146280901Y-84202526D01*
X146052526Y-84430901D01*
X145851158Y-84683410D01*
X145679327Y-84956877D01*
X145539201Y-85247852D01*
X145539195Y-85247866D01*
X145432531Y-85552693D01*
X145432527Y-85552705D01*
X145360661Y-85867573D01*
X145360659Y-85867589D01*
X145324500Y-86188510D01*
X145324500Y-86511489D01*
X92104500Y-86511489D01*
X92104500Y-83778500D01*
X92124185Y-83711461D01*
X92176989Y-83665706D01*
X92228500Y-83654500D01*
X106482552Y-83654500D01*
X106482568Y-83654501D01*
X106490164Y-83654501D01*
X106609835Y-83654501D01*
X106609836Y-83654501D01*
X106700998Y-83630073D01*
X106701001Y-83630073D01*
X106715118Y-83626290D01*
X106725431Y-83623527D01*
X106829070Y-83563691D01*
X106913691Y-83479070D01*
X106913691Y-83479068D01*
X106923895Y-83468865D01*
X106923898Y-83468860D01*
X107599759Y-82793000D01*
X119337867Y-82793000D01*
X119356302Y-82921225D01*
X119384461Y-82982883D01*
X119410118Y-83039063D01*
X119494951Y-83136967D01*
X119603931Y-83207004D01*
X119728225Y-83243499D01*
X119728227Y-83243500D01*
X119728228Y-83243500D01*
X119857773Y-83243500D01*
X119857773Y-83243499D01*
X119982069Y-83207004D01*
X120091049Y-83136967D01*
X120175882Y-83039063D01*
X120229697Y-82921226D01*
X120248133Y-82793000D01*
X120240896Y-82742666D01*
X120233633Y-82692146D01*
X120243577Y-82622988D01*
X120289332Y-82570184D01*
X120356371Y-82550500D01*
X120464773Y-82550500D01*
X120464773Y-82550499D01*
X120589069Y-82514004D01*
X120698049Y-82443967D01*
X120782882Y-82346063D01*
X120836697Y-82228226D01*
X120847912Y-82150218D01*
X120876934Y-82086665D01*
X120882939Y-82080214D01*
X121162065Y-81801090D01*
X121205181Y-81726410D01*
X121225654Y-81650005D01*
X142344529Y-81650005D01*
X142364379Y-81889559D01*
X142423389Y-82122589D01*
X142519951Y-82342729D01*
X142581393Y-82436772D01*
X142651429Y-82543969D01*
X142814236Y-82720825D01*
X142814239Y-82720827D01*
X142814242Y-82720830D01*
X143003924Y-82868466D01*
X143003930Y-82868470D01*
X143003933Y-82868472D01*
X143215344Y-82982882D01*
X143215347Y-82982883D01*
X143442699Y-83060933D01*
X143442701Y-83060933D01*
X143442703Y-83060934D01*
X143679808Y-83100500D01*
X143679809Y-83100500D01*
X143920191Y-83100500D01*
X143920192Y-83100500D01*
X144157297Y-83060934D01*
X144384656Y-82982882D01*
X144596067Y-82868472D01*
X144785764Y-82720825D01*
X144948571Y-82543969D01*
X145080049Y-82342728D01*
X145176610Y-82122591D01*
X145235620Y-81889563D01*
X145247673Y-81744112D01*
X145255471Y-81650005D01*
X145255471Y-81649994D01*
X145240061Y-81464028D01*
X145235620Y-81410437D01*
X145176610Y-81177409D01*
X145080049Y-80957272D01*
X145077619Y-80953553D01*
X144998764Y-80832857D01*
X144948571Y-80756031D01*
X144804938Y-80600004D01*
X149045093Y-80600004D01*
X149064692Y-80861545D01*
X149064693Y-80861550D01*
X149123058Y-81117270D01*
X149218883Y-81361426D01*
X149218882Y-81361426D01*
X149350027Y-81588573D01*
X149397874Y-81648571D01*
X150122421Y-80924024D01*
X150135359Y-80955258D01*
X150217437Y-81078097D01*
X150321903Y-81182563D01*
X150444742Y-81264641D01*
X150475974Y-81277577D01*
X149750830Y-82002720D01*
X149922546Y-82119793D01*
X149922550Y-82119795D01*
X150158854Y-82233594D01*
X150158858Y-82233595D01*
X150409494Y-82310907D01*
X150409500Y-82310909D01*
X150668848Y-82349999D01*
X150668857Y-82350000D01*
X150931143Y-82350000D01*
X150931151Y-82349999D01*
X151190499Y-82310909D01*
X151190505Y-82310907D01*
X151441143Y-82233595D01*
X151677445Y-82119798D01*
X151677447Y-82119797D01*
X151849168Y-82002720D01*
X151124025Y-81277578D01*
X151155258Y-81264641D01*
X151278097Y-81182563D01*
X151382563Y-81078097D01*
X151464641Y-80955258D01*
X151477578Y-80924025D01*
X152202125Y-81648572D01*
X152249971Y-81588573D01*
X152381116Y-81361426D01*
X152476941Y-81117270D01*
X152535306Y-80861550D01*
X152535307Y-80861545D01*
X152554907Y-80600004D01*
X152554907Y-80599995D01*
X152535307Y-80338454D01*
X152535306Y-80338449D01*
X152476941Y-80082729D01*
X152381116Y-79838573D01*
X152381117Y-79838573D01*
X152249972Y-79611426D01*
X152202124Y-79551427D01*
X151477577Y-80275973D01*
X151464641Y-80244742D01*
X151382563Y-80121903D01*
X151278097Y-80017437D01*
X151155258Y-79935359D01*
X151124025Y-79922421D01*
X151849168Y-79197278D01*
X151677454Y-79080206D01*
X151677445Y-79080201D01*
X151441142Y-78966404D01*
X151441144Y-78966404D01*
X151190505Y-78889092D01*
X151190499Y-78889090D01*
X150931151Y-78850000D01*
X150668848Y-78850000D01*
X150409500Y-78889090D01*
X150409494Y-78889092D01*
X150158858Y-78966404D01*
X150158854Y-78966405D01*
X149922547Y-79080205D01*
X149922539Y-79080210D01*
X149750830Y-79197277D01*
X150475974Y-79922421D01*
X150444742Y-79935359D01*
X150321903Y-80017437D01*
X150217437Y-80121903D01*
X150135359Y-80244742D01*
X150122422Y-80275974D01*
X149397874Y-79551427D01*
X149350028Y-79611425D01*
X149218883Y-79838573D01*
X149123058Y-80082729D01*
X149064693Y-80338449D01*
X149064692Y-80338454D01*
X149045093Y-80599995D01*
X149045093Y-80600004D01*
X144804938Y-80600004D01*
X144785764Y-80579175D01*
X144785759Y-80579171D01*
X144785757Y-80579169D01*
X144596075Y-80431533D01*
X144596069Y-80431529D01*
X144384657Y-80317118D01*
X144384652Y-80317116D01*
X144157300Y-80239066D01*
X143979468Y-80209391D01*
X143920192Y-80199500D01*
X143679808Y-80199500D01*
X143632387Y-80207413D01*
X143442699Y-80239066D01*
X143215347Y-80317116D01*
X143215342Y-80317118D01*
X143003930Y-80431529D01*
X143003924Y-80431533D01*
X142814242Y-80579169D01*
X142814239Y-80579172D01*
X142651430Y-80756029D01*
X142651427Y-80756033D01*
X142519951Y-80957270D01*
X142423389Y-81177410D01*
X142364379Y-81410440D01*
X142344529Y-81649994D01*
X142344529Y-81650005D01*
X121225654Y-81650005D01*
X121227500Y-81643116D01*
X121227500Y-81556884D01*
X121227500Y-81087017D01*
X121247185Y-81019978D01*
X121263819Y-80999336D01*
X121476336Y-80786819D01*
X121537659Y-80753334D01*
X121564017Y-80750500D01*
X121564773Y-80750500D01*
X121564773Y-80750499D01*
X121689069Y-80714004D01*
X121798049Y-80643967D01*
X121882882Y-80546063D01*
X121936697Y-80428226D01*
X121955133Y-80300000D01*
X121936697Y-80171774D01*
X121882882Y-80053937D01*
X121798049Y-79956033D01*
X121689069Y-79885996D01*
X121689065Y-79885994D01*
X121689064Y-79885994D01*
X121564774Y-79849500D01*
X121564772Y-79849500D01*
X121435228Y-79849500D01*
X121435226Y-79849500D01*
X121310935Y-79885994D01*
X121310932Y-79885995D01*
X121310931Y-79885996D01*
X121259677Y-79918934D01*
X121201950Y-79956033D01*
X121117118Y-80053937D01*
X121117117Y-80053938D01*
X121063303Y-80171772D01*
X121063302Y-80171776D01*
X121052087Y-80249780D01*
X121023062Y-80313335D01*
X121017031Y-80319813D01*
X120698910Y-80637935D01*
X120637936Y-80698908D01*
X120637934Y-80698911D01*
X120594819Y-80773589D01*
X120594819Y-80773590D01*
X120578939Y-80832856D01*
X120572500Y-80856885D01*
X120572500Y-81412983D01*
X120552815Y-81480022D01*
X120536181Y-81500664D01*
X120423664Y-81613181D01*
X120362341Y-81646666D01*
X120335983Y-81649500D01*
X120335228Y-81649500D01*
X120279433Y-81665882D01*
X120209563Y-81665881D01*
X120150786Y-81628105D01*
X120121762Y-81564549D01*
X120120500Y-81546904D01*
X120120500Y-78956226D01*
X120140185Y-78889187D01*
X120150780Y-78875032D01*
X120175882Y-78846063D01*
X120229697Y-78728226D01*
X120248133Y-78600000D01*
X120229697Y-78471774D01*
X120175882Y-78353937D01*
X120091049Y-78256033D01*
X119982069Y-78185996D01*
X119982065Y-78185994D01*
X119982064Y-78185994D01*
X119857774Y-78149500D01*
X119857772Y-78149500D01*
X119728228Y-78149500D01*
X119728226Y-78149500D01*
X119603935Y-78185994D01*
X119603932Y-78185995D01*
X119603931Y-78185996D01*
X119552677Y-78218934D01*
X119494950Y-78256033D01*
X119410118Y-78353937D01*
X119410117Y-78353938D01*
X119356302Y-78471774D01*
X119337867Y-78600000D01*
X119356302Y-78728225D01*
X119390879Y-78803937D01*
X119410118Y-78846063D01*
X119435213Y-78875024D01*
X119464238Y-78938577D01*
X119465500Y-78956226D01*
X119465500Y-82436772D01*
X119445815Y-82503811D01*
X119435215Y-82517972D01*
X119410119Y-82546935D01*
X119410116Y-82546939D01*
X119356302Y-82664774D01*
X119337867Y-82793000D01*
X107599759Y-82793000D01*
X109113691Y-81279069D01*
X109123509Y-81262063D01*
X109130070Y-81250699D01*
X109133173Y-81245609D01*
X109134163Y-81244069D01*
X109136359Y-81239804D01*
X109173527Y-81175430D01*
X109182754Y-81140992D01*
X109184273Y-81136769D01*
X109184195Y-81136746D01*
X109186694Y-81128230D01*
X109186697Y-81128226D01*
X109186697Y-81128220D01*
X109187333Y-81126057D01*
X109189215Y-81116879D01*
X109204501Y-81059836D01*
X109204501Y-81013264D01*
X109205133Y-81004435D01*
X109205133Y-80995577D01*
X109204501Y-80986736D01*
X109204501Y-80940164D01*
X109193218Y-80898059D01*
X109189211Y-80883107D01*
X109187332Y-80873937D01*
X109184197Y-80863258D01*
X109184274Y-80863235D01*
X109182756Y-80859015D01*
X109173527Y-80824570D01*
X109136346Y-80760170D01*
X109134148Y-80755905D01*
X109133153Y-80754357D01*
X109130080Y-80749316D01*
X109113693Y-80720933D01*
X109113689Y-80720928D01*
X109029071Y-80636310D01*
X109029070Y-80636309D01*
X108925430Y-80576473D01*
X108925431Y-80576473D01*
X108886898Y-80566148D01*
X108809836Y-80545499D01*
X108690164Y-80545499D01*
X108588227Y-80572813D01*
X108574566Y-80576474D01*
X108470934Y-80636306D01*
X108470928Y-80636311D01*
X106398059Y-82709181D01*
X106336736Y-82742666D01*
X106310378Y-82745500D01*
X91939622Y-82745500D01*
X91872583Y-82725815D01*
X91851941Y-82709181D01*
X90142760Y-81000000D01*
X93294867Y-81000000D01*
X93313302Y-81128225D01*
X93338118Y-81182563D01*
X93367118Y-81246063D01*
X93451951Y-81343967D01*
X93560931Y-81414004D01*
X93685225Y-81450499D01*
X93685227Y-81450500D01*
X93685228Y-81450500D01*
X93814773Y-81450500D01*
X93814773Y-81450499D01*
X93939069Y-81414004D01*
X94043043Y-81347183D01*
X94110082Y-81327500D01*
X94904299Y-81327500D01*
X94904301Y-81327500D01*
X94987595Y-81305181D01*
X95062275Y-81262065D01*
X95630540Y-80693799D01*
X95691861Y-80660316D01*
X95761552Y-80665300D01*
X95817486Y-80707171D01*
X95841903Y-80772636D01*
X95831014Y-80832993D01*
X95813302Y-80871776D01*
X95794867Y-81000000D01*
X95813302Y-81128225D01*
X95838118Y-81182563D01*
X95867118Y-81246063D01*
X95951951Y-81343967D01*
X96060931Y-81414004D01*
X96185225Y-81450499D01*
X96185227Y-81450500D01*
X96185228Y-81450500D01*
X96314773Y-81450500D01*
X96314773Y-81450499D01*
X96439069Y-81414004D01*
X96548049Y-81343967D01*
X96632882Y-81246063D01*
X96686697Y-81128226D01*
X96705133Y-81000000D01*
X96686697Y-80871774D01*
X96679897Y-80856884D01*
X96632883Y-80753939D01*
X96632882Y-80753938D01*
X96632882Y-80753937D01*
X96625345Y-80745238D01*
X96607785Y-80724972D01*
X96578762Y-80661416D01*
X96577500Y-80643772D01*
X96577500Y-80337017D01*
X96597185Y-80269978D01*
X96613819Y-80249336D01*
X98210819Y-78652336D01*
X98272142Y-78618851D01*
X98341834Y-78623835D01*
X98397767Y-78665707D01*
X98422184Y-78731171D01*
X98422500Y-78740017D01*
X98422500Y-80643772D01*
X98402815Y-80710811D01*
X98392215Y-80724972D01*
X98367119Y-80753935D01*
X98367116Y-80753939D01*
X98313302Y-80871774D01*
X98294867Y-81000000D01*
X98313302Y-81128225D01*
X98338118Y-81182563D01*
X98367118Y-81246063D01*
X98451951Y-81343967D01*
X98560931Y-81414004D01*
X98685225Y-81450499D01*
X98685227Y-81450500D01*
X98685228Y-81450500D01*
X98814773Y-81450500D01*
X98814773Y-81450499D01*
X98939069Y-81414004D01*
X99048049Y-81343967D01*
X99132882Y-81246063D01*
X99186697Y-81128226D01*
X99205133Y-81000000D01*
X103294867Y-81000000D01*
X103313302Y-81128225D01*
X103338118Y-81182563D01*
X103367118Y-81246063D01*
X103451951Y-81343967D01*
X103560931Y-81414004D01*
X103685225Y-81450499D01*
X103685227Y-81450500D01*
X103685228Y-81450500D01*
X103814773Y-81450500D01*
X103814773Y-81450499D01*
X103939069Y-81414004D01*
X104048049Y-81343967D01*
X104132882Y-81246063D01*
X104186697Y-81128226D01*
X104205133Y-81000000D01*
X104186697Y-80871774D01*
X104179897Y-80856884D01*
X104132883Y-80753939D01*
X104132882Y-80753938D01*
X104132882Y-80753937D01*
X104125345Y-80745238D01*
X104107785Y-80724972D01*
X104078762Y-80661416D01*
X104077500Y-80643772D01*
X104077500Y-78687017D01*
X104097185Y-78619978D01*
X104113819Y-78599336D01*
X111999336Y-70713819D01*
X112060659Y-70680334D01*
X112087017Y-70677500D01*
X112289918Y-70677500D01*
X112356956Y-70697183D01*
X112460931Y-70764004D01*
X112491607Y-70773011D01*
X112585225Y-70800499D01*
X112585227Y-70800500D01*
X112585228Y-70800500D01*
X112714773Y-70800500D01*
X112714773Y-70800499D01*
X112839069Y-70764004D01*
X112948049Y-70693967D01*
X113032882Y-70596063D01*
X113086697Y-70478226D01*
X113105133Y-70350000D01*
X113086697Y-70221774D01*
X113032882Y-70103937D01*
X112948049Y-70006033D01*
X112839069Y-69935996D01*
X112839065Y-69935994D01*
X112839064Y-69935994D01*
X112714774Y-69899500D01*
X112714772Y-69899500D01*
X112585228Y-69899500D01*
X112585226Y-69899500D01*
X112460935Y-69935994D01*
X112460932Y-69935995D01*
X112460931Y-69935996D01*
X112367465Y-69996063D01*
X112356957Y-70002816D01*
X112289918Y-70022500D01*
X111943116Y-70022500D01*
X111856884Y-70022500D01*
X111801354Y-70037379D01*
X111773589Y-70044819D01*
X111698911Y-70087934D01*
X111698908Y-70087936D01*
X103487936Y-78298908D01*
X103487934Y-78298911D01*
X103444819Y-78373589D01*
X103422500Y-78456885D01*
X103422500Y-80643772D01*
X103402815Y-80710811D01*
X103392215Y-80724972D01*
X103367119Y-80753935D01*
X103367116Y-80753939D01*
X103313302Y-80871774D01*
X103294867Y-81000000D01*
X99205133Y-81000000D01*
X99186697Y-80871774D01*
X99179897Y-80856884D01*
X99132883Y-80753939D01*
X99132882Y-80753938D01*
X99132882Y-80753937D01*
X99125345Y-80745238D01*
X99107785Y-80724972D01*
X99078762Y-80661416D01*
X99077500Y-80643772D01*
X99077500Y-78375832D01*
X99097185Y-78308793D01*
X99113814Y-78288156D01*
X101465640Y-75936329D01*
X101526961Y-75902846D01*
X101596653Y-75907830D01*
X101604835Y-75911220D01*
X101610933Y-75914005D01*
X101735225Y-75950499D01*
X101735227Y-75950500D01*
X101735228Y-75950500D01*
X101864773Y-75950500D01*
X101864773Y-75950499D01*
X101989069Y-75914004D01*
X102098049Y-75843967D01*
X102182882Y-75746063D01*
X102236697Y-75628226D01*
X102255133Y-75500000D01*
X102252452Y-75481353D01*
X102262396Y-75412196D01*
X102308150Y-75359392D01*
X102375190Y-75339707D01*
X102442229Y-75359392D01*
X102462871Y-75376026D01*
X102567030Y-75480185D01*
X102600515Y-75541508D01*
X102602087Y-75550219D01*
X102613302Y-75628222D01*
X102613303Y-75628227D01*
X102630863Y-75666677D01*
X102667118Y-75746063D01*
X102751951Y-75843967D01*
X102860931Y-75914004D01*
X102985225Y-75950499D01*
X102985227Y-75950500D01*
X102985228Y-75950500D01*
X103114773Y-75950500D01*
X103114773Y-75950499D01*
X103239069Y-75914004D01*
X103348049Y-75843967D01*
X103432882Y-75746063D01*
X103486697Y-75628226D01*
X103505133Y-75500000D01*
X103494056Y-75422957D01*
X103504000Y-75353799D01*
X103549755Y-75300996D01*
X103616794Y-75281311D01*
X103683834Y-75300996D01*
X103704475Y-75317630D01*
X103867030Y-75480185D01*
X103900515Y-75541508D01*
X103902087Y-75550219D01*
X103913302Y-75628222D01*
X103913303Y-75628227D01*
X103930863Y-75666677D01*
X103967118Y-75746063D01*
X104051951Y-75843967D01*
X104160931Y-75914004D01*
X104285225Y-75950499D01*
X104285227Y-75950500D01*
X104285228Y-75950500D01*
X104414773Y-75950500D01*
X104414773Y-75950499D01*
X104539069Y-75914004D01*
X104648049Y-75843967D01*
X104732882Y-75746063D01*
X104786697Y-75628226D01*
X104805133Y-75500000D01*
X104786697Y-75371774D01*
X104732882Y-75253937D01*
X104648049Y-75156033D01*
X104539069Y-75085996D01*
X104539065Y-75085994D01*
X104539064Y-75085994D01*
X104414774Y-75049500D01*
X104414772Y-75049500D01*
X104414017Y-75049500D01*
X104413291Y-75049286D01*
X104405995Y-75048238D01*
X104406145Y-75047188D01*
X104346978Y-75029815D01*
X104326336Y-75013181D01*
X103563091Y-74249936D01*
X103563090Y-74249935D01*
X103488410Y-74206819D01*
X103488411Y-74206819D01*
X103460645Y-74199379D01*
X103405116Y-74184500D01*
X101392301Y-74184500D01*
X101306069Y-74184500D01*
X101250539Y-74199379D01*
X101222774Y-74206819D01*
X101148096Y-74249934D01*
X101148093Y-74249936D01*
X94761849Y-80636181D01*
X94700526Y-80669666D01*
X94674168Y-80672500D01*
X94110082Y-80672500D01*
X94043043Y-80652816D01*
X93939069Y-80585996D01*
X93939065Y-80585994D01*
X93939064Y-80585994D01*
X93814774Y-80549500D01*
X93814772Y-80549500D01*
X93685228Y-80549500D01*
X93685226Y-80549500D01*
X93560935Y-80585994D01*
X93560932Y-80585995D01*
X93560931Y-80585996D01*
X93509677Y-80618934D01*
X93451950Y-80656033D01*
X93367118Y-80753937D01*
X93367117Y-80753938D01*
X93313302Y-80871774D01*
X93294867Y-81000000D01*
X90142760Y-81000000D01*
X90040819Y-80898059D01*
X90007334Y-80836736D01*
X90004500Y-80810378D01*
X90004500Y-75733716D01*
X90024185Y-75666677D01*
X90076989Y-75620922D01*
X90146147Y-75610978D01*
X90163434Y-75614739D01*
X90285225Y-75650499D01*
X90285227Y-75650500D01*
X90285228Y-75650500D01*
X90414773Y-75650500D01*
X90414773Y-75650499D01*
X90539069Y-75614004D01*
X90643043Y-75547183D01*
X90710082Y-75527500D01*
X90793114Y-75527500D01*
X90793116Y-75527500D01*
X90876410Y-75505181D01*
X90951090Y-75462065D01*
X93042336Y-73370819D01*
X93103659Y-73337334D01*
X93130017Y-73334500D01*
X97202762Y-73334500D01*
X97237696Y-73339523D01*
X97360225Y-73375499D01*
X97360227Y-73375500D01*
X97360228Y-73375500D01*
X97489773Y-73375500D01*
X97489773Y-73375499D01*
X97614069Y-73339004D01*
X97723049Y-73268967D01*
X97807882Y-73171063D01*
X97861697Y-73053226D01*
X97880133Y-72925000D01*
X97861697Y-72796774D01*
X97807882Y-72678937D01*
X97723049Y-72581033D01*
X97614069Y-72510996D01*
X97614065Y-72510994D01*
X97614064Y-72510994D01*
X97489774Y-72474500D01*
X97489772Y-72474500D01*
X97360228Y-72474500D01*
X97360226Y-72474500D01*
X97235935Y-72510994D01*
X97235932Y-72510995D01*
X97235931Y-72510996D01*
X97195879Y-72536736D01*
X97126948Y-72581034D01*
X97078715Y-72636701D01*
X97019938Y-72674477D01*
X96985001Y-72679500D01*
X94302130Y-72679500D01*
X94235091Y-72659815D01*
X94189336Y-72607011D01*
X94179392Y-72537853D01*
X94208417Y-72474297D01*
X94232882Y-72446063D01*
X94286697Y-72328226D01*
X94305133Y-72200000D01*
X94286697Y-72071774D01*
X94232882Y-71953937D01*
X94148049Y-71856033D01*
X94039069Y-71785996D01*
X94039065Y-71785994D01*
X94039064Y-71785994D01*
X93914774Y-71749500D01*
X93914772Y-71749500D01*
X93785228Y-71749500D01*
X93785226Y-71749500D01*
X93722416Y-71767942D01*
X93652546Y-71767942D01*
X93599801Y-71736646D01*
X91687434Y-69824279D01*
X91653949Y-69762956D01*
X91652377Y-69754245D01*
X91633331Y-69621774D01*
X91611297Y-69573527D01*
X91579516Y-69503937D01*
X91494683Y-69406033D01*
X91385703Y-69335996D01*
X91385699Y-69335994D01*
X91385698Y-69335994D01*
X91261408Y-69299500D01*
X91261406Y-69299500D01*
X91131862Y-69299500D01*
X91131860Y-69299500D01*
X91007569Y-69335994D01*
X91007566Y-69335995D01*
X91007565Y-69335996D01*
X90961955Y-69365308D01*
X90898584Y-69406033D01*
X90813752Y-69503937D01*
X90813751Y-69503938D01*
X90759936Y-69621774D01*
X90741501Y-69750000D01*
X90759936Y-69878225D01*
X90785488Y-69934174D01*
X90813752Y-69996063D01*
X90898585Y-70093967D01*
X91007565Y-70164004D01*
X91047975Y-70175869D01*
X91109257Y-70193863D01*
X91162004Y-70225159D01*
X93404657Y-72467812D01*
X93402213Y-72470255D01*
X93433946Y-72514317D01*
X93437644Y-72584088D01*
X93403034Y-72644783D01*
X93341104Y-72677132D01*
X93316985Y-72679500D01*
X92986116Y-72679500D01*
X92899884Y-72679500D01*
X92857041Y-72690980D01*
X92816589Y-72701819D01*
X92741911Y-72744934D01*
X92741908Y-72744936D01*
X90708212Y-74778631D01*
X90646889Y-74812116D01*
X90577197Y-74807132D01*
X90553492Y-74795265D01*
X90539068Y-74785995D01*
X90539066Y-74785994D01*
X90414774Y-74749500D01*
X90414772Y-74749500D01*
X90285228Y-74749500D01*
X90285226Y-74749500D01*
X90163434Y-74785260D01*
X90093564Y-74785260D01*
X90034786Y-74747485D01*
X90005762Y-74683929D01*
X90004500Y-74666283D01*
X90004500Y-70969838D01*
X90004501Y-70969825D01*
X90004501Y-70840165D01*
X89997017Y-70812236D01*
X89973527Y-70724570D01*
X89973527Y-70724569D01*
X89973527Y-70724568D01*
X89946352Y-70677500D01*
X89913691Y-70620930D01*
X89829070Y-70536309D01*
X89829069Y-70536308D01*
X89824739Y-70531978D01*
X89824728Y-70531968D01*
X88170761Y-68878001D01*
X88170759Y-68877998D01*
X88079072Y-68786311D01*
X88079066Y-68786306D01*
X87975434Y-68726474D01*
X87975429Y-68726472D01*
X87951003Y-68719926D01*
X87951003Y-68719927D01*
X87905419Y-68707713D01*
X87859836Y-68695499D01*
X87740164Y-68695499D01*
X87732568Y-68695499D01*
X87732552Y-68695500D01*
X86770047Y-68695500D01*
X86654452Y-68726473D01*
X86654449Y-68726474D01*
X86550816Y-68786307D01*
X86550814Y-68786308D01*
X86466191Y-68870930D01*
X86449783Y-68899348D01*
X86446740Y-68904342D01*
X86445746Y-68905888D01*
X86443558Y-68910131D01*
X86406355Y-68974570D01*
X86397122Y-69009027D01*
X86395601Y-69013261D01*
X86395679Y-69013284D01*
X86392558Y-69023907D01*
X86390672Y-69033100D01*
X86375383Y-69090163D01*
X86375383Y-69136729D01*
X86374750Y-69145584D01*
X86374750Y-69154420D01*
X81554500Y-69154420D01*
X81554500Y-67069838D01*
X81554501Y-67069825D01*
X81554501Y-66940165D01*
X81547491Y-66914005D01*
X81528704Y-66843890D01*
X81523527Y-66824569D01*
X81463691Y-66720930D01*
X81379070Y-66636309D01*
X81379069Y-66636308D01*
X81374739Y-66631978D01*
X81374728Y-66631968D01*
X81330440Y-66587680D01*
X81296955Y-66526357D01*
X81301939Y-66456665D01*
X81330436Y-66412323D01*
X86868860Y-60873898D01*
X86868865Y-60873895D01*
X86879068Y-60863691D01*
X86879070Y-60863691D01*
X86963691Y-60779070D01*
X87023527Y-60675431D01*
X87054500Y-60559836D01*
X87054500Y-58713273D01*
X87055133Y-58704420D01*
X87055133Y-58695584D01*
X87054500Y-58686729D01*
X87054500Y-58640166D01*
X87054500Y-58640164D01*
X87039210Y-58583100D01*
X87037329Y-58573929D01*
X87036697Y-58571778D01*
X87036697Y-58571774D01*
X87036694Y-58571769D01*
X87034197Y-58563262D01*
X87034275Y-58563238D01*
X87032754Y-58559006D01*
X87023527Y-58524569D01*
X86986339Y-58460159D01*
X86984156Y-58455920D01*
X86983153Y-58454360D01*
X86980081Y-58449319D01*
X86963693Y-58420933D01*
X86963689Y-58420928D01*
X86879072Y-58336311D01*
X86879070Y-58336309D01*
X86775431Y-58276473D01*
X86659836Y-58245500D01*
X86540164Y-58245500D01*
X86424569Y-58276473D01*
X86424566Y-58276474D01*
X86320933Y-58336307D01*
X86320931Y-58336308D01*
X86236308Y-58420930D01*
X86219900Y-58449348D01*
X86216857Y-58454342D01*
X86215863Y-58455888D01*
X86213675Y-58460131D01*
X86176472Y-58524570D01*
X86167239Y-58559027D01*
X86165718Y-58563261D01*
X86165796Y-58563284D01*
X86162675Y-58573907D01*
X86160789Y-58583100D01*
X86145500Y-58640163D01*
X86145500Y-58686729D01*
X86144867Y-58695584D01*
X86144867Y-58704420D01*
X86145500Y-58713273D01*
X86145500Y-60260378D01*
X86125815Y-60327417D01*
X86109181Y-60348059D01*
X80320930Y-66136310D01*
X80296171Y-66161069D01*
X80236309Y-66220930D01*
X80222015Y-66245688D01*
X80220762Y-66247860D01*
X80219925Y-66249309D01*
X80216876Y-66254312D01*
X80215853Y-66255904D01*
X80213652Y-66260174D01*
X80179220Y-66319813D01*
X80176472Y-66324572D01*
X80176470Y-66324575D01*
X80167239Y-66359027D01*
X80165721Y-66363251D01*
X80165798Y-66363274D01*
X80162671Y-66373926D01*
X80160789Y-66383098D01*
X80153983Y-66408500D01*
X80145499Y-66440164D01*
X80145499Y-66440166D01*
X80145499Y-66486736D01*
X80144867Y-66495577D01*
X80144867Y-66504435D01*
X80145499Y-66513264D01*
X80145499Y-66559838D01*
X80160787Y-66616895D01*
X80162668Y-66626064D01*
X80165799Y-66636726D01*
X80165720Y-66636749D01*
X80167241Y-66640980D01*
X80176470Y-66675425D01*
X80176473Y-66675430D01*
X80213642Y-66739809D01*
X80215841Y-66744077D01*
X80216852Y-66745649D01*
X80219929Y-66750698D01*
X80236310Y-66779070D01*
X80236312Y-66779072D01*
X80609181Y-67151941D01*
X80642666Y-67213264D01*
X80645500Y-67239622D01*
X80645500Y-71060377D01*
X80625815Y-71127416D01*
X80609181Y-71148058D01*
X78536311Y-73220927D01*
X78536307Y-73220933D01*
X78476472Y-73324568D01*
X78476473Y-73324568D01*
X78476473Y-73324570D01*
X78445499Y-73440165D01*
X78445499Y-73569825D01*
X78445500Y-73569838D01*
X78445500Y-80086729D01*
X78444867Y-80095584D01*
X78444867Y-80104420D01*
X65329811Y-80104420D01*
X65340951Y-80096158D01*
X65632192Y-79832192D01*
X65896158Y-79540951D01*
X66130306Y-79225239D01*
X66332381Y-78888097D01*
X66459299Y-78619752D01*
X67199500Y-78619752D01*
X67211131Y-78678229D01*
X67211132Y-78678230D01*
X67255447Y-78744552D01*
X67321769Y-78788867D01*
X67321770Y-78788868D01*
X67380247Y-78800499D01*
X67380250Y-78800500D01*
X67380252Y-78800500D01*
X69419750Y-78800500D01*
X69419751Y-78800499D01*
X69434568Y-78797552D01*
X69478229Y-78788868D01*
X69478229Y-78788867D01*
X69478231Y-78788867D01*
X69544552Y-78744552D01*
X69588867Y-78678231D01*
X69588867Y-78678229D01*
X69588868Y-78678229D01*
X69600499Y-78619752D01*
X69600500Y-78619750D01*
X69600500Y-75380249D01*
X69600499Y-75380247D01*
X69588868Y-75321770D01*
X69588867Y-75321769D01*
X69544552Y-75255447D01*
X69478230Y-75211132D01*
X69478229Y-75211131D01*
X69419752Y-75199500D01*
X69419748Y-75199500D01*
X67380252Y-75199500D01*
X67380247Y-75199500D01*
X67321770Y-75211131D01*
X67321769Y-75211132D01*
X67255447Y-75255447D01*
X67211132Y-75321769D01*
X67211131Y-75321770D01*
X67199500Y-75380247D01*
X67199500Y-78619752D01*
X66459299Y-78619752D01*
X66500438Y-78532772D01*
X66632857Y-78162684D01*
X66728364Y-77781400D01*
X66786038Y-77392591D01*
X66805325Y-77000000D01*
X66786038Y-76607409D01*
X66728364Y-76218600D01*
X66632857Y-75837316D01*
X66500438Y-75467228D01*
X66332381Y-75111903D01*
X66293592Y-75047188D01*
X66197664Y-74887141D01*
X66130306Y-74774761D01*
X65896158Y-74459049D01*
X65896153Y-74459043D01*
X65632192Y-74167807D01*
X65340956Y-73903846D01*
X65303376Y-73875975D01*
X65025239Y-73669694D01*
X64969543Y-73636311D01*
X64688100Y-73467620D01*
X64332772Y-73299562D01*
X64332770Y-73299561D01*
X63962684Y-73167143D01*
X63581406Y-73071637D01*
X63581401Y-73071636D01*
X63581400Y-73071636D01*
X63437256Y-73050254D01*
X63192599Y-73013963D01*
X63192597Y-73013962D01*
X63192591Y-73013962D01*
X62800000Y-72994675D01*
X62407409Y-73013962D01*
X62407403Y-73013962D01*
X62407400Y-73013963D01*
X62018593Y-73071637D01*
X61637315Y-73167143D01*
X61267229Y-73299561D01*
X61267227Y-73299562D01*
X60911899Y-73467620D01*
X60574763Y-73669692D01*
X60259043Y-73903846D01*
X59967807Y-74167807D01*
X59703846Y-74459043D01*
X59469692Y-74774763D01*
X59267620Y-75111899D01*
X59099562Y-75467227D01*
X59099561Y-75467229D01*
X58967143Y-75837315D01*
X58871637Y-76218593D01*
X58871636Y-76218600D01*
X58813962Y-76607409D01*
X58794675Y-77000000D01*
X58400500Y-77000000D01*
X58400500Y-75380249D01*
X58400499Y-75380247D01*
X58388868Y-75321770D01*
X58388867Y-75321769D01*
X58344552Y-75255447D01*
X58278230Y-75211132D01*
X58278229Y-75211131D01*
X58219752Y-75199500D01*
X58219748Y-75199500D01*
X56180252Y-75199500D01*
X56180247Y-75199500D01*
X56121770Y-75211131D01*
X56121769Y-75211132D01*
X56055447Y-75255447D01*
X56011132Y-75321769D01*
X56011131Y-75321770D01*
X55999500Y-75380247D01*
X55999500Y-78619752D01*
X50500500Y-78619752D01*
X50500500Y-70000000D01*
X59094357Y-70000000D01*
X59114884Y-70221535D01*
X59114885Y-70221537D01*
X59175769Y-70435523D01*
X59175775Y-70435538D01*
X59274938Y-70634683D01*
X59274943Y-70634691D01*
X59409020Y-70812238D01*
X59561088Y-70950866D01*
X59570931Y-70959839D01*
X59573437Y-70962123D01*
X59573439Y-70962125D01*
X59762595Y-71079245D01*
X59762596Y-71079245D01*
X59762599Y-71079247D01*
X59970060Y-71159618D01*
X60188757Y-71200500D01*
X60188759Y-71200500D01*
X60411241Y-71200500D01*
X60411243Y-71200500D01*
X60629940Y-71159618D01*
X60837401Y-71079247D01*
X61026562Y-70962124D01*
X61190981Y-70812236D01*
X61325058Y-70634689D01*
X61424229Y-70435528D01*
X61485115Y-70221536D01*
X61505643Y-70000005D01*
X63794859Y-70000005D01*
X63815385Y-70247729D01*
X63815387Y-70247738D01*
X63876412Y-70488717D01*
X63976266Y-70716364D01*
X64076564Y-70869882D01*
X64817037Y-70129409D01*
X64834075Y-70192993D01*
X64899901Y-70307007D01*
X64992993Y-70400099D01*
X65107007Y-70465925D01*
X65170590Y-70482962D01*
X64429942Y-71223609D01*
X64476768Y-71260055D01*
X64476770Y-71260056D01*
X64695385Y-71378364D01*
X64695396Y-71378369D01*
X64930506Y-71459083D01*
X65175707Y-71500000D01*
X65424293Y-71500000D01*
X65669493Y-71459083D01*
X65904603Y-71378369D01*
X65904614Y-71378364D01*
X66123228Y-71260057D01*
X66123231Y-71260055D01*
X66170056Y-71223609D01*
X65429409Y-70482962D01*
X65492993Y-70465925D01*
X65607007Y-70400099D01*
X65700099Y-70307007D01*
X65765925Y-70192993D01*
X65782962Y-70129409D01*
X66523434Y-70869882D01*
X66623731Y-70716369D01*
X66723587Y-70488717D01*
X66784612Y-70247738D01*
X66784614Y-70247729D01*
X66805141Y-70000005D01*
X66805141Y-69999994D01*
X66784614Y-69752270D01*
X66784612Y-69752261D01*
X66723587Y-69511282D01*
X66623731Y-69283630D01*
X66523434Y-69130116D01*
X65782962Y-69870589D01*
X65765925Y-69807007D01*
X65700099Y-69692993D01*
X65607007Y-69599901D01*
X65492993Y-69534075D01*
X65429410Y-69517037D01*
X66170057Y-68776390D01*
X66170056Y-68776389D01*
X66123229Y-68739943D01*
X65904614Y-68621635D01*
X65904603Y-68621630D01*
X65669493Y-68540916D01*
X65424293Y-68500000D01*
X65175707Y-68500000D01*
X64930506Y-68540916D01*
X64695396Y-68621630D01*
X64695390Y-68621632D01*
X64476761Y-68739949D01*
X64429942Y-68776388D01*
X64429942Y-68776390D01*
X65170590Y-69517037D01*
X65107007Y-69534075D01*
X64992993Y-69599901D01*
X64899901Y-69692993D01*
X64834075Y-69807007D01*
X64817037Y-69870589D01*
X64076564Y-69130116D01*
X63976267Y-69283632D01*
X63876412Y-69511282D01*
X63815387Y-69752261D01*
X63815385Y-69752270D01*
X63794859Y-69999994D01*
X63794859Y-70000005D01*
X61505643Y-70000005D01*
X61505643Y-70000000D01*
X61505642Y-69999994D01*
X61485115Y-69778464D01*
X61485114Y-69778462D01*
X61480702Y-69762956D01*
X61424229Y-69564472D01*
X61409093Y-69534075D01*
X61325061Y-69365316D01*
X61325056Y-69365308D01*
X61190979Y-69187761D01*
X61026562Y-69037876D01*
X61026560Y-69037874D01*
X60837404Y-68920754D01*
X60837398Y-68920752D01*
X60819982Y-68914005D01*
X60629940Y-68840382D01*
X60411243Y-68799500D01*
X60188757Y-68799500D01*
X59970060Y-68840382D01*
X59838864Y-68891207D01*
X59762601Y-68920752D01*
X59762595Y-68920754D01*
X59573439Y-69037874D01*
X59573437Y-69037876D01*
X59409020Y-69187761D01*
X59274943Y-69365308D01*
X59274938Y-69365316D01*
X59175775Y-69564461D01*
X59175769Y-69564476D01*
X59114885Y-69778462D01*
X59114884Y-69778464D01*
X59094357Y-69999999D01*
X59094357Y-70000000D01*
X50500500Y-70000000D01*
X50500500Y-66300004D01*
X56394732Y-66300004D01*
X56413777Y-66554154D01*
X56466881Y-66786819D01*
X56470492Y-66802637D01*
X56563607Y-67039888D01*
X56691041Y-67260612D01*
X56849950Y-67459877D01*
X57036783Y-67633232D01*
X57247366Y-67776805D01*
X57247371Y-67776807D01*
X57247372Y-67776808D01*
X57247373Y-67776809D01*
X57362831Y-67832410D01*
X57476992Y-67887387D01*
X57476993Y-67887387D01*
X57476996Y-67887389D01*
X57720542Y-67962513D01*
X57972565Y-68000500D01*
X58227435Y-68000500D01*
X58479458Y-67962513D01*
X58723004Y-67887389D01*
X58952634Y-67776805D01*
X59163217Y-67633232D01*
X59350050Y-67459877D01*
X59508959Y-67260612D01*
X59636393Y-67039888D01*
X59729508Y-66802637D01*
X59786222Y-66554157D01*
X59799728Y-66373926D01*
X59805268Y-66300004D01*
X61094732Y-66300004D01*
X61113777Y-66554154D01*
X61166881Y-66786819D01*
X61170492Y-66802637D01*
X61263607Y-67039888D01*
X61391041Y-67260612D01*
X61549950Y-67459877D01*
X61736783Y-67633232D01*
X61947366Y-67776805D01*
X61947371Y-67776807D01*
X61947372Y-67776808D01*
X61947373Y-67776809D01*
X62062831Y-67832410D01*
X62176992Y-67887387D01*
X62176993Y-67887387D01*
X62176996Y-67887389D01*
X62420542Y-67962513D01*
X62672565Y-68000500D01*
X62927435Y-68000500D01*
X63179458Y-67962513D01*
X63423004Y-67887389D01*
X63652634Y-67776805D01*
X63863217Y-67633232D01*
X64050050Y-67459877D01*
X64208959Y-67260612D01*
X64336393Y-67039888D01*
X64429508Y-66802637D01*
X64486222Y-66554157D01*
X64499728Y-66373926D01*
X64505268Y-66300004D01*
X65794732Y-66300004D01*
X65813777Y-66554154D01*
X65866881Y-66786819D01*
X65870492Y-66802637D01*
X65963607Y-67039888D01*
X66091041Y-67260612D01*
X66249950Y-67459877D01*
X66436783Y-67633232D01*
X66647366Y-67776805D01*
X66647371Y-67776807D01*
X66647372Y-67776808D01*
X66647373Y-67776809D01*
X66762831Y-67832410D01*
X66876992Y-67887387D01*
X66876993Y-67887387D01*
X66876996Y-67887389D01*
X67120542Y-67962513D01*
X67372565Y-68000500D01*
X67627435Y-68000500D01*
X67879458Y-67962513D01*
X68123004Y-67887389D01*
X68352634Y-67776805D01*
X68563217Y-67633232D01*
X68750050Y-67459877D01*
X68908959Y-67260612D01*
X69036393Y-67039888D01*
X69129508Y-66802637D01*
X69186222Y-66554157D01*
X69199728Y-66373926D01*
X69205268Y-66300004D01*
X69205268Y-66299995D01*
X69187190Y-66058762D01*
X69186222Y-66045843D01*
X69129508Y-65797363D01*
X69036393Y-65560112D01*
X68908959Y-65339388D01*
X68750050Y-65140123D01*
X68563217Y-64966768D01*
X68352634Y-64823195D01*
X68352630Y-64823193D01*
X68352627Y-64823191D01*
X68352626Y-64823190D01*
X68123006Y-64712612D01*
X68123008Y-64712612D01*
X67879466Y-64637489D01*
X67879462Y-64637488D01*
X67879458Y-64637487D01*
X67758231Y-64619214D01*
X67627440Y-64599500D01*
X67627435Y-64599500D01*
X67372565Y-64599500D01*
X67372559Y-64599500D01*
X67215609Y-64623157D01*
X67120542Y-64637487D01*
X67120539Y-64637488D01*
X67120533Y-64637489D01*
X66876992Y-64712612D01*
X66647373Y-64823190D01*
X66647372Y-64823191D01*
X66436782Y-64966768D01*
X66249952Y-65140121D01*
X66249950Y-65140123D01*
X66091041Y-65339388D01*
X65963608Y-65560109D01*
X65870492Y-65797362D01*
X65870490Y-65797369D01*
X65813777Y-66045845D01*
X65794732Y-66299995D01*
X65794732Y-66300004D01*
X64505268Y-66300004D01*
X64505268Y-66299995D01*
X64487190Y-66058762D01*
X64486222Y-66045843D01*
X64429508Y-65797363D01*
X64336393Y-65560112D01*
X64208959Y-65339388D01*
X64050050Y-65140123D01*
X63863217Y-64966768D01*
X63652634Y-64823195D01*
X63652630Y-64823193D01*
X63652627Y-64823191D01*
X63652626Y-64823190D01*
X63423006Y-64712612D01*
X63423008Y-64712612D01*
X63179466Y-64637489D01*
X63179462Y-64637488D01*
X63179458Y-64637487D01*
X63058231Y-64619214D01*
X62927440Y-64599500D01*
X62927435Y-64599500D01*
X62672565Y-64599500D01*
X62672559Y-64599500D01*
X62515609Y-64623157D01*
X62420542Y-64637487D01*
X62420539Y-64637488D01*
X62420533Y-64637489D01*
X62176992Y-64712612D01*
X61947373Y-64823190D01*
X61947372Y-64823191D01*
X61736782Y-64966768D01*
X61549952Y-65140121D01*
X61549950Y-65140123D01*
X61391041Y-65339388D01*
X61263608Y-65560109D01*
X61170492Y-65797362D01*
X61170490Y-65797369D01*
X61113777Y-66045845D01*
X61094732Y-66299995D01*
X61094732Y-66300004D01*
X59805268Y-66300004D01*
X59805268Y-66299995D01*
X59787190Y-66058762D01*
X59786222Y-66045843D01*
X59729508Y-65797363D01*
X59636393Y-65560112D01*
X59508959Y-65339388D01*
X59350050Y-65140123D01*
X59163217Y-64966768D01*
X58952634Y-64823195D01*
X58952630Y-64823193D01*
X58952627Y-64823191D01*
X58952626Y-64823190D01*
X58723006Y-64712612D01*
X58723008Y-64712612D01*
X58479466Y-64637489D01*
X58479462Y-64637488D01*
X58479458Y-64637487D01*
X58358231Y-64619214D01*
X58227440Y-64599500D01*
X58227435Y-64599500D01*
X57972565Y-64599500D01*
X57972559Y-64599500D01*
X57815609Y-64623157D01*
X57720542Y-64637487D01*
X57720539Y-64637488D01*
X57720533Y-64637489D01*
X57476992Y-64712612D01*
X57247373Y-64823190D01*
X57247372Y-64823191D01*
X57036782Y-64966768D01*
X56849952Y-65140121D01*
X56849950Y-65140123D01*
X56691041Y-65339388D01*
X56563608Y-65560109D01*
X56470492Y-65797362D01*
X56470490Y-65797369D01*
X56413777Y-66045845D01*
X56394732Y-66299995D01*
X56394732Y-66300004D01*
X50500500Y-66300004D01*
X50500500Y-53856797D01*
X50520185Y-53789758D01*
X50572989Y-53744003D01*
X50642147Y-53734059D01*
X50705703Y-53763084D01*
X50742431Y-53818479D01*
X50764125Y-53885247D01*
X50764127Y-53885252D01*
X50892704Y-54158491D01*
X50892707Y-54158497D01*
X51054516Y-54413469D01*
X51135311Y-54511133D01*
X52063708Y-53582736D01*
X52160967Y-53716602D01*
X52283398Y-53839033D01*
X52417262Y-53936290D01*
X51486564Y-54866987D01*
X51486565Y-54866989D01*
X51711461Y-55030385D01*
X51711479Y-55030397D01*
X51976109Y-55175878D01*
X51976117Y-55175882D01*
X52256889Y-55287047D01*
X52256892Y-55287048D01*
X52549399Y-55362150D01*
X52848995Y-55399999D01*
X52849007Y-55400000D01*
X53150993Y-55400000D01*
X53151004Y-55399999D01*
X53450600Y-55362150D01*
X53743107Y-55287048D01*
X53743110Y-55287047D01*
X54023882Y-55175882D01*
X54023890Y-55175878D01*
X54288520Y-55030397D01*
X54288530Y-55030390D01*
X54513433Y-54866987D01*
X54513434Y-54866987D01*
X53582737Y-53936290D01*
X53716602Y-53839033D01*
X53839033Y-53716602D01*
X53936290Y-53582737D01*
X54864687Y-54511134D01*
X54945486Y-54413464D01*
X55107292Y-54158497D01*
X55107295Y-54158491D01*
X55235872Y-53885252D01*
X55235874Y-53885247D01*
X55328557Y-53600001D01*
X58294891Y-53600001D01*
X58315300Y-53885362D01*
X58376109Y-54164895D01*
X58476091Y-54432958D01*
X58613191Y-54684038D01*
X58613196Y-54684046D01*
X58719882Y-54826561D01*
X58719883Y-54826562D01*
X59473474Y-54072971D01*
X59562087Y-54205590D01*
X59694410Y-54337913D01*
X59827027Y-54426525D01*
X59073436Y-55180115D01*
X59215960Y-55286807D01*
X59215961Y-55286808D01*
X59467042Y-55423908D01*
X59467041Y-55423908D01*
X59735104Y-55523890D01*
X60014637Y-55584699D01*
X60299999Y-55605109D01*
X60300001Y-55605109D01*
X60585362Y-55584699D01*
X60864895Y-55523890D01*
X61132958Y-55423908D01*
X61384047Y-55286803D01*
X61526561Y-55180116D01*
X61526562Y-55180115D01*
X60772972Y-54426525D01*
X60905590Y-54337913D01*
X61037913Y-54205590D01*
X61126525Y-54072972D01*
X61880115Y-54826562D01*
X61880116Y-54826561D01*
X61986803Y-54684047D01*
X62123908Y-54432958D01*
X62223890Y-54164895D01*
X62284699Y-53885362D01*
X62305109Y-53600001D01*
X63294891Y-53600001D01*
X63315300Y-53885362D01*
X63376109Y-54164895D01*
X63476091Y-54432958D01*
X63613191Y-54684038D01*
X63613196Y-54684046D01*
X63719882Y-54826561D01*
X63719883Y-54826562D01*
X64473474Y-54072971D01*
X64562087Y-54205590D01*
X64694410Y-54337913D01*
X64827027Y-54426525D01*
X64073436Y-55180115D01*
X64215960Y-55286807D01*
X64215961Y-55286808D01*
X64467042Y-55423908D01*
X64467041Y-55423908D01*
X64735104Y-55523890D01*
X65014637Y-55584699D01*
X65299999Y-55605109D01*
X65300001Y-55605109D01*
X65585362Y-55584699D01*
X65864895Y-55523890D01*
X66132958Y-55423908D01*
X66384047Y-55286803D01*
X66526561Y-55180116D01*
X66526562Y-55180115D01*
X65772972Y-54426525D01*
X65905590Y-54337913D01*
X66037913Y-54205590D01*
X66126525Y-54072972D01*
X66880115Y-54826562D01*
X66880116Y-54826561D01*
X66986803Y-54684047D01*
X67123908Y-54432958D01*
X67223890Y-54164895D01*
X67284699Y-53885362D01*
X67305109Y-53600001D01*
X67305109Y-53599998D01*
X67284699Y-53314637D01*
X67223890Y-53035104D01*
X67123908Y-52767041D01*
X66986808Y-52515961D01*
X66986807Y-52515960D01*
X66880115Y-52373436D01*
X66126524Y-53127026D01*
X66037913Y-52994410D01*
X65905590Y-52862087D01*
X65772971Y-52773474D01*
X66526562Y-52019883D01*
X66526561Y-52019882D01*
X66384046Y-51913196D01*
X66384038Y-51913191D01*
X66132957Y-51776091D01*
X66132958Y-51776091D01*
X65864895Y-51676109D01*
X65585362Y-51615300D01*
X65300001Y-51594891D01*
X65299999Y-51594891D01*
X65014637Y-51615300D01*
X64735104Y-51676109D01*
X64467041Y-51776091D01*
X64215961Y-51913191D01*
X64215953Y-51913196D01*
X64073437Y-52019882D01*
X64073436Y-52019883D01*
X64827028Y-52773474D01*
X64694410Y-52862087D01*
X64562087Y-52994410D01*
X64473474Y-53127027D01*
X63719883Y-52373436D01*
X63719882Y-52373437D01*
X63613196Y-52515953D01*
X63613191Y-52515961D01*
X63476091Y-52767041D01*
X63376109Y-53035104D01*
X63315300Y-53314637D01*
X63294891Y-53599998D01*
X63294891Y-53600001D01*
X62305109Y-53600001D01*
X62305109Y-53599998D01*
X62284699Y-53314637D01*
X62223890Y-53035104D01*
X62123908Y-52767041D01*
X61986808Y-52515961D01*
X61986807Y-52515960D01*
X61880115Y-52373436D01*
X61126524Y-53127026D01*
X61037913Y-52994410D01*
X60905590Y-52862087D01*
X60772971Y-52773474D01*
X61526562Y-52019883D01*
X61526561Y-52019882D01*
X61384046Y-51913196D01*
X61384038Y-51913191D01*
X61132957Y-51776091D01*
X61132958Y-51776091D01*
X60864895Y-51676109D01*
X60585362Y-51615300D01*
X60300001Y-51594891D01*
X60299999Y-51594891D01*
X60014637Y-51615300D01*
X59735104Y-51676109D01*
X59467041Y-51776091D01*
X59215961Y-51913191D01*
X59215953Y-51913196D01*
X59073437Y-52019882D01*
X59073436Y-52019883D01*
X59827028Y-52773474D01*
X59694410Y-52862087D01*
X59562087Y-52994410D01*
X59473474Y-53127027D01*
X58719883Y-52373436D01*
X58719882Y-52373437D01*
X58613196Y-52515953D01*
X58613191Y-52515961D01*
X58476091Y-52767041D01*
X58376109Y-53035104D01*
X58315300Y-53314637D01*
X58294891Y-53599998D01*
X58294891Y-53600001D01*
X55328557Y-53600001D01*
X55329194Y-53598040D01*
X55385785Y-53301380D01*
X55404745Y-53000005D01*
X55404745Y-52999994D01*
X55385784Y-52698616D01*
X55385783Y-52698609D01*
X55329194Y-52401959D01*
X55235874Y-52114752D01*
X55235872Y-52114747D01*
X55107295Y-51841508D01*
X55107292Y-51841502D01*
X54945483Y-51586530D01*
X54864686Y-51488864D01*
X53936289Y-52417261D01*
X53839033Y-52283398D01*
X53716602Y-52160967D01*
X53582736Y-52063709D01*
X54513434Y-51133011D01*
X54513433Y-51133009D01*
X54288538Y-50969614D01*
X54288520Y-50969602D01*
X54023890Y-50824121D01*
X54023882Y-50824117D01*
X53810899Y-50739792D01*
X53755813Y-50696811D01*
X53732710Y-50630872D01*
X53748923Y-50562910D01*
X53799306Y-50514502D01*
X53856546Y-50500500D01*
X70529226Y-50500500D01*
X70530935Y-50500512D01*
G37*
%TD.AperFunction*%
%TD*%
M02*
