%TF.GenerationSoftware,KiCad,Pcbnew,8.0.1*%
%TF.CreationDate,2026-03-26T11:22:20+01:00*%
%TF.ProjectId,memory_pcb,6d656d6f-7279-45f7-9063-622e6b696361,rev?*%
%TF.SameCoordinates,Original*%
%TF.FileFunction,Copper,L1,Top*%
%TF.FilePolarity,Positive*%
%FSLAX46Y46*%
G04 Gerber Fmt 4.6, Leading zero omitted, Abs format (unit mm)*
G04 Created by KiCad (PCBNEW 8.0.1) date 2026-03-26 11:22:20*
%MOMM*%
%LPD*%
G01*
G04 APERTURE LIST*
G04 Aperture macros list*
%AMFreePoly0*
4,1,19,0.500000,-0.750000,0.000000,-0.750000,0.000000,-0.744911,-0.071157,-0.744911,-0.207708,-0.704816,-0.327430,-0.627875,-0.420627,-0.520320,-0.479746,-0.390866,-0.500000,-0.250000,-0.500000,0.250000,-0.479746,0.390866,-0.420627,0.520320,-0.327430,0.627875,-0.207708,0.704816,-0.071157,0.744911,0.000000,0.744911,0.000000,0.750000,0.500000,0.750000,0.500000,-0.750000,0.500000,-0.750000,
$1*%
%AMFreePoly1*
4,1,19,0.000000,0.744911,0.071157,0.744911,0.207708,0.704816,0.327430,0.627875,0.420627,0.520320,0.479746,0.390866,0.500000,0.250000,0.500000,-0.250000,0.479746,-0.390866,0.420627,-0.520320,0.327430,-0.627875,0.207708,-0.704816,0.071157,-0.744911,0.000000,-0.744911,0.000000,-0.750000,-0.500000,-0.750000,-0.500000,0.750000,0.000000,0.750000,0.000000,0.744911,0.000000,0.744911,
$1*%
%AMFreePoly2*
4,1,9,0.299924,-0.649936,-0.000051,-0.649936,-0.000051,-0.650089,-0.300051,-0.650089,-0.300051,0.649936,-0.000076,0.649936,-0.000076,0.650089,0.299924,0.650089,0.299924,-0.649936,0.299924,-0.649936,$1*%
%AMFreePoly3*
4,1,9,0.300076,-0.650038,0.000127,-0.650038,0.000127,-0.650064,-0.299898,-0.650064,-0.299898,0.649911,0.000051,0.649911,0.000051,0.649936,0.300076,0.649936,0.300076,-0.650038,0.300076,-0.650038,$1*%
%AMFreePoly4*
4,1,5,0.299873,-0.649886,-0.300152,-0.649886,-0.300152,0.650089,0.299873,0.650089,0.299873,-0.649886,0.299873,-0.649886,$1*%
G04 Aperture macros list end*
%TA.AperFunction,EtchedComponent*%
%ADD10C,0.000000*%
%TD*%
%TA.AperFunction,SMDPad,CuDef*%
%ADD11R,0.900000X0.800000*%
%TD*%
%TA.AperFunction,ComponentPad*%
%ADD12C,2.500000*%
%TD*%
%TA.AperFunction,SMDPad,CuDef*%
%ADD13R,0.540005X0.500000*%
%TD*%
%TA.AperFunction,SMDPad,CuDef*%
%ADD14R,0.806477X0.864008*%
%TD*%
%TA.AperFunction,SMDPad,CuDef*%
%ADD15R,0.900000X0.900000*%
%TD*%
%TA.AperFunction,SMDPad,CuDef*%
%ADD16R,1.500000X0.900000*%
%TD*%
%TA.AperFunction,SMDPad,CuDef*%
%ADD17R,0.900000X1.500000*%
%TD*%
%TA.AperFunction,SMDPad,CuDef*%
%ADD18R,0.864008X0.806477*%
%TD*%
%TA.AperFunction,SMDPad,CuDef*%
%ADD19R,0.800000X0.900000*%
%TD*%
%TA.AperFunction,SMDPad,CuDef*%
%ADD20FreePoly0,270.000000*%
%TD*%
%TA.AperFunction,SMDPad,CuDef*%
%ADD21FreePoly1,270.000000*%
%TD*%
%TA.AperFunction,SMDPad,CuDef*%
%ADD22R,1.539014X2.062510*%
%TD*%
%TA.AperFunction,SMDPad,CuDef*%
%ADD23R,1.859995X1.229997*%
%TD*%
%TA.AperFunction,ComponentPad*%
%ADD24O,1.200000X2.000000*%
%TD*%
%TA.AperFunction,ComponentPad*%
%ADD25O,1.200000X1.800000*%
%TD*%
%TA.AperFunction,SMDPad,CuDef*%
%ADD26FreePoly2,0.000000*%
%TD*%
%TA.AperFunction,SMDPad,CuDef*%
%ADD27FreePoly3,0.000000*%
%TD*%
%TA.AperFunction,SMDPad,CuDef*%
%ADD28R,0.300000X1.300000*%
%TD*%
%TA.AperFunction,SMDPad,CuDef*%
%ADD29FreePoly4,0.000000*%
%TD*%
%TA.AperFunction,SMDPad,CuDef*%
%ADD30R,0.500000X0.540005*%
%TD*%
%TA.AperFunction,SMDPad,CuDef*%
%ADD31R,0.299975X1.500000*%
%TD*%
%TA.AperFunction,SMDPad,CuDef*%
%ADD32R,2.000000X1.600000*%
%TD*%
%TA.AperFunction,SMDPad,CuDef*%
%ADD33R,0.800000X1.200000*%
%TD*%
%TA.AperFunction,SMDPad,CuDef*%
%ADD34R,0.424994X0.280010*%
%TD*%
%TA.AperFunction,SMDPad,CuDef*%
%ADD35R,0.700000X1.250013*%
%TD*%
%TA.AperFunction,ComponentPad*%
%ADD36C,3.800000*%
%TD*%
%TA.AperFunction,ComponentPad*%
%ADD37O,1.700000X1.700000*%
%TD*%
%TA.AperFunction,ComponentPad*%
%ADD38R,1.700000X1.700000*%
%TD*%
%TA.AperFunction,SMDPad,CuDef*%
%ADD39R,0.489992X1.175006*%
%TD*%
%TA.AperFunction,SMDPad,CuDef*%
%ADD40R,0.489992X1.156998*%
%TD*%
%TA.AperFunction,ComponentPad*%
%ADD41C,3.000000*%
%TD*%
%TA.AperFunction,SMDPad,CuDef*%
%ADD42R,0.600000X1.100000*%
%TD*%
%TA.AperFunction,SMDPad,CuDef*%
%ADD43R,1.104902X0.622301*%
%TD*%
%TA.AperFunction,SMDPad,CuDef*%
%ADD44R,3.800000X1.000000*%
%TD*%
%TA.AperFunction,SMDPad,CuDef*%
%ADD45R,3.400000X1.500000*%
%TD*%
%TA.AperFunction,SMDPad,CuDef*%
%ADD46R,0.800000X0.800000*%
%TD*%
%TA.AperFunction,ComponentPad*%
%ADD47R,2.000000X2.000000*%
%TD*%
%TA.AperFunction,ComponentPad*%
%ADD48C,2.000000*%
%TD*%
%TA.AperFunction,ComponentPad*%
%ADD49R,2.000000X3.200000*%
%TD*%
%TA.AperFunction,ViaPad*%
%ADD50C,0.600000*%
%TD*%
%TA.AperFunction,ViaPad*%
%ADD51C,0.500000*%
%TD*%
%TA.AperFunction,Conductor*%
%ADD52C,0.508000*%
%TD*%
%TA.AperFunction,Conductor*%
%ADD53C,0.254000*%
%TD*%
G04 APERTURE END LIST*
D10*
%TA.AperFunction,EtchedComponent*%
%TO.C,JP2*%
G36*
X96550000Y-83800000D02*
G01*
X95950000Y-83800000D01*
X95950000Y-83300000D01*
X96550000Y-83300000D01*
X96550000Y-83800000D01*
G37*
%TD.AperFunction*%
%TA.AperFunction,EtchedComponent*%
%TO.C,JP3*%
G36*
X99050000Y-83800000D02*
G01*
X98450000Y-83800000D01*
X98450000Y-83300000D01*
X99050000Y-83300000D01*
X99050000Y-83800000D01*
G37*
%TD.AperFunction*%
%TA.AperFunction,EtchedComponent*%
%TO.C,JP9*%
G36*
X114050000Y-83800000D02*
G01*
X113450000Y-83800000D01*
X113450000Y-83300000D01*
X114050000Y-83300000D01*
X114050000Y-83800000D01*
G37*
%TD.AperFunction*%
%TA.AperFunction,EtchedComponent*%
%TO.C,JP5*%
G36*
X104050000Y-83800000D02*
G01*
X103450000Y-83800000D01*
X103450000Y-83300000D01*
X104050000Y-83300000D01*
X104050000Y-83800000D01*
G37*
%TD.AperFunction*%
%TA.AperFunction,EtchedComponent*%
%TO.C,JP7*%
G36*
X109050000Y-83800000D02*
G01*
X108450000Y-83800000D01*
X108450000Y-83300000D01*
X109050000Y-83300000D01*
X109050000Y-83800000D01*
G37*
%TD.AperFunction*%
%TA.AperFunction,EtchedComponent*%
%TO.C,JP10*%
G36*
X116550000Y-83800000D02*
G01*
X115950000Y-83800000D01*
X115950000Y-83300000D01*
X116550000Y-83300000D01*
X116550000Y-83800000D01*
G37*
%TD.AperFunction*%
%TA.AperFunction,EtchedComponent*%
%TO.C,JP4*%
G36*
X101550000Y-83800000D02*
G01*
X100950000Y-83800000D01*
X100950000Y-83300000D01*
X101550000Y-83300000D01*
X101550000Y-83800000D01*
G37*
%TD.AperFunction*%
%TA.AperFunction,EtchedComponent*%
%TO.C,JP6*%
G36*
X106550000Y-83800000D02*
G01*
X105950000Y-83800000D01*
X105950000Y-83300000D01*
X106550000Y-83300000D01*
X106550000Y-83800000D01*
G37*
%TD.AperFunction*%
%TA.AperFunction,EtchedComponent*%
%TO.C,JP1*%
G36*
X94050000Y-83800000D02*
G01*
X93450000Y-83800000D01*
X93450000Y-83300000D01*
X94050000Y-83300000D01*
X94050000Y-83800000D01*
G37*
%TD.AperFunction*%
%TA.AperFunction,EtchedComponent*%
%TO.C,JP12*%
G36*
X57300000Y-70400000D02*
G01*
X56700000Y-70400000D01*
X56700000Y-69900000D01*
X57300000Y-69900000D01*
X57300000Y-70400000D01*
G37*
%TD.AperFunction*%
%TA.AperFunction,EtchedComponent*%
%TO.C,JP8*%
G36*
X111550000Y-83800000D02*
G01*
X110950000Y-83800000D01*
X110950000Y-83300000D01*
X111550000Y-83300000D01*
X111550000Y-83800000D01*
G37*
%TD.AperFunction*%
%TD*%
D11*
%TO.P,C5,2,2*%
%TO.N,GND*%
X80200000Y-72000000D03*
%TO.P,C5,1,1*%
%TO.N,+3.3V*%
X80200000Y-70599950D03*
%TD*%
D12*
%TO.P,SW2,2,2*%
%TO.N,GND*%
X150600000Y-81250000D03*
%TO.P,SW2,1,1*%
%TO.N,Net-(R16-Pad2)*%
X143600000Y-82300000D03*
%TD*%
%TO.P,SW1,2,2*%
%TO.N,GND*%
X150600000Y-62250000D03*
%TO.P,SW1,1,1*%
%TO.N,Net-(R17-Pad2)*%
X143600000Y-63300000D03*
%TD*%
D13*
%TO.P,C11,2,2*%
%TO.N,/BTN1*%
X88084925Y-63300000D03*
%TO.P,C11,1,1*%
%TO.N,GND*%
X88084925Y-62459766D03*
%TD*%
D14*
%TO.P,R9,2,2*%
%TO.N,+3.3V*%
X92778193Y-64100000D03*
%TO.P,R9,1,1*%
%TO.N,/SCL*%
X94284925Y-64100000D03*
%TD*%
D15*
%TO.P,U2,41,GND*%
%TO.N,GND*%
X104884925Y-68000050D03*
X104884925Y-66600000D03*
X104884925Y-65199949D03*
X103484874Y-68000050D03*
X103484874Y-66600000D03*
X103484874Y-65199949D03*
X102084823Y-68000050D03*
X102084823Y-66600000D03*
X102084823Y-65199949D03*
D16*
%TO.P,U2,40,GND*%
X113735065Y-58879908D03*
%TO.P,U2,39,IO1*%
%TO.N,/01*%
X113735065Y-60149911D03*
%TO.P,U2,38,IO2*%
%TO.N,/02*%
X113735065Y-61419913D03*
%TO.P,U2,37,TXD0*%
%TO.N,/TX*%
X113735065Y-62689916D03*
%TO.P,U2,36,RXD0*%
%TO.N,/RX*%
X113735065Y-63959918D03*
%TO.P,U2,35,IO42*%
%TO.N,unconnected-(U2-IO42-Pad35)*%
X113735065Y-65229921D03*
%TO.P,U2,34,IO41*%
%TO.N,unconnected-(U2-IO41-Pad34)*%
X113735065Y-66499923D03*
%TO.P,U2,33,IO40*%
%TO.N,unconnected-(U2-IO40-Pad33)*%
X113735065Y-67769926D03*
%TO.P,U2,32,IO39*%
%TO.N,unconnected-(U2-IO39-Pad32)*%
X113735065Y-69039929D03*
%TO.P,U2,31,IO38*%
%TO.N,unconnected-(U2-IO38-Pad31)*%
X113735065Y-70309931D03*
%TO.P,U2,30,IO37*%
%TO.N,unconnected-(U2-IO37-Pad30)*%
X113735065Y-71579934D03*
%TO.P,U2,29,IO36*%
%TO.N,unconnected-(U2-IO36-Pad29)*%
X113735065Y-72849936D03*
%TO.P,U2,28,IO35*%
%TO.N,unconnected-(U2-IO35-Pad28)*%
X113735065Y-74119939D03*
%TO.P,U2,27,IO0*%
%TO.N,/BOOT*%
X113735065Y-75389941D03*
D17*
%TO.P,U2,26,IO45*%
%TO.N,unconnected-(U2-IO45-Pad26)*%
X111970015Y-76639878D03*
%TO.P,U2,25,IO48*%
%TO.N,/48*%
X110700012Y-76669850D03*
%TO.P,U2,24,IO47*%
%TO.N,/47*%
X109430010Y-76669850D03*
%TO.P,U2,23,IO21*%
%TO.N,/21*%
X108160007Y-76669850D03*
%TO.P,U2,22,IO14*%
%TO.N,unconnected-(U2-IO14-Pad22)*%
X106890005Y-76669850D03*
%TO.P,U2,21,IO13*%
%TO.N,unconnected-(U2-IO13-Pad21)*%
X105620002Y-76669850D03*
%TO.P,U2,20,IO12*%
%TO.N,/CLK*%
X104350000Y-76669850D03*
%TO.P,U2,19,IO11*%
%TO.N,/MOSI*%
X103079997Y-76669850D03*
%TO.P,U2,18,IO10*%
%TO.N,/DISP_CS*%
X101809995Y-76669850D03*
%TO.P,U2,17,IO9*%
%TO.N,unconnected-(U2-IO9-Pad17)*%
X100539992Y-76669850D03*
%TO.P,U2,16,IO46*%
%TO.N,unconnected-(U2-IO46-Pad16)*%
X99269990Y-76669850D03*
%TO.P,U2,15,IO3*%
%TO.N,unconnected-(U2-IO3-Pad15)*%
X97999987Y-76669850D03*
D16*
%TO.P,U2,14,IO20*%
%TO.N,/D+*%
X96234937Y-75389941D03*
%TO.P,U2,13,IO19*%
%TO.N,/D-*%
X96234937Y-74119939D03*
%TO.P,U2,12,IO8*%
%TO.N,/ENC_BTN*%
X96234937Y-72849936D03*
%TO.P,U2,11,IO18*%
%TO.N,/ENC_SIG_B*%
X96234937Y-71579934D03*
%TO.P,U2,10,IO17*%
%TO.N,/ENC_SIG_A*%
X96234937Y-70309931D03*
%TO.P,U2,9,IO16*%
%TO.N,/ALRT*%
X96234937Y-69039929D03*
%TO.P,U2,8,IO15*%
%TO.N,/PWR_SW*%
X96234937Y-67769926D03*
%TO.P,U2,7,IO7*%
%TO.N,/BTN2*%
X96234937Y-66499923D03*
%TO.P,U2,6,IO6*%
%TO.N,/BTN1*%
X96234937Y-65229921D03*
%TO.P,U2,5,IO5*%
%TO.N,/SCL*%
X96234937Y-63959918D03*
%TO.P,U2,4,IO4*%
%TO.N,/SDA*%
X96234937Y-62689916D03*
%TO.P,U2,3,EN*%
%TO.N,/RESET*%
X96234937Y-61419913D03*
%TO.P,U2,2,3V3*%
%TO.N,+3.3V*%
X96234937Y-60149911D03*
%TO.P,U2,1,GND*%
%TO.N,GND*%
X96234937Y-58879908D03*
%TD*%
D18*
%TO.P,R12,2,2*%
%TO.N,+3.3V*%
X91084925Y-62693268D03*
%TO.P,R12,1,1*%
%TO.N,/BTN1*%
X91084925Y-64200000D03*
%TD*%
D13*
%TO.P,C7,2,2*%
%TO.N,Net-(U10-D)*%
X75284925Y-62020117D03*
%TO.P,C7,1,1*%
%TO.N,GND*%
X75284925Y-61179883D03*
%TD*%
D19*
%TO.P,C17,2,2*%
%TO.N,/RESET*%
X90784875Y-59000000D03*
%TO.P,C17,1,1*%
%TO.N,GND*%
X92184925Y-59000000D03*
%TD*%
D14*
%TO.P,R8,2,2*%
%TO.N,+3.3V*%
X92778193Y-62600000D03*
%TO.P,R8,1,1*%
%TO.N,/SDA*%
X94284925Y-62600000D03*
%TD*%
D20*
%TO.P,JP2,1,A*%
%TO.N,/MOSI*%
X96250000Y-82900000D03*
D21*
%TO.P,JP2,2,B*%
%TO.N,Net-(JP2-B)*%
X96250000Y-84200000D03*
%TD*%
D20*
%TO.P,JP3,1,A*%
%TO.N,/DISP_CS*%
X98750000Y-82900000D03*
D21*
%TO.P,JP3,2,B*%
%TO.N,Net-(JP3-B)*%
X98750000Y-84200000D03*
%TD*%
D22*
%TO.P,U11,2,K*%
%TO.N,Net-(U10-D)*%
X77684925Y-65896317D03*
%TO.P,U11,1,A*%
%TO.N,VBUS*%
X77684925Y-70903683D03*
%TD*%
D23*
%TO.P,U4,1,1*%
%TO.N,GND*%
X81000000Y-91734912D03*
%TO.P,U4,2,2*%
%TO.N,/RESET*%
X81000000Y-87365088D03*
%TD*%
D18*
%TO.P,R15,2,2*%
%TO.N,/ENC_SIG_A*%
X91284925Y-70046634D03*
%TO.P,R15,1,1*%
%TO.N,+3.3V*%
X91284925Y-71553366D03*
%TD*%
%TO.P,R6,2,2*%
%TO.N,Net-(U9-EN)*%
X75184925Y-63946634D03*
%TO.P,R6,1,1*%
%TO.N,Net-(U10-D)*%
X75184925Y-65453366D03*
%TD*%
D20*
%TO.P,JP9,1,A*%
%TO.N,GND*%
X113750000Y-82900000D03*
D21*
%TO.P,JP9,2,B*%
%TO.N,Net-(JP9-B)*%
X113750000Y-84200000D03*
%TD*%
D23*
%TO.P,U5,2,2*%
%TO.N,/BOOT*%
X87900000Y-87365088D03*
%TO.P,U5,1,1*%
%TO.N,GND*%
X87900000Y-91734912D03*
%TD*%
D20*
%TO.P,JP11,1,A*%
%TO.N,Net-(JP11-A)*%
X68600000Y-69500000D03*
D21*
%TO.P,JP11,2,B*%
%TO.N,GND*%
X68600000Y-70800000D03*
%TD*%
D18*
%TO.P,R13,2,2*%
%TO.N,/ENC_BTN*%
X88584925Y-73300000D03*
%TO.P,R13,1,1*%
%TO.N,+3.3V*%
X88584925Y-74806732D03*
%TD*%
D19*
%TO.P,C10,2,2*%
%TO.N,Net-(U1-C+)*%
X84384862Y-64725019D03*
%TO.P,C10,1,1*%
%TO.N,Net-(U1-C-)*%
X85784912Y-64725019D03*
%TD*%
D18*
%TO.P,R5,2,2*%
%TO.N,Net-(U7-STAT)*%
X73334963Y-63707036D03*
%TO.P,R5,1,1*%
%TO.N,Net-(LED1-K)*%
X73334963Y-62200304D03*
%TD*%
D20*
%TO.P,JP5,1,A*%
%TO.N,+5V*%
X103750000Y-82900000D03*
D21*
%TO.P,JP5,2,B*%
%TO.N,Net-(JP5-B)*%
X103750000Y-84200000D03*
%TD*%
D13*
%TO.P,C1,2,2*%
%TO.N,GND*%
X82584925Y-71615240D03*
%TO.P,C1,1,1*%
%TO.N,+5V*%
X82584925Y-70775006D03*
%TD*%
D24*
%TO.P,U12,1,EH*%
%TO.N,GND*%
X67125121Y-96983297D03*
D25*
%TO.P,U12,2,EH*%
X67125121Y-101163129D03*
%TO.P,U12,3,EH*%
X58474879Y-101163129D03*
D24*
%TO.P,U12,4,EH*%
X58474879Y-96983297D03*
D26*
%TO.P,U12,A1B12,GND*%
X59600102Y-96214945D03*
D27*
%TO.P,U12,A4B9,VBUS*%
%TO.N,VBUS*%
X60399949Y-96214945D03*
D28*
%TO.P,U12,A5,CC1*%
%TO.N,Net-(U12-CC1)*%
X61550064Y-96214945D03*
%TO.P,U12,A6,DP1*%
%TO.N,/D+*%
X62550064Y-96214945D03*
%TO.P,U12,A7,DN1*%
%TO.N,/D-*%
X63049936Y-96214945D03*
%TO.P,U12,A8,SBU1*%
%TO.N,unconnected-(U12-SBU1-PadA8)*%
X64049682Y-96214945D03*
D29*
%TO.P,U12,B1A12,GND*%
%TO.N,GND*%
X66000152Y-96214945D03*
%TO.P,U12,B4A9,VBUS*%
%TO.N,VBUS*%
X65200305Y-96214945D03*
D28*
%TO.P,U12,B5,CC2*%
%TO.N,Net-(U12-CC2)*%
X64550064Y-96214945D03*
%TO.P,U12,B6,DP2*%
%TO.N,/D+*%
X63550064Y-96214945D03*
%TO.P,U12,B7,DN2*%
%TO.N,/D-*%
X62049936Y-96214945D03*
%TO.P,U12,B8,SBU2*%
%TO.N,unconnected-(U12-SBU2-PadB8)*%
X61049936Y-96214945D03*
%TD*%
D18*
%TO.P,R20,2,2*%
%TO.N,/ENC_BTN*%
X87021273Y-73300000D03*
%TO.P,R20,1,1*%
%TO.N,Net-(ENC1-PadS1)*%
X87021273Y-74806732D03*
%TD*%
D13*
%TO.P,C9,2,2*%
%TO.N,GND*%
X93684925Y-58779883D03*
%TO.P,C9,1,1*%
%TO.N,+3.3V*%
X93684925Y-59620117D03*
%TD*%
D18*
%TO.P,R10,2,2*%
%TO.N,/PWR_SW*%
X88784925Y-67653366D03*
%TO.P,R10,1,1*%
%TO.N,+3.3V*%
X88784925Y-66146634D03*
%TD*%
D20*
%TO.P,JP7,1,A*%
%TO.N,+5V*%
X108750000Y-82900000D03*
D21*
%TO.P,JP7,2,B*%
%TO.N,Net-(JP7-B)*%
X108750000Y-84200000D03*
%TD*%
D13*
%TO.P,C2,2,2*%
%TO.N,/BTN2*%
X94284925Y-66333249D03*
%TO.P,C2,1,1*%
%TO.N,GND*%
X94284925Y-67173483D03*
%TD*%
D30*
%TO.P,C8,2,2*%
%TO.N,+3.3V*%
X80764783Y-61950318D03*
%TO.P,C8,1,1*%
%TO.N,GND*%
X81605017Y-61950318D03*
%TD*%
D31*
%TO.P,P1,1,SCLK*%
%TO.N,Net-(JP1-B)*%
X102752477Y-89161335D03*
%TO.P,P1,2,SI*%
%TO.N,Net-(JP2-B)*%
X103251588Y-89161335D03*
%TO.P,P1,3,SCS*%
%TO.N,Net-(JP3-B)*%
X103751969Y-89161335D03*
%TO.P,P1,4,EXTCOMIN*%
%TO.N,Net-(JP4-B)*%
X104252350Y-89161335D03*
%TO.P,P1,5,DISP*%
%TO.N,Net-(JP5-B)*%
X104752731Y-89161335D03*
%TO.P,P1,6,VDDA*%
%TO.N,Net-(JP6-B)*%
X105253112Y-89161335D03*
%TO.P,P1,7,VDD*%
%TO.N,Net-(JP7-B)*%
X105753493Y-89161335D03*
%TO.P,P1,8,EXTMODE*%
%TO.N,Net-(JP8-B)*%
X106252604Y-89161335D03*
%TO.P,P1,9,VSS*%
%TO.N,Net-(JP9-B)*%
X106751715Y-89161335D03*
%TO.P,P1,10,VSSA*%
%TO.N,Net-(JP10-B)*%
X107252096Y-89161335D03*
D32*
%TO.P,P1,11,11*%
%TO.N,GND*%
X101050419Y-91908605D03*
%TO.P,P1,12,12*%
X108949581Y-91839771D03*
%TD*%
D18*
%TO.P,R16,2,2*%
%TO.N,Net-(R16-Pad2)*%
X92884925Y-68006732D03*
%TO.P,R16,1,1*%
%TO.N,/BTN2*%
X92884925Y-66500000D03*
%TD*%
D13*
%TO.P,C15,2,2*%
%TO.N,/ENC_SIG_B*%
X94284925Y-73100000D03*
%TO.P,C15,1,1*%
%TO.N,GND*%
X94284925Y-73940234D03*
%TD*%
D33*
%TO.P,U6,9,EP*%
%TO.N,GND*%
X85066029Y-62574929D03*
D34*
%TO.P,U6,8,SDA*%
%TO.N,/SDA*%
X86003545Y-61824865D03*
%TO.P,U6,7,SCL*%
%TO.N,/SCL*%
X86003545Y-62324993D03*
%TO.P,U6,6,QSTRT*%
%TO.N,GND*%
X86003545Y-62824865D03*
%TO.P,U6,5,ALRT#*%
%TO.N,/ALRT*%
X86003545Y-63324993D03*
%TO.P,U6,4,GND*%
%TO.N,GND*%
X84128513Y-63324993D03*
%TO.P,U6,3,VDD*%
%TO.N,+3.3V*%
X84128513Y-62824865D03*
%TO.P,U6,2,CELL*%
%TO.N,VBAT*%
X84128513Y-62324993D03*
%TO.P,U6,1,CTG*%
%TO.N,GND*%
X84128513Y-61824865D03*
%TD*%
D35*
%TO.P,U10,3,D*%
%TO.N,Net-(U10-D)*%
X81034963Y-64500000D03*
%TO.P,U10,2,S*%
%TO.N,VBAT*%
X81984925Y-66500000D03*
%TO.P,U10,1,G*%
%TO.N,VBUS*%
X80085001Y-66500000D03*
%TD*%
D36*
%TO.P,H4,1,1*%
%TO.N,GND*%
X157000000Y-101000000D03*
%TD*%
D20*
%TO.P,JP10,1,A*%
%TO.N,GND*%
X116250000Y-82900000D03*
D21*
%TO.P,JP10,2,B*%
%TO.N,Net-(JP10-B)*%
X116250000Y-84200000D03*
%TD*%
D36*
%TO.P,H2,1,1*%
%TO.N,GND*%
X157000000Y-53000000D03*
%TD*%
D18*
%TO.P,R14,2,2*%
%TO.N,/ENC_SIG_B*%
X91284925Y-73300000D03*
%TO.P,R14,1,1*%
%TO.N,+3.3V*%
X91284925Y-74806732D03*
%TD*%
D13*
%TO.P,C16,2,2*%
%TO.N,/ENC_BTN*%
X85621273Y-73140132D03*
%TO.P,C16,1,1*%
%TO.N,GND*%
X85621273Y-73980366D03*
%TD*%
D20*
%TO.P,JP4,1,A*%
%TO.N,unconnected-(JP4-A-Pad1)*%
X101250000Y-82900000D03*
D21*
%TO.P,JP4,2,B*%
%TO.N,Net-(JP4-B)*%
X101250000Y-84200000D03*
%TD*%
D37*
%TO.P,J1,10,Pin_10*%
%TO.N,/21*%
X72265000Y-101000000D03*
%TO.P,J1,9,Pin_9*%
%TO.N,/47*%
X74805000Y-101000000D03*
%TO.P,J1,8,Pin_8*%
%TO.N,/48*%
X77345000Y-101000000D03*
%TO.P,J1,7,Pin_7*%
%TO.N,/02*%
X79885000Y-101000000D03*
%TO.P,J1,6,Pin_6*%
%TO.N,/01*%
X82425000Y-101000000D03*
%TO.P,J1,5,Pin_5*%
%TO.N,/RX*%
X84965000Y-101000000D03*
%TO.P,J1,4,Pin_4*%
%TO.N,/TX*%
X87505000Y-101000000D03*
%TO.P,J1,3,Pin_3*%
%TO.N,+5V*%
X90045000Y-101000000D03*
%TO.P,J1,2,Pin_2*%
%TO.N,+3.3V*%
X92585000Y-101000000D03*
D38*
%TO.P,J1,1,Pin_1*%
%TO.N,GND*%
X95125000Y-101000000D03*
%TD*%
D39*
%TO.P,U7,5,PROG*%
%TO.N,Net-(U7-PROG)*%
X73384925Y-68107340D03*
%TO.P,U7,4,VDD*%
%TO.N,VBUS*%
X71485001Y-68107340D03*
D40*
%TO.P,U7,3,VBAT*%
%TO.N,VBAT*%
X71485001Y-65800000D03*
%TO.P,U7,2,VSS*%
%TO.N,GND*%
X72434963Y-65800000D03*
%TO.P,U7,1,STAT*%
%TO.N,Net-(U7-STAT)*%
X73384925Y-65800000D03*
%TD*%
D20*
%TO.P,JP6,1,A*%
%TO.N,+5V*%
X106250000Y-82900000D03*
D21*
%TO.P,JP6,2,B*%
%TO.N,Net-(JP6-B)*%
X106250000Y-84200000D03*
%TD*%
D36*
%TO.P,H3,1,1*%
%TO.N,GND*%
X53000000Y-101000000D03*
%TD*%
D13*
%TO.P,C6,2,2*%
%TO.N,VBAT*%
X71434963Y-64473787D03*
%TO.P,C6,1,1*%
%TO.N,GND*%
X71434963Y-63633553D03*
%TD*%
D18*
%TO.P,R11,2,2*%
%TO.N,+3.3V*%
X91284925Y-68006732D03*
%TO.P,R11,1,1*%
%TO.N,/BTN2*%
X91284925Y-66500000D03*
%TD*%
%TO.P,R18,2,2*%
%TO.N,Net-(ENC1-PadA)*%
X92884925Y-71553366D03*
%TO.P,R18,1,1*%
%TO.N,/ENC_SIG_A*%
X92884925Y-70046634D03*
%TD*%
%TO.P,R7,2,2*%
%TO.N,VBUS*%
X75184925Y-67093268D03*
%TO.P,R7,1,1*%
%TO.N,GND*%
X75184925Y-68600000D03*
%TD*%
%TO.P,R2,1,1*%
%TO.N,GND*%
X64200000Y-92793268D03*
%TO.P,R2,2,2*%
%TO.N,Net-(U12-CC2)*%
X64200000Y-94300000D03*
%TD*%
D41*
%TO.P,U3,1,1*%
%TO.N,Net-(JP11-A)*%
X67500000Y-66300000D03*
%TO.P,U3,2,2*%
%TO.N,/PWR_SW*%
X62800000Y-66300000D03*
%TO.P,U3,3,3*%
%TO.N,Net-(JP12-A)*%
X58100000Y-66300000D03*
%TO.P,U3,4,4*%
%TO.N,GND*%
X65300000Y-53600000D03*
%TO.P,U3,5,5*%
X60300000Y-53600000D03*
%TD*%
D13*
%TO.P,C3,2,2*%
%TO.N,+3.3V*%
X86034887Y-70804902D03*
%TO.P,C3,1,1*%
%TO.N,GND*%
X86034887Y-71645136D03*
%TD*%
D42*
%TO.P,U1,6,C+*%
%TO.N,Net-(U1-C+)*%
X84134963Y-66624993D03*
%TO.P,U1,5,VIN*%
%TO.N,+3.3V*%
X85084925Y-66624993D03*
%TO.P,U1,4,C-*%
%TO.N,Net-(U1-C-)*%
X86034887Y-66624993D03*
%TO.P,U1,3,SHDN#*%
%TO.N,+3.3V*%
X86034887Y-69325019D03*
%TO.P,U1,2,GND*%
%TO.N,GND*%
X85084925Y-69325019D03*
%TO.P,U1,1,VOUT*%
%TO.N,+5V*%
X84134963Y-69325019D03*
%TD*%
D20*
%TO.P,JP1,1,A*%
%TO.N,/CLK*%
X93750000Y-82900000D03*
D21*
%TO.P,JP1,2,B*%
%TO.N,Net-(JP1-B)*%
X93750000Y-84200000D03*
%TD*%
D30*
%TO.P,C13,2,2*%
%TO.N,+3.3V*%
X78725159Y-72800000D03*
%TO.P,C13,1,1*%
%TO.N,GND*%
X77884925Y-72800000D03*
%TD*%
D20*
%TO.P,JP12,1,A*%
%TO.N,Net-(JP12-A)*%
X57000000Y-69500000D03*
D21*
%TO.P,JP12,2,B*%
%TO.N,GND*%
X57000000Y-70800000D03*
%TD*%
D14*
%TO.P,R4,2,2*%
%TO.N,GND*%
X75091657Y-70100000D03*
%TO.P,R4,1,1*%
%TO.N,Net-(U7-PROG)*%
X73584925Y-70100000D03*
%TD*%
D18*
%TO.P,R17,2,2*%
%TO.N,Net-(R17-Pad2)*%
X89484925Y-62693268D03*
%TO.P,R17,1,1*%
%TO.N,/BTN1*%
X89484925Y-64200000D03*
%TD*%
D20*
%TO.P,JP8,1,A*%
%TO.N,GND*%
X111250000Y-82900000D03*
D21*
%TO.P,JP8,2,B*%
%TO.N,Net-(JP8-B)*%
X111250000Y-84200000D03*
%TD*%
D43*
%TO.P,U9,5,VOUT*%
%TO.N,+3.3V*%
X79384875Y-62000585D03*
%TO.P,U9,4,NC*%
%TO.N,unconnected-(U9-NC-Pad4)*%
X79384875Y-63900000D03*
%TO.P,U9,3,EN*%
%TO.N,Net-(U9-EN)*%
X76784925Y-63900000D03*
%TO.P,U9,2,GND*%
%TO.N,GND*%
X76784925Y-62949785D03*
%TO.P,U9,1,VIN*%
%TO.N,Net-(U10-D)*%
X76784925Y-62000585D03*
%TD*%
D36*
%TO.P,H1,1,1*%
%TO.N,GND*%
X53000000Y-53000000D03*
%TD*%
D13*
%TO.P,C14,2,2*%
%TO.N,/ENC_SIG_A*%
X94284925Y-70740234D03*
%TO.P,C14,1,1*%
%TO.N,GND*%
X94284925Y-69900000D03*
%TD*%
D44*
%TO.P,U8,1,1*%
%TO.N,VBAT*%
X73574930Y-82600000D03*
%TO.P,U8,2,2*%
%TO.N,GND*%
X73574930Y-80600000D03*
D45*
%TO.P,U8,3,3*%
X79425070Y-78249987D03*
%TO.P,U8,4,4*%
X79425070Y-84950013D03*
%TD*%
D14*
%TO.P,R3,2,2*%
%TO.N,+3.3V*%
X92238291Y-60700000D03*
%TO.P,R3,1,1*%
%TO.N,/RESET*%
X90731559Y-60700000D03*
%TD*%
D46*
%TO.P,LED1,1,K*%
%TO.N,Net-(LED1-K)*%
X66399873Y-92951003D03*
%TO.P,LED1,2,A*%
%TO.N,VBUS*%
X66400127Y-94448997D03*
%TD*%
D18*
%TO.P,R19,2,2*%
%TO.N,Net-(ENC1-PadB)*%
X92884925Y-74806732D03*
%TO.P,R19,1,1*%
%TO.N,/ENC_SIG_B*%
X92884925Y-73300000D03*
%TD*%
D13*
%TO.P,C4,2,2*%
%TO.N,+5V*%
X84134887Y-70804902D03*
%TO.P,C4,1,1*%
%TO.N,GND*%
X84134887Y-71645136D03*
%TD*%
D18*
%TO.P,R1,1,1*%
%TO.N,GND*%
X61500000Y-92793268D03*
%TO.P,R1,2,2*%
%TO.N,Net-(U12-CC1)*%
X61500000Y-94300000D03*
%TD*%
D47*
%TO.P,ENC1,A,A*%
%TO.N,Net-(ENC1-PadA)*%
X65300000Y-84500000D03*
D48*
%TO.P,ENC1,B,B*%
%TO.N,Net-(ENC1-PadB)*%
X60300000Y-84500000D03*
%TO.P,ENC1,C,C*%
%TO.N,GND*%
X62800000Y-84500000D03*
D49*
%TO.P,ENC1,MP*%
%TO.N,N/C*%
X57200000Y-77000000D03*
X68400000Y-77000000D03*
D48*
%TO.P,ENC1,S1,S1*%
%TO.N,Net-(ENC1-PadS1)*%
X60300000Y-70000000D03*
%TO.P,ENC1,S2,S2*%
%TO.N,GND*%
X65300000Y-70000000D03*
%TD*%
D50*
%TO.N,GND*%
X73600000Y-79200000D03*
X111100000Y-91800000D03*
X92000000Y-81500000D03*
X94900000Y-78600000D03*
X86650000Y-85650000D03*
D51*
%TO.N,VBAT*%
X75300000Y-74350000D03*
%TO.N,+3.3V*%
X82400000Y-69700000D03*
X90850000Y-94950000D03*
X90050000Y-83100000D03*
%TO.N,+5V*%
X83150000Y-69350000D03*
X92750000Y-79900000D03*
%TO.N,GND*%
X86900000Y-71650000D03*
X81150000Y-71250000D03*
%TO.N,/TX*%
X119650000Y-62700000D03*
X112750000Y-62700000D03*
%TO.N,/RX*%
X120200000Y-63950000D03*
X112750000Y-63950000D03*
%TO.N,/BOOT*%
X97050000Y-76450000D03*
X112650000Y-75400000D03*
%TO.N,/DISP_CS*%
X101800000Y-77800000D03*
X98750000Y-81900000D03*
%TO.N,/CLK*%
X93750000Y-81900000D03*
X104350000Y-75500000D03*
%TO.N,/MOSI*%
X103050000Y-75500000D03*
X96250000Y-81900000D03*
%TO.N,/RESET*%
X87800000Y-76700000D03*
%TO.N,GND*%
X94984925Y-69900000D03*
X62800000Y-92800000D03*
X113760000Y-81530000D03*
X62800000Y-82200000D03*
X88084925Y-59600000D03*
X93941569Y-75056644D03*
X72484925Y-64800000D03*
X74184925Y-68600000D03*
X78084925Y-63000000D03*
X94884925Y-58227000D03*
X89384925Y-58600000D03*
X84728281Y-73556644D03*
X85084925Y-71873000D03*
X85084925Y-60800000D03*
%TO.N,/SCL*%
X97384925Y-64000000D03*
X87057030Y-62683684D03*
%TO.N,/SDA*%
X97384925Y-62700000D03*
X87084925Y-61824865D03*
%TO.N,/ENC_BTN*%
X88584925Y-72200000D03*
X97384925Y-72800000D03*
%TO.N,VBUS*%
X73250000Y-71700000D03*
X70569017Y-75319017D03*
%TO.N,/D+*%
X62550000Y-98654000D03*
X62549863Y-97400000D03*
%TO.N,/RESET*%
X97384925Y-60973000D03*
X89484925Y-60700000D03*
%TO.N,VBAT*%
X81984925Y-64200000D03*
X72459303Y-67940697D03*
X81984925Y-67800000D03*
X82484925Y-62300000D03*
%TO.N,Net-(LED1-K)*%
X70550000Y-74300000D03*
X70550000Y-71850000D03*
%TO.N,/PWR_SW*%
X97484925Y-67500000D03*
X88784925Y-68600000D03*
%TO.N,/BTN1*%
X88084925Y-64200000D03*
X97384925Y-65200000D03*
%TO.N,/ALRT*%
X97384925Y-69000000D03*
X87084925Y-63600000D03*
%TO.N,Net-(ENC1-PadA)*%
X92684925Y-75900000D03*
X92884925Y-70899874D03*
%TO.N,Net-(R16-Pad2)*%
X93984925Y-68373000D03*
%TO.N,Net-(R17-Pad2)*%
X89484925Y-61600000D03*
%TD*%
D52*
%TO.N,GND*%
X81150000Y-71250000D02*
X80400000Y-72000000D01*
X80400000Y-72000000D02*
X80200000Y-72000000D01*
X80300000Y-73000000D02*
X80300000Y-72100000D01*
X80300000Y-72100000D02*
X80200000Y-72000000D01*
X77884925Y-72800000D02*
X77884925Y-73387768D01*
X78597157Y-74100000D02*
X79884925Y-74100000D01*
X80300000Y-73000000D02*
X81284925Y-73000000D01*
X79884925Y-74100000D02*
X80300000Y-73684925D01*
X80300000Y-73684925D02*
X80300000Y-73000000D01*
X77884925Y-73387768D02*
X78597157Y-74100000D01*
X81284925Y-73000000D02*
X82584925Y-71700000D01*
X82584925Y-71700000D02*
X82584925Y-71615240D01*
D53*
%TO.N,+3.3V*%
X78725159Y-72800000D02*
X78781432Y-72743727D01*
X78781432Y-72743727D02*
X78781432Y-72018518D01*
X78781432Y-72018518D02*
X80200000Y-70599950D01*
X80200000Y-70599950D02*
X81500050Y-70599950D01*
X81500050Y-70599950D02*
X82400000Y-69700000D01*
D52*
%TO.N,VBAT*%
X73574930Y-82600000D02*
X74974930Y-82600000D01*
X76500000Y-75550000D02*
X75300000Y-74350000D01*
X74974930Y-82600000D02*
X76500000Y-81074930D01*
X76500000Y-81074930D02*
X76500000Y-75550000D01*
D53*
%TO.N,/BOOT*%
X87900000Y-87365088D02*
X87900000Y-83800000D01*
%TO.N,/RESET*%
X81000000Y-87365088D02*
X87800000Y-80565088D01*
X87800000Y-80565088D02*
X87800000Y-76700000D01*
%TO.N,/D-*%
X62809575Y-98027000D02*
X63282575Y-98500000D01*
X84269000Y-91642184D02*
X84269000Y-85681000D01*
X63282575Y-98500000D02*
X68149999Y-98500000D01*
X84269000Y-85681000D02*
X95830061Y-74119939D01*
X68149999Y-98500000D02*
X71550000Y-95100000D01*
X71550000Y-95100000D02*
X80811184Y-95100000D01*
X80811184Y-95100000D02*
X84269000Y-91642184D01*
X95830061Y-74119939D02*
X96234937Y-74119939D01*
%TO.N,/D+*%
X96234937Y-75389941D02*
X95098875Y-75389941D01*
X95098875Y-75389941D02*
X84650000Y-85838816D01*
X71707815Y-95481000D02*
X68307815Y-98881000D01*
X68307815Y-98881000D02*
X62777000Y-98881000D01*
X80969000Y-95481000D02*
X71707815Y-95481000D01*
X84650000Y-85838816D02*
X84650000Y-91800000D01*
X84650000Y-91800000D02*
X80969000Y-95481000D01*
X62777000Y-98881000D02*
X62550000Y-98654000D01*
D52*
%TO.N,+3.3V*%
X90850000Y-94950000D02*
X90850000Y-83900000D01*
X90850000Y-83900000D02*
X90050000Y-83100000D01*
X83046892Y-68100000D02*
X82416000Y-68730892D01*
X82416000Y-68730892D02*
X82416000Y-69607417D01*
D53*
%TO.N,/BOOT*%
X87900000Y-83800000D02*
X95188816Y-76511184D01*
X95188816Y-76511184D02*
X95188816Y-76450000D01*
X95188816Y-76450000D02*
X97050000Y-76450000D01*
%TO.N,/TX*%
X119650000Y-62700000D02*
X119808428Y-62700000D01*
X119808428Y-62700000D02*
X120900612Y-63792184D01*
X113890816Y-98148000D02*
X90357000Y-98148000D01*
X120900612Y-63792184D02*
X120900612Y-64107816D01*
X120900612Y-64107816D02*
X120336000Y-64672428D01*
X120336000Y-64672428D02*
X120336000Y-91702816D01*
X120336000Y-91702816D02*
X113890816Y-98148000D01*
X90357000Y-98148000D02*
X87505000Y-101000000D01*
%TO.N,/RX*%
X120200000Y-63950000D02*
X119955000Y-64195000D01*
X119955000Y-64195000D02*
X119955000Y-91545000D01*
X119955000Y-91545000D02*
X113733000Y-97767000D01*
X113733000Y-97767000D02*
X88198000Y-97767000D01*
X88198000Y-97767000D02*
X84965000Y-101000000D01*
%TO.N,/01*%
X119574000Y-91331262D02*
X113519262Y-97386000D01*
X119574000Y-63505098D02*
X119574000Y-91331262D01*
X116218814Y-60149911D02*
X119574000Y-63505098D01*
X113735065Y-60149911D02*
X116218814Y-60149911D01*
X113519262Y-97386000D02*
X86039000Y-97386000D01*
X86039000Y-97386000D02*
X82425000Y-101000000D01*
%TO.N,/02*%
X113735065Y-61419913D02*
X116950000Y-61419913D01*
X79885000Y-101000000D02*
X83880000Y-97005000D01*
X83880000Y-97005000D02*
X113361448Y-97005000D01*
X113361448Y-97005000D02*
X119193000Y-91173445D01*
X119193000Y-91173445D02*
X119193000Y-63662913D01*
X119193000Y-63662913D02*
X116950000Y-61419913D01*
%TO.N,/48*%
X77345000Y-101000000D02*
X81721000Y-96624000D01*
X112864162Y-79838000D02*
X110700012Y-77673850D01*
X118812000Y-81184368D02*
X117465631Y-79838000D01*
X81721000Y-96624000D02*
X113203632Y-96624000D01*
X110700012Y-77673850D02*
X110700012Y-76669850D01*
X113203632Y-96624000D02*
X118812000Y-91015630D01*
X118812000Y-91015630D02*
X118812000Y-81184368D01*
X117465631Y-79838000D02*
X112864162Y-79838000D01*
%TO.N,/47*%
X79562000Y-96243000D02*
X113045816Y-96243000D01*
X109430010Y-77673850D02*
X109430010Y-76669850D01*
X118431000Y-90857815D02*
X118431000Y-81342184D01*
X113045816Y-96243000D02*
X118431000Y-90857815D01*
X118431000Y-81342184D02*
X117307816Y-80219000D01*
X74805000Y-101000000D02*
X79562000Y-96243000D01*
X117307816Y-80219000D02*
X111975160Y-80219000D01*
X111975160Y-80219000D02*
X109430010Y-77673850D01*
%TO.N,/21*%
X77403000Y-95862000D02*
X112888000Y-95862000D01*
X112888000Y-95862000D02*
X118050000Y-90700000D01*
X72265000Y-101000000D02*
X77403000Y-95862000D01*
X118050000Y-90700000D02*
X118050000Y-81500000D01*
X111417005Y-80600000D02*
X108160007Y-77343002D01*
X118050000Y-81500000D02*
X117150000Y-80600000D01*
X117150000Y-80600000D02*
X111417005Y-80600000D01*
X108160007Y-77343002D02*
X108160007Y-76669850D01*
D52*
%TO.N,+5V*%
X104610000Y-79900000D02*
X106250000Y-81540000D01*
X106250000Y-81540000D02*
X106250000Y-82900000D01*
X92750000Y-79900000D02*
X104610000Y-79900000D01*
X84109982Y-69350000D02*
X84134963Y-69325019D01*
X83150000Y-69350000D02*
X84109982Y-69350000D01*
D53*
%TO.N,GND*%
X86895136Y-71645136D02*
X86900000Y-71650000D01*
X86034887Y-71645136D02*
X86895136Y-71645136D01*
%TO.N,/TX*%
X113735065Y-62689916D02*
X112760084Y-62689916D01*
X112760084Y-62689916D02*
X112750000Y-62700000D01*
%TO.N,/RX*%
X113735065Y-63959918D02*
X112759918Y-63959918D01*
X112759918Y-63959918D02*
X112750000Y-63950000D01*
%TO.N,/D-*%
X95736702Y-74119939D02*
X96234937Y-74119939D01*
%TO.N,/BOOT*%
X113735065Y-75389941D02*
X112660059Y-75389941D01*
X112660059Y-75389941D02*
X112650000Y-75400000D01*
%TO.N,/DISP_CS*%
X98750000Y-82900000D02*
X98750000Y-81900000D01*
X101800000Y-76679845D02*
X101809995Y-76669850D01*
X101800000Y-77800000D02*
X101800000Y-76679845D01*
%TO.N,/CLK*%
X104350000Y-76669850D02*
X104350000Y-75500000D01*
X93750000Y-81900000D02*
X93750000Y-82900000D01*
%TO.N,/MOSI*%
X96250000Y-82900000D02*
X96250000Y-81900000D01*
X103050000Y-75500000D02*
X103050000Y-76639853D01*
X103050000Y-76639853D02*
X103079997Y-76669850D01*
D52*
%TO.N,VBUS*%
X73250000Y-71700000D02*
X76888608Y-71700000D01*
X76888608Y-71700000D02*
X77684925Y-70903683D01*
X73250000Y-71700000D02*
X71485001Y-69935001D01*
X71485001Y-69935001D02*
X71485001Y-68107340D01*
D53*
%TO.N,Net-(LED1-K)*%
X70550000Y-74300000D02*
X71176017Y-74926017D01*
X71176017Y-74926017D02*
X71176017Y-86742403D01*
X71176017Y-86742403D02*
X66399873Y-91518547D01*
X66399873Y-91518547D02*
X66399873Y-92951003D01*
D52*
%TO.N,VBUS*%
X70569017Y-75319017D02*
X70550000Y-75338034D01*
X70550000Y-75338034D02*
X70550000Y-86650000D01*
X70550000Y-86650000D02*
X65400305Y-91799695D01*
X65400305Y-91799695D02*
X65200305Y-91799695D01*
D53*
%TO.N,Net-(LED1-K)*%
X71694514Y-62200000D02*
X73334659Y-62200000D01*
X70550000Y-71850000D02*
X70550000Y-63344514D01*
X73334659Y-62200000D02*
X73334963Y-62200304D01*
X70550000Y-63344514D02*
X71694514Y-62200000D01*
D52*
%TO.N,VBAT*%
X72459303Y-67940697D02*
X72459303Y-67341143D01*
X72459303Y-67341143D02*
X71485001Y-66366841D01*
X71485001Y-66366841D02*
X71485001Y-65800000D01*
D53*
%TO.N,Net-(ENC1-PadA)*%
X75544637Y-73662000D02*
X67138000Y-73662000D01*
%TO.N,Net-(ENC1-PadB)*%
X66980184Y-73281000D02*
X75702453Y-73281000D01*
%TO.N,Net-(ENC1-PadS1)*%
X63200000Y-72900000D02*
X75860269Y-72900000D01*
%TO.N,/PWR_SW*%
X76018085Y-72519000D02*
X63357816Y-72519000D01*
%TO.N,GND*%
X94284925Y-69900000D02*
X94984925Y-69900000D01*
X72484925Y-64279756D02*
X72484925Y-64800000D01*
D52*
X111250000Y-82900000D02*
X113750000Y-82900000D01*
D53*
X84634887Y-63324993D02*
X85066029Y-62893851D01*
X94611925Y-67500483D02*
X94284925Y-67173483D01*
X72434963Y-65800000D02*
X72434963Y-64849962D01*
X94284925Y-74713288D02*
X93941569Y-75056644D01*
X74184925Y-68600000D02*
X75184925Y-68600000D01*
X85621273Y-73980366D02*
X85152003Y-73980366D01*
X61500000Y-92793268D02*
X62793268Y-92793268D01*
X94284925Y-69800000D02*
X94611925Y-69473000D01*
X84104991Y-71615240D02*
X84134887Y-71645136D01*
D52*
X92184925Y-59000000D02*
X92405042Y-58779883D01*
X94884925Y-58400000D02*
X94884925Y-58227000D01*
X66000152Y-96214945D02*
X66356769Y-96214945D01*
X92405042Y-58779883D02*
X93684925Y-58779883D01*
X66356769Y-96214945D02*
X67125121Y-96983297D01*
D53*
X85084925Y-71174981D02*
X84614770Y-71645136D01*
X85510885Y-71645136D02*
X86034887Y-71645136D01*
D52*
X85066029Y-60818896D02*
X85084925Y-60800000D01*
D53*
X75091657Y-68693268D02*
X75184925Y-68600000D01*
X71434963Y-63633553D02*
X71838722Y-63633553D01*
D52*
X94884925Y-58779883D02*
X96134912Y-58779883D01*
X113750000Y-82900000D02*
X116250000Y-82900000D01*
X62800000Y-84500000D02*
X62800000Y-82200000D01*
D53*
X94284925Y-73940234D02*
X94284925Y-74713288D01*
X85084925Y-71219176D02*
X85510885Y-71645136D01*
D52*
X94884925Y-58779883D02*
X94884925Y-58400000D01*
X96134912Y-58779883D02*
X96234937Y-58879908D01*
D53*
X72434963Y-64849962D02*
X72484925Y-64800000D01*
X62793268Y-92793268D02*
X62800000Y-92800000D01*
X88084925Y-62459766D02*
X88084925Y-59600000D01*
X64200000Y-92793268D02*
X62806732Y-92793268D01*
D52*
X113750000Y-82900000D02*
X113750000Y-81540000D01*
D53*
X85152003Y-73980366D02*
X84728281Y-73556644D01*
D52*
X59600102Y-96214945D02*
X59243231Y-96214945D01*
D53*
X85084925Y-69325019D02*
X85084925Y-71219176D01*
D52*
X93684925Y-58779883D02*
X94884925Y-58779883D01*
D53*
X62806732Y-92793268D02*
X62800000Y-92800000D01*
X84634887Y-61824865D02*
X85066029Y-62256007D01*
X85066029Y-62256007D02*
X85066029Y-62574929D01*
X84128513Y-63324993D02*
X84634887Y-63324993D01*
X94284925Y-69900000D02*
X94284925Y-69800000D01*
D52*
X85066029Y-62574929D02*
X85066029Y-60818896D01*
D53*
X82584925Y-71615240D02*
X84104991Y-71615240D01*
X71838722Y-63633553D02*
X72484925Y-64279756D01*
D52*
X113750000Y-81540000D02*
X113760000Y-81530000D01*
X59243231Y-96214945D02*
X58474879Y-96983297D01*
D53*
X75091657Y-70100000D02*
X75091657Y-68693268D01*
X86003545Y-62824865D02*
X85315965Y-62824865D01*
X94611925Y-69473000D02*
X94611925Y-67500483D01*
X85084925Y-71873000D02*
X85084925Y-71219176D01*
X84128513Y-61824865D02*
X84634887Y-61824865D01*
X92184925Y-59000000D02*
X92184925Y-59100000D01*
X84614770Y-71645136D02*
X84134887Y-71645136D01*
X85315965Y-62824865D02*
X85066029Y-62574929D01*
X85066029Y-62893851D02*
X85066029Y-62574929D01*
X76784925Y-62949785D02*
X78034710Y-62949785D01*
X85084925Y-69325019D02*
X85084925Y-71174981D01*
X78034710Y-62949785D02*
X78084925Y-63000000D01*
D52*
%TO.N,+5V*%
X82559906Y-70770155D02*
X84100140Y-70770155D01*
X106250000Y-82900000D02*
X108750000Y-82900000D01*
X103750000Y-82900000D02*
X106250000Y-82900000D01*
X84134887Y-69325095D02*
X84134963Y-69325019D01*
X84134887Y-70804902D02*
X84134887Y-69325095D01*
X84100140Y-70770155D02*
X84134887Y-70804902D01*
D53*
X84134963Y-70804826D02*
X84134887Y-70804902D01*
%TO.N,Net-(U1-C-)*%
X86034887Y-64924994D02*
X85834912Y-64725019D01*
X86034887Y-66624993D02*
X86034887Y-64924994D01*
%TO.N,Net-(U1-C+)*%
X84134963Y-65024918D02*
X84434862Y-64725019D01*
X84134963Y-66624993D02*
X84134963Y-65024918D01*
%TO.N,+3.3V*%
X83622139Y-62824865D02*
X84128513Y-62824865D01*
D52*
X91284925Y-71553366D02*
X89884925Y-70153366D01*
X94084925Y-60700000D02*
X94635014Y-60149911D01*
D53*
X83146892Y-68100000D02*
X83284925Y-67961967D01*
D52*
X89884925Y-73600000D02*
X91091657Y-74806732D01*
X81260697Y-63034000D02*
X80901017Y-62674320D01*
X91984925Y-65300000D02*
X90584925Y-65300000D01*
X92778193Y-64506732D02*
X91984925Y-65300000D01*
X92831559Y-62600000D02*
X92831559Y-61953366D01*
X83146892Y-68000000D02*
X85509919Y-68000000D01*
D53*
X83046892Y-63400112D02*
X83622139Y-62824865D01*
D52*
X85084925Y-67575006D02*
X85084925Y-66624993D01*
X85509919Y-68000000D02*
X86034887Y-68524968D01*
X83046892Y-63861967D02*
X83046892Y-68100000D01*
X94635014Y-60149911D02*
X96234937Y-60149911D01*
X89884925Y-66606732D02*
X89884925Y-66000000D01*
X91284925Y-68006732D02*
X89884925Y-66606732D01*
X88784925Y-66146634D02*
X89738291Y-66146634D01*
X86034887Y-69325019D02*
X86034887Y-68524968D01*
X79384875Y-62000585D02*
X80714516Y-62000585D01*
X80901017Y-62000585D02*
X79384875Y-62000585D01*
X93684925Y-59620117D02*
X94105220Y-59620117D01*
X89884925Y-70153366D02*
X89884925Y-70100000D01*
D53*
X83046892Y-68100000D02*
X83146892Y-68100000D01*
D52*
X92238291Y-60700000D02*
X94084925Y-60700000D01*
X89884925Y-70100000D02*
X89884925Y-73600000D01*
X83046892Y-68100000D02*
X83146892Y-68000000D01*
X89884925Y-66000000D02*
X89884925Y-70100000D01*
X92778193Y-64100000D02*
X92778193Y-64506732D01*
X80714516Y-62000585D02*
X80764783Y-61950318D01*
X80901017Y-62674320D02*
X80901017Y-62000585D01*
X88678193Y-74806732D02*
X88584925Y-74806732D01*
X91091657Y-74806732D02*
X91284925Y-74806732D01*
X91084925Y-62693268D02*
X92684925Y-62693268D01*
X92778193Y-62600000D02*
X92778193Y-64100000D01*
X92831559Y-61953366D02*
X94635014Y-60149911D01*
X86034887Y-68524968D02*
X85084925Y-67575006D01*
X89738291Y-66146634D02*
X89884925Y-66000000D01*
X82218925Y-63034000D02*
X81260697Y-63034000D01*
X92684925Y-62693268D02*
X92778193Y-62600000D01*
X83046892Y-63861967D02*
X82218925Y-63034000D01*
X89884925Y-73600000D02*
X88678193Y-74806732D01*
X94105220Y-59620117D02*
X94635014Y-60149911D01*
X86034887Y-70804902D02*
X86034887Y-69325019D01*
X90988291Y-74806732D02*
X91284925Y-74806732D01*
X88413221Y-66146634D02*
X86034887Y-68524968D01*
X88784925Y-66146634D02*
X88413221Y-66146634D01*
D53*
X83046892Y-63861967D02*
X83046892Y-63400112D01*
D52*
X90584925Y-65300000D02*
X89884925Y-66000000D01*
X79384875Y-62000585D02*
X79384875Y-61999950D01*
D53*
X83284925Y-67961967D02*
X83184925Y-67861967D01*
%TO.N,/SCL*%
X86698339Y-62324993D02*
X86003545Y-62324993D01*
X96094855Y-64100000D02*
X96234937Y-63959918D01*
X87057030Y-62683684D02*
X86698339Y-62324993D01*
X96234937Y-63959918D02*
X97344843Y-63959918D01*
X94338291Y-64100000D02*
X96094855Y-64100000D01*
X97344843Y-63959918D02*
X97384925Y-64000000D01*
%TO.N,/SDA*%
X96234937Y-62689916D02*
X97374841Y-62689916D01*
X96145021Y-62600000D02*
X96234937Y-62689916D01*
X87084925Y-61824865D02*
X86003545Y-61824865D01*
X97374841Y-62689916D02*
X97384925Y-62700000D01*
X94338291Y-62600000D02*
X96145021Y-62600000D01*
%TO.N,/ENC_BTN*%
X86861405Y-73140132D02*
X87021273Y-73300000D01*
X85621273Y-73140132D02*
X86861405Y-73140132D01*
X87021273Y-73300000D02*
X88584925Y-73300000D01*
X88584925Y-73300000D02*
X88584925Y-72200000D01*
X97384925Y-72800000D02*
X96284873Y-72800000D01*
X96284873Y-72800000D02*
X96234937Y-72849936D01*
%TO.N,/ENC_SIG_B*%
X91284925Y-73300000D02*
X92884925Y-73300000D01*
X94284925Y-73100000D02*
X93084925Y-73100000D01*
X95804991Y-71579934D02*
X96234937Y-71579934D01*
X93084925Y-73100000D02*
X92884925Y-73300000D01*
X94284925Y-73100000D02*
X95804991Y-71579934D01*
%TO.N,/ENC_SIG_A*%
X92884925Y-70046634D02*
X92913691Y-70046634D01*
X91284925Y-70046634D02*
X92884925Y-70046634D01*
X96234937Y-70309931D02*
X95804634Y-70740234D01*
X93031559Y-69900000D02*
X92884925Y-70046634D01*
X95804634Y-70740234D02*
X94284925Y-70740234D01*
X93607291Y-70740234D02*
X94284925Y-70740234D01*
X92913691Y-70046634D02*
X93607291Y-70740234D01*
D52*
%TO.N,VBUS*%
X77684925Y-69500000D02*
X80085001Y-67099924D01*
X75184925Y-67093268D02*
X75278193Y-67093268D01*
X77684925Y-70903683D02*
X77684925Y-69500000D01*
X61200000Y-91000000D02*
X64400610Y-91000000D01*
X75278193Y-67093268D02*
X77684925Y-69500000D01*
X60399949Y-91800051D02*
X61200000Y-91000000D01*
X65200305Y-91799695D02*
X65200305Y-94500000D01*
X64400610Y-91000000D02*
X65200305Y-91799695D01*
X66400127Y-94448997D02*
X65251308Y-94448997D01*
X65200305Y-94500000D02*
X65200305Y-96214945D01*
X65251308Y-94448997D02*
X65200305Y-94500000D01*
X60399949Y-96214945D02*
X60399949Y-91800051D01*
X80085001Y-67099924D02*
X80085001Y-66500000D01*
D53*
%TO.N,/D-*%
X63176863Y-97659712D02*
X63176863Y-97140288D01*
X63049936Y-97013361D02*
X63049936Y-96214945D01*
X62049936Y-96214945D02*
X62049936Y-97013215D01*
X61922863Y-97140288D02*
X61922863Y-97659712D01*
X63176863Y-97140288D02*
X63049936Y-97013361D01*
X61922863Y-97659712D02*
X62290151Y-98027000D01*
X62290151Y-98027000D02*
X62809575Y-98027000D01*
X62049936Y-97013215D02*
X61922863Y-97140288D01*
X62809575Y-98027000D02*
X63176863Y-97659712D01*
%TO.N,/D+*%
X62549863Y-97400000D02*
X62550064Y-97399799D01*
X62550064Y-96214945D02*
X62550064Y-95260817D01*
X62550064Y-95260817D02*
X62572936Y-95237945D01*
X63550064Y-95261073D02*
X63550064Y-96214945D01*
X95894984Y-75389941D02*
X96234937Y-75389941D01*
X62572936Y-95237945D02*
X63526936Y-95237945D01*
X62550064Y-97399799D02*
X62550064Y-96214945D01*
X63526936Y-95237945D02*
X63550064Y-95261073D01*
%TO.N,/RESET*%
X90731559Y-60553366D02*
X90731559Y-60700000D01*
X90731559Y-60700000D02*
X89484925Y-60700000D01*
X97065012Y-61419913D02*
X96234937Y-61419913D01*
X97384925Y-60973000D02*
X97384925Y-61100000D01*
X97384925Y-61100000D02*
X97065012Y-61419913D01*
X90784875Y-60646684D02*
X90731559Y-60700000D01*
X90784875Y-59000000D02*
X90784875Y-60646684D01*
%TO.N,VBAT*%
X81984925Y-65200000D02*
X81984925Y-66500000D01*
D52*
X81984925Y-67800000D02*
X81984925Y-66500000D01*
D53*
X71485001Y-64523825D02*
X71434963Y-64473787D01*
X82484925Y-62300000D02*
X82509918Y-62324993D01*
X82509918Y-62324993D02*
X84128513Y-62324993D01*
X71485001Y-65800000D02*
X71485001Y-64523825D01*
X81984925Y-64200000D02*
X81984925Y-65200000D01*
%TO.N,Net-(U7-PROG)*%
X73384925Y-68107340D02*
X73384925Y-69753366D01*
X73384925Y-69753366D02*
X73731559Y-70100000D01*
%TO.N,Net-(U7-STAT)*%
X73384925Y-65800000D02*
X73384925Y-63756998D01*
X73384925Y-63756998D02*
X73334963Y-63707036D01*
%TO.N,Net-(U10-D)*%
X74284925Y-63000115D02*
X74284925Y-64553366D01*
X74284925Y-64553366D02*
X75184925Y-65453366D01*
X75284925Y-62020117D02*
X75264923Y-62020117D01*
X76765393Y-62020117D02*
X76784925Y-62000585D01*
X75184925Y-65453366D02*
X77241974Y-65453366D01*
D52*
X78962432Y-65896317D02*
X77684925Y-65896317D01*
X81034963Y-64500000D02*
X80358749Y-64500000D01*
X80358749Y-64500000D02*
X78962432Y-65896317D01*
D53*
X75264923Y-62020117D02*
X74284925Y-63000115D01*
X75284925Y-62020117D02*
X76765393Y-62020117D01*
X77241974Y-65453366D02*
X77684925Y-65896317D01*
D52*
%TO.N,Net-(U9-EN)*%
X76738291Y-63946634D02*
X76784925Y-63900000D01*
X76734607Y-63950318D02*
X76784925Y-63900000D01*
X75184925Y-63946634D02*
X76738291Y-63946634D01*
D53*
%TO.N,Net-(JP1-B)*%
X93750000Y-84200000D02*
X95812000Y-86262000D01*
X101695552Y-86262000D02*
X102752477Y-87318925D01*
X95812000Y-86262000D02*
X101695552Y-86262000D01*
X102752477Y-87318925D02*
X102752477Y-89161335D01*
%TO.N,Net-(JP2-B)*%
X97931000Y-85881000D02*
X101853368Y-85881000D01*
X101853368Y-85881000D02*
X103251588Y-87279220D01*
X96250000Y-84200000D02*
X97931000Y-85881000D01*
X103251588Y-87279220D02*
X103251588Y-89161335D01*
%TO.N,Net-(JP3-B)*%
X100050000Y-85500000D02*
X102011184Y-85500000D01*
X98750000Y-84200000D02*
X100050000Y-85500000D01*
X102011184Y-85500000D02*
X103751969Y-87240785D01*
X103751969Y-87240785D02*
X103751969Y-89161335D01*
%TO.N,Net-(JP4-B)*%
X101250000Y-84200000D02*
X104252350Y-87202350D01*
X104252350Y-87202350D02*
X104252350Y-89161335D01*
%TO.N,Net-(JP5-B)*%
X104752731Y-87152731D02*
X103750000Y-86150000D01*
X104752731Y-87152731D02*
X104752731Y-89161335D01*
X103750000Y-86150000D02*
X103750000Y-84200000D01*
%TO.N,Net-(JP6-B)*%
X106250000Y-86161184D02*
X106250000Y-84200000D01*
X105253112Y-87158072D02*
X105253112Y-89161335D01*
X105253112Y-87158072D02*
X106250000Y-86161184D01*
%TO.N,Net-(JP7-B)*%
X105753493Y-87196507D02*
X108750000Y-84200000D01*
X105753493Y-87196507D02*
X105753493Y-89161335D01*
%TO.N,Net-(JP8-B)*%
X108000000Y-85500000D02*
X109950000Y-85500000D01*
X109950000Y-85500000D02*
X111250000Y-84200000D01*
X106252604Y-87236212D02*
X106252604Y-89161335D01*
X107994408Y-85494408D02*
X108000000Y-85500000D01*
X106252604Y-87236212D02*
X107994408Y-85494408D01*
%TO.N,Net-(JP9-B)*%
X106751715Y-87275917D02*
X108146632Y-85881000D01*
X106751715Y-87275917D02*
X106751715Y-89161335D01*
X112069000Y-85881000D02*
X113750000Y-84200000D01*
X108146632Y-85881000D02*
X112069000Y-85881000D01*
%TO.N,Net-(JP10-B)*%
X107252096Y-87347904D02*
X107252096Y-89161335D01*
X107252096Y-87347904D02*
X108338000Y-86262000D01*
X114188000Y-86262000D02*
X116250000Y-84200000D01*
X108338000Y-86262000D02*
X114188000Y-86262000D01*
%TO.N,Net-(U12-CC1)*%
X61550064Y-94350064D02*
X61500000Y-94300000D01*
X61550064Y-96214945D02*
X61550064Y-94350064D01*
%TO.N,Net-(U12-CC2)*%
X64550064Y-94650064D02*
X64200000Y-94300000D01*
X64550064Y-96214945D02*
X64550064Y-94650064D01*
%TO.N,Net-(JP11-A)*%
X67500000Y-66300000D02*
X67500000Y-68400000D01*
X67500000Y-68400000D02*
X68600000Y-69500000D01*
%TO.N,Net-(JP12-A)*%
X58100000Y-68400000D02*
X57000000Y-69500000D01*
X58100000Y-66300000D02*
X58100000Y-68400000D01*
%TO.N,/PWR_SW*%
X87008533Y-72563132D02*
X84835081Y-72563132D01*
X87015163Y-72569762D02*
X87008533Y-72563132D01*
X84835081Y-72563132D02*
X82460213Y-74938000D01*
X78437085Y-74938000D02*
X76018085Y-72519000D01*
X88784925Y-70800000D02*
X87015163Y-72569762D01*
X82460213Y-74938000D02*
X78437085Y-74938000D01*
X97214999Y-67769926D02*
X96234937Y-67769926D01*
X62800000Y-71961184D02*
X62800000Y-66300000D01*
X97484925Y-67500000D02*
X97214999Y-67769926D01*
X88784925Y-68600000D02*
X88784925Y-67653366D01*
X63357816Y-72519000D02*
X62800000Y-71961184D01*
X88784925Y-68600000D02*
X88784925Y-70800000D01*
%TO.N,/BTN2*%
X94284925Y-66333249D02*
X96068263Y-66333249D01*
X96014897Y-66279883D02*
X96234937Y-66499923D01*
X94284925Y-66333249D02*
X93051676Y-66333249D01*
X91284925Y-66500000D02*
X92884925Y-66500000D01*
X93051676Y-66333249D02*
X92884925Y-66500000D01*
X96068263Y-66333249D02*
X96234937Y-66499923D01*
%TO.N,/BTN1*%
X89318174Y-64366751D02*
X89484925Y-64200000D01*
X88084925Y-63300000D02*
X88084925Y-64200000D01*
X96264858Y-65200000D02*
X96234937Y-65229921D01*
X91084925Y-64200000D02*
X89484925Y-64200000D01*
X89484925Y-64200000D02*
X88984925Y-64200000D01*
X88984925Y-64200000D02*
X88084925Y-63300000D01*
X89584925Y-64300000D02*
X89484925Y-64200000D01*
X97384925Y-65200000D02*
X96264858Y-65200000D01*
%TO.N,/ALRT*%
X86784925Y-63300000D02*
X86028538Y-63300000D01*
X97384925Y-69000000D02*
X96274866Y-69000000D01*
X86028538Y-63300000D02*
X86003545Y-63324993D01*
X96274866Y-69000000D02*
X96234937Y-69039929D01*
X87084925Y-63600000D02*
X86784925Y-63300000D01*
%TO.N,Net-(ENC1-PadB)*%
X60300000Y-79961184D02*
X60300000Y-84500000D01*
X91991657Y-75700000D02*
X78121453Y-75700000D01*
X78121453Y-75700000D02*
X75702453Y-73281000D01*
X66980184Y-73281000D02*
X60300000Y-79961184D01*
X92884925Y-74806732D02*
X91991657Y-75700000D01*
%TO.N,Net-(ENC1-PadA)*%
X75544637Y-73662000D02*
X77963637Y-76081000D01*
X77963637Y-76081000D02*
X92503925Y-76081000D01*
X65300000Y-75500000D02*
X67138000Y-73662000D01*
X65300000Y-84500000D02*
X65300000Y-75500000D01*
X92884925Y-70899874D02*
X92884925Y-71553366D01*
X92503925Y-76081000D02*
X92684925Y-75900000D01*
%TO.N,Net-(R16-Pad2)*%
X93984925Y-68373000D02*
X93251193Y-68373000D01*
X93251193Y-68373000D02*
X92884925Y-68006732D01*
%TO.N,Net-(R17-Pad2)*%
X89484925Y-61600000D02*
X89484925Y-62693268D01*
%TO.N,Net-(ENC1-PadS1)*%
X75860269Y-72900000D02*
X78279269Y-75319000D01*
X86509005Y-75319000D02*
X87021273Y-74806732D01*
X78279269Y-75319000D02*
X86509005Y-75319000D01*
X60300000Y-70000000D02*
X63200000Y-72900000D01*
%TD*%
%TA.AperFunction,Conductor*%
%TO.N,GND*%
G36*
X72927964Y-50520185D02*
G01*
X72973719Y-50572989D01*
X72984925Y-50624500D01*
X72984925Y-57800000D01*
X93253764Y-57800000D01*
X93320803Y-57819685D01*
X93366558Y-57872489D01*
X93376502Y-57941647D01*
X93347477Y-58005203D01*
X93297097Y-58040182D01*
X93172835Y-58086528D01*
X93172828Y-58086532D01*
X93060798Y-58170399D01*
X92995334Y-58194817D01*
X92927061Y-58179966D01*
X92912176Y-58170399D01*
X92827018Y-58106649D01*
X92827011Y-58106645D01*
X92692304Y-58056403D01*
X92692297Y-58056401D01*
X92632769Y-58050000D01*
X92434925Y-58050000D01*
X92434925Y-58750000D01*
X92871923Y-58750000D01*
X92871923Y-58653883D01*
X92891608Y-58586844D01*
X92944412Y-58541089D01*
X92995923Y-58529883D01*
X94454928Y-58529883D01*
X94454928Y-58482055D01*
X94454927Y-58482038D01*
X94448526Y-58422510D01*
X94448524Y-58422503D01*
X94398282Y-58287796D01*
X94398278Y-58287789D01*
X94312118Y-58172695D01*
X94312115Y-58172692D01*
X94197021Y-58086532D01*
X94197014Y-58086528D01*
X94072753Y-58040182D01*
X94016819Y-57998311D01*
X93992402Y-57932847D01*
X94007254Y-57864574D01*
X94056659Y-57815168D01*
X94116086Y-57800000D01*
X95119497Y-57800000D01*
X95186536Y-57819685D01*
X95232291Y-57872489D01*
X95242235Y-57941647D01*
X95213210Y-58005203D01*
X95193808Y-58023267D01*
X95127746Y-58072721D01*
X95041586Y-58187814D01*
X95041582Y-58187821D01*
X94991340Y-58322528D01*
X94991338Y-58322535D01*
X94984937Y-58382063D01*
X94984937Y-58629908D01*
X97484937Y-58629908D01*
X97484937Y-58382080D01*
X97484936Y-58382063D01*
X97478535Y-58322535D01*
X97478533Y-58322528D01*
X97428291Y-58187821D01*
X97428287Y-58187814D01*
X97342127Y-58072721D01*
X97276066Y-58023267D01*
X97234195Y-57967333D01*
X97229211Y-57897641D01*
X97262696Y-57836318D01*
X97324020Y-57802834D01*
X97350377Y-57800000D01*
X112619625Y-57800000D01*
X112686664Y-57819685D01*
X112732419Y-57872489D01*
X112742363Y-57941647D01*
X112713338Y-58005203D01*
X112693936Y-58023267D01*
X112627874Y-58072721D01*
X112541714Y-58187814D01*
X112541710Y-58187821D01*
X112491468Y-58322528D01*
X112491466Y-58322535D01*
X112485065Y-58382063D01*
X112485065Y-58629908D01*
X114985065Y-58629908D01*
X114985065Y-58382080D01*
X114985064Y-58382063D01*
X114978663Y-58322535D01*
X114978661Y-58322528D01*
X114928419Y-58187821D01*
X114928415Y-58187814D01*
X114842255Y-58072721D01*
X114776194Y-58023267D01*
X114734323Y-57967333D01*
X114729339Y-57897641D01*
X114762824Y-57836318D01*
X114824148Y-57802834D01*
X114850505Y-57800000D01*
X137084925Y-57800000D01*
X137084925Y-50624500D01*
X137104610Y-50557461D01*
X137157414Y-50511706D01*
X137208925Y-50500500D01*
X156143454Y-50500500D01*
X156210493Y-50520185D01*
X156256248Y-50572989D01*
X156266192Y-50642147D01*
X156237167Y-50705703D01*
X156189101Y-50739792D01*
X155976117Y-50824117D01*
X155976109Y-50824121D01*
X155711476Y-50969604D01*
X155711471Y-50969607D01*
X155486565Y-51133010D01*
X155486564Y-51133011D01*
X156417262Y-52063709D01*
X156283398Y-52160967D01*
X156160967Y-52283398D01*
X156063709Y-52417262D01*
X155135311Y-51488864D01*
X155054520Y-51586525D01*
X155054518Y-51586528D01*
X154892707Y-51841502D01*
X154892704Y-51841508D01*
X154764127Y-52114747D01*
X154764125Y-52114752D01*
X154670805Y-52401959D01*
X154614216Y-52698609D01*
X154614215Y-52698616D01*
X154595255Y-52999994D01*
X154595255Y-53000005D01*
X154614215Y-53301380D01*
X154670805Y-53598040D01*
X154764125Y-53885247D01*
X154764127Y-53885252D01*
X154892704Y-54158491D01*
X154892707Y-54158497D01*
X155054516Y-54413469D01*
X155135311Y-54511133D01*
X156063708Y-53582736D01*
X156160967Y-53716602D01*
X156283398Y-53839033D01*
X156417262Y-53936290D01*
X155486564Y-54866987D01*
X155486565Y-54866989D01*
X155711461Y-55030385D01*
X155711479Y-55030397D01*
X155976109Y-55175878D01*
X155976117Y-55175882D01*
X156256889Y-55287047D01*
X156256892Y-55287048D01*
X156549399Y-55362150D01*
X156848995Y-55399999D01*
X156849007Y-55400000D01*
X157150993Y-55400000D01*
X157151004Y-55399999D01*
X157450600Y-55362150D01*
X157743107Y-55287048D01*
X157743110Y-55287047D01*
X158023882Y-55175882D01*
X158023890Y-55175878D01*
X158288520Y-55030397D01*
X158288530Y-55030390D01*
X158513433Y-54866987D01*
X158513434Y-54866987D01*
X157582737Y-53936290D01*
X157716602Y-53839033D01*
X157839033Y-53716602D01*
X157936290Y-53582737D01*
X158864687Y-54511134D01*
X158945486Y-54413464D01*
X159107292Y-54158497D01*
X159107295Y-54158491D01*
X159235872Y-53885252D01*
X159235874Y-53885247D01*
X159257569Y-53818479D01*
X159297006Y-53760804D01*
X159361365Y-53733605D01*
X159430211Y-53745520D01*
X159481687Y-53792764D01*
X159499500Y-53856797D01*
X159499500Y-100143202D01*
X159479815Y-100210241D01*
X159427011Y-100255996D01*
X159357853Y-100265940D01*
X159294297Y-100236915D01*
X159257569Y-100181520D01*
X159235874Y-100114752D01*
X159235872Y-100114747D01*
X159107295Y-99841507D01*
X159107292Y-99841502D01*
X158945483Y-99586530D01*
X158864686Y-99488864D01*
X157936289Y-100417261D01*
X157839033Y-100283398D01*
X157716602Y-100160967D01*
X157582736Y-100063709D01*
X158513434Y-99133011D01*
X158513433Y-99133009D01*
X158288538Y-98969614D01*
X158288520Y-98969602D01*
X158023890Y-98824121D01*
X158023882Y-98824117D01*
X157743110Y-98712952D01*
X157743107Y-98712951D01*
X157450600Y-98637849D01*
X157151004Y-98600000D01*
X156848995Y-98600000D01*
X156549399Y-98637849D01*
X156256892Y-98712951D01*
X156256889Y-98712952D01*
X155976117Y-98824117D01*
X155976109Y-98824121D01*
X155711476Y-98969604D01*
X155711471Y-98969607D01*
X155486565Y-99133010D01*
X155486564Y-99133011D01*
X156417262Y-100063709D01*
X156283398Y-100160967D01*
X156160967Y-100283398D01*
X156063709Y-100417262D01*
X155135311Y-99488864D01*
X155054520Y-99586525D01*
X155054518Y-99586528D01*
X154892707Y-99841502D01*
X154892705Y-99841507D01*
X154764127Y-100114747D01*
X154764125Y-100114752D01*
X154670805Y-100401959D01*
X154614216Y-100698609D01*
X154614215Y-100698616D01*
X154595255Y-100999994D01*
X154595255Y-101000005D01*
X154614215Y-101301383D01*
X154614216Y-101301390D01*
X154670805Y-101598040D01*
X154764125Y-101885247D01*
X154764127Y-101885252D01*
X154892704Y-102158491D01*
X154892707Y-102158497D01*
X155054516Y-102413469D01*
X155135311Y-102511133D01*
X156063708Y-101582736D01*
X156160967Y-101716602D01*
X156283398Y-101839033D01*
X156417262Y-101936290D01*
X155486564Y-102866987D01*
X155486565Y-102866989D01*
X155711461Y-103030385D01*
X155711479Y-103030397D01*
X155976109Y-103175878D01*
X155976117Y-103175882D01*
X156189101Y-103260208D01*
X156244187Y-103303189D01*
X156267290Y-103369128D01*
X156251077Y-103437090D01*
X156200694Y-103485498D01*
X156143454Y-103499500D01*
X112005413Y-103499500D01*
X111994605Y-103499028D01*
X111837246Y-103485260D01*
X111815961Y-103481507D01*
X111668630Y-103442030D01*
X111648318Y-103434637D01*
X111510084Y-103370177D01*
X111491366Y-103359370D01*
X111366417Y-103271880D01*
X111349859Y-103257986D01*
X111242013Y-103150140D01*
X111228119Y-103133582D01*
X111140629Y-103008633D01*
X111129822Y-102989915D01*
X111065362Y-102851681D01*
X111057969Y-102831369D01*
X111018492Y-102684038D01*
X111014739Y-102662752D01*
X111014277Y-102657475D01*
X111003758Y-102537243D01*
X111000972Y-102505393D01*
X111000500Y-102494586D01*
X111000500Y-99434109D01*
X111000500Y-99434108D01*
X110966392Y-99306814D01*
X110900500Y-99192686D01*
X110807314Y-99099500D01*
X110750250Y-99066554D01*
X110693187Y-99033608D01*
X110666531Y-99026465D01*
X110639692Y-99019274D01*
X110580032Y-98982910D01*
X110549503Y-98920063D01*
X110557798Y-98850688D01*
X110602283Y-98796810D01*
X110668835Y-98775535D01*
X110671786Y-98775500D01*
X113952620Y-98775500D01*
X113952621Y-98775499D01*
X114073851Y-98751386D01*
X114159754Y-98715803D01*
X114188049Y-98704083D01*
X114290824Y-98635411D01*
X114378227Y-98548008D01*
X120823411Y-92102824D01*
X120827147Y-92097232D01*
X120892083Y-92000049D01*
X120914882Y-91945008D01*
X120939386Y-91885850D01*
X120963500Y-91764619D01*
X120963500Y-91641012D01*
X120963500Y-87161489D01*
X145124500Y-87161489D01*
X145160659Y-87482410D01*
X145160661Y-87482426D01*
X145232527Y-87797294D01*
X145232531Y-87797306D01*
X145339195Y-88102133D01*
X145339201Y-88102147D01*
X145479327Y-88393122D01*
X145498656Y-88423884D01*
X145651159Y-88666591D01*
X145852527Y-88919099D01*
X146080901Y-89147473D01*
X146333409Y-89348841D01*
X146606875Y-89520671D01*
X146897860Y-89660802D01*
X146897866Y-89660804D01*
X147202693Y-89767468D01*
X147202705Y-89767472D01*
X147517577Y-89839339D01*
X147838511Y-89875499D01*
X147838512Y-89875500D01*
X147838515Y-89875500D01*
X148161488Y-89875500D01*
X148161488Y-89875499D01*
X148482423Y-89839339D01*
X148797295Y-89767472D01*
X149102140Y-89660802D01*
X149393125Y-89520671D01*
X149666591Y-89348841D01*
X149919099Y-89147473D01*
X150147473Y-88919099D01*
X150348841Y-88666591D01*
X150520671Y-88393125D01*
X150660802Y-88102140D01*
X150767472Y-87797295D01*
X150839339Y-87482423D01*
X150875500Y-87161485D01*
X150875500Y-86838515D01*
X150839339Y-86517577D01*
X150767472Y-86202705D01*
X150758512Y-86177100D01*
X150660804Y-85897866D01*
X150660802Y-85897860D01*
X150537064Y-85640916D01*
X150520672Y-85606877D01*
X150487343Y-85553834D01*
X150348841Y-85333409D01*
X150147473Y-85080901D01*
X149919099Y-84852527D01*
X149666591Y-84651159D01*
X149393125Y-84479329D01*
X149393122Y-84479327D01*
X149102147Y-84339201D01*
X149102133Y-84339195D01*
X148797306Y-84232531D01*
X148797294Y-84232527D01*
X148482426Y-84160661D01*
X148482410Y-84160659D01*
X148161489Y-84124500D01*
X148161485Y-84124500D01*
X147838515Y-84124500D01*
X147838510Y-84124500D01*
X147517589Y-84160659D01*
X147517573Y-84160661D01*
X147202705Y-84232527D01*
X147202693Y-84232531D01*
X146897866Y-84339195D01*
X146897852Y-84339201D01*
X146606877Y-84479327D01*
X146333410Y-84651158D01*
X146080901Y-84852526D01*
X145852526Y-85080901D01*
X145651158Y-85333410D01*
X145479327Y-85606877D01*
X145339201Y-85897852D01*
X145339195Y-85897866D01*
X145232531Y-86202693D01*
X145232527Y-86202705D01*
X145160661Y-86517573D01*
X145160659Y-86517589D01*
X145124500Y-86838510D01*
X145124500Y-87161489D01*
X120963500Y-87161489D01*
X120963500Y-82300004D01*
X141844592Y-82300004D01*
X141864196Y-82561620D01*
X141864197Y-82561625D01*
X141922576Y-82817402D01*
X141922578Y-82817411D01*
X141922580Y-82817416D01*
X142018432Y-83061643D01*
X142149614Y-83288857D01*
X142232280Y-83392517D01*
X142313198Y-83493985D01*
X142450007Y-83620924D01*
X142505521Y-83672433D01*
X142722296Y-83820228D01*
X142722301Y-83820230D01*
X142722302Y-83820231D01*
X142722303Y-83820232D01*
X142847843Y-83880688D01*
X142958673Y-83934061D01*
X142958674Y-83934061D01*
X142958677Y-83934063D01*
X143209385Y-84011396D01*
X143468818Y-84050500D01*
X143731182Y-84050500D01*
X143990615Y-84011396D01*
X144241323Y-83934063D01*
X144466366Y-83825688D01*
X144477696Y-83820232D01*
X144477696Y-83820231D01*
X144477704Y-83820228D01*
X144694479Y-83672433D01*
X144886805Y-83493981D01*
X145050386Y-83288857D01*
X145181568Y-83061643D01*
X145277420Y-82817416D01*
X145335802Y-82561630D01*
X145342290Y-82475049D01*
X145355408Y-82300004D01*
X145355408Y-82299995D01*
X145335803Y-82038379D01*
X145335802Y-82038374D01*
X145335802Y-82038370D01*
X145277420Y-81782584D01*
X145181568Y-81538357D01*
X145050386Y-81311143D01*
X145001629Y-81250004D01*
X148845093Y-81250004D01*
X148864692Y-81511545D01*
X148864693Y-81511550D01*
X148923058Y-81767270D01*
X149018883Y-82011426D01*
X149018882Y-82011426D01*
X149150027Y-82238573D01*
X149197874Y-82298571D01*
X149922421Y-81574024D01*
X149935359Y-81605258D01*
X150017437Y-81728097D01*
X150121903Y-81832563D01*
X150244742Y-81914641D01*
X150275974Y-81927577D01*
X149550830Y-82652720D01*
X149722546Y-82769793D01*
X149722550Y-82769795D01*
X149958854Y-82883594D01*
X149958858Y-82883595D01*
X150209494Y-82960907D01*
X150209500Y-82960909D01*
X150468848Y-82999999D01*
X150468857Y-83000000D01*
X150731143Y-83000000D01*
X150731151Y-82999999D01*
X150990499Y-82960909D01*
X150990505Y-82960907D01*
X151241143Y-82883595D01*
X151477445Y-82769798D01*
X151477447Y-82769797D01*
X151649168Y-82652720D01*
X150924025Y-81927578D01*
X150955258Y-81914641D01*
X151078097Y-81832563D01*
X151182563Y-81728097D01*
X151264641Y-81605258D01*
X151277578Y-81574025D01*
X152002125Y-82298572D01*
X152049971Y-82238573D01*
X152181116Y-82011426D01*
X152276941Y-81767270D01*
X152335306Y-81511550D01*
X152335307Y-81511545D01*
X152354907Y-81250004D01*
X152354907Y-81249995D01*
X152335307Y-80988454D01*
X152335306Y-80988449D01*
X152276941Y-80732729D01*
X152181116Y-80488573D01*
X152181117Y-80488573D01*
X152049972Y-80261426D01*
X152002124Y-80201427D01*
X151277577Y-80925973D01*
X151264641Y-80894742D01*
X151182563Y-80771903D01*
X151078097Y-80667437D01*
X150955258Y-80585359D01*
X150924025Y-80572421D01*
X151649168Y-79847278D01*
X151477454Y-79730206D01*
X151477445Y-79730201D01*
X151241142Y-79616404D01*
X151241144Y-79616404D01*
X150990505Y-79539092D01*
X150990499Y-79539090D01*
X150731151Y-79500000D01*
X150468848Y-79500000D01*
X150209500Y-79539090D01*
X150209494Y-79539092D01*
X149958858Y-79616404D01*
X149958854Y-79616405D01*
X149722547Y-79730205D01*
X149722539Y-79730210D01*
X149550830Y-79847277D01*
X150275974Y-80572421D01*
X150244742Y-80585359D01*
X150121903Y-80667437D01*
X150017437Y-80771903D01*
X149935359Y-80894742D01*
X149922422Y-80925974D01*
X149197875Y-80201427D01*
X149197874Y-80201427D01*
X149150028Y-80261425D01*
X149018883Y-80488573D01*
X148923058Y-80732729D01*
X148864693Y-80988449D01*
X148864692Y-80988454D01*
X148845093Y-81249995D01*
X148845093Y-81250004D01*
X145001629Y-81250004D01*
X144886805Y-81106019D01*
X144886804Y-81106018D01*
X144886801Y-81106014D01*
X144694479Y-80927567D01*
X144648834Y-80896447D01*
X144477704Y-80779772D01*
X144477700Y-80779770D01*
X144477697Y-80779768D01*
X144477696Y-80779767D01*
X144241325Y-80665938D01*
X144241327Y-80665938D01*
X143990623Y-80588606D01*
X143990619Y-80588605D01*
X143990615Y-80588604D01*
X143858092Y-80568629D01*
X143731187Y-80549500D01*
X143731182Y-80549500D01*
X143468818Y-80549500D01*
X143468812Y-80549500D01*
X143307247Y-80573853D01*
X143209385Y-80588604D01*
X143209382Y-80588605D01*
X143209376Y-80588606D01*
X142958673Y-80665938D01*
X142722303Y-80779767D01*
X142722302Y-80779768D01*
X142505520Y-80927567D01*
X142313198Y-81106014D01*
X142149614Y-81311143D01*
X142018432Y-81538356D01*
X141922582Y-81782578D01*
X141922576Y-81782597D01*
X141864197Y-82038374D01*
X141864196Y-82038379D01*
X141844592Y-82299995D01*
X141844592Y-82300004D01*
X120963500Y-82300004D01*
X120963500Y-68161489D01*
X145124500Y-68161489D01*
X145160659Y-68482410D01*
X145160661Y-68482426D01*
X145232527Y-68797294D01*
X145232531Y-68797306D01*
X145339195Y-69102133D01*
X145339201Y-69102147D01*
X145479327Y-69393122D01*
X145501312Y-69428111D01*
X145651159Y-69666591D01*
X145852527Y-69919099D01*
X146080901Y-70147473D01*
X146333409Y-70348841D01*
X146606875Y-70520671D01*
X146897860Y-70660802D01*
X146969069Y-70685719D01*
X147202693Y-70767468D01*
X147202705Y-70767472D01*
X147517577Y-70839339D01*
X147838511Y-70875499D01*
X147838512Y-70875500D01*
X147838515Y-70875500D01*
X148161488Y-70875500D01*
X148161488Y-70875499D01*
X148482423Y-70839339D01*
X148797295Y-70767472D01*
X149102140Y-70660802D01*
X149393125Y-70520671D01*
X149666591Y-70348841D01*
X149919099Y-70147473D01*
X150147473Y-69919099D01*
X150348841Y-69666591D01*
X150520671Y-69393125D01*
X150660802Y-69102140D01*
X150767472Y-68797295D01*
X150839339Y-68482423D01*
X150875500Y-68161485D01*
X150875500Y-67838515D01*
X150839339Y-67517577D01*
X150767472Y-67202705D01*
X150757035Y-67172879D01*
X150682808Y-66960749D01*
X150660802Y-66897860D01*
X150520671Y-66606875D01*
X150348841Y-66333409D01*
X150147473Y-66080901D01*
X149919099Y-65852527D01*
X149880306Y-65821591D01*
X149771677Y-65734962D01*
X149666591Y-65651159D01*
X149470102Y-65527697D01*
X149393122Y-65479327D01*
X149102147Y-65339201D01*
X149102133Y-65339195D01*
X148797306Y-65232531D01*
X148797294Y-65232527D01*
X148482426Y-65160661D01*
X148482410Y-65160659D01*
X148161489Y-65124500D01*
X148161485Y-65124500D01*
X147838515Y-65124500D01*
X147838510Y-65124500D01*
X147517589Y-65160659D01*
X147517573Y-65160661D01*
X147202705Y-65232527D01*
X147202693Y-65232531D01*
X146897866Y-65339195D01*
X146897852Y-65339201D01*
X146606877Y-65479327D01*
X146333410Y-65651158D01*
X146080901Y-65852526D01*
X145852526Y-66080901D01*
X145651158Y-66333410D01*
X145479327Y-66606877D01*
X145339201Y-66897852D01*
X145339195Y-66897866D01*
X145232531Y-67202693D01*
X145232527Y-67202705D01*
X145160661Y-67517573D01*
X145160659Y-67517589D01*
X145124500Y-67838510D01*
X145124500Y-68161489D01*
X120963500Y-68161489D01*
X120963500Y-64983709D01*
X120983185Y-64916670D01*
X120999819Y-64896028D01*
X121193743Y-64702104D01*
X121388023Y-64507824D01*
X121395100Y-64497232D01*
X121456695Y-64405049D01*
X121475196Y-64360384D01*
X121503998Y-64290851D01*
X121528112Y-64169619D01*
X121528112Y-64046013D01*
X121528112Y-63730381D01*
X121521540Y-63697344D01*
X121521540Y-63697342D01*
X121503999Y-63609156D01*
X121503996Y-63609147D01*
X121502043Y-63604433D01*
X121475763Y-63540985D01*
X121456698Y-63494956D01*
X121456691Y-63494944D01*
X121388023Y-63392176D01*
X121388020Y-63392172D01*
X121295852Y-63300004D01*
X141844592Y-63300004D01*
X141864196Y-63561620D01*
X141864197Y-63561625D01*
X141922576Y-63817402D01*
X141922578Y-63817411D01*
X141922580Y-63817416D01*
X142018432Y-64061643D01*
X142149614Y-64288857D01*
X142242272Y-64405046D01*
X142313198Y-64493985D01*
X142494753Y-64662441D01*
X142505521Y-64672433D01*
X142722296Y-64820228D01*
X142722301Y-64820230D01*
X142722302Y-64820231D01*
X142722303Y-64820232D01*
X142830429Y-64872302D01*
X142958673Y-64934061D01*
X142958674Y-64934061D01*
X142958677Y-64934063D01*
X143209385Y-65011396D01*
X143468818Y-65050500D01*
X143731182Y-65050500D01*
X143990615Y-65011396D01*
X144241323Y-64934063D01*
X144477704Y-64820228D01*
X144694479Y-64672433D01*
X144871845Y-64507862D01*
X144886801Y-64493985D01*
X144886801Y-64493983D01*
X144886805Y-64493981D01*
X145050386Y-64288857D01*
X145181568Y-64061643D01*
X145277420Y-63817416D01*
X145335802Y-63561630D01*
X145339456Y-63512870D01*
X145355408Y-63300004D01*
X145355408Y-63299995D01*
X145335803Y-63038379D01*
X145335802Y-63038374D01*
X145335802Y-63038370D01*
X145277420Y-62782584D01*
X145181568Y-62538357D01*
X145050386Y-62311143D01*
X145001629Y-62250004D01*
X148845093Y-62250004D01*
X148864692Y-62511545D01*
X148864693Y-62511550D01*
X148923058Y-62767270D01*
X149018883Y-63011426D01*
X149018882Y-63011426D01*
X149150027Y-63238573D01*
X149197874Y-63298571D01*
X149922421Y-62574024D01*
X149935359Y-62605258D01*
X150017437Y-62728097D01*
X150121903Y-62832563D01*
X150244742Y-62914641D01*
X150275974Y-62927577D01*
X149550830Y-63652720D01*
X149722546Y-63769793D01*
X149722550Y-63769795D01*
X149958854Y-63883594D01*
X149958858Y-63883595D01*
X150209494Y-63960907D01*
X150209500Y-63960909D01*
X150468848Y-63999999D01*
X150468857Y-64000000D01*
X150731143Y-64000000D01*
X150731151Y-63999999D01*
X150990499Y-63960909D01*
X150990505Y-63960907D01*
X151241143Y-63883595D01*
X151477445Y-63769798D01*
X151477447Y-63769797D01*
X151649168Y-63652720D01*
X150924025Y-62927578D01*
X150955258Y-62914641D01*
X151078097Y-62832563D01*
X151182563Y-62728097D01*
X151264641Y-62605258D01*
X151277578Y-62574025D01*
X152002125Y-63298572D01*
X152049971Y-63238573D01*
X152181116Y-63011426D01*
X152276941Y-62767270D01*
X152335306Y-62511550D01*
X152335307Y-62511545D01*
X152354907Y-62250004D01*
X152354907Y-62249995D01*
X152335307Y-61988454D01*
X152335306Y-61988449D01*
X152276941Y-61732729D01*
X152181116Y-61488573D01*
X152181117Y-61488573D01*
X152049972Y-61261426D01*
X152002124Y-61201427D01*
X151277577Y-61925973D01*
X151264641Y-61894742D01*
X151182563Y-61771903D01*
X151078097Y-61667437D01*
X150955258Y-61585359D01*
X150924025Y-61572421D01*
X151649168Y-60847278D01*
X151477454Y-60730206D01*
X151477445Y-60730201D01*
X151241142Y-60616404D01*
X151241144Y-60616404D01*
X150990505Y-60539092D01*
X150990499Y-60539090D01*
X150731151Y-60500000D01*
X150468848Y-60500000D01*
X150209500Y-60539090D01*
X150209494Y-60539092D01*
X149958858Y-60616404D01*
X149958854Y-60616405D01*
X149722547Y-60730205D01*
X149722539Y-60730210D01*
X149550830Y-60847277D01*
X150275974Y-61572421D01*
X150244742Y-61585359D01*
X150121903Y-61667437D01*
X150017437Y-61771903D01*
X149935359Y-61894742D01*
X149922422Y-61925974D01*
X149197875Y-61201427D01*
X149197874Y-61201427D01*
X149150028Y-61261425D01*
X149018883Y-61488573D01*
X148923058Y-61732729D01*
X148864693Y-61988449D01*
X148864692Y-61988454D01*
X148845093Y-62249995D01*
X148845093Y-62250004D01*
X145001629Y-62250004D01*
X144886805Y-62106019D01*
X144886804Y-62106018D01*
X144886801Y-62106014D01*
X144694479Y-61927567D01*
X144648834Y-61896447D01*
X144477704Y-61779772D01*
X144477700Y-61779770D01*
X144477697Y-61779768D01*
X144477696Y-61779767D01*
X144241325Y-61665938D01*
X144241327Y-61665938D01*
X143990623Y-61588606D01*
X143990619Y-61588605D01*
X143990615Y-61588604D01*
X143865823Y-61569794D01*
X143731187Y-61549500D01*
X143731182Y-61549500D01*
X143468818Y-61549500D01*
X143468812Y-61549500D01*
X143316226Y-61572500D01*
X143209385Y-61588604D01*
X143209382Y-61588605D01*
X143209376Y-61588606D01*
X142958673Y-61665938D01*
X142722303Y-61779767D01*
X142722302Y-61779768D01*
X142505520Y-61927567D01*
X142313198Y-62106014D01*
X142149614Y-62311143D01*
X142018432Y-62538356D01*
X141922582Y-62782578D01*
X141922576Y-62782597D01*
X141864197Y-63038374D01*
X141864196Y-63038379D01*
X141844592Y-63299995D01*
X141844592Y-63300004D01*
X121295852Y-63300004D01*
X120276596Y-62280749D01*
X120259283Y-62259040D01*
X120240477Y-62229110D01*
X120120890Y-62109523D01*
X120120884Y-62109518D01*
X119977697Y-62019547D01*
X119977694Y-62019545D01*
X119818056Y-61963685D01*
X119650003Y-61944751D01*
X119649997Y-61944751D01*
X119481943Y-61963685D01*
X119322307Y-62019545D01*
X119193280Y-62100618D01*
X119126043Y-62119618D01*
X119059208Y-62099250D01*
X119039627Y-62083305D01*
X116618820Y-59662498D01*
X116610968Y-59657252D01*
X116603167Y-59652040D01*
X116603164Y-59652036D01*
X116603164Y-59652038D01*
X116516052Y-59593831D01*
X116516040Y-59593824D01*
X116482599Y-59579973D01*
X116401849Y-59546525D01*
X116401841Y-59546523D01*
X116280621Y-59522411D01*
X116280617Y-59522411D01*
X115107557Y-59522411D01*
X115040518Y-59502726D01*
X114994763Y-59449922D01*
X114984268Y-59385153D01*
X114985064Y-59377747D01*
X114985065Y-59377735D01*
X114985065Y-59129908D01*
X112485065Y-59129908D01*
X112485065Y-59377752D01*
X112491467Y-59437285D01*
X112491467Y-59437286D01*
X112503990Y-59470862D01*
X112508974Y-59540554D01*
X112503991Y-59557527D01*
X112490973Y-59592430D01*
X112484566Y-59652027D01*
X112484565Y-59652038D01*
X112484565Y-60647781D01*
X112484566Y-60647787D01*
X112490973Y-60707394D01*
X112503724Y-60741581D01*
X112508707Y-60811273D01*
X112503724Y-60828243D01*
X112490973Y-60862430D01*
X112484566Y-60922029D01*
X112484565Y-60922048D01*
X112484565Y-61911894D01*
X112464880Y-61978933D01*
X112426537Y-62016888D01*
X112279109Y-62109523D01*
X112159523Y-62229109D01*
X112159518Y-62229115D01*
X112069547Y-62372302D01*
X112069545Y-62372305D01*
X112013685Y-62531943D01*
X111994751Y-62699997D01*
X111994751Y-62700002D01*
X112013685Y-62868056D01*
X112069545Y-63027694D01*
X112069547Y-63027697D01*
X112159518Y-63170884D01*
X112159523Y-63170890D01*
X112225952Y-63237319D01*
X112259437Y-63298642D01*
X112254453Y-63368334D01*
X112225952Y-63412681D01*
X112159523Y-63479109D01*
X112159518Y-63479115D01*
X112069547Y-63622302D01*
X112069545Y-63622305D01*
X112013685Y-63781943D01*
X111994751Y-63949997D01*
X111994751Y-63950002D01*
X112013685Y-64118056D01*
X112069545Y-64277694D01*
X112069547Y-64277697D01*
X112159518Y-64420884D01*
X112159523Y-64420890D01*
X112279110Y-64540477D01*
X112394171Y-64612775D01*
X112426537Y-64633112D01*
X112472828Y-64685447D01*
X112484565Y-64738106D01*
X112484565Y-65727791D01*
X112484566Y-65727797D01*
X112490973Y-65787404D01*
X112503724Y-65821591D01*
X112508707Y-65891283D01*
X112503724Y-65908253D01*
X112490973Y-65942440D01*
X112484566Y-66002039D01*
X112484566Y-66002046D01*
X112484565Y-66002058D01*
X112484565Y-66997793D01*
X112484566Y-66997799D01*
X112490973Y-67057406D01*
X112503724Y-67091591D01*
X112508708Y-67161283D01*
X112503724Y-67178256D01*
X112490974Y-67212440D01*
X112490973Y-67212442D01*
X112485871Y-67259906D01*
X112484566Y-67272049D01*
X112484565Y-67272061D01*
X112484565Y-68267796D01*
X112484566Y-68267802D01*
X112490973Y-68327409D01*
X112503724Y-68361594D01*
X112508708Y-68431286D01*
X112503724Y-68448259D01*
X112490974Y-68482443D01*
X112490973Y-68482445D01*
X112484672Y-68541059D01*
X112484566Y-68542052D01*
X112484565Y-68542064D01*
X112484565Y-69537799D01*
X112484566Y-69537805D01*
X112490973Y-69597412D01*
X112503724Y-69631599D01*
X112508707Y-69701291D01*
X112503724Y-69718261D01*
X112490973Y-69752448D01*
X112485108Y-69807007D01*
X112484566Y-69812054D01*
X112484565Y-69812066D01*
X112484565Y-70807801D01*
X112484566Y-70807807D01*
X112490973Y-70867414D01*
X112503724Y-70901599D01*
X112508708Y-70971291D01*
X112503724Y-70988264D01*
X112490974Y-71022448D01*
X112490973Y-71022450D01*
X112484566Y-71082050D01*
X112484566Y-71082057D01*
X112484565Y-71082069D01*
X112484565Y-72077804D01*
X112484566Y-72077810D01*
X112490973Y-72137417D01*
X112503724Y-72171604D01*
X112508707Y-72241296D01*
X112503724Y-72258266D01*
X112490973Y-72292453D01*
X112484840Y-72349501D01*
X112484566Y-72352059D01*
X112484565Y-72352071D01*
X112484565Y-73347806D01*
X112484566Y-73347812D01*
X112490973Y-73407419D01*
X112503724Y-73441604D01*
X112508708Y-73511296D01*
X112503724Y-73528269D01*
X112490974Y-73562453D01*
X112490973Y-73562455D01*
X112484566Y-73622055D01*
X112484566Y-73622062D01*
X112484565Y-73622074D01*
X112484565Y-74574785D01*
X112464880Y-74641824D01*
X112412076Y-74687579D01*
X112401520Y-74691826D01*
X112322313Y-74719542D01*
X112322302Y-74719547D01*
X112179115Y-74809518D01*
X112179109Y-74809523D01*
X112059523Y-74929109D01*
X112059518Y-74929115D01*
X111969547Y-75072302D01*
X111969544Y-75072307D01*
X111913685Y-75231946D01*
X111908354Y-75279263D01*
X111881287Y-75343676D01*
X111823692Y-75383231D01*
X111785134Y-75389378D01*
X111472145Y-75389378D01*
X111472138Y-75389379D01*
X111412531Y-75395786D01*
X111338165Y-75423523D01*
X111268473Y-75428507D01*
X111265056Y-75427503D01*
X111265047Y-75427543D01*
X111257495Y-75425758D01*
X111197895Y-75419351D01*
X111197893Y-75419350D01*
X111197885Y-75419350D01*
X111197876Y-75419350D01*
X110202141Y-75419350D01*
X110202135Y-75419351D01*
X110142528Y-75425758D01*
X110108342Y-75438509D01*
X110038650Y-75443492D01*
X110021680Y-75438509D01*
X109987491Y-75425758D01*
X109987493Y-75425758D01*
X109927893Y-75419351D01*
X109927891Y-75419350D01*
X109927883Y-75419350D01*
X109927874Y-75419350D01*
X108932139Y-75419350D01*
X108932133Y-75419351D01*
X108872528Y-75425758D01*
X108838339Y-75438510D01*
X108768648Y-75443493D01*
X108751675Y-75438509D01*
X108717489Y-75425758D01*
X108717490Y-75425758D01*
X108657890Y-75419351D01*
X108657888Y-75419350D01*
X108657880Y-75419350D01*
X108657871Y-75419350D01*
X107662136Y-75419350D01*
X107662130Y-75419351D01*
X107602523Y-75425758D01*
X107568337Y-75438509D01*
X107498645Y-75443492D01*
X107481675Y-75438509D01*
X107447486Y-75425758D01*
X107447488Y-75425758D01*
X107387888Y-75419351D01*
X107387886Y-75419350D01*
X107387878Y-75419350D01*
X107387869Y-75419350D01*
X106392134Y-75419350D01*
X106392128Y-75419351D01*
X106332523Y-75425758D01*
X106298334Y-75438510D01*
X106228643Y-75443493D01*
X106211670Y-75438509D01*
X106177484Y-75425758D01*
X106177485Y-75425758D01*
X106117885Y-75419351D01*
X106117883Y-75419350D01*
X106117875Y-75419350D01*
X106117867Y-75419350D01*
X105204882Y-75419350D01*
X105137843Y-75399665D01*
X105092088Y-75346861D01*
X105087840Y-75336305D01*
X105030454Y-75172305D01*
X105030452Y-75172302D01*
X104940481Y-75029115D01*
X104940476Y-75029109D01*
X104820890Y-74909523D01*
X104820884Y-74909518D01*
X104677697Y-74819547D01*
X104677694Y-74819545D01*
X104518056Y-74763685D01*
X104350003Y-74744751D01*
X104349997Y-74744751D01*
X104181943Y-74763685D01*
X104022305Y-74819545D01*
X104022302Y-74819547D01*
X103879115Y-74909518D01*
X103879109Y-74909523D01*
X103787681Y-75000952D01*
X103726358Y-75034437D01*
X103656666Y-75029453D01*
X103612319Y-75000952D01*
X103520890Y-74909523D01*
X103520884Y-74909518D01*
X103377697Y-74819547D01*
X103377694Y-74819545D01*
X103218056Y-74763685D01*
X103050003Y-74744751D01*
X103049997Y-74744751D01*
X102881943Y-74763685D01*
X102722305Y-74819545D01*
X102722302Y-74819547D01*
X102579115Y-74909518D01*
X102579109Y-74909523D01*
X102459523Y-75029109D01*
X102459518Y-75029115D01*
X102369547Y-75172302D01*
X102369545Y-75172305D01*
X102312160Y-75336305D01*
X102271438Y-75393081D01*
X102206485Y-75418828D01*
X102195118Y-75419350D01*
X101312124Y-75419350D01*
X101312118Y-75419351D01*
X101252513Y-75425758D01*
X101218324Y-75438510D01*
X101148633Y-75443493D01*
X101131660Y-75438509D01*
X101097474Y-75425758D01*
X101097475Y-75425758D01*
X101037875Y-75419351D01*
X101037873Y-75419350D01*
X101037865Y-75419350D01*
X101037856Y-75419350D01*
X100042121Y-75419350D01*
X100042115Y-75419351D01*
X99982508Y-75425758D01*
X99948322Y-75438509D01*
X99878630Y-75443492D01*
X99861660Y-75438509D01*
X99827471Y-75425758D01*
X99827473Y-75425758D01*
X99767873Y-75419351D01*
X99767871Y-75419350D01*
X99767863Y-75419350D01*
X99767854Y-75419350D01*
X98772119Y-75419350D01*
X98772113Y-75419351D01*
X98712508Y-75425758D01*
X98678319Y-75438510D01*
X98608628Y-75443493D01*
X98591655Y-75438509D01*
X98557469Y-75425758D01*
X98557470Y-75425758D01*
X98497870Y-75419351D01*
X98497868Y-75419350D01*
X98497860Y-75419350D01*
X98497852Y-75419350D01*
X97609436Y-75419350D01*
X97542397Y-75399665D01*
X97496642Y-75346861D01*
X97485436Y-75295350D01*
X97485436Y-74892070D01*
X97485435Y-74892064D01*
X97484732Y-74885528D01*
X97479028Y-74832458D01*
X97479027Y-74832456D01*
X97466278Y-74798275D01*
X97461292Y-74728583D01*
X97466275Y-74711612D01*
X97479028Y-74677422D01*
X97485437Y-74617812D01*
X97485436Y-73647931D01*
X97505120Y-73580893D01*
X97557924Y-73535138D01*
X97568482Y-73530890D01*
X97575964Y-73528272D01*
X97712615Y-73480456D01*
X97712618Y-73480453D01*
X97712622Y-73480452D01*
X97855809Y-73390481D01*
X97855810Y-73390480D01*
X97855815Y-73390477D01*
X97975402Y-73270890D01*
X98065377Y-73127697D01*
X98065379Y-73127694D01*
X98065379Y-73127692D01*
X98065381Y-73127690D01*
X98121238Y-72968059D01*
X98121238Y-72968058D01*
X98121239Y-72968056D01*
X98140174Y-72800002D01*
X98140174Y-72799997D01*
X98121239Y-72631943D01*
X98065379Y-72472305D01*
X98065377Y-72472302D01*
X97975406Y-72329115D01*
X97975401Y-72329109D01*
X97855815Y-72209523D01*
X97855809Y-72209518D01*
X97712622Y-72119547D01*
X97712611Y-72119542D01*
X97568481Y-72069108D01*
X97511705Y-72028386D01*
X97485958Y-71963434D01*
X97485436Y-71952067D01*
X97485436Y-71082063D01*
X97485435Y-71082057D01*
X97485434Y-71082050D01*
X97479028Y-71022451D01*
X97466277Y-70988266D01*
X97461293Y-70918575D01*
X97466273Y-70901609D01*
X97479028Y-70867414D01*
X97485437Y-70807804D01*
X97485436Y-69847931D01*
X97505120Y-69780893D01*
X97557924Y-69735138D01*
X97568482Y-69730890D01*
X97712615Y-69680456D01*
X97712618Y-69680453D01*
X97712622Y-69680452D01*
X97855809Y-69590481D01*
X97855810Y-69590480D01*
X97855815Y-69590477D01*
X97975402Y-69470890D01*
X98004665Y-69424319D01*
X98065377Y-69327697D01*
X98065379Y-69327694D01*
X98065379Y-69327692D01*
X98065381Y-69327690D01*
X98121238Y-69168059D01*
X98121238Y-69168058D01*
X98121239Y-69168056D01*
X98140174Y-69000002D01*
X98140174Y-68999997D01*
X98121239Y-68831943D01*
X98088900Y-68739524D01*
X98065381Y-68672310D01*
X98065380Y-68672309D01*
X98065379Y-68672305D01*
X98065377Y-68672302D01*
X97975406Y-68529115D01*
X97975401Y-68529109D01*
X97855815Y-68409523D01*
X97855812Y-68409521D01*
X97819032Y-68386410D01*
X97772741Y-68334075D01*
X97762094Y-68265021D01*
X97768748Y-68250050D01*
X101134823Y-68250050D01*
X101134823Y-68497894D01*
X101141224Y-68557422D01*
X101141226Y-68557429D01*
X101191468Y-68692136D01*
X101191472Y-68692143D01*
X101277632Y-68807237D01*
X101277635Y-68807240D01*
X101392729Y-68893400D01*
X101392736Y-68893404D01*
X101527443Y-68943646D01*
X101527450Y-68943648D01*
X101586978Y-68950049D01*
X101586995Y-68950050D01*
X101834823Y-68950050D01*
X101834823Y-68250050D01*
X102334823Y-68250050D01*
X102334823Y-68950050D01*
X102582651Y-68950050D01*
X102582667Y-68950049D01*
X102642195Y-68943648D01*
X102642202Y-68943646D01*
X102741516Y-68906605D01*
X102811207Y-68901621D01*
X102828183Y-68906605D01*
X102927497Y-68943647D01*
X102927501Y-68943648D01*
X102987029Y-68950049D01*
X102987046Y-68950050D01*
X103234874Y-68950050D01*
X103234874Y-68250050D01*
X103734874Y-68250050D01*
X103734874Y-68950050D01*
X103982702Y-68950050D01*
X103982718Y-68950049D01*
X104042246Y-68943648D01*
X104042253Y-68943646D01*
X104141567Y-68906605D01*
X104211258Y-68901621D01*
X104228234Y-68906605D01*
X104327548Y-68943647D01*
X104327552Y-68943648D01*
X104387080Y-68950049D01*
X104387097Y-68950050D01*
X104634925Y-68950050D01*
X104634925Y-68250050D01*
X105134925Y-68250050D01*
X105134925Y-68950050D01*
X105382753Y-68950050D01*
X105382769Y-68950049D01*
X105442297Y-68943648D01*
X105442304Y-68943646D01*
X105577011Y-68893404D01*
X105577018Y-68893400D01*
X105692112Y-68807240D01*
X105692115Y-68807237D01*
X105778275Y-68692143D01*
X105778279Y-68692136D01*
X105828521Y-68557429D01*
X105828523Y-68557422D01*
X105834924Y-68497894D01*
X105834925Y-68497877D01*
X105834925Y-68250050D01*
X105134925Y-68250050D01*
X104634925Y-68250050D01*
X103734874Y-68250050D01*
X103234874Y-68250050D01*
X102334823Y-68250050D01*
X101834823Y-68250050D01*
X101134823Y-68250050D01*
X97768748Y-68250050D01*
X97790470Y-68201173D01*
X97819033Y-68176423D01*
X97838664Y-68164088D01*
X97955815Y-68090477D01*
X98075402Y-67970890D01*
X98077188Y-67968048D01*
X98165377Y-67827697D01*
X98165379Y-67827694D01*
X98165379Y-67827692D01*
X98165381Y-67827690D01*
X98221238Y-67668059D01*
X98221238Y-67668058D01*
X98221239Y-67668056D01*
X98240174Y-67500002D01*
X98240174Y-67499997D01*
X98221239Y-67331943D01*
X98176540Y-67204202D01*
X98165381Y-67172310D01*
X98165380Y-67172309D01*
X98165379Y-67172305D01*
X98165377Y-67172302D01*
X98075406Y-67029115D01*
X98075401Y-67029109D01*
X97955815Y-66909523D01*
X97955809Y-66909518D01*
X97861087Y-66850000D01*
X101134823Y-66850000D01*
X101134823Y-67097844D01*
X101141224Y-67157372D01*
X101141226Y-67157380D01*
X101178267Y-67256692D01*
X101183251Y-67326384D01*
X101178267Y-67343358D01*
X101141226Y-67442669D01*
X101141224Y-67442677D01*
X101134823Y-67502205D01*
X101134823Y-67750050D01*
X101834823Y-67750050D01*
X101834823Y-66850000D01*
X102334823Y-66850000D01*
X102334823Y-67750050D01*
X103234874Y-67750050D01*
X103234874Y-66850000D01*
X103734874Y-66850000D01*
X103734874Y-67750050D01*
X104634925Y-67750050D01*
X104634925Y-66850000D01*
X105134925Y-66850000D01*
X105134925Y-67750050D01*
X105834925Y-67750050D01*
X105834925Y-67502222D01*
X105834924Y-67502205D01*
X105828523Y-67442677D01*
X105828521Y-67442669D01*
X105791480Y-67343360D01*
X105786495Y-67273668D01*
X105791480Y-67256690D01*
X105828521Y-67157380D01*
X105828523Y-67157372D01*
X105834924Y-67097844D01*
X105834925Y-67097827D01*
X105834925Y-66850000D01*
X105134925Y-66850000D01*
X104634925Y-66850000D01*
X103734874Y-66850000D01*
X103234874Y-66850000D01*
X102334823Y-66850000D01*
X101834823Y-66850000D01*
X101134823Y-66850000D01*
X97861087Y-66850000D01*
X97812622Y-66819547D01*
X97812617Y-66819544D01*
X97652978Y-66763685D01*
X97595552Y-66757215D01*
X97531138Y-66730148D01*
X97491583Y-66672553D01*
X97485436Y-66633995D01*
X97485436Y-66047932D01*
X97505121Y-65980893D01*
X97557925Y-65935138D01*
X97568482Y-65930890D01*
X97581511Y-65926331D01*
X97712615Y-65880456D01*
X97712618Y-65880453D01*
X97712622Y-65880452D01*
X97855809Y-65790481D01*
X97855810Y-65790480D01*
X97855815Y-65790477D01*
X97975402Y-65670890D01*
X97978683Y-65665668D01*
X98065377Y-65527697D01*
X98065379Y-65527694D01*
X98065379Y-65527692D01*
X98065381Y-65527690D01*
X98092584Y-65449949D01*
X101134823Y-65449949D01*
X101134823Y-65697793D01*
X101141224Y-65757321D01*
X101141226Y-65757328D01*
X101178267Y-65856640D01*
X101183251Y-65926331D01*
X101178267Y-65943305D01*
X101141226Y-66042616D01*
X101141224Y-66042627D01*
X101134823Y-66102155D01*
X101134823Y-66350000D01*
X101834823Y-66350000D01*
X101834823Y-65449949D01*
X102334823Y-65449949D01*
X102334823Y-66350000D01*
X103234874Y-66350000D01*
X103234874Y-65449949D01*
X103734874Y-65449949D01*
X103734874Y-66350000D01*
X104634925Y-66350000D01*
X104634925Y-65449949D01*
X105134925Y-65449949D01*
X105134925Y-66350000D01*
X105834925Y-66350000D01*
X105834925Y-66102172D01*
X105834924Y-66102155D01*
X105828523Y-66042627D01*
X105828522Y-66042623D01*
X105791480Y-65943309D01*
X105786496Y-65873617D01*
X105791480Y-65856642D01*
X105828521Y-65757328D01*
X105828523Y-65757321D01*
X105834924Y-65697793D01*
X105834925Y-65697776D01*
X105834925Y-65449949D01*
X105134925Y-65449949D01*
X104634925Y-65449949D01*
X103734874Y-65449949D01*
X103234874Y-65449949D01*
X102334823Y-65449949D01*
X101834823Y-65449949D01*
X101134823Y-65449949D01*
X98092584Y-65449949D01*
X98121238Y-65368059D01*
X98121238Y-65368058D01*
X98121239Y-65368056D01*
X98140174Y-65200002D01*
X98140174Y-65199997D01*
X98121239Y-65031943D01*
X98092548Y-64949949D01*
X101134823Y-64949949D01*
X101834823Y-64949949D01*
X101834823Y-64249949D01*
X102334823Y-64249949D01*
X102334823Y-64949949D01*
X103234874Y-64949949D01*
X103234874Y-64249949D01*
X103734874Y-64249949D01*
X103734874Y-64949949D01*
X104634925Y-64949949D01*
X104634925Y-64249949D01*
X105134925Y-64249949D01*
X105134925Y-64949949D01*
X105834925Y-64949949D01*
X105834925Y-64702121D01*
X105834924Y-64702104D01*
X105828523Y-64642576D01*
X105828521Y-64642569D01*
X105778279Y-64507862D01*
X105778275Y-64507855D01*
X105692115Y-64392761D01*
X105692112Y-64392758D01*
X105577018Y-64306598D01*
X105577011Y-64306594D01*
X105442304Y-64256352D01*
X105442297Y-64256350D01*
X105382769Y-64249949D01*
X105134925Y-64249949D01*
X104634925Y-64249949D01*
X104387080Y-64249949D01*
X104327552Y-64256350D01*
X104327541Y-64256352D01*
X104228230Y-64293393D01*
X104158538Y-64298377D01*
X104141565Y-64293393D01*
X104042253Y-64256352D01*
X104042246Y-64256350D01*
X103982718Y-64249949D01*
X103734874Y-64249949D01*
X103234874Y-64249949D01*
X102987029Y-64249949D01*
X102927501Y-64256350D01*
X102927490Y-64256352D01*
X102828179Y-64293393D01*
X102758487Y-64298377D01*
X102741514Y-64293393D01*
X102642202Y-64256352D01*
X102642195Y-64256350D01*
X102582667Y-64249949D01*
X102334823Y-64249949D01*
X101834823Y-64249949D01*
X101586978Y-64249949D01*
X101527450Y-64256350D01*
X101527443Y-64256352D01*
X101392736Y-64306594D01*
X101392729Y-64306598D01*
X101277635Y-64392758D01*
X101277632Y-64392761D01*
X101191472Y-64507855D01*
X101191468Y-64507862D01*
X101141226Y-64642569D01*
X101141224Y-64642576D01*
X101134823Y-64702104D01*
X101134823Y-64949949D01*
X98092548Y-64949949D01*
X98073680Y-64896028D01*
X98065381Y-64872310D01*
X98065380Y-64872309D01*
X98065379Y-64872305D01*
X98065377Y-64872302D01*
X97975406Y-64729115D01*
X97975401Y-64729109D01*
X97933973Y-64687681D01*
X97900488Y-64626358D01*
X97905472Y-64556666D01*
X97933973Y-64512319D01*
X97952311Y-64493981D01*
X97975402Y-64470890D01*
X97975406Y-64470884D01*
X98065377Y-64327697D01*
X98065379Y-64327694D01*
X98065379Y-64327692D01*
X98065381Y-64327690D01*
X98121238Y-64168059D01*
X98121238Y-64168058D01*
X98121239Y-64168056D01*
X98140174Y-64000000D01*
X98140174Y-63999997D01*
X98121239Y-63831943D01*
X98085461Y-63729696D01*
X98065381Y-63672310D01*
X98065380Y-63672309D01*
X98065379Y-63672305D01*
X98065377Y-63672302D01*
X97975406Y-63529115D01*
X97975401Y-63529109D01*
X97883973Y-63437681D01*
X97850488Y-63376358D01*
X97855472Y-63306666D01*
X97883973Y-63262319D01*
X97914991Y-63231301D01*
X97975402Y-63170890D01*
X97981311Y-63161486D01*
X98065377Y-63027697D01*
X98065379Y-63027694D01*
X98065379Y-63027692D01*
X98065381Y-63027690D01*
X98121238Y-62868059D01*
X98121238Y-62868058D01*
X98121239Y-62868056D01*
X98140174Y-62700002D01*
X98140174Y-62699997D01*
X98121239Y-62531943D01*
X98065379Y-62372305D01*
X98065377Y-62372302D01*
X97975406Y-62229115D01*
X97975401Y-62229109D01*
X97855815Y-62109523D01*
X97855809Y-62109518D01*
X97712622Y-62019547D01*
X97712611Y-62019542D01*
X97632338Y-61991453D01*
X97575562Y-61950732D01*
X97549815Y-61885779D01*
X97563271Y-61817217D01*
X97585606Y-61786737D01*
X97719621Y-61652721D01*
X97741319Y-61635418D01*
X97855815Y-61563477D01*
X97975402Y-61443890D01*
X97978148Y-61439520D01*
X98065377Y-61300697D01*
X98065379Y-61300694D01*
X98065379Y-61300692D01*
X98065381Y-61300690D01*
X98121238Y-61141059D01*
X98121238Y-61141058D01*
X98121239Y-61141056D01*
X98140174Y-60973002D01*
X98140174Y-60972997D01*
X98121239Y-60804943D01*
X98080245Y-60687789D01*
X98065381Y-60645310D01*
X98065380Y-60645309D01*
X98065379Y-60645305D01*
X98065377Y-60645302D01*
X97975406Y-60502115D01*
X97975401Y-60502109D01*
X97855815Y-60382523D01*
X97855809Y-60382518D01*
X97712622Y-60292547D01*
X97712611Y-60292542D01*
X97568481Y-60242108D01*
X97511705Y-60201386D01*
X97485958Y-60136434D01*
X97485436Y-60125067D01*
X97485436Y-59652038D01*
X97485435Y-59652034D01*
X97485434Y-59652027D01*
X97479179Y-59593831D01*
X97479028Y-59592427D01*
X97466011Y-59557528D01*
X97461026Y-59487836D01*
X97466012Y-59470855D01*
X97478535Y-59437282D01*
X97484936Y-59377752D01*
X97484937Y-59377735D01*
X97484937Y-59129908D01*
X94984937Y-59129908D01*
X94984937Y-59133447D01*
X94965252Y-59200486D01*
X94912448Y-59246241D01*
X94843290Y-59256185D01*
X94779734Y-59227160D01*
X94773256Y-59221128D01*
X94586189Y-59034060D01*
X94586188Y-59034059D01*
X94544993Y-59006534D01*
X94462609Y-58951487D01*
X94462606Y-58951485D01*
X94462605Y-58951485D01*
X94382175Y-58918170D01*
X94325300Y-58894612D01*
X94301114Y-58889801D01*
X94179534Y-58865616D01*
X94179532Y-58865616D01*
X94030908Y-58865616D01*
X94024794Y-58865616D01*
X94024774Y-58865617D01*
X93610608Y-58865617D01*
X93602476Y-58867235D01*
X93578291Y-58869617D01*
X93367052Y-58869617D01*
X93367045Y-58869618D01*
X93307438Y-58876025D01*
X93172593Y-58926319D01*
X93172586Y-58926323D01*
X93057377Y-59012569D01*
X93057374Y-59012572D01*
X92971128Y-59127781D01*
X92971123Y-59127790D01*
X92955630Y-59169332D01*
X92913760Y-59225266D01*
X92848296Y-59249684D01*
X92839448Y-59250000D01*
X92058925Y-59250000D01*
X91991886Y-59230315D01*
X91946131Y-59177511D01*
X91934925Y-59126000D01*
X91934925Y-58050000D01*
X91737080Y-58050000D01*
X91677552Y-58056401D01*
X91677545Y-58056403D01*
X91534526Y-58109746D01*
X91533852Y-58107940D01*
X91476563Y-58120395D01*
X91435839Y-58108434D01*
X91435516Y-58109303D01*
X91292357Y-58055908D01*
X91292358Y-58055908D01*
X91232758Y-58049501D01*
X91232756Y-58049500D01*
X91232748Y-58049500D01*
X91232739Y-58049500D01*
X90337004Y-58049500D01*
X90336998Y-58049501D01*
X90277391Y-58055908D01*
X90142546Y-58106202D01*
X90142539Y-58106206D01*
X90027330Y-58192452D01*
X90027327Y-58192455D01*
X89941081Y-58307664D01*
X89941077Y-58307671D01*
X89890783Y-58442517D01*
X89884376Y-58502116D01*
X89884375Y-58502135D01*
X89884375Y-59497870D01*
X89884376Y-59497876D01*
X89890783Y-59557483D01*
X89941077Y-59692328D01*
X89941078Y-59692330D01*
X89982780Y-59748036D01*
X90007197Y-59813500D01*
X89992346Y-59881773D01*
X89971207Y-59910015D01*
X89970783Y-59910438D01*
X89927682Y-59968013D01*
X89871747Y-60009883D01*
X89802055Y-60014866D01*
X89787462Y-60010742D01*
X89652982Y-59963686D01*
X89484928Y-59944751D01*
X89484922Y-59944751D01*
X89316868Y-59963685D01*
X89157230Y-60019545D01*
X89157227Y-60019547D01*
X89014040Y-60109518D01*
X89014034Y-60109523D01*
X88894448Y-60229109D01*
X88894443Y-60229115D01*
X88804472Y-60372302D01*
X88804470Y-60372305D01*
X88748610Y-60531943D01*
X88729676Y-60699997D01*
X88729676Y-60700002D01*
X88748610Y-60868056D01*
X88804470Y-61027692D01*
X88839868Y-61084029D01*
X88858868Y-61151266D01*
X88839868Y-61215971D01*
X88804470Y-61272307D01*
X88748610Y-61431943D01*
X88729676Y-61599997D01*
X88729676Y-61599998D01*
X88732464Y-61624747D01*
X88720407Y-61693569D01*
X88673057Y-61744947D01*
X88605447Y-61762570D01*
X88565910Y-61754810D01*
X88462308Y-61716169D01*
X88462300Y-61716167D01*
X88402772Y-61709766D01*
X88334925Y-61709766D01*
X88334925Y-62425500D01*
X88315240Y-62492539D01*
X88262436Y-62538294D01*
X88210925Y-62549500D01*
X87958925Y-62549500D01*
X87891886Y-62529815D01*
X87846131Y-62477011D01*
X87834925Y-62425500D01*
X87834925Y-61878411D01*
X87835705Y-61864526D01*
X87840174Y-61824866D01*
X87840174Y-61824862D01*
X87835705Y-61785201D01*
X87834925Y-61771317D01*
X87834925Y-61691491D01*
X87823421Y-61670424D01*
X87821366Y-61657942D01*
X87821238Y-61656806D01*
X87808200Y-61619545D01*
X87765381Y-61497175D01*
X87765380Y-61497173D01*
X87765377Y-61497167D01*
X87675406Y-61353980D01*
X87675401Y-61353974D01*
X87555815Y-61234388D01*
X87555809Y-61234383D01*
X87412622Y-61144412D01*
X87412619Y-61144410D01*
X87252981Y-61088550D01*
X87084928Y-61069616D01*
X87084922Y-61069616D01*
X86916868Y-61088550D01*
X86757232Y-61144410D01*
X86703204Y-61178359D01*
X86637232Y-61197365D01*
X86363582Y-61197365D01*
X86331315Y-61191543D01*
X86331077Y-61192553D01*
X86323533Y-61190770D01*
X86323525Y-61190769D01*
X86263915Y-61184360D01*
X86263905Y-61184360D01*
X85743177Y-61184360D01*
X85743171Y-61184361D01*
X85683564Y-61190768D01*
X85548719Y-61241062D01*
X85548712Y-61241066D01*
X85433503Y-61327312D01*
X85349058Y-61440115D01*
X85337474Y-61453483D01*
X85316029Y-61474928D01*
X85316029Y-61503870D01*
X85308211Y-61547203D01*
X85302064Y-61563685D01*
X85296957Y-61577377D01*
X85290548Y-61636987D01*
X85290548Y-61636994D01*
X85290548Y-61636995D01*
X85290548Y-62012739D01*
X85290549Y-62012746D01*
X85295809Y-62061675D01*
X85295809Y-62088181D01*
X85290549Y-62137111D01*
X85290548Y-62137118D01*
X85290548Y-62512867D01*
X85290549Y-62512874D01*
X85296956Y-62572479D01*
X85296957Y-62572481D01*
X85308211Y-62602656D01*
X85316029Y-62645987D01*
X85316029Y-62700929D01*
X85296344Y-62767968D01*
X85243540Y-62813723D01*
X85192029Y-62824929D01*
X84965509Y-62824929D01*
X84898470Y-62805244D01*
X84852715Y-62752440D01*
X84841509Y-62700929D01*
X84841509Y-62636989D01*
X84841509Y-62636988D01*
X84836262Y-62588177D01*
X84836263Y-62561674D01*
X84837572Y-62549500D01*
X84841510Y-62512871D01*
X84841509Y-62137116D01*
X84835770Y-62083732D01*
X84835101Y-62077504D01*
X84823847Y-62047331D01*
X84816029Y-62003998D01*
X84816029Y-61474929D01*
X84792101Y-61451001D01*
X84780516Y-61437631D01*
X84698200Y-61327672D01*
X84698197Y-61327669D01*
X84583103Y-61241509D01*
X84583096Y-61241505D01*
X84448389Y-61191263D01*
X84448382Y-61191261D01*
X84388854Y-61184860D01*
X84268518Y-61184860D01*
X84268518Y-61560488D01*
X84248833Y-61627527D01*
X84196029Y-61673282D01*
X84144518Y-61684488D01*
X84112508Y-61684488D01*
X84045469Y-61664803D01*
X83999714Y-61611999D01*
X83988508Y-61560488D01*
X83988508Y-61184860D01*
X83868171Y-61184860D01*
X83808643Y-61191261D01*
X83808636Y-61191263D01*
X83673929Y-61241505D01*
X83673922Y-61241509D01*
X83558828Y-61327669D01*
X83558825Y-61327672D01*
X83472665Y-61442766D01*
X83472661Y-61442773D01*
X83422419Y-61577480D01*
X83421423Y-61586747D01*
X83394685Y-61651299D01*
X83337293Y-61691147D01*
X83298133Y-61697493D01*
X82972393Y-61697493D01*
X82906420Y-61678486D01*
X82812617Y-61619545D01*
X82812619Y-61619545D01*
X82652981Y-61563685D01*
X82484928Y-61544751D01*
X82484920Y-61544751D01*
X82440246Y-61549784D01*
X82371424Y-61537729D01*
X82320046Y-61490379D01*
X82310181Y-61469895D01*
X82298370Y-61438226D01*
X82298367Y-61438221D01*
X82212207Y-61323127D01*
X82212204Y-61323124D01*
X82097110Y-61236964D01*
X82097103Y-61236960D01*
X81962396Y-61186718D01*
X81962389Y-61186716D01*
X81902861Y-61180315D01*
X81855017Y-61180315D01*
X81855017Y-61708750D01*
X81835332Y-61775789D01*
X81782528Y-61821544D01*
X81713370Y-61831488D01*
X81649814Y-61802463D01*
X81616456Y-61756203D01*
X81569646Y-61643195D01*
X81562676Y-61632764D01*
X81499516Y-61538237D01*
X81486443Y-61512693D01*
X81458579Y-61437984D01*
X81379750Y-61332682D01*
X81355333Y-61267218D01*
X81355017Y-61258371D01*
X81355017Y-61180315D01*
X81307172Y-61180315D01*
X81247644Y-61186716D01*
X81247633Y-61186718D01*
X81228946Y-61193689D01*
X81159255Y-61198673D01*
X81142281Y-61193689D01*
X81122269Y-61186225D01*
X81122268Y-61186224D01*
X81122266Y-61186224D01*
X81062656Y-61179815D01*
X81062646Y-61179815D01*
X80466912Y-61179815D01*
X80466906Y-61179816D01*
X80407299Y-61186223D01*
X80267765Y-61238267D01*
X80224432Y-61246085D01*
X80203229Y-61246085D01*
X80159896Y-61238267D01*
X80044808Y-61195342D01*
X80044809Y-61195342D01*
X79985209Y-61188935D01*
X79985207Y-61188934D01*
X79985199Y-61188934D01*
X79985190Y-61188934D01*
X78784553Y-61188934D01*
X78784547Y-61188935D01*
X78724940Y-61195342D01*
X78590095Y-61245636D01*
X78590088Y-61245640D01*
X78474879Y-61331886D01*
X78474876Y-61331889D01*
X78388630Y-61447098D01*
X78388626Y-61447105D01*
X78338334Y-61581947D01*
X78338333Y-61581951D01*
X78331924Y-61641561D01*
X78331924Y-61641568D01*
X78331924Y-61641569D01*
X78331924Y-62359606D01*
X78331925Y-62359612D01*
X78338332Y-62419219D01*
X78388626Y-62554064D01*
X78388630Y-62554071D01*
X78474876Y-62669280D01*
X78474879Y-62669283D01*
X78590088Y-62755529D01*
X78590095Y-62755533D01*
X78724941Y-62805827D01*
X78724940Y-62805827D01*
X78731868Y-62806571D01*
X78784551Y-62812236D01*
X79985198Y-62812235D01*
X80043260Y-62805993D01*
X80112018Y-62818399D01*
X80163155Y-62866010D01*
X80175171Y-62893279D01*
X80175509Y-62894394D01*
X80183092Y-62912698D01*
X80183094Y-62912703D01*
X80188968Y-62926884D01*
X80196437Y-62996353D01*
X80165162Y-63058833D01*
X80105073Y-63094485D01*
X80052590Y-63094954D01*
X80052522Y-63095587D01*
X80047092Y-63095003D01*
X80045895Y-63095014D01*
X80044811Y-63094758D01*
X79985209Y-63088350D01*
X79985207Y-63088349D01*
X79985199Y-63088349D01*
X79985190Y-63088349D01*
X78784553Y-63088349D01*
X78784547Y-63088350D01*
X78724940Y-63094757D01*
X78590095Y-63145051D01*
X78590088Y-63145055D01*
X78474879Y-63231301D01*
X78474876Y-63231304D01*
X78388630Y-63346513D01*
X78388626Y-63346520D01*
X78338334Y-63481362D01*
X78338333Y-63481366D01*
X78331924Y-63540976D01*
X78331924Y-63540983D01*
X78331924Y-63540984D01*
X78331924Y-63540985D01*
X78331925Y-64240562D01*
X78312241Y-64307601D01*
X78259437Y-64353356D01*
X78207925Y-64364562D01*
X77961876Y-64364562D01*
X77894837Y-64344877D01*
X77849082Y-64292073D01*
X77837876Y-64240562D01*
X77837875Y-63540978D01*
X77837874Y-63540972D01*
X77834853Y-63512870D01*
X77831467Y-63481366D01*
X77830627Y-63479115D01*
X77826299Y-63467509D01*
X77821315Y-63397817D01*
X77826301Y-63380839D01*
X77830973Y-63368312D01*
X77830974Y-63368308D01*
X77837375Y-63308780D01*
X77837376Y-63308763D01*
X77837376Y-63199785D01*
X77694090Y-63199785D01*
X77627051Y-63180100D01*
X77619793Y-63175061D01*
X77579707Y-63145053D01*
X77579704Y-63145051D01*
X77444858Y-63094757D01*
X77444859Y-63094757D01*
X77385259Y-63088350D01*
X77385257Y-63088349D01*
X77385249Y-63088349D01*
X77385240Y-63088349D01*
X76184603Y-63088349D01*
X76184597Y-63088350D01*
X76124990Y-63094757D01*
X76006751Y-63138858D01*
X75937059Y-63143842D01*
X75889106Y-63121942D01*
X75859260Y-63099599D01*
X75859257Y-63099597D01*
X75724411Y-63049303D01*
X75724412Y-63049303D01*
X75664812Y-63042896D01*
X75664810Y-63042895D01*
X75664802Y-63042895D01*
X75664794Y-63042895D01*
X75428925Y-63042895D01*
X75361886Y-63023210D01*
X75316131Y-62970406D01*
X75306187Y-62901248D01*
X75335212Y-62837692D01*
X75341244Y-62831214D01*
X75365523Y-62806935D01*
X75426846Y-62773450D01*
X75453204Y-62770616D01*
X75602799Y-62770616D01*
X75602800Y-62770616D01*
X75662411Y-62764208D01*
X75797259Y-62713913D01*
X75797261Y-62713911D01*
X75805568Y-62710813D01*
X75806089Y-62712211D01*
X75854781Y-62699785D01*
X75874403Y-62699785D01*
X75941442Y-62719470D01*
X75948714Y-62724519D01*
X75990138Y-62755529D01*
X75990145Y-62755533D01*
X76124991Y-62805827D01*
X76124990Y-62805827D01*
X76131918Y-62806571D01*
X76184601Y-62812236D01*
X77385248Y-62812235D01*
X77444859Y-62805827D01*
X77579707Y-62755532D01*
X77583837Y-62752440D01*
X77621136Y-62724519D01*
X77686600Y-62700101D01*
X77695447Y-62699785D01*
X77837376Y-62699785D01*
X77837376Y-62590806D01*
X77837375Y-62590789D01*
X77830973Y-62531256D01*
X77830973Y-62531255D01*
X77826489Y-62519232D01*
X77821503Y-62449541D01*
X77826483Y-62432581D01*
X77831467Y-62419219D01*
X77837876Y-62359609D01*
X77837875Y-61641562D01*
X77831467Y-61581951D01*
X77829799Y-61577480D01*
X77781173Y-61447105D01*
X77781169Y-61447098D01*
X77694923Y-61331889D01*
X77694920Y-61331886D01*
X77579711Y-61245640D01*
X77579704Y-61245636D01*
X77444858Y-61195342D01*
X77444859Y-61195342D01*
X77385259Y-61188935D01*
X77385257Y-61188934D01*
X77385249Y-61188934D01*
X77385240Y-61188934D01*
X76181281Y-61188935D01*
X76181281Y-61187884D01*
X76117517Y-61172785D01*
X76069025Y-61122483D01*
X76054928Y-61065060D01*
X76054928Y-60882055D01*
X76054927Y-60882038D01*
X76048526Y-60822510D01*
X76048524Y-60822503D01*
X75998282Y-60687796D01*
X75998278Y-60687789D01*
X75912118Y-60572695D01*
X75912115Y-60572692D01*
X75797021Y-60486532D01*
X75797014Y-60486528D01*
X75662307Y-60436286D01*
X75662300Y-60436284D01*
X75602772Y-60429883D01*
X75534925Y-60429883D01*
X75534925Y-61145617D01*
X75515240Y-61212656D01*
X75462436Y-61258411D01*
X75410925Y-61269617D01*
X74967051Y-61269617D01*
X74967045Y-61269618D01*
X74907438Y-61276025D01*
X74772593Y-61326319D01*
X74772586Y-61326323D01*
X74667290Y-61405149D01*
X74601826Y-61429567D01*
X74592979Y-61429883D01*
X74514922Y-61429883D01*
X74514922Y-61477727D01*
X74521323Y-61537255D01*
X74521324Y-61537259D01*
X74528296Y-61555951D01*
X74533280Y-61625643D01*
X74528296Y-61642617D01*
X74520831Y-61662631D01*
X74520830Y-61662633D01*
X74514423Y-61722233D01*
X74514422Y-61722252D01*
X74514422Y-61732831D01*
X74494737Y-61799870D01*
X74441933Y-61845625D01*
X74372775Y-61855569D01*
X74309219Y-61826544D01*
X74271445Y-61767766D01*
X74267132Y-61746084D01*
X74261058Y-61689581D01*
X74210764Y-61554736D01*
X74210760Y-61554729D01*
X74124514Y-61439520D01*
X74124511Y-61439517D01*
X74009302Y-61353271D01*
X74009295Y-61353267D01*
X73874449Y-61302973D01*
X73874450Y-61302973D01*
X73814850Y-61296566D01*
X73814848Y-61296565D01*
X73814840Y-61296565D01*
X73814831Y-61296565D01*
X72855088Y-61296565D01*
X72855082Y-61296566D01*
X72795475Y-61302973D01*
X72660630Y-61353267D01*
X72660623Y-61353271D01*
X72545415Y-61439517D01*
X72545414Y-61439518D01*
X72545413Y-61439519D01*
X72502252Y-61497175D01*
X72483061Y-61522811D01*
X72427127Y-61564682D01*
X72383794Y-61572500D01*
X71632709Y-61572500D01*
X71511484Y-61596613D01*
X71511474Y-61596616D01*
X71397287Y-61643913D01*
X71397274Y-61643920D01*
X71317100Y-61697492D01*
X71294506Y-61712588D01*
X71294500Y-61712593D01*
X70434616Y-62572479D01*
X70149992Y-62857103D01*
X70105847Y-62901248D01*
X70062589Y-62944506D01*
X69993915Y-63047284D01*
X69987853Y-63061916D01*
X69987854Y-63061917D01*
X69946615Y-63161476D01*
X69946612Y-63161486D01*
X69924568Y-63272308D01*
X69924569Y-63272309D01*
X69922500Y-63282711D01*
X69922500Y-68886706D01*
X69902815Y-68953745D01*
X69850011Y-68999500D01*
X69780853Y-69009444D01*
X69717297Y-68980419D01*
X69694185Y-68953745D01*
X69660624Y-68901523D01*
X69659808Y-68900090D01*
X69657011Y-68895901D01*
X69562792Y-68787169D01*
X69562789Y-68787166D01*
X69454135Y-68693018D01*
X69454132Y-68693015D01*
X69421901Y-68672302D01*
X69333094Y-68615230D01*
X69333087Y-68615227D01*
X69333081Y-68615223D01*
X69208356Y-68558263D01*
X69204057Y-68556014D01*
X69064261Y-68514966D01*
X69064251Y-68514963D01*
X68936300Y-68496567D01*
X68921941Y-68494503D01*
X68921940Y-68494503D01*
X68865601Y-68494503D01*
X68865591Y-68494500D01*
X68814236Y-68494500D01*
X68533281Y-68494500D01*
X68466242Y-68474815D01*
X68445600Y-68458181D01*
X68307101Y-68319682D01*
X68273616Y-68258359D01*
X68278600Y-68188667D01*
X68320472Y-68132734D01*
X68335355Y-68123169D01*
X68395227Y-68090476D01*
X68584315Y-67987226D01*
X68813395Y-67815739D01*
X69015739Y-67613395D01*
X69187226Y-67384315D01*
X69324367Y-67133161D01*
X69424369Y-66865046D01*
X69472856Y-66642156D01*
X69485195Y-66585433D01*
X69485195Y-66585432D01*
X69485196Y-66585428D01*
X69505610Y-66300000D01*
X69485196Y-66014572D01*
X69482472Y-66002052D01*
X69424371Y-65734962D01*
X69424370Y-65734960D01*
X69424369Y-65734954D01*
X69324367Y-65466839D01*
X69315144Y-65449949D01*
X69187229Y-65215690D01*
X69187224Y-65215682D01*
X69015745Y-64986612D01*
X69015729Y-64986594D01*
X68813405Y-64784270D01*
X68813387Y-64784254D01*
X68584317Y-64612775D01*
X68584309Y-64612770D01*
X68333166Y-64475635D01*
X68333167Y-64475635D01*
X68186390Y-64420890D01*
X68065046Y-64375631D01*
X68065043Y-64375630D01*
X68065037Y-64375628D01*
X67785433Y-64314804D01*
X67500001Y-64294390D01*
X67499999Y-64294390D01*
X67214566Y-64314804D01*
X66934962Y-64375628D01*
X66666833Y-64475635D01*
X66415690Y-64612770D01*
X66415682Y-64612775D01*
X66186612Y-64784254D01*
X66186594Y-64784270D01*
X65984270Y-64986594D01*
X65984254Y-64986612D01*
X65812775Y-65215682D01*
X65812770Y-65215690D01*
X65675635Y-65466833D01*
X65575628Y-65734962D01*
X65514804Y-66014566D01*
X65494390Y-66299998D01*
X65494390Y-66300001D01*
X65514804Y-66585433D01*
X65575628Y-66865037D01*
X65575630Y-66865043D01*
X65575631Y-66865046D01*
X65666460Y-67108567D01*
X65675635Y-67133166D01*
X65812770Y-67384309D01*
X65812775Y-67384317D01*
X65984254Y-67613387D01*
X65984270Y-67613405D01*
X66186594Y-67815729D01*
X66186612Y-67815745D01*
X66415682Y-67987224D01*
X66415690Y-67987229D01*
X66666833Y-68124364D01*
X66666836Y-68124366D01*
X66666839Y-68124367D01*
X66791835Y-68170987D01*
X66847766Y-68212857D01*
X66872184Y-68278321D01*
X66872500Y-68287168D01*
X66872500Y-68461807D01*
X66896612Y-68583027D01*
X66896614Y-68583035D01*
X66925306Y-68652303D01*
X66943917Y-68697234D01*
X66991621Y-68768629D01*
X66991622Y-68768629D01*
X67012588Y-68800008D01*
X67012591Y-68800011D01*
X67343208Y-69130627D01*
X67376693Y-69191950D01*
X67374505Y-69253240D01*
X67364977Y-69285691D01*
X67364974Y-69285703D01*
X67344500Y-69428110D01*
X67344500Y-70000002D01*
X67349644Y-70071940D01*
X67390182Y-70209994D01*
X67467967Y-70331030D01*
X67467971Y-70331034D01*
X67572600Y-70421696D01*
X67576706Y-70425254D01*
X67599838Y-70435818D01*
X67707580Y-70485023D01*
X67707583Y-70485023D01*
X67707584Y-70485024D01*
X67850000Y-70505500D01*
X67850003Y-70505500D01*
X68385764Y-70505500D01*
X68885763Y-70505500D01*
X69350000Y-70505500D01*
X69421940Y-70500355D01*
X69559992Y-70459819D01*
X69681032Y-70382031D01*
X69704789Y-70354613D01*
X69763564Y-70316841D01*
X69833434Y-70316841D01*
X69892212Y-70354615D01*
X69921238Y-70418170D01*
X69922500Y-70435818D01*
X69922500Y-71402306D01*
X69903494Y-71468278D01*
X69869545Y-71522307D01*
X69813685Y-71681944D01*
X69802482Y-71781383D01*
X69775416Y-71845797D01*
X69717821Y-71885353D01*
X69679262Y-71891500D01*
X63669097Y-71891500D01*
X63602058Y-71871815D01*
X63581416Y-71855181D01*
X63463819Y-71737584D01*
X63430334Y-71676261D01*
X63427500Y-71649903D01*
X63427500Y-70000005D01*
X63794859Y-70000005D01*
X63815385Y-70247729D01*
X63815387Y-70247738D01*
X63876412Y-70488717D01*
X63976266Y-70716364D01*
X64076564Y-70869882D01*
X64817037Y-70129409D01*
X64834075Y-70192993D01*
X64899901Y-70307007D01*
X64992993Y-70400099D01*
X65107007Y-70465925D01*
X65170590Y-70482962D01*
X64429942Y-71223609D01*
X64476768Y-71260055D01*
X64476770Y-71260056D01*
X64695385Y-71378364D01*
X64695396Y-71378369D01*
X64930506Y-71459083D01*
X65175707Y-71500000D01*
X65424293Y-71500000D01*
X65669493Y-71459083D01*
X65904603Y-71378369D01*
X65904614Y-71378364D01*
X66123228Y-71260057D01*
X66123231Y-71260055D01*
X66170056Y-71223609D01*
X65429409Y-70482962D01*
X65492993Y-70465925D01*
X65607007Y-70400099D01*
X65700099Y-70307007D01*
X65765925Y-70192993D01*
X65782962Y-70129409D01*
X66523434Y-70869882D01*
X66623731Y-70716369D01*
X66723587Y-70488717D01*
X66784612Y-70247738D01*
X66784614Y-70247729D01*
X66805141Y-70000005D01*
X66805141Y-69999994D01*
X66784614Y-69752270D01*
X66784612Y-69752261D01*
X66723587Y-69511282D01*
X66623731Y-69283630D01*
X66523434Y-69130116D01*
X65782962Y-69870589D01*
X65765925Y-69807007D01*
X65700099Y-69692993D01*
X65607007Y-69599901D01*
X65492993Y-69534075D01*
X65429410Y-69517037D01*
X66170057Y-68776390D01*
X66170056Y-68776389D01*
X66123229Y-68739943D01*
X65904614Y-68621635D01*
X65904603Y-68621630D01*
X65669493Y-68540916D01*
X65424293Y-68500000D01*
X65175707Y-68500000D01*
X64930506Y-68540916D01*
X64695396Y-68621630D01*
X64695390Y-68621632D01*
X64476761Y-68739949D01*
X64429942Y-68776388D01*
X64429942Y-68776390D01*
X65170590Y-69517037D01*
X65107007Y-69534075D01*
X64992993Y-69599901D01*
X64899901Y-69692993D01*
X64834075Y-69807007D01*
X64817037Y-69870589D01*
X64076564Y-69130116D01*
X63976267Y-69283632D01*
X63876412Y-69511282D01*
X63815387Y-69752261D01*
X63815385Y-69752270D01*
X63794859Y-69999994D01*
X63794859Y-70000005D01*
X63427500Y-70000005D01*
X63427500Y-68287168D01*
X63447185Y-68220129D01*
X63499989Y-68174374D01*
X63508142Y-68170995D01*
X63633161Y-68124367D01*
X63884315Y-67987226D01*
X64113395Y-67815739D01*
X64315739Y-67613395D01*
X64487226Y-67384315D01*
X64624367Y-67133161D01*
X64724369Y-66865046D01*
X64772856Y-66642156D01*
X64785195Y-66585433D01*
X64785195Y-66585432D01*
X64785196Y-66585428D01*
X64805610Y-66300000D01*
X64785196Y-66014572D01*
X64782472Y-66002052D01*
X64724371Y-65734962D01*
X64724370Y-65734960D01*
X64724369Y-65734954D01*
X64624367Y-65466839D01*
X64615144Y-65449949D01*
X64487229Y-65215690D01*
X64487224Y-65215682D01*
X64315745Y-64986612D01*
X64315729Y-64986594D01*
X64113405Y-64784270D01*
X64113387Y-64784254D01*
X63884317Y-64612775D01*
X63884309Y-64612770D01*
X63633166Y-64475635D01*
X63633167Y-64475635D01*
X63486390Y-64420890D01*
X63365046Y-64375631D01*
X63365043Y-64375630D01*
X63365037Y-64375628D01*
X63085433Y-64314804D01*
X62800001Y-64294390D01*
X62799999Y-64294390D01*
X62514566Y-64314804D01*
X62234962Y-64375628D01*
X61966833Y-64475635D01*
X61715690Y-64612770D01*
X61715682Y-64612775D01*
X61486612Y-64784254D01*
X61486594Y-64784270D01*
X61284270Y-64986594D01*
X61284254Y-64986612D01*
X61112775Y-65215682D01*
X61112770Y-65215690D01*
X60975635Y-65466833D01*
X60875628Y-65734962D01*
X60814804Y-66014566D01*
X60794390Y-66299998D01*
X60794390Y-66300001D01*
X60814804Y-66585433D01*
X60875628Y-66865037D01*
X60875630Y-66865043D01*
X60875631Y-66865046D01*
X60966460Y-67108567D01*
X60975635Y-67133166D01*
X61112770Y-67384309D01*
X61112775Y-67384317D01*
X61284254Y-67613387D01*
X61284270Y-67613405D01*
X61486594Y-67815729D01*
X61486612Y-67815745D01*
X61715682Y-67987224D01*
X61715690Y-67987229D01*
X61966833Y-68124364D01*
X61966836Y-68124366D01*
X61966839Y-68124367D01*
X62091835Y-68170987D01*
X62147766Y-68212857D01*
X62172184Y-68278321D01*
X62172500Y-68287168D01*
X62172500Y-70685719D01*
X62152815Y-70752758D01*
X62100011Y-70798513D01*
X62030853Y-70808457D01*
X61967297Y-70779432D01*
X61960819Y-70773400D01*
X61764232Y-70576813D01*
X61730747Y-70515490D01*
X61731708Y-70458691D01*
X61734563Y-70447419D01*
X61785108Y-70247821D01*
X61786916Y-70226000D01*
X61805643Y-70000005D01*
X61805643Y-69999994D01*
X61785109Y-69752187D01*
X61785107Y-69752175D01*
X61724063Y-69511118D01*
X61624173Y-69283393D01*
X61488166Y-69075217D01*
X61462827Y-69047692D01*
X61319744Y-68892262D01*
X61123509Y-68739526D01*
X61123507Y-68739525D01*
X61123506Y-68739524D01*
X60904811Y-68621172D01*
X60904802Y-68621169D01*
X60669616Y-68540429D01*
X60424335Y-68499500D01*
X60175665Y-68499500D01*
X59930383Y-68540429D01*
X59695197Y-68621169D01*
X59695188Y-68621172D01*
X59476493Y-68739524D01*
X59280257Y-68892261D01*
X59111833Y-69075217D01*
X58975826Y-69283393D01*
X58875936Y-69511118D01*
X58814892Y-69752175D01*
X58814890Y-69752187D01*
X58794357Y-69999994D01*
X58794357Y-70000005D01*
X58814890Y-70247812D01*
X58814892Y-70247824D01*
X58875936Y-70488881D01*
X58975826Y-70716606D01*
X59111833Y-70924782D01*
X59130383Y-70944932D01*
X59280256Y-71107738D01*
X59476491Y-71260474D01*
X59476493Y-71260475D01*
X59694332Y-71378364D01*
X59695190Y-71378828D01*
X59904700Y-71450753D01*
X59928964Y-71459083D01*
X59930386Y-71459571D01*
X60175665Y-71500500D01*
X60424335Y-71500500D01*
X60669614Y-71459571D01*
X60747181Y-71432941D01*
X60816976Y-71429791D01*
X60875123Y-71462542D01*
X62799988Y-73387408D01*
X62799992Y-73387411D01*
X62902760Y-73456079D01*
X62902773Y-73456086D01*
X62972427Y-73484937D01*
X63016965Y-73503385D01*
X63016969Y-73503385D01*
X63016970Y-73503386D01*
X63138194Y-73527500D01*
X63138197Y-73527500D01*
X63261803Y-73527500D01*
X65546903Y-73527500D01*
X65613942Y-73547185D01*
X65659697Y-73599989D01*
X65669641Y-73669147D01*
X65640616Y-73732703D01*
X65634584Y-73739181D01*
X59899992Y-79473773D01*
X59873779Y-79499986D01*
X59812587Y-79561177D01*
X59743920Y-79663944D01*
X59743913Y-79663957D01*
X59737302Y-79679920D01*
X59737302Y-79679921D01*
X59696614Y-79778148D01*
X59696612Y-79778156D01*
X59672500Y-79899376D01*
X59672500Y-83059562D01*
X59652815Y-83126601D01*
X59607518Y-83168616D01*
X59476501Y-83239519D01*
X59476494Y-83239523D01*
X59280257Y-83392261D01*
X59111833Y-83575217D01*
X58975826Y-83783393D01*
X58875936Y-84011118D01*
X58814892Y-84252175D01*
X58814890Y-84252187D01*
X58794357Y-84499994D01*
X58794357Y-84500005D01*
X58814890Y-84747812D01*
X58814892Y-84747824D01*
X58875936Y-84988881D01*
X58975826Y-85216606D01*
X59111833Y-85424782D01*
X59144245Y-85459991D01*
X59280256Y-85607738D01*
X59476491Y-85760474D01*
X59476493Y-85760475D01*
X59694332Y-85878364D01*
X59695190Y-85878828D01*
X59866340Y-85937584D01*
X59928964Y-85959083D01*
X59930386Y-85959571D01*
X60175665Y-86000500D01*
X60424335Y-86000500D01*
X60669614Y-85959571D01*
X60904810Y-85878828D01*
X61123509Y-85760474D01*
X61319744Y-85607738D01*
X61488164Y-85424785D01*
X61488169Y-85424777D01*
X61491311Y-85420741D01*
X61493050Y-85422094D01*
X61539095Y-85382764D01*
X61568378Y-85378069D01*
X62317037Y-84629409D01*
X62334075Y-84692993D01*
X62399901Y-84807007D01*
X62492993Y-84900099D01*
X62607007Y-84965925D01*
X62670588Y-84982962D01*
X61929942Y-85723609D01*
X61976768Y-85760055D01*
X61976770Y-85760056D01*
X62195385Y-85878364D01*
X62195396Y-85878369D01*
X62430506Y-85959083D01*
X62675707Y-86000000D01*
X62924293Y-86000000D01*
X63169493Y-85959083D01*
X63404603Y-85878369D01*
X63404614Y-85878364D01*
X63623230Y-85760056D01*
X63623236Y-85760051D01*
X63679107Y-85716565D01*
X63744101Y-85690921D01*
X63812641Y-85704487D01*
X63854537Y-85740105D01*
X63904903Y-85807385D01*
X63936732Y-85849903D01*
X63942455Y-85857547D01*
X64057664Y-85943793D01*
X64057671Y-85943797D01*
X64192517Y-85994091D01*
X64192516Y-85994091D01*
X64199444Y-85994835D01*
X64252127Y-86000500D01*
X66347872Y-86000499D01*
X66407483Y-85994091D01*
X66542331Y-85943796D01*
X66657546Y-85857546D01*
X66743796Y-85742331D01*
X66794091Y-85607483D01*
X66800500Y-85547873D01*
X66800499Y-83452128D01*
X66794091Y-83392517D01*
X66775374Y-83342335D01*
X66743797Y-83257671D01*
X66743793Y-83257664D01*
X66657547Y-83142455D01*
X66657544Y-83142452D01*
X66542335Y-83056206D01*
X66542328Y-83056202D01*
X66407482Y-83005908D01*
X66407483Y-83005908D01*
X66347883Y-82999501D01*
X66347881Y-82999500D01*
X66347873Y-82999500D01*
X66347865Y-82999500D01*
X66051500Y-82999500D01*
X65984461Y-82979815D01*
X65938706Y-82927011D01*
X65927500Y-82875500D01*
X65927500Y-75811281D01*
X65947185Y-75744242D01*
X65963819Y-75723600D01*
X67361600Y-74325819D01*
X67422923Y-74292334D01*
X67449281Y-74289500D01*
X69682755Y-74289500D01*
X69749794Y-74309185D01*
X69795549Y-74361989D01*
X69805975Y-74399617D01*
X69813685Y-74468055D01*
X69832249Y-74521106D01*
X69869276Y-74626925D01*
X69869545Y-74627692D01*
X69946815Y-74750666D01*
X69965815Y-74817903D01*
X69945447Y-74884738D01*
X69944923Y-74885528D01*
X69885237Y-74974855D01*
X69831625Y-75019661D01*
X69762300Y-75028368D01*
X69707824Y-75005232D01*
X69700879Y-75000033D01*
X69642331Y-74956204D01*
X69642329Y-74956203D01*
X69642328Y-74956202D01*
X69507482Y-74905908D01*
X69507483Y-74905908D01*
X69447883Y-74899501D01*
X69447881Y-74899500D01*
X69447873Y-74899500D01*
X69447864Y-74899500D01*
X67352129Y-74899500D01*
X67352123Y-74899501D01*
X67292516Y-74905908D01*
X67157671Y-74956202D01*
X67157664Y-74956206D01*
X67042455Y-75042452D01*
X67042452Y-75042455D01*
X66956206Y-75157664D01*
X66956202Y-75157671D01*
X66905908Y-75292517D01*
X66900066Y-75346861D01*
X66899501Y-75352123D01*
X66899500Y-75352135D01*
X66899500Y-78647870D01*
X66899501Y-78647876D01*
X66905908Y-78707483D01*
X66956202Y-78842328D01*
X66956206Y-78842335D01*
X67042452Y-78957544D01*
X67042455Y-78957547D01*
X67157664Y-79043793D01*
X67157671Y-79043797D01*
X67292517Y-79094091D01*
X67292516Y-79094091D01*
X67299444Y-79094835D01*
X67352127Y-79100500D01*
X69447872Y-79100499D01*
X69507483Y-79094091D01*
X69551751Y-79077580D01*
X69628167Y-79049079D01*
X69697859Y-79044095D01*
X69759182Y-79077580D01*
X69792666Y-79138903D01*
X69795500Y-79165261D01*
X69795500Y-86286112D01*
X69775815Y-86353151D01*
X69759181Y-86373793D01*
X65387985Y-90744988D01*
X65326662Y-90778473D01*
X65256970Y-90773489D01*
X65212623Y-90744988D01*
X64881579Y-90413943D01*
X64881578Y-90413942D01*
X64840383Y-90386417D01*
X64757999Y-90331370D01*
X64757996Y-90331368D01*
X64757995Y-90331368D01*
X64677565Y-90298053D01*
X64620690Y-90274495D01*
X64596504Y-90269684D01*
X64592457Y-90268879D01*
X64474924Y-90245499D01*
X64474922Y-90245499D01*
X64326298Y-90245499D01*
X64320184Y-90245499D01*
X64320164Y-90245500D01*
X61280446Y-90245500D01*
X61280426Y-90245499D01*
X61274312Y-90245499D01*
X61125688Y-90245499D01*
X61125686Y-90245499D01*
X61008152Y-90268879D01*
X61004105Y-90269684D01*
X60989540Y-90272581D01*
X60979918Y-90274495D01*
X60979917Y-90274495D01*
X60923045Y-90298053D01*
X60842614Y-90331368D01*
X60719031Y-90413942D01*
X59813891Y-91319082D01*
X59731321Y-91442658D01*
X59731317Y-91442665D01*
X59701648Y-91514295D01*
X59674444Y-91579970D01*
X59674443Y-91579973D01*
X59673234Y-91586055D01*
X59673233Y-91586059D01*
X59645448Y-91725736D01*
X59645448Y-91880476D01*
X59645449Y-91880497D01*
X59645449Y-94936009D01*
X59625764Y-95003048D01*
X59572960Y-95048803D01*
X59521449Y-95060009D01*
X59300048Y-95060009D01*
X59228180Y-95065149D01*
X59090269Y-95105643D01*
X58969347Y-95183354D01*
X58875218Y-95291985D01*
X58875217Y-95291986D01*
X58811822Y-95430802D01*
X58808491Y-95429281D01*
X58779794Y-95473554D01*
X58751760Y-95486224D01*
X58724879Y-95509181D01*
X58724879Y-96267598D01*
X58720485Y-96263204D01*
X58629273Y-96210543D01*
X58527540Y-96183284D01*
X58422218Y-96183284D01*
X58320485Y-96210543D01*
X58229273Y-96263204D01*
X58224879Y-96267598D01*
X58224879Y-95509181D01*
X58224878Y-95509181D01*
X58217297Y-95510382D01*
X58217289Y-95510384D01*
X58052621Y-95563888D01*
X57898354Y-95642492D01*
X57758276Y-95744264D01*
X57635846Y-95866694D01*
X57534074Y-96006772D01*
X57455470Y-96161039D01*
X57401964Y-96325712D01*
X57374879Y-96496725D01*
X57374879Y-96733297D01*
X58074879Y-96733297D01*
X58074879Y-97233297D01*
X57374879Y-97233297D01*
X57374879Y-97469868D01*
X57401964Y-97640881D01*
X57455470Y-97805554D01*
X57534074Y-97959821D01*
X57635846Y-98099899D01*
X57758276Y-98222329D01*
X57898354Y-98324101D01*
X58052623Y-98402705D01*
X58217294Y-98456211D01*
X58217293Y-98456211D01*
X58224878Y-98457412D01*
X58224879Y-98457411D01*
X58224879Y-97698996D01*
X58229273Y-97703390D01*
X58320485Y-97756051D01*
X58422218Y-97783310D01*
X58527540Y-97783310D01*
X58629273Y-97756051D01*
X58720485Y-97703390D01*
X58724879Y-97698996D01*
X58724879Y-98457412D01*
X58732463Y-98456211D01*
X58897134Y-98402705D01*
X59051403Y-98324101D01*
X59191481Y-98222329D01*
X59313913Y-98099897D01*
X59368966Y-98024121D01*
X59424296Y-97981454D01*
X59493909Y-97975473D01*
X59538177Y-97993902D01*
X59603780Y-98037737D01*
X59603784Y-98037739D01*
X59603787Y-98037741D01*
X59717622Y-98084894D01*
X59838469Y-98108931D01*
X59838471Y-98108931D01*
X59961681Y-98108931D01*
X59961683Y-98108931D01*
X60082530Y-98084894D01*
X60196365Y-98037741D01*
X60298814Y-97969287D01*
X60385939Y-97882162D01*
X60454393Y-97779713D01*
X60501546Y-97665878D01*
X60525583Y-97545031D01*
X60525583Y-97494483D01*
X60545268Y-97427444D01*
X60598072Y-97381689D01*
X60649583Y-97370483D01*
X60700025Y-97370483D01*
X60771965Y-97365338D01*
X60771969Y-97365336D01*
X60778508Y-97364158D01*
X60778703Y-97365240D01*
X60817692Y-97361749D01*
X60852063Y-97365445D01*
X61171363Y-97365444D01*
X61238402Y-97385128D01*
X61284157Y-97437932D01*
X61295363Y-97489444D01*
X61295363Y-97721519D01*
X61319475Y-97842739D01*
X61319477Y-97842747D01*
X61342675Y-97898751D01*
X61366778Y-97956941D01*
X61366783Y-97956951D01*
X61420766Y-98037741D01*
X61420767Y-98037742D01*
X61435453Y-98059722D01*
X61435454Y-98059723D01*
X61776320Y-98400588D01*
X61809805Y-98461911D01*
X61811859Y-98502152D01*
X61794751Y-98653996D01*
X61794751Y-98654002D01*
X61813685Y-98822056D01*
X61869545Y-98981694D01*
X61869547Y-98981697D01*
X61959518Y-99124884D01*
X61959523Y-99124890D01*
X62079109Y-99244476D01*
X62079115Y-99244481D01*
X62222302Y-99334452D01*
X62222308Y-99334455D01*
X62222310Y-99334456D01*
X62381941Y-99390313D01*
X62385457Y-99390709D01*
X62388412Y-99391789D01*
X62388729Y-99391862D01*
X62388719Y-99391902D01*
X62440476Y-99410829D01*
X62475316Y-99434109D01*
X62475322Y-99434113D01*
X62479762Y-99437080D01*
X62479764Y-99437081D01*
X62479767Y-99437083D01*
X62593965Y-99484385D01*
X62593969Y-99484385D01*
X62593970Y-99484386D01*
X62715193Y-99508500D01*
X62715196Y-99508500D01*
X68369619Y-99508500D01*
X68369620Y-99508499D01*
X68490850Y-99484386D01*
X68571599Y-99450937D01*
X68605048Y-99437083D01*
X68707823Y-99368411D01*
X68795226Y-99281008D01*
X71931415Y-96144819D01*
X71992738Y-96111334D01*
X72019096Y-96108500D01*
X75969719Y-96108500D01*
X76036758Y-96128185D01*
X76082513Y-96180989D01*
X76092457Y-96250147D01*
X76063432Y-96313703D01*
X76057400Y-96320181D01*
X72718415Y-99659164D01*
X72657092Y-99692649D01*
X72598641Y-99691258D01*
X72500413Y-99664938D01*
X72500403Y-99664936D01*
X72265001Y-99644341D01*
X72264999Y-99644341D01*
X72029596Y-99664936D01*
X72029586Y-99664938D01*
X71801344Y-99726094D01*
X71801335Y-99726098D01*
X71587171Y-99825964D01*
X71587169Y-99825965D01*
X71393597Y-99961505D01*
X71226505Y-100128597D01*
X71090965Y-100322169D01*
X71090964Y-100322171D01*
X70991098Y-100536335D01*
X70991094Y-100536344D01*
X70929938Y-100764586D01*
X70929936Y-100764596D01*
X70909341Y-100999999D01*
X70909341Y-101000000D01*
X70929936Y-101235403D01*
X70929938Y-101235413D01*
X70991094Y-101463655D01*
X70991096Y-101463659D01*
X70991097Y-101463663D01*
X71031217Y-101549700D01*
X71090965Y-101677830D01*
X71090967Y-101677834D01*
X71164752Y-101783209D01*
X71226505Y-101871401D01*
X71393599Y-102038495D01*
X71470135Y-102092086D01*
X71587165Y-102174032D01*
X71587167Y-102174033D01*
X71587170Y-102174035D01*
X71801337Y-102273903D01*
X72029592Y-102335063D01*
X72200319Y-102350000D01*
X72264999Y-102355659D01*
X72265000Y-102355659D01*
X72265001Y-102355659D01*
X72329681Y-102350000D01*
X72500408Y-102335063D01*
X72728663Y-102273903D01*
X72942830Y-102174035D01*
X73136401Y-102038495D01*
X73303495Y-101871401D01*
X73433425Y-101685842D01*
X73488002Y-101642217D01*
X73557500Y-101635023D01*
X73619855Y-101666546D01*
X73636575Y-101685842D01*
X73766500Y-101871395D01*
X73766505Y-101871401D01*
X73933599Y-102038495D01*
X74010135Y-102092086D01*
X74127165Y-102174032D01*
X74127167Y-102174033D01*
X74127170Y-102174035D01*
X74341337Y-102273903D01*
X74569592Y-102335063D01*
X74740319Y-102350000D01*
X74804999Y-102355659D01*
X74805000Y-102355659D01*
X74805001Y-102355659D01*
X74869681Y-102350000D01*
X75040408Y-102335063D01*
X75268663Y-102273903D01*
X75482830Y-102174035D01*
X75676401Y-102038495D01*
X75843495Y-101871401D01*
X75973425Y-101685842D01*
X76028002Y-101642217D01*
X76097500Y-101635023D01*
X76159855Y-101666546D01*
X76176575Y-101685842D01*
X76306500Y-101871395D01*
X76306505Y-101871401D01*
X76473599Y-102038495D01*
X76550135Y-102092086D01*
X76667165Y-102174032D01*
X76667167Y-102174033D01*
X76667170Y-102174035D01*
X76881337Y-102273903D01*
X77109592Y-102335063D01*
X77280319Y-102350000D01*
X77344999Y-102355659D01*
X77345000Y-102355659D01*
X77345001Y-102355659D01*
X77409681Y-102350000D01*
X77580408Y-102335063D01*
X77808663Y-102273903D01*
X78022830Y-102174035D01*
X78216401Y-102038495D01*
X78383495Y-101871401D01*
X78513425Y-101685842D01*
X78568002Y-101642217D01*
X78637500Y-101635023D01*
X78699855Y-101666546D01*
X78716575Y-101685842D01*
X78846500Y-101871395D01*
X78846505Y-101871401D01*
X79013599Y-102038495D01*
X79090135Y-102092086D01*
X79207165Y-102174032D01*
X79207167Y-102174033D01*
X79207170Y-102174035D01*
X79421337Y-102273903D01*
X79649592Y-102335063D01*
X79820319Y-102350000D01*
X79884999Y-102355659D01*
X79885000Y-102355659D01*
X79885001Y-102355659D01*
X79949681Y-102350000D01*
X80120408Y-102335063D01*
X80348663Y-102273903D01*
X80562830Y-102174035D01*
X80756401Y-102038495D01*
X80923495Y-101871401D01*
X81053425Y-101685842D01*
X81108002Y-101642217D01*
X81177500Y-101635023D01*
X81239855Y-101666546D01*
X81256575Y-101685842D01*
X81386500Y-101871395D01*
X81386505Y-101871401D01*
X81553599Y-102038495D01*
X81630135Y-102092086D01*
X81747165Y-102174032D01*
X81747167Y-102174033D01*
X81747170Y-102174035D01*
X81961337Y-102273903D01*
X82189592Y-102335063D01*
X82360319Y-102350000D01*
X82424999Y-102355659D01*
X82425000Y-102355659D01*
X82425001Y-102355659D01*
X82489681Y-102350000D01*
X82660408Y-102335063D01*
X82888663Y-102273903D01*
X83102830Y-102174035D01*
X83296401Y-102038495D01*
X83463495Y-101871401D01*
X83593425Y-101685842D01*
X83648002Y-101642217D01*
X83717500Y-101635023D01*
X83779855Y-101666546D01*
X83796575Y-101685842D01*
X83926500Y-101871395D01*
X83926505Y-101871401D01*
X84093599Y-102038495D01*
X84170135Y-102092086D01*
X84287165Y-102174032D01*
X84287167Y-102174033D01*
X84287170Y-102174035D01*
X84501337Y-102273903D01*
X84729592Y-102335063D01*
X84900319Y-102350000D01*
X84964999Y-102355659D01*
X84965000Y-102355659D01*
X84965001Y-102355659D01*
X85029681Y-102350000D01*
X85200408Y-102335063D01*
X85428663Y-102273903D01*
X85642830Y-102174035D01*
X85836401Y-102038495D01*
X86003495Y-101871401D01*
X86133425Y-101685842D01*
X86188002Y-101642217D01*
X86257500Y-101635023D01*
X86319855Y-101666546D01*
X86336575Y-101685842D01*
X86466500Y-101871395D01*
X86466505Y-101871401D01*
X86633599Y-102038495D01*
X86710135Y-102092086D01*
X86827165Y-102174032D01*
X86827167Y-102174033D01*
X86827170Y-102174035D01*
X87041337Y-102273903D01*
X87269592Y-102335063D01*
X87440319Y-102350000D01*
X87504999Y-102355659D01*
X87505000Y-102355659D01*
X87505001Y-102355659D01*
X87569681Y-102350000D01*
X87740408Y-102335063D01*
X87968663Y-102273903D01*
X88182830Y-102174035D01*
X88376401Y-102038495D01*
X88543495Y-101871401D01*
X88673425Y-101685842D01*
X88728002Y-101642217D01*
X88797500Y-101635023D01*
X88859855Y-101666546D01*
X88876575Y-101685842D01*
X89006500Y-101871395D01*
X89006505Y-101871401D01*
X89173599Y-102038495D01*
X89250135Y-102092086D01*
X89367165Y-102174032D01*
X89367167Y-102174033D01*
X89367170Y-102174035D01*
X89581337Y-102273903D01*
X89809592Y-102335063D01*
X89980319Y-102350000D01*
X90044999Y-102355659D01*
X90045000Y-102355659D01*
X90045001Y-102355659D01*
X90109681Y-102350000D01*
X90280408Y-102335063D01*
X90508663Y-102273903D01*
X90722830Y-102174035D01*
X90916401Y-102038495D01*
X91083495Y-101871401D01*
X91213425Y-101685842D01*
X91268002Y-101642217D01*
X91337500Y-101635023D01*
X91399855Y-101666546D01*
X91416575Y-101685842D01*
X91546500Y-101871395D01*
X91546505Y-101871401D01*
X91713599Y-102038495D01*
X91790135Y-102092086D01*
X91907165Y-102174032D01*
X91907167Y-102174033D01*
X91907170Y-102174035D01*
X92121337Y-102273903D01*
X92349592Y-102335063D01*
X92520319Y-102350000D01*
X92584999Y-102355659D01*
X92585000Y-102355659D01*
X92585001Y-102355659D01*
X92649681Y-102350000D01*
X92820408Y-102335063D01*
X93048663Y-102273903D01*
X93262830Y-102174035D01*
X93456401Y-102038495D01*
X93578717Y-101916178D01*
X93640036Y-101882696D01*
X93709728Y-101887680D01*
X93765662Y-101929551D01*
X93782577Y-101960528D01*
X93831646Y-102092088D01*
X93831649Y-102092093D01*
X93917809Y-102207187D01*
X93917812Y-102207190D01*
X94032906Y-102293350D01*
X94032913Y-102293354D01*
X94167620Y-102343596D01*
X94167627Y-102343598D01*
X94227155Y-102349999D01*
X94227172Y-102350000D01*
X94875000Y-102350000D01*
X94875000Y-101433012D01*
X94932007Y-101465925D01*
X95059174Y-101500000D01*
X95190826Y-101500000D01*
X95317993Y-101465925D01*
X95375000Y-101433012D01*
X95375000Y-102350000D01*
X96022828Y-102350000D01*
X96022844Y-102349999D01*
X96082372Y-102343598D01*
X96082379Y-102343596D01*
X96217086Y-102293354D01*
X96217093Y-102293350D01*
X96332187Y-102207190D01*
X96332190Y-102207187D01*
X96418350Y-102092093D01*
X96418354Y-102092086D01*
X96468596Y-101957379D01*
X96468598Y-101957372D01*
X96474999Y-101897844D01*
X96475000Y-101897827D01*
X96475000Y-101250000D01*
X95558012Y-101250000D01*
X95590925Y-101192993D01*
X95625000Y-101065826D01*
X95625000Y-100934174D01*
X95590925Y-100807007D01*
X95558012Y-100750000D01*
X96475000Y-100750000D01*
X96475000Y-100102172D01*
X96474999Y-100102155D01*
X96468598Y-100042627D01*
X96468596Y-100042620D01*
X96418354Y-99907913D01*
X96418350Y-99907906D01*
X96332190Y-99792812D01*
X96332187Y-99792809D01*
X96217093Y-99706649D01*
X96217086Y-99706645D01*
X96082379Y-99656403D01*
X96082372Y-99656401D01*
X96022844Y-99650000D01*
X95375000Y-99650000D01*
X95375000Y-100566988D01*
X95317993Y-100534075D01*
X95190826Y-100500000D01*
X95059174Y-100500000D01*
X94932007Y-100534075D01*
X94875000Y-100566988D01*
X94875000Y-99650000D01*
X94227155Y-99650000D01*
X94167627Y-99656401D01*
X94167620Y-99656403D01*
X94032913Y-99706645D01*
X94032906Y-99706649D01*
X93917812Y-99792809D01*
X93917809Y-99792812D01*
X93831649Y-99907906D01*
X93831645Y-99907913D01*
X93782578Y-100039470D01*
X93740707Y-100095404D01*
X93675242Y-100119821D01*
X93606969Y-100104969D01*
X93578715Y-100083819D01*
X93518992Y-100024096D01*
X93456401Y-99961505D01*
X93456397Y-99961502D01*
X93456396Y-99961501D01*
X93262834Y-99825967D01*
X93262830Y-99825965D01*
X93183586Y-99789013D01*
X93048663Y-99726097D01*
X93048659Y-99726096D01*
X93048655Y-99726094D01*
X92820413Y-99664938D01*
X92820403Y-99664936D01*
X92585001Y-99644341D01*
X92584999Y-99644341D01*
X92349596Y-99664936D01*
X92349586Y-99664938D01*
X92121344Y-99726094D01*
X92121335Y-99726098D01*
X91907171Y-99825964D01*
X91907169Y-99825965D01*
X91713597Y-99961505D01*
X91546505Y-100128597D01*
X91416575Y-100314158D01*
X91361998Y-100357783D01*
X91292500Y-100364977D01*
X91230145Y-100333454D01*
X91213425Y-100314158D01*
X91083494Y-100128597D01*
X90916402Y-99961506D01*
X90916395Y-99961501D01*
X90722834Y-99825967D01*
X90722830Y-99825965D01*
X90643586Y-99789013D01*
X90508663Y-99726097D01*
X90508659Y-99726096D01*
X90508655Y-99726094D01*
X90280413Y-99664938D01*
X90280403Y-99664936D01*
X90039606Y-99643869D01*
X90039761Y-99642086D01*
X89980400Y-99624656D01*
X89934645Y-99571852D01*
X89924701Y-99502694D01*
X89953726Y-99439138D01*
X89959758Y-99432660D01*
X90199733Y-99192686D01*
X90580600Y-98811819D01*
X90641923Y-98778334D01*
X90668281Y-98775500D01*
X99328214Y-98775500D01*
X99395253Y-98795185D01*
X99441008Y-98847989D01*
X99450952Y-98917147D01*
X99421927Y-98980703D01*
X99363149Y-99018477D01*
X99360328Y-99019269D01*
X99342393Y-99024074D01*
X99306812Y-99033608D01*
X99192686Y-99099500D01*
X99192683Y-99099502D01*
X99099502Y-99192683D01*
X99099500Y-99192686D01*
X99033608Y-99306812D01*
X98999500Y-99434108D01*
X98999500Y-102494586D01*
X98999028Y-102505394D01*
X98985260Y-102662753D01*
X98981507Y-102684038D01*
X98942030Y-102831369D01*
X98934637Y-102851681D01*
X98870177Y-102989915D01*
X98859370Y-103008633D01*
X98771880Y-103133582D01*
X98757986Y-103150140D01*
X98650140Y-103257986D01*
X98633582Y-103271880D01*
X98508633Y-103359370D01*
X98489915Y-103370177D01*
X98351681Y-103434637D01*
X98331369Y-103442030D01*
X98184038Y-103481507D01*
X98162753Y-103485260D01*
X98005395Y-103499028D01*
X97994587Y-103499500D01*
X53856546Y-103499500D01*
X53789507Y-103479815D01*
X53743752Y-103427011D01*
X53733808Y-103357853D01*
X53762833Y-103294297D01*
X53810899Y-103260208D01*
X54023882Y-103175882D01*
X54023890Y-103175878D01*
X54288520Y-103030397D01*
X54288530Y-103030390D01*
X54513433Y-102866987D01*
X54513434Y-102866987D01*
X53582737Y-101936290D01*
X53716602Y-101839033D01*
X53839033Y-101716602D01*
X53936290Y-101582737D01*
X54864687Y-102511134D01*
X54945486Y-102413464D01*
X55107292Y-102158497D01*
X55107295Y-102158491D01*
X55235872Y-101885252D01*
X55235874Y-101885247D01*
X55329194Y-101598040D01*
X55338415Y-101549700D01*
X57374879Y-101549700D01*
X57401964Y-101720713D01*
X57455470Y-101885386D01*
X57534074Y-102039653D01*
X57635846Y-102179731D01*
X57758276Y-102302161D01*
X57898354Y-102403933D01*
X58052623Y-102482537D01*
X58217294Y-102536043D01*
X58217293Y-102536043D01*
X58224878Y-102537244D01*
X58224879Y-102537243D01*
X58224879Y-101778815D01*
X58229273Y-101783209D01*
X58320485Y-101835870D01*
X58422218Y-101863129D01*
X58527540Y-101863129D01*
X58629273Y-101835870D01*
X58720485Y-101783209D01*
X58724879Y-101778815D01*
X58724879Y-102537244D01*
X58732463Y-102536043D01*
X58897134Y-102482537D01*
X59051403Y-102403933D01*
X59191481Y-102302161D01*
X59313911Y-102179731D01*
X59415683Y-102039653D01*
X59494287Y-101885386D01*
X59547793Y-101720713D01*
X59574879Y-101549700D01*
X66025121Y-101549700D01*
X66052206Y-101720713D01*
X66105712Y-101885386D01*
X66184316Y-102039653D01*
X66286088Y-102179731D01*
X66408518Y-102302161D01*
X66548596Y-102403933D01*
X66702865Y-102482537D01*
X66867536Y-102536043D01*
X66867535Y-102536043D01*
X66875120Y-102537244D01*
X66875121Y-102537243D01*
X66875121Y-101778815D01*
X66879515Y-101783209D01*
X66970727Y-101835870D01*
X67072460Y-101863129D01*
X67177782Y-101863129D01*
X67279515Y-101835870D01*
X67370727Y-101783209D01*
X67375121Y-101778815D01*
X67375121Y-102537244D01*
X67382705Y-102536043D01*
X67547376Y-102482537D01*
X67701645Y-102403933D01*
X67841723Y-102302161D01*
X67964153Y-102179731D01*
X68065925Y-102039653D01*
X68144529Y-101885386D01*
X68198035Y-101720713D01*
X68225121Y-101549700D01*
X68225121Y-101413129D01*
X67525121Y-101413129D01*
X67525121Y-100913129D01*
X68225121Y-100913129D01*
X68225121Y-100776557D01*
X68198035Y-100605544D01*
X68144529Y-100440871D01*
X68065925Y-100286604D01*
X67964153Y-100146526D01*
X67841723Y-100024096D01*
X67701645Y-99922324D01*
X67547378Y-99843720D01*
X67382710Y-99790216D01*
X67382702Y-99790214D01*
X67375121Y-99789013D01*
X67375121Y-100547443D01*
X67370727Y-100543049D01*
X67279515Y-100490388D01*
X67177782Y-100463129D01*
X67072460Y-100463129D01*
X66970727Y-100490388D01*
X66879515Y-100543049D01*
X66875121Y-100547443D01*
X66875121Y-99789013D01*
X66875120Y-99789013D01*
X66867539Y-99790214D01*
X66867531Y-99790216D01*
X66702863Y-99843720D01*
X66548596Y-99922324D01*
X66408518Y-100024096D01*
X66286088Y-100146526D01*
X66184316Y-100286604D01*
X66105712Y-100440871D01*
X66052206Y-100605544D01*
X66025121Y-100776557D01*
X66025121Y-100913129D01*
X66725121Y-100913129D01*
X66725121Y-101413129D01*
X66025121Y-101413129D01*
X66025121Y-101549700D01*
X59574879Y-101549700D01*
X59574879Y-101413129D01*
X58874879Y-101413129D01*
X58874879Y-100913129D01*
X59574879Y-100913129D01*
X59574879Y-100776557D01*
X59547793Y-100605544D01*
X59494287Y-100440871D01*
X59415683Y-100286604D01*
X59313911Y-100146526D01*
X59191481Y-100024096D01*
X59051403Y-99922324D01*
X58897136Y-99843720D01*
X58732468Y-99790216D01*
X58732460Y-99790214D01*
X58724879Y-99789013D01*
X58724879Y-100547443D01*
X58720485Y-100543049D01*
X58629273Y-100490388D01*
X58527540Y-100463129D01*
X58422218Y-100463129D01*
X58320485Y-100490388D01*
X58229273Y-100543049D01*
X58224879Y-100547443D01*
X58224879Y-99789013D01*
X58224878Y-99789013D01*
X58217297Y-99790214D01*
X58217289Y-99790216D01*
X58052621Y-99843720D01*
X57898354Y-99922324D01*
X57758276Y-100024096D01*
X57635846Y-100146526D01*
X57534074Y-100286604D01*
X57455470Y-100440871D01*
X57401964Y-100605544D01*
X57374879Y-100776557D01*
X57374879Y-100913129D01*
X58074879Y-100913129D01*
X58074879Y-101413129D01*
X57374879Y-101413129D01*
X57374879Y-101549700D01*
X55338415Y-101549700D01*
X55385783Y-101301390D01*
X55385784Y-101301383D01*
X55404745Y-101000005D01*
X55404745Y-100999994D01*
X55385784Y-100698616D01*
X55385783Y-100698609D01*
X55329194Y-100401959D01*
X55235874Y-100114752D01*
X55235872Y-100114747D01*
X55107295Y-99841507D01*
X55107292Y-99841502D01*
X54945483Y-99586530D01*
X54864686Y-99488864D01*
X53936289Y-100417261D01*
X53839033Y-100283398D01*
X53716602Y-100160967D01*
X53582736Y-100063709D01*
X54513434Y-99133011D01*
X54513433Y-99133009D01*
X54288538Y-98969614D01*
X54288520Y-98969602D01*
X54023890Y-98824121D01*
X54023882Y-98824117D01*
X53743110Y-98712952D01*
X53743107Y-98712951D01*
X53450600Y-98637849D01*
X53151004Y-98600000D01*
X52848995Y-98600000D01*
X52549399Y-98637849D01*
X52256892Y-98712951D01*
X52256889Y-98712952D01*
X51976117Y-98824117D01*
X51976109Y-98824121D01*
X51711476Y-98969604D01*
X51711471Y-98969607D01*
X51486565Y-99133010D01*
X51486564Y-99133011D01*
X52417262Y-100063709D01*
X52283398Y-100160967D01*
X52160967Y-100283398D01*
X52063709Y-100417262D01*
X51135311Y-99488864D01*
X51054520Y-99586525D01*
X51054518Y-99586528D01*
X50892707Y-99841502D01*
X50892705Y-99841507D01*
X50764127Y-100114747D01*
X50764125Y-100114752D01*
X50742431Y-100181520D01*
X50702993Y-100239196D01*
X50638635Y-100266394D01*
X50569788Y-100254479D01*
X50518313Y-100207235D01*
X50500500Y-100143202D01*
X50500500Y-78647870D01*
X55699500Y-78647870D01*
X55699501Y-78647876D01*
X55705908Y-78707483D01*
X55756202Y-78842328D01*
X55756206Y-78842335D01*
X55842452Y-78957544D01*
X55842455Y-78957547D01*
X55957664Y-79043793D01*
X55957671Y-79043797D01*
X56092517Y-79094091D01*
X56092516Y-79094091D01*
X56099444Y-79094835D01*
X56152127Y-79100500D01*
X58247872Y-79100499D01*
X58307483Y-79094091D01*
X58442331Y-79043796D01*
X58557546Y-78957546D01*
X58643796Y-78842331D01*
X58694091Y-78707483D01*
X58700500Y-78647873D01*
X58700499Y-75352128D01*
X58694091Y-75292517D01*
X58643796Y-75157669D01*
X58643795Y-75157668D01*
X58643793Y-75157664D01*
X58557547Y-75042455D01*
X58557544Y-75042452D01*
X58442335Y-74956206D01*
X58442328Y-74956202D01*
X58307482Y-74905908D01*
X58307483Y-74905908D01*
X58247883Y-74899501D01*
X58247881Y-74899500D01*
X58247873Y-74899500D01*
X58247864Y-74899500D01*
X56152129Y-74899500D01*
X56152123Y-74899501D01*
X56092516Y-74905908D01*
X55957671Y-74956202D01*
X55957664Y-74956206D01*
X55842455Y-75042452D01*
X55842452Y-75042455D01*
X55756206Y-75157664D01*
X55756202Y-75157671D01*
X55705908Y-75292517D01*
X55700066Y-75346861D01*
X55699501Y-75352123D01*
X55699500Y-75352135D01*
X55699500Y-78647870D01*
X50500500Y-78647870D01*
X50500500Y-70000002D01*
X55744500Y-70000002D01*
X55749644Y-70071940D01*
X55790182Y-70209994D01*
X55867967Y-70331030D01*
X55867971Y-70331034D01*
X55972600Y-70421696D01*
X55976706Y-70425254D01*
X55999838Y-70435818D01*
X56107580Y-70485023D01*
X56107583Y-70485023D01*
X56107584Y-70485024D01*
X56250000Y-70505500D01*
X56250003Y-70505500D01*
X56785764Y-70505500D01*
X57285763Y-70505500D01*
X57750000Y-70505500D01*
X57821940Y-70500355D01*
X57959992Y-70459819D01*
X58081032Y-70382031D01*
X58175254Y-70273294D01*
X58216542Y-70182884D01*
X58235023Y-70142419D01*
X58235024Y-70142414D01*
X58255500Y-70000000D01*
X58255500Y-69428111D01*
X58235024Y-69285696D01*
X58225495Y-69253243D01*
X58225495Y-69183374D01*
X58256789Y-69130628D01*
X58587411Y-68800008D01*
X58608378Y-68768629D01*
X58656083Y-68697233D01*
X58672922Y-68656580D01*
X58674694Y-68652303D01*
X58687590Y-68621169D01*
X58703386Y-68583035D01*
X58727500Y-68461803D01*
X58727500Y-68338197D01*
X58727500Y-68287168D01*
X58747185Y-68220129D01*
X58799989Y-68174374D01*
X58808142Y-68170995D01*
X58933161Y-68124367D01*
X59184315Y-67987226D01*
X59413395Y-67815739D01*
X59615739Y-67613395D01*
X59787226Y-67384315D01*
X59924367Y-67133161D01*
X60024369Y-66865046D01*
X60072856Y-66642156D01*
X60085195Y-66585433D01*
X60085195Y-66585432D01*
X60085196Y-66585428D01*
X60105610Y-66300000D01*
X60085196Y-66014572D01*
X60082472Y-66002052D01*
X60024371Y-65734962D01*
X60024370Y-65734960D01*
X60024369Y-65734954D01*
X59924367Y-65466839D01*
X59915144Y-65449949D01*
X59787229Y-65215690D01*
X59787224Y-65215682D01*
X59615745Y-64986612D01*
X59615729Y-64986594D01*
X59413405Y-64784270D01*
X59413387Y-64784254D01*
X59184317Y-64612775D01*
X59184309Y-64612770D01*
X58933166Y-64475635D01*
X58933167Y-64475635D01*
X58786390Y-64420890D01*
X58665046Y-64375631D01*
X58665043Y-64375630D01*
X58665037Y-64375628D01*
X58385433Y-64314804D01*
X58100001Y-64294390D01*
X58099999Y-64294390D01*
X57814566Y-64314804D01*
X57534962Y-64375628D01*
X57266833Y-64475635D01*
X57015690Y-64612770D01*
X57015682Y-64612775D01*
X56786612Y-64784254D01*
X56786594Y-64784270D01*
X56584270Y-64986594D01*
X56584254Y-64986612D01*
X56412775Y-65215682D01*
X56412770Y-65215690D01*
X56275635Y-65466833D01*
X56175628Y-65734962D01*
X56114804Y-66014566D01*
X56094390Y-66299998D01*
X56094390Y-66300001D01*
X56114804Y-66585433D01*
X56175628Y-66865037D01*
X56175630Y-66865043D01*
X56175631Y-66865046D01*
X56266460Y-67108567D01*
X56275635Y-67133166D01*
X56412770Y-67384309D01*
X56412775Y-67384317D01*
X56584254Y-67613387D01*
X56584270Y-67613405D01*
X56786594Y-67815729D01*
X56786612Y-67815745D01*
X57015682Y-67987224D01*
X57015690Y-67987229D01*
X57264644Y-68123169D01*
X57314049Y-68172574D01*
X57328901Y-68240847D01*
X57304484Y-68306312D01*
X57292902Y-68319677D01*
X57154398Y-68458182D01*
X57093078Y-68491666D01*
X57066719Y-68494500D01*
X56734427Y-68494500D01*
X56734399Y-68494503D01*
X56678059Y-68494503D01*
X56544521Y-68513703D01*
X56544519Y-68513703D01*
X56535744Y-68514964D01*
X56397686Y-68555503D01*
X56266918Y-68615223D01*
X56266908Y-68615228D01*
X56266906Y-68615230D01*
X56233253Y-68636857D01*
X56145867Y-68693015D01*
X56145863Y-68693018D01*
X56037226Y-68787152D01*
X56037207Y-68787169D01*
X56037205Y-68787172D01*
X56026083Y-68800008D01*
X55942985Y-68895909D01*
X55942983Y-68895911D01*
X55942983Y-68895912D01*
X55942981Y-68895915D01*
X55865255Y-69016857D01*
X55865252Y-69016863D01*
X55805483Y-69147741D01*
X55764977Y-69285691D01*
X55764974Y-69285703D01*
X55744500Y-69428110D01*
X55744500Y-70000002D01*
X50500500Y-70000002D01*
X50500500Y-60929883D01*
X74514922Y-60929883D01*
X75034925Y-60929883D01*
X75034925Y-60429883D01*
X74967077Y-60429883D01*
X74907549Y-60436284D01*
X74907542Y-60436286D01*
X74772835Y-60486528D01*
X74772828Y-60486532D01*
X74657734Y-60572692D01*
X74657731Y-60572695D01*
X74571571Y-60687789D01*
X74571567Y-60687796D01*
X74521325Y-60822503D01*
X74521323Y-60822510D01*
X74514922Y-60882038D01*
X74514922Y-60929883D01*
X50500500Y-60929883D01*
X50500500Y-53856797D01*
X50520185Y-53789758D01*
X50572989Y-53744003D01*
X50642147Y-53734059D01*
X50705703Y-53763084D01*
X50742431Y-53818479D01*
X50764125Y-53885247D01*
X50764127Y-53885252D01*
X50892704Y-54158491D01*
X50892707Y-54158497D01*
X51054516Y-54413469D01*
X51135311Y-54511133D01*
X52063708Y-53582736D01*
X52160967Y-53716602D01*
X52283398Y-53839033D01*
X52417262Y-53936290D01*
X51486564Y-54866987D01*
X51486565Y-54866989D01*
X51711461Y-55030385D01*
X51711479Y-55030397D01*
X51976109Y-55175878D01*
X51976117Y-55175882D01*
X52256889Y-55287047D01*
X52256892Y-55287048D01*
X52549399Y-55362150D01*
X52848995Y-55399999D01*
X52849007Y-55400000D01*
X53150993Y-55400000D01*
X53151004Y-55399999D01*
X53450600Y-55362150D01*
X53743107Y-55287048D01*
X53743110Y-55287047D01*
X54023882Y-55175882D01*
X54023890Y-55175878D01*
X54288520Y-55030397D01*
X54288530Y-55030390D01*
X54513433Y-54866987D01*
X54513434Y-54866987D01*
X53582737Y-53936290D01*
X53716602Y-53839033D01*
X53839033Y-53716602D01*
X53936290Y-53582737D01*
X54864687Y-54511134D01*
X54945486Y-54413464D01*
X55107292Y-54158497D01*
X55107295Y-54158491D01*
X55235872Y-53885252D01*
X55235874Y-53885247D01*
X55328557Y-53600001D01*
X58294891Y-53600001D01*
X58315300Y-53885362D01*
X58376109Y-54164895D01*
X58476091Y-54432958D01*
X58613191Y-54684038D01*
X58613196Y-54684046D01*
X58719882Y-54826561D01*
X58719883Y-54826562D01*
X59473474Y-54072971D01*
X59562087Y-54205590D01*
X59694410Y-54337913D01*
X59827027Y-54426525D01*
X59073436Y-55180115D01*
X59215960Y-55286807D01*
X59215961Y-55286808D01*
X59467042Y-55423908D01*
X59467041Y-55423908D01*
X59735104Y-55523890D01*
X60014637Y-55584699D01*
X60299999Y-55605109D01*
X60300001Y-55605109D01*
X60585362Y-55584699D01*
X60864895Y-55523890D01*
X61132958Y-55423908D01*
X61384047Y-55286803D01*
X61526561Y-55180116D01*
X61526562Y-55180115D01*
X60772972Y-54426525D01*
X60905590Y-54337913D01*
X61037913Y-54205590D01*
X61126525Y-54072972D01*
X61880115Y-54826562D01*
X61880116Y-54826561D01*
X61986803Y-54684047D01*
X62123908Y-54432958D01*
X62223890Y-54164895D01*
X62284699Y-53885362D01*
X62305109Y-53600001D01*
X63294891Y-53600001D01*
X63315300Y-53885362D01*
X63376109Y-54164895D01*
X63476091Y-54432958D01*
X63613191Y-54684038D01*
X63613196Y-54684046D01*
X63719882Y-54826561D01*
X63719883Y-54826562D01*
X64473474Y-54072971D01*
X64562087Y-54205590D01*
X64694410Y-54337913D01*
X64827027Y-54426525D01*
X64073436Y-55180115D01*
X64215960Y-55286807D01*
X64215961Y-55286808D01*
X64467042Y-55423908D01*
X64467041Y-55423908D01*
X64735104Y-55523890D01*
X65014637Y-55584699D01*
X65299999Y-55605109D01*
X65300001Y-55605109D01*
X65585362Y-55584699D01*
X65864895Y-55523890D01*
X66132958Y-55423908D01*
X66384047Y-55286803D01*
X66526561Y-55180116D01*
X66526562Y-55180115D01*
X65772972Y-54426525D01*
X65905590Y-54337913D01*
X66037913Y-54205590D01*
X66126525Y-54072972D01*
X66880115Y-54826562D01*
X66880116Y-54826561D01*
X66986803Y-54684047D01*
X67123908Y-54432958D01*
X67223890Y-54164895D01*
X67284699Y-53885362D01*
X67305109Y-53600001D01*
X67305109Y-53599998D01*
X67284699Y-53314637D01*
X67223890Y-53035104D01*
X67123908Y-52767041D01*
X66986808Y-52515961D01*
X66986807Y-52515960D01*
X66880115Y-52373436D01*
X66126524Y-53127026D01*
X66037913Y-52994410D01*
X65905590Y-52862087D01*
X65772971Y-52773474D01*
X66526562Y-52019883D01*
X66526561Y-52019882D01*
X66384046Y-51913196D01*
X66384038Y-51913191D01*
X66132957Y-51776091D01*
X66132958Y-51776091D01*
X65864895Y-51676109D01*
X65585362Y-51615300D01*
X65300001Y-51594891D01*
X65299999Y-51594891D01*
X65014637Y-51615300D01*
X64735104Y-51676109D01*
X64467041Y-51776091D01*
X64215961Y-51913191D01*
X64215953Y-51913196D01*
X64073437Y-52019882D01*
X64073436Y-52019883D01*
X64827028Y-52773474D01*
X64694410Y-52862087D01*
X64562087Y-52994410D01*
X64473474Y-53127027D01*
X63719883Y-52373436D01*
X63719882Y-52373437D01*
X63613196Y-52515953D01*
X63613191Y-52515961D01*
X63476091Y-52767041D01*
X63376109Y-53035104D01*
X63315300Y-53314637D01*
X63294891Y-53599998D01*
X63294891Y-53600001D01*
X62305109Y-53600001D01*
X62305109Y-53599998D01*
X62284699Y-53314637D01*
X62223890Y-53035104D01*
X62123908Y-52767041D01*
X61986808Y-52515961D01*
X61986807Y-52515960D01*
X61880115Y-52373436D01*
X61126524Y-53127026D01*
X61037913Y-52994410D01*
X60905590Y-52862087D01*
X60772971Y-52773474D01*
X61526562Y-52019883D01*
X61526561Y-52019882D01*
X61384046Y-51913196D01*
X61384038Y-51913191D01*
X61132957Y-51776091D01*
X61132958Y-51776091D01*
X60864895Y-51676109D01*
X60585362Y-51615300D01*
X60300001Y-51594891D01*
X60299999Y-51594891D01*
X60014637Y-51615300D01*
X59735104Y-51676109D01*
X59467041Y-51776091D01*
X59215961Y-51913191D01*
X59215953Y-51913196D01*
X59073437Y-52019882D01*
X59073436Y-52019883D01*
X59827028Y-52773474D01*
X59694410Y-52862087D01*
X59562087Y-52994410D01*
X59473474Y-53127027D01*
X58719883Y-52373436D01*
X58719882Y-52373437D01*
X58613196Y-52515953D01*
X58613191Y-52515961D01*
X58476091Y-52767041D01*
X58376109Y-53035104D01*
X58315300Y-53314637D01*
X58294891Y-53599998D01*
X58294891Y-53600001D01*
X55328557Y-53600001D01*
X55329194Y-53598040D01*
X55385785Y-53301380D01*
X55404745Y-53000005D01*
X55404745Y-52999994D01*
X55385784Y-52698616D01*
X55385783Y-52698609D01*
X55329194Y-52401959D01*
X55235874Y-52114752D01*
X55235872Y-52114747D01*
X55107295Y-51841508D01*
X55107292Y-51841502D01*
X54945483Y-51586530D01*
X54864686Y-51488864D01*
X53936289Y-52417261D01*
X53839033Y-52283398D01*
X53716602Y-52160967D01*
X53582736Y-52063709D01*
X54513434Y-51133011D01*
X54513433Y-51133009D01*
X54288538Y-50969614D01*
X54288520Y-50969602D01*
X54023890Y-50824121D01*
X54023882Y-50824117D01*
X53810899Y-50739792D01*
X53755813Y-50696811D01*
X53732710Y-50630872D01*
X53748923Y-50562910D01*
X53799306Y-50514502D01*
X53856546Y-50500500D01*
X72860925Y-50500500D01*
X72927964Y-50520185D01*
G37*
%TD.AperFunction*%
%TA.AperFunction,Conductor*%
G36*
X77459703Y-76464931D02*
G01*
X77466181Y-76470963D01*
X77476226Y-76481008D01*
X77553862Y-76558644D01*
X77563630Y-76568412D01*
X77666399Y-76637080D01*
X77666400Y-76637080D01*
X77666404Y-76637083D01*
X77710261Y-76655249D01*
X77780603Y-76684386D01*
X77864908Y-76701155D01*
X77901829Y-76708499D01*
X77901833Y-76708500D01*
X77901834Y-76708500D01*
X86934896Y-76708500D01*
X87001935Y-76728185D01*
X87047690Y-76780989D01*
X87058116Y-76818617D01*
X87063685Y-76868054D01*
X87063687Y-76868061D01*
X87119543Y-77027690D01*
X87153493Y-77081719D01*
X87172500Y-77147692D01*
X87172500Y-80253806D01*
X87152815Y-80320845D01*
X87136181Y-80341487D01*
X81836751Y-85640916D01*
X81775428Y-85674401D01*
X81705736Y-85669417D01*
X81649803Y-85627545D01*
X81625386Y-85562081D01*
X81625070Y-85553235D01*
X81625070Y-85200013D01*
X79675070Y-85200013D01*
X79675070Y-86200013D01*
X79702898Y-86227841D01*
X79736383Y-86289164D01*
X79731399Y-86358856D01*
X79714484Y-86389833D01*
X79626206Y-86507757D01*
X79626204Y-86507760D01*
X79575910Y-86642606D01*
X79571826Y-86680599D01*
X79569503Y-86702212D01*
X79569502Y-86702224D01*
X79569502Y-88027957D01*
X79569503Y-88027963D01*
X79575910Y-88087570D01*
X79626204Y-88222415D01*
X79626208Y-88222422D01*
X79712454Y-88337631D01*
X79712457Y-88337634D01*
X79827666Y-88423880D01*
X79827673Y-88423884D01*
X79962519Y-88474178D01*
X79962518Y-88474178D01*
X79969446Y-88474922D01*
X80022129Y-88480587D01*
X81977870Y-88480586D01*
X82037481Y-88474178D01*
X82172329Y-88423883D01*
X82287544Y-88337633D01*
X82373794Y-88222418D01*
X82424089Y-88087570D01*
X82430498Y-88027960D01*
X82430497Y-86873369D01*
X82450182Y-86806331D01*
X82466811Y-86785694D01*
X83429819Y-85822687D01*
X83491142Y-85789202D01*
X83560834Y-85794186D01*
X83616767Y-85836058D01*
X83641184Y-85901522D01*
X83641500Y-85910368D01*
X83641500Y-91330903D01*
X83621815Y-91397942D01*
X83605181Y-91418584D01*
X82641679Y-92382086D01*
X82580356Y-92415571D01*
X82510664Y-92410587D01*
X82454731Y-92368715D01*
X82430314Y-92303251D01*
X82429998Y-92294405D01*
X82429998Y-91984912D01*
X81250000Y-91984912D01*
X81250000Y-92849911D01*
X81874492Y-92849911D01*
X81941531Y-92869596D01*
X81987286Y-92922400D01*
X81997230Y-92991558D01*
X81968205Y-93055114D01*
X81962173Y-93061592D01*
X80587584Y-94436181D01*
X80526261Y-94469666D01*
X80499903Y-94472500D01*
X71488192Y-94472500D01*
X71366973Y-94496612D01*
X71366965Y-94496614D01*
X71302519Y-94523309D01*
X71302518Y-94523309D01*
X71252773Y-94543913D01*
X71252760Y-94543920D01*
X71153205Y-94610442D01*
X71153203Y-94610443D01*
X71149992Y-94612588D01*
X71149988Y-94612591D01*
X68436802Y-97325777D01*
X68375479Y-97359262D01*
X68305787Y-97354278D01*
X68249854Y-97312406D01*
X68225437Y-97246942D01*
X68225121Y-97238096D01*
X68225121Y-97233297D01*
X67525121Y-97233297D01*
X67525121Y-96733297D01*
X68225121Y-96733297D01*
X68225121Y-96496725D01*
X68198035Y-96325712D01*
X68144529Y-96161039D01*
X68065925Y-96006772D01*
X67964153Y-95866694D01*
X67841723Y-95744264D01*
X67701645Y-95642492D01*
X67547378Y-95563888D01*
X67382710Y-95510384D01*
X67382702Y-95510382D01*
X67375121Y-95509181D01*
X67375121Y-96267623D01*
X67370727Y-96263229D01*
X67279515Y-96210568D01*
X67177782Y-96183309D01*
X67072460Y-96183309D01*
X66970727Y-96210568D01*
X66879515Y-96263229D01*
X66875121Y-96267623D01*
X66875121Y-95485636D01*
X66871669Y-95480349D01*
X66871165Y-95410481D01*
X66908514Y-95351432D01*
X66947058Y-95328375D01*
X67042455Y-95292794D01*
X67042454Y-95292794D01*
X67042458Y-95292793D01*
X67157673Y-95206543D01*
X67243923Y-95091328D01*
X67294218Y-94956480D01*
X67300627Y-94896870D01*
X67300626Y-94001125D01*
X67294218Y-93941514D01*
X67259669Y-93848884D01*
X67243924Y-93806668D01*
X67243922Y-93806665D01*
X67230906Y-93789278D01*
X67219574Y-93774141D01*
X67195157Y-93708678D01*
X67210008Y-93640405D01*
X67219576Y-93625517D01*
X67223311Y-93620528D01*
X67243669Y-93593334D01*
X67293964Y-93458486D01*
X67300373Y-93398876D01*
X67300372Y-92503131D01*
X67293964Y-92443520D01*
X67276888Y-92397738D01*
X67243670Y-92308674D01*
X67243666Y-92308667D01*
X67157420Y-92193458D01*
X67157417Y-92193455D01*
X67077062Y-92133301D01*
X67035191Y-92077367D01*
X67027373Y-92034035D01*
X67027373Y-91984912D01*
X79570002Y-91984912D01*
X79570002Y-92397755D01*
X79576403Y-92457283D01*
X79576405Y-92457290D01*
X79626647Y-92591997D01*
X79626651Y-92592004D01*
X79712811Y-92707098D01*
X79712814Y-92707101D01*
X79827908Y-92793261D01*
X79827915Y-92793265D01*
X79962622Y-92843507D01*
X79962629Y-92843509D01*
X80022157Y-92849910D01*
X80022174Y-92849911D01*
X80750000Y-92849911D01*
X80750000Y-91984912D01*
X79570002Y-91984912D01*
X67027373Y-91984912D01*
X67027373Y-91829828D01*
X67047058Y-91762789D01*
X67063692Y-91742147D01*
X67320927Y-91484912D01*
X79570002Y-91484912D01*
X80750000Y-91484912D01*
X80750000Y-90619913D01*
X81250000Y-90619913D01*
X81250000Y-91484912D01*
X82429998Y-91484912D01*
X82429998Y-91072085D01*
X82429997Y-91072068D01*
X82423596Y-91012540D01*
X82423594Y-91012533D01*
X82373352Y-90877826D01*
X82373348Y-90877819D01*
X82287188Y-90762725D01*
X82287185Y-90762722D01*
X82172091Y-90676562D01*
X82172084Y-90676558D01*
X82037377Y-90626316D01*
X82037370Y-90626314D01*
X81977842Y-90619913D01*
X81250000Y-90619913D01*
X80750000Y-90619913D01*
X80022157Y-90619913D01*
X79962629Y-90626314D01*
X79962622Y-90626316D01*
X79827915Y-90676558D01*
X79827908Y-90676562D01*
X79712814Y-90762722D01*
X79712811Y-90762725D01*
X79626651Y-90877819D01*
X79626647Y-90877826D01*
X79576405Y-91012533D01*
X79576403Y-91012540D01*
X79570002Y-91072068D01*
X79570002Y-91484912D01*
X67320927Y-91484912D01*
X71663426Y-87142413D01*
X71663428Y-87142411D01*
X71664673Y-87140547D01*
X71732100Y-87039636D01*
X71758858Y-86975037D01*
X71779403Y-86925437D01*
X71803517Y-86804206D01*
X71803517Y-86680599D01*
X71803517Y-85200013D01*
X77225070Y-85200013D01*
X77225070Y-85747857D01*
X77231471Y-85807385D01*
X77231473Y-85807392D01*
X77281715Y-85942099D01*
X77281719Y-85942106D01*
X77367879Y-86057200D01*
X77367882Y-86057203D01*
X77482976Y-86143363D01*
X77482983Y-86143367D01*
X77617690Y-86193609D01*
X77617697Y-86193611D01*
X77677225Y-86200012D01*
X77677242Y-86200013D01*
X79175070Y-86200013D01*
X79175070Y-85200013D01*
X77225070Y-85200013D01*
X71803517Y-85200013D01*
X71803517Y-84700013D01*
X77225070Y-84700013D01*
X79175070Y-84700013D01*
X79175070Y-83700013D01*
X79675070Y-83700013D01*
X79675070Y-84700013D01*
X81625070Y-84700013D01*
X81625070Y-84152185D01*
X81625069Y-84152168D01*
X81618668Y-84092640D01*
X81618666Y-84092633D01*
X81568424Y-83957926D01*
X81568420Y-83957919D01*
X81482260Y-83842825D01*
X81482257Y-83842822D01*
X81367163Y-83756662D01*
X81367156Y-83756658D01*
X81232449Y-83706416D01*
X81232442Y-83706414D01*
X81172914Y-83700013D01*
X79675070Y-83700013D01*
X79175070Y-83700013D01*
X77677225Y-83700013D01*
X77617697Y-83706414D01*
X77617690Y-83706416D01*
X77482983Y-83756658D01*
X77482976Y-83756662D01*
X77367882Y-83842822D01*
X77367879Y-83842825D01*
X77281719Y-83957919D01*
X77281715Y-83957926D01*
X77231473Y-84092633D01*
X77231471Y-84092640D01*
X77225070Y-84152168D01*
X77225070Y-84700013D01*
X71803517Y-84700013D01*
X71803517Y-83724499D01*
X71823202Y-83657460D01*
X71876006Y-83611705D01*
X71927517Y-83600499D01*
X75522801Y-83600499D01*
X75522802Y-83600499D01*
X75582413Y-83594091D01*
X75717261Y-83543796D01*
X75832476Y-83457546D01*
X75918726Y-83342331D01*
X75969021Y-83207483D01*
X75975430Y-83147873D01*
X75975429Y-82717885D01*
X75995113Y-82650847D01*
X76011743Y-82630209D01*
X76980963Y-81660990D01*
X76980966Y-81660989D01*
X77086059Y-81555896D01*
X77141230Y-81473325D01*
X77168630Y-81432319D01*
X77225505Y-81295009D01*
X77229983Y-81272500D01*
X77229994Y-81272447D01*
X77230289Y-81270957D01*
X77230315Y-81270824D01*
X77254501Y-81149243D01*
X77254501Y-80995508D01*
X77254500Y-80995482D01*
X77254500Y-79520021D01*
X77274185Y-79452982D01*
X77326989Y-79407227D01*
X77396147Y-79397283D01*
X77452812Y-79420755D01*
X77482980Y-79443339D01*
X77482983Y-79443341D01*
X77617690Y-79493583D01*
X77617697Y-79493585D01*
X77677225Y-79499986D01*
X77677242Y-79499987D01*
X79175070Y-79499987D01*
X79175070Y-78499987D01*
X79675070Y-78499987D01*
X79675070Y-79499987D01*
X81172898Y-79499987D01*
X81172914Y-79499986D01*
X81232442Y-79493585D01*
X81232449Y-79493583D01*
X81367156Y-79443341D01*
X81367163Y-79443337D01*
X81482257Y-79357177D01*
X81482260Y-79357174D01*
X81568420Y-79242080D01*
X81568424Y-79242073D01*
X81618666Y-79107366D01*
X81618668Y-79107359D01*
X81625069Y-79047831D01*
X81625070Y-79047814D01*
X81625070Y-78499987D01*
X79675070Y-78499987D01*
X79175070Y-78499987D01*
X79175070Y-76999987D01*
X79675070Y-76999987D01*
X79675070Y-77999987D01*
X81625070Y-77999987D01*
X81625070Y-77452159D01*
X81625069Y-77452142D01*
X81618668Y-77392614D01*
X81618666Y-77392607D01*
X81568424Y-77257900D01*
X81568420Y-77257893D01*
X81482260Y-77142799D01*
X81482257Y-77142796D01*
X81367163Y-77056636D01*
X81367156Y-77056632D01*
X81232449Y-77006390D01*
X81232442Y-77006388D01*
X81172914Y-76999987D01*
X79675070Y-76999987D01*
X79175070Y-76999987D01*
X77677225Y-76999987D01*
X77617697Y-77006388D01*
X77617690Y-77006390D01*
X77482983Y-77056632D01*
X77482977Y-77056636D01*
X77452810Y-77079219D01*
X77387346Y-77103636D01*
X77319073Y-77088784D01*
X77269668Y-77039379D01*
X77254500Y-76979952D01*
X77254500Y-76558644D01*
X77274185Y-76491605D01*
X77326989Y-76445850D01*
X77396147Y-76435906D01*
X77459703Y-76464931D01*
G37*
%TD.AperFunction*%
%TA.AperFunction,Conductor*%
G36*
X89307543Y-83382387D02*
G01*
X89363477Y-83424258D01*
X89378768Y-83451109D01*
X89381366Y-83457380D01*
X89381372Y-83457392D01*
X89463942Y-83580968D01*
X89463943Y-83580969D01*
X90059181Y-84176205D01*
X90092666Y-84237528D01*
X90095500Y-84263886D01*
X90095500Y-94936390D01*
X90094751Y-94949721D01*
X90094751Y-94950272D01*
X90095500Y-94963610D01*
X90095500Y-95024313D01*
X90098816Y-95040987D01*
X90107831Y-95086309D01*
X90101605Y-95155900D01*
X90058743Y-95211077D01*
X89992853Y-95234322D01*
X89986215Y-95234500D01*
X82402281Y-95234500D01*
X82335242Y-95214815D01*
X82289487Y-95162011D01*
X82279543Y-95092853D01*
X82308568Y-95029297D01*
X82314600Y-95022819D01*
X85137409Y-92200010D01*
X85137411Y-92200008D01*
X85171904Y-92148385D01*
X85206083Y-92097233D01*
X85252608Y-91984912D01*
X86470002Y-91984912D01*
X86470002Y-92397755D01*
X86476403Y-92457283D01*
X86476405Y-92457290D01*
X86526647Y-92591997D01*
X86526651Y-92592004D01*
X86612811Y-92707098D01*
X86612814Y-92707101D01*
X86727908Y-92793261D01*
X86727915Y-92793265D01*
X86862622Y-92843507D01*
X86862629Y-92843509D01*
X86922157Y-92849910D01*
X86922174Y-92849911D01*
X87650000Y-92849911D01*
X87650000Y-91984912D01*
X88150000Y-91984912D01*
X88150000Y-92849911D01*
X88877826Y-92849911D01*
X88877842Y-92849910D01*
X88937370Y-92843509D01*
X88937377Y-92843507D01*
X89072084Y-92793265D01*
X89072091Y-92793261D01*
X89187185Y-92707101D01*
X89187188Y-92707098D01*
X89273348Y-92592004D01*
X89273352Y-92591997D01*
X89323594Y-92457290D01*
X89323596Y-92457283D01*
X89329997Y-92397755D01*
X89329998Y-92397738D01*
X89329998Y-91984912D01*
X88150000Y-91984912D01*
X87650000Y-91984912D01*
X86470002Y-91984912D01*
X85252608Y-91984912D01*
X85253385Y-91983035D01*
X85265559Y-91921832D01*
X85277500Y-91861805D01*
X85277500Y-91484912D01*
X86470002Y-91484912D01*
X87650000Y-91484912D01*
X87650000Y-90619913D01*
X88150000Y-90619913D01*
X88150000Y-91484912D01*
X89329998Y-91484912D01*
X89329998Y-91072085D01*
X89329997Y-91072068D01*
X89323596Y-91012540D01*
X89323594Y-91012533D01*
X89273352Y-90877826D01*
X89273348Y-90877819D01*
X89187188Y-90762725D01*
X89187185Y-90762722D01*
X89072091Y-90676562D01*
X89072084Y-90676558D01*
X88937377Y-90626316D01*
X88937370Y-90626314D01*
X88877842Y-90619913D01*
X88150000Y-90619913D01*
X87650000Y-90619913D01*
X86922157Y-90619913D01*
X86862629Y-90626314D01*
X86862622Y-90626316D01*
X86727915Y-90676558D01*
X86727908Y-90676562D01*
X86612814Y-90762722D01*
X86612811Y-90762725D01*
X86526651Y-90877819D01*
X86526647Y-90877826D01*
X86476405Y-91012533D01*
X86476403Y-91012540D01*
X86470002Y-91072068D01*
X86470002Y-91484912D01*
X85277500Y-91484912D01*
X85277500Y-86150097D01*
X85297185Y-86083058D01*
X85313819Y-86062416D01*
X87060819Y-84315416D01*
X87122142Y-84281931D01*
X87191834Y-84286915D01*
X87247767Y-84328787D01*
X87272184Y-84394251D01*
X87272500Y-84403097D01*
X87272500Y-86125589D01*
X87252815Y-86192628D01*
X87200011Y-86238383D01*
X87148501Y-86249589D01*
X86922132Y-86249589D01*
X86922125Y-86249590D01*
X86862518Y-86255997D01*
X86727673Y-86306291D01*
X86727666Y-86306295D01*
X86612457Y-86392541D01*
X86612454Y-86392544D01*
X86526208Y-86507753D01*
X86526204Y-86507760D01*
X86475910Y-86642606D01*
X86471826Y-86680599D01*
X86469503Y-86702212D01*
X86469502Y-86702224D01*
X86469502Y-88027957D01*
X86469503Y-88027963D01*
X86475910Y-88087570D01*
X86526204Y-88222415D01*
X86526208Y-88222422D01*
X86612454Y-88337631D01*
X86612457Y-88337634D01*
X86727666Y-88423880D01*
X86727673Y-88423884D01*
X86862519Y-88474178D01*
X86862518Y-88474178D01*
X86869446Y-88474922D01*
X86922129Y-88480587D01*
X88877870Y-88480586D01*
X88937481Y-88474178D01*
X89072329Y-88423883D01*
X89187544Y-88337633D01*
X89273794Y-88222418D01*
X89324089Y-88087570D01*
X89330498Y-88027960D01*
X89330497Y-86702217D01*
X89324089Y-86642606D01*
X89277456Y-86517577D01*
X89273795Y-86507760D01*
X89273791Y-86507753D01*
X89187545Y-86392544D01*
X89187542Y-86392541D01*
X89072333Y-86306295D01*
X89072326Y-86306291D01*
X88937480Y-86255997D01*
X88937481Y-86255997D01*
X88877881Y-86249590D01*
X88877879Y-86249589D01*
X88877871Y-86249589D01*
X88877863Y-86249589D01*
X88651500Y-86249589D01*
X88584461Y-86229904D01*
X88538706Y-86177100D01*
X88527500Y-86125589D01*
X88527500Y-84111280D01*
X88547185Y-84044241D01*
X88563815Y-84023603D01*
X89176531Y-83410886D01*
X89237852Y-83377403D01*
X89307543Y-83382387D01*
G37*
%TD.AperFunction*%
%TA.AperFunction,Conductor*%
G36*
X92228530Y-80461402D02*
G01*
X92263130Y-80483638D01*
X92264319Y-80482190D01*
X92269035Y-80486060D01*
X92392608Y-80568628D01*
X92392609Y-80568628D01*
X92392610Y-80568629D01*
X92529920Y-80625505D01*
X92570352Y-80633547D01*
X92575125Y-80634851D01*
X92575146Y-80634763D01*
X92581928Y-80636310D01*
X92581934Y-80636310D01*
X92581941Y-80636313D01*
X92582093Y-80636330D01*
X92592393Y-80637931D01*
X92650021Y-80649394D01*
X92675687Y-80654500D01*
X92675688Y-80654500D01*
X92736390Y-80654500D01*
X92749725Y-80655249D01*
X92750000Y-80655249D01*
X92750275Y-80655249D01*
X92763610Y-80654500D01*
X104246113Y-80654500D01*
X104313152Y-80674185D01*
X104333794Y-80690819D01*
X105459181Y-81816205D01*
X105492666Y-81877528D01*
X105495500Y-81903886D01*
X105495500Y-81961276D01*
X105475815Y-82028315D01*
X105438541Y-82065591D01*
X105395868Y-82093015D01*
X105395866Y-82093017D01*
X105370251Y-82115213D01*
X105306695Y-82144238D01*
X105289048Y-82145500D01*
X104710952Y-82145500D01*
X104643913Y-82125815D01*
X104629749Y-82115213D01*
X104604130Y-82093014D01*
X104561458Y-82065591D01*
X104483094Y-82015230D01*
X104483087Y-82015227D01*
X104483081Y-82015223D01*
X104358356Y-81958263D01*
X104354057Y-81956014D01*
X104214261Y-81914966D01*
X104214251Y-81914963D01*
X104086300Y-81896567D01*
X104071941Y-81894503D01*
X104071940Y-81894503D01*
X104015601Y-81894503D01*
X104015591Y-81894500D01*
X103964236Y-81894500D01*
X103535764Y-81894500D01*
X103484427Y-81894500D01*
X103484399Y-81894503D01*
X103428059Y-81894503D01*
X103294521Y-81913703D01*
X103294519Y-81913703D01*
X103285744Y-81914964D01*
X103147686Y-81955503D01*
X103016918Y-82015223D01*
X103016908Y-82015228D01*
X103016906Y-82015230D01*
X103008354Y-82020726D01*
X102895867Y-82093015D01*
X102895863Y-82093018D01*
X102787226Y-82187152D01*
X102787207Y-82187169D01*
X102787206Y-82187171D01*
X102692985Y-82295909D01*
X102692983Y-82295911D01*
X102692983Y-82295912D01*
X102692981Y-82295915D01*
X102615255Y-82416857D01*
X102615251Y-82416864D01*
X102612794Y-82422247D01*
X102567038Y-82475050D01*
X102499998Y-82494734D01*
X102432959Y-82475049D01*
X102387206Y-82422247D01*
X102384748Y-82416864D01*
X102384746Y-82416861D01*
X102310623Y-82301523D01*
X102309802Y-82300081D01*
X102307011Y-82295901D01*
X102212792Y-82187169D01*
X102212789Y-82187166D01*
X102104135Y-82093018D01*
X102104132Y-82093015D01*
X102061458Y-82065591D01*
X101983094Y-82015230D01*
X101983087Y-82015227D01*
X101983081Y-82015223D01*
X101858356Y-81958263D01*
X101854057Y-81956014D01*
X101714261Y-81914966D01*
X101714251Y-81914963D01*
X101586300Y-81896567D01*
X101571941Y-81894503D01*
X101571940Y-81894503D01*
X101515601Y-81894503D01*
X101515591Y-81894500D01*
X101464236Y-81894500D01*
X101035764Y-81894500D01*
X100984427Y-81894500D01*
X100984399Y-81894503D01*
X100928059Y-81894503D01*
X100794521Y-81913703D01*
X100794519Y-81913703D01*
X100785744Y-81914964D01*
X100647686Y-81955503D01*
X100516918Y-82015223D01*
X100516908Y-82015228D01*
X100516906Y-82015230D01*
X100508354Y-82020726D01*
X100395867Y-82093015D01*
X100395863Y-82093018D01*
X100287226Y-82187152D01*
X100287207Y-82187169D01*
X100287206Y-82187171D01*
X100192985Y-82295909D01*
X100192983Y-82295911D01*
X100192983Y-82295912D01*
X100192981Y-82295915D01*
X100115255Y-82416857D01*
X100115251Y-82416864D01*
X100112794Y-82422247D01*
X100067038Y-82475050D01*
X99999998Y-82494734D01*
X99932959Y-82475049D01*
X99887206Y-82422247D01*
X99884748Y-82416864D01*
X99884746Y-82416861D01*
X99810623Y-82301523D01*
X99809802Y-82300081D01*
X99807011Y-82295901D01*
X99712792Y-82187169D01*
X99712789Y-82187166D01*
X99604135Y-82093018D01*
X99604126Y-82093011D01*
X99556453Y-82062374D01*
X99510697Y-82009571D01*
X99500271Y-81944175D01*
X99505249Y-81900000D01*
X99504630Y-81894503D01*
X99486314Y-81731943D01*
X99430454Y-81572305D01*
X99430452Y-81572302D01*
X99340481Y-81429115D01*
X99340476Y-81429109D01*
X99220890Y-81309523D01*
X99220884Y-81309518D01*
X99077697Y-81219547D01*
X99077694Y-81219545D01*
X98918056Y-81163685D01*
X98750003Y-81144751D01*
X98749997Y-81144751D01*
X98581943Y-81163685D01*
X98422305Y-81219545D01*
X98422302Y-81219547D01*
X98279115Y-81309518D01*
X98279109Y-81309523D01*
X98159523Y-81429109D01*
X98159518Y-81429115D01*
X98069547Y-81572302D01*
X98069545Y-81572305D01*
X98013685Y-81731943D01*
X97994751Y-81899997D01*
X97999728Y-81944177D01*
X97987671Y-82012999D01*
X97943548Y-82062373D01*
X97895868Y-82093015D01*
X97895858Y-82093023D01*
X97787226Y-82187152D01*
X97787207Y-82187169D01*
X97787206Y-82187171D01*
X97692985Y-82295909D01*
X97692983Y-82295911D01*
X97692983Y-82295912D01*
X97692981Y-82295915D01*
X97615255Y-82416857D01*
X97615251Y-82416864D01*
X97612794Y-82422247D01*
X97567038Y-82475050D01*
X97499998Y-82494734D01*
X97432959Y-82475049D01*
X97387206Y-82422247D01*
X97384748Y-82416864D01*
X97384746Y-82416861D01*
X97310623Y-82301523D01*
X97309802Y-82300081D01*
X97307011Y-82295901D01*
X97212792Y-82187169D01*
X97212789Y-82187166D01*
X97104135Y-82093018D01*
X97104126Y-82093011D01*
X97056453Y-82062374D01*
X97010697Y-82009571D01*
X97000271Y-81944175D01*
X97005249Y-81900000D01*
X97004630Y-81894503D01*
X96986314Y-81731943D01*
X96930454Y-81572305D01*
X96930452Y-81572302D01*
X96840481Y-81429115D01*
X96840476Y-81429109D01*
X96720890Y-81309523D01*
X96720884Y-81309518D01*
X96577697Y-81219547D01*
X96577694Y-81219545D01*
X96418056Y-81163685D01*
X96250003Y-81144751D01*
X96249997Y-81144751D01*
X96081943Y-81163685D01*
X95922305Y-81219545D01*
X95922302Y-81219547D01*
X95779115Y-81309518D01*
X95779109Y-81309523D01*
X95659523Y-81429109D01*
X95659518Y-81429115D01*
X95569547Y-81572302D01*
X95569545Y-81572305D01*
X95513685Y-81731943D01*
X95494751Y-81899997D01*
X95499728Y-81944177D01*
X95487671Y-82012999D01*
X95443548Y-82062373D01*
X95395868Y-82093015D01*
X95395858Y-82093023D01*
X95287226Y-82187152D01*
X95287207Y-82187169D01*
X95287206Y-82187171D01*
X95192985Y-82295909D01*
X95192983Y-82295911D01*
X95192983Y-82295912D01*
X95192981Y-82295915D01*
X95115255Y-82416857D01*
X95115251Y-82416864D01*
X95112794Y-82422247D01*
X95067038Y-82475050D01*
X94999998Y-82494734D01*
X94932959Y-82475049D01*
X94887206Y-82422247D01*
X94884748Y-82416864D01*
X94884746Y-82416861D01*
X94810623Y-82301523D01*
X94809802Y-82300081D01*
X94807011Y-82295901D01*
X94712792Y-82187169D01*
X94712789Y-82187166D01*
X94604135Y-82093018D01*
X94604126Y-82093011D01*
X94556453Y-82062374D01*
X94510697Y-82009571D01*
X94500271Y-81944175D01*
X94505249Y-81900000D01*
X94504630Y-81894503D01*
X94486314Y-81731943D01*
X94430454Y-81572305D01*
X94430452Y-81572302D01*
X94340481Y-81429115D01*
X94340476Y-81429109D01*
X94220890Y-81309523D01*
X94220884Y-81309518D01*
X94077697Y-81219547D01*
X94077694Y-81219545D01*
X93918056Y-81163685D01*
X93750003Y-81144751D01*
X93749997Y-81144751D01*
X93581943Y-81163685D01*
X93422305Y-81219545D01*
X93422302Y-81219547D01*
X93279115Y-81309518D01*
X93279109Y-81309523D01*
X93159523Y-81429109D01*
X93159518Y-81429115D01*
X93069547Y-81572302D01*
X93069545Y-81572305D01*
X93013685Y-81731943D01*
X92994751Y-81899997D01*
X92999728Y-81944177D01*
X92987671Y-82012999D01*
X92943548Y-82062373D01*
X92895868Y-82093015D01*
X92895858Y-82093023D01*
X92787226Y-82187152D01*
X92787207Y-82187169D01*
X92787206Y-82187171D01*
X92692985Y-82295909D01*
X92692983Y-82295911D01*
X92692983Y-82295912D01*
X92692981Y-82295915D01*
X92615255Y-82416857D01*
X92615252Y-82416863D01*
X92555483Y-82547741D01*
X92514977Y-82685691D01*
X92514974Y-82685703D01*
X92494500Y-82828110D01*
X92494500Y-83400002D01*
X92499644Y-83471939D01*
X92510603Y-83509262D01*
X92514363Y-83561841D01*
X92494500Y-83699998D01*
X92494500Y-84271889D01*
X92514974Y-84414296D01*
X92514976Y-84414304D01*
X92540138Y-84500000D01*
X92555483Y-84552258D01*
X92615252Y-84683136D01*
X92615253Y-84683138D01*
X92689376Y-84798476D01*
X92690196Y-84799917D01*
X92692988Y-84804098D01*
X92787207Y-84912830D01*
X92787210Y-84912833D01*
X92895864Y-85006981D01*
X92895867Y-85006984D01*
X92895869Y-85006985D01*
X92895870Y-85006986D01*
X93016906Y-85084770D01*
X93016914Y-85084774D01*
X93016923Y-85084779D01*
X93141642Y-85141736D01*
X93145941Y-85143985D01*
X93151591Y-85145644D01*
X93285744Y-85185035D01*
X93285745Y-85185035D01*
X93285748Y-85185036D01*
X93328183Y-85191136D01*
X93428059Y-85205497D01*
X93484399Y-85205497D01*
X93484409Y-85205500D01*
X93535764Y-85205500D01*
X93816719Y-85205500D01*
X93883758Y-85225185D01*
X93904400Y-85241819D01*
X95411988Y-86749408D01*
X95411992Y-86749411D01*
X95514760Y-86818079D01*
X95514773Y-86818086D01*
X95628960Y-86865383D01*
X95628965Y-86865385D01*
X95628969Y-86865385D01*
X95628970Y-86865386D01*
X95750193Y-86889500D01*
X95750196Y-86889500D01*
X95750197Y-86889500D01*
X101384271Y-86889500D01*
X101451310Y-86909185D01*
X101471952Y-86925819D01*
X102088658Y-87542525D01*
X102122143Y-87603848D01*
X102124977Y-87630206D01*
X102124977Y-88237029D01*
X102117159Y-88280362D01*
X102108397Y-88303852D01*
X102101990Y-88363451D01*
X102101990Y-88363458D01*
X102101989Y-88363470D01*
X102101989Y-89959205D01*
X102101990Y-89959211D01*
X102108397Y-90018818D01*
X102158691Y-90153663D01*
X102158695Y-90153670D01*
X102244941Y-90268879D01*
X102244944Y-90268882D01*
X102360153Y-90355128D01*
X102360160Y-90355132D01*
X102405107Y-90371896D01*
X102495006Y-90405426D01*
X102554616Y-90411835D01*
X102950337Y-90411834D01*
X102988777Y-90407701D01*
X103015283Y-90407701D01*
X103053727Y-90411835D01*
X103449448Y-90411834D01*
X103488531Y-90407632D01*
X103515029Y-90407632D01*
X103554108Y-90411835D01*
X103949829Y-90411834D01*
X103988912Y-90407632D01*
X104015410Y-90407632D01*
X104054489Y-90411835D01*
X104450210Y-90411834D01*
X104489293Y-90407632D01*
X104515791Y-90407632D01*
X104554870Y-90411835D01*
X104950591Y-90411834D01*
X104989674Y-90407632D01*
X105016172Y-90407632D01*
X105055251Y-90411835D01*
X105450972Y-90411834D01*
X105490055Y-90407632D01*
X105516553Y-90407632D01*
X105555632Y-90411835D01*
X105951353Y-90411834D01*
X105989793Y-90407701D01*
X106016299Y-90407701D01*
X106054743Y-90411835D01*
X106450464Y-90411834D01*
X106488904Y-90407701D01*
X106515410Y-90407701D01*
X106553854Y-90411835D01*
X106949575Y-90411834D01*
X106988658Y-90407632D01*
X107015156Y-90407632D01*
X107054235Y-90411835D01*
X107449956Y-90411834D01*
X107509567Y-90405426D01*
X107644415Y-90355131D01*
X107759630Y-90268881D01*
X107845880Y-90153666D01*
X107896175Y-90018818D01*
X107902584Y-89959208D01*
X107902583Y-88363463D01*
X107896175Y-88303852D01*
X107887414Y-88280362D01*
X107879596Y-88237029D01*
X107879596Y-87659185D01*
X107899281Y-87592146D01*
X107915915Y-87571504D01*
X108561600Y-86925819D01*
X108622923Y-86892334D01*
X108649281Y-86889500D01*
X114249804Y-86889500D01*
X114249805Y-86889499D01*
X114371035Y-86865386D01*
X114452807Y-86831514D01*
X114485233Y-86818083D01*
X114588008Y-86749411D01*
X114675411Y-86662008D01*
X116095600Y-85241819D01*
X116156923Y-85208334D01*
X116183281Y-85205500D01*
X116515573Y-85205500D01*
X116515601Y-85205497D01*
X116571940Y-85205497D01*
X116571941Y-85205497D01*
X116705479Y-85186297D01*
X116705481Y-85186297D01*
X116711612Y-85185415D01*
X116714256Y-85185035D01*
X116714257Y-85185035D01*
X116852309Y-85144498D01*
X116983094Y-85084770D01*
X117104130Y-85006986D01*
X117112193Y-85000000D01*
X117129229Y-84985237D01*
X117212791Y-84912832D01*
X117212794Y-84912829D01*
X117212803Y-84912818D01*
X117213996Y-84911709D01*
X117214213Y-84911600D01*
X117214464Y-84911383D01*
X117214519Y-84911446D01*
X117276473Y-84880429D01*
X117345943Y-84887892D01*
X117400350Y-84931728D01*
X117422421Y-84998021D01*
X117422500Y-85002457D01*
X117422500Y-90388719D01*
X117402815Y-90455758D01*
X117386181Y-90476400D01*
X112664400Y-95198181D01*
X112603077Y-95231666D01*
X112576719Y-95234500D01*
X91713785Y-95234500D01*
X91646746Y-95214815D01*
X91600991Y-95162011D01*
X91591047Y-95092853D01*
X91592168Y-95086308D01*
X91604500Y-95024314D01*
X91604500Y-94963610D01*
X91605249Y-94950272D01*
X91605249Y-94949721D01*
X91604500Y-94936390D01*
X91604500Y-92158605D01*
X99550419Y-92158605D01*
X99550419Y-92756449D01*
X99556820Y-92815977D01*
X99556822Y-92815984D01*
X99607064Y-92950691D01*
X99607068Y-92950698D01*
X99693228Y-93065792D01*
X99693231Y-93065795D01*
X99808325Y-93151955D01*
X99808332Y-93151959D01*
X99943039Y-93202201D01*
X99943046Y-93202203D01*
X100002574Y-93208604D01*
X100002591Y-93208605D01*
X100800419Y-93208605D01*
X100800419Y-92158605D01*
X101300419Y-92158605D01*
X101300419Y-93208605D01*
X102098247Y-93208605D01*
X102098263Y-93208604D01*
X102157791Y-93202203D01*
X102157798Y-93202201D01*
X102292505Y-93151959D01*
X102292512Y-93151955D01*
X102407606Y-93065795D01*
X102407609Y-93065792D01*
X102493769Y-92950698D01*
X102493773Y-92950691D01*
X102544015Y-92815984D01*
X102544017Y-92815977D01*
X102550418Y-92756449D01*
X102550419Y-92756432D01*
X102550419Y-92158605D01*
X101300419Y-92158605D01*
X100800419Y-92158605D01*
X99550419Y-92158605D01*
X91604500Y-92158605D01*
X91604500Y-92089771D01*
X107449581Y-92089771D01*
X107449581Y-92687615D01*
X107455982Y-92747143D01*
X107455984Y-92747150D01*
X107506226Y-92881857D01*
X107506230Y-92881864D01*
X107592390Y-92996958D01*
X107592393Y-92996961D01*
X107707487Y-93083121D01*
X107707494Y-93083125D01*
X107842201Y-93133367D01*
X107842208Y-93133369D01*
X107901736Y-93139770D01*
X107901753Y-93139771D01*
X108699581Y-93139771D01*
X108699581Y-92089771D01*
X109199581Y-92089771D01*
X109199581Y-93139771D01*
X109997409Y-93139771D01*
X109997425Y-93139770D01*
X110056953Y-93133369D01*
X110056960Y-93133367D01*
X110191667Y-93083125D01*
X110191674Y-93083121D01*
X110306768Y-92996961D01*
X110306771Y-92996958D01*
X110392931Y-92881864D01*
X110392935Y-92881857D01*
X110443177Y-92747150D01*
X110443179Y-92747143D01*
X110449580Y-92687615D01*
X110449581Y-92687598D01*
X110449581Y-92089771D01*
X109199581Y-92089771D01*
X108699581Y-92089771D01*
X107449581Y-92089771D01*
X91604500Y-92089771D01*
X91604500Y-91658605D01*
X99550419Y-91658605D01*
X100800419Y-91658605D01*
X100800419Y-90608605D01*
X101300419Y-90608605D01*
X101300419Y-91658605D01*
X102550419Y-91658605D01*
X102550419Y-91589771D01*
X107449581Y-91589771D01*
X108699581Y-91589771D01*
X108699581Y-90539771D01*
X109199581Y-90539771D01*
X109199581Y-91589771D01*
X110449581Y-91589771D01*
X110449581Y-90991943D01*
X110449580Y-90991926D01*
X110443179Y-90932398D01*
X110443177Y-90932391D01*
X110392935Y-90797684D01*
X110392931Y-90797677D01*
X110306771Y-90682583D01*
X110306768Y-90682580D01*
X110191674Y-90596420D01*
X110191667Y-90596416D01*
X110056960Y-90546174D01*
X110056953Y-90546172D01*
X109997425Y-90539771D01*
X109199581Y-90539771D01*
X108699581Y-90539771D01*
X107901736Y-90539771D01*
X107842208Y-90546172D01*
X107842201Y-90546174D01*
X107707494Y-90596416D01*
X107707487Y-90596420D01*
X107592393Y-90682580D01*
X107592390Y-90682583D01*
X107506230Y-90797677D01*
X107506226Y-90797684D01*
X107455984Y-90932391D01*
X107455982Y-90932398D01*
X107449581Y-90991926D01*
X107449581Y-91589771D01*
X102550419Y-91589771D01*
X102550419Y-91060777D01*
X102550418Y-91060760D01*
X102544017Y-91001232D01*
X102544015Y-91001225D01*
X102493773Y-90866518D01*
X102493769Y-90866511D01*
X102407609Y-90751417D01*
X102407606Y-90751414D01*
X102292512Y-90665254D01*
X102292505Y-90665250D01*
X102157798Y-90615008D01*
X102157791Y-90615006D01*
X102098263Y-90608605D01*
X101300419Y-90608605D01*
X100800419Y-90608605D01*
X100002574Y-90608605D01*
X99943046Y-90615006D01*
X99943039Y-90615008D01*
X99808332Y-90665250D01*
X99808325Y-90665254D01*
X99693231Y-90751414D01*
X99693228Y-90751417D01*
X99607068Y-90866511D01*
X99607064Y-90866518D01*
X99556822Y-91001225D01*
X99556820Y-91001232D01*
X99550419Y-91060760D01*
X99550419Y-91658605D01*
X91604500Y-91658605D01*
X91604500Y-83980446D01*
X91604501Y-83980425D01*
X91604501Y-83825685D01*
X91575507Y-83679928D01*
X91575504Y-83679918D01*
X91572407Y-83672443D01*
X91572405Y-83672433D01*
X91572404Y-83672434D01*
X91547249Y-83611705D01*
X91540999Y-83596615D01*
X91518630Y-83542611D01*
X91471409Y-83471940D01*
X91471409Y-83471939D01*
X91436060Y-83419035D01*
X91436054Y-83419028D01*
X91326647Y-83309621D01*
X91326624Y-83309600D01*
X90530969Y-82513943D01*
X90530968Y-82513942D01*
X90407392Y-82431372D01*
X90407391Y-82431371D01*
X90407389Y-82431370D01*
X90407383Y-82431367D01*
X90407380Y-82431366D01*
X90401109Y-82428768D01*
X90346708Y-82384924D01*
X90324648Y-82318628D01*
X90341931Y-82250930D01*
X90360884Y-82226533D01*
X92097517Y-80489901D01*
X92158838Y-80456418D01*
X92228530Y-80461402D01*
G37*
%TD.AperFunction*%
%TA.AperFunction,Conductor*%
G36*
X63477103Y-91774185D02*
G01*
X63522858Y-91826989D01*
X63532802Y-91896147D01*
X63503777Y-91959703D01*
X63484376Y-91977766D01*
X63410805Y-92032841D01*
X63324645Y-92147935D01*
X63324641Y-92147942D01*
X63274399Y-92282649D01*
X63274397Y-92282656D01*
X63267996Y-92342184D01*
X63267996Y-92543268D01*
X64321805Y-92543268D01*
X64388844Y-92562953D01*
X64434599Y-92615757D01*
X64445805Y-92667268D01*
X64445805Y-92919268D01*
X64426120Y-92986307D01*
X64373316Y-93032062D01*
X64321805Y-93043268D01*
X63267996Y-93043268D01*
X63267996Y-93244351D01*
X63274397Y-93303879D01*
X63274399Y-93303886D01*
X63324641Y-93438593D01*
X63324642Y-93438595D01*
X63349579Y-93471907D01*
X63373995Y-93537372D01*
X63359143Y-93605645D01*
X63349579Y-93620526D01*
X63324201Y-93654426D01*
X63324198Y-93654432D01*
X63279550Y-93774142D01*
X63273905Y-93789278D01*
X63267496Y-93848888D01*
X63267496Y-93848895D01*
X63267496Y-93848896D01*
X63267496Y-93848897D01*
X63267497Y-94486445D01*
X63247813Y-94553484D01*
X63195009Y-94599239D01*
X63143497Y-94610445D01*
X62556503Y-94610445D01*
X62489464Y-94590760D01*
X62443709Y-94537956D01*
X62432503Y-94486445D01*
X62432503Y-93848890D01*
X62432502Y-93848884D01*
X62426095Y-93789277D01*
X62375801Y-93654433D01*
X62375800Y-93654430D01*
X62350419Y-93620525D01*
X62326003Y-93555064D01*
X62340855Y-93486791D01*
X62350421Y-93471905D01*
X62375355Y-93438597D01*
X62425601Y-93303883D01*
X62425602Y-93303879D01*
X62432003Y-93244351D01*
X62432004Y-93244334D01*
X62432004Y-93043268D01*
X61374000Y-93043268D01*
X61306961Y-93023583D01*
X61261206Y-92970779D01*
X61250000Y-92919268D01*
X61250000Y-92667268D01*
X61269685Y-92600229D01*
X61322489Y-92554474D01*
X61374000Y-92543268D01*
X62432004Y-92543268D01*
X62432004Y-92342201D01*
X62432003Y-92342184D01*
X62425602Y-92282656D01*
X62425600Y-92282649D01*
X62375358Y-92147942D01*
X62375354Y-92147935D01*
X62289194Y-92032841D01*
X62215624Y-91977766D01*
X62173754Y-91921832D01*
X62168770Y-91852141D01*
X62202256Y-91790818D01*
X62263579Y-91757333D01*
X62289936Y-91754500D01*
X63410064Y-91754500D01*
X63477103Y-91774185D01*
G37*
%TD.AperFunction*%
%TA.AperFunction,Conductor*%
G36*
X64591834Y-76659283D02*
G01*
X64647767Y-76701155D01*
X64672184Y-76766619D01*
X64672500Y-76775465D01*
X64672500Y-82875500D01*
X64652815Y-82942539D01*
X64600011Y-82988294D01*
X64548500Y-82999500D01*
X64252130Y-82999500D01*
X64252123Y-82999501D01*
X64192516Y-83005908D01*
X64057671Y-83056202D01*
X64057664Y-83056206D01*
X63942455Y-83142452D01*
X63854537Y-83259894D01*
X63798603Y-83301764D01*
X63728911Y-83306748D01*
X63679109Y-83283436D01*
X63623230Y-83239943D01*
X63623228Y-83239942D01*
X63404614Y-83121635D01*
X63404603Y-83121630D01*
X63169493Y-83040916D01*
X62924293Y-83000000D01*
X62675707Y-83000000D01*
X62430506Y-83040916D01*
X62195396Y-83121630D01*
X62195390Y-83121632D01*
X61976761Y-83239949D01*
X61929942Y-83276388D01*
X61929942Y-83276390D01*
X62670590Y-84017037D01*
X62607007Y-84034075D01*
X62492993Y-84099901D01*
X62399901Y-84192993D01*
X62334075Y-84307007D01*
X62317037Y-84370589D01*
X61567372Y-83620924D01*
X61533885Y-83614752D01*
X61492873Y-83578053D01*
X61491317Y-83579265D01*
X61488169Y-83575220D01*
X61427450Y-83509262D01*
X61319744Y-83392262D01*
X61123509Y-83239526D01*
X61123508Y-83239525D01*
X61123505Y-83239523D01*
X61123498Y-83239519D01*
X60992482Y-83168616D01*
X60942892Y-83119397D01*
X60927500Y-83059562D01*
X60927500Y-80272465D01*
X60947185Y-80205426D01*
X60963819Y-80184784D01*
X64460819Y-76687784D01*
X64522142Y-76654299D01*
X64591834Y-76659283D01*
G37*
%TD.AperFunction*%
%TA.AperFunction,Conductor*%
G36*
X96668278Y-77096505D02*
G01*
X96722310Y-77130456D01*
X96881941Y-77186313D01*
X96881944Y-77186314D01*
X96939370Y-77192784D01*
X97003784Y-77219850D01*
X97043339Y-77277444D01*
X97049487Y-77316003D01*
X97049487Y-77467719D01*
X97049488Y-77467726D01*
X97055895Y-77527333D01*
X97106189Y-77662178D01*
X97106193Y-77662185D01*
X97192439Y-77777394D01*
X97192442Y-77777397D01*
X97307651Y-77863643D01*
X97307658Y-77863647D01*
X97442504Y-77913941D01*
X97442503Y-77913941D01*
X97449431Y-77914685D01*
X97502114Y-77920350D01*
X98497859Y-77920349D01*
X98557470Y-77913941D01*
X98591654Y-77901190D01*
X98661343Y-77896205D01*
X98678318Y-77901189D01*
X98712507Y-77913941D01*
X98772117Y-77920350D01*
X99767862Y-77920349D01*
X99827473Y-77913941D01*
X99861657Y-77901190D01*
X99931346Y-77896205D01*
X99948313Y-77901186D01*
X99982509Y-77913941D01*
X100042119Y-77920350D01*
X100959010Y-77920349D01*
X101026049Y-77940033D01*
X101071804Y-77992837D01*
X101076052Y-78003395D01*
X101119544Y-78127692D01*
X101119547Y-78127697D01*
X101209518Y-78270884D01*
X101209523Y-78270890D01*
X101329109Y-78390476D01*
X101329115Y-78390481D01*
X101472302Y-78480452D01*
X101472305Y-78480454D01*
X101472309Y-78480455D01*
X101472310Y-78480456D01*
X101528127Y-78499987D01*
X101631943Y-78536314D01*
X101799997Y-78555249D01*
X101800000Y-78555249D01*
X101800003Y-78555249D01*
X101968056Y-78536314D01*
X101968059Y-78536313D01*
X102127690Y-78480456D01*
X102127692Y-78480454D01*
X102127694Y-78480454D01*
X102127697Y-78480452D01*
X102270884Y-78390481D01*
X102270885Y-78390480D01*
X102270890Y-78390477D01*
X102390477Y-78270890D01*
X102480456Y-78127690D01*
X102523948Y-78003393D01*
X102564670Y-77946619D01*
X102629622Y-77920871D01*
X102640969Y-77920349D01*
X103577869Y-77920349D01*
X103637480Y-77913941D01*
X103671664Y-77901190D01*
X103741353Y-77896205D01*
X103758328Y-77901189D01*
X103792517Y-77913941D01*
X103852127Y-77920350D01*
X104847872Y-77920349D01*
X104907483Y-77913941D01*
X104941667Y-77901190D01*
X105011356Y-77896205D01*
X105028323Y-77901186D01*
X105062519Y-77913941D01*
X105122129Y-77920350D01*
X106117874Y-77920349D01*
X106177485Y-77913941D01*
X106211669Y-77901190D01*
X106281358Y-77896205D01*
X106298333Y-77901189D01*
X106332522Y-77913941D01*
X106392132Y-77920350D01*
X107387877Y-77920349D01*
X107447488Y-77913941D01*
X107481672Y-77901190D01*
X107551361Y-77896205D01*
X107568328Y-77901186D01*
X107602524Y-77913941D01*
X107662134Y-77920350D01*
X107798572Y-77920349D01*
X107865612Y-77940033D01*
X107886254Y-77956668D01*
X110929594Y-81000008D01*
X110988614Y-81059028D01*
X111016999Y-81087413D01*
X111017001Y-81087414D01*
X111119761Y-81156076D01*
X111119763Y-81156077D01*
X111119772Y-81156083D01*
X111144777Y-81166440D01*
X111167076Y-81175677D01*
X111209259Y-81193149D01*
X111233971Y-81203386D01*
X111315204Y-81219544D01*
X111355197Y-81227499D01*
X111355201Y-81227500D01*
X111355202Y-81227500D01*
X116838719Y-81227500D01*
X116905758Y-81247185D01*
X116926400Y-81263819D01*
X117386181Y-81723600D01*
X117419666Y-81784923D01*
X117422500Y-81811281D01*
X117422500Y-83149938D01*
X117402815Y-83216977D01*
X117350011Y-83262732D01*
X117280853Y-83272676D01*
X117246989Y-83262732D01*
X117142422Y-83214977D01*
X117142414Y-83214975D01*
X117000000Y-83194500D01*
X116535763Y-83194500D01*
X116464236Y-83194500D01*
X116035764Y-83194500D01*
X115964237Y-83194500D01*
X115500000Y-83194500D01*
X115499997Y-83194500D01*
X115428059Y-83199644D01*
X115290005Y-83240182D01*
X115168969Y-83317967D01*
X115168968Y-83317968D01*
X115093874Y-83404630D01*
X115035095Y-83442404D01*
X114965225Y-83442403D01*
X114906448Y-83404627D01*
X114895846Y-83390465D01*
X114882031Y-83368968D01*
X114851295Y-83342335D01*
X114773299Y-83274750D01*
X114773297Y-83274748D01*
X114773294Y-83274746D01*
X114773290Y-83274744D01*
X114642419Y-83214976D01*
X114642414Y-83214975D01*
X114500000Y-83194500D01*
X114035763Y-83194500D01*
X113964236Y-83194500D01*
X113535764Y-83194500D01*
X113464237Y-83194500D01*
X113000000Y-83194500D01*
X112999997Y-83194500D01*
X112928059Y-83199644D01*
X112790005Y-83240182D01*
X112668969Y-83317967D01*
X112668968Y-83317968D01*
X112593874Y-83404630D01*
X112535095Y-83442404D01*
X112465225Y-83442403D01*
X112406448Y-83404627D01*
X112395846Y-83390465D01*
X112382031Y-83368968D01*
X112351295Y-83342335D01*
X112273299Y-83274750D01*
X112273297Y-83274748D01*
X112273294Y-83274746D01*
X112273290Y-83274744D01*
X112142419Y-83214976D01*
X112142414Y-83214975D01*
X112000000Y-83194500D01*
X111535763Y-83194500D01*
X111464236Y-83194500D01*
X111035764Y-83194500D01*
X110964237Y-83194500D01*
X110500000Y-83194500D01*
X110499997Y-83194500D01*
X110428059Y-83199644D01*
X110290005Y-83240182D01*
X110290001Y-83240184D01*
X110196539Y-83300249D01*
X110129500Y-83319934D01*
X110062460Y-83300249D01*
X110016706Y-83247445D01*
X110005500Y-83195934D01*
X110005500Y-82828114D01*
X110005500Y-82828111D01*
X109985024Y-82685696D01*
X109944517Y-82547741D01*
X109884747Y-82416863D01*
X109810623Y-82301523D01*
X109809802Y-82300081D01*
X109807011Y-82295901D01*
X109712792Y-82187169D01*
X109712789Y-82187166D01*
X109604135Y-82093018D01*
X109604132Y-82093015D01*
X109561458Y-82065591D01*
X109483094Y-82015230D01*
X109483087Y-82015227D01*
X109483081Y-82015223D01*
X109358356Y-81958263D01*
X109354057Y-81956014D01*
X109214261Y-81914966D01*
X109214251Y-81914963D01*
X109086300Y-81896567D01*
X109071941Y-81894503D01*
X109071940Y-81894503D01*
X109015601Y-81894503D01*
X109015591Y-81894500D01*
X108964236Y-81894500D01*
X108535764Y-81894500D01*
X108484427Y-81894500D01*
X108484399Y-81894503D01*
X108428059Y-81894503D01*
X108294521Y-81913703D01*
X108294519Y-81913703D01*
X108285744Y-81914964D01*
X108147686Y-81955503D01*
X108016918Y-82015223D01*
X108016908Y-82015228D01*
X108016906Y-82015230D01*
X108008354Y-82020726D01*
X107895869Y-82093014D01*
X107870251Y-82115213D01*
X107806695Y-82144238D01*
X107789048Y-82145500D01*
X107210952Y-82145500D01*
X107143913Y-82125815D01*
X107129749Y-82115213D01*
X107104140Y-82093023D01*
X107104130Y-82093014D01*
X107061459Y-82065591D01*
X107015705Y-82012786D01*
X107004500Y-81961276D01*
X107004500Y-81465687D01*
X107004499Y-81465683D01*
X106975505Y-81319920D01*
X106918629Y-81182610D01*
X106905985Y-81163687D01*
X106836060Y-81059035D01*
X106836054Y-81059028D01*
X106726647Y-80949621D01*
X106726624Y-80949600D01*
X105090969Y-79313943D01*
X105090968Y-79313942D01*
X105043034Y-79281914D01*
X104967389Y-79231370D01*
X104967386Y-79231368D01*
X104967385Y-79231368D01*
X104886955Y-79198053D01*
X104830080Y-79174495D01*
X104828501Y-79174181D01*
X104805894Y-79169684D01*
X104783659Y-79165261D01*
X104684314Y-79145499D01*
X104684312Y-79145499D01*
X104535688Y-79145499D01*
X104529574Y-79145499D01*
X104529554Y-79145500D01*
X93741281Y-79145500D01*
X93674242Y-79125815D01*
X93628487Y-79073011D01*
X93618543Y-79003853D01*
X93647568Y-78940297D01*
X93653600Y-78933819D01*
X95473600Y-77113819D01*
X95534923Y-77080334D01*
X95561281Y-77077500D01*
X96602307Y-77077500D01*
X96668278Y-77096505D01*
G37*
%TD.AperFunction*%
%TA.AperFunction,Conductor*%
G36*
X74488538Y-74309185D02*
G01*
X74534293Y-74361989D01*
X74545499Y-74413500D01*
X74545499Y-74424313D01*
X74562068Y-74507610D01*
X74563669Y-74517898D01*
X74563686Y-74518056D01*
X74565236Y-74524842D01*
X74565147Y-74524862D01*
X74566450Y-74529640D01*
X74574494Y-74570076D01*
X74574495Y-74570081D01*
X74631366Y-74707381D01*
X74631372Y-74707392D01*
X74713942Y-74830968D01*
X74713943Y-74830969D01*
X75709181Y-75826205D01*
X75742666Y-75887528D01*
X75745500Y-75913886D01*
X75745500Y-79488676D01*
X75725815Y-79555715D01*
X75673011Y-79601470D01*
X75603853Y-79611414D01*
X75589936Y-79607861D01*
X75589860Y-79608187D01*
X75582302Y-79606401D01*
X75522774Y-79600000D01*
X73824930Y-79600000D01*
X73824930Y-80726000D01*
X73805245Y-80793039D01*
X73752441Y-80838794D01*
X73700930Y-80850000D01*
X73448930Y-80850000D01*
X73381891Y-80830315D01*
X73336136Y-80777511D01*
X73324930Y-80726000D01*
X73324930Y-79600000D01*
X71927517Y-79600000D01*
X71860478Y-79580315D01*
X71814723Y-79527511D01*
X71803517Y-79476000D01*
X71803517Y-74864215D01*
X71802095Y-74857068D01*
X71797200Y-74832458D01*
X71796903Y-74830966D01*
X71780931Y-74750666D01*
X71779403Y-74742983D01*
X71742761Y-74654523D01*
X71732100Y-74628784D01*
X71731370Y-74627692D01*
X71663431Y-74526013D01*
X71663425Y-74526005D01*
X71638601Y-74501181D01*
X71605116Y-74439858D01*
X71610100Y-74370166D01*
X71651972Y-74314233D01*
X71717436Y-74289816D01*
X71726282Y-74289500D01*
X74421499Y-74289500D01*
X74488538Y-74309185D01*
G37*
%TD.AperFunction*%
%TA.AperFunction,Conductor*%
G36*
X84770603Y-73617541D02*
G01*
X84826537Y-73659413D01*
X84850954Y-73724877D01*
X84851145Y-73730241D01*
X84851270Y-73730366D01*
X84929327Y-73730366D01*
X84996366Y-73750051D01*
X85003638Y-73755100D01*
X85108934Y-73833925D01*
X85108941Y-73833929D01*
X85136187Y-73844091D01*
X85243787Y-73884223D01*
X85303397Y-73890632D01*
X85747274Y-73890631D01*
X85814312Y-73910315D01*
X85860067Y-73963119D01*
X85871273Y-74014631D01*
X85871273Y-74106366D01*
X85851588Y-74173405D01*
X85798784Y-74219160D01*
X85747273Y-74230366D01*
X84851270Y-74230366D01*
X84851270Y-74278210D01*
X84857671Y-74337738D01*
X84857673Y-74337745D01*
X84907915Y-74472452D01*
X84907917Y-74472455D01*
X84923438Y-74493188D01*
X84947856Y-74558652D01*
X84933005Y-74626925D01*
X84883601Y-74676331D01*
X84824172Y-74691500D01*
X83893494Y-74691500D01*
X83826455Y-74671815D01*
X83780700Y-74619011D01*
X83770756Y-74549853D01*
X83799781Y-74486297D01*
X83805813Y-74479819D01*
X84639589Y-73646042D01*
X84700912Y-73612557D01*
X84770603Y-73617541D01*
G37*
%TD.AperFunction*%
%TA.AperFunction,Conductor*%
G36*
X87771754Y-67957636D02*
G01*
X87827688Y-67999508D01*
X87852105Y-68064972D01*
X87852421Y-68073814D01*
X87852421Y-68104473D01*
X87852422Y-68104481D01*
X87858829Y-68164088D01*
X87909123Y-68298933D01*
X87909127Y-68298940D01*
X87991909Y-68409521D01*
X87995375Y-68414151D01*
X87995378Y-68414153D01*
X88001649Y-68420425D01*
X87999253Y-68422820D01*
X88031308Y-68465601D01*
X88038366Y-68522871D01*
X88029676Y-68599997D01*
X88029676Y-68600002D01*
X88048611Y-68768057D01*
X88104468Y-68927690D01*
X88138418Y-68981719D01*
X88157425Y-69047692D01*
X88157425Y-70488719D01*
X88137740Y-70555758D01*
X88121106Y-70576400D01*
X86838689Y-71858817D01*
X86777366Y-71892302D01*
X86751008Y-71895136D01*
X85264884Y-71895136D01*
X85260707Y-71899313D01*
X85199384Y-71932798D01*
X85173026Y-71935632D01*
X84996748Y-71935632D01*
X84929709Y-71915947D01*
X84909067Y-71899313D01*
X84904890Y-71895136D01*
X83403143Y-71895136D01*
X83336104Y-71875451D01*
X83323433Y-71865240D01*
X82834925Y-71865240D01*
X82834925Y-72365240D01*
X82902756Y-72365240D01*
X82902772Y-72365239D01*
X82962300Y-72358838D01*
X82962307Y-72358836D01*
X83097014Y-72308594D01*
X83097021Y-72308590D01*
X83212115Y-72222430D01*
X83212116Y-72222429D01*
X83249448Y-72172560D01*
X83305381Y-72130688D01*
X83375072Y-72125704D01*
X83436396Y-72159188D01*
X83447981Y-72172558D01*
X83507696Y-72252326D01*
X83622790Y-72338486D01*
X83622797Y-72338490D01*
X83757504Y-72388732D01*
X83757511Y-72388734D01*
X83817039Y-72395135D01*
X83820363Y-72395313D01*
X83820353Y-72395491D01*
X83820359Y-72395492D01*
X83820347Y-72395595D01*
X83820309Y-72396314D01*
X83883335Y-72414821D01*
X83929090Y-72467625D01*
X83939034Y-72536783D01*
X83910009Y-72600339D01*
X83903977Y-72606817D01*
X82236613Y-74274181D01*
X82175290Y-74307666D01*
X82148932Y-74310500D01*
X78748366Y-74310500D01*
X78681327Y-74290815D01*
X78660685Y-74274181D01*
X78161735Y-73775231D01*
X78128250Y-73713908D01*
X78133234Y-73644216D01*
X78175106Y-73588283D01*
X78236164Y-73564260D01*
X78242299Y-73563600D01*
X78260989Y-73556629D01*
X78330681Y-73551643D01*
X78347658Y-73556628D01*
X78347661Y-73556629D01*
X78367676Y-73564094D01*
X78427286Y-73570503D01*
X79023031Y-73570502D01*
X79082642Y-73564094D01*
X79217490Y-73513799D01*
X79332705Y-73427549D01*
X79418955Y-73312334D01*
X79469250Y-73177486D01*
X79475659Y-73117876D01*
X79475658Y-73009915D01*
X79495342Y-72942878D01*
X79548146Y-72897123D01*
X79617304Y-72887179D01*
X79640287Y-72893045D01*
X79642627Y-72893598D01*
X79702155Y-72899999D01*
X79702172Y-72900000D01*
X79950000Y-72900000D01*
X79950000Y-72250000D01*
X80450000Y-72250000D01*
X80450000Y-72900000D01*
X80697828Y-72900000D01*
X80697844Y-72899999D01*
X80757372Y-72893598D01*
X80757379Y-72893596D01*
X80892086Y-72843354D01*
X80892093Y-72843350D01*
X81007187Y-72757190D01*
X81007190Y-72757187D01*
X81093350Y-72642093D01*
X81093354Y-72642086D01*
X81143596Y-72507379D01*
X81143598Y-72507372D01*
X81149999Y-72447844D01*
X81150000Y-72447827D01*
X81150000Y-72250000D01*
X80450000Y-72250000D01*
X79950000Y-72250000D01*
X79950000Y-71874000D01*
X79952572Y-71865240D01*
X81814922Y-71865240D01*
X81814922Y-71913084D01*
X81821323Y-71972612D01*
X81821325Y-71972619D01*
X81871567Y-72107326D01*
X81871571Y-72107333D01*
X81957731Y-72222427D01*
X81957734Y-72222430D01*
X82072828Y-72308590D01*
X82072835Y-72308594D01*
X82207542Y-72358836D01*
X82207549Y-72358838D01*
X82267077Y-72365239D01*
X82267094Y-72365240D01*
X82334925Y-72365240D01*
X82334925Y-71865240D01*
X81814922Y-71865240D01*
X79952572Y-71865240D01*
X79969685Y-71806961D01*
X80022489Y-71761206D01*
X80074000Y-71750000D01*
X81150000Y-71750000D01*
X81150000Y-71552172D01*
X81149999Y-71552155D01*
X81143598Y-71492627D01*
X81143596Y-71492620D01*
X81107106Y-71394783D01*
X81102122Y-71325091D01*
X81135607Y-71263768D01*
X81196931Y-71230284D01*
X81223288Y-71227450D01*
X81561854Y-71227450D01*
X81561855Y-71227449D01*
X81666731Y-71206589D01*
X81736322Y-71212816D01*
X81791500Y-71255679D01*
X81814744Y-71321569D01*
X81814922Y-71328206D01*
X81814922Y-71365240D01*
X81892979Y-71365240D01*
X81960018Y-71384925D01*
X81967290Y-71389974D01*
X82072586Y-71468799D01*
X82072593Y-71468803D01*
X82088868Y-71474873D01*
X82207439Y-71519097D01*
X82267049Y-71525506D01*
X82902800Y-71525505D01*
X82903792Y-71525398D01*
X82904104Y-71525365D01*
X82917357Y-71524655D01*
X83669775Y-71524655D01*
X83713108Y-71532473D01*
X83757401Y-71548993D01*
X83817011Y-71555402D01*
X84028243Y-71555401D01*
X84052436Y-71557784D01*
X84060575Y-71559403D01*
X84209199Y-71559403D01*
X84217338Y-71557784D01*
X84241530Y-71555401D01*
X84452761Y-71555401D01*
X84452762Y-71555401D01*
X84512373Y-71548993D01*
X84647221Y-71498698D01*
X84711267Y-71450753D01*
X84752522Y-71419870D01*
X84817986Y-71395452D01*
X84826833Y-71395136D01*
X84904890Y-71395136D01*
X84904890Y-71347308D01*
X84904889Y-71347291D01*
X84898488Y-71287759D01*
X84891516Y-71269068D01*
X84886530Y-71199377D01*
X84891510Y-71182413D01*
X84898981Y-71162385D01*
X84905390Y-71102775D01*
X84905389Y-70507030D01*
X84898981Y-70447419D01*
X84897204Y-70442654D01*
X84889387Y-70399323D01*
X84889387Y-70111226D01*
X84897205Y-70067892D01*
X84905207Y-70046438D01*
X84929054Y-69982502D01*
X84935463Y-69922892D01*
X84935462Y-69199017D01*
X84955146Y-69131980D01*
X85007950Y-69086225D01*
X85059462Y-69075019D01*
X85110387Y-69075019D01*
X85177426Y-69094704D01*
X85223181Y-69147508D01*
X85234387Y-69199019D01*
X85234387Y-69922889D01*
X85234388Y-69922895D01*
X85240795Y-69982500D01*
X85240796Y-69982502D01*
X85272569Y-70067691D01*
X85280387Y-70111022D01*
X85280387Y-70399323D01*
X85272570Y-70442654D01*
X85270793Y-70447419D01*
X85264384Y-70507029D01*
X85264384Y-70507036D01*
X85264384Y-70507037D01*
X85264384Y-71102772D01*
X85264385Y-71102778D01*
X85270792Y-71162385D01*
X85278258Y-71182400D01*
X85283242Y-71252091D01*
X85278258Y-71269065D01*
X85271287Y-71287752D01*
X85271285Y-71287763D01*
X85264884Y-71347291D01*
X85264884Y-71395136D01*
X85342941Y-71395136D01*
X85409980Y-71414821D01*
X85417252Y-71419870D01*
X85522548Y-71498695D01*
X85522555Y-71498699D01*
X85561081Y-71513068D01*
X85657401Y-71548993D01*
X85717011Y-71555402D01*
X85928246Y-71555401D01*
X85952443Y-71557785D01*
X85960571Y-71559402D01*
X85960575Y-71559402D01*
X86109203Y-71559402D01*
X86117331Y-71557785D01*
X86141527Y-71555401D01*
X86352761Y-71555401D01*
X86352762Y-71555401D01*
X86412373Y-71548993D01*
X86547221Y-71498698D01*
X86611267Y-71450753D01*
X86652522Y-71419870D01*
X86717986Y-71395452D01*
X86726833Y-71395136D01*
X86804890Y-71395136D01*
X86804890Y-71347308D01*
X86804889Y-71347291D01*
X86798488Y-71287759D01*
X86791516Y-71269068D01*
X86786530Y-71199377D01*
X86791510Y-71182413D01*
X86798981Y-71162385D01*
X86805390Y-71102775D01*
X86805389Y-70507030D01*
X86798981Y-70447419D01*
X86797204Y-70442654D01*
X86789387Y-70399323D01*
X86789387Y-70111022D01*
X86797204Y-70067691D01*
X86828978Y-69982502D01*
X86835387Y-69922892D01*
X86835386Y-68842853D01*
X86855071Y-68775815D01*
X86871700Y-68755177D01*
X87640742Y-67986135D01*
X87702063Y-67952652D01*
X87771754Y-67957636D01*
G37*
%TD.AperFunction*%
%TA.AperFunction,Conductor*%
G36*
X75377964Y-68369685D02*
G01*
X75423719Y-68422489D01*
X75434925Y-68474000D01*
X75434925Y-69422238D01*
X75415240Y-69489277D01*
X75362436Y-69535032D01*
X75350201Y-69537693D01*
X75341657Y-69546238D01*
X75341657Y-69850000D01*
X75994896Y-69850000D01*
X75994896Y-69620168D01*
X75994895Y-69620151D01*
X75988494Y-69560623D01*
X75988493Y-69560619D01*
X75957538Y-69477625D01*
X75952554Y-69407933D01*
X75974454Y-69359980D01*
X76060279Y-69245332D01*
X76060284Y-69245323D01*
X76075151Y-69205463D01*
X76117021Y-69149529D01*
X76182485Y-69125111D01*
X76250758Y-69139962D01*
X76279014Y-69161114D01*
X76513965Y-69396065D01*
X76547450Y-69457388D01*
X76542466Y-69527080D01*
X76525551Y-69558057D01*
X76471622Y-69630096D01*
X76471620Y-69630099D01*
X76421326Y-69764945D01*
X76414919Y-69824544D01*
X76414918Y-69824555D01*
X76414918Y-70382032D01*
X76414919Y-70821500D01*
X76395235Y-70888539D01*
X76342431Y-70934294D01*
X76290919Y-70945500D01*
X76052912Y-70945500D01*
X75985873Y-70925815D01*
X75940118Y-70873011D01*
X75930174Y-70803853D01*
X75936730Y-70778167D01*
X75988492Y-70639383D01*
X75988494Y-70639376D01*
X75994895Y-70579848D01*
X75994896Y-70579831D01*
X75994896Y-70350000D01*
X74965657Y-70350000D01*
X74898618Y-70330315D01*
X74852863Y-70277511D01*
X74841657Y-70226000D01*
X74841657Y-69248996D01*
X74861342Y-69181957D01*
X74914146Y-69136202D01*
X74926380Y-69133540D01*
X74934925Y-69124996D01*
X74934925Y-68474000D01*
X74954610Y-68406961D01*
X75007414Y-68361206D01*
X75058925Y-68350000D01*
X75310925Y-68350000D01*
X75377964Y-68369685D01*
G37*
%TD.AperFunction*%
%TA.AperFunction,Conductor*%
G36*
X94934739Y-67874214D02*
G01*
X94976615Y-67930144D01*
X94984437Y-67973487D01*
X94984437Y-68267795D01*
X94984438Y-68267802D01*
X94990845Y-68327409D01*
X95003596Y-68361594D01*
X95008580Y-68431286D01*
X95003596Y-68448259D01*
X94990846Y-68482443D01*
X94990845Y-68482445D01*
X94984544Y-68541059D01*
X94984438Y-68542052D01*
X94984437Y-68542064D01*
X94984437Y-69099994D01*
X94964752Y-69167033D01*
X94911948Y-69212788D01*
X94842790Y-69222732D01*
X94801015Y-69208829D01*
X94797019Y-69206647D01*
X94662307Y-69156403D01*
X94662300Y-69156401D01*
X94602772Y-69150000D01*
X94568654Y-69150000D01*
X94501615Y-69130315D01*
X94455860Y-69077511D01*
X94445916Y-69008353D01*
X94474941Y-68944797D01*
X94480973Y-68938319D01*
X94527031Y-68892261D01*
X94575402Y-68843890D01*
X94592078Y-68817351D01*
X94665377Y-68700697D01*
X94665379Y-68700694D01*
X94665379Y-68700692D01*
X94665381Y-68700690D01*
X94721238Y-68541059D01*
X94721238Y-68541058D01*
X94721239Y-68541056D01*
X94740174Y-68373002D01*
X94740174Y-68372997D01*
X94721238Y-68204940D01*
X94721238Y-68204938D01*
X94665464Y-68045547D01*
X94661902Y-67975768D01*
X94696630Y-67915141D01*
X94739174Y-67888409D01*
X94797016Y-67866836D01*
X94801001Y-67864660D01*
X94869273Y-67849802D01*
X94934739Y-67874214D01*
G37*
%TD.AperFunction*%
%TA.AperFunction,Conductor*%
G36*
X72410668Y-64265989D02*
G01*
X72445647Y-64316369D01*
X72459161Y-64352603D01*
X72459165Y-64352610D01*
X72545410Y-64467818D01*
X72545411Y-64467819D01*
X72545413Y-64467821D01*
X72652876Y-64548268D01*
X72694746Y-64604200D01*
X72699730Y-64673892D01*
X72679959Y-64710100D01*
X72679959Y-65000162D01*
X72672141Y-65043495D01*
X72645837Y-65114018D01*
X72640823Y-65160659D01*
X72639429Y-65173628D01*
X72639429Y-65790481D01*
X72639430Y-65920996D01*
X72619746Y-65988035D01*
X72566942Y-66033790D01*
X72515430Y-66044996D01*
X72363501Y-66044996D01*
X72296462Y-66025311D01*
X72250707Y-65972507D01*
X72239501Y-65920996D01*
X72239501Y-65725686D01*
X72232879Y-65692398D01*
X72230496Y-65668205D01*
X72230496Y-65173630D01*
X72230495Y-65173624D01*
X72230494Y-65173617D01*
X72224088Y-65114018D01*
X72220254Y-65103739D01*
X72197785Y-65043495D01*
X72189967Y-65000162D01*
X72189967Y-64878012D01*
X72197787Y-64834674D01*
X72199057Y-64831270D01*
X72205466Y-64771660D01*
X72205465Y-64359700D01*
X72225149Y-64292663D01*
X72277953Y-64246908D01*
X72347112Y-64236964D01*
X72410668Y-64265989D01*
G37*
%TD.AperFunction*%
%TD*%
M02*
