%TF.GenerationSoftware,KiCad,Pcbnew,8.0.1*%
%TF.CreationDate,2026-04-02T16:40:09+02:00*%
%TF.ProjectId,memory_pcb,6d656d6f-7279-45f7-9063-622e6b696361,rev?*%
%TF.SameCoordinates,Original*%
%TF.FileFunction,Soldermask,Top*%
%TF.FilePolarity,Negative*%
%FSLAX46Y46*%
G04 Gerber Fmt 4.6, Leading zero omitted, Abs format (unit mm)*
G04 Created by KiCad (PCBNEW 8.0.1) date 2026-04-02 16:40:09*
%MOMM*%
%LPD*%
G01*
G04 APERTURE LIST*
G04 Aperture macros list*
%AMFreePoly0*
4,1,19,0.500000,-0.750000,0.000000,-0.750000,0.000000,-0.744911,-0.071157,-0.744911,-0.207708,-0.704816,-0.327430,-0.627875,-0.420627,-0.520320,-0.479746,-0.390866,-0.500000,-0.250000,-0.500000,0.250000,-0.479746,0.390866,-0.420627,0.520320,-0.327430,0.627875,-0.207708,0.704816,-0.071157,0.744911,0.000000,0.744911,0.000000,0.750000,0.500000,0.750000,0.500000,-0.750000,0.500000,-0.750000,
$1*%
%AMFreePoly1*
4,1,19,0.000000,0.744911,0.071157,0.744911,0.207708,0.704816,0.327430,0.627875,0.420627,0.520320,0.479746,0.390866,0.500000,0.250000,0.500000,-0.250000,0.479746,-0.390866,0.420627,-0.520320,0.327430,-0.627875,0.207708,-0.704816,0.071157,-0.744911,0.000000,-0.744911,0.000000,-0.750000,-0.500000,-0.750000,-0.500000,0.750000,0.000000,0.750000,0.000000,0.744911,0.000000,0.744911,
$1*%
%AMFreePoly2*
4,1,9,0.299924,-0.649936,-0.000051,-0.649936,-0.000051,-0.650089,-0.300051,-0.650089,-0.300051,0.649936,-0.000076,0.649936,-0.000076,0.650089,0.299924,0.650089,0.299924,-0.649936,0.299924,-0.649936,$1*%
%AMFreePoly3*
4,1,9,0.300076,-0.650038,0.000127,-0.650038,0.000127,-0.650064,-0.299898,-0.650064,-0.299898,0.649911,0.000051,0.649911,0.000051,0.649936,0.300076,0.649936,0.300076,-0.650038,0.300076,-0.650038,$1*%
%AMFreePoly4*
4,1,5,0.299873,-0.649886,-0.300152,-0.649886,-0.300152,0.650089,0.299873,0.650089,0.299873,-0.649886,0.299873,-0.649886,$1*%
G04 Aperture macros list end*
%ADD10R,0.540005X0.500000*%
%ADD11R,0.806477X0.864008*%
%ADD12R,1.500000X0.900000*%
%ADD13R,0.900000X1.500000*%
%ADD14R,0.900000X0.900000*%
%ADD15R,0.864008X0.806477*%
%ADD16R,0.900000X0.800000*%
%ADD17FreePoly0,270.000000*%
%ADD18FreePoly1,270.000000*%
%ADD19R,2.062510X1.539014*%
%ADD20R,1.859995X1.229997*%
%ADD21FreePoly0,180.000000*%
%ADD22FreePoly1,180.000000*%
%ADD23R,0.800000X0.900000*%
%ADD24R,0.500000X0.540005*%
%ADD25C,0.750013*%
%ADD26O,1.200000X2.000000*%
%ADD27O,1.200000X1.800000*%
%ADD28FreePoly2,0.000000*%
%ADD29FreePoly3,0.000000*%
%ADD30R,0.300000X1.300000*%
%ADD31FreePoly4,0.000000*%
%ADD32R,0.299975X1.500000*%
%ADD33R,2.000000X1.600000*%
%ADD34R,0.424994X0.280010*%
%ADD35R,0.800000X1.200000*%
%ADD36R,1.250013X0.700000*%
%ADD37C,3.800000*%
%ADD38R,1.700000X1.700000*%
%ADD39O,1.700000X1.700000*%
%ADD40R,1.156998X0.489992*%
%ADD41R,1.175006X0.489992*%
%ADD42C,3.000000*%
%ADD43R,0.600000X1.100000*%
%ADD44R,0.622301X1.104902*%
%ADD45R,3.800000X1.000000*%
%ADD46R,3.400000X1.500000*%
%ADD47R,0.800000X0.800000*%
%ADD48R,2.000000X2.000000*%
%ADD49C,2.000000*%
%ADD50R,2.000000X3.200000*%
%ADD51C,5.250000*%
%ADD52C,2.500000*%
G04 APERTURE END LIST*
D10*
%TO.C,C11*%
X117200000Y-64800000D03*
X117200000Y-65640234D03*
%TD*%
D11*
%TO.C,R9*%
X92700000Y-64100000D03*
X91193268Y-64100000D03*
%TD*%
D12*
%TO.C,U2*%
X96234937Y-58879908D03*
X96234937Y-60149911D03*
X96234937Y-61419913D03*
X96234937Y-62689916D03*
X96234937Y-63959918D03*
X96234937Y-65229921D03*
X96234937Y-66499923D03*
X96234937Y-67769926D03*
X96234937Y-69039929D03*
X96234937Y-70309931D03*
X96234937Y-71579934D03*
X96234937Y-72849936D03*
X96234937Y-74119939D03*
X96234937Y-75389941D03*
D13*
X97999987Y-76669850D03*
X99269990Y-76669850D03*
X100539992Y-76669850D03*
X101809995Y-76669850D03*
X103079997Y-76669850D03*
X104350000Y-76669850D03*
X105620002Y-76669850D03*
X106890005Y-76669850D03*
X108160007Y-76669850D03*
X109430010Y-76669850D03*
X110700012Y-76669850D03*
X111970015Y-76639878D03*
D12*
X113735065Y-75389941D03*
X113735065Y-74119939D03*
X113735065Y-72849936D03*
X113735065Y-71579934D03*
X113735065Y-70309931D03*
X113735065Y-69039929D03*
X113735065Y-67769926D03*
X113735065Y-66499923D03*
X113735065Y-65229921D03*
X113735065Y-63959918D03*
X113735065Y-62689916D03*
X113735065Y-61419913D03*
X113735065Y-60149911D03*
X113735065Y-58879908D03*
D14*
X102084823Y-65199949D03*
X102084823Y-66600000D03*
X102084823Y-68000050D03*
X103484874Y-65199949D03*
X103484874Y-66600000D03*
X103484874Y-68000050D03*
X104884925Y-65199949D03*
X104884925Y-66600000D03*
X104884925Y-68000050D03*
%TD*%
D15*
%TO.C,R12*%
X118600000Y-64993268D03*
X118600000Y-66500000D03*
%TD*%
D10*
%TO.C,C7*%
X82300000Y-67570117D03*
X82300000Y-66729883D03*
%TD*%
D16*
%TO.C,C17*%
X92600000Y-59400000D03*
X92600000Y-57999950D03*
%TD*%
D11*
%TO.C,R8*%
X92700000Y-62550000D03*
X91193268Y-62550000D03*
%TD*%
D17*
%TO.C,JP2*%
X96250000Y-82100000D03*
D18*
X96250000Y-83400000D03*
%TD*%
D17*
%TO.C,JP3*%
X98750000Y-82100000D03*
D18*
X98750000Y-83400000D03*
%TD*%
D19*
%TO.C,U11*%
X79746317Y-69650000D03*
X84753683Y-69650000D03*
%TD*%
D20*
%TO.C,SW2*%
X89075776Y-89815088D03*
X89075776Y-94184912D03*
%TD*%
D11*
%TO.C,R15*%
X91196634Y-67200000D03*
X92703366Y-67200000D03*
%TD*%
%TO.C,R6*%
X83896634Y-67250000D03*
X85403366Y-67250000D03*
%TD*%
D17*
%TO.C,JP9*%
X113750000Y-82100000D03*
D18*
X113750000Y-83400000D03*
%TD*%
D20*
%TO.C,SW1*%
X93600000Y-94184912D03*
X93600000Y-89815088D03*
%TD*%
D21*
%TO.C,JP11*%
X54450000Y-59750000D03*
D22*
X53150000Y-59750000D03*
%TD*%
D11*
%TO.C,R13*%
X87993268Y-73625000D03*
X89500000Y-73625000D03*
%TD*%
D23*
%TO.C,C10*%
X88949987Y-61149987D03*
X87549937Y-61149987D03*
%TD*%
D15*
%TO.C,R5*%
X85039598Y-76087319D03*
X85039598Y-74580587D03*
%TD*%
D17*
%TO.C,JP5*%
X103750000Y-82100000D03*
D18*
X103750000Y-83400000D03*
%TD*%
D24*
%TO.C,C1*%
X86829883Y-68250000D03*
X87670117Y-68250000D03*
%TD*%
%TO.C,C18*%
X111670117Y-80500000D03*
X110829883Y-80500000D03*
%TD*%
D25*
%TO.C,U12*%
X59900076Y-97483424D03*
X65699924Y-97483424D03*
D26*
X67125121Y-96983297D03*
D27*
X67125121Y-101163129D03*
X58474879Y-101163129D03*
D26*
X58474879Y-96983297D03*
D28*
X59600102Y-96214945D03*
D29*
X60399949Y-96214945D03*
D30*
X61550064Y-96214945D03*
X62550064Y-96214945D03*
X63049936Y-96214945D03*
X64049682Y-96214945D03*
D31*
X66000152Y-96214945D03*
X65200305Y-96214945D03*
D30*
X64550064Y-96214945D03*
X63550064Y-96214945D03*
X62049936Y-96214945D03*
X61049936Y-96214945D03*
%TD*%
D11*
%TO.C,R20*%
X87993268Y-75175000D03*
X89500000Y-75175000D03*
%TD*%
D10*
%TO.C,C9*%
X91000000Y-59620117D03*
X91000000Y-58779883D03*
%TD*%
D11*
%TO.C,R10*%
X91196634Y-65650000D03*
X92703366Y-65650000D03*
%TD*%
D17*
%TO.C,JP7*%
X108750000Y-82100000D03*
D18*
X108750000Y-83400000D03*
%TD*%
D10*
%TO.C,C2*%
X117200000Y-70170117D03*
X117200000Y-69329883D03*
%TD*%
D23*
%TO.C,C5*%
X83700025Y-61300000D03*
X82299975Y-61300000D03*
%TD*%
D10*
%TO.C,C8*%
X85200000Y-60429883D03*
X85200000Y-61270117D03*
%TD*%
D32*
%TO.C,P1*%
X102752477Y-89161335D03*
X103251588Y-89161335D03*
X103751969Y-89161335D03*
X104252350Y-89161335D03*
X104752731Y-89161335D03*
X105253112Y-89161335D03*
X105753493Y-89161335D03*
X106252604Y-89161335D03*
X106751715Y-89161335D03*
X107252096Y-89161335D03*
D33*
X101050419Y-91908605D03*
X108949581Y-91839771D03*
%TD*%
D15*
%TO.C,R16*%
X120200000Y-70003366D03*
X120200000Y-68496634D03*
%TD*%
D24*
%TO.C,C15*%
X92029883Y-74500000D03*
X92870117Y-74500000D03*
%TD*%
D34*
%TO.C,U6*%
X87312548Y-58199936D03*
X87312548Y-58700064D03*
X87312548Y-59199936D03*
X87312548Y-59700064D03*
X89187580Y-59700064D03*
X89187580Y-59199936D03*
X89187580Y-58700064D03*
X89187580Y-58199936D03*
D35*
X88250064Y-58950000D03*
%TD*%
D36*
%TO.C,U10*%
X79700000Y-64600038D03*
X79700000Y-66499962D03*
X81700000Y-65550000D03*
%TD*%
D37*
%TO.C,H4*%
X157000000Y-101000000D03*
%TD*%
D17*
%TO.C,JP10*%
X116250000Y-82100000D03*
D18*
X116250000Y-83400000D03*
%TD*%
D37*
%TO.C,H2*%
X157000000Y-53000000D03*
%TD*%
D11*
%TO.C,R14*%
X91196634Y-71550000D03*
X92703366Y-71550000D03*
%TD*%
D24*
%TO.C,C16*%
X88676517Y-72175000D03*
X89516751Y-72175000D03*
%TD*%
D17*
%TO.C,JP4*%
X101250000Y-82100000D03*
D18*
X101250000Y-83400000D03*
%TD*%
D38*
%TO.C,J1*%
X95125000Y-101000000D03*
D39*
X92585000Y-101000000D03*
X90045000Y-101000000D03*
X87505000Y-101000000D03*
X84965000Y-101000000D03*
X82425000Y-101000000D03*
X79885000Y-101000000D03*
X77345000Y-101000000D03*
X74805000Y-101000000D03*
X72265000Y-101000000D03*
%TD*%
D40*
%TO.C,U7*%
X83492964Y-74125610D03*
X83492964Y-73175648D03*
X83492964Y-72225686D03*
D41*
X81185624Y-72225686D03*
X81185624Y-74125610D03*
%TD*%
D17*
%TO.C,JP6*%
X106250000Y-82100000D03*
D18*
X106250000Y-83400000D03*
%TD*%
D37*
%TO.C,H3*%
X53000000Y-101000000D03*
%TD*%
D10*
%TO.C,C6*%
X85000000Y-73104070D03*
X85000000Y-72263836D03*
%TD*%
D23*
%TO.C,C19*%
X106950025Y-80250000D03*
X105549975Y-80250000D03*
%TD*%
D15*
%TO.C,R11*%
X118600000Y-70003366D03*
X118600000Y-68496634D03*
%TD*%
D11*
%TO.C,R18*%
X92703366Y-68800000D03*
X91196634Y-68800000D03*
%TD*%
D24*
%TO.C,C12*%
X100879883Y-80400000D03*
X101720117Y-80400000D03*
%TD*%
D11*
%TO.C,R7*%
X82253366Y-63050000D03*
X80746634Y-63050000D03*
%TD*%
D15*
%TO.C,R2*%
X64200000Y-92793268D03*
X64200000Y-94300000D03*
%TD*%
D42*
%TO.C,SW5*%
X67500000Y-66300000D03*
X62800000Y-66300000D03*
X58100000Y-66300000D03*
X65300000Y-53600000D03*
X60300000Y-53600000D03*
%TD*%
D24*
%TO.C,C3*%
X88829883Y-67000000D03*
X89670117Y-67000000D03*
%TD*%
D43*
%TO.C,U1*%
X87300038Y-65600013D03*
X88250000Y-65600013D03*
X89199962Y-65600013D03*
X89199962Y-62899987D03*
X88250000Y-62899987D03*
X87300038Y-62899987D03*
%TD*%
D17*
%TO.C,JP1*%
X93750000Y-82100000D03*
D18*
X93750000Y-83400000D03*
%TD*%
D24*
%TO.C,C13*%
X82879883Y-59750000D03*
X83720117Y-59750000D03*
%TD*%
D21*
%TO.C,JP12*%
X54450000Y-62300000D03*
D22*
X53150000Y-62300000D03*
%TD*%
D11*
%TO.C,R4*%
X82753366Y-76200000D03*
X81246634Y-76200000D03*
%TD*%
D15*
%TO.C,R17*%
X120200000Y-64993268D03*
X120200000Y-66500000D03*
%TD*%
D17*
%TO.C,JP8*%
X111250000Y-82100000D03*
D18*
X111250000Y-83400000D03*
%TD*%
D44*
%TO.C,U9*%
X83700267Y-65549975D03*
X84649467Y-65549975D03*
X85599682Y-65549975D03*
X85599682Y-62950025D03*
X83700267Y-62950025D03*
%TD*%
D37*
%TO.C,H1*%
X53000000Y-53000000D03*
%TD*%
D24*
%TO.C,C14*%
X92009766Y-70200000D03*
X92850000Y-70200000D03*
%TD*%
D45*
%TO.C,U8*%
X76074930Y-86300000D03*
X76074930Y-84300000D03*
D46*
X81925070Y-81949987D03*
X81925070Y-88650013D03*
%TD*%
D11*
%TO.C,R3*%
X92703366Y-61000000D03*
X91196634Y-61000000D03*
%TD*%
D47*
%TO.C,LED1*%
X59149746Y-92952006D03*
X59150000Y-94450000D03*
%TD*%
D11*
%TO.C,R19*%
X92703366Y-73150000D03*
X91196634Y-73150000D03*
%TD*%
D24*
%TO.C,C4*%
X87670117Y-67000000D03*
X86829883Y-67000000D03*
%TD*%
D15*
%TO.C,R1*%
X61500000Y-92793268D03*
X61500000Y-94300000D03*
%TD*%
D48*
%TO.C,ENC1*%
X65300000Y-84500000D03*
D49*
X60300000Y-84500000D03*
X62800000Y-84500000D03*
D50*
X57200000Y-77000000D03*
X68400000Y-77000000D03*
D49*
X60300000Y-70000000D03*
X65300000Y-70000000D03*
%TD*%
D51*
%TO.C,SW3*%
X148200000Y-67350000D03*
D52*
X143800000Y-62650000D03*
X150800000Y-61600000D03*
%TD*%
D51*
%TO.C,SW4*%
X148200000Y-86350000D03*
D52*
X143800000Y-81650000D03*
X150800000Y-80600000D03*
%TD*%
M02*
