M48
; DRILL file {KiCad 8.0.1} date 2026-04-02T16:40:09+0200
; FORMAT={-:-/ absolute / inch / decimal}
; #@! TF.CreationDate,2026-04-02T16:40:09+02:00
; #@! TF.GenerationSoftware,Kicad,Pcbnew,8.0.1
; #@! TF.FileFunction,Plated,1,2,PTH
FMAT,2
INCH
; #@! TA.AperFunction,Plated,PTH,ViaDrill
T1C0.0118
; #@! TA.AperFunction,Plated,PTH,ComponentDrill
T2C0.0315
; #@! TA.AperFunction,Plated,PTH,ComponentDrill
T3C0.0394
; #@! TA.AperFunction,Plated,PTH,ComponentDrill
T4C0.0591
; #@! TA.AperFunction,Plated,PTH,ComponentDrill
T5C0.0748
; #@! TA.AperFunction,Plated,PTH,ComponentDrill
T6C0.0866
%
G90
G05
T1
X2.437Y-3.8346
X2.4724Y-2.5236
X2.4724Y-3.6535
X2.502Y-3.8346
X2.5394Y-3.8583
X2.9134Y-3.8425
X3.1063Y-3.1535
X3.1358Y-2.9134
X3.1358Y-3.126
X3.1732Y-2.6181
X3.2382Y-2.8819
X3.252Y-2.7244
X3.2874Y-2.8071
X3.3449Y-3.8177
X3.3898Y-2.8799
X3.4016Y-2.9902
X3.4016Y-3.1122
X3.4094Y-2.311
X3.4185Y-2.7224
X3.4409Y-3.2008
X3.4451Y-3.8386
X3.4567Y-2.8563
X3.4744Y-2.2736
X3.4882Y-3.248
X3.4902Y-2.813
X3.5217Y-2.687
X3.5433Y-2.2697
X3.5433Y-2.311
X3.5433Y-2.372
X3.5571Y-2.9606
X3.5591Y-3.0827
X3.5807Y-2.7776
X3.5904Y-2.7461
X3.6063Y-3.1299
X3.6161Y-2.4016
X3.6909Y-2.6102
X3.6909Y-3.189
X3.6929Y-2.4626
X3.6929Y-2.5236
X3.6949Y-2.8425
X3.7402Y-2.7165
X3.7894Y-3.189
X3.8356Y-2.8711
X3.8386Y-2.3681
X3.8386Y-2.4173
X3.8386Y-2.5681
X3.8386Y-2.6181
X3.8878Y-3.189
X3.8976Y-2.3189
X3.9094Y-2.6575
X4.0079Y-2.9724
X4.0571Y-2.9724
X4.0846Y-3.189
X4.1083Y-2.9724
X4.2815Y-3.189
X4.3858Y-2.3031
X4.435Y-2.7697
X4.5669Y-2.5512
X4.5669Y-2.7638
X4.5787Y-2.6181
X4.6142Y-2.6181
X4.6693Y-2.6575
X4.7163Y-3.0945
X4.7163Y-3.2596
X4.7402Y-3.2323
X4.7717Y-2.6181
X4.7717Y-2.6969
X4.7815Y-2.5748
X4.7835Y-3.1614
X4.9488Y-2.6181
X4.9488Y-2.6969
X5.3543Y-3.8425
T3
X2.374Y-2.7559
X2.374Y-3.3268
X2.4724Y-3.3268
X2.5709Y-2.7559
X2.5709Y-3.3268
X2.8451Y-3.9764
X2.9451Y-3.9764
X3.0451Y-3.9764
X3.1451Y-3.9764
X3.2451Y-3.9764
X3.3451Y-3.9764
X3.4451Y-3.9764
X3.5451Y-3.9764
X3.6451Y-3.9764
X3.7451Y-3.9764
T4
X5.6614Y-2.4665
X5.6614Y-3.2146
X5.937Y-2.4252
X5.937Y-3.1732
T5
X2.2874Y-2.6102
X2.374Y-2.1102
X2.4724Y-2.6102
X2.5709Y-2.1102
X2.6575Y-2.6102
T6
X2.0866Y-2.0866
X2.0866Y-3.9764
X6.1811Y-2.0866
X6.1811Y-3.9764
T2
G00X2.3022Y-3.8025
M15
G01X2.3022Y-3.834
M16
G05
G00X2.3022Y-3.971
M15
G01X2.3022Y-3.9946
M16
G05
G00X2.6427Y-3.8025
M15
G01X2.6427Y-3.834
M16
G05
G00X2.6427Y-3.971
M15
G01X2.6427Y-3.9946
M16
G05
T4
G00X2.252Y-3.0571
M15
G01X2.252Y-3.0059
M16
G05
G00X2.6929Y-3.0571
M15
G01X2.6929Y-3.0059
M16
G05
M30
