%TF.GenerationSoftware,KiCad,Pcbnew,8.0.1*%
%TF.CreationDate,2026-03-26T11:22:20+01:00*%
%TF.ProjectId,memory_pcb,6d656d6f-7279-45f7-9063-622e6b696361,rev?*%
%TF.SameCoordinates,Original*%
%TF.FileFunction,Copper,L2,Bot*%
%TF.FilePolarity,Positive*%
%FSLAX46Y46*%
G04 Gerber Fmt 4.6, Leading zero omitted, Abs format (unit mm)*
G04 Created by KiCad (PCBNEW 8.0.1) date 2026-03-26 11:22:20*
%MOMM*%
%LPD*%
G01*
G04 APERTURE LIST*
%TA.AperFunction,ComponentPad*%
%ADD10C,2.500000*%
%TD*%
%TA.AperFunction,ComponentPad*%
%ADD11O,1.200000X2.000000*%
%TD*%
%TA.AperFunction,ComponentPad*%
%ADD12O,1.200000X1.800000*%
%TD*%
%TA.AperFunction,ComponentPad*%
%ADD13C,3.800000*%
%TD*%
%TA.AperFunction,ComponentPad*%
%ADD14O,1.700000X1.700000*%
%TD*%
%TA.AperFunction,ComponentPad*%
%ADD15R,1.700000X1.700000*%
%TD*%
%TA.AperFunction,ComponentPad*%
%ADD16C,3.000000*%
%TD*%
%TA.AperFunction,ComponentPad*%
%ADD17R,2.000000X2.000000*%
%TD*%
%TA.AperFunction,ComponentPad*%
%ADD18C,2.000000*%
%TD*%
%TA.AperFunction,ComponentPad*%
%ADD19R,2.000000X3.200000*%
%TD*%
%TA.AperFunction,ViaPad*%
%ADD20C,0.600000*%
%TD*%
%TA.AperFunction,ViaPad*%
%ADD21C,0.500000*%
%TD*%
%TA.AperFunction,Conductor*%
%ADD22C,0.508000*%
%TD*%
%TA.AperFunction,Conductor*%
%ADD23C,0.254000*%
%TD*%
G04 APERTURE END LIST*
D10*
%TO.P,SW2,2,2*%
%TO.N,GND*%
X150600000Y-81250000D03*
%TO.P,SW2,1,1*%
%TO.N,Net-(R16-Pad2)*%
X143600000Y-82300000D03*
%TD*%
%TO.P,SW1,2,2*%
%TO.N,GND*%
X150600000Y-62250000D03*
%TO.P,SW1,1,1*%
%TO.N,Net-(R17-Pad2)*%
X143600000Y-63300000D03*
%TD*%
D11*
%TO.P,U12,1,EH*%
%TO.N,GND*%
X67125121Y-96983297D03*
D12*
%TO.P,U12,2,EH*%
X67125121Y-101163129D03*
%TO.P,U12,3,EH*%
X58474879Y-101163129D03*
D11*
%TO.P,U12,4,EH*%
X58474879Y-96983297D03*
%TD*%
D13*
%TO.P,H4,1,1*%
%TO.N,GND*%
X157000000Y-101000000D03*
%TD*%
%TO.P,H2,1,1*%
%TO.N,GND*%
X157000000Y-53000000D03*
%TD*%
D14*
%TO.P,J1,10,Pin_10*%
%TO.N,/21*%
X72265000Y-101000000D03*
%TO.P,J1,9,Pin_9*%
%TO.N,/47*%
X74805000Y-101000000D03*
%TO.P,J1,8,Pin_8*%
%TO.N,/48*%
X77345000Y-101000000D03*
%TO.P,J1,7,Pin_7*%
%TO.N,/02*%
X79885000Y-101000000D03*
%TO.P,J1,6,Pin_6*%
%TO.N,/01*%
X82425000Y-101000000D03*
%TO.P,J1,5,Pin_5*%
%TO.N,/RX*%
X84965000Y-101000000D03*
%TO.P,J1,4,Pin_4*%
%TO.N,/TX*%
X87505000Y-101000000D03*
%TO.P,J1,3,Pin_3*%
%TO.N,+5V*%
X90045000Y-101000000D03*
%TO.P,J1,2,Pin_2*%
%TO.N,+3.3V*%
X92585000Y-101000000D03*
D15*
%TO.P,J1,1,Pin_1*%
%TO.N,GND*%
X95125000Y-101000000D03*
%TD*%
D13*
%TO.P,H3,1,1*%
%TO.N,GND*%
X53000000Y-101000000D03*
%TD*%
D16*
%TO.P,U3,1,1*%
%TO.N,Net-(JP11-A)*%
X67500000Y-66300000D03*
%TO.P,U3,2,2*%
%TO.N,/PWR_SW*%
X62800000Y-66300000D03*
%TO.P,U3,3,3*%
%TO.N,Net-(JP12-A)*%
X58100000Y-66300000D03*
%TO.P,U3,4,4*%
%TO.N,GND*%
X65300000Y-53600000D03*
%TO.P,U3,5,5*%
X60300000Y-53600000D03*
%TD*%
D13*
%TO.P,H1,1,1*%
%TO.N,GND*%
X53000000Y-53000000D03*
%TD*%
D17*
%TO.P,ENC1,A,A*%
%TO.N,Net-(ENC1-PadA)*%
X65300000Y-84500000D03*
D18*
%TO.P,ENC1,B,B*%
%TO.N,Net-(ENC1-PadB)*%
X60300000Y-84500000D03*
%TO.P,ENC1,C,C*%
%TO.N,GND*%
X62800000Y-84500000D03*
D19*
%TO.P,ENC1,MP*%
%TO.N,N/C*%
X57200000Y-77000000D03*
X68400000Y-77000000D03*
D18*
%TO.P,ENC1,S1,S1*%
%TO.N,Net-(ENC1-PadS1)*%
X60300000Y-70000000D03*
%TO.P,ENC1,S2,S2*%
%TO.N,GND*%
X65300000Y-70000000D03*
%TD*%
D20*
%TO.N,GND*%
X73600000Y-79200000D03*
X111100000Y-91800000D03*
X92000000Y-81500000D03*
X94900000Y-78600000D03*
X86650000Y-85650000D03*
D21*
%TO.N,VBAT*%
X75300000Y-74350000D03*
%TO.N,+3.3V*%
X82400000Y-69700000D03*
X90850000Y-94950000D03*
X90050000Y-83100000D03*
%TO.N,+5V*%
X83150000Y-69350000D03*
X92750000Y-79900000D03*
%TO.N,GND*%
X86900000Y-71650000D03*
X81150000Y-71250000D03*
%TO.N,/TX*%
X119650000Y-62700000D03*
X112750000Y-62700000D03*
%TO.N,/RX*%
X120200000Y-63950000D03*
X112750000Y-63950000D03*
%TO.N,/BOOT*%
X97050000Y-76450000D03*
X112650000Y-75400000D03*
%TO.N,/DISP_CS*%
X101800000Y-77800000D03*
X98750000Y-81900000D03*
%TO.N,/CLK*%
X93750000Y-81900000D03*
X104350000Y-75500000D03*
%TO.N,/MOSI*%
X103050000Y-75500000D03*
X96250000Y-81900000D03*
%TO.N,/RESET*%
X87800000Y-76700000D03*
%TO.N,GND*%
X94984925Y-69900000D03*
X62800000Y-92800000D03*
X113760000Y-81530000D03*
X62800000Y-82200000D03*
X88084925Y-59600000D03*
X93941569Y-75056644D03*
X72484925Y-64800000D03*
X74184925Y-68600000D03*
X78084925Y-63000000D03*
X94884925Y-58227000D03*
X89384925Y-58600000D03*
X84728281Y-73556644D03*
X85084925Y-71873000D03*
X85084925Y-60800000D03*
%TO.N,/SCL*%
X97384925Y-64000000D03*
X87057030Y-62683684D03*
%TO.N,/SDA*%
X97384925Y-62700000D03*
X87084925Y-61824865D03*
%TO.N,/ENC_BTN*%
X88584925Y-72200000D03*
X97384925Y-72800000D03*
%TO.N,VBUS*%
X73250000Y-71700000D03*
X70569017Y-75319017D03*
%TO.N,/D+*%
X62550000Y-98654000D03*
X62549863Y-97400000D03*
%TO.N,/RESET*%
X97384925Y-60973000D03*
X89484925Y-60700000D03*
%TO.N,VBAT*%
X81984925Y-64200000D03*
X72459303Y-67940697D03*
X81984925Y-67800000D03*
X82484925Y-62300000D03*
%TO.N,Net-(LED1-K)*%
X70550000Y-74300000D03*
X70550000Y-71850000D03*
%TO.N,/PWR_SW*%
X97484925Y-67500000D03*
X88784925Y-68600000D03*
%TO.N,/BTN1*%
X88084925Y-64200000D03*
X97384925Y-65200000D03*
%TO.N,/ALRT*%
X97384925Y-69000000D03*
X87084925Y-63600000D03*
%TO.N,Net-(ENC1-PadA)*%
X92684925Y-75900000D03*
X92884925Y-70899874D03*
%TO.N,Net-(R16-Pad2)*%
X93984925Y-68373000D03*
%TO.N,Net-(R17-Pad2)*%
X89484925Y-61600000D03*
%TD*%
D22*
%TO.N,VBAT*%
X72459303Y-67940697D02*
X73872607Y-69354000D01*
X75300000Y-69354000D02*
X76854000Y-67800000D01*
X73872607Y-69354000D02*
X75300000Y-69354000D01*
X76854000Y-67800000D02*
X81984925Y-67800000D01*
X75300000Y-74350000D02*
X75300000Y-69354000D01*
%TO.N,+3.3V*%
X90850000Y-94950000D02*
X90850000Y-99250000D01*
X90850000Y-99250000D02*
X92585000Y-100985000D01*
X92585000Y-100985000D02*
X92585000Y-101000000D01*
%TO.N,+5V*%
X90045000Y-101000000D02*
X90000000Y-100955000D01*
X90000000Y-100955000D02*
X90000000Y-84188033D01*
X90784000Y-83404033D02*
X90784000Y-82784000D01*
X90000000Y-84188033D02*
X90784000Y-83404033D01*
X90784000Y-82784000D02*
X87900000Y-79900000D01*
%TO.N,+3.3V*%
X82400000Y-75450000D02*
X82400000Y-69700000D01*
X90050000Y-83100000D02*
X82400000Y-75450000D01*
D23*
%TO.N,/TX*%
X119650000Y-62700000D02*
X112750000Y-62700000D01*
%TO.N,/RX*%
X112750000Y-63950000D02*
X120200000Y-63950000D01*
D22*
%TO.N,+5V*%
X92750000Y-79900000D02*
X87900000Y-79900000D01*
X87900000Y-79900000D02*
X83150000Y-75150000D01*
X83150000Y-75150000D02*
X83150000Y-69350000D01*
D23*
%TO.N,/BOOT*%
X100088000Y-74512000D02*
X111762000Y-74512000D01*
X98150000Y-76450000D02*
X100088000Y-74512000D01*
X97050000Y-76450000D02*
X98150000Y-76450000D01*
X111762000Y-74512000D02*
X112650000Y-75400000D01*
%TO.N,Net-(R16-Pad2)*%
X93984925Y-68373000D02*
X94857925Y-68373000D01*
X141657000Y-69607000D02*
X143600000Y-71550000D01*
X94857925Y-68373000D02*
X96091925Y-69607000D01*
X96091925Y-69607000D02*
X141657000Y-69607000D01*
X143600000Y-71550000D02*
X143600000Y-82300000D01*
%TO.N,Net-(R17-Pad2)*%
X89484925Y-61600000D02*
X141900000Y-61600000D01*
X141900000Y-61600000D02*
X143600000Y-63300000D01*
%TO.N,/RESET*%
X86430030Y-63942349D02*
X86430030Y-61593048D01*
X87323078Y-60700000D02*
X89484925Y-60700000D01*
X86430030Y-61593048D02*
X87323078Y-60700000D01*
X87800000Y-76700000D02*
X87800000Y-65312319D01*
X87800000Y-65312319D02*
X86430030Y-63942349D01*
%TO.N,/ENC_BTN*%
X97384925Y-72800000D02*
X95643479Y-72800000D01*
X95643479Y-72800000D02*
X93136353Y-70292874D01*
X93136353Y-70292874D02*
X90492051Y-70292874D01*
X90492051Y-70292874D02*
X88584925Y-72200000D01*
%TO.N,/DISP_CS*%
X98750000Y-81900000D02*
X98750000Y-79938816D01*
X98750000Y-79938816D02*
X100888816Y-77800000D01*
X100888816Y-77800000D02*
X101800000Y-77800000D01*
%TO.N,/CLK*%
X104350000Y-75500000D02*
X103743000Y-74893000D01*
X103743000Y-74893000D02*
X102718184Y-74893000D01*
X102718184Y-74893000D02*
X96318184Y-81293000D01*
X96318184Y-81293000D02*
X94357000Y-81293000D01*
X94357000Y-81293000D02*
X93750000Y-81900000D01*
%TO.N,/MOSI*%
X96250000Y-81900000D02*
X102650000Y-75500000D01*
X102650000Y-75500000D02*
X103050000Y-75500000D01*
D22*
%TO.N,VBUS*%
X73250000Y-71700000D02*
X73250000Y-72638034D01*
X73250000Y-72638034D02*
X70569017Y-75319017D01*
D23*
%TO.N,Net-(LED1-K)*%
X70550000Y-74300000D02*
X70550000Y-71850000D01*
%TO.N,GND*%
X74184925Y-66500000D02*
X74184925Y-68600000D01*
X84728281Y-73556644D02*
X84728281Y-72229644D01*
D22*
X89757925Y-58227000D02*
X89384925Y-58600000D01*
D23*
X84728281Y-72229644D02*
X85084925Y-71873000D01*
X72484925Y-64800000D02*
X74184925Y-66500000D01*
D22*
X94884925Y-58227000D02*
X89757925Y-58227000D01*
D23*
%TO.N,/SCL*%
X96977925Y-63593000D02*
X97384925Y-64000000D01*
X87966346Y-63593000D02*
X96977925Y-63593000D01*
X87057030Y-62683684D02*
X87966346Y-63593000D01*
%TO.N,/SDA*%
X87960060Y-62700000D02*
X97384925Y-62700000D01*
X87084925Y-61824865D02*
X87960060Y-62700000D01*
%TO.N,/D+*%
X62550000Y-98654000D02*
X62549863Y-98653863D01*
X62549863Y-98653863D02*
X62549863Y-97400000D01*
%TO.N,/RESET*%
X97111925Y-60700000D02*
X89484925Y-60700000D01*
X97384925Y-60973000D02*
X97111925Y-60700000D01*
%TO.N,VBAT*%
X81984925Y-63500000D02*
X81984925Y-64200000D01*
X82484925Y-63000000D02*
X81984925Y-63500000D01*
X82484925Y-62300000D02*
X82484925Y-63000000D01*
%TO.N,/PWR_SW*%
X88784925Y-68600000D02*
X92871213Y-68600000D01*
X93971213Y-67500000D02*
X97484925Y-67500000D01*
X92871213Y-68600000D02*
X93971213Y-67500000D01*
%TO.N,/BTN1*%
X88084925Y-64200000D02*
X88084925Y-64500000D01*
X88084925Y-64500000D02*
X88784925Y-65200000D01*
X88784925Y-65200000D02*
X97384925Y-65200000D01*
%TO.N,/ALRT*%
X98091925Y-68293000D02*
X97384925Y-69000000D01*
X87084925Y-63600000D02*
X87084925Y-64058428D01*
X88607497Y-65581000D02*
X96424353Y-65581000D01*
X87084925Y-64058428D02*
X88607497Y-65581000D01*
X96424353Y-65581000D02*
X98091925Y-67248572D01*
X98091925Y-67248572D02*
X98091925Y-68293000D01*
%TO.N,Net-(ENC1-PadA)*%
X92884925Y-70899874D02*
X92884925Y-75700000D01*
X92884925Y-75700000D02*
X92684925Y-75900000D01*
%TO.N,Net-(R16-Pad2)*%
X93984925Y-68373000D02*
X94011925Y-68400000D01*
%TD*%
%TA.AperFunction,Conductor*%
%TO.N,GND*%
G36*
X72927964Y-50520185D02*
G01*
X72973719Y-50572989D01*
X72984925Y-50624500D01*
X72984925Y-57800000D01*
X137084925Y-57800000D01*
X137084925Y-50624500D01*
X137104610Y-50557461D01*
X137157414Y-50511706D01*
X137208925Y-50500500D01*
X156143454Y-50500500D01*
X156210493Y-50520185D01*
X156256248Y-50572989D01*
X156266192Y-50642147D01*
X156237167Y-50705703D01*
X156189101Y-50739792D01*
X155976117Y-50824117D01*
X155976109Y-50824121D01*
X155711476Y-50969604D01*
X155711471Y-50969607D01*
X155486565Y-51133010D01*
X155486564Y-51133011D01*
X156417262Y-52063709D01*
X156283398Y-52160967D01*
X156160967Y-52283398D01*
X156063709Y-52417262D01*
X155135311Y-51488864D01*
X155054520Y-51586525D01*
X155054518Y-51586528D01*
X154892707Y-51841502D01*
X154892704Y-51841508D01*
X154764127Y-52114747D01*
X154764125Y-52114752D01*
X154670805Y-52401959D01*
X154614216Y-52698609D01*
X154614215Y-52698616D01*
X154595255Y-52999994D01*
X154595255Y-53000005D01*
X154614215Y-53301380D01*
X154670805Y-53598040D01*
X154764125Y-53885247D01*
X154764127Y-53885252D01*
X154892704Y-54158491D01*
X154892707Y-54158497D01*
X155054516Y-54413469D01*
X155135311Y-54511133D01*
X156063708Y-53582736D01*
X156160967Y-53716602D01*
X156283398Y-53839033D01*
X156417262Y-53936290D01*
X155486564Y-54866987D01*
X155486565Y-54866989D01*
X155711461Y-55030385D01*
X155711479Y-55030397D01*
X155976109Y-55175878D01*
X155976117Y-55175882D01*
X156256889Y-55287047D01*
X156256892Y-55287048D01*
X156549399Y-55362150D01*
X156848995Y-55399999D01*
X156849007Y-55400000D01*
X157150993Y-55400000D01*
X157151004Y-55399999D01*
X157450600Y-55362150D01*
X157743107Y-55287048D01*
X157743110Y-55287047D01*
X158023882Y-55175882D01*
X158023890Y-55175878D01*
X158288520Y-55030397D01*
X158288530Y-55030390D01*
X158513433Y-54866987D01*
X158513434Y-54866987D01*
X157582737Y-53936290D01*
X157716602Y-53839033D01*
X157839033Y-53716602D01*
X157936290Y-53582737D01*
X158864687Y-54511134D01*
X158945486Y-54413464D01*
X159107292Y-54158497D01*
X159107295Y-54158491D01*
X159235872Y-53885252D01*
X159235874Y-53885247D01*
X159257569Y-53818479D01*
X159297006Y-53760804D01*
X159361365Y-53733605D01*
X159430211Y-53745520D01*
X159481687Y-53792764D01*
X159499500Y-53856797D01*
X159499500Y-100143202D01*
X159479815Y-100210241D01*
X159427011Y-100255996D01*
X159357853Y-100265940D01*
X159294297Y-100236915D01*
X159257569Y-100181520D01*
X159235874Y-100114752D01*
X159235872Y-100114747D01*
X159107295Y-99841507D01*
X159107292Y-99841502D01*
X158945483Y-99586530D01*
X158864686Y-99488864D01*
X157936289Y-100417261D01*
X157839033Y-100283398D01*
X157716602Y-100160967D01*
X157582736Y-100063709D01*
X158513434Y-99133011D01*
X158513433Y-99133009D01*
X158288538Y-98969614D01*
X158288520Y-98969602D01*
X158023890Y-98824121D01*
X158023882Y-98824117D01*
X157743110Y-98712952D01*
X157743107Y-98712951D01*
X157450600Y-98637849D01*
X157151004Y-98600000D01*
X156848995Y-98600000D01*
X156549399Y-98637849D01*
X156256892Y-98712951D01*
X156256889Y-98712952D01*
X155976117Y-98824117D01*
X155976109Y-98824121D01*
X155711476Y-98969604D01*
X155711471Y-98969607D01*
X155486565Y-99133010D01*
X155486564Y-99133011D01*
X156417262Y-100063709D01*
X156283398Y-100160967D01*
X156160967Y-100283398D01*
X156063709Y-100417262D01*
X155135311Y-99488864D01*
X155054520Y-99586525D01*
X155054518Y-99586528D01*
X154892707Y-99841502D01*
X154892705Y-99841507D01*
X154764127Y-100114747D01*
X154764125Y-100114752D01*
X154670805Y-100401959D01*
X154614216Y-100698609D01*
X154614215Y-100698616D01*
X154595255Y-100999994D01*
X154595255Y-101000005D01*
X154614215Y-101301383D01*
X154614216Y-101301390D01*
X154670805Y-101598040D01*
X154764125Y-101885247D01*
X154764127Y-101885252D01*
X154892704Y-102158491D01*
X154892707Y-102158497D01*
X155054516Y-102413469D01*
X155135311Y-102511133D01*
X156063708Y-101582736D01*
X156160967Y-101716602D01*
X156283398Y-101839033D01*
X156417262Y-101936290D01*
X155486564Y-102866987D01*
X155486565Y-102866989D01*
X155711461Y-103030385D01*
X155711479Y-103030397D01*
X155976109Y-103175878D01*
X155976117Y-103175882D01*
X156189101Y-103260208D01*
X156244187Y-103303189D01*
X156267290Y-103369128D01*
X156251077Y-103437090D01*
X156200694Y-103485498D01*
X156143454Y-103499500D01*
X112005413Y-103499500D01*
X111994605Y-103499028D01*
X111837246Y-103485260D01*
X111815961Y-103481507D01*
X111668630Y-103442030D01*
X111648318Y-103434637D01*
X111510084Y-103370177D01*
X111491366Y-103359370D01*
X111366417Y-103271880D01*
X111349859Y-103257986D01*
X111242013Y-103150140D01*
X111228119Y-103133582D01*
X111140629Y-103008633D01*
X111129822Y-102989915D01*
X111065362Y-102851681D01*
X111057969Y-102831369D01*
X111018492Y-102684038D01*
X111014739Y-102662752D01*
X111014277Y-102657475D01*
X111003758Y-102537243D01*
X111000972Y-102505393D01*
X111000500Y-102494586D01*
X111000500Y-99434110D01*
X111000500Y-99434108D01*
X110966392Y-99306814D01*
X110900500Y-99192686D01*
X110807314Y-99099500D01*
X110750250Y-99066554D01*
X110693187Y-99033608D01*
X110629539Y-99016554D01*
X110565892Y-98999500D01*
X99565892Y-98999500D01*
X99434108Y-98999500D01*
X99306812Y-99033608D01*
X99192686Y-99099500D01*
X99192683Y-99099502D01*
X99099502Y-99192683D01*
X99099500Y-99192686D01*
X99033608Y-99306812D01*
X98999500Y-99434108D01*
X98999500Y-102494586D01*
X98999028Y-102505394D01*
X98985260Y-102662753D01*
X98981507Y-102684038D01*
X98942030Y-102831369D01*
X98934637Y-102851681D01*
X98870177Y-102989915D01*
X98859370Y-103008633D01*
X98771880Y-103133582D01*
X98757986Y-103150140D01*
X98650140Y-103257986D01*
X98633582Y-103271880D01*
X98508633Y-103359370D01*
X98489915Y-103370177D01*
X98351681Y-103434637D01*
X98331369Y-103442030D01*
X98184038Y-103481507D01*
X98162753Y-103485260D01*
X98005395Y-103499028D01*
X97994587Y-103499500D01*
X53856546Y-103499500D01*
X53789507Y-103479815D01*
X53743752Y-103427011D01*
X53733808Y-103357853D01*
X53762833Y-103294297D01*
X53810899Y-103260208D01*
X54023882Y-103175882D01*
X54023890Y-103175878D01*
X54288520Y-103030397D01*
X54288530Y-103030390D01*
X54513433Y-102866987D01*
X54513434Y-102866987D01*
X53582737Y-101936290D01*
X53716602Y-101839033D01*
X53839033Y-101716602D01*
X53936290Y-101582737D01*
X54864687Y-102511134D01*
X54945486Y-102413464D01*
X55107292Y-102158497D01*
X55107295Y-102158491D01*
X55235872Y-101885252D01*
X55235874Y-101885247D01*
X55329194Y-101598040D01*
X55338415Y-101549700D01*
X57374879Y-101549700D01*
X57401964Y-101720713D01*
X57455470Y-101885386D01*
X57534074Y-102039653D01*
X57635846Y-102179731D01*
X57758276Y-102302161D01*
X57898354Y-102403933D01*
X58052623Y-102482537D01*
X58217294Y-102536043D01*
X58217293Y-102536043D01*
X58224878Y-102537244D01*
X58224879Y-102537243D01*
X58224879Y-101778815D01*
X58229273Y-101783209D01*
X58320485Y-101835870D01*
X58422218Y-101863129D01*
X58527540Y-101863129D01*
X58629273Y-101835870D01*
X58720485Y-101783209D01*
X58724879Y-101778815D01*
X58724879Y-102537244D01*
X58732463Y-102536043D01*
X58897134Y-102482537D01*
X59051403Y-102403933D01*
X59191481Y-102302161D01*
X59313911Y-102179731D01*
X59415683Y-102039653D01*
X59494287Y-101885386D01*
X59547793Y-101720713D01*
X59574879Y-101549700D01*
X66025121Y-101549700D01*
X66052206Y-101720713D01*
X66105712Y-101885386D01*
X66184316Y-102039653D01*
X66286088Y-102179731D01*
X66408518Y-102302161D01*
X66548596Y-102403933D01*
X66702865Y-102482537D01*
X66867536Y-102536043D01*
X66867535Y-102536043D01*
X66875120Y-102537244D01*
X66875121Y-102537243D01*
X66875121Y-101778815D01*
X66879515Y-101783209D01*
X66970727Y-101835870D01*
X67072460Y-101863129D01*
X67177782Y-101863129D01*
X67279515Y-101835870D01*
X67370727Y-101783209D01*
X67375121Y-101778815D01*
X67375121Y-102537244D01*
X67382705Y-102536043D01*
X67547376Y-102482537D01*
X67701645Y-102403933D01*
X67841723Y-102302161D01*
X67964153Y-102179731D01*
X68065925Y-102039653D01*
X68144529Y-101885386D01*
X68198035Y-101720713D01*
X68225121Y-101549700D01*
X68225121Y-101413129D01*
X67525121Y-101413129D01*
X67525121Y-101000000D01*
X70909341Y-101000000D01*
X70929936Y-101235403D01*
X70929938Y-101235413D01*
X70991094Y-101463655D01*
X70991096Y-101463659D01*
X70991097Y-101463663D01*
X71031217Y-101549700D01*
X71090965Y-101677830D01*
X71090967Y-101677834D01*
X71164752Y-101783209D01*
X71226505Y-101871401D01*
X71393599Y-102038495D01*
X71470135Y-102092086D01*
X71587165Y-102174032D01*
X71587167Y-102174033D01*
X71587170Y-102174035D01*
X71801337Y-102273903D01*
X72029592Y-102335063D01*
X72200319Y-102350000D01*
X72264999Y-102355659D01*
X72265000Y-102355659D01*
X72265001Y-102355659D01*
X72329681Y-102350000D01*
X72500408Y-102335063D01*
X72728663Y-102273903D01*
X72942830Y-102174035D01*
X73136401Y-102038495D01*
X73303495Y-101871401D01*
X73433425Y-101685842D01*
X73488002Y-101642217D01*
X73557500Y-101635023D01*
X73619855Y-101666546D01*
X73636575Y-101685842D01*
X73766500Y-101871395D01*
X73766505Y-101871401D01*
X73933599Y-102038495D01*
X74010135Y-102092086D01*
X74127165Y-102174032D01*
X74127167Y-102174033D01*
X74127170Y-102174035D01*
X74341337Y-102273903D01*
X74569592Y-102335063D01*
X74740319Y-102350000D01*
X74804999Y-102355659D01*
X74805000Y-102355659D01*
X74805001Y-102355659D01*
X74869681Y-102350000D01*
X75040408Y-102335063D01*
X75268663Y-102273903D01*
X75482830Y-102174035D01*
X75676401Y-102038495D01*
X75843495Y-101871401D01*
X75973425Y-101685842D01*
X76028002Y-101642217D01*
X76097500Y-101635023D01*
X76159855Y-101666546D01*
X76176575Y-101685842D01*
X76306500Y-101871395D01*
X76306505Y-101871401D01*
X76473599Y-102038495D01*
X76550135Y-102092086D01*
X76667165Y-102174032D01*
X76667167Y-102174033D01*
X76667170Y-102174035D01*
X76881337Y-102273903D01*
X77109592Y-102335063D01*
X77280319Y-102350000D01*
X77344999Y-102355659D01*
X77345000Y-102355659D01*
X77345001Y-102355659D01*
X77409681Y-102350000D01*
X77580408Y-102335063D01*
X77808663Y-102273903D01*
X78022830Y-102174035D01*
X78216401Y-102038495D01*
X78383495Y-101871401D01*
X78513425Y-101685842D01*
X78568002Y-101642217D01*
X78637500Y-101635023D01*
X78699855Y-101666546D01*
X78716575Y-101685842D01*
X78846500Y-101871395D01*
X78846505Y-101871401D01*
X79013599Y-102038495D01*
X79090135Y-102092086D01*
X79207165Y-102174032D01*
X79207167Y-102174033D01*
X79207170Y-102174035D01*
X79421337Y-102273903D01*
X79649592Y-102335063D01*
X79820319Y-102350000D01*
X79884999Y-102355659D01*
X79885000Y-102355659D01*
X79885001Y-102355659D01*
X79949681Y-102350000D01*
X80120408Y-102335063D01*
X80348663Y-102273903D01*
X80562830Y-102174035D01*
X80756401Y-102038495D01*
X80923495Y-101871401D01*
X81053425Y-101685842D01*
X81108002Y-101642217D01*
X81177500Y-101635023D01*
X81239855Y-101666546D01*
X81256575Y-101685842D01*
X81386500Y-101871395D01*
X81386505Y-101871401D01*
X81553599Y-102038495D01*
X81630135Y-102092086D01*
X81747165Y-102174032D01*
X81747167Y-102174033D01*
X81747170Y-102174035D01*
X81961337Y-102273903D01*
X82189592Y-102335063D01*
X82360319Y-102350000D01*
X82424999Y-102355659D01*
X82425000Y-102355659D01*
X82425001Y-102355659D01*
X82489681Y-102350000D01*
X82660408Y-102335063D01*
X82888663Y-102273903D01*
X83102830Y-102174035D01*
X83296401Y-102038495D01*
X83463495Y-101871401D01*
X83593425Y-101685842D01*
X83648002Y-101642217D01*
X83717500Y-101635023D01*
X83779855Y-101666546D01*
X83796575Y-101685842D01*
X83926500Y-101871395D01*
X83926505Y-101871401D01*
X84093599Y-102038495D01*
X84170135Y-102092086D01*
X84287165Y-102174032D01*
X84287167Y-102174033D01*
X84287170Y-102174035D01*
X84501337Y-102273903D01*
X84729592Y-102335063D01*
X84900319Y-102350000D01*
X84964999Y-102355659D01*
X84965000Y-102355659D01*
X84965001Y-102355659D01*
X85029681Y-102350000D01*
X85200408Y-102335063D01*
X85428663Y-102273903D01*
X85642830Y-102174035D01*
X85836401Y-102038495D01*
X86003495Y-101871401D01*
X86133425Y-101685842D01*
X86188002Y-101642217D01*
X86257500Y-101635023D01*
X86319855Y-101666546D01*
X86336575Y-101685842D01*
X86466500Y-101871395D01*
X86466505Y-101871401D01*
X86633599Y-102038495D01*
X86710135Y-102092086D01*
X86827165Y-102174032D01*
X86827167Y-102174033D01*
X86827170Y-102174035D01*
X87041337Y-102273903D01*
X87269592Y-102335063D01*
X87440319Y-102350000D01*
X87504999Y-102355659D01*
X87505000Y-102355659D01*
X87505001Y-102355659D01*
X87569681Y-102350000D01*
X87740408Y-102335063D01*
X87968663Y-102273903D01*
X88182830Y-102174035D01*
X88376401Y-102038495D01*
X88543495Y-101871401D01*
X88673425Y-101685842D01*
X88728002Y-101642217D01*
X88797500Y-101635023D01*
X88859855Y-101666546D01*
X88876575Y-101685842D01*
X89006500Y-101871395D01*
X89006505Y-101871401D01*
X89173599Y-102038495D01*
X89250135Y-102092086D01*
X89367165Y-102174032D01*
X89367167Y-102174033D01*
X89367170Y-102174035D01*
X89581337Y-102273903D01*
X89809592Y-102335063D01*
X89980319Y-102350000D01*
X90044999Y-102355659D01*
X90045000Y-102355659D01*
X90045001Y-102355659D01*
X90109681Y-102350000D01*
X90280408Y-102335063D01*
X90508663Y-102273903D01*
X90722830Y-102174035D01*
X90916401Y-102038495D01*
X91083495Y-101871401D01*
X91213425Y-101685842D01*
X91268002Y-101642217D01*
X91337500Y-101635023D01*
X91399855Y-101666546D01*
X91416575Y-101685842D01*
X91546500Y-101871395D01*
X91546505Y-101871401D01*
X91713599Y-102038495D01*
X91790135Y-102092086D01*
X91907165Y-102174032D01*
X91907167Y-102174033D01*
X91907170Y-102174035D01*
X92121337Y-102273903D01*
X92349592Y-102335063D01*
X92520319Y-102350000D01*
X92584999Y-102355659D01*
X92585000Y-102355659D01*
X92585001Y-102355659D01*
X92649681Y-102350000D01*
X92820408Y-102335063D01*
X93048663Y-102273903D01*
X93262830Y-102174035D01*
X93456401Y-102038495D01*
X93578717Y-101916178D01*
X93640036Y-101882696D01*
X93709728Y-101887680D01*
X93765662Y-101929551D01*
X93782577Y-101960528D01*
X93831646Y-102092088D01*
X93831649Y-102092093D01*
X93917809Y-102207187D01*
X93917812Y-102207190D01*
X94032906Y-102293350D01*
X94032913Y-102293354D01*
X94167620Y-102343596D01*
X94167627Y-102343598D01*
X94227155Y-102349999D01*
X94227172Y-102350000D01*
X94875000Y-102350000D01*
X94875000Y-101433012D01*
X94932007Y-101465925D01*
X95059174Y-101500000D01*
X95190826Y-101500000D01*
X95317993Y-101465925D01*
X95375000Y-101433012D01*
X95375000Y-102350000D01*
X96022828Y-102350000D01*
X96022844Y-102349999D01*
X96082372Y-102343598D01*
X96082379Y-102343596D01*
X96217086Y-102293354D01*
X96217093Y-102293350D01*
X96332187Y-102207190D01*
X96332190Y-102207187D01*
X96418350Y-102092093D01*
X96418354Y-102092086D01*
X96468596Y-101957379D01*
X96468598Y-101957372D01*
X96474999Y-101897844D01*
X96475000Y-101897827D01*
X96475000Y-101250000D01*
X95558012Y-101250000D01*
X95590925Y-101192993D01*
X95625000Y-101065826D01*
X95625000Y-100934174D01*
X95590925Y-100807007D01*
X95558012Y-100750000D01*
X96475000Y-100750000D01*
X96475000Y-100102172D01*
X96474999Y-100102155D01*
X96468598Y-100042627D01*
X96468596Y-100042620D01*
X96418354Y-99907913D01*
X96418350Y-99907906D01*
X96332190Y-99792812D01*
X96332187Y-99792809D01*
X96217093Y-99706649D01*
X96217086Y-99706645D01*
X96082379Y-99656403D01*
X96082372Y-99656401D01*
X96022844Y-99650000D01*
X95375000Y-99650000D01*
X95375000Y-100566988D01*
X95317993Y-100534075D01*
X95190826Y-100500000D01*
X95059174Y-100500000D01*
X94932007Y-100534075D01*
X94875000Y-100566988D01*
X94875000Y-99650000D01*
X94227155Y-99650000D01*
X94167627Y-99656401D01*
X94167620Y-99656403D01*
X94032913Y-99706645D01*
X94032906Y-99706649D01*
X93917812Y-99792809D01*
X93917809Y-99792812D01*
X93831649Y-99907906D01*
X93831645Y-99907913D01*
X93782578Y-100039470D01*
X93740707Y-100095404D01*
X93675242Y-100119821D01*
X93606969Y-100104969D01*
X93578715Y-100083819D01*
X93518992Y-100024096D01*
X93456401Y-99961505D01*
X93456397Y-99961502D01*
X93456396Y-99961501D01*
X93262834Y-99825967D01*
X93262830Y-99825965D01*
X93183586Y-99789013D01*
X93048663Y-99726097D01*
X93048659Y-99726096D01*
X93048655Y-99726094D01*
X92820413Y-99664938D01*
X92820403Y-99664936D01*
X92585001Y-99644341D01*
X92584998Y-99644341D01*
X92390981Y-99661315D01*
X92322481Y-99647548D01*
X92292493Y-99625468D01*
X91640819Y-98973794D01*
X91607334Y-98912471D01*
X91604500Y-98886113D01*
X91604500Y-94963610D01*
X91605249Y-94950272D01*
X91605249Y-94949721D01*
X91604500Y-94936390D01*
X91604500Y-94875686D01*
X91587933Y-94792404D01*
X91586330Y-94782093D01*
X91586313Y-94781941D01*
X91586310Y-94781934D01*
X91586310Y-94781928D01*
X91584763Y-94775146D01*
X91584851Y-94775125D01*
X91583547Y-94770352D01*
X91575505Y-94729920D01*
X91518629Y-94592610D01*
X91436059Y-94469034D01*
X91436054Y-94469028D01*
X91330971Y-94363945D01*
X91330964Y-94363939D01*
X91207391Y-94281371D01*
X91070078Y-94224494D01*
X91070075Y-94224493D01*
X91029636Y-94216449D01*
X91024856Y-94215145D01*
X91024836Y-94215234D01*
X91018048Y-94213684D01*
X91017891Y-94213667D01*
X91007609Y-94212068D01*
X90924312Y-94195500D01*
X90924310Y-94195500D01*
X90878500Y-94195500D01*
X90811461Y-94175815D01*
X90765706Y-94123011D01*
X90754500Y-94071500D01*
X90754500Y-87161489D01*
X145124500Y-87161489D01*
X145160659Y-87482410D01*
X145160661Y-87482426D01*
X145232527Y-87797294D01*
X145232531Y-87797306D01*
X145339195Y-88102133D01*
X145339201Y-88102147D01*
X145479327Y-88393122D01*
X145479329Y-88393125D01*
X145651159Y-88666591D01*
X145852527Y-88919099D01*
X146080901Y-89147473D01*
X146333409Y-89348841D01*
X146606875Y-89520671D01*
X146897860Y-89660802D01*
X146897866Y-89660804D01*
X147202693Y-89767468D01*
X147202705Y-89767472D01*
X147517577Y-89839339D01*
X147838511Y-89875499D01*
X147838512Y-89875500D01*
X147838515Y-89875500D01*
X148161488Y-89875500D01*
X148161488Y-89875499D01*
X148482423Y-89839339D01*
X148797295Y-89767472D01*
X149102140Y-89660802D01*
X149393125Y-89520671D01*
X149666591Y-89348841D01*
X149919099Y-89147473D01*
X150147473Y-88919099D01*
X150348841Y-88666591D01*
X150520671Y-88393125D01*
X150660802Y-88102140D01*
X150767472Y-87797295D01*
X150839339Y-87482423D01*
X150875500Y-87161485D01*
X150875500Y-86838515D01*
X150839339Y-86517577D01*
X150767472Y-86202705D01*
X150660802Y-85897860D01*
X150520671Y-85606875D01*
X150348841Y-85333409D01*
X150147473Y-85080901D01*
X149919099Y-84852527D01*
X149666591Y-84651159D01*
X149393125Y-84479329D01*
X149393122Y-84479327D01*
X149102147Y-84339201D01*
X149102133Y-84339195D01*
X148797306Y-84232531D01*
X148797294Y-84232527D01*
X148482426Y-84160661D01*
X148482410Y-84160659D01*
X148161489Y-84124500D01*
X148161485Y-84124500D01*
X147838515Y-84124500D01*
X147838510Y-84124500D01*
X147517589Y-84160659D01*
X147517573Y-84160661D01*
X147202705Y-84232527D01*
X147202693Y-84232531D01*
X146897866Y-84339195D01*
X146897852Y-84339201D01*
X146606877Y-84479327D01*
X146333410Y-84651158D01*
X146080901Y-84852526D01*
X145852526Y-85080901D01*
X145651158Y-85333410D01*
X145479327Y-85606877D01*
X145339201Y-85897852D01*
X145339195Y-85897866D01*
X145232531Y-86202693D01*
X145232527Y-86202705D01*
X145160661Y-86517573D01*
X145160659Y-86517589D01*
X145124500Y-86838510D01*
X145124500Y-87161489D01*
X90754500Y-87161489D01*
X90754500Y-84551918D01*
X90774185Y-84484879D01*
X90790815Y-84464241D01*
X91264963Y-83990093D01*
X91264966Y-83990092D01*
X91370059Y-83884999D01*
X91452629Y-83761423D01*
X91509505Y-83624113D01*
X91538500Y-83478345D01*
X91538500Y-82864446D01*
X91538501Y-82864425D01*
X91538501Y-82709685D01*
X91509506Y-82563926D01*
X91509505Y-82563925D01*
X91509505Y-82563921D01*
X91479084Y-82490477D01*
X91452632Y-82426615D01*
X91452631Y-82426613D01*
X91415398Y-82370890D01*
X91415397Y-82370889D01*
X91415394Y-82370884D01*
X91370059Y-82303034D01*
X91370057Y-82303032D01*
X91370055Y-82303029D01*
X91260647Y-82193621D01*
X91260624Y-82193600D01*
X90967026Y-81900002D01*
X92994751Y-81900002D01*
X93013685Y-82068056D01*
X93069545Y-82227694D01*
X93069547Y-82227697D01*
X93159518Y-82370884D01*
X93159522Y-82370889D01*
X93279109Y-82490476D01*
X93279115Y-82490481D01*
X93422302Y-82580452D01*
X93422305Y-82580454D01*
X93422309Y-82580455D01*
X93422310Y-82580456D01*
X93494913Y-82605860D01*
X93581943Y-82636314D01*
X93749997Y-82655249D01*
X93750000Y-82655249D01*
X93750003Y-82655249D01*
X93918056Y-82636314D01*
X93918059Y-82636313D01*
X94077690Y-82580456D01*
X94077692Y-82580454D01*
X94077694Y-82580454D01*
X94077697Y-82580452D01*
X94220884Y-82490481D01*
X94220885Y-82490480D01*
X94220890Y-82490477D01*
X94340477Y-82370890D01*
X94385018Y-82300004D01*
X94430452Y-82227697D01*
X94430453Y-82227693D01*
X94430456Y-82227690D01*
X94486091Y-82068693D01*
X94515451Y-82021967D01*
X94580601Y-81956818D01*
X94641925Y-81923334D01*
X94668282Y-81920500D01*
X95386248Y-81920500D01*
X95453287Y-81940185D01*
X95499042Y-81992989D01*
X95509468Y-82030618D01*
X95513685Y-82068055D01*
X95569545Y-82227694D01*
X95569547Y-82227697D01*
X95659518Y-82370884D01*
X95659522Y-82370889D01*
X95779109Y-82490476D01*
X95779115Y-82490481D01*
X95922302Y-82580452D01*
X95922305Y-82580454D01*
X95922309Y-82580455D01*
X95922310Y-82580456D01*
X95994913Y-82605860D01*
X96081943Y-82636314D01*
X96249997Y-82655249D01*
X96250000Y-82655249D01*
X96250003Y-82655249D01*
X96418056Y-82636314D01*
X96418059Y-82636313D01*
X96577690Y-82580456D01*
X96577692Y-82580454D01*
X96577694Y-82580454D01*
X96577697Y-82580452D01*
X96720884Y-82490481D01*
X96720885Y-82490480D01*
X96720890Y-82490477D01*
X96840477Y-82370890D01*
X96885018Y-82300004D01*
X96930452Y-82227697D01*
X96930455Y-82227692D01*
X96930456Y-82227690D01*
X96986092Y-82068688D01*
X97015449Y-82021968D01*
X97910820Y-81126598D01*
X97972142Y-81093114D01*
X98041834Y-81098098D01*
X98097767Y-81139970D01*
X98122184Y-81205434D01*
X98122500Y-81214280D01*
X98122500Y-81452306D01*
X98103494Y-81518278D01*
X98069545Y-81572307D01*
X98013685Y-81731943D01*
X97994751Y-81899997D01*
X97994751Y-81900002D01*
X98013685Y-82068056D01*
X98069545Y-82227694D01*
X98069547Y-82227697D01*
X98159518Y-82370884D01*
X98159522Y-82370889D01*
X98279109Y-82490476D01*
X98279115Y-82490481D01*
X98422302Y-82580452D01*
X98422305Y-82580454D01*
X98422309Y-82580455D01*
X98422310Y-82580456D01*
X98494913Y-82605860D01*
X98581943Y-82636314D01*
X98749997Y-82655249D01*
X98750000Y-82655249D01*
X98750003Y-82655249D01*
X98918056Y-82636314D01*
X98918059Y-82636313D01*
X99077690Y-82580456D01*
X99077692Y-82580454D01*
X99077694Y-82580454D01*
X99077697Y-82580452D01*
X99220884Y-82490481D01*
X99220885Y-82490480D01*
X99220890Y-82490477D01*
X99340477Y-82370890D01*
X99385018Y-82300004D01*
X99430452Y-82227697D01*
X99430454Y-82227694D01*
X99430455Y-82227691D01*
X99430456Y-82227690D01*
X99486313Y-82068059D01*
X99486313Y-82068058D01*
X99486314Y-82068056D01*
X99505249Y-81900002D01*
X99505249Y-81899997D01*
X99486314Y-81731943D01*
X99472904Y-81693621D01*
X99430456Y-81572310D01*
X99409122Y-81538357D01*
X99396506Y-81518278D01*
X99377500Y-81452306D01*
X99377500Y-80250097D01*
X99397185Y-80183058D01*
X99413819Y-80162416D01*
X101112416Y-78463819D01*
X101173739Y-78430334D01*
X101200097Y-78427500D01*
X101352307Y-78427500D01*
X101418278Y-78446505D01*
X101472310Y-78480456D01*
X101593621Y-78522904D01*
X101631943Y-78536314D01*
X101799997Y-78555249D01*
X101800000Y-78555249D01*
X101800003Y-78555249D01*
X101968056Y-78536314D01*
X101968059Y-78536313D01*
X102127690Y-78480456D01*
X102127692Y-78480454D01*
X102127694Y-78480454D01*
X102127697Y-78480452D01*
X102270884Y-78390481D01*
X102270885Y-78390480D01*
X102270890Y-78390477D01*
X102390477Y-78270890D01*
X102480452Y-78127697D01*
X102480454Y-78127694D01*
X102480454Y-78127692D01*
X102480456Y-78127690D01*
X102536313Y-77968059D01*
X102536313Y-77968058D01*
X102536314Y-77968056D01*
X102555249Y-77800002D01*
X102555249Y-77799997D01*
X102536314Y-77631943D01*
X102480454Y-77472305D01*
X102480452Y-77472302D01*
X102390481Y-77329115D01*
X102390476Y-77329109D01*
X102270888Y-77209521D01*
X102130494Y-77121305D01*
X102084204Y-77068971D01*
X102073556Y-76999917D01*
X102101931Y-76936069D01*
X102108774Y-76928643D01*
X102767668Y-76269749D01*
X102828989Y-76236266D01*
X102874911Y-76236501D01*
X102875021Y-76235534D01*
X103049997Y-76255249D01*
X103050000Y-76255249D01*
X103050003Y-76255249D01*
X103218056Y-76236314D01*
X103242682Y-76227697D01*
X103377690Y-76180456D01*
X103377692Y-76180454D01*
X103377694Y-76180454D01*
X103377697Y-76180452D01*
X103520884Y-76090481D01*
X103520885Y-76090480D01*
X103520890Y-76090477D01*
X103612319Y-75999048D01*
X103673642Y-75965563D01*
X103743334Y-75970547D01*
X103787681Y-75999048D01*
X103879109Y-76090476D01*
X103879115Y-76090481D01*
X104022302Y-76180452D01*
X104022305Y-76180454D01*
X104022309Y-76180455D01*
X104022310Y-76180456D01*
X104094913Y-76205860D01*
X104181943Y-76236314D01*
X104349997Y-76255249D01*
X104350000Y-76255249D01*
X104350003Y-76255249D01*
X104518056Y-76236314D01*
X104542682Y-76227697D01*
X104677690Y-76180456D01*
X104677692Y-76180454D01*
X104677694Y-76180454D01*
X104677697Y-76180452D01*
X104820884Y-76090481D01*
X104820885Y-76090480D01*
X104820890Y-76090477D01*
X104940477Y-75970890D01*
X104943824Y-75965563D01*
X105030452Y-75827697D01*
X105030454Y-75827694D01*
X105030454Y-75827692D01*
X105030456Y-75827690D01*
X105086313Y-75668059D01*
X105086313Y-75668058D01*
X105086314Y-75668056D01*
X105105249Y-75500002D01*
X105105249Y-75499997D01*
X105086313Y-75331940D01*
X105086313Y-75331939D01*
X105076696Y-75304455D01*
X105073133Y-75234677D01*
X105107862Y-75174049D01*
X105169855Y-75141821D01*
X105193737Y-75139500D01*
X111450719Y-75139500D01*
X111517758Y-75159185D01*
X111538400Y-75175819D01*
X111884549Y-75521968D01*
X111913908Y-75568693D01*
X111935698Y-75630962D01*
X111969544Y-75727691D01*
X111969547Y-75727697D01*
X112059518Y-75870884D01*
X112059523Y-75870890D01*
X112179109Y-75990476D01*
X112179115Y-75990481D01*
X112322302Y-76080452D01*
X112322305Y-76080454D01*
X112322309Y-76080455D01*
X112322310Y-76080456D01*
X112350946Y-76090476D01*
X112481943Y-76136314D01*
X112649997Y-76155249D01*
X112650000Y-76155249D01*
X112650003Y-76155249D01*
X112818056Y-76136314D01*
X112858077Y-76122310D01*
X112977690Y-76080456D01*
X112977692Y-76080454D01*
X112977694Y-76080454D01*
X112977697Y-76080452D01*
X113120884Y-75990481D01*
X113120885Y-75990480D01*
X113120890Y-75990477D01*
X113240477Y-75870890D01*
X113240481Y-75870884D01*
X113330452Y-75727697D01*
X113330454Y-75727694D01*
X113330455Y-75727691D01*
X113330456Y-75727690D01*
X113386313Y-75568059D01*
X113386313Y-75568058D01*
X113386314Y-75568056D01*
X113405249Y-75400002D01*
X113405249Y-75399997D01*
X113386314Y-75231943D01*
X113335923Y-75087934D01*
X113330456Y-75072310D01*
X113330455Y-75072309D01*
X113330454Y-75072305D01*
X113330452Y-75072302D01*
X113240481Y-74929115D01*
X113240476Y-74929109D01*
X113120890Y-74809523D01*
X113120884Y-74809518D01*
X112977697Y-74719547D01*
X112977691Y-74719544D01*
X112908587Y-74695364D01*
X112818693Y-74663908D01*
X112771968Y-74634549D01*
X112162010Y-74024591D01*
X112162008Y-74024589D01*
X112158604Y-74022314D01*
X112158598Y-74022307D01*
X112158597Y-74022310D01*
X112059238Y-73955920D01*
X112059226Y-73955913D01*
X112025785Y-73942062D01*
X111945035Y-73908614D01*
X111945027Y-73908612D01*
X111823807Y-73884500D01*
X111823803Y-73884500D01*
X100149803Y-73884500D01*
X100026197Y-73884500D01*
X100026192Y-73884500D01*
X99904972Y-73908612D01*
X99904964Y-73908614D01*
X99824215Y-73942062D01*
X99790767Y-73955916D01*
X99691403Y-74022310D01*
X99691399Y-74022313D01*
X99687991Y-74024589D01*
X97926400Y-75786181D01*
X97865077Y-75819666D01*
X97838719Y-75822500D01*
X97497693Y-75822500D01*
X97431721Y-75803494D01*
X97377692Y-75769545D01*
X97377691Y-75769544D01*
X97377690Y-75769544D01*
X97339370Y-75756135D01*
X97218056Y-75713685D01*
X97050003Y-75694751D01*
X97049997Y-75694751D01*
X96881943Y-75713685D01*
X96722305Y-75769545D01*
X96722302Y-75769547D01*
X96579115Y-75859518D01*
X96579109Y-75859523D01*
X96459523Y-75979109D01*
X96459518Y-75979115D01*
X96369547Y-76122302D01*
X96369545Y-76122305D01*
X96313685Y-76281943D01*
X96294751Y-76449997D01*
X96294751Y-76450002D01*
X96313685Y-76618056D01*
X96369545Y-76777694D01*
X96369547Y-76777697D01*
X96459518Y-76920884D01*
X96459523Y-76920890D01*
X96579109Y-77040476D01*
X96579115Y-77040481D01*
X96722302Y-77130452D01*
X96722305Y-77130454D01*
X96722309Y-77130455D01*
X96722310Y-77130456D01*
X96794913Y-77155860D01*
X96881943Y-77186314D01*
X97049997Y-77205249D01*
X97050000Y-77205249D01*
X97050003Y-77205249D01*
X97218056Y-77186314D01*
X97218059Y-77186313D01*
X97377690Y-77130456D01*
X97431721Y-77096505D01*
X97497693Y-77077500D01*
X98211804Y-77077500D01*
X98211805Y-77077499D01*
X98333035Y-77053386D01*
X98413784Y-77019937D01*
X98447233Y-77006083D01*
X98550008Y-76937411D01*
X98637411Y-76850008D01*
X100311600Y-75175819D01*
X100372923Y-75142334D01*
X100399281Y-75139500D01*
X101284903Y-75139500D01*
X101351942Y-75159185D01*
X101397697Y-75211989D01*
X101407641Y-75281147D01*
X101378616Y-75344703D01*
X101372584Y-75351181D01*
X96094584Y-80629181D01*
X96033261Y-80662666D01*
X96006903Y-80665500D01*
X94295192Y-80665500D01*
X94173973Y-80689611D01*
X94173973Y-80689612D01*
X94173970Y-80689613D01*
X94173966Y-80689614D01*
X94107070Y-80717323D01*
X94107068Y-80717323D01*
X94059768Y-80736916D01*
X94059764Y-80736918D01*
X93995629Y-80779772D01*
X93995629Y-80779773D01*
X93956989Y-80805590D01*
X93628030Y-81134549D01*
X93581304Y-81163910D01*
X93422305Y-81219545D01*
X93422302Y-81219547D01*
X93279115Y-81309518D01*
X93279109Y-81309523D01*
X93159523Y-81429109D01*
X93159518Y-81429115D01*
X93069547Y-81572302D01*
X93069545Y-81572305D01*
X93013685Y-81731943D01*
X92994751Y-81899997D01*
X92994751Y-81900002D01*
X90967026Y-81900002D01*
X89933206Y-80866181D01*
X89899721Y-80804858D01*
X89904705Y-80735166D01*
X89946577Y-80679233D01*
X90012041Y-80654816D01*
X90020887Y-80654500D01*
X92736390Y-80654500D01*
X92749725Y-80655249D01*
X92750000Y-80655249D01*
X92750275Y-80655249D01*
X92763610Y-80654500D01*
X92824313Y-80654500D01*
X92840097Y-80651359D01*
X92907607Y-80637930D01*
X92917901Y-80636330D01*
X92918059Y-80636313D01*
X92918066Y-80636310D01*
X92924853Y-80634762D01*
X92924873Y-80634852D01*
X92929644Y-80633547D01*
X92970080Y-80625505D01*
X93107390Y-80568629D01*
X93230966Y-80486059D01*
X93336059Y-80380966D01*
X93418629Y-80257390D01*
X93475505Y-80120080D01*
X93483547Y-80079644D01*
X93484852Y-80074873D01*
X93484762Y-80074853D01*
X93486311Y-80068064D01*
X93486313Y-80068059D01*
X93486330Y-80067901D01*
X93487930Y-80057607D01*
X93504500Y-79974312D01*
X93504500Y-79913610D01*
X93505249Y-79900272D01*
X93505249Y-79899721D01*
X93504500Y-79886390D01*
X93504500Y-79825686D01*
X93487933Y-79742404D01*
X93486330Y-79732093D01*
X93486313Y-79731941D01*
X93486310Y-79731934D01*
X93486310Y-79731928D01*
X93484763Y-79725146D01*
X93484851Y-79725125D01*
X93483547Y-79720352D01*
X93475505Y-79679920D01*
X93418629Y-79542610D01*
X93416278Y-79539092D01*
X93336060Y-79419035D01*
X93336054Y-79419028D01*
X93230971Y-79313945D01*
X93230964Y-79313939D01*
X93107391Y-79231371D01*
X92970078Y-79174494D01*
X92970075Y-79174493D01*
X92929636Y-79166449D01*
X92924856Y-79165145D01*
X92924836Y-79165234D01*
X92918048Y-79163684D01*
X92917891Y-79163667D01*
X92907609Y-79162068D01*
X92824312Y-79145500D01*
X92824310Y-79145500D01*
X92763610Y-79145500D01*
X92750275Y-79144751D01*
X92749725Y-79144751D01*
X92736390Y-79145500D01*
X88263886Y-79145500D01*
X88196847Y-79125815D01*
X88176205Y-79109181D01*
X83940819Y-74873794D01*
X83907334Y-74812471D01*
X83904500Y-74786113D01*
X83904500Y-69363610D01*
X83905249Y-69350272D01*
X83905249Y-69349721D01*
X83904500Y-69336390D01*
X83904500Y-69275686D01*
X83893231Y-69219035D01*
X83887931Y-69192393D01*
X83886330Y-69182093D01*
X83886313Y-69181941D01*
X83886310Y-69181934D01*
X83886310Y-69181928D01*
X83884763Y-69175146D01*
X83884851Y-69175125D01*
X83883547Y-69170352D01*
X83875505Y-69129920D01*
X83818629Y-68992610D01*
X83809869Y-68979500D01*
X83736060Y-68869035D01*
X83736054Y-68869028D01*
X83630971Y-68763945D01*
X83630964Y-68763939D01*
X83507391Y-68681371D01*
X83370078Y-68624494D01*
X83370075Y-68624493D01*
X83329636Y-68616449D01*
X83324856Y-68615145D01*
X83324836Y-68615234D01*
X83318048Y-68613684D01*
X83317891Y-68613667D01*
X83307609Y-68612068D01*
X83224312Y-68595500D01*
X83224310Y-68595500D01*
X83163610Y-68595500D01*
X83150275Y-68594751D01*
X83149725Y-68594751D01*
X83136390Y-68595500D01*
X83075688Y-68595500D01*
X82992388Y-68612068D01*
X82982103Y-68613668D01*
X82981944Y-68613685D01*
X82975164Y-68615233D01*
X82975144Y-68615145D01*
X82970365Y-68616449D01*
X82929923Y-68624493D01*
X82929921Y-68624494D01*
X82792608Y-68681371D01*
X82669035Y-68763939D01*
X82669028Y-68763945D01*
X82563943Y-68869030D01*
X82549670Y-68890392D01*
X82496057Y-68935196D01*
X82446568Y-68945500D01*
X82413610Y-68945500D01*
X82400275Y-68944751D01*
X82399725Y-68944751D01*
X82386390Y-68945500D01*
X82325688Y-68945500D01*
X82242388Y-68962068D01*
X82232103Y-68963668D01*
X82231944Y-68963685D01*
X82225164Y-68965233D01*
X82225144Y-68965145D01*
X82220365Y-68966449D01*
X82179923Y-68974493D01*
X82179921Y-68974494D01*
X82042608Y-69031371D01*
X81919035Y-69113939D01*
X81919028Y-69113945D01*
X81813945Y-69219028D01*
X81813939Y-69219035D01*
X81731371Y-69342608D01*
X81674494Y-69479921D01*
X81674493Y-69479923D01*
X81666449Y-69520365D01*
X81665145Y-69525144D01*
X81665233Y-69525164D01*
X81663685Y-69531944D01*
X81663668Y-69532103D01*
X81662068Y-69542388D01*
X81645500Y-69625688D01*
X81645500Y-69686390D01*
X81644751Y-69699721D01*
X81644751Y-69700272D01*
X81645500Y-69713610D01*
X81645500Y-75370552D01*
X81645499Y-75370578D01*
X81645499Y-75524314D01*
X81666714Y-75630962D01*
X81666714Y-75630965D01*
X81674493Y-75670073D01*
X81674495Y-75670079D01*
X81679861Y-75683033D01*
X81679862Y-75683037D01*
X81731366Y-75807381D01*
X81731372Y-75807392D01*
X81813942Y-75930968D01*
X81813943Y-75930969D01*
X89414310Y-83531334D01*
X89447795Y-83592657D01*
X89442811Y-83662349D01*
X89417345Y-83701978D01*
X89417806Y-83702357D01*
X89414563Y-83706308D01*
X89414320Y-83706687D01*
X89413943Y-83707063D01*
X89413942Y-83707064D01*
X89331372Y-83830640D01*
X89331366Y-83830651D01*
X89274496Y-83967949D01*
X89274493Y-83967959D01*
X89245499Y-84113718D01*
X89245499Y-84268458D01*
X89245500Y-84268479D01*
X89245500Y-99846608D01*
X89225815Y-99913647D01*
X89192627Y-99948181D01*
X89173599Y-99961505D01*
X89173595Y-99961508D01*
X89006505Y-100128597D01*
X88876575Y-100314158D01*
X88821998Y-100357783D01*
X88752500Y-100364977D01*
X88690145Y-100333454D01*
X88673425Y-100314158D01*
X88543494Y-100128597D01*
X88376402Y-99961506D01*
X88376395Y-99961501D01*
X88182834Y-99825967D01*
X88182830Y-99825965D01*
X88103586Y-99789013D01*
X87968663Y-99726097D01*
X87968659Y-99726096D01*
X87968655Y-99726094D01*
X87740413Y-99664938D01*
X87740403Y-99664936D01*
X87505001Y-99644341D01*
X87504999Y-99644341D01*
X87269596Y-99664936D01*
X87269586Y-99664938D01*
X87041344Y-99726094D01*
X87041335Y-99726098D01*
X86827171Y-99825964D01*
X86827169Y-99825965D01*
X86633597Y-99961505D01*
X86466505Y-100128597D01*
X86336575Y-100314158D01*
X86281998Y-100357783D01*
X86212500Y-100364977D01*
X86150145Y-100333454D01*
X86133425Y-100314158D01*
X86003494Y-100128597D01*
X85836402Y-99961506D01*
X85836395Y-99961501D01*
X85642834Y-99825967D01*
X85642830Y-99825965D01*
X85563586Y-99789013D01*
X85428663Y-99726097D01*
X85428659Y-99726096D01*
X85428655Y-99726094D01*
X85200413Y-99664938D01*
X85200403Y-99664936D01*
X84965001Y-99644341D01*
X84964999Y-99644341D01*
X84729596Y-99664936D01*
X84729586Y-99664938D01*
X84501344Y-99726094D01*
X84501335Y-99726098D01*
X84287171Y-99825964D01*
X84287169Y-99825965D01*
X84093597Y-99961505D01*
X83926505Y-100128597D01*
X83796575Y-100314158D01*
X83741998Y-100357783D01*
X83672500Y-100364977D01*
X83610145Y-100333454D01*
X83593425Y-100314158D01*
X83463494Y-100128597D01*
X83296402Y-99961506D01*
X83296395Y-99961501D01*
X83102834Y-99825967D01*
X83102830Y-99825965D01*
X83023586Y-99789013D01*
X82888663Y-99726097D01*
X82888659Y-99726096D01*
X82888655Y-99726094D01*
X82660413Y-99664938D01*
X82660403Y-99664936D01*
X82425001Y-99644341D01*
X82424999Y-99644341D01*
X82189596Y-99664936D01*
X82189586Y-99664938D01*
X81961344Y-99726094D01*
X81961335Y-99726098D01*
X81747171Y-99825964D01*
X81747169Y-99825965D01*
X81553597Y-99961505D01*
X81386505Y-100128597D01*
X81256575Y-100314158D01*
X81201998Y-100357783D01*
X81132500Y-100364977D01*
X81070145Y-100333454D01*
X81053425Y-100314158D01*
X80923494Y-100128597D01*
X80756402Y-99961506D01*
X80756395Y-99961501D01*
X80562834Y-99825967D01*
X80562830Y-99825965D01*
X80483586Y-99789013D01*
X80348663Y-99726097D01*
X80348659Y-99726096D01*
X80348655Y-99726094D01*
X80120413Y-99664938D01*
X80120403Y-99664936D01*
X79885001Y-99644341D01*
X79884999Y-99644341D01*
X79649596Y-99664936D01*
X79649586Y-99664938D01*
X79421344Y-99726094D01*
X79421335Y-99726098D01*
X79207171Y-99825964D01*
X79207169Y-99825965D01*
X79013597Y-99961505D01*
X78846505Y-100128597D01*
X78716575Y-100314158D01*
X78661998Y-100357783D01*
X78592500Y-100364977D01*
X78530145Y-100333454D01*
X78513425Y-100314158D01*
X78383494Y-100128597D01*
X78216402Y-99961506D01*
X78216395Y-99961501D01*
X78022834Y-99825967D01*
X78022830Y-99825965D01*
X77943586Y-99789013D01*
X77808663Y-99726097D01*
X77808659Y-99726096D01*
X77808655Y-99726094D01*
X77580413Y-99664938D01*
X77580403Y-99664936D01*
X77345001Y-99644341D01*
X77344999Y-99644341D01*
X77109596Y-99664936D01*
X77109586Y-99664938D01*
X76881344Y-99726094D01*
X76881335Y-99726098D01*
X76667171Y-99825964D01*
X76667169Y-99825965D01*
X76473597Y-99961505D01*
X76306505Y-100128597D01*
X76176575Y-100314158D01*
X76121998Y-100357783D01*
X76052500Y-100364977D01*
X75990145Y-100333454D01*
X75973425Y-100314158D01*
X75843494Y-100128597D01*
X75676402Y-99961506D01*
X75676395Y-99961501D01*
X75482834Y-99825967D01*
X75482830Y-99825965D01*
X75403586Y-99789013D01*
X75268663Y-99726097D01*
X75268659Y-99726096D01*
X75268655Y-99726094D01*
X75040413Y-99664938D01*
X75040403Y-99664936D01*
X74805001Y-99644341D01*
X74804999Y-99644341D01*
X74569596Y-99664936D01*
X74569586Y-99664938D01*
X74341344Y-99726094D01*
X74341335Y-99726098D01*
X74127171Y-99825964D01*
X74127169Y-99825965D01*
X73933597Y-99961505D01*
X73766505Y-100128597D01*
X73636575Y-100314158D01*
X73581998Y-100357783D01*
X73512500Y-100364977D01*
X73450145Y-100333454D01*
X73433425Y-100314158D01*
X73303494Y-100128597D01*
X73136402Y-99961506D01*
X73136395Y-99961501D01*
X72942834Y-99825967D01*
X72942830Y-99825965D01*
X72863586Y-99789013D01*
X72728663Y-99726097D01*
X72728659Y-99726096D01*
X72728655Y-99726094D01*
X72500413Y-99664938D01*
X72500403Y-99664936D01*
X72265001Y-99644341D01*
X72264999Y-99644341D01*
X72029596Y-99664936D01*
X72029586Y-99664938D01*
X71801344Y-99726094D01*
X71801335Y-99726098D01*
X71587171Y-99825964D01*
X71587169Y-99825965D01*
X71393597Y-99961505D01*
X71226505Y-100128597D01*
X71090965Y-100322169D01*
X71090964Y-100322171D01*
X70991098Y-100536335D01*
X70991094Y-100536344D01*
X70929938Y-100764586D01*
X70929936Y-100764596D01*
X70909341Y-100999999D01*
X70909341Y-101000000D01*
X67525121Y-101000000D01*
X67525121Y-100913129D01*
X68225121Y-100913129D01*
X68225121Y-100776557D01*
X68198035Y-100605544D01*
X68144529Y-100440871D01*
X68065925Y-100286604D01*
X67964153Y-100146526D01*
X67841723Y-100024096D01*
X67701645Y-99922324D01*
X67547378Y-99843720D01*
X67382710Y-99790216D01*
X67382702Y-99790214D01*
X67375121Y-99789013D01*
X67375121Y-100547443D01*
X67370727Y-100543049D01*
X67279515Y-100490388D01*
X67177782Y-100463129D01*
X67072460Y-100463129D01*
X66970727Y-100490388D01*
X66879515Y-100543049D01*
X66875121Y-100547443D01*
X66875121Y-99789013D01*
X66875120Y-99789013D01*
X66867539Y-99790214D01*
X66867531Y-99790216D01*
X66702863Y-99843720D01*
X66548596Y-99922324D01*
X66408518Y-100024096D01*
X66286088Y-100146526D01*
X66184316Y-100286604D01*
X66105712Y-100440871D01*
X66052206Y-100605544D01*
X66025121Y-100776557D01*
X66025121Y-100913129D01*
X66725121Y-100913129D01*
X66725121Y-101413129D01*
X66025121Y-101413129D01*
X66025121Y-101549700D01*
X59574879Y-101549700D01*
X59574879Y-101413129D01*
X58874879Y-101413129D01*
X58874879Y-100913129D01*
X59574879Y-100913129D01*
X59574879Y-100776557D01*
X59547793Y-100605544D01*
X59494287Y-100440871D01*
X59415683Y-100286604D01*
X59313911Y-100146526D01*
X59191481Y-100024096D01*
X59051403Y-99922324D01*
X58897136Y-99843720D01*
X58732468Y-99790216D01*
X58732460Y-99790214D01*
X58724879Y-99789013D01*
X58724879Y-100547443D01*
X58720485Y-100543049D01*
X58629273Y-100490388D01*
X58527540Y-100463129D01*
X58422218Y-100463129D01*
X58320485Y-100490388D01*
X58229273Y-100543049D01*
X58224879Y-100547443D01*
X58224879Y-99789013D01*
X58224878Y-99789013D01*
X58217297Y-99790214D01*
X58217289Y-99790216D01*
X58052621Y-99843720D01*
X57898354Y-99922324D01*
X57758276Y-100024096D01*
X57635846Y-100146526D01*
X57534074Y-100286604D01*
X57455470Y-100440871D01*
X57401964Y-100605544D01*
X57374879Y-100776557D01*
X57374879Y-100913129D01*
X58074879Y-100913129D01*
X58074879Y-101413129D01*
X57374879Y-101413129D01*
X57374879Y-101549700D01*
X55338415Y-101549700D01*
X55385783Y-101301390D01*
X55385784Y-101301383D01*
X55404745Y-101000005D01*
X55404745Y-100999994D01*
X55385784Y-100698616D01*
X55385783Y-100698609D01*
X55329194Y-100401959D01*
X55235874Y-100114752D01*
X55235872Y-100114747D01*
X55107295Y-99841507D01*
X55107292Y-99841502D01*
X54945483Y-99586530D01*
X54864686Y-99488864D01*
X53936289Y-100417261D01*
X53839033Y-100283398D01*
X53716602Y-100160967D01*
X53582736Y-100063709D01*
X54513434Y-99133011D01*
X54513433Y-99133009D01*
X54288538Y-98969614D01*
X54288520Y-98969602D01*
X54023890Y-98824121D01*
X54023882Y-98824117D01*
X53743110Y-98712952D01*
X53743107Y-98712951D01*
X53450600Y-98637849D01*
X53151004Y-98600000D01*
X52848995Y-98600000D01*
X52549399Y-98637849D01*
X52256892Y-98712951D01*
X52256889Y-98712952D01*
X51976117Y-98824117D01*
X51976109Y-98824121D01*
X51711476Y-98969604D01*
X51711471Y-98969607D01*
X51486565Y-99133010D01*
X51486564Y-99133011D01*
X52417262Y-100063709D01*
X52283398Y-100160967D01*
X52160967Y-100283398D01*
X52063709Y-100417262D01*
X51135311Y-99488864D01*
X51054520Y-99586525D01*
X51054518Y-99586528D01*
X50892707Y-99841502D01*
X50892705Y-99841507D01*
X50764127Y-100114747D01*
X50764125Y-100114752D01*
X50742431Y-100181520D01*
X50702993Y-100239196D01*
X50638635Y-100266394D01*
X50569788Y-100254479D01*
X50518313Y-100207235D01*
X50500500Y-100143202D01*
X50500500Y-97469868D01*
X57374879Y-97469868D01*
X57401964Y-97640881D01*
X57455470Y-97805554D01*
X57534074Y-97959821D01*
X57635846Y-98099899D01*
X57758276Y-98222329D01*
X57898354Y-98324101D01*
X58052623Y-98402705D01*
X58217294Y-98456211D01*
X58217293Y-98456211D01*
X58224878Y-98457412D01*
X58224879Y-98457411D01*
X58224879Y-97698996D01*
X58229273Y-97703390D01*
X58320485Y-97756051D01*
X58422218Y-97783310D01*
X58527540Y-97783310D01*
X58629273Y-97756051D01*
X58720485Y-97703390D01*
X58724879Y-97698996D01*
X58724879Y-98457412D01*
X58732463Y-98456211D01*
X58897134Y-98402705D01*
X59051403Y-98324101D01*
X59191481Y-98222329D01*
X59313913Y-98099897D01*
X59368966Y-98024121D01*
X59424296Y-97981454D01*
X59493909Y-97975473D01*
X59538177Y-97993902D01*
X59603780Y-98037737D01*
X59603784Y-98037739D01*
X59603787Y-98037741D01*
X59717622Y-98084894D01*
X59838469Y-98108931D01*
X59838471Y-98108931D01*
X59961681Y-98108931D01*
X59961683Y-98108931D01*
X60082530Y-98084894D01*
X60196365Y-98037741D01*
X60298814Y-97969287D01*
X60385939Y-97882162D01*
X60454393Y-97779713D01*
X60501546Y-97665878D01*
X60525583Y-97545031D01*
X60525583Y-97421817D01*
X60521244Y-97400002D01*
X61794614Y-97400002D01*
X61813549Y-97568057D01*
X61869406Y-97727690D01*
X61903356Y-97781719D01*
X61922363Y-97847692D01*
X61922363Y-98206524D01*
X61903357Y-98272496D01*
X61869545Y-98326307D01*
X61813685Y-98485943D01*
X61794751Y-98653997D01*
X61794751Y-98654002D01*
X61813685Y-98822056D01*
X61869545Y-98981694D01*
X61869547Y-98981697D01*
X61959518Y-99124884D01*
X61959523Y-99124890D01*
X62079109Y-99244476D01*
X62079115Y-99244481D01*
X62222302Y-99334452D01*
X62222305Y-99334454D01*
X62222309Y-99334455D01*
X62222310Y-99334456D01*
X62294913Y-99359860D01*
X62381943Y-99390314D01*
X62549997Y-99409249D01*
X62550000Y-99409249D01*
X62550003Y-99409249D01*
X62718056Y-99390314D01*
X62718059Y-99390313D01*
X62877690Y-99334456D01*
X62877692Y-99334454D01*
X62877694Y-99334454D01*
X62877697Y-99334452D01*
X63020884Y-99244481D01*
X63020885Y-99244480D01*
X63020890Y-99244477D01*
X63140477Y-99124890D01*
X63140481Y-99124884D01*
X63230452Y-98981697D01*
X63230454Y-98981694D01*
X63230454Y-98981692D01*
X63230456Y-98981690D01*
X63286313Y-98822059D01*
X63286313Y-98822058D01*
X63286314Y-98822056D01*
X63305249Y-98654002D01*
X63305249Y-98653997D01*
X63286314Y-98485943D01*
X63272904Y-98447621D01*
X63230456Y-98326310D01*
X63224511Y-98316849D01*
X63196369Y-98272060D01*
X63177363Y-98206088D01*
X63177363Y-97847692D01*
X63196370Y-97781719D01*
X63230319Y-97727690D01*
X63251948Y-97665878D01*
X63286176Y-97568059D01*
X63288771Y-97545031D01*
X65074417Y-97545031D01*
X65098454Y-97665878D01*
X65098455Y-97665880D01*
X65145605Y-97779709D01*
X65145610Y-97779719D01*
X65214060Y-97882161D01*
X65214063Y-97882165D01*
X65301182Y-97969284D01*
X65301186Y-97969287D01*
X65403628Y-98037737D01*
X65403632Y-98037739D01*
X65403635Y-98037741D01*
X65517470Y-98084894D01*
X65638317Y-98108931D01*
X65638319Y-98108931D01*
X65761529Y-98108931D01*
X65761531Y-98108931D01*
X65882378Y-98084894D01*
X65996213Y-98037741D01*
X66016597Y-98024121D01*
X66061822Y-97993903D01*
X66128500Y-97973025D01*
X66195880Y-97991510D01*
X66231032Y-98024120D01*
X66286088Y-98099899D01*
X66408518Y-98222329D01*
X66548596Y-98324101D01*
X66702865Y-98402705D01*
X66867536Y-98456211D01*
X66867535Y-98456211D01*
X66875120Y-98457412D01*
X66875121Y-98457411D01*
X66875121Y-97698971D01*
X66879515Y-97703365D01*
X66970727Y-97756026D01*
X67072460Y-97783285D01*
X67177782Y-97783285D01*
X67279515Y-97756026D01*
X67370727Y-97703365D01*
X67375121Y-97698971D01*
X67375121Y-98457412D01*
X67382705Y-98456211D01*
X67547376Y-98402705D01*
X67701645Y-98324101D01*
X67841723Y-98222329D01*
X67964153Y-98099899D01*
X68065925Y-97959821D01*
X68144529Y-97805554D01*
X68198035Y-97640881D01*
X68225121Y-97469868D01*
X68225121Y-97233297D01*
X67525121Y-97233297D01*
X67525121Y-96733297D01*
X68225121Y-96733297D01*
X68225121Y-96496725D01*
X68198035Y-96325712D01*
X68144529Y-96161039D01*
X68065925Y-96006772D01*
X67964153Y-95866694D01*
X67841723Y-95744264D01*
X67701645Y-95642492D01*
X67547378Y-95563888D01*
X67382710Y-95510384D01*
X67382702Y-95510382D01*
X67375121Y-95509181D01*
X67375121Y-96267623D01*
X67370727Y-96263229D01*
X67279515Y-96210568D01*
X67177782Y-96183309D01*
X67072460Y-96183309D01*
X66970727Y-96210568D01*
X66879515Y-96263229D01*
X66875121Y-96267623D01*
X66875121Y-95509181D01*
X66875120Y-95509181D01*
X66867539Y-95510382D01*
X66867531Y-95510384D01*
X66702863Y-95563888D01*
X66548596Y-95642492D01*
X66408518Y-95744264D01*
X66286088Y-95866694D01*
X66184316Y-96006772D01*
X66105712Y-96161039D01*
X66052206Y-96325712D01*
X66025121Y-96496725D01*
X66025121Y-96759253D01*
X66005436Y-96826292D01*
X65952632Y-96872047D01*
X65883474Y-96881991D01*
X65876946Y-96880873D01*
X65761531Y-96857917D01*
X65638317Y-96857917D01*
X65517470Y-96881954D01*
X65517468Y-96881954D01*
X65517467Y-96881955D01*
X65403638Y-96929105D01*
X65403628Y-96929110D01*
X65301186Y-96997560D01*
X65301182Y-96997563D01*
X65214063Y-97084682D01*
X65214060Y-97084686D01*
X65145610Y-97187128D01*
X65145605Y-97187138D01*
X65098455Y-97300967D01*
X65098454Y-97300970D01*
X65074417Y-97421817D01*
X65074417Y-97545031D01*
X63288771Y-97545031D01*
X63305112Y-97400000D01*
X63293954Y-97300970D01*
X63286177Y-97231943D01*
X63255723Y-97144913D01*
X63230319Y-97072310D01*
X63230318Y-97072309D01*
X63230317Y-97072305D01*
X63230315Y-97072302D01*
X63140344Y-96929115D01*
X63140339Y-96929109D01*
X63020753Y-96809523D01*
X63020747Y-96809518D01*
X62877560Y-96719547D01*
X62877557Y-96719545D01*
X62717919Y-96663685D01*
X62549866Y-96644751D01*
X62549860Y-96644751D01*
X62381806Y-96663685D01*
X62222168Y-96719545D01*
X62222165Y-96719547D01*
X62078978Y-96809518D01*
X62078972Y-96809523D01*
X61959386Y-96929109D01*
X61959381Y-96929115D01*
X61869410Y-97072302D01*
X61869408Y-97072305D01*
X61813548Y-97231943D01*
X61794614Y-97399997D01*
X61794614Y-97400002D01*
X60521244Y-97400002D01*
X60501546Y-97300970D01*
X60454393Y-97187135D01*
X60454391Y-97187132D01*
X60454389Y-97187128D01*
X60385939Y-97084686D01*
X60385936Y-97084682D01*
X60298817Y-96997563D01*
X60298813Y-96997560D01*
X60196371Y-96929110D01*
X60196361Y-96929105D01*
X60082532Y-96881955D01*
X60082530Y-96881954D01*
X59961683Y-96857917D01*
X59838469Y-96857917D01*
X59723067Y-96880870D01*
X59653478Y-96874643D01*
X59598301Y-96831779D01*
X59575057Y-96765889D01*
X59574879Y-96759253D01*
X59574879Y-96496725D01*
X59547793Y-96325712D01*
X59494287Y-96161039D01*
X59415683Y-96006772D01*
X59313911Y-95866694D01*
X59191481Y-95744264D01*
X59051403Y-95642492D01*
X58897136Y-95563888D01*
X58732468Y-95510384D01*
X58732460Y-95510382D01*
X58724879Y-95509181D01*
X58724879Y-96267598D01*
X58720485Y-96263204D01*
X58629273Y-96210543D01*
X58527540Y-96183284D01*
X58422218Y-96183284D01*
X58320485Y-96210543D01*
X58229273Y-96263204D01*
X58224879Y-96267598D01*
X58224879Y-95509181D01*
X58224878Y-95509181D01*
X58217297Y-95510382D01*
X58217289Y-95510384D01*
X58052621Y-95563888D01*
X57898354Y-95642492D01*
X57758276Y-95744264D01*
X57635846Y-95866694D01*
X57534074Y-96006772D01*
X57455470Y-96161039D01*
X57401964Y-96325712D01*
X57374879Y-96496725D01*
X57374879Y-96733297D01*
X58074879Y-96733297D01*
X58074879Y-97233297D01*
X57374879Y-97233297D01*
X57374879Y-97469868D01*
X50500500Y-97469868D01*
X50500500Y-84500005D01*
X58794357Y-84500005D01*
X58814890Y-84747812D01*
X58814892Y-84747824D01*
X58875936Y-84988881D01*
X58975826Y-85216606D01*
X59111833Y-85424782D01*
X59111836Y-85424785D01*
X59280256Y-85607738D01*
X59476491Y-85760474D01*
X59476493Y-85760475D01*
X59694332Y-85878364D01*
X59695190Y-85878828D01*
X59884426Y-85943793D01*
X59928964Y-85959083D01*
X59930386Y-85959571D01*
X60175665Y-86000500D01*
X60424335Y-86000500D01*
X60669614Y-85959571D01*
X60904810Y-85878828D01*
X61123509Y-85760474D01*
X61319744Y-85607738D01*
X61488164Y-85424785D01*
X61488169Y-85424777D01*
X61491311Y-85420741D01*
X61493050Y-85422094D01*
X61539095Y-85382764D01*
X61568378Y-85378069D01*
X62317037Y-84629409D01*
X62334075Y-84692993D01*
X62399901Y-84807007D01*
X62492993Y-84900099D01*
X62607007Y-84965925D01*
X62670588Y-84982962D01*
X61929942Y-85723609D01*
X61976768Y-85760055D01*
X61976770Y-85760056D01*
X62195385Y-85878364D01*
X62195396Y-85878369D01*
X62430506Y-85959083D01*
X62675707Y-86000000D01*
X62924293Y-86000000D01*
X63169493Y-85959083D01*
X63404603Y-85878369D01*
X63404614Y-85878364D01*
X63623230Y-85760056D01*
X63623236Y-85760051D01*
X63679107Y-85716565D01*
X63744101Y-85690921D01*
X63812641Y-85704487D01*
X63854537Y-85740105D01*
X63942455Y-85857547D01*
X64057664Y-85943793D01*
X64057671Y-85943797D01*
X64192517Y-85994091D01*
X64192516Y-85994091D01*
X64199444Y-85994835D01*
X64252127Y-86000500D01*
X66347872Y-86000499D01*
X66407483Y-85994091D01*
X66542331Y-85943796D01*
X66657546Y-85857546D01*
X66743796Y-85742331D01*
X66794091Y-85607483D01*
X66800500Y-85547873D01*
X66800499Y-83452128D01*
X66794091Y-83392517D01*
X66762101Y-83306748D01*
X66743797Y-83257671D01*
X66743793Y-83257664D01*
X66657547Y-83142455D01*
X66657544Y-83142452D01*
X66542335Y-83056206D01*
X66542328Y-83056202D01*
X66407482Y-83005908D01*
X66407483Y-83005908D01*
X66347883Y-82999501D01*
X66347881Y-82999500D01*
X66347873Y-82999500D01*
X66347864Y-82999500D01*
X64252129Y-82999500D01*
X64252123Y-82999501D01*
X64192516Y-83005908D01*
X64057671Y-83056202D01*
X64057664Y-83056206D01*
X63942455Y-83142452D01*
X63854537Y-83259894D01*
X63798603Y-83301764D01*
X63728911Y-83306748D01*
X63679109Y-83283436D01*
X63623230Y-83239943D01*
X63623228Y-83239942D01*
X63404614Y-83121635D01*
X63404603Y-83121630D01*
X63169493Y-83040916D01*
X62924293Y-83000000D01*
X62675707Y-83000000D01*
X62430506Y-83040916D01*
X62195396Y-83121630D01*
X62195390Y-83121632D01*
X61976761Y-83239949D01*
X61929942Y-83276388D01*
X61929942Y-83276390D01*
X62670590Y-84017037D01*
X62607007Y-84034075D01*
X62492993Y-84099901D01*
X62399901Y-84192993D01*
X62334075Y-84307007D01*
X62317037Y-84370589D01*
X61567372Y-83620924D01*
X61533885Y-83614752D01*
X61492873Y-83578053D01*
X61491317Y-83579265D01*
X61488169Y-83575220D01*
X61442865Y-83526007D01*
X61319744Y-83392262D01*
X61123509Y-83239526D01*
X61123507Y-83239525D01*
X61123506Y-83239524D01*
X60904811Y-83121172D01*
X60904802Y-83121169D01*
X60669616Y-83040429D01*
X60424335Y-82999500D01*
X60175665Y-82999500D01*
X59930383Y-83040429D01*
X59695197Y-83121169D01*
X59695188Y-83121172D01*
X59476493Y-83239524D01*
X59280257Y-83392261D01*
X59111833Y-83575217D01*
X58975826Y-83783393D01*
X58875936Y-84011118D01*
X58814892Y-84252175D01*
X58814890Y-84252187D01*
X58794357Y-84499994D01*
X58794357Y-84500005D01*
X50500500Y-84500005D01*
X50500500Y-78647870D01*
X55699500Y-78647870D01*
X55699501Y-78647876D01*
X55705908Y-78707483D01*
X55756202Y-78842328D01*
X55756206Y-78842335D01*
X55842452Y-78957544D01*
X55842455Y-78957547D01*
X55957664Y-79043793D01*
X55957671Y-79043797D01*
X56092517Y-79094091D01*
X56092516Y-79094091D01*
X56099444Y-79094835D01*
X56152127Y-79100500D01*
X58247872Y-79100499D01*
X58307483Y-79094091D01*
X58442331Y-79043796D01*
X58557546Y-78957546D01*
X58643796Y-78842331D01*
X58694091Y-78707483D01*
X58700500Y-78647873D01*
X58700500Y-78647870D01*
X66899500Y-78647870D01*
X66899501Y-78647876D01*
X66905908Y-78707483D01*
X66956202Y-78842328D01*
X66956206Y-78842335D01*
X67042452Y-78957544D01*
X67042455Y-78957547D01*
X67157664Y-79043793D01*
X67157671Y-79043797D01*
X67292517Y-79094091D01*
X67292516Y-79094091D01*
X67299444Y-79094835D01*
X67352127Y-79100500D01*
X69447872Y-79100499D01*
X69507483Y-79094091D01*
X69642331Y-79043796D01*
X69757546Y-78957546D01*
X69843796Y-78842331D01*
X69894091Y-78707483D01*
X69900500Y-78647873D01*
X69900499Y-76011744D01*
X69920184Y-75944706D01*
X69972987Y-75898951D01*
X70042146Y-75889007D01*
X70093388Y-75908642D01*
X70211628Y-75987647D01*
X70348938Y-76044522D01*
X70389370Y-76052564D01*
X70394152Y-76053870D01*
X70394173Y-76053781D01*
X70400956Y-76055330D01*
X70401106Y-76055347D01*
X70411415Y-76056950D01*
X70459040Y-76066423D01*
X70494704Y-76073518D01*
X70494705Y-76073518D01*
X70555416Y-76073518D01*
X70568731Y-76074266D01*
X70569017Y-76074266D01*
X70569303Y-76074266D01*
X70582618Y-76073518D01*
X70643330Y-76073518D01*
X70670787Y-76068056D01*
X70726620Y-76056949D01*
X70736926Y-76055346D01*
X70737076Y-76055330D01*
X70737079Y-76055329D01*
X70743868Y-76053779D01*
X70743888Y-76053869D01*
X70748669Y-76052563D01*
X70789096Y-76044522D01*
X70926406Y-75987647D01*
X71049983Y-75905076D01*
X73730963Y-73224094D01*
X73730966Y-73224093D01*
X73836059Y-73119000D01*
X73918629Y-72995424D01*
X73918630Y-72995423D01*
X73951946Y-72914989D01*
X73975505Y-72858114D01*
X73980315Y-72833928D01*
X74004501Y-72712346D01*
X74004501Y-72563722D01*
X74004501Y-72558612D01*
X74004500Y-72558586D01*
X74004500Y-71713610D01*
X74005249Y-71700272D01*
X74005249Y-71699721D01*
X74004500Y-71686390D01*
X74004500Y-71625686D01*
X73996694Y-71586447D01*
X73987931Y-71542393D01*
X73986330Y-71532093D01*
X73986313Y-71531941D01*
X73986310Y-71531934D01*
X73986310Y-71531928D01*
X73984763Y-71525146D01*
X73984851Y-71525125D01*
X73983547Y-71520352D01*
X73975505Y-71479920D01*
X73918629Y-71342610D01*
X73881354Y-71286824D01*
X73836060Y-71219035D01*
X73836054Y-71219028D01*
X73730971Y-71113945D01*
X73730964Y-71113939D01*
X73607391Y-71031371D01*
X73470078Y-70974494D01*
X73470075Y-70974493D01*
X73429636Y-70966449D01*
X73424856Y-70965145D01*
X73424836Y-70965234D01*
X73418048Y-70963684D01*
X73417891Y-70963667D01*
X73407609Y-70962068D01*
X73324312Y-70945500D01*
X73324310Y-70945500D01*
X73263610Y-70945500D01*
X73250275Y-70944751D01*
X73249725Y-70944751D01*
X73236390Y-70945500D01*
X73175688Y-70945500D01*
X73092388Y-70962068D01*
X73082103Y-70963668D01*
X73081944Y-70963685D01*
X73075164Y-70965233D01*
X73075144Y-70965145D01*
X73070365Y-70966449D01*
X73029923Y-70974493D01*
X73029921Y-70974494D01*
X72892608Y-71031371D01*
X72769035Y-71113939D01*
X72769028Y-71113945D01*
X72663945Y-71219028D01*
X72663939Y-71219035D01*
X72581371Y-71342608D01*
X72524494Y-71479921D01*
X72524493Y-71479923D01*
X72516449Y-71520365D01*
X72515145Y-71525144D01*
X72515233Y-71525164D01*
X72513685Y-71531944D01*
X72513668Y-71532103D01*
X72512068Y-71542388D01*
X72495500Y-71625688D01*
X72495500Y-71686390D01*
X72494751Y-71699721D01*
X72494751Y-71700272D01*
X72495500Y-71713610D01*
X72495500Y-72274147D01*
X72475815Y-72341186D01*
X72459181Y-72361828D01*
X71389181Y-73431828D01*
X71327858Y-73465313D01*
X71258166Y-73460329D01*
X71202233Y-73418457D01*
X71177816Y-73352993D01*
X71177500Y-73344147D01*
X71177500Y-72297692D01*
X71196507Y-72231719D01*
X71230456Y-72177690D01*
X71232272Y-72172500D01*
X71286313Y-72018059D01*
X71305249Y-71850000D01*
X71305249Y-71849997D01*
X71286314Y-71681943D01*
X71237487Y-71542404D01*
X71230456Y-71522310D01*
X71230455Y-71522309D01*
X71230454Y-71522305D01*
X71230452Y-71522302D01*
X71140481Y-71379115D01*
X71140476Y-71379109D01*
X71020890Y-71259523D01*
X71020884Y-71259518D01*
X70877697Y-71169547D01*
X70877694Y-71169545D01*
X70718056Y-71113685D01*
X70550003Y-71094751D01*
X70549997Y-71094751D01*
X70381943Y-71113685D01*
X70222305Y-71169545D01*
X70222302Y-71169547D01*
X70079115Y-71259518D01*
X70079109Y-71259523D01*
X69959523Y-71379109D01*
X69959518Y-71379115D01*
X69869547Y-71522302D01*
X69869545Y-71522305D01*
X69813685Y-71681943D01*
X69794751Y-71849997D01*
X69794751Y-71850002D01*
X69813686Y-72018057D01*
X69869543Y-72177690D01*
X69903493Y-72231719D01*
X69922500Y-72297692D01*
X69922500Y-73852306D01*
X69903494Y-73918278D01*
X69869545Y-73972307D01*
X69813685Y-74131943D01*
X69794751Y-74299997D01*
X69794751Y-74300002D01*
X69813685Y-74468056D01*
X69869545Y-74627692D01*
X69949873Y-74755533D01*
X69968873Y-74822770D01*
X69948505Y-74889605D01*
X69947982Y-74890394D01*
X69900392Y-74961619D01*
X69897517Y-74966999D01*
X69895365Y-74965849D01*
X69858237Y-75011895D01*
X69791936Y-75033939D01*
X69724242Y-75016640D01*
X69713237Y-75009284D01*
X69642331Y-74956204D01*
X69642328Y-74956202D01*
X69507482Y-74905908D01*
X69507483Y-74905908D01*
X69447883Y-74899501D01*
X69447881Y-74899500D01*
X69447873Y-74899500D01*
X69447864Y-74899500D01*
X67352129Y-74899500D01*
X67352123Y-74899501D01*
X67292516Y-74905908D01*
X67157671Y-74956202D01*
X67157664Y-74956206D01*
X67042455Y-75042452D01*
X67042452Y-75042455D01*
X66956206Y-75157664D01*
X66956202Y-75157671D01*
X66905908Y-75292517D01*
X66901670Y-75331940D01*
X66899501Y-75352123D01*
X66899500Y-75352135D01*
X66899500Y-78647870D01*
X58700500Y-78647870D01*
X58700499Y-75352128D01*
X58694091Y-75292517D01*
X58690259Y-75282244D01*
X58643797Y-75157671D01*
X58643793Y-75157664D01*
X58557547Y-75042455D01*
X58557544Y-75042452D01*
X58442335Y-74956206D01*
X58442328Y-74956202D01*
X58307482Y-74905908D01*
X58307483Y-74905908D01*
X58247883Y-74899501D01*
X58247881Y-74899500D01*
X58247873Y-74899500D01*
X58247864Y-74899500D01*
X56152129Y-74899500D01*
X56152123Y-74899501D01*
X56092516Y-74905908D01*
X55957671Y-74956202D01*
X55957664Y-74956206D01*
X55842455Y-75042452D01*
X55842452Y-75042455D01*
X55756206Y-75157664D01*
X55756202Y-75157671D01*
X55705908Y-75292517D01*
X55701670Y-75331940D01*
X55699501Y-75352123D01*
X55699500Y-75352135D01*
X55699500Y-78647870D01*
X50500500Y-78647870D01*
X50500500Y-70000005D01*
X58794357Y-70000005D01*
X58814890Y-70247812D01*
X58814892Y-70247824D01*
X58875936Y-70488881D01*
X58975826Y-70716606D01*
X59111833Y-70924782D01*
X59111836Y-70924785D01*
X59280256Y-71107738D01*
X59476491Y-71260474D01*
X59524054Y-71286214D01*
X59694332Y-71378364D01*
X59695190Y-71378828D01*
X59914141Y-71453994D01*
X59928964Y-71459083D01*
X59930386Y-71459571D01*
X60175665Y-71500500D01*
X60424335Y-71500500D01*
X60669614Y-71459571D01*
X60904810Y-71378828D01*
X61123509Y-71260474D01*
X61319744Y-71107738D01*
X61488164Y-70924785D01*
X61624173Y-70716607D01*
X61724063Y-70488881D01*
X61785108Y-70247821D01*
X61790646Y-70180989D01*
X61805643Y-70000005D01*
X63794859Y-70000005D01*
X63815385Y-70247729D01*
X63815387Y-70247738D01*
X63876412Y-70488717D01*
X63976266Y-70716364D01*
X64076564Y-70869882D01*
X64817037Y-70129409D01*
X64834075Y-70192993D01*
X64899901Y-70307007D01*
X64992993Y-70400099D01*
X65107007Y-70465925D01*
X65170590Y-70482962D01*
X64429942Y-71223609D01*
X64476768Y-71260055D01*
X64476770Y-71260056D01*
X64695385Y-71378364D01*
X64695396Y-71378369D01*
X64930506Y-71459083D01*
X65175707Y-71500000D01*
X65424293Y-71500000D01*
X65669493Y-71459083D01*
X65904603Y-71378369D01*
X65904614Y-71378364D01*
X66123228Y-71260057D01*
X66123231Y-71260055D01*
X66170056Y-71223609D01*
X65429409Y-70482962D01*
X65492993Y-70465925D01*
X65607007Y-70400099D01*
X65700099Y-70307007D01*
X65765925Y-70192993D01*
X65782962Y-70129409D01*
X66523434Y-70869882D01*
X66623731Y-70716369D01*
X66723587Y-70488717D01*
X66784612Y-70247738D01*
X66784614Y-70247729D01*
X66805141Y-70000005D01*
X66805141Y-69999994D01*
X66784614Y-69752270D01*
X66784612Y-69752261D01*
X66723587Y-69511282D01*
X66623731Y-69283630D01*
X66523434Y-69130116D01*
X65782962Y-69870589D01*
X65765925Y-69807007D01*
X65700099Y-69692993D01*
X65607007Y-69599901D01*
X65492993Y-69534075D01*
X65429410Y-69517037D01*
X66170057Y-68776390D01*
X66170056Y-68776389D01*
X66123229Y-68739943D01*
X65904614Y-68621635D01*
X65904603Y-68621630D01*
X65669493Y-68540916D01*
X65424293Y-68500000D01*
X65175707Y-68500000D01*
X64930506Y-68540916D01*
X64695396Y-68621630D01*
X64695390Y-68621632D01*
X64476761Y-68739949D01*
X64429942Y-68776388D01*
X64429942Y-68776390D01*
X65170590Y-69517037D01*
X65107007Y-69534075D01*
X64992993Y-69599901D01*
X64899901Y-69692993D01*
X64834075Y-69807007D01*
X64817037Y-69870589D01*
X64076564Y-69130116D01*
X63976267Y-69283632D01*
X63876412Y-69511282D01*
X63815387Y-69752261D01*
X63815385Y-69752270D01*
X63794859Y-69999994D01*
X63794859Y-70000005D01*
X61805643Y-70000005D01*
X61805643Y-69999994D01*
X61785109Y-69752187D01*
X61785107Y-69752175D01*
X61724063Y-69511118D01*
X61624173Y-69283393D01*
X61488166Y-69075217D01*
X61436880Y-69019506D01*
X61319744Y-68892262D01*
X61123509Y-68739526D01*
X61123507Y-68739525D01*
X61123506Y-68739524D01*
X60904811Y-68621172D01*
X60904802Y-68621169D01*
X60669616Y-68540429D01*
X60424335Y-68499500D01*
X60175665Y-68499500D01*
X59930383Y-68540429D01*
X59695197Y-68621169D01*
X59695188Y-68621172D01*
X59476493Y-68739524D01*
X59280257Y-68892261D01*
X59111833Y-69075217D01*
X58975826Y-69283393D01*
X58875936Y-69511118D01*
X58814892Y-69752175D01*
X58814890Y-69752187D01*
X58794357Y-69999994D01*
X58794357Y-70000005D01*
X50500500Y-70000005D01*
X50500500Y-66300001D01*
X56094390Y-66300001D01*
X56114804Y-66585433D01*
X56175628Y-66865037D01*
X56175630Y-66865043D01*
X56175631Y-66865046D01*
X56274965Y-67131370D01*
X56275635Y-67133166D01*
X56412770Y-67384309D01*
X56412775Y-67384317D01*
X56584254Y-67613387D01*
X56584270Y-67613405D01*
X56786594Y-67815729D01*
X56786612Y-67815745D01*
X57015682Y-67987224D01*
X57015690Y-67987229D01*
X57266833Y-68124364D01*
X57266832Y-68124364D01*
X57266836Y-68124365D01*
X57266839Y-68124367D01*
X57534954Y-68224369D01*
X57534960Y-68224370D01*
X57534962Y-68224371D01*
X57814566Y-68285195D01*
X57814568Y-68285195D01*
X57814572Y-68285196D01*
X58068220Y-68303337D01*
X58099999Y-68305610D01*
X58100000Y-68305610D01*
X58100001Y-68305610D01*
X58128595Y-68303564D01*
X58385428Y-68285196D01*
X58404883Y-68280964D01*
X58665037Y-68224371D01*
X58665037Y-68224370D01*
X58665046Y-68224369D01*
X58933161Y-68124367D01*
X59184315Y-67987226D01*
X59413395Y-67815739D01*
X59615739Y-67613395D01*
X59787226Y-67384315D01*
X59924367Y-67133161D01*
X60024369Y-66865046D01*
X60085196Y-66585428D01*
X60105610Y-66300001D01*
X60794390Y-66300001D01*
X60814804Y-66585433D01*
X60875628Y-66865037D01*
X60875630Y-66865043D01*
X60875631Y-66865046D01*
X60974965Y-67131370D01*
X60975635Y-67133166D01*
X61112770Y-67384309D01*
X61112775Y-67384317D01*
X61284254Y-67613387D01*
X61284270Y-67613405D01*
X61486594Y-67815729D01*
X61486612Y-67815745D01*
X61715682Y-67987224D01*
X61715690Y-67987229D01*
X61966833Y-68124364D01*
X61966832Y-68124364D01*
X61966836Y-68124365D01*
X61966839Y-68124367D01*
X62234954Y-68224369D01*
X62234960Y-68224370D01*
X62234962Y-68224371D01*
X62514566Y-68285195D01*
X62514568Y-68285195D01*
X62514572Y-68285196D01*
X62768220Y-68303337D01*
X62799999Y-68305610D01*
X62800000Y-68305610D01*
X62800001Y-68305610D01*
X62828595Y-68303564D01*
X63085428Y-68285196D01*
X63104883Y-68280964D01*
X63365037Y-68224371D01*
X63365037Y-68224370D01*
X63365046Y-68224369D01*
X63633161Y-68124367D01*
X63884315Y-67987226D01*
X64113395Y-67815739D01*
X64315739Y-67613395D01*
X64487226Y-67384315D01*
X64624367Y-67133161D01*
X64724369Y-66865046D01*
X64785196Y-66585428D01*
X64805610Y-66300001D01*
X65494390Y-66300001D01*
X65514804Y-66585433D01*
X65575628Y-66865037D01*
X65575630Y-66865043D01*
X65575631Y-66865046D01*
X65674965Y-67131370D01*
X65675635Y-67133166D01*
X65812770Y-67384309D01*
X65812775Y-67384317D01*
X65984254Y-67613387D01*
X65984270Y-67613405D01*
X66186594Y-67815729D01*
X66186612Y-67815745D01*
X66415682Y-67987224D01*
X66415690Y-67987229D01*
X66666833Y-68124364D01*
X66666832Y-68124364D01*
X66666836Y-68124365D01*
X66666839Y-68124367D01*
X66934954Y-68224369D01*
X66934960Y-68224370D01*
X66934962Y-68224371D01*
X67214566Y-68285195D01*
X67214568Y-68285195D01*
X67214572Y-68285196D01*
X67468220Y-68303337D01*
X67499999Y-68305610D01*
X67500000Y-68305610D01*
X67500001Y-68305610D01*
X67528595Y-68303564D01*
X67785428Y-68285196D01*
X67804883Y-68280964D01*
X68065037Y-68224371D01*
X68065037Y-68224370D01*
X68065046Y-68224369D01*
X68333161Y-68124367D01*
X68584315Y-67987226D01*
X68646091Y-67940981D01*
X71704054Y-67940981D01*
X71704802Y-67954299D01*
X71704802Y-68015010D01*
X71721371Y-68098307D01*
X71722972Y-68108595D01*
X71722989Y-68108753D01*
X71724539Y-68115539D01*
X71724450Y-68115559D01*
X71725753Y-68120337D01*
X71733797Y-68160773D01*
X71733798Y-68160778D01*
X71790670Y-68298080D01*
X71790677Y-68298093D01*
X71873244Y-68421662D01*
X71873247Y-68421666D01*
X73282207Y-69830624D01*
X73282228Y-69830647D01*
X73391636Y-69940055D01*
X73391639Y-69940057D01*
X73391641Y-69940059D01*
X73474212Y-69995230D01*
X73515218Y-70022630D01*
X73595650Y-70055945D01*
X73595651Y-70055946D01*
X73619210Y-70065704D01*
X73652527Y-70079505D01*
X73652536Y-70079506D01*
X73652537Y-70079507D01*
X73676710Y-70084315D01*
X73676717Y-70084316D01*
X73798293Y-70108501D01*
X73798295Y-70108501D01*
X73953033Y-70108501D01*
X73953053Y-70108500D01*
X74421500Y-70108500D01*
X74488539Y-70128185D01*
X74534294Y-70180989D01*
X74545500Y-70232500D01*
X74545500Y-74336390D01*
X74544751Y-74349721D01*
X74544751Y-74350272D01*
X74545500Y-74363610D01*
X74545500Y-74424312D01*
X74562067Y-74507600D01*
X74563667Y-74517891D01*
X74563684Y-74518048D01*
X74565234Y-74524836D01*
X74565145Y-74524856D01*
X74566449Y-74529636D01*
X74574493Y-74570075D01*
X74574494Y-74570078D01*
X74631371Y-74707391D01*
X74713939Y-74830964D01*
X74713945Y-74830971D01*
X74819028Y-74936054D01*
X74819035Y-74936060D01*
X74942608Y-75018628D01*
X74942609Y-75018628D01*
X74942610Y-75018629D01*
X75079920Y-75075505D01*
X75120352Y-75083547D01*
X75125125Y-75084851D01*
X75125146Y-75084763D01*
X75131928Y-75086310D01*
X75131934Y-75086310D01*
X75131941Y-75086313D01*
X75132093Y-75086330D01*
X75142393Y-75087931D01*
X75197727Y-75098938D01*
X75225687Y-75104500D01*
X75225688Y-75104500D01*
X75286390Y-75104500D01*
X75299725Y-75105249D01*
X75300000Y-75105249D01*
X75300275Y-75105249D01*
X75313610Y-75104500D01*
X75374313Y-75104500D01*
X75390097Y-75101359D01*
X75457607Y-75087930D01*
X75467901Y-75086330D01*
X75468059Y-75086313D01*
X75468066Y-75086310D01*
X75474853Y-75084762D01*
X75474873Y-75084852D01*
X75479644Y-75083547D01*
X75520080Y-75075505D01*
X75657390Y-75018629D01*
X75780966Y-74936059D01*
X75886059Y-74830966D01*
X75968629Y-74707390D01*
X76025505Y-74570080D01*
X76033550Y-74529636D01*
X76034852Y-74524873D01*
X76034762Y-74524853D01*
X76036311Y-74518064D01*
X76036313Y-74518059D01*
X76036332Y-74517891D01*
X76037932Y-74507600D01*
X76054500Y-74424312D01*
X76054500Y-74363610D01*
X76055249Y-74350272D01*
X76055249Y-74349721D01*
X76054500Y-74336390D01*
X76054500Y-69717886D01*
X76074185Y-69650847D01*
X76090819Y-69630205D01*
X77130205Y-68590819D01*
X77191528Y-68557334D01*
X77217886Y-68554500D01*
X81971315Y-68554500D01*
X81984650Y-68555249D01*
X81984925Y-68555249D01*
X81985200Y-68555249D01*
X81998535Y-68554500D01*
X82059238Y-68554500D01*
X82075022Y-68551359D01*
X82142532Y-68537930D01*
X82152826Y-68536330D01*
X82152984Y-68536313D01*
X82152991Y-68536310D01*
X82159778Y-68534762D01*
X82159798Y-68534852D01*
X82164569Y-68533547D01*
X82205005Y-68525505D01*
X82342315Y-68468629D01*
X82465891Y-68386059D01*
X82570984Y-68280966D01*
X82653554Y-68157390D01*
X82710430Y-68020080D01*
X82718472Y-67979644D01*
X82719777Y-67974873D01*
X82719687Y-67974853D01*
X82721236Y-67968064D01*
X82721238Y-67968059D01*
X82721255Y-67967901D01*
X82722855Y-67957607D01*
X82739425Y-67874312D01*
X82739425Y-67813610D01*
X82740174Y-67800272D01*
X82740174Y-67799721D01*
X82739425Y-67786390D01*
X82739425Y-67725686D01*
X82722858Y-67642404D01*
X82721255Y-67632093D01*
X82721238Y-67631941D01*
X82721235Y-67631934D01*
X82721235Y-67631928D01*
X82719688Y-67625146D01*
X82719776Y-67625125D01*
X82718472Y-67620352D01*
X82710430Y-67579920D01*
X82653554Y-67442610D01*
X82570984Y-67319034D01*
X82570979Y-67319028D01*
X82465896Y-67213945D01*
X82465889Y-67213939D01*
X82342316Y-67131371D01*
X82205003Y-67074494D01*
X82205000Y-67074493D01*
X82164561Y-67066449D01*
X82159781Y-67065145D01*
X82159761Y-67065234D01*
X82152973Y-67063684D01*
X82152816Y-67063667D01*
X82142534Y-67062068D01*
X82059237Y-67045500D01*
X82059235Y-67045500D01*
X81998535Y-67045500D01*
X81985200Y-67044751D01*
X81984650Y-67044751D01*
X81971315Y-67045500D01*
X76934446Y-67045500D01*
X76934426Y-67045499D01*
X76928312Y-67045499D01*
X76779688Y-67045499D01*
X76779686Y-67045499D01*
X76674368Y-67066449D01*
X76658105Y-67069684D01*
X76643540Y-67072581D01*
X76633918Y-67074495D01*
X76633917Y-67074495D01*
X76577045Y-67098052D01*
X76577045Y-67098053D01*
X76496611Y-67131370D01*
X76496609Y-67131371D01*
X76373033Y-67213941D01*
X76320487Y-67266487D01*
X76267941Y-67319034D01*
X75023794Y-68563181D01*
X74962471Y-68596666D01*
X74936113Y-68599500D01*
X74236493Y-68599500D01*
X74169454Y-68579815D01*
X74148812Y-68563181D01*
X72940271Y-67354640D01*
X72940267Y-67354637D01*
X72816695Y-67272068D01*
X72816692Y-67272067D01*
X72679384Y-67215192D01*
X72679379Y-67215191D01*
X72638943Y-67207147D01*
X72634165Y-67205844D01*
X72634145Y-67205933D01*
X72627359Y-67204383D01*
X72627232Y-67204369D01*
X72627197Y-67204365D01*
X72616913Y-67202765D01*
X72616611Y-67202705D01*
X72603984Y-67200193D01*
X72533616Y-67186196D01*
X72533615Y-67186196D01*
X72472904Y-67186196D01*
X72459589Y-67185448D01*
X72459017Y-67185448D01*
X72445702Y-67186196D01*
X72384991Y-67186196D01*
X72356008Y-67191960D01*
X72301690Y-67202765D01*
X72291425Y-67204363D01*
X72291247Y-67204383D01*
X72284460Y-67205932D01*
X72284440Y-67205844D01*
X72279663Y-67207147D01*
X72239226Y-67215191D01*
X72239221Y-67215192D01*
X72101919Y-67272064D01*
X72101906Y-67272071D01*
X71978337Y-67354638D01*
X71978333Y-67354641D01*
X71873246Y-67459728D01*
X71873243Y-67459732D01*
X71790674Y-67583304D01*
X71790673Y-67583307D01*
X71733798Y-67720615D01*
X71733797Y-67720620D01*
X71725753Y-67761057D01*
X71724450Y-67765834D01*
X71724538Y-67765854D01*
X71722989Y-67772641D01*
X71722969Y-67772819D01*
X71721371Y-67783084D01*
X71704802Y-67866386D01*
X71704802Y-67927096D01*
X71704054Y-67940411D01*
X71704054Y-67940981D01*
X68646091Y-67940981D01*
X68813395Y-67815739D01*
X69015739Y-67613395D01*
X69187226Y-67384315D01*
X69324367Y-67133161D01*
X69424369Y-66865046D01*
X69485196Y-66585428D01*
X69505610Y-66300000D01*
X69485196Y-66014572D01*
X69475109Y-65968204D01*
X69424371Y-65734962D01*
X69424370Y-65734960D01*
X69424369Y-65734954D01*
X69324367Y-65466839D01*
X69254669Y-65339198D01*
X69187229Y-65215690D01*
X69187224Y-65215682D01*
X69015745Y-64986612D01*
X69015729Y-64986594D01*
X68813405Y-64784270D01*
X68813387Y-64784254D01*
X68584317Y-64612775D01*
X68584309Y-64612770D01*
X68333166Y-64475635D01*
X68333167Y-64475635D01*
X68186390Y-64420890D01*
X68065046Y-64375631D01*
X68065043Y-64375630D01*
X68065037Y-64375628D01*
X67785433Y-64314804D01*
X67500001Y-64294390D01*
X67499999Y-64294390D01*
X67214566Y-64314804D01*
X66934962Y-64375628D01*
X66666833Y-64475635D01*
X66415690Y-64612770D01*
X66415682Y-64612775D01*
X66186612Y-64784254D01*
X66186594Y-64784270D01*
X65984270Y-64986594D01*
X65984254Y-64986612D01*
X65812775Y-65215682D01*
X65812770Y-65215690D01*
X65675635Y-65466833D01*
X65575628Y-65734962D01*
X65514804Y-66014566D01*
X65494390Y-66299998D01*
X65494390Y-66300001D01*
X64805610Y-66300001D01*
X64805610Y-66300000D01*
X64785196Y-66014572D01*
X64775109Y-65968204D01*
X64724371Y-65734962D01*
X64724370Y-65734960D01*
X64724369Y-65734954D01*
X64624367Y-65466839D01*
X64554669Y-65339198D01*
X64487229Y-65215690D01*
X64487224Y-65215682D01*
X64315745Y-64986612D01*
X64315729Y-64986594D01*
X64113405Y-64784270D01*
X64113387Y-64784254D01*
X63884317Y-64612775D01*
X63884309Y-64612770D01*
X63633166Y-64475635D01*
X63633167Y-64475635D01*
X63486390Y-64420890D01*
X63365046Y-64375631D01*
X63365043Y-64375630D01*
X63365037Y-64375628D01*
X63085433Y-64314804D01*
X62800001Y-64294390D01*
X62799999Y-64294390D01*
X62514566Y-64314804D01*
X62234962Y-64375628D01*
X61966833Y-64475635D01*
X61715690Y-64612770D01*
X61715682Y-64612775D01*
X61486612Y-64784254D01*
X61486594Y-64784270D01*
X61284270Y-64986594D01*
X61284254Y-64986612D01*
X61112775Y-65215682D01*
X61112770Y-65215690D01*
X60975635Y-65466833D01*
X60875628Y-65734962D01*
X60814804Y-66014566D01*
X60794390Y-66299998D01*
X60794390Y-66300001D01*
X60105610Y-66300001D01*
X60105610Y-66300000D01*
X60085196Y-66014572D01*
X60075109Y-65968204D01*
X60024371Y-65734962D01*
X60024370Y-65734960D01*
X60024369Y-65734954D01*
X59924367Y-65466839D01*
X59854669Y-65339198D01*
X59787229Y-65215690D01*
X59787224Y-65215682D01*
X59615745Y-64986612D01*
X59615729Y-64986594D01*
X59413405Y-64784270D01*
X59413387Y-64784254D01*
X59184317Y-64612775D01*
X59184309Y-64612770D01*
X58933166Y-64475635D01*
X58933167Y-64475635D01*
X58786390Y-64420890D01*
X58665046Y-64375631D01*
X58665043Y-64375630D01*
X58665037Y-64375628D01*
X58385433Y-64314804D01*
X58100001Y-64294390D01*
X58099999Y-64294390D01*
X57814566Y-64314804D01*
X57534962Y-64375628D01*
X57266833Y-64475635D01*
X57015690Y-64612770D01*
X57015682Y-64612775D01*
X56786612Y-64784254D01*
X56786594Y-64784270D01*
X56584270Y-64986594D01*
X56584254Y-64986612D01*
X56412775Y-65215682D01*
X56412770Y-65215690D01*
X56275635Y-65466833D01*
X56175628Y-65734962D01*
X56114804Y-66014566D01*
X56094390Y-66299998D01*
X56094390Y-66300001D01*
X50500500Y-66300001D01*
X50500500Y-64200002D01*
X81229676Y-64200002D01*
X81248610Y-64368056D01*
X81304470Y-64527694D01*
X81304472Y-64527697D01*
X81394443Y-64670884D01*
X81394448Y-64670890D01*
X81514034Y-64790476D01*
X81514040Y-64790481D01*
X81657227Y-64880452D01*
X81657230Y-64880454D01*
X81657234Y-64880455D01*
X81657235Y-64880456D01*
X81729838Y-64905860D01*
X81816868Y-64936314D01*
X81984922Y-64955249D01*
X81984925Y-64955249D01*
X81984928Y-64955249D01*
X82152981Y-64936314D01*
X82159420Y-64934061D01*
X82312615Y-64880456D01*
X82312617Y-64880454D01*
X82312619Y-64880454D01*
X82312622Y-64880452D01*
X82455809Y-64790481D01*
X82455810Y-64790480D01*
X82455815Y-64790477D01*
X82575402Y-64670890D01*
X82600811Y-64630452D01*
X82665377Y-64527697D01*
X82665379Y-64527694D01*
X82665379Y-64527692D01*
X82665381Y-64527690D01*
X82721238Y-64368059D01*
X82721238Y-64368058D01*
X82721239Y-64368056D01*
X82740174Y-64200002D01*
X82740174Y-64199997D01*
X82721239Y-64031943D01*
X82711516Y-64004156D01*
X85802530Y-64004156D01*
X85826642Y-64125376D01*
X85826644Y-64125384D01*
X85853607Y-64190478D01*
X85873946Y-64239581D01*
X85917339Y-64304523D01*
X85917339Y-64304524D01*
X85942615Y-64342352D01*
X85942621Y-64342360D01*
X87136181Y-65535919D01*
X87169666Y-65597242D01*
X87172500Y-65623600D01*
X87172500Y-76252306D01*
X87153494Y-76318278D01*
X87119545Y-76372307D01*
X87063685Y-76531943D01*
X87044751Y-76699997D01*
X87044751Y-76700002D01*
X87063685Y-76868056D01*
X87119545Y-77027694D01*
X87119547Y-77027697D01*
X87209518Y-77170884D01*
X87209523Y-77170890D01*
X87329109Y-77290476D01*
X87329115Y-77290481D01*
X87472302Y-77380452D01*
X87472305Y-77380454D01*
X87472309Y-77380455D01*
X87472310Y-77380456D01*
X87544913Y-77405860D01*
X87631943Y-77436314D01*
X87799997Y-77455249D01*
X87800000Y-77455249D01*
X87800003Y-77455249D01*
X87968056Y-77436314D01*
X87968059Y-77436313D01*
X88127690Y-77380456D01*
X88127692Y-77380454D01*
X88127694Y-77380454D01*
X88127697Y-77380452D01*
X88270884Y-77290481D01*
X88270885Y-77290480D01*
X88270890Y-77290477D01*
X88390477Y-77170890D01*
X88415886Y-77130452D01*
X88480452Y-77027697D01*
X88480454Y-77027694D01*
X88480454Y-77027692D01*
X88480456Y-77027690D01*
X88536313Y-76868059D01*
X88536313Y-76868058D01*
X88536314Y-76868056D01*
X88555249Y-76700002D01*
X88555249Y-76699997D01*
X88536314Y-76531943D01*
X88507641Y-76450002D01*
X88480456Y-76372310D01*
X88474604Y-76362996D01*
X88446506Y-76318278D01*
X88427500Y-76252306D01*
X88427500Y-73076267D01*
X88447185Y-73009228D01*
X88499989Y-72963473D01*
X88565384Y-72953047D01*
X88584925Y-72955249D01*
X88584925Y-72955248D01*
X88584926Y-72955249D01*
X88584928Y-72955249D01*
X88752981Y-72936314D01*
X88752984Y-72936313D01*
X88912615Y-72880456D01*
X88912617Y-72880454D01*
X88912619Y-72880454D01*
X88912622Y-72880452D01*
X89055809Y-72790481D01*
X89055810Y-72790480D01*
X89055815Y-72790477D01*
X89175402Y-72670890D01*
X89199874Y-72631943D01*
X89265377Y-72527697D01*
X89265380Y-72527692D01*
X89284759Y-72472310D01*
X89321017Y-72368688D01*
X89350374Y-72321968D01*
X90715652Y-70956693D01*
X90776975Y-70923208D01*
X90803333Y-70920374D01*
X92021173Y-70920374D01*
X92088212Y-70940059D01*
X92133967Y-70992863D01*
X92144393Y-71030492D01*
X92148610Y-71067931D01*
X92204468Y-71227564D01*
X92238418Y-71281593D01*
X92257425Y-71347566D01*
X92257425Y-75215205D01*
X92237740Y-75282244D01*
X92218224Y-75303864D01*
X92218959Y-75304599D01*
X92094448Y-75429109D01*
X92094443Y-75429115D01*
X92004472Y-75572302D01*
X92004470Y-75572305D01*
X91948610Y-75731943D01*
X91929676Y-75899997D01*
X91929676Y-75900002D01*
X91948610Y-76068056D01*
X92004470Y-76227694D01*
X92004472Y-76227697D01*
X92094443Y-76370884D01*
X92094448Y-76370890D01*
X92214034Y-76490476D01*
X92214040Y-76490481D01*
X92357227Y-76580452D01*
X92357230Y-76580454D01*
X92357234Y-76580455D01*
X92357235Y-76580456D01*
X92429838Y-76605860D01*
X92516868Y-76636314D01*
X92684922Y-76655249D01*
X92684925Y-76655249D01*
X92684928Y-76655249D01*
X92852981Y-76636314D01*
X92905151Y-76618059D01*
X93012615Y-76580456D01*
X93012617Y-76580454D01*
X93012619Y-76580454D01*
X93012622Y-76580452D01*
X93155809Y-76490481D01*
X93155810Y-76490480D01*
X93155815Y-76490477D01*
X93275402Y-76370890D01*
X93275406Y-76370884D01*
X93365377Y-76227697D01*
X93365380Y-76227691D01*
X93365381Y-76227690D01*
X93421238Y-76068059D01*
X93423451Y-76048407D01*
X93439875Y-76003543D01*
X93438133Y-76002612D01*
X93441001Y-75997242D01*
X93441008Y-75997233D01*
X93462747Y-75944751D01*
X93488311Y-75883034D01*
X93512425Y-75761803D01*
X93512425Y-75638197D01*
X93512425Y-71855727D01*
X93532110Y-71788688D01*
X93584914Y-71742933D01*
X93654072Y-71732989D01*
X93717628Y-71762014D01*
X93724106Y-71768046D01*
X95156068Y-73200008D01*
X95226944Y-73270884D01*
X95243473Y-73287413D01*
X95243475Y-73287414D01*
X95346235Y-73356076D01*
X95346237Y-73356077D01*
X95346246Y-73356083D01*
X95364247Y-73363539D01*
X95460445Y-73403386D01*
X95581671Y-73427499D01*
X95581675Y-73427500D01*
X95581676Y-73427500D01*
X95705283Y-73427500D01*
X96937232Y-73427500D01*
X97003203Y-73446505D01*
X97057235Y-73480456D01*
X97178546Y-73522904D01*
X97216868Y-73536314D01*
X97384922Y-73555249D01*
X97384925Y-73555249D01*
X97384928Y-73555249D01*
X97552981Y-73536314D01*
X97552984Y-73536313D01*
X97712615Y-73480456D01*
X97712617Y-73480454D01*
X97712619Y-73480454D01*
X97712622Y-73480452D01*
X97855809Y-73390481D01*
X97855810Y-73390480D01*
X97855815Y-73390477D01*
X97975402Y-73270890D01*
X98004807Y-73224093D01*
X98065377Y-73127697D01*
X98065379Y-73127694D01*
X98065379Y-73127692D01*
X98065381Y-73127690D01*
X98121238Y-72968059D01*
X98121238Y-72968058D01*
X98121239Y-72968056D01*
X98140174Y-72800002D01*
X98140174Y-72799997D01*
X98121239Y-72631943D01*
X98065379Y-72472305D01*
X98065377Y-72472302D01*
X97975406Y-72329115D01*
X97975401Y-72329109D01*
X97855815Y-72209523D01*
X97855809Y-72209518D01*
X97712622Y-72119547D01*
X97712619Y-72119545D01*
X97552981Y-72063685D01*
X97384928Y-72044751D01*
X97384922Y-72044751D01*
X97216868Y-72063685D01*
X97057232Y-72119545D01*
X97003204Y-72153494D01*
X96937232Y-72172500D01*
X95954760Y-72172500D01*
X95887721Y-72152815D01*
X95867079Y-72136181D01*
X93536366Y-69805467D01*
X93536362Y-69805464D01*
X93536361Y-69805463D01*
X93513271Y-69790035D01*
X93513269Y-69790033D01*
X93433592Y-69736794D01*
X93433579Y-69736787D01*
X93400138Y-69722936D01*
X93319388Y-69689488D01*
X93319380Y-69689486D01*
X93198160Y-69665374D01*
X93198156Y-69665374D01*
X90553854Y-69665374D01*
X90430247Y-69665374D01*
X90430245Y-69665374D01*
X90309021Y-69689487D01*
X90309011Y-69689490D01*
X90194825Y-69736787D01*
X90194807Y-69736797D01*
X90092043Y-69805461D01*
X90092036Y-69805467D01*
X88639181Y-71258323D01*
X88577858Y-71291808D01*
X88508166Y-71286824D01*
X88452233Y-71244952D01*
X88427816Y-71179488D01*
X88427500Y-71170642D01*
X88427500Y-69444813D01*
X88447185Y-69377774D01*
X88499989Y-69332019D01*
X88569147Y-69322075D01*
X88592455Y-69327772D01*
X88616864Y-69336313D01*
X88784922Y-69355249D01*
X88784925Y-69355249D01*
X88784928Y-69355249D01*
X88952981Y-69336314D01*
X88952984Y-69336313D01*
X89112615Y-69280456D01*
X89166646Y-69246505D01*
X89232618Y-69227500D01*
X92933017Y-69227500D01*
X92933018Y-69227499D01*
X93054248Y-69203386D01*
X93157258Y-69160717D01*
X93168446Y-69156083D01*
X93271221Y-69087411D01*
X93358624Y-69000008D01*
X93371104Y-68987527D01*
X93432422Y-68954043D01*
X93502114Y-68959024D01*
X93524756Y-68970213D01*
X93657235Y-69053456D01*
X93754282Y-69087414D01*
X93816868Y-69109314D01*
X93984922Y-69128249D01*
X93984925Y-69128249D01*
X93984928Y-69128249D01*
X94152981Y-69109314D01*
X94173503Y-69102133D01*
X94312615Y-69053456D01*
X94366646Y-69019505D01*
X94432618Y-69000500D01*
X94546644Y-69000500D01*
X94613683Y-69020185D01*
X94634325Y-69036819D01*
X95604514Y-70007008D01*
X95653450Y-70055944D01*
X95691919Y-70094413D01*
X95691921Y-70094414D01*
X95794681Y-70163076D01*
X95794683Y-70163077D01*
X95794692Y-70163083D01*
X95819697Y-70173440D01*
X95841996Y-70182677D01*
X95884179Y-70200149D01*
X95908891Y-70210386D01*
X96020067Y-70232500D01*
X96030117Y-70234499D01*
X96030121Y-70234500D01*
X96030122Y-70234500D01*
X141345719Y-70234500D01*
X141412758Y-70254185D01*
X141433400Y-70270819D01*
X142936181Y-71773600D01*
X142969666Y-71834923D01*
X142972500Y-71861281D01*
X142972500Y-80581365D01*
X142952815Y-80648404D01*
X142902302Y-80693085D01*
X142722300Y-80779769D01*
X142505520Y-80927567D01*
X142313198Y-81106014D01*
X142149614Y-81311143D01*
X142018432Y-81538356D01*
X141922582Y-81782578D01*
X141922576Y-81782597D01*
X141864197Y-82038374D01*
X141864196Y-82038379D01*
X141844592Y-82299995D01*
X141844592Y-82300004D01*
X141864196Y-82561620D01*
X141864197Y-82561625D01*
X141864197Y-82561629D01*
X141864198Y-82561630D01*
X141868495Y-82580456D01*
X141922576Y-82817402D01*
X141922578Y-82817411D01*
X141922580Y-82817416D01*
X142018432Y-83061643D01*
X142149614Y-83288857D01*
X142232280Y-83392517D01*
X142313198Y-83493985D01*
X142453444Y-83624113D01*
X142505521Y-83672433D01*
X142722296Y-83820228D01*
X142722301Y-83820230D01*
X142722302Y-83820231D01*
X142722303Y-83820232D01*
X142847843Y-83880688D01*
X142958673Y-83934061D01*
X142958674Y-83934061D01*
X142958677Y-83934063D01*
X143209385Y-84011396D01*
X143468818Y-84050500D01*
X143731182Y-84050500D01*
X143990615Y-84011396D01*
X144241323Y-83934063D01*
X144428111Y-83844110D01*
X144477696Y-83820232D01*
X144477696Y-83820231D01*
X144477704Y-83820228D01*
X144694479Y-83672433D01*
X144886805Y-83493981D01*
X145050386Y-83288857D01*
X145181568Y-83061643D01*
X145277420Y-82817416D01*
X145335802Y-82561630D01*
X145355408Y-82300000D01*
X145349989Y-82227692D01*
X145335803Y-82038379D01*
X145335802Y-82038374D01*
X145335802Y-82038370D01*
X145277420Y-81782584D01*
X145181568Y-81538357D01*
X145050386Y-81311143D01*
X145001629Y-81250004D01*
X148845093Y-81250004D01*
X148864692Y-81511545D01*
X148864693Y-81511550D01*
X148923058Y-81767270D01*
X149018883Y-82011426D01*
X149018882Y-82011426D01*
X149150027Y-82238573D01*
X149197874Y-82298571D01*
X149922421Y-81574024D01*
X149935359Y-81605258D01*
X150017437Y-81728097D01*
X150121903Y-81832563D01*
X150244742Y-81914641D01*
X150275974Y-81927577D01*
X149550830Y-82652720D01*
X149722546Y-82769793D01*
X149722550Y-82769795D01*
X149958854Y-82883594D01*
X149958858Y-82883595D01*
X150209494Y-82960907D01*
X150209500Y-82960909D01*
X150468848Y-82999999D01*
X150468857Y-83000000D01*
X150731143Y-83000000D01*
X150731151Y-82999999D01*
X150990499Y-82960909D01*
X150990505Y-82960907D01*
X151241143Y-82883595D01*
X151477445Y-82769798D01*
X151477447Y-82769797D01*
X151649168Y-82652720D01*
X150924025Y-81927578D01*
X150955258Y-81914641D01*
X151078097Y-81832563D01*
X151182563Y-81728097D01*
X151264641Y-81605258D01*
X151277578Y-81574025D01*
X152002125Y-82298572D01*
X152049971Y-82238573D01*
X152181116Y-82011426D01*
X152276941Y-81767270D01*
X152335306Y-81511550D01*
X152335307Y-81511545D01*
X152354907Y-81250004D01*
X152354907Y-81249995D01*
X152335307Y-80988454D01*
X152335306Y-80988449D01*
X152276941Y-80732729D01*
X152181116Y-80488573D01*
X152181117Y-80488573D01*
X152049972Y-80261426D01*
X152002124Y-80201427D01*
X151277577Y-80925973D01*
X151264641Y-80894742D01*
X151182563Y-80771903D01*
X151078097Y-80667437D01*
X150955258Y-80585359D01*
X150924025Y-80572421D01*
X151649168Y-79847278D01*
X151477454Y-79730206D01*
X151477445Y-79730201D01*
X151241142Y-79616404D01*
X151241144Y-79616404D01*
X150990505Y-79539092D01*
X150990499Y-79539090D01*
X150731151Y-79500000D01*
X150468848Y-79500000D01*
X150209500Y-79539090D01*
X150209494Y-79539092D01*
X149958858Y-79616404D01*
X149958854Y-79616405D01*
X149722547Y-79730205D01*
X149722539Y-79730210D01*
X149550830Y-79847277D01*
X150275974Y-80572421D01*
X150244742Y-80585359D01*
X150121903Y-80667437D01*
X150017437Y-80771903D01*
X149935359Y-80894742D01*
X149922422Y-80925974D01*
X149197875Y-80201427D01*
X149197874Y-80201427D01*
X149150028Y-80261425D01*
X149018883Y-80488573D01*
X148923058Y-80732729D01*
X148864693Y-80988449D01*
X148864692Y-80988454D01*
X148845093Y-81249995D01*
X148845093Y-81250004D01*
X145001629Y-81250004D01*
X144886805Y-81106019D01*
X144886804Y-81106018D01*
X144886801Y-81106014D01*
X144694479Y-80927567D01*
X144604442Y-80866181D01*
X144477704Y-80779772D01*
X144477701Y-80779771D01*
X144477699Y-80779769D01*
X144297698Y-80693085D01*
X144245839Y-80646262D01*
X144227500Y-80581365D01*
X144227500Y-71488196D01*
X144221806Y-71459573D01*
X144221806Y-71459571D01*
X144203386Y-71366965D01*
X144169937Y-71286215D01*
X144156083Y-71252767D01*
X144087414Y-71149996D01*
X144087413Y-71149994D01*
X144045157Y-71107738D01*
X144000008Y-71062589D01*
X143031830Y-70094411D01*
X142057011Y-69119591D01*
X142057010Y-69119590D01*
X142041630Y-69109314D01*
X142041629Y-69109313D01*
X141954230Y-69050915D01*
X141914672Y-69034530D01*
X141840035Y-69003614D01*
X141840027Y-69003612D01*
X141718807Y-68979500D01*
X141718803Y-68979500D01*
X98592206Y-68979500D01*
X98525167Y-68959815D01*
X98479412Y-68907011D01*
X98469468Y-68837853D01*
X98498493Y-68774297D01*
X98504525Y-68767819D01*
X98532820Y-68739524D01*
X98579336Y-68693008D01*
X98589683Y-68677523D01*
X98648008Y-68590233D01*
X98663268Y-68553393D01*
X98695311Y-68476035D01*
X98719425Y-68354803D01*
X98719425Y-68231197D01*
X98719425Y-68161489D01*
X145124500Y-68161489D01*
X145160659Y-68482410D01*
X145160661Y-68482426D01*
X145232527Y-68797294D01*
X145232531Y-68797306D01*
X145339195Y-69102133D01*
X145339201Y-69102147D01*
X145479327Y-69393122D01*
X145479329Y-69393125D01*
X145651159Y-69666591D01*
X145852527Y-69919099D01*
X146080901Y-70147473D01*
X146333409Y-70348841D01*
X146606875Y-70520671D01*
X146897860Y-70660802D01*
X146897866Y-70660804D01*
X147202693Y-70767468D01*
X147202705Y-70767472D01*
X147517577Y-70839339D01*
X147838511Y-70875499D01*
X147838512Y-70875500D01*
X147838515Y-70875500D01*
X148161488Y-70875500D01*
X148161488Y-70875499D01*
X148482423Y-70839339D01*
X148797295Y-70767472D01*
X149102140Y-70660802D01*
X149393125Y-70520671D01*
X149666591Y-70348841D01*
X149919099Y-70147473D01*
X150147473Y-69919099D01*
X150348841Y-69666591D01*
X150520671Y-69393125D01*
X150660802Y-69102140D01*
X150767472Y-68797295D01*
X150839339Y-68482423D01*
X150875500Y-68161485D01*
X150875500Y-67838515D01*
X150839339Y-67517577D01*
X150767472Y-67202705D01*
X150761895Y-67186768D01*
X150660804Y-66897866D01*
X150660802Y-66897860D01*
X150520671Y-66606875D01*
X150348841Y-66333409D01*
X150147473Y-66080901D01*
X149919099Y-65852527D01*
X149666591Y-65651159D01*
X149470102Y-65527697D01*
X149393122Y-65479327D01*
X149102147Y-65339201D01*
X149102133Y-65339195D01*
X148797306Y-65232531D01*
X148797294Y-65232527D01*
X148482426Y-65160661D01*
X148482410Y-65160659D01*
X148161489Y-65124500D01*
X148161485Y-65124500D01*
X147838515Y-65124500D01*
X147838510Y-65124500D01*
X147517589Y-65160659D01*
X147517573Y-65160661D01*
X147202705Y-65232527D01*
X147202693Y-65232531D01*
X146897866Y-65339195D01*
X146897852Y-65339201D01*
X146606877Y-65479327D01*
X146333410Y-65651158D01*
X146080901Y-65852526D01*
X145852526Y-66080901D01*
X145651158Y-66333410D01*
X145479327Y-66606877D01*
X145339201Y-66897852D01*
X145339195Y-66897866D01*
X145232531Y-67202693D01*
X145232527Y-67202705D01*
X145160661Y-67517573D01*
X145160659Y-67517589D01*
X145124500Y-67838510D01*
X145124500Y-68161489D01*
X98719425Y-68161489D01*
X98719425Y-67186769D01*
X98708762Y-67133161D01*
X98695311Y-67065537D01*
X98650337Y-66956964D01*
X98648689Y-66952358D01*
X98579339Y-66848568D01*
X98579338Y-66848566D01*
X98578539Y-66847767D01*
X98491933Y-66761161D01*
X97760299Y-66029527D01*
X97726814Y-65968204D01*
X97731798Y-65898512D01*
X97773670Y-65842579D01*
X97781998Y-65836859D01*
X97855815Y-65790477D01*
X97975402Y-65670890D01*
X97987801Y-65651158D01*
X98065377Y-65527697D01*
X98065379Y-65527694D01*
X98065379Y-65527692D01*
X98065381Y-65527690D01*
X98121238Y-65368059D01*
X98121238Y-65368058D01*
X98121239Y-65368056D01*
X98140174Y-65200002D01*
X98140174Y-65199997D01*
X98121239Y-65031943D01*
X98068231Y-64880456D01*
X98065381Y-64872310D01*
X98065380Y-64872309D01*
X98065379Y-64872305D01*
X98065377Y-64872302D01*
X97975406Y-64729115D01*
X97975401Y-64729109D01*
X97933973Y-64687681D01*
X97900488Y-64626358D01*
X97905472Y-64556666D01*
X97933973Y-64512319D01*
X97952311Y-64493981D01*
X97975402Y-64470890D01*
X97975406Y-64470884D01*
X98065377Y-64327697D01*
X98065379Y-64327694D01*
X98065379Y-64327692D01*
X98065381Y-64327690D01*
X98121238Y-64168059D01*
X98121238Y-64168058D01*
X98121239Y-64168056D01*
X98140174Y-64000000D01*
X98140174Y-63999997D01*
X98121239Y-63831943D01*
X98065379Y-63672305D01*
X98065377Y-63672302D01*
X97975406Y-63529115D01*
X97975401Y-63529109D01*
X97883973Y-63437681D01*
X97850488Y-63376358D01*
X97855472Y-63306666D01*
X97883973Y-63262319D01*
X97925559Y-63220733D01*
X97975402Y-63170890D01*
X98019949Y-63099994D01*
X98065377Y-63027697D01*
X98065379Y-63027694D01*
X98065380Y-63027691D01*
X98065381Y-63027690D01*
X98121238Y-62868059D01*
X98121238Y-62868058D01*
X98121239Y-62868056D01*
X98140174Y-62700002D01*
X98140174Y-62699997D01*
X98121238Y-62531942D01*
X98072430Y-62392454D01*
X98068869Y-62322676D01*
X98103598Y-62262048D01*
X98165591Y-62229821D01*
X98189472Y-62227500D01*
X111945453Y-62227500D01*
X112012492Y-62247185D01*
X112058247Y-62299989D01*
X112068191Y-62369147D01*
X112062495Y-62392454D01*
X112013686Y-62531942D01*
X111994751Y-62699997D01*
X111994751Y-62700002D01*
X112013685Y-62868056D01*
X112069545Y-63027694D01*
X112069547Y-63027697D01*
X112159518Y-63170884D01*
X112159523Y-63170890D01*
X112225952Y-63237319D01*
X112259437Y-63298642D01*
X112254453Y-63368334D01*
X112225952Y-63412681D01*
X112159523Y-63479109D01*
X112159518Y-63479115D01*
X112069547Y-63622302D01*
X112069545Y-63622305D01*
X112013685Y-63781943D01*
X111994751Y-63949997D01*
X111994751Y-63950002D01*
X112013685Y-64118056D01*
X112069545Y-64277694D01*
X112069547Y-64277697D01*
X112159518Y-64420884D01*
X112159523Y-64420890D01*
X112279109Y-64540476D01*
X112279115Y-64540481D01*
X112422302Y-64630452D01*
X112422305Y-64630454D01*
X112422309Y-64630455D01*
X112422310Y-64630456D01*
X112494913Y-64655860D01*
X112581943Y-64686314D01*
X112749997Y-64705249D01*
X112750000Y-64705249D01*
X112750003Y-64705249D01*
X112918056Y-64686314D01*
X112918059Y-64686313D01*
X113077690Y-64630456D01*
X113131721Y-64596505D01*
X113197693Y-64577500D01*
X119752307Y-64577500D01*
X119818278Y-64596505D01*
X119872310Y-64630456D01*
X119987847Y-64670884D01*
X120031943Y-64686314D01*
X120199997Y-64705249D01*
X120200000Y-64705249D01*
X120200003Y-64705249D01*
X120368056Y-64686314D01*
X120368059Y-64686313D01*
X120527690Y-64630456D01*
X120527692Y-64630454D01*
X120527694Y-64630454D01*
X120527697Y-64630452D01*
X120670884Y-64540481D01*
X120670885Y-64540480D01*
X120670890Y-64540477D01*
X120790477Y-64420890D01*
X120814582Y-64382528D01*
X120880452Y-64277697D01*
X120880454Y-64277694D01*
X120880454Y-64277692D01*
X120880456Y-64277690D01*
X120936313Y-64118059D01*
X120936313Y-64118058D01*
X120936314Y-64118056D01*
X120955249Y-63950002D01*
X120955249Y-63949997D01*
X120936314Y-63781943D01*
X120880454Y-63622305D01*
X120880452Y-63622302D01*
X120790481Y-63479115D01*
X120790476Y-63479109D01*
X120670890Y-63359523D01*
X120670884Y-63359518D01*
X120527697Y-63269547D01*
X120527692Y-63269544D01*
X120439179Y-63238573D01*
X120388192Y-63220732D01*
X120331418Y-63180011D01*
X120305670Y-63115059D01*
X120319126Y-63046497D01*
X120324156Y-63037716D01*
X120330456Y-63027690D01*
X120386313Y-62868059D01*
X120386313Y-62868058D01*
X120386314Y-62868056D01*
X120405249Y-62700002D01*
X120405249Y-62699997D01*
X120386313Y-62531942D01*
X120337505Y-62392454D01*
X120333944Y-62322676D01*
X120368673Y-62262048D01*
X120430666Y-62229821D01*
X120454547Y-62227500D01*
X141588719Y-62227500D01*
X141655758Y-62247185D01*
X141676400Y-62263819D01*
X141941999Y-62529418D01*
X141975484Y-62590741D01*
X141970500Y-62660433D01*
X141969747Y-62662400D01*
X141922579Y-62782585D01*
X141864197Y-63038374D01*
X141864196Y-63038379D01*
X141844592Y-63299995D01*
X141844592Y-63300004D01*
X141864196Y-63561620D01*
X141864197Y-63561625D01*
X141922576Y-63817402D01*
X141922578Y-63817411D01*
X141922580Y-63817416D01*
X142018432Y-64061643D01*
X142149614Y-64288857D01*
X142254902Y-64420884D01*
X142313198Y-64493985D01*
X142455864Y-64626358D01*
X142505521Y-64672433D01*
X142722296Y-64820228D01*
X142722301Y-64820230D01*
X142722302Y-64820231D01*
X142722303Y-64820232D01*
X142830429Y-64872302D01*
X142958673Y-64934061D01*
X142958674Y-64934061D01*
X142958677Y-64934063D01*
X143209385Y-65011396D01*
X143468818Y-65050500D01*
X143731182Y-65050500D01*
X143990615Y-65011396D01*
X144241323Y-64934063D01*
X144477704Y-64820228D01*
X144694479Y-64672433D01*
X144850475Y-64527690D01*
X144886801Y-64493985D01*
X144886801Y-64493983D01*
X144886805Y-64493981D01*
X145050386Y-64288857D01*
X145181568Y-64061643D01*
X145277420Y-63817416D01*
X145335802Y-63561630D01*
X145338239Y-63529109D01*
X145355408Y-63300004D01*
X145355408Y-63299995D01*
X145335803Y-63038379D01*
X145335802Y-63038374D01*
X145335802Y-63038370D01*
X145277420Y-62782584D01*
X145181568Y-62538357D01*
X145050386Y-62311143D01*
X145001629Y-62250004D01*
X148845093Y-62250004D01*
X148864692Y-62511545D01*
X148864693Y-62511550D01*
X148923058Y-62767270D01*
X149018883Y-63011426D01*
X149018882Y-63011426D01*
X149150027Y-63238573D01*
X149197874Y-63298571D01*
X149922421Y-62574024D01*
X149935359Y-62605258D01*
X150017437Y-62728097D01*
X150121903Y-62832563D01*
X150244742Y-62914641D01*
X150275974Y-62927577D01*
X149550830Y-63652720D01*
X149722546Y-63769793D01*
X149722550Y-63769795D01*
X149958854Y-63883594D01*
X149958858Y-63883595D01*
X150209494Y-63960907D01*
X150209500Y-63960909D01*
X150468848Y-63999999D01*
X150468857Y-64000000D01*
X150731143Y-64000000D01*
X150731151Y-63999999D01*
X150990499Y-63960909D01*
X150990505Y-63960907D01*
X151241143Y-63883595D01*
X151477445Y-63769798D01*
X151477447Y-63769797D01*
X151649168Y-63652720D01*
X150924025Y-62927578D01*
X150955258Y-62914641D01*
X151078097Y-62832563D01*
X151182563Y-62728097D01*
X151264641Y-62605258D01*
X151277578Y-62574025D01*
X152002125Y-63298572D01*
X152049971Y-63238573D01*
X152181116Y-63011426D01*
X152276941Y-62767270D01*
X152335306Y-62511550D01*
X152335307Y-62511545D01*
X152354907Y-62250004D01*
X152354907Y-62249995D01*
X152335307Y-61988454D01*
X152335306Y-61988449D01*
X152276941Y-61732729D01*
X152181116Y-61488573D01*
X152181117Y-61488573D01*
X152049972Y-61261426D01*
X152002124Y-61201427D01*
X151277577Y-61925973D01*
X151264641Y-61894742D01*
X151182563Y-61771903D01*
X151078097Y-61667437D01*
X150955258Y-61585359D01*
X150924025Y-61572421D01*
X151649168Y-60847278D01*
X151477454Y-60730206D01*
X151477445Y-60730201D01*
X151241142Y-60616404D01*
X151241144Y-60616404D01*
X150990505Y-60539092D01*
X150990499Y-60539090D01*
X150731151Y-60500000D01*
X150468848Y-60500000D01*
X150209500Y-60539090D01*
X150209494Y-60539092D01*
X149958858Y-60616404D01*
X149958854Y-60616405D01*
X149722547Y-60730205D01*
X149722539Y-60730210D01*
X149550830Y-60847277D01*
X150275974Y-61572421D01*
X150244742Y-61585359D01*
X150121903Y-61667437D01*
X150017437Y-61771903D01*
X149935359Y-61894742D01*
X149922422Y-61925974D01*
X149197875Y-61201427D01*
X149197874Y-61201427D01*
X149150028Y-61261425D01*
X149018883Y-61488573D01*
X148923058Y-61732729D01*
X148864693Y-61988449D01*
X148864692Y-61988454D01*
X148845093Y-62249995D01*
X148845093Y-62250004D01*
X145001629Y-62250004D01*
X144886805Y-62106019D01*
X144886804Y-62106018D01*
X144886801Y-62106014D01*
X144694479Y-61927567D01*
X144477704Y-61779772D01*
X144477700Y-61779770D01*
X144477697Y-61779768D01*
X144477696Y-61779767D01*
X144244162Y-61667304D01*
X144241325Y-61665938D01*
X144241327Y-61665938D01*
X143990623Y-61588606D01*
X143990619Y-61588605D01*
X143990615Y-61588604D01*
X143865823Y-61569794D01*
X143731187Y-61549500D01*
X143731182Y-61549500D01*
X143468818Y-61549500D01*
X143468812Y-61549500D01*
X143307247Y-61573853D01*
X143209385Y-61588604D01*
X143209382Y-61588605D01*
X143209376Y-61588606D01*
X142958671Y-61665938D01*
X142958606Y-61665964D01*
X142958581Y-61665966D01*
X142954244Y-61667304D01*
X142953957Y-61666375D01*
X142889008Y-61672127D01*
X142827128Y-61639684D01*
X142825632Y-61638213D01*
X142300011Y-61112591D01*
X142300003Y-61112585D01*
X142197243Y-61043923D01*
X142197229Y-61043915D01*
X142158057Y-61027690D01*
X142158055Y-61027689D01*
X142083035Y-60996614D01*
X142083027Y-60996612D01*
X141961807Y-60972500D01*
X141961803Y-60972500D01*
X98250931Y-60972500D01*
X98183892Y-60952815D01*
X98138137Y-60900011D01*
X98127711Y-60862384D01*
X98121239Y-60804946D01*
X98121238Y-60804944D01*
X98121238Y-60804941D01*
X98065381Y-60645310D01*
X98065380Y-60645307D01*
X98065377Y-60645302D01*
X97975406Y-60502115D01*
X97975401Y-60502109D01*
X97855815Y-60382523D01*
X97855809Y-60382518D01*
X97712622Y-60292547D01*
X97712616Y-60292544D01*
X97636381Y-60265869D01*
X97553341Y-60236811D01*
X97515634Y-60215626D01*
X97511932Y-60212588D01*
X97409164Y-60143920D01*
X97409151Y-60143913D01*
X97375710Y-60130062D01*
X97294960Y-60096614D01*
X97294952Y-60096612D01*
X97173732Y-60072500D01*
X97173728Y-60072500D01*
X89932618Y-60072500D01*
X89866646Y-60053494D01*
X89812617Y-60019545D01*
X89812616Y-60019544D01*
X89812615Y-60019544D01*
X89774295Y-60006135D01*
X89652981Y-59963685D01*
X89484928Y-59944751D01*
X89484922Y-59944751D01*
X89316868Y-59963685D01*
X89157232Y-60019545D01*
X89103204Y-60053494D01*
X89037232Y-60072500D01*
X87261270Y-60072500D01*
X87140051Y-60096611D01*
X87140051Y-60096612D01*
X87140048Y-60096613D01*
X87140044Y-60096614D01*
X87073148Y-60124323D01*
X87073146Y-60124323D01*
X87025848Y-60143915D01*
X86923067Y-60212590D01*
X86923066Y-60212591D01*
X86235648Y-60900011D01*
X86030022Y-61105637D01*
X85986319Y-61149340D01*
X85942616Y-61193042D01*
X85942615Y-61193044D01*
X85873950Y-61295809D01*
X85873946Y-61295816D01*
X85866956Y-61312693D01*
X85866955Y-61312695D01*
X85826644Y-61410012D01*
X85826642Y-61410020D01*
X85809306Y-61497176D01*
X85802530Y-61531240D01*
X85802530Y-64004156D01*
X82711516Y-64004156D01*
X82692566Y-63950002D01*
X82665381Y-63872310D01*
X82654188Y-63854497D01*
X82635187Y-63787263D01*
X82655553Y-63720427D01*
X82671495Y-63700848D01*
X82972336Y-63400008D01*
X82976406Y-63393917D01*
X83041008Y-63297233D01*
X83062747Y-63244751D01*
X83088311Y-63183034D01*
X83112425Y-63061803D01*
X83112425Y-62938197D01*
X83112425Y-62747692D01*
X83131432Y-62681719D01*
X83165381Y-62627690D01*
X83178310Y-62590741D01*
X83221238Y-62468059D01*
X83230706Y-62384029D01*
X83240174Y-62300002D01*
X83240174Y-62299997D01*
X83221239Y-62131943D01*
X83165379Y-61972305D01*
X83165377Y-61972302D01*
X83075406Y-61829115D01*
X83075401Y-61829109D01*
X82955815Y-61709523D01*
X82955809Y-61709518D01*
X82812622Y-61619547D01*
X82812619Y-61619545D01*
X82652981Y-61563685D01*
X82484928Y-61544751D01*
X82484922Y-61544751D01*
X82316868Y-61563685D01*
X82157230Y-61619545D01*
X82157227Y-61619547D01*
X82014040Y-61709518D01*
X82014034Y-61709523D01*
X81894448Y-61829109D01*
X81894443Y-61829115D01*
X81804472Y-61972302D01*
X81804470Y-61972305D01*
X81748610Y-62131943D01*
X81729676Y-62299997D01*
X81729676Y-62300002D01*
X81748611Y-62468057D01*
X81804468Y-62627688D01*
X81815661Y-62645501D01*
X81834662Y-62712737D01*
X81814296Y-62779573D01*
X81798349Y-62799156D01*
X81682865Y-62914641D01*
X81584917Y-63012589D01*
X81559790Y-63037716D01*
X81497511Y-63099994D01*
X81497510Y-63099996D01*
X81428158Y-63203789D01*
X81426511Y-63208393D01*
X81381540Y-63316962D01*
X81381537Y-63316972D01*
X81363040Y-63409966D01*
X81363040Y-63409967D01*
X81357425Y-63438194D01*
X81357425Y-63752306D01*
X81338419Y-63818278D01*
X81304470Y-63872307D01*
X81248610Y-64031943D01*
X81229676Y-64199997D01*
X81229676Y-64200002D01*
X50500500Y-64200002D01*
X50500500Y-53856797D01*
X50520185Y-53789758D01*
X50572989Y-53744003D01*
X50642147Y-53734059D01*
X50705703Y-53763084D01*
X50742431Y-53818479D01*
X50764125Y-53885247D01*
X50764127Y-53885252D01*
X50892704Y-54158491D01*
X50892707Y-54158497D01*
X51054516Y-54413469D01*
X51135311Y-54511133D01*
X52063708Y-53582736D01*
X52160967Y-53716602D01*
X52283398Y-53839033D01*
X52417262Y-53936290D01*
X51486564Y-54866987D01*
X51486565Y-54866989D01*
X51711461Y-55030385D01*
X51711479Y-55030397D01*
X51976109Y-55175878D01*
X51976117Y-55175882D01*
X52256889Y-55287047D01*
X52256892Y-55287048D01*
X52549399Y-55362150D01*
X52848995Y-55399999D01*
X52849007Y-55400000D01*
X53150993Y-55400000D01*
X53151004Y-55399999D01*
X53450600Y-55362150D01*
X53743107Y-55287048D01*
X53743110Y-55287047D01*
X54023882Y-55175882D01*
X54023890Y-55175878D01*
X54288520Y-55030397D01*
X54288530Y-55030390D01*
X54513433Y-54866987D01*
X54513434Y-54866987D01*
X53582737Y-53936290D01*
X53716602Y-53839033D01*
X53839033Y-53716602D01*
X53936290Y-53582737D01*
X54864687Y-54511134D01*
X54945486Y-54413464D01*
X55107292Y-54158497D01*
X55107295Y-54158491D01*
X55235872Y-53885252D01*
X55235874Y-53885247D01*
X55328557Y-53600001D01*
X58294891Y-53600001D01*
X58315300Y-53885362D01*
X58376109Y-54164895D01*
X58476091Y-54432958D01*
X58613191Y-54684038D01*
X58613196Y-54684046D01*
X58719882Y-54826561D01*
X58719883Y-54826562D01*
X59473474Y-54072971D01*
X59562087Y-54205590D01*
X59694410Y-54337913D01*
X59827027Y-54426525D01*
X59073436Y-55180115D01*
X59215960Y-55286807D01*
X59215961Y-55286808D01*
X59467042Y-55423908D01*
X59467041Y-55423908D01*
X59735104Y-55523890D01*
X60014637Y-55584699D01*
X60299999Y-55605109D01*
X60300001Y-55605109D01*
X60585362Y-55584699D01*
X60864895Y-55523890D01*
X61132958Y-55423908D01*
X61384047Y-55286803D01*
X61526561Y-55180116D01*
X61526562Y-55180115D01*
X60772972Y-54426525D01*
X60905590Y-54337913D01*
X61037913Y-54205590D01*
X61126525Y-54072972D01*
X61880115Y-54826562D01*
X61880116Y-54826561D01*
X61986803Y-54684047D01*
X62123908Y-54432958D01*
X62223890Y-54164895D01*
X62284699Y-53885362D01*
X62305109Y-53600001D01*
X63294891Y-53600001D01*
X63315300Y-53885362D01*
X63376109Y-54164895D01*
X63476091Y-54432958D01*
X63613191Y-54684038D01*
X63613196Y-54684046D01*
X63719882Y-54826561D01*
X63719883Y-54826562D01*
X64473474Y-54072971D01*
X64562087Y-54205590D01*
X64694410Y-54337913D01*
X64827027Y-54426525D01*
X64073436Y-55180115D01*
X64215960Y-55286807D01*
X64215961Y-55286808D01*
X64467042Y-55423908D01*
X64467041Y-55423908D01*
X64735104Y-55523890D01*
X65014637Y-55584699D01*
X65299999Y-55605109D01*
X65300001Y-55605109D01*
X65585362Y-55584699D01*
X65864895Y-55523890D01*
X66132958Y-55423908D01*
X66384047Y-55286803D01*
X66526561Y-55180116D01*
X66526562Y-55180115D01*
X65772972Y-54426525D01*
X65905590Y-54337913D01*
X66037913Y-54205590D01*
X66126525Y-54072972D01*
X66880115Y-54826562D01*
X66880116Y-54826561D01*
X66986803Y-54684047D01*
X67123908Y-54432958D01*
X67223890Y-54164895D01*
X67284699Y-53885362D01*
X67305109Y-53600001D01*
X67305109Y-53599998D01*
X67284699Y-53314637D01*
X67223890Y-53035104D01*
X67123908Y-52767041D01*
X66986808Y-52515961D01*
X66986807Y-52515960D01*
X66880115Y-52373436D01*
X66126524Y-53127026D01*
X66037913Y-52994410D01*
X65905590Y-52862087D01*
X65772971Y-52773474D01*
X66526562Y-52019883D01*
X66526561Y-52019882D01*
X66384046Y-51913196D01*
X66384038Y-51913191D01*
X66132957Y-51776091D01*
X66132958Y-51776091D01*
X65864895Y-51676109D01*
X65585362Y-51615300D01*
X65300001Y-51594891D01*
X65299999Y-51594891D01*
X65014637Y-51615300D01*
X64735104Y-51676109D01*
X64467041Y-51776091D01*
X64215961Y-51913191D01*
X64215953Y-51913196D01*
X64073437Y-52019882D01*
X64073436Y-52019883D01*
X64827028Y-52773474D01*
X64694410Y-52862087D01*
X64562087Y-52994410D01*
X64473474Y-53127027D01*
X63719883Y-52373436D01*
X63719882Y-52373437D01*
X63613196Y-52515953D01*
X63613191Y-52515961D01*
X63476091Y-52767041D01*
X63376109Y-53035104D01*
X63315300Y-53314637D01*
X63294891Y-53599998D01*
X63294891Y-53600001D01*
X62305109Y-53600001D01*
X62305109Y-53599998D01*
X62284699Y-53314637D01*
X62223890Y-53035104D01*
X62123908Y-52767041D01*
X61986808Y-52515961D01*
X61986807Y-52515960D01*
X61880115Y-52373436D01*
X61126524Y-53127026D01*
X61037913Y-52994410D01*
X60905590Y-52862087D01*
X60772971Y-52773474D01*
X61526562Y-52019883D01*
X61526561Y-52019882D01*
X61384046Y-51913196D01*
X61384038Y-51913191D01*
X61132957Y-51776091D01*
X61132958Y-51776091D01*
X60864895Y-51676109D01*
X60585362Y-51615300D01*
X60300001Y-51594891D01*
X60299999Y-51594891D01*
X60014637Y-51615300D01*
X59735104Y-51676109D01*
X59467041Y-51776091D01*
X59215961Y-51913191D01*
X59215953Y-51913196D01*
X59073437Y-52019882D01*
X59073436Y-52019883D01*
X59827028Y-52773474D01*
X59694410Y-52862087D01*
X59562087Y-52994410D01*
X59473474Y-53127027D01*
X58719883Y-52373436D01*
X58719882Y-52373437D01*
X58613196Y-52515953D01*
X58613191Y-52515961D01*
X58476091Y-52767041D01*
X58376109Y-53035104D01*
X58315300Y-53314637D01*
X58294891Y-53599998D01*
X58294891Y-53600001D01*
X55328557Y-53600001D01*
X55329194Y-53598040D01*
X55385785Y-53301380D01*
X55404745Y-53000005D01*
X55404745Y-52999994D01*
X55385784Y-52698616D01*
X55385783Y-52698609D01*
X55329194Y-52401959D01*
X55235874Y-52114752D01*
X55235872Y-52114747D01*
X55107295Y-51841508D01*
X55107292Y-51841502D01*
X54945483Y-51586530D01*
X54864686Y-51488864D01*
X53936289Y-52417261D01*
X53839033Y-52283398D01*
X53716602Y-52160967D01*
X53582736Y-52063709D01*
X54513434Y-51133011D01*
X54513433Y-51133009D01*
X54288538Y-50969614D01*
X54288520Y-50969602D01*
X54023890Y-50824121D01*
X54023882Y-50824117D01*
X53810899Y-50739792D01*
X53755813Y-50696811D01*
X53732710Y-50630872D01*
X53748923Y-50562910D01*
X53799306Y-50514502D01*
X53856546Y-50500500D01*
X72860925Y-50500500D01*
X72927964Y-50520185D01*
G37*
%TD.AperFunction*%
%TD*%
M02*
