%TF.GenerationSoftware,KiCad,Pcbnew,8.0.1*%
%TF.CreationDate,2026-03-25T10:58:13+01:00*%
%TF.ProjectId,memory_pcb,6d656d6f-7279-45f7-9063-622e6b696361,rev?*%
%TF.SameCoordinates,Original*%
%TF.FileFunction,Legend,Top*%
%TF.FilePolarity,Positive*%
%FSLAX46Y46*%
G04 Gerber Fmt 4.6, Leading zero omitted, Abs format (unit mm)*
G04 Created by KiCad (PCBNEW 8.0.1) date 2026-03-25 10:58:13*
%MOMM*%
%LPD*%
G01*
G04 APERTURE LIST*
G04 Aperture macros list*
%AMFreePoly0*
4,1,19,0.500000,-0.750000,0.000000,-0.750000,0.000000,-0.744911,-0.071157,-0.744911,-0.207708,-0.704816,-0.327430,-0.627875,-0.420627,-0.520320,-0.479746,-0.390866,-0.500000,-0.250000,-0.500000,0.250000,-0.479746,0.390866,-0.420627,0.520320,-0.327430,0.627875,-0.207708,0.704816,-0.071157,0.744911,0.000000,0.744911,0.000000,0.750000,0.500000,0.750000,0.500000,-0.750000,0.500000,-0.750000,
$1*%
%AMFreePoly1*
4,1,19,0.000000,0.744911,0.071157,0.744911,0.207708,0.704816,0.327430,0.627875,0.420627,0.520320,0.479746,0.390866,0.500000,0.250000,0.500000,-0.250000,0.479746,-0.390866,0.420627,-0.520320,0.327430,-0.627875,0.207708,-0.704816,0.071157,-0.744911,0.000000,-0.744911,0.000000,-0.750000,-0.500000,-0.750000,-0.500000,0.750000,0.000000,0.750000,0.000000,0.744911,0.000000,0.744911,
$1*%
%AMFreePoly2*
4,1,9,0.299924,-0.649936,-0.000051,-0.649936,-0.000051,-0.650089,-0.300051,-0.650089,-0.300051,0.649936,-0.000076,0.649936,-0.000076,0.650089,0.299924,0.650089,0.299924,-0.649936,0.299924,-0.649936,$1*%
%AMFreePoly3*
4,1,9,0.300076,-0.650038,0.000127,-0.650038,0.000127,-0.650064,-0.299898,-0.650064,-0.299898,0.649911,0.000051,0.649911,0.000051,0.649936,0.300076,0.649936,0.300076,-0.650038,0.300076,-0.650038,$1*%
%AMFreePoly4*
4,1,5,0.299873,-0.649886,-0.300152,-0.649886,-0.300152,0.650089,0.299873,0.650089,0.299873,-0.649886,0.299873,-0.649886,$1*%
G04 Aperture macros list end*
%ADD10C,0.000000*%
%ADD11C,0.100000*%
%ADD12C,0.300000*%
%ADD13C,0.187500*%
%ADD14C,0.152400*%
%ADD15C,0.254000*%
%ADD16C,0.120000*%
%ADD17C,0.152000*%
%ADD18C,0.200000*%
%ADD19C,0.248920*%
%ADD20C,0.150013*%
%ADD21R,0.540005X0.500000*%
%ADD22R,0.806477X0.864008*%
%ADD23R,1.500000X0.900000*%
%ADD24R,0.900000X1.500000*%
%ADD25R,0.900000X0.900000*%
%ADD26R,0.864008X0.806477*%
%ADD27R,0.800000X0.900000*%
%ADD28FreePoly0,270.000000*%
%ADD29FreePoly1,270.000000*%
%ADD30R,1.539014X2.062510*%
%ADD31R,1.859995X1.229997*%
%ADD32C,0.750013*%
%ADD33O,1.200000X2.000000*%
%ADD34O,1.200000X1.800000*%
%ADD35FreePoly2,0.000000*%
%ADD36FreePoly3,0.000000*%
%ADD37R,0.300000X1.300000*%
%ADD38FreePoly4,0.000000*%
%ADD39R,0.500000X0.540005*%
%ADD40R,0.299975X1.500000*%
%ADD41R,2.000000X1.600000*%
%ADD42R,0.424994X0.280010*%
%ADD43R,0.800000X1.200000*%
%ADD44R,0.700000X1.250013*%
%ADD45C,3.800000*%
%ADD46R,1.700000X1.700000*%
%ADD47O,1.700000X1.700000*%
%ADD48R,0.489992X1.156998*%
%ADD49R,0.489992X1.175006*%
%ADD50R,1.485014X1.727991*%
%ADD51C,3.000000*%
%ADD52R,0.600000X1.100000*%
%ADD53R,1.104902X0.622301*%
%ADD54R,1.000000X3.800000*%
%ADD55R,1.500000X3.400000*%
%ADD56R,0.800000X0.800000*%
%ADD57R,2.000000X2.000000*%
%ADD58C,2.000000*%
%ADD59R,2.000000X3.200000*%
%ADD60C,5.250000*%
%ADD61C,2.500000*%
G04 APERTURE END LIST*
D10*
G36*
X85927486Y-56580546D02*
G01*
X85936919Y-56581265D01*
X85946217Y-56582448D01*
X85955366Y-56584083D01*
X85964355Y-56586160D01*
X85973173Y-56588667D01*
X85981807Y-56591591D01*
X85990246Y-56594921D01*
X85998478Y-56598646D01*
X86006492Y-56602753D01*
X86014275Y-56607230D01*
X86021816Y-56612067D01*
X86029104Y-56617252D01*
X86036126Y-56622772D01*
X86042872Y-56628616D01*
X86049328Y-56634772D01*
X86055484Y-56641228D01*
X86061328Y-56647974D01*
X86066847Y-56654996D01*
X86072031Y-56662284D01*
X86076868Y-56669826D01*
X86081345Y-56677609D01*
X86085452Y-56685623D01*
X86089176Y-56693855D01*
X86092506Y-56702293D01*
X86095430Y-56710927D01*
X86097936Y-56719744D01*
X86100013Y-56728733D01*
X86101648Y-56737881D01*
X86102831Y-56747178D01*
X86103549Y-56756611D01*
X86103791Y-56766169D01*
X86103549Y-56775727D01*
X86102831Y-56785161D01*
X86101648Y-56794459D01*
X86100013Y-56803608D01*
X86097936Y-56812597D01*
X86095430Y-56821415D01*
X86092506Y-56830049D01*
X86089176Y-56838488D01*
X86085452Y-56846720D01*
X86081345Y-56854734D01*
X86076868Y-56862517D01*
X86072031Y-56870058D01*
X86066847Y-56877346D01*
X86061328Y-56884368D01*
X86055484Y-56891114D01*
X86049328Y-56897570D01*
X86042872Y-56903726D01*
X86036126Y-56909570D01*
X86029104Y-56915089D01*
X86021816Y-56920273D01*
X86014275Y-56925110D01*
X86006492Y-56929587D01*
X85998478Y-56933694D01*
X85990246Y-56937418D01*
X85981807Y-56940748D01*
X85973173Y-56943672D01*
X85964355Y-56946178D01*
X85955366Y-56948254D01*
X85946217Y-56949890D01*
X85936919Y-56951073D01*
X85927486Y-56951791D01*
X85917927Y-56952033D01*
X85908369Y-56951791D01*
X85898936Y-56951073D01*
X85889639Y-56949890D01*
X85880491Y-56948254D01*
X85871502Y-56946178D01*
X85862685Y-56943672D01*
X85854051Y-56940748D01*
X85845612Y-56937418D01*
X85837380Y-56933694D01*
X85829366Y-56929587D01*
X85821583Y-56925110D01*
X85814042Y-56920273D01*
X85806754Y-56915089D01*
X85799731Y-56909570D01*
X85792986Y-56903726D01*
X85786529Y-56897570D01*
X85780373Y-56891114D01*
X85774529Y-56884368D01*
X85769009Y-56877346D01*
X85763825Y-56870058D01*
X85758988Y-56862517D01*
X85754510Y-56854734D01*
X85750403Y-56846720D01*
X85746679Y-56838488D01*
X85743349Y-56830049D01*
X85740425Y-56821415D01*
X85737918Y-56812597D01*
X85735841Y-56803608D01*
X85734205Y-56794459D01*
X85733022Y-56785161D01*
X85732304Y-56775727D01*
X85732062Y-56766169D01*
X85864354Y-56766169D01*
X85864424Y-56768924D01*
X85864631Y-56771643D01*
X85864972Y-56774323D01*
X85865443Y-56776961D01*
X85866042Y-56779552D01*
X85866765Y-56782093D01*
X85867608Y-56784582D01*
X85868568Y-56787015D01*
X85869642Y-56789387D01*
X85870825Y-56791697D01*
X85872116Y-56793941D01*
X85873511Y-56796114D01*
X85875005Y-56798215D01*
X85876596Y-56800239D01*
X85878281Y-56802183D01*
X85880056Y-56804044D01*
X85881917Y-56805818D01*
X85883861Y-56807503D01*
X85885885Y-56809094D01*
X85887986Y-56810588D01*
X85890160Y-56811982D01*
X85892403Y-56813272D01*
X85894713Y-56814456D01*
X85897086Y-56815529D01*
X85899518Y-56816489D01*
X85902006Y-56817332D01*
X85904548Y-56818054D01*
X85907138Y-56818653D01*
X85909775Y-56819124D01*
X85912454Y-56819465D01*
X85915172Y-56819672D01*
X85917927Y-56819742D01*
X85920682Y-56819672D01*
X85923401Y-56819465D01*
X85926081Y-56819124D01*
X85928718Y-56818653D01*
X85931309Y-56818054D01*
X85933851Y-56817332D01*
X85936340Y-56816489D01*
X85938772Y-56815529D01*
X85941145Y-56814456D01*
X85943455Y-56813272D01*
X85945698Y-56811982D01*
X85947872Y-56810588D01*
X85949972Y-56809094D01*
X85951996Y-56807503D01*
X85953941Y-56805818D01*
X85955802Y-56804044D01*
X85957576Y-56802183D01*
X85959260Y-56800239D01*
X85960851Y-56798215D01*
X85962345Y-56796114D01*
X85963739Y-56793941D01*
X85965030Y-56791697D01*
X85966213Y-56789387D01*
X85967287Y-56787015D01*
X85968247Y-56784582D01*
X85969089Y-56782093D01*
X85969812Y-56779552D01*
X85970410Y-56776961D01*
X85970882Y-56774323D01*
X85971223Y-56771643D01*
X85971430Y-56768924D01*
X85971499Y-56766169D01*
X85971430Y-56763413D01*
X85971223Y-56760694D01*
X85970882Y-56758014D01*
X85970410Y-56755377D01*
X85969812Y-56752786D01*
X85969089Y-56750245D01*
X85968247Y-56747756D01*
X85967287Y-56745323D01*
X85966213Y-56742951D01*
X85965030Y-56740641D01*
X85963739Y-56738397D01*
X85962345Y-56736224D01*
X85960851Y-56734123D01*
X85959260Y-56732099D01*
X85957576Y-56730155D01*
X85955802Y-56728294D01*
X85953941Y-56726519D01*
X85951996Y-56724835D01*
X85949972Y-56723244D01*
X85947872Y-56721750D01*
X85945698Y-56720356D01*
X85943455Y-56719065D01*
X85941145Y-56717882D01*
X85938772Y-56716808D01*
X85936340Y-56715849D01*
X85933851Y-56715006D01*
X85931309Y-56714283D01*
X85928718Y-56713685D01*
X85926081Y-56713213D01*
X85923401Y-56712872D01*
X85920682Y-56712665D01*
X85917927Y-56712596D01*
X85915172Y-56712665D01*
X85912454Y-56712872D01*
X85909775Y-56713213D01*
X85907138Y-56713685D01*
X85904548Y-56714283D01*
X85902006Y-56715006D01*
X85899518Y-56715849D01*
X85897086Y-56716808D01*
X85894713Y-56717882D01*
X85892403Y-56719065D01*
X85890160Y-56720356D01*
X85887986Y-56721750D01*
X85885885Y-56723244D01*
X85883861Y-56724835D01*
X85881917Y-56726519D01*
X85880056Y-56728294D01*
X85878281Y-56730155D01*
X85876596Y-56732099D01*
X85875005Y-56734123D01*
X85873511Y-56736224D01*
X85872116Y-56738397D01*
X85870825Y-56740641D01*
X85869642Y-56742951D01*
X85868568Y-56745323D01*
X85867608Y-56747756D01*
X85866765Y-56750245D01*
X85866042Y-56752786D01*
X85865443Y-56755377D01*
X85864972Y-56758014D01*
X85864631Y-56760694D01*
X85864424Y-56763413D01*
X85864354Y-56766169D01*
X85732062Y-56766169D01*
X85732304Y-56756611D01*
X85733022Y-56747178D01*
X85734205Y-56737881D01*
X85735841Y-56728733D01*
X85737918Y-56719744D01*
X85740425Y-56710927D01*
X85743349Y-56702293D01*
X85746679Y-56693855D01*
X85750403Y-56685623D01*
X85754510Y-56677609D01*
X85758988Y-56669826D01*
X85763825Y-56662284D01*
X85769009Y-56654996D01*
X85774529Y-56647974D01*
X85780373Y-56641228D01*
X85786529Y-56634772D01*
X85792986Y-56628616D01*
X85799731Y-56622772D01*
X85806754Y-56617252D01*
X85814042Y-56612067D01*
X85821583Y-56607230D01*
X85829366Y-56602753D01*
X85837380Y-56598646D01*
X85845612Y-56594921D01*
X85854051Y-56591591D01*
X85862685Y-56588667D01*
X85871502Y-56586160D01*
X85880491Y-56584083D01*
X85889639Y-56582448D01*
X85898936Y-56581265D01*
X85908369Y-56580546D01*
X85917927Y-56580304D01*
X85927486Y-56580546D01*
G37*
G36*
X87037210Y-57985907D02*
G01*
X87046644Y-57986626D01*
X87055941Y-57987808D01*
X87065091Y-57989444D01*
X87074080Y-57991521D01*
X87082897Y-57994027D01*
X87091531Y-57996951D01*
X87099970Y-58000280D01*
X87108202Y-58004004D01*
X87116216Y-58008110D01*
X87123999Y-58012588D01*
X87131541Y-58017424D01*
X87138828Y-58022608D01*
X87145851Y-58028128D01*
X87152596Y-58033972D01*
X87159052Y-58040128D01*
X87165208Y-58046584D01*
X87171052Y-58053329D01*
X87176572Y-58060352D01*
X87181755Y-58067639D01*
X87186592Y-58075181D01*
X87191069Y-58082964D01*
X87195176Y-58090978D01*
X87198900Y-58099210D01*
X87202230Y-58107649D01*
X87205154Y-58116283D01*
X87207660Y-58125100D01*
X87209737Y-58134090D01*
X87211373Y-58143239D01*
X87212555Y-58152536D01*
X87213274Y-58161970D01*
X87213516Y-58171529D01*
X87213274Y-58181088D01*
X87212555Y-58190522D01*
X87211373Y-58199819D01*
X87209737Y-58208968D01*
X87207660Y-58217957D01*
X87205154Y-58226775D01*
X87202230Y-58235409D01*
X87198900Y-58243848D01*
X87195176Y-58252080D01*
X87191069Y-58260094D01*
X87186592Y-58267877D01*
X87181755Y-58275419D01*
X87176572Y-58282706D01*
X87171052Y-58289729D01*
X87165208Y-58296474D01*
X87159052Y-58302930D01*
X87152596Y-58309086D01*
X87145851Y-58314930D01*
X87138828Y-58320449D01*
X87131541Y-58325633D01*
X87123999Y-58330470D01*
X87116216Y-58334947D01*
X87108202Y-58339054D01*
X87099970Y-58342778D01*
X87091531Y-58346108D01*
X87082897Y-58349032D01*
X87074080Y-58351538D01*
X87065091Y-58353615D01*
X87055941Y-58355250D01*
X87046644Y-58356433D01*
X87037210Y-58357152D01*
X87027651Y-58357394D01*
X87018093Y-58357152D01*
X87008659Y-58356433D01*
X86999361Y-58355250D01*
X86990212Y-58353615D01*
X86981223Y-58351538D01*
X86972405Y-58349032D01*
X86963771Y-58346108D01*
X86955332Y-58342778D01*
X86947100Y-58339054D01*
X86939087Y-58334947D01*
X86931303Y-58330470D01*
X86923762Y-58325633D01*
X86916474Y-58320449D01*
X86909452Y-58314930D01*
X86902706Y-58309086D01*
X86896250Y-58302930D01*
X86890094Y-58296474D01*
X86884250Y-58289729D01*
X86878731Y-58282706D01*
X86873547Y-58275419D01*
X86868710Y-58267877D01*
X86864233Y-58260094D01*
X86860126Y-58252080D01*
X86856402Y-58243848D01*
X86853072Y-58235409D01*
X86850148Y-58226775D01*
X86847642Y-58217957D01*
X86845565Y-58208968D01*
X86843930Y-58199819D01*
X86842747Y-58190522D01*
X86842029Y-58181088D01*
X86841787Y-58171529D01*
X86974078Y-58171529D01*
X86974148Y-58174284D01*
X86974355Y-58177004D01*
X86974696Y-58179684D01*
X86975168Y-58182321D01*
X86975766Y-58184912D01*
X86976489Y-58187454D01*
X86977331Y-58189942D01*
X86978291Y-58192375D01*
X86979364Y-58194748D01*
X86980548Y-58197057D01*
X86981839Y-58199301D01*
X86983233Y-58201475D01*
X86984727Y-58203575D01*
X86986318Y-58205599D01*
X86988002Y-58207543D01*
X86989776Y-58209404D01*
X86991637Y-58211179D01*
X86993581Y-58212863D01*
X86995605Y-58214454D01*
X86997706Y-58215948D01*
X86999880Y-58217342D01*
X87002123Y-58218632D01*
X87004433Y-58219816D01*
X87006806Y-58220889D01*
X87009238Y-58221849D01*
X87011727Y-58222692D01*
X87014269Y-58223414D01*
X87016860Y-58224013D01*
X87019497Y-58224484D01*
X87022177Y-58224825D01*
X87024896Y-58225032D01*
X87027651Y-58225102D01*
X87030407Y-58225032D01*
X87033126Y-58224825D01*
X87035806Y-58224484D01*
X87038443Y-58224013D01*
X87041034Y-58223414D01*
X87043576Y-58222692D01*
X87046065Y-58221849D01*
X87048497Y-58220889D01*
X87050870Y-58219816D01*
X87053180Y-58218632D01*
X87055423Y-58217342D01*
X87057597Y-58215948D01*
X87059697Y-58214454D01*
X87061721Y-58212863D01*
X87063666Y-58211179D01*
X87065527Y-58209404D01*
X87067301Y-58207543D01*
X87068985Y-58205599D01*
X87070576Y-58203575D01*
X87072070Y-58201475D01*
X87073464Y-58199301D01*
X87074755Y-58197057D01*
X87075938Y-58194748D01*
X87077011Y-58192375D01*
X87077971Y-58189942D01*
X87078814Y-58187454D01*
X87079536Y-58184912D01*
X87080135Y-58182321D01*
X87080606Y-58179684D01*
X87080947Y-58177004D01*
X87081154Y-58174284D01*
X87081224Y-58171529D01*
X87081154Y-58168774D01*
X87080947Y-58166054D01*
X87080606Y-58163374D01*
X87080135Y-58160737D01*
X87079536Y-58158146D01*
X87078814Y-58155605D01*
X87077971Y-58153116D01*
X87077011Y-58150684D01*
X87075938Y-58148311D01*
X87074755Y-58146001D01*
X87073464Y-58143757D01*
X87072070Y-58141584D01*
X87070576Y-58139483D01*
X87068985Y-58137459D01*
X87067301Y-58135515D01*
X87065527Y-58133654D01*
X87063666Y-58131880D01*
X87061721Y-58130195D01*
X87059697Y-58128604D01*
X87057597Y-58127110D01*
X87055423Y-58125716D01*
X87053180Y-58124426D01*
X87050870Y-58123242D01*
X87048497Y-58122169D01*
X87046065Y-58121209D01*
X87043576Y-58120366D01*
X87041034Y-58119644D01*
X87038443Y-58119045D01*
X87035806Y-58118574D01*
X87033126Y-58118233D01*
X87030407Y-58118026D01*
X87027651Y-58117956D01*
X87024896Y-58118026D01*
X87022177Y-58118233D01*
X87019497Y-58118574D01*
X87016860Y-58119045D01*
X87014269Y-58119644D01*
X87011727Y-58120366D01*
X87009238Y-58121209D01*
X87006806Y-58122169D01*
X87004433Y-58123242D01*
X87002123Y-58124426D01*
X86999880Y-58125716D01*
X86997706Y-58127110D01*
X86995605Y-58128604D01*
X86993581Y-58130195D01*
X86991637Y-58131880D01*
X86989776Y-58133654D01*
X86988002Y-58135515D01*
X86986318Y-58137459D01*
X86984727Y-58139483D01*
X86983233Y-58141584D01*
X86981839Y-58143757D01*
X86980548Y-58146001D01*
X86979364Y-58148311D01*
X86978291Y-58150684D01*
X86977331Y-58153116D01*
X86976489Y-58155605D01*
X86975766Y-58158146D01*
X86975168Y-58160737D01*
X86974696Y-58163374D01*
X86974355Y-58166054D01*
X86974148Y-58168774D01*
X86974078Y-58171529D01*
X86841787Y-58171529D01*
X86842029Y-58161970D01*
X86842747Y-58152536D01*
X86843930Y-58143239D01*
X86845565Y-58134090D01*
X86847642Y-58125100D01*
X86850148Y-58116283D01*
X86853072Y-58107649D01*
X86856402Y-58099210D01*
X86860126Y-58090978D01*
X86864233Y-58082964D01*
X86868710Y-58075181D01*
X86873547Y-58067639D01*
X86878731Y-58060352D01*
X86884250Y-58053329D01*
X86890094Y-58046584D01*
X86896250Y-58040128D01*
X86902706Y-58033972D01*
X86909452Y-58028128D01*
X86916474Y-58022608D01*
X86923762Y-58017424D01*
X86931303Y-58012588D01*
X86939087Y-58008110D01*
X86947100Y-58004004D01*
X86955332Y-58000280D01*
X86963771Y-57996951D01*
X86972405Y-57994027D01*
X86981223Y-57991521D01*
X86990212Y-57989444D01*
X86999361Y-57987808D01*
X87008659Y-57986626D01*
X87018093Y-57985907D01*
X87027651Y-57985665D01*
X87037210Y-57985907D01*
G37*
G36*
X86739401Y-55999742D02*
G01*
X86838728Y-56005330D01*
X86935349Y-56014486D01*
X87029263Y-56027085D01*
X87120469Y-56042998D01*
X87208966Y-56062098D01*
X87294753Y-56084259D01*
X87377828Y-56109351D01*
X87535841Y-56167826D01*
X87682994Y-56236502D01*
X87819279Y-56314362D01*
X87944687Y-56400387D01*
X88059209Y-56493558D01*
X88162835Y-56592856D01*
X88255557Y-56697263D01*
X88337365Y-56805760D01*
X88408251Y-56917328D01*
X88468205Y-57030949D01*
X88517218Y-57145603D01*
X88555281Y-57260273D01*
X90063121Y-57029843D01*
X90062895Y-56995787D01*
X90063677Y-56955992D01*
X90065867Y-56911278D01*
X90069865Y-56862464D01*
X90072668Y-56836777D01*
X90076073Y-56810372D01*
X90080131Y-56783352D01*
X90084891Y-56755820D01*
X90090405Y-56727878D01*
X90096721Y-56699629D01*
X90103891Y-56671176D01*
X90111963Y-56642620D01*
X90126358Y-56598326D01*
X90143125Y-56554407D01*
X90162432Y-56511206D01*
X90184443Y-56469065D01*
X90209326Y-56428326D01*
X90237245Y-56389333D01*
X90252396Y-56370597D01*
X90268368Y-56352427D01*
X90285182Y-56334864D01*
X90302860Y-56317951D01*
X90321421Y-56301732D01*
X90340887Y-56286249D01*
X90361278Y-56271545D01*
X90382615Y-56257662D01*
X90404919Y-56244644D01*
X90428210Y-56232533D01*
X90452510Y-56221372D01*
X90477839Y-56211205D01*
X90504217Y-56202073D01*
X90531667Y-56194020D01*
X90560207Y-56187088D01*
X90589860Y-56181321D01*
X90620646Y-56176760D01*
X90652585Y-56173450D01*
X90685698Y-56171432D01*
X90720007Y-56170750D01*
X90788107Y-56171892D01*
X90853110Y-56175250D01*
X90915088Y-56180728D01*
X90974115Y-56188229D01*
X91030263Y-56197654D01*
X91083607Y-56208906D01*
X91134217Y-56221887D01*
X91182169Y-56236499D01*
X91227534Y-56252646D01*
X91270386Y-56270229D01*
X91310798Y-56289150D01*
X91348843Y-56309313D01*
X91384593Y-56330618D01*
X91418123Y-56352970D01*
X91449504Y-56376270D01*
X91478811Y-56400420D01*
X91499953Y-56419485D01*
X91519971Y-56438981D01*
X91538893Y-56458870D01*
X91556750Y-56479115D01*
X91589387Y-56520516D01*
X91618119Y-56562880D01*
X91643185Y-56605901D01*
X91664821Y-56649275D01*
X91683268Y-56692696D01*
X91698761Y-56735860D01*
X91711541Y-56778461D01*
X91721844Y-56820195D01*
X91729909Y-56860757D01*
X91735974Y-56899841D01*
X91740276Y-56937143D01*
X91743055Y-56972357D01*
X91744547Y-57005179D01*
X91744992Y-57035304D01*
X91744198Y-57070032D01*
X91741917Y-57106096D01*
X91738301Y-57143196D01*
X91733505Y-57181032D01*
X91720978Y-57257715D01*
X91705559Y-57333746D01*
X91688468Y-57406728D01*
X91670929Y-57474263D01*
X91654163Y-57533954D01*
X91639392Y-57583403D01*
X91659390Y-57590204D01*
X91678677Y-57597365D01*
X91697267Y-57604875D01*
X91715174Y-57612726D01*
X91732413Y-57620907D01*
X91748998Y-57629410D01*
X91764945Y-57638225D01*
X91780267Y-57647342D01*
X91794979Y-57656751D01*
X91809096Y-57666443D01*
X91822633Y-57676409D01*
X91835604Y-57686638D01*
X91848024Y-57697122D01*
X91859907Y-57707851D01*
X91871268Y-57718815D01*
X91882121Y-57730004D01*
X91897141Y-57746790D01*
X91911186Y-57764062D01*
X91924292Y-57781802D01*
X91936495Y-57799990D01*
X91947833Y-57818607D01*
X91958341Y-57837633D01*
X91968055Y-57857050D01*
X91977013Y-57876839D01*
X91985250Y-57896979D01*
X91992803Y-57917451D01*
X91999708Y-57938237D01*
X92006002Y-57959317D01*
X92011721Y-57980672D01*
X92016900Y-58002281D01*
X92021578Y-58024127D01*
X92025789Y-58046190D01*
X92032325Y-58086424D01*
X92037744Y-58127158D01*
X92042337Y-58168237D01*
X92046396Y-58209510D01*
X92054074Y-58292025D01*
X92058275Y-58332962D01*
X92063106Y-58373480D01*
X92070408Y-58442413D01*
X92075270Y-58517336D01*
X92077782Y-58597392D01*
X92078035Y-58681728D01*
X92076118Y-58769488D01*
X92072122Y-58859816D01*
X92058257Y-59044756D01*
X92037163Y-59229707D01*
X92009562Y-59407825D01*
X91993548Y-59492184D01*
X91976179Y-59572270D01*
X91957545Y-59647226D01*
X91937736Y-59716198D01*
X91923759Y-59758699D01*
X91916529Y-59778812D01*
X91909155Y-59798140D01*
X91901647Y-59816660D01*
X91894017Y-59834351D01*
X91886278Y-59851192D01*
X91878441Y-59867161D01*
X91870517Y-59882238D01*
X91862519Y-59896401D01*
X91854458Y-59909629D01*
X91846345Y-59921900D01*
X91838193Y-59933193D01*
X91830012Y-59943486D01*
X91821816Y-59952759D01*
X91813615Y-59960991D01*
X91807621Y-59966393D01*
X91801578Y-59971383D01*
X91795493Y-59975967D01*
X91789368Y-59980151D01*
X91783209Y-59983942D01*
X91777019Y-59987344D01*
X91770804Y-59990363D01*
X91764567Y-59993007D01*
X91758312Y-59995280D01*
X91752045Y-59997188D01*
X91745770Y-59998738D01*
X91739490Y-59999935D01*
X91733210Y-60000785D01*
X91726935Y-60001294D01*
X91720669Y-60001469D01*
X91717062Y-60001379D01*
X91714416Y-60001314D01*
X91000775Y-59982937D01*
X89943462Y-59974316D01*
X87192383Y-59954218D01*
X85695901Y-59926680D01*
X84250310Y-59876775D01*
X82954251Y-59796471D01*
X82393122Y-59742410D01*
X81906367Y-59677738D01*
X81751081Y-59651475D01*
X81607360Y-59623493D01*
X81475730Y-59593817D01*
X81356718Y-59562469D01*
X81250848Y-59529473D01*
X81203006Y-59512365D01*
X81158647Y-59494854D01*
X81117837Y-59476943D01*
X81080641Y-59458635D01*
X81047126Y-59439932D01*
X81017357Y-59420839D01*
X81002107Y-59409820D01*
X80987913Y-59398611D01*
X80974767Y-59387223D01*
X80962657Y-59375665D01*
X80951574Y-59363950D01*
X80941507Y-59352086D01*
X80932447Y-59340087D01*
X80924383Y-59327961D01*
X80917306Y-59315719D01*
X80911205Y-59303373D01*
X80906070Y-59290932D01*
X80901891Y-59278409D01*
X80898659Y-59265812D01*
X80896362Y-59253154D01*
X80894992Y-59240444D01*
X80894537Y-59227693D01*
X80894761Y-59220732D01*
X80895441Y-59213690D01*
X80896590Y-59206579D01*
X80898222Y-59199410D01*
X80900351Y-59192194D01*
X80902989Y-59184942D01*
X80906151Y-59177665D01*
X80909849Y-59170374D01*
X80914096Y-59163081D01*
X80918908Y-59155795D01*
X80924296Y-59148529D01*
X80930274Y-59141293D01*
X80936855Y-59134099D01*
X80944054Y-59126957D01*
X80951882Y-59119878D01*
X80960355Y-59112874D01*
X80973588Y-59103032D01*
X80988464Y-59093143D01*
X81004950Y-59083217D01*
X81023015Y-59073260D01*
X81042629Y-59063282D01*
X81063760Y-59053290D01*
X81086377Y-59043293D01*
X81110449Y-59033298D01*
X81135945Y-59023315D01*
X81162834Y-59013350D01*
X81191084Y-59003413D01*
X81220665Y-58993511D01*
X81251546Y-58983653D01*
X81283695Y-58973846D01*
X81351673Y-58954420D01*
X81627802Y-58887259D01*
X81951541Y-58822097D01*
X82309582Y-58759634D01*
X82688617Y-58700568D01*
X83075339Y-58645599D01*
X83456441Y-58595423D01*
X84148551Y-58512248D01*
X83439515Y-58444424D01*
X83048735Y-58399294D01*
X82652484Y-58346320D01*
X82264789Y-58285232D01*
X81899676Y-58215756D01*
X81729971Y-58177788D01*
X81571173Y-58137620D01*
X81425033Y-58095219D01*
X81293306Y-58050550D01*
X81234773Y-58027894D01*
X81180069Y-58004597D01*
X81129349Y-57980698D01*
X81105531Y-57968534D01*
X81082767Y-57956233D01*
X81061076Y-57943800D01*
X81040477Y-57931240D01*
X81020989Y-57918558D01*
X81002633Y-57905757D01*
X80985427Y-57892843D01*
X80969390Y-57879821D01*
X80954542Y-57866695D01*
X80940903Y-57853469D01*
X80930214Y-57842126D01*
X80920314Y-57830676D01*
X80911199Y-57819124D01*
X80902869Y-57807475D01*
X80895322Y-57795730D01*
X80888556Y-57783896D01*
X80882569Y-57771976D01*
X80877359Y-57759974D01*
X80872925Y-57747893D01*
X80869265Y-57735738D01*
X80866377Y-57723513D01*
X80864260Y-57711222D01*
X80862912Y-57698869D01*
X80862331Y-57686458D01*
X80862379Y-57683243D01*
X80994634Y-57683243D01*
X80994774Y-57687118D01*
X80995129Y-57690968D01*
X80995691Y-57694795D01*
X80996456Y-57698600D01*
X80997419Y-57702384D01*
X80998574Y-57706148D01*
X80999915Y-57709894D01*
X81001439Y-57713622D01*
X81003138Y-57717335D01*
X81005007Y-57721032D01*
X81007043Y-57724716D01*
X81009238Y-57728388D01*
X81011587Y-57732048D01*
X81014086Y-57735697D01*
X81017915Y-57740918D01*
X81022006Y-57746098D01*
X81026354Y-57751241D01*
X81030956Y-57756348D01*
X81035808Y-57761422D01*
X81040907Y-57766463D01*
X81046247Y-57771475D01*
X81051827Y-57776459D01*
X81057640Y-57781417D01*
X81063685Y-57786352D01*
X81069957Y-57791265D01*
X81076451Y-57796157D01*
X81083165Y-57801032D01*
X81090095Y-57805891D01*
X81097236Y-57810736D01*
X81104584Y-57815570D01*
X81131887Y-57832370D01*
X81161423Y-57848875D01*
X81193126Y-57865091D01*
X81226926Y-57881023D01*
X81262756Y-57896677D01*
X81300545Y-57912056D01*
X81340227Y-57927167D01*
X81381732Y-57942014D01*
X81424991Y-57956603D01*
X81469937Y-57970938D01*
X81564614Y-57998870D01*
X81665213Y-58025848D01*
X81771186Y-58051916D01*
X81996824Y-58101228D01*
X82237333Y-58146763D01*
X82746721Y-58226835D01*
X83266866Y-58292788D01*
X83765285Y-58345277D01*
X84567000Y-58412493D01*
X84891989Y-58433731D01*
X84895206Y-58433987D01*
X84898376Y-58434394D01*
X84901496Y-58434947D01*
X84904562Y-58435643D01*
X84907572Y-58436478D01*
X84910521Y-58437449D01*
X84913406Y-58438553D01*
X84916224Y-58439785D01*
X84918970Y-58441141D01*
X84921643Y-58442619D01*
X84924237Y-58444215D01*
X84926749Y-58445924D01*
X84929177Y-58447744D01*
X84931515Y-58449670D01*
X84933762Y-58451699D01*
X84935913Y-58453828D01*
X84937965Y-58456052D01*
X84939915Y-58458369D01*
X84941758Y-58460773D01*
X84943492Y-58463263D01*
X84945112Y-58465834D01*
X84946616Y-58468482D01*
X84947999Y-58471204D01*
X84949259Y-58473997D01*
X84950392Y-58476856D01*
X84951394Y-58479778D01*
X84952261Y-58482759D01*
X84952991Y-58485796D01*
X84953579Y-58488885D01*
X84954023Y-58492022D01*
X84954319Y-58495204D01*
X84954462Y-58498428D01*
X84954451Y-58501653D01*
X84954286Y-58504843D01*
X84953971Y-58507995D01*
X84953510Y-58511105D01*
X84952905Y-58514168D01*
X84952160Y-58517182D01*
X84951279Y-58520142D01*
X84950265Y-58523044D01*
X84949120Y-58525885D01*
X84947849Y-58528661D01*
X84946455Y-58531368D01*
X84944942Y-58534003D01*
X84943312Y-58536561D01*
X84941568Y-58539039D01*
X84939716Y-58541433D01*
X84937756Y-58543740D01*
X84935694Y-58545955D01*
X84933533Y-58548074D01*
X84931275Y-58550094D01*
X84928924Y-58552012D01*
X84926484Y-58553823D01*
X84923958Y-58555523D01*
X84921349Y-58557109D01*
X84918660Y-58558578D01*
X84915896Y-58559924D01*
X84913058Y-58561145D01*
X84910152Y-58562236D01*
X84907180Y-58563195D01*
X84904145Y-58564016D01*
X84901051Y-58564697D01*
X84897901Y-58565233D01*
X84894698Y-58565621D01*
X84487510Y-58607683D01*
X83516525Y-58720820D01*
X82937066Y-58797924D01*
X82357609Y-58885455D01*
X81825136Y-58980968D01*
X81591201Y-59030952D01*
X81386630Y-59082013D01*
X81334471Y-59096716D01*
X81285460Y-59111416D01*
X81239756Y-59126126D01*
X81197517Y-59140858D01*
X81158901Y-59155624D01*
X81124068Y-59170436D01*
X81093174Y-59185308D01*
X81079254Y-59192769D01*
X81066379Y-59200250D01*
X81063238Y-59202226D01*
X81060087Y-59204341D01*
X81056949Y-59206566D01*
X81053844Y-59208871D01*
X81047822Y-59213607D01*
X81042193Y-59218317D01*
X81037128Y-59222767D01*
X81032800Y-59226725D01*
X81027040Y-59232233D01*
X81027411Y-59235217D01*
X81027960Y-59238171D01*
X81028683Y-59241096D01*
X81029575Y-59243995D01*
X81030630Y-59246870D01*
X81031843Y-59249723D01*
X81033208Y-59252556D01*
X81034722Y-59255372D01*
X81036379Y-59258172D01*
X81038173Y-59260959D01*
X81040100Y-59263734D01*
X81042154Y-59266501D01*
X81044330Y-59269260D01*
X81046623Y-59272015D01*
X81049028Y-59274768D01*
X81051541Y-59277520D01*
X81056098Y-59282244D01*
X81060930Y-59286924D01*
X81066034Y-59291559D01*
X81071407Y-59296154D01*
X81077046Y-59300709D01*
X81082949Y-59305228D01*
X81089113Y-59309711D01*
X81095535Y-59314162D01*
X81102213Y-59318583D01*
X81109144Y-59322976D01*
X81116324Y-59327342D01*
X81123752Y-59331685D01*
X81131424Y-59336006D01*
X81139339Y-59340308D01*
X81147492Y-59344592D01*
X81155882Y-59348861D01*
X81186659Y-59363475D01*
X81219952Y-59377761D01*
X81255718Y-59391725D01*
X81293918Y-59405376D01*
X81334509Y-59418718D01*
X81377449Y-59431759D01*
X81422698Y-59444506D01*
X81470215Y-59456965D01*
X81571883Y-59481045D01*
X81682123Y-59504053D01*
X81800604Y-59526043D01*
X81926994Y-59547066D01*
X82412531Y-59611576D01*
X82972201Y-59665490D01*
X84264834Y-59745538D01*
X85706687Y-59795231D01*
X87199555Y-59822586D01*
X89945514Y-59842354D01*
X91717062Y-59868990D01*
X91718994Y-59867113D01*
X91721782Y-59864326D01*
X91725215Y-59860778D01*
X91729082Y-59856618D01*
X91731113Y-59854354D01*
X91733173Y-59851993D01*
X91735236Y-59849553D01*
X91737276Y-59847052D01*
X91739266Y-59844510D01*
X91741180Y-59841944D01*
X91742992Y-59839373D01*
X91744675Y-59836816D01*
X91749139Y-59829517D01*
X91753561Y-59821822D01*
X91757940Y-59813738D01*
X91762278Y-59805274D01*
X91766575Y-59796438D01*
X91770832Y-59787239D01*
X91779230Y-59767781D01*
X91787477Y-59746966D01*
X91795581Y-59724859D01*
X91803547Y-59701525D01*
X91811381Y-59677029D01*
X91830365Y-59610945D01*
X91848232Y-59539128D01*
X91864894Y-59462398D01*
X91880264Y-59381574D01*
X91906777Y-59210920D01*
X91927065Y-59033721D01*
X91940428Y-58856532D01*
X91944292Y-58769990D01*
X91946160Y-58685908D01*
X91945946Y-58605106D01*
X91943561Y-58528403D01*
X91938917Y-58456619D01*
X91931926Y-58390572D01*
X91927197Y-58350842D01*
X91923105Y-58310700D01*
X91915664Y-58229781D01*
X91911732Y-58189306D01*
X91907271Y-58149023D01*
X91901988Y-58109081D01*
X91895593Y-58069632D01*
X91888739Y-58035156D01*
X91884811Y-58018154D01*
X91880501Y-58001335D01*
X91875772Y-57984718D01*
X91870587Y-57968320D01*
X91864910Y-57952160D01*
X91858704Y-57936257D01*
X91851934Y-57920630D01*
X91844562Y-57905298D01*
X91836552Y-57890279D01*
X91827867Y-57875591D01*
X91818472Y-57861255D01*
X91808329Y-57847287D01*
X91797401Y-57833707D01*
X91785654Y-57820533D01*
X91768004Y-57803019D01*
X91748724Y-57786413D01*
X91727741Y-57770741D01*
X91704980Y-57756028D01*
X91680367Y-57742299D01*
X91653828Y-57729580D01*
X91625290Y-57717894D01*
X91594678Y-57707269D01*
X91561919Y-57697728D01*
X91526938Y-57689296D01*
X91489662Y-57682000D01*
X91450017Y-57675864D01*
X91407929Y-57670913D01*
X91363323Y-57667173D01*
X91316127Y-57664668D01*
X91266265Y-57663424D01*
X91235276Y-57663629D01*
X91205329Y-57664962D01*
X91176407Y-57667389D01*
X91148490Y-57670873D01*
X91121563Y-57675377D01*
X91095607Y-57680865D01*
X91070604Y-57687302D01*
X91046537Y-57694650D01*
X91023387Y-57702875D01*
X91001139Y-57711938D01*
X90979772Y-57721806D01*
X90959271Y-57732440D01*
X90939616Y-57743805D01*
X90920792Y-57755865D01*
X90885559Y-57781924D01*
X90853432Y-57810328D01*
X90824269Y-57840786D01*
X90797928Y-57873010D01*
X90774267Y-57906709D01*
X90753144Y-57941594D01*
X90734419Y-57977375D01*
X90717949Y-58013762D01*
X90703592Y-58050467D01*
X90690665Y-58088804D01*
X90679643Y-58126862D01*
X90670377Y-58164339D01*
X90662720Y-58200930D01*
X90656524Y-58236335D01*
X90651642Y-58270250D01*
X90645229Y-58332397D01*
X90642297Y-58384950D01*
X90641666Y-58425487D01*
X90642579Y-58460824D01*
X90642714Y-58464189D01*
X90642680Y-58467521D01*
X90642483Y-58470817D01*
X90642124Y-58474071D01*
X90641608Y-58477281D01*
X90640939Y-58480441D01*
X90640121Y-58483546D01*
X90639156Y-58486594D01*
X90638050Y-58489579D01*
X90636805Y-58492498D01*
X90635425Y-58495345D01*
X90633914Y-58498116D01*
X90632276Y-58500808D01*
X90630514Y-58503416D01*
X90628633Y-58505935D01*
X90626635Y-58508362D01*
X90624525Y-58510692D01*
X90622307Y-58512920D01*
X90619983Y-58515042D01*
X90617559Y-58517055D01*
X90615037Y-58518953D01*
X90612421Y-58520732D01*
X90609715Y-58522389D01*
X90606923Y-58523918D01*
X90604048Y-58525316D01*
X90601095Y-58526578D01*
X90598066Y-58527700D01*
X90594966Y-58528677D01*
X90591798Y-58529506D01*
X90588567Y-58530181D01*
X90585275Y-58530699D01*
X90581926Y-58531055D01*
X88685182Y-58685000D01*
X88681785Y-58685189D01*
X88678418Y-58685206D01*
X88675086Y-58685054D01*
X88671794Y-58684737D01*
X88668545Y-58684259D01*
X88665346Y-58683624D01*
X88662199Y-58682836D01*
X88659110Y-58681897D01*
X88656082Y-58680813D01*
X88653122Y-58679587D01*
X88650232Y-58678223D01*
X88647417Y-58676724D01*
X88644683Y-58675095D01*
X88642033Y-58673339D01*
X88639472Y-58671460D01*
X88637005Y-58669463D01*
X88634635Y-58667350D01*
X88632368Y-58665125D01*
X88630208Y-58662793D01*
X88628160Y-58660357D01*
X88626227Y-58657821D01*
X88624415Y-58655189D01*
X88622727Y-58652465D01*
X88621169Y-58649652D01*
X88619745Y-58646754D01*
X88618459Y-58643776D01*
X88617317Y-58640721D01*
X88616321Y-58637592D01*
X88615478Y-58634394D01*
X88614790Y-58631130D01*
X88614264Y-58627805D01*
X88613903Y-58624421D01*
X88613714Y-58621024D01*
X88613697Y-58617657D01*
X88613849Y-58614325D01*
X88614166Y-58611033D01*
X88614644Y-58607785D01*
X88615279Y-58604585D01*
X88616068Y-58601438D01*
X88617006Y-58598349D01*
X88618090Y-58595322D01*
X88619316Y-58592361D01*
X88620680Y-58589471D01*
X88622179Y-58586657D01*
X88623808Y-58583923D01*
X88625564Y-58581273D01*
X88627442Y-58578712D01*
X88629440Y-58576245D01*
X88631553Y-58573875D01*
X88633777Y-58571608D01*
X88636110Y-58569448D01*
X88638545Y-58567400D01*
X88641081Y-58565467D01*
X88643713Y-58563654D01*
X88646438Y-58561967D01*
X88649251Y-58560409D01*
X88652148Y-58558985D01*
X88655127Y-58557699D01*
X88658182Y-58556556D01*
X88661311Y-58555561D01*
X88664509Y-58554717D01*
X88667773Y-58554030D01*
X88671098Y-58553504D01*
X88674482Y-58553143D01*
X90509631Y-58404203D01*
X90510699Y-58368993D01*
X90513116Y-58327901D01*
X90517299Y-58281777D01*
X90523663Y-58231468D01*
X90527793Y-58205008D01*
X90532624Y-58177821D01*
X90538209Y-58150010D01*
X90544598Y-58121683D01*
X90551845Y-58092946D01*
X90560001Y-58063903D01*
X90569118Y-58034662D01*
X90579248Y-58005328D01*
X90596819Y-57960392D01*
X90616973Y-57915834D01*
X90639883Y-57872013D01*
X90665725Y-57829283D01*
X90694672Y-57788001D01*
X90710365Y-57768014D01*
X90726899Y-57748522D01*
X90744296Y-57729570D01*
X90762579Y-57711201D01*
X90781768Y-57693462D01*
X90801886Y-57676395D01*
X90822954Y-57660046D01*
X90844995Y-57644459D01*
X90868030Y-57629679D01*
X90892080Y-57615749D01*
X90917168Y-57602715D01*
X90943315Y-57590620D01*
X90970543Y-57579510D01*
X90998873Y-57569428D01*
X91028329Y-57560419D01*
X91058930Y-57552528D01*
X91090700Y-57545800D01*
X91123660Y-57540277D01*
X91157831Y-57536006D01*
X91193235Y-57533030D01*
X91229895Y-57531394D01*
X91267831Y-57531143D01*
X91301779Y-57531836D01*
X91334673Y-57533097D01*
X91366532Y-57534915D01*
X91397373Y-57537278D01*
X91427214Y-57540172D01*
X91456074Y-57543586D01*
X91483970Y-57547509D01*
X91510920Y-57551928D01*
X91524719Y-57506808D01*
X91540673Y-57451367D01*
X91557551Y-57387987D01*
X91574121Y-57319048D01*
X91589153Y-57246930D01*
X91595707Y-57210422D01*
X91601414Y-57174013D01*
X91606121Y-57137998D01*
X91609674Y-57102677D01*
X91611919Y-57068346D01*
X91612701Y-57035304D01*
X91612363Y-57009969D01*
X91611208Y-56982341D01*
X91609028Y-56952678D01*
X91605614Y-56921241D01*
X91600755Y-56888290D01*
X91594243Y-56854086D01*
X91585868Y-56818889D01*
X91575421Y-56782958D01*
X91562692Y-56746555D01*
X91547472Y-56709939D01*
X91529552Y-56673370D01*
X91508723Y-56637109D01*
X91497152Y-56619176D01*
X91484775Y-56601416D01*
X91471565Y-56583864D01*
X91457498Y-56566552D01*
X91442546Y-56549511D01*
X91426684Y-56532775D01*
X91409884Y-56516377D01*
X91392122Y-56500348D01*
X91366211Y-56479073D01*
X91338432Y-56458664D01*
X91308725Y-56439193D01*
X91277030Y-56420727D01*
X91243289Y-56403338D01*
X91207441Y-56387094D01*
X91169428Y-56372067D01*
X91129189Y-56358325D01*
X91086665Y-56345938D01*
X91041796Y-56334976D01*
X90994522Y-56325509D01*
X90944785Y-56317607D01*
X90892525Y-56311340D01*
X90837681Y-56306776D01*
X90780195Y-56303987D01*
X90720007Y-56303042D01*
X90692747Y-56303591D01*
X90666448Y-56305215D01*
X90641092Y-56307879D01*
X90616661Y-56311549D01*
X90593140Y-56316188D01*
X90570509Y-56321762D01*
X90548754Y-56328237D01*
X90527855Y-56335577D01*
X90507796Y-56343748D01*
X90488560Y-56352714D01*
X90470130Y-56362440D01*
X90452488Y-56372893D01*
X90435617Y-56384035D01*
X90419500Y-56395834D01*
X90404119Y-56408253D01*
X90389459Y-56421258D01*
X90375501Y-56434814D01*
X90362227Y-56448886D01*
X90337668Y-56478438D01*
X90315643Y-56509635D01*
X90296015Y-56542197D01*
X90278646Y-56575845D01*
X90263399Y-56610299D01*
X90250136Y-56645280D01*
X90238720Y-56680507D01*
X90228420Y-56717913D01*
X90219817Y-56755026D01*
X90212769Y-56791554D01*
X90207134Y-56827203D01*
X90202768Y-56861682D01*
X90199530Y-56894697D01*
X90195865Y-56955168D01*
X90194999Y-57006274D01*
X90195791Y-57045677D01*
X90197794Y-57080007D01*
X90198022Y-57083269D01*
X90198091Y-57086505D01*
X90198004Y-57089713D01*
X90197763Y-57092888D01*
X90197372Y-57096026D01*
X90196835Y-57099123D01*
X90196154Y-57102175D01*
X90195333Y-57105177D01*
X90194374Y-57108126D01*
X90193282Y-57111016D01*
X90192059Y-57113845D01*
X90190709Y-57116608D01*
X90189235Y-57119301D01*
X90187640Y-57121919D01*
X90185927Y-57124459D01*
X90184100Y-57126917D01*
X90182161Y-57129287D01*
X90180115Y-57131567D01*
X90177964Y-57133752D01*
X90175711Y-57135838D01*
X90173360Y-57137820D01*
X90170914Y-57139695D01*
X90168376Y-57141458D01*
X90165749Y-57143106D01*
X90163037Y-57144634D01*
X90160243Y-57146038D01*
X90157370Y-57147313D01*
X90154422Y-57148457D01*
X90151400Y-57149464D01*
X90148310Y-57150330D01*
X90145154Y-57151052D01*
X90141935Y-57151625D01*
X88585264Y-57389517D01*
X88589580Y-57415223D01*
X88593321Y-57440803D01*
X88596486Y-57466244D01*
X88599075Y-57491535D01*
X88601089Y-57516663D01*
X88602528Y-57541616D01*
X88603391Y-57566382D01*
X88603679Y-57590949D01*
X88602968Y-57626580D01*
X88600688Y-57665431D01*
X88596617Y-57707217D01*
X88590533Y-57751652D01*
X88582214Y-57798451D01*
X88571438Y-57847328D01*
X88557983Y-57897996D01*
X88541627Y-57950172D01*
X88522149Y-58003566D01*
X88499327Y-58057897D01*
X88472938Y-58112876D01*
X88442761Y-58168220D01*
X88408574Y-58223641D01*
X88370155Y-58278854D01*
X88327282Y-58333573D01*
X88304106Y-58360658D01*
X88279733Y-58387513D01*
X88228612Y-58439125D01*
X88172541Y-58489515D01*
X88111302Y-58538393D01*
X88044675Y-58585468D01*
X87972442Y-58630448D01*
X87894382Y-58673043D01*
X87810278Y-58712962D01*
X87719908Y-58749914D01*
X87623055Y-58783608D01*
X87519499Y-58813753D01*
X87409021Y-58840059D01*
X87291400Y-58862234D01*
X87166419Y-58879987D01*
X87033858Y-58893029D01*
X86893498Y-58901067D01*
X86745119Y-58903811D01*
X86741717Y-58903725D01*
X86738359Y-58903469D01*
X86735050Y-58903048D01*
X86731794Y-58902466D01*
X86728594Y-58901727D01*
X86725456Y-58900835D01*
X86722383Y-58899794D01*
X86719380Y-58898609D01*
X86716450Y-58897283D01*
X86713598Y-58895822D01*
X86710828Y-58894228D01*
X86708144Y-58892507D01*
X86705551Y-58890661D01*
X86703052Y-58888697D01*
X86700651Y-58886617D01*
X86698354Y-58884426D01*
X86696163Y-58882128D01*
X86694084Y-58879728D01*
X86692120Y-58877229D01*
X86690275Y-58874635D01*
X86688554Y-58871951D01*
X86686961Y-58869181D01*
X86685499Y-58866329D01*
X86684174Y-58863400D01*
X86682989Y-58860396D01*
X86681949Y-58857324D01*
X86681057Y-58854186D01*
X86680318Y-58850987D01*
X86679736Y-58847732D01*
X86679315Y-58844423D01*
X86679060Y-58841066D01*
X86678973Y-58837665D01*
X86679060Y-58834263D01*
X86679315Y-58830905D01*
X86679736Y-58827596D01*
X86680318Y-58824340D01*
X86681057Y-58821141D01*
X86681949Y-58818003D01*
X86682989Y-58814930D01*
X86684174Y-58811926D01*
X86685499Y-58808997D01*
X86686961Y-58806145D01*
X86688554Y-58803375D01*
X86690275Y-58800691D01*
X86692120Y-58798097D01*
X86694084Y-58795598D01*
X86696163Y-58793198D01*
X86698354Y-58790900D01*
X86700651Y-58788710D01*
X86703052Y-58786630D01*
X86705551Y-58784666D01*
X86708144Y-58782821D01*
X86710828Y-58781100D01*
X86713598Y-58779507D01*
X86716450Y-58778045D01*
X86719380Y-58776720D01*
X86722383Y-58775535D01*
X86725456Y-58774495D01*
X86728594Y-58773603D01*
X86731794Y-58772864D01*
X86735050Y-58772282D01*
X86738359Y-58771861D01*
X86741717Y-58771606D01*
X86745119Y-58771519D01*
X86883911Y-58769049D01*
X87015262Y-58761801D01*
X87139369Y-58750024D01*
X87256429Y-58733964D01*
X87366639Y-58713869D01*
X87470196Y-58689986D01*
X87567295Y-58662561D01*
X87658134Y-58631843D01*
X87742909Y-58598078D01*
X87821817Y-58561513D01*
X87895055Y-58522396D01*
X87962820Y-58480974D01*
X88025308Y-58437493D01*
X88082715Y-58392201D01*
X88135240Y-58345346D01*
X88183077Y-58297174D01*
X88225267Y-58249329D01*
X88263329Y-58200802D01*
X88297456Y-58151843D01*
X88327843Y-58102705D01*
X88354684Y-58053641D01*
X88378173Y-58004903D01*
X88398503Y-57956744D01*
X88415870Y-57909415D01*
X88430467Y-57863168D01*
X88442488Y-57818256D01*
X88452127Y-57774932D01*
X88459578Y-57733447D01*
X88465036Y-57694054D01*
X88468694Y-57657005D01*
X88470746Y-57622553D01*
X88471387Y-57590949D01*
X88469564Y-57531675D01*
X88464099Y-57471369D01*
X88454997Y-57410223D01*
X88442266Y-57348427D01*
X88425911Y-57286173D01*
X88405939Y-57223652D01*
X88382356Y-57161054D01*
X88355168Y-57098571D01*
X88324381Y-57036394D01*
X88290002Y-56974714D01*
X88252036Y-56913722D01*
X88210491Y-56853609D01*
X88165372Y-56794566D01*
X88116685Y-56736784D01*
X88064437Y-56680454D01*
X88008634Y-56625767D01*
X87949282Y-56572914D01*
X87886387Y-56522087D01*
X87819956Y-56473476D01*
X87749995Y-56427272D01*
X87676510Y-56383667D01*
X87599507Y-56342851D01*
X87518992Y-56305016D01*
X87434972Y-56270352D01*
X87347453Y-56239050D01*
X87256442Y-56211303D01*
X87161943Y-56187300D01*
X87063965Y-56167233D01*
X86962512Y-56151293D01*
X86857591Y-56139670D01*
X86749208Y-56132557D01*
X86637370Y-56130143D01*
X86559916Y-56131601D01*
X86484697Y-56135913D01*
X86411719Y-56142984D01*
X86340980Y-56152718D01*
X86272485Y-56165020D01*
X86206236Y-56179796D01*
X86142237Y-56196950D01*
X86080489Y-56216388D01*
X86020995Y-56238015D01*
X85963759Y-56261735D01*
X85908782Y-56287453D01*
X85856066Y-56315076D01*
X85805616Y-56344506D01*
X85757433Y-56375651D01*
X85667879Y-56442700D01*
X85587427Y-56515465D01*
X85516096Y-56593183D01*
X85453908Y-56675097D01*
X85400883Y-56760445D01*
X85357043Y-56848468D01*
X85322409Y-56938405D01*
X85297002Y-57029498D01*
X85280841Y-57120986D01*
X85276861Y-57158881D01*
X85274489Y-57196631D01*
X85273731Y-57234177D01*
X85274589Y-57271458D01*
X85277068Y-57308414D01*
X85281170Y-57344986D01*
X85286899Y-57381112D01*
X85294260Y-57416734D01*
X85303255Y-57451792D01*
X85313888Y-57486224D01*
X85326163Y-57519972D01*
X85340083Y-57552974D01*
X85355652Y-57585172D01*
X85372873Y-57616505D01*
X85391750Y-57646912D01*
X85412287Y-57676335D01*
X85414239Y-57679122D01*
X85416029Y-57681974D01*
X85417657Y-57684885D01*
X85419124Y-57687850D01*
X85420431Y-57690862D01*
X85421579Y-57693915D01*
X85422568Y-57697005D01*
X85423400Y-57700125D01*
X85424076Y-57703268D01*
X85424596Y-57706431D01*
X85424961Y-57709606D01*
X85425172Y-57712787D01*
X85425230Y-57715969D01*
X85425136Y-57719147D01*
X85424890Y-57722314D01*
X85424495Y-57725464D01*
X85423949Y-57728591D01*
X85423255Y-57731691D01*
X85422413Y-57734756D01*
X85421424Y-57737781D01*
X85420289Y-57740760D01*
X85419009Y-57743688D01*
X85417585Y-57746559D01*
X85416017Y-57749366D01*
X85414306Y-57752104D01*
X85412454Y-57754767D01*
X85410460Y-57757349D01*
X85408327Y-57759845D01*
X85406055Y-57762248D01*
X85403644Y-57764553D01*
X85401096Y-57766754D01*
X85398412Y-57768845D01*
X85395625Y-57770798D01*
X85392773Y-57772587D01*
X85389862Y-57774215D01*
X85386898Y-57775682D01*
X85383886Y-57776989D01*
X85380832Y-57778137D01*
X85377742Y-57779126D01*
X85374623Y-57779958D01*
X85371479Y-57780634D01*
X85368317Y-57781154D01*
X85365142Y-57781519D01*
X85361960Y-57781730D01*
X85358778Y-57781788D01*
X85355600Y-57781694D01*
X85352434Y-57781449D01*
X85349284Y-57781053D01*
X85346156Y-57780507D01*
X85343057Y-57779813D01*
X85339992Y-57778971D01*
X85336967Y-57777982D01*
X85333987Y-57776847D01*
X85331059Y-57775567D01*
X85328189Y-57774143D01*
X85325382Y-57772575D01*
X85322644Y-57770864D01*
X85319981Y-57769012D01*
X85317399Y-57767018D01*
X85314903Y-57764885D01*
X85312500Y-57762613D01*
X85310195Y-57760202D01*
X85307994Y-57757654D01*
X85305903Y-57754970D01*
X85286778Y-57727930D01*
X85268830Y-57700173D01*
X85252058Y-57671733D01*
X85236466Y-57642642D01*
X85222053Y-57612935D01*
X85208821Y-57582645D01*
X85196771Y-57551805D01*
X85185904Y-57520448D01*
X85176221Y-57488610D01*
X85167724Y-57456321D01*
X85160413Y-57423618D01*
X85154289Y-57390531D01*
X85149354Y-57357097D01*
X85145609Y-57323346D01*
X85143055Y-57289315D01*
X85141692Y-57255034D01*
X84584789Y-57260254D01*
X84108107Y-57270377D01*
X83554671Y-57288852D01*
X82966031Y-57318185D01*
X82383737Y-57360883D01*
X82107955Y-57388027D01*
X81849340Y-57419452D01*
X81613087Y-57455471D01*
X81404389Y-57496398D01*
X81347637Y-57509732D01*
X81294166Y-57523494D01*
X81244144Y-57537722D01*
X81197741Y-57552451D01*
X81155126Y-57567720D01*
X81116466Y-57583565D01*
X81098673Y-57591715D01*
X81081931Y-57600023D01*
X81066263Y-57608494D01*
X81051689Y-57617132D01*
X81040459Y-57624231D01*
X81030105Y-57631157D01*
X81025304Y-57634590D01*
X81020780Y-57638022D01*
X81016553Y-57641468D01*
X81012640Y-57644941D01*
X81009063Y-57648455D01*
X81005840Y-57652026D01*
X81002990Y-57655667D01*
X81000532Y-57659391D01*
X80998487Y-57663214D01*
X80997624Y-57665167D01*
X80996872Y-57667150D01*
X80996233Y-57669164D01*
X80995709Y-57671212D01*
X80995302Y-57673295D01*
X80995015Y-57675416D01*
X80994712Y-57679343D01*
X80994634Y-57683243D01*
X80862379Y-57683243D01*
X80862516Y-57673993D01*
X80863464Y-57661477D01*
X80864932Y-57651149D01*
X80867155Y-57640834D01*
X80870141Y-57630545D01*
X80873896Y-57620295D01*
X80878429Y-57610095D01*
X80883748Y-57599958D01*
X80889859Y-57589897D01*
X80896771Y-57579924D01*
X80904492Y-57570051D01*
X80913028Y-57560292D01*
X80922388Y-57550657D01*
X80932579Y-57541161D01*
X80943608Y-57531814D01*
X80955485Y-57522630D01*
X80968215Y-57513622D01*
X80981807Y-57504801D01*
X80998095Y-57495115D01*
X81015590Y-57485566D01*
X81034269Y-57476155D01*
X81054111Y-57466884D01*
X81075097Y-57457756D01*
X81097204Y-57448772D01*
X81120412Y-57439934D01*
X81144699Y-57431246D01*
X81170045Y-57422708D01*
X81196428Y-57414323D01*
X81252223Y-57398019D01*
X81311916Y-57382351D01*
X81375338Y-57367335D01*
X81587284Y-57325796D01*
X81827363Y-57289247D01*
X82370523Y-57229843D01*
X82962036Y-57186569D01*
X83559116Y-57156870D01*
X84598845Y-57127984D01*
X85147439Y-57122753D01*
X85148473Y-57113594D01*
X85149587Y-57104434D01*
X85157201Y-57053903D01*
X85167317Y-57003306D01*
X85179937Y-56952751D01*
X85195059Y-56902349D01*
X85212686Y-56852209D01*
X85232818Y-56802441D01*
X85255455Y-56753154D01*
X85280599Y-56704457D01*
X85308248Y-56656461D01*
X85338405Y-56609274D01*
X85371070Y-56563007D01*
X85406243Y-56517770D01*
X85443925Y-56473670D01*
X85484116Y-56430819D01*
X85526818Y-56389326D01*
X85572030Y-56349300D01*
X85619753Y-56310851D01*
X85669989Y-56274088D01*
X85722737Y-56239121D01*
X85777998Y-56206060D01*
X85835773Y-56175014D01*
X85896062Y-56146093D01*
X85958866Y-56119407D01*
X86024186Y-56095064D01*
X86092021Y-56073174D01*
X86162374Y-56053848D01*
X86235243Y-56037195D01*
X86310631Y-56023323D01*
X86388537Y-56012344D01*
X86468962Y-56004366D01*
X86551905Y-55999498D01*
X86637370Y-55997851D01*
X86739401Y-55999742D01*
G37*
G36*
X86748891Y-56605212D02*
G01*
X86752125Y-56605476D01*
X86755360Y-56605901D01*
X86758590Y-56606492D01*
X86761810Y-56607249D01*
X86765015Y-56608174D01*
X86768198Y-56609271D01*
X86771356Y-56610541D01*
X87321455Y-56848243D01*
X87694803Y-56819933D01*
X87698201Y-56819762D01*
X87701568Y-56819762D01*
X87704898Y-56819932D01*
X87708189Y-56820266D01*
X87711434Y-56820761D01*
X87714631Y-56821413D01*
X87717773Y-56822218D01*
X87720857Y-56823173D01*
X87723879Y-56824273D01*
X87726833Y-56825515D01*
X87729715Y-56826894D01*
X87732522Y-56828408D01*
X87735247Y-56830051D01*
X87737888Y-56831821D01*
X87740439Y-56833714D01*
X87742896Y-56835724D01*
X87745254Y-56837850D01*
X87747509Y-56840087D01*
X87749657Y-56842430D01*
X87751693Y-56844877D01*
X87753612Y-56847424D01*
X87755410Y-56850065D01*
X87757083Y-56852799D01*
X87758626Y-56855620D01*
X87760034Y-56858526D01*
X87761304Y-56861511D01*
X87762430Y-56864573D01*
X87763409Y-56867708D01*
X87764235Y-56870911D01*
X87764904Y-56874178D01*
X87765412Y-56877507D01*
X87765754Y-56880893D01*
X87765926Y-56884291D01*
X87765925Y-56887657D01*
X87765756Y-56890988D01*
X87765421Y-56894278D01*
X87764926Y-56897524D01*
X87764274Y-56900720D01*
X87763469Y-56903862D01*
X87762515Y-56906946D01*
X87761415Y-56909968D01*
X87760173Y-56912922D01*
X87758793Y-56915804D01*
X87757280Y-56918611D01*
X87755637Y-56921336D01*
X87753867Y-56923977D01*
X87751975Y-56926528D01*
X87749964Y-56928985D01*
X87747839Y-56931343D01*
X87745602Y-56933598D01*
X87743259Y-56935746D01*
X87740812Y-56937782D01*
X87738266Y-56939701D01*
X87735625Y-56941499D01*
X87732892Y-56943172D01*
X87730071Y-56944715D01*
X87727166Y-56946123D01*
X87724181Y-56947393D01*
X87721120Y-56948519D01*
X87717987Y-56949498D01*
X87714784Y-56950324D01*
X87711517Y-56950993D01*
X87708190Y-56951501D01*
X87704805Y-56951843D01*
X87348877Y-56978830D01*
X87069477Y-57433956D01*
X87067623Y-57436809D01*
X87065649Y-57439536D01*
X87063559Y-57442135D01*
X87061359Y-57444605D01*
X87059055Y-57446944D01*
X87056653Y-57449151D01*
X87054158Y-57451225D01*
X87051577Y-57453164D01*
X87048914Y-57454968D01*
X87046177Y-57456633D01*
X87043369Y-57458160D01*
X87040498Y-57459547D01*
X87037569Y-57460792D01*
X87034587Y-57461894D01*
X87031559Y-57462852D01*
X87028490Y-57463664D01*
X87025386Y-57464329D01*
X87022252Y-57464845D01*
X87019095Y-57465212D01*
X87015919Y-57465427D01*
X87012732Y-57465490D01*
X87009538Y-57465399D01*
X87006343Y-57465152D01*
X87003153Y-57464749D01*
X86999974Y-57464188D01*
X86996811Y-57463467D01*
X86993671Y-57462585D01*
X86990559Y-57461541D01*
X86987480Y-57460334D01*
X86984440Y-57458961D01*
X86981446Y-57457422D01*
X86978503Y-57455716D01*
X86975649Y-57453862D01*
X86972921Y-57451888D01*
X86970321Y-57449798D01*
X86967850Y-57447598D01*
X86965510Y-57445294D01*
X86963302Y-57442892D01*
X86961228Y-57440397D01*
X86959288Y-57437816D01*
X86957484Y-57435154D01*
X86955818Y-57432416D01*
X86954291Y-57429608D01*
X86952904Y-57426737D01*
X86951658Y-57423808D01*
X86950556Y-57420826D01*
X86949598Y-57417798D01*
X86948786Y-57414729D01*
X86948121Y-57411625D01*
X86947604Y-57408491D01*
X86947237Y-57405334D01*
X86947022Y-57402158D01*
X86946959Y-57398971D01*
X86947050Y-57395777D01*
X86947296Y-57392582D01*
X86947700Y-57389392D01*
X86948261Y-57386213D01*
X86948982Y-57383051D01*
X86949863Y-57379910D01*
X86950907Y-57376798D01*
X86952115Y-57373719D01*
X86953487Y-57370680D01*
X86955026Y-57367685D01*
X86956733Y-57364742D01*
X87213876Y-56945875D01*
X86718883Y-56731985D01*
X86715794Y-56730557D01*
X86712813Y-56728991D01*
X86709942Y-56727292D01*
X86707184Y-56725466D01*
X86704540Y-56723519D01*
X86702013Y-56721456D01*
X86699605Y-56719282D01*
X86697318Y-56717003D01*
X86695154Y-56714624D01*
X86693115Y-56712152D01*
X86691204Y-56709590D01*
X86689423Y-56706946D01*
X86687774Y-56704223D01*
X86686258Y-56701429D01*
X86684879Y-56698568D01*
X86683639Y-56695645D01*
X86682539Y-56692667D01*
X86681582Y-56689638D01*
X86680770Y-56686565D01*
X86680105Y-56683453D01*
X86679589Y-56680306D01*
X86679225Y-56677132D01*
X86679014Y-56673934D01*
X86678959Y-56670719D01*
X86679063Y-56667492D01*
X86679326Y-56664259D01*
X86679752Y-56661025D01*
X86680342Y-56657795D01*
X86681099Y-56654576D01*
X86682025Y-56651372D01*
X86683122Y-56648189D01*
X86684392Y-56645033D01*
X86685821Y-56641944D01*
X86687388Y-56638963D01*
X86689087Y-56636092D01*
X86690913Y-56633334D01*
X86692861Y-56630690D01*
X86694925Y-56628163D01*
X86697099Y-56625754D01*
X86699379Y-56623467D01*
X86701758Y-56621303D01*
X86704231Y-56619265D01*
X86706792Y-56617354D01*
X86709437Y-56615573D01*
X86712159Y-56613923D01*
X86714954Y-56612408D01*
X86717815Y-56611029D01*
X86720738Y-56609789D01*
X86723716Y-56608689D01*
X86726744Y-56607732D01*
X86729818Y-56606919D01*
X86732930Y-56606254D01*
X86736077Y-56605739D01*
X86739251Y-56605374D01*
X86742449Y-56605164D01*
X86745664Y-56605109D01*
X86748891Y-56605212D01*
G37*
D11*
X165840000Y-70530000D02*
X199840000Y-70530000D01*
X199840000Y-120530000D01*
X165840000Y-120530000D01*
X165840000Y-70530000D01*
D12*
X78754510Y-53929400D02*
X79897368Y-53929400D01*
X71754510Y-53929400D02*
X72897368Y-53929400D01*
X72325939Y-54500828D02*
X72325939Y-53357971D01*
D13*
X85914821Y-93128571D02*
X85971964Y-92957143D01*
X85971964Y-92957143D02*
X86029107Y-92900000D01*
X86029107Y-92900000D02*
X86143392Y-92842857D01*
X86143392Y-92842857D02*
X86314821Y-92842857D01*
X86314821Y-92842857D02*
X86429107Y-92900000D01*
X86429107Y-92900000D02*
X86486250Y-92957143D01*
X86486250Y-92957143D02*
X86543392Y-93071428D01*
X86543392Y-93071428D02*
X86543392Y-93528571D01*
X86543392Y-93528571D02*
X85343392Y-93528571D01*
X85343392Y-93528571D02*
X85343392Y-93128571D01*
X85343392Y-93128571D02*
X85400535Y-93014286D01*
X85400535Y-93014286D02*
X85457678Y-92957143D01*
X85457678Y-92957143D02*
X85571964Y-92900000D01*
X85571964Y-92900000D02*
X85686250Y-92900000D01*
X85686250Y-92900000D02*
X85800535Y-92957143D01*
X85800535Y-92957143D02*
X85857678Y-93014286D01*
X85857678Y-93014286D02*
X85914821Y-93128571D01*
X85914821Y-93128571D02*
X85914821Y-93528571D01*
X85343392Y-92100000D02*
X85343392Y-91871428D01*
X85343392Y-91871428D02*
X85400535Y-91757143D01*
X85400535Y-91757143D02*
X85514821Y-91642857D01*
X85514821Y-91642857D02*
X85743392Y-91585714D01*
X85743392Y-91585714D02*
X86143392Y-91585714D01*
X86143392Y-91585714D02*
X86371964Y-91642857D01*
X86371964Y-91642857D02*
X86486250Y-91757143D01*
X86486250Y-91757143D02*
X86543392Y-91871428D01*
X86543392Y-91871428D02*
X86543392Y-92100000D01*
X86543392Y-92100000D02*
X86486250Y-92214286D01*
X86486250Y-92214286D02*
X86371964Y-92328571D01*
X86371964Y-92328571D02*
X86143392Y-92385714D01*
X86143392Y-92385714D02*
X85743392Y-92385714D01*
X85743392Y-92385714D02*
X85514821Y-92328571D01*
X85514821Y-92328571D02*
X85400535Y-92214286D01*
X85400535Y-92214286D02*
X85343392Y-92100000D01*
X85343392Y-90842857D02*
X85343392Y-90614285D01*
X85343392Y-90614285D02*
X85400535Y-90500000D01*
X85400535Y-90500000D02*
X85514821Y-90385714D01*
X85514821Y-90385714D02*
X85743392Y-90328571D01*
X85743392Y-90328571D02*
X86143392Y-90328571D01*
X86143392Y-90328571D02*
X86371964Y-90385714D01*
X86371964Y-90385714D02*
X86486250Y-90500000D01*
X86486250Y-90500000D02*
X86543392Y-90614285D01*
X86543392Y-90614285D02*
X86543392Y-90842857D01*
X86543392Y-90842857D02*
X86486250Y-90957143D01*
X86486250Y-90957143D02*
X86371964Y-91071428D01*
X86371964Y-91071428D02*
X86143392Y-91128571D01*
X86143392Y-91128571D02*
X85743392Y-91128571D01*
X85743392Y-91128571D02*
X85514821Y-91071428D01*
X85514821Y-91071428D02*
X85400535Y-90957143D01*
X85400535Y-90957143D02*
X85343392Y-90842857D01*
X85343392Y-89985714D02*
X85343392Y-89300000D01*
X86543392Y-89642857D02*
X85343392Y-89642857D01*
X78943392Y-92157143D02*
X78371964Y-92557143D01*
X78943392Y-92842857D02*
X77743392Y-92842857D01*
X77743392Y-92842857D02*
X77743392Y-92385714D01*
X77743392Y-92385714D02*
X77800535Y-92271429D01*
X77800535Y-92271429D02*
X77857678Y-92214286D01*
X77857678Y-92214286D02*
X77971964Y-92157143D01*
X77971964Y-92157143D02*
X78143392Y-92157143D01*
X78143392Y-92157143D02*
X78257678Y-92214286D01*
X78257678Y-92214286D02*
X78314821Y-92271429D01*
X78314821Y-92271429D02*
X78371964Y-92385714D01*
X78371964Y-92385714D02*
X78371964Y-92842857D01*
X78886250Y-91700000D02*
X78943392Y-91528572D01*
X78943392Y-91528572D02*
X78943392Y-91242857D01*
X78943392Y-91242857D02*
X78886250Y-91128572D01*
X78886250Y-91128572D02*
X78829107Y-91071429D01*
X78829107Y-91071429D02*
X78714821Y-91014286D01*
X78714821Y-91014286D02*
X78600535Y-91014286D01*
X78600535Y-91014286D02*
X78486250Y-91071429D01*
X78486250Y-91071429D02*
X78429107Y-91128572D01*
X78429107Y-91128572D02*
X78371964Y-91242857D01*
X78371964Y-91242857D02*
X78314821Y-91471429D01*
X78314821Y-91471429D02*
X78257678Y-91585714D01*
X78257678Y-91585714D02*
X78200535Y-91642857D01*
X78200535Y-91642857D02*
X78086250Y-91700000D01*
X78086250Y-91700000D02*
X77971964Y-91700000D01*
X77971964Y-91700000D02*
X77857678Y-91642857D01*
X77857678Y-91642857D02*
X77800535Y-91585714D01*
X77800535Y-91585714D02*
X77743392Y-91471429D01*
X77743392Y-91471429D02*
X77743392Y-91185714D01*
X77743392Y-91185714D02*
X77800535Y-91014286D01*
X77743392Y-90671429D02*
X77743392Y-89985715D01*
X78943392Y-90328572D02*
X77743392Y-90328572D01*
D14*
%TO.C,C11*%
X111700356Y-62658496D02*
X111700356Y-62158496D01*
X111702489Y-63601270D02*
X111702489Y-63101270D01*
X111852756Y-62006070D02*
X112545161Y-62006070D01*
X112547269Y-63753696D02*
X111854839Y-63753696D01*
X112697536Y-62158496D02*
X112697536Y-62658496D01*
X112699619Y-63101270D02*
X112699619Y-63601270D01*
X111700356Y-62158496D02*
G75*
G02*
X111852756Y-62006096I152400J0D01*
G01*
X111854839Y-63753670D02*
G75*
G02*
X111702433Y-63601270I1J152407D01*
G01*
X112545161Y-62006096D02*
G75*
G02*
X112697561Y-62158496I0J-152400D01*
G01*
X112699644Y-63601270D02*
G75*
G02*
X112547244Y-63753667I-152394J-3D01*
G01*
%TO.C,R9*%
X116261544Y-63439395D02*
X116261544Y-64760605D01*
X116261544Y-64760605D02*
X117220421Y-64760605D01*
X117220421Y-63439395D02*
X116261544Y-63439395D01*
X118072847Y-63439395D02*
X119031724Y-63439395D01*
X119031724Y-63439395D02*
X119031724Y-64760605D01*
X119031724Y-64760605D02*
X118072847Y-64760605D01*
D15*
%TO.C,U2*%
X120100051Y-51379883D02*
X120100051Y-58198755D01*
X120100051Y-57419507D02*
X138117094Y-57419507D01*
X120100051Y-76071094D02*
X120100051Y-76918948D01*
X120100051Y-76918948D02*
X121433909Y-76918948D01*
X121861062Y-52534899D02*
X121861062Y-56217907D01*
X124147066Y-52534899D02*
X121861062Y-52534899D01*
X124147066Y-54693904D02*
X124147066Y-52534899D01*
X126433071Y-52534899D02*
X126433071Y-54693904D01*
X126433071Y-54693904D02*
X124147066Y-54693904D01*
X128973076Y-52534899D02*
X126433071Y-52534899D01*
X128973076Y-54693904D02*
X128973076Y-52534899D01*
X131513081Y-52534899D02*
X131513081Y-54693904D01*
X131513081Y-54693904D02*
X128973076Y-54693904D01*
X134365253Y-52534899D02*
X131513081Y-52534899D01*
X134365253Y-57419507D02*
X134365253Y-52534899D01*
X136397257Y-52534899D02*
X134162052Y-52534899D01*
X136397257Y-57419507D02*
X136397257Y-52534899D01*
X136766243Y-76918948D02*
X138117094Y-76918948D01*
X138100101Y-51379883D02*
X120100051Y-51379883D01*
X138117094Y-58198755D02*
X138117094Y-51391897D01*
X138117094Y-76918948D02*
X138117094Y-76071094D01*
D16*
X122203196Y-58156460D02*
X122302353Y-58186539D01*
X122393737Y-58235385D01*
X122473835Y-58301120D01*
X122539570Y-58381218D01*
X122588416Y-58472602D01*
X122618495Y-58571759D01*
X122628651Y-58674879D01*
X122618495Y-58777999D01*
X122588416Y-58877156D01*
X122539570Y-58968540D01*
X122473835Y-59048638D01*
X122393737Y-59114373D01*
X122302353Y-59163219D01*
X122203196Y-59193298D01*
X122100076Y-59203454D01*
X121996956Y-59193298D01*
X121897799Y-59163219D01*
X121806415Y-59114373D01*
X121726317Y-59048638D01*
X121660582Y-58968540D01*
X121611736Y-58877156D01*
X121581657Y-58777999D01*
X121571501Y-58674879D01*
X121581657Y-58571759D01*
X121611736Y-58472602D01*
X121660582Y-58381218D01*
X121726317Y-58301120D01*
X121806415Y-58235385D01*
X121897799Y-58186539D01*
X121996956Y-58156460D01*
X122100076Y-58146304D01*
X122203196Y-58156460D01*
G36*
X122203196Y-58156460D02*
G01*
X122302353Y-58186539D01*
X122393737Y-58235385D01*
X122473835Y-58301120D01*
X122539570Y-58381218D01*
X122588416Y-58472602D01*
X122618495Y-58571759D01*
X122628651Y-58674879D01*
X122618495Y-58777999D01*
X122588416Y-58877156D01*
X122539570Y-58968540D01*
X122473835Y-59048638D01*
X122393737Y-59114373D01*
X122302353Y-59163219D01*
X122203196Y-59193298D01*
X122100076Y-59203454D01*
X121996956Y-59193298D01*
X121897799Y-59163219D01*
X121806415Y-59114373D01*
X121726317Y-59048638D01*
X121660582Y-58968540D01*
X121611736Y-58877156D01*
X121581657Y-58777999D01*
X121571501Y-58674879D01*
X121581657Y-58571759D01*
X121611736Y-58472602D01*
X121660582Y-58381218D01*
X121726317Y-58301120D01*
X121806415Y-58235385D01*
X121897799Y-58186539D01*
X121996956Y-58156460D01*
X122100076Y-58146304D01*
X122203196Y-58156460D01*
G37*
D14*
%TO.C,R12*%
X114539395Y-62061544D02*
X114539395Y-63020421D01*
X114539395Y-64831724D02*
X114539395Y-63872847D01*
X115860605Y-62061544D02*
X114539395Y-62061544D01*
X115860605Y-63020421D02*
X115860605Y-62061544D01*
X115860605Y-63872847D02*
X115860605Y-64831724D01*
X115860605Y-64831724D02*
X114539395Y-64831724D01*
%TO.C,C7*%
X98900356Y-61378613D02*
X98900356Y-60878613D01*
X98902489Y-62321387D02*
X98902489Y-61821387D01*
X99052756Y-60726187D02*
X99745161Y-60726187D01*
X99747269Y-62473813D02*
X99054839Y-62473813D01*
X99897536Y-60878613D02*
X99897536Y-61378613D01*
X99899619Y-61821387D02*
X99899619Y-62321387D01*
X98900356Y-60878613D02*
G75*
G02*
X99052756Y-60726213I152400J0D01*
G01*
X99054839Y-62473787D02*
G75*
G02*
X98902433Y-62321387I1J152407D01*
G01*
X99745161Y-60726213D02*
G75*
G02*
X99897561Y-60878613I0J-152400D01*
G01*
X99899644Y-62321387D02*
G75*
G02*
X99747244Y-62473784I-152394J-3D01*
G01*
D15*
%TO.C,C17*%
X114209957Y-59399771D02*
X114209957Y-58599746D01*
X115319711Y-58289967D02*
X114519736Y-58289967D01*
X115319711Y-59709627D02*
X114519736Y-59709627D01*
X115880163Y-58290424D02*
X116680138Y-58290424D01*
X115880163Y-59710109D02*
X116680138Y-59710109D01*
X116989891Y-58600254D02*
X116989891Y-59400305D01*
X114209957Y-58599797D02*
G75*
G02*
X114519787Y-58289982I309818J-3D01*
G01*
X114519787Y-59709627D02*
G75*
G02*
X114209948Y-59399772I-12J309827D01*
G01*
X116680087Y-58290424D02*
G75*
G02*
X116989891Y-58600255I-27J-309831D01*
G01*
X116989891Y-59400229D02*
G75*
G02*
X116680086Y-59710109I-309831J-49D01*
G01*
D14*
%TO.C,R8*%
X116261544Y-61939395D02*
X116261544Y-63260605D01*
X116261544Y-63260605D02*
X117220421Y-63260605D01*
X117220421Y-61939395D02*
X116261544Y-61939395D01*
X118072847Y-61939395D02*
X119031724Y-61939395D01*
X119031724Y-61939395D02*
X119031724Y-63260605D01*
X119031724Y-63260605D02*
X118072847Y-63260605D01*
D16*
%TO.C,JP2*%
X95250000Y-84250000D02*
X95250000Y-82850000D01*
X95950000Y-82150000D02*
X96550000Y-82150000D01*
X96550000Y-84950000D02*
X95950000Y-84950000D01*
X97250000Y-82850000D02*
X97250000Y-84250000D01*
X95250000Y-82850000D02*
G75*
G02*
X95950000Y-82150000I699999J1D01*
G01*
X95950000Y-84950000D02*
G75*
G02*
X95250000Y-84250000I0J700000D01*
G01*
X96550000Y-82150000D02*
G75*
G02*
X97250000Y-82850000I1J-699999D01*
G01*
X97250000Y-84250000D02*
G75*
G02*
X96550000Y-84950000I-700000J0D01*
G01*
%TO.C,JP3*%
X97750000Y-84250000D02*
X97750000Y-82850000D01*
X98450000Y-82150000D02*
X99050000Y-82150000D01*
X99050000Y-84950000D02*
X98450000Y-84950000D01*
X99750000Y-82850000D02*
X99750000Y-84250000D01*
X97750000Y-82850000D02*
G75*
G02*
X98450000Y-82150000I699999J1D01*
G01*
X98450000Y-84950000D02*
G75*
G02*
X97750000Y-84250000I0J700000D01*
G01*
X99050000Y-82150000D02*
G75*
G02*
X99750000Y-82850000I1J-699999D01*
G01*
X99750000Y-84250000D02*
G75*
G02*
X99050000Y-84950000I-700000J0D01*
G01*
D14*
%TO.C,U11*%
X100443790Y-65753797D02*
X100443790Y-71046203D01*
X100443790Y-71046203D02*
X100827305Y-71046203D01*
X103156210Y-65753797D02*
X103156210Y-71046203D01*
X103156210Y-67130709D02*
X100443790Y-67130709D01*
X103156210Y-71046203D02*
X102772695Y-71046203D01*
D16*
X100878105Y-65829997D02*
X100367590Y-65829997D01*
X100367590Y-65372797D01*
X100878105Y-65372797D01*
X100878105Y-65829997D01*
G36*
X100878105Y-65829997D02*
G01*
X100367590Y-65829997D01*
X100367590Y-65372797D01*
X100878105Y-65372797D01*
X100878105Y-65829997D01*
G37*
X103232410Y-65829997D02*
X102721895Y-65829997D01*
X102721895Y-65372797D01*
X103232410Y-65372797D01*
X103232410Y-65829997D01*
G36*
X103232410Y-65829997D02*
G01*
X102721895Y-65829997D01*
X102721895Y-65372797D01*
X103232410Y-65372797D01*
X103232410Y-65829997D01*
G37*
D14*
%TO.C,U4*%
X79458801Y-89473787D02*
X79458801Y-93526213D01*
D17*
X79458801Y-89473787D02*
X79889865Y-89473787D01*
X79458801Y-93526213D02*
X79889865Y-93526213D01*
X82110135Y-89473787D02*
X82541199Y-89473787D01*
D14*
X82541199Y-89473787D02*
X82541199Y-93526213D01*
D17*
X82541199Y-93526213D02*
X82110135Y-93526213D01*
D15*
X81899924Y-91500000D02*
G75*
G02*
X80100076Y-91500000I-899924J0D01*
G01*
X80100076Y-91500000D02*
G75*
G02*
X81899924Y-91500000I899924J0D01*
G01*
D14*
%TO.C,R15*%
X114739395Y-69414910D02*
X114739395Y-70373787D01*
X114739395Y-72185090D02*
X114739395Y-71226213D01*
X116060605Y-69414910D02*
X114739395Y-69414910D01*
X116060605Y-70373787D02*
X116060605Y-69414910D01*
X116060605Y-71226213D02*
X116060605Y-72185090D01*
X116060605Y-72185090D02*
X114739395Y-72185090D01*
%TO.C,R6*%
X98639395Y-63314910D02*
X98639395Y-64273787D01*
X98639395Y-66085090D02*
X98639395Y-65126213D01*
X99960605Y-63314910D02*
X98639395Y-63314910D01*
X99960605Y-64273787D02*
X99960605Y-63314910D01*
X99960605Y-65126213D02*
X99960605Y-66085090D01*
X99960605Y-66085090D02*
X98639395Y-66085090D01*
D16*
%TO.C,JP9*%
X112750000Y-84250000D02*
X112750000Y-82850000D01*
X113450000Y-82150000D02*
X114050000Y-82150000D01*
X114050000Y-84950000D02*
X113450000Y-84950000D01*
X114750000Y-82850000D02*
X114750000Y-84250000D01*
X112750000Y-82850000D02*
G75*
G02*
X113450000Y-82150000I699999J1D01*
G01*
X113450000Y-84950000D02*
G75*
G02*
X112750000Y-84250000I0J700000D01*
G01*
X114050000Y-82150000D02*
G75*
G02*
X114750000Y-82850000I1J-699999D01*
G01*
X114750000Y-84250000D02*
G75*
G02*
X114050000Y-84950000I-700000J0D01*
G01*
D14*
%TO.C,U5*%
X86958801Y-89473787D02*
X86958801Y-93526213D01*
D17*
X86958801Y-89473787D02*
X87389865Y-89473787D01*
X86958801Y-93526213D02*
X87389865Y-93526213D01*
X89610135Y-89473787D02*
X90041199Y-89473787D01*
D14*
X90041199Y-89473787D02*
X90041199Y-93526213D01*
D17*
X90041199Y-93526213D02*
X89610135Y-93526213D01*
D15*
X89399924Y-91500000D02*
G75*
G02*
X87600076Y-91500000I-899924J0D01*
G01*
X87600076Y-91500000D02*
G75*
G02*
X89399924Y-91500000I899924J0D01*
G01*
D16*
%TO.C,JP11*%
X67600000Y-70850000D02*
X67600000Y-69450000D01*
X68300000Y-68750000D02*
X68900000Y-68750000D01*
X68900000Y-71550000D02*
X68300000Y-71550000D01*
X69600000Y-69450000D02*
X69600000Y-70850000D01*
X67600000Y-69450000D02*
G75*
G02*
X68300000Y-68750000I699999J1D01*
G01*
X68300000Y-71550000D02*
G75*
G02*
X67600000Y-70850000I0J700000D01*
G01*
X68900000Y-68750000D02*
G75*
G02*
X69600000Y-69450000I1J-699999D01*
G01*
X69600000Y-70850000D02*
G75*
G02*
X68900000Y-71550000I-700000J0D01*
G01*
D14*
%TO.C,R13*%
X112039395Y-72668276D02*
X112039395Y-73627153D01*
X112039395Y-75438456D02*
X112039395Y-74479579D01*
X113360605Y-72668276D02*
X112039395Y-72668276D01*
X113360605Y-73627153D02*
X113360605Y-72668276D01*
X113360605Y-74479579D02*
X113360605Y-75438456D01*
X113360605Y-75438456D02*
X112039395Y-75438456D01*
D15*
%TO.C,C10*%
X107809944Y-65124790D02*
X107809944Y-64324765D01*
X108919698Y-64014986D02*
X108119723Y-64014986D01*
X108919698Y-65434646D02*
X108119723Y-65434646D01*
X109480150Y-64015443D02*
X110280125Y-64015443D01*
X109480150Y-65435128D02*
X110280125Y-65435128D01*
X110589878Y-64325273D02*
X110589878Y-65125324D01*
X107809944Y-64324816D02*
G75*
G02*
X108119774Y-64014991I309838J-13D01*
G01*
X108119774Y-65434646D02*
G75*
G02*
X107809935Y-65124791I-12J309827D01*
G01*
X110280074Y-64015443D02*
G75*
G02*
X110589878Y-64325274I-27J-309831D01*
G01*
X110589878Y-65125248D02*
G75*
G02*
X110280073Y-65435128I-309831J-49D01*
G01*
D14*
%TO.C,R5*%
X96789433Y-61568580D02*
X98110643Y-61568580D01*
X96789433Y-62527457D02*
X96789433Y-61568580D01*
X96789433Y-63379883D02*
X96789433Y-64338760D01*
X96789433Y-64338760D02*
X98110643Y-64338760D01*
X98110643Y-61568580D02*
X98110643Y-62527457D01*
X98110643Y-64338760D02*
X98110643Y-63379883D01*
D16*
%TO.C,JP5*%
X102750000Y-84250000D02*
X102750000Y-82850000D01*
X103450000Y-82150000D02*
X104050000Y-82150000D01*
X104050000Y-84950000D02*
X103450000Y-84950000D01*
X104750000Y-82850000D02*
X104750000Y-84250000D01*
X102750000Y-82850000D02*
G75*
G02*
X103450000Y-82150000I699999J1D01*
G01*
X103450000Y-84950000D02*
G75*
G02*
X102750000Y-84250000I0J700000D01*
G01*
X104050000Y-82150000D02*
G75*
G02*
X104750000Y-82850000I1J-699999D01*
G01*
X104750000Y-84250000D02*
G75*
G02*
X104050000Y-84950000I-700000J0D01*
G01*
D14*
%TO.C,C1*%
X106200356Y-70973736D02*
X106200356Y-70473736D01*
X106202489Y-71916510D02*
X106202489Y-71416510D01*
X106352756Y-70321310D02*
X107045161Y-70321310D01*
X107047269Y-72068936D02*
X106354839Y-72068936D01*
X107197536Y-70473736D02*
X107197536Y-70973736D01*
X107199619Y-71416510D02*
X107199619Y-71916510D01*
X106200356Y-70473736D02*
G75*
G02*
X106352756Y-70321336I152400J0D01*
G01*
X106354839Y-72068910D02*
G75*
G02*
X106202443Y-71916510I1J152397D01*
G01*
X107045161Y-70321336D02*
G75*
G02*
X107197561Y-70473736I0J-152400D01*
G01*
X107199644Y-71916510D02*
G75*
G02*
X107047244Y-72068907I-152394J-3D01*
G01*
D15*
%TO.C,U12*%
X58331013Y-100064755D02*
X58331013Y-98201839D01*
X58331013Y-103783144D02*
X58331013Y-102301839D01*
X67271019Y-100065110D02*
X67271019Y-98201483D01*
X67271019Y-103783144D02*
X58331013Y-103783144D01*
X67271019Y-103783144D02*
X67271019Y-102301483D01*
D14*
%TO.C,R20*%
X110475743Y-72668276D02*
X110475743Y-73627153D01*
X110475743Y-75438456D02*
X110475743Y-74479579D01*
X111796953Y-72668276D02*
X110475743Y-72668276D01*
X111796953Y-73627153D02*
X111796953Y-72668276D01*
X111796953Y-74479579D02*
X111796953Y-75438456D01*
X111796953Y-75438456D02*
X110475743Y-75438456D01*
%TO.C,C9*%
X81536398Y-40384279D02*
X81536398Y-39691874D01*
X81688824Y-39539499D02*
X82188824Y-39539499D01*
X82188824Y-40536679D02*
X81688824Y-40536679D01*
X82631598Y-39537416D02*
X83131598Y-39537416D01*
X83131598Y-40534546D02*
X82631598Y-40534546D01*
X83284024Y-39689766D02*
X83284024Y-40382196D01*
X81536424Y-39691874D02*
G75*
G02*
X81688824Y-39539474I152400J0D01*
G01*
X81688824Y-40536679D02*
G75*
G02*
X81536424Y-40384279I0J152400D01*
G01*
X83131598Y-39537391D02*
G75*
G02*
X83283995Y-39689791I3J-152394D01*
G01*
X83283998Y-40382196D02*
G75*
G02*
X83131598Y-40534592I-152397J1D01*
G01*
%TO.C,R10*%
X112239395Y-65514910D02*
X113560605Y-65514910D01*
X112239395Y-66473787D02*
X112239395Y-65514910D01*
X112239395Y-67326213D02*
X112239395Y-68285090D01*
X112239395Y-68285090D02*
X113560605Y-68285090D01*
X113560605Y-65514910D02*
X113560605Y-66473787D01*
X113560605Y-68285090D02*
X113560605Y-67326213D01*
D16*
%TO.C,JP7*%
X107750000Y-84250000D02*
X107750000Y-82850000D01*
X108450000Y-82150000D02*
X109050000Y-82150000D01*
X109050000Y-84950000D02*
X108450000Y-84950000D01*
X109750000Y-82850000D02*
X109750000Y-84250000D01*
X107750000Y-82850000D02*
G75*
G02*
X108450000Y-82150000I699999J1D01*
G01*
X108450000Y-84950000D02*
G75*
G02*
X107750000Y-84250000I0J700000D01*
G01*
X109050000Y-82150000D02*
G75*
G02*
X109750000Y-82850000I1J-699999D01*
G01*
X109750000Y-84250000D02*
G75*
G02*
X109050000Y-84950000I-700000J0D01*
G01*
D14*
%TO.C,C2*%
X117900381Y-66531979D02*
X117900381Y-66031979D01*
X117902464Y-67474753D02*
X117902464Y-66974753D01*
X118052731Y-65879553D02*
X118745161Y-65879553D01*
X118747244Y-67627179D02*
X118054839Y-67627179D01*
X118897511Y-66031979D02*
X118897511Y-66531979D01*
X118899644Y-66974753D02*
X118899644Y-67474753D01*
X117900356Y-66031979D02*
G75*
G02*
X118052756Y-65879582I152394J3D01*
G01*
X118054839Y-67627153D02*
G75*
G02*
X117902439Y-67474753I0J152400D01*
G01*
X118745161Y-65879579D02*
G75*
G02*
X118897567Y-66031979I-1J-152407D01*
G01*
X118899644Y-67474753D02*
G75*
G02*
X118747244Y-67627153I-152400J0D01*
G01*
%TO.C,C8*%
X104426162Y-62297587D02*
X104426162Y-61605157D01*
X104578588Y-61452807D02*
X105078588Y-61452807D01*
X105078588Y-62449937D02*
X104578588Y-62449937D01*
X105521362Y-61450674D02*
X106021362Y-61450674D01*
X106021362Y-62447854D02*
X105521362Y-62447854D01*
X106173788Y-61603074D02*
X106173788Y-62295479D01*
X104426188Y-61605157D02*
G75*
G02*
X104578588Y-61452751I152407J-1D01*
G01*
X104578588Y-62449962D02*
G75*
G02*
X104426191Y-62297562I-3J152394D01*
G01*
X106021362Y-61450674D02*
G75*
G02*
X106173762Y-61603074I0J-152400D01*
G01*
X106173762Y-62295479D02*
G75*
G02*
X106021362Y-62447879I-152400J0D01*
G01*
D15*
%TO.C,P1*%
X100323520Y-89534970D02*
X102370282Y-89534970D01*
X100323520Y-90877439D02*
X100323520Y-89534970D01*
X100323520Y-94928036D02*
X100323520Y-92939948D01*
X100323520Y-94928036D02*
X109700305Y-94928036D01*
X107633147Y-89534970D02*
X109700000Y-89534970D01*
X109700000Y-89534970D02*
X109700000Y-90808452D01*
X109700000Y-92870911D02*
X109700000Y-94928036D01*
X109700000Y-94005277D02*
X100323520Y-94005277D01*
D14*
%TO.C,R16*%
X116339395Y-65868276D02*
X117660605Y-65868276D01*
X116339395Y-66827153D02*
X116339395Y-65868276D01*
X116339395Y-67679579D02*
X116339395Y-68638456D01*
X116339395Y-68638456D02*
X117660605Y-68638456D01*
X117660605Y-65868276D02*
X117660605Y-66827153D01*
X117660605Y-68638456D02*
X117660605Y-67679579D01*
%TO.C,C15*%
X117900381Y-73298730D02*
X117900381Y-72798730D01*
X117902464Y-74241504D02*
X117902464Y-73741504D01*
X118052731Y-72646304D02*
X118745161Y-72646304D01*
X118747244Y-74393930D02*
X118054839Y-74393930D01*
X118897511Y-72798730D02*
X118897511Y-73298730D01*
X118899644Y-73741504D02*
X118899644Y-74241504D01*
X117900356Y-72798730D02*
G75*
G02*
X118052756Y-72646333I152394J3D01*
G01*
X118054839Y-74393904D02*
G75*
G02*
X117902439Y-74241504I0J152400D01*
G01*
X118745161Y-72646330D02*
G75*
G02*
X118897567Y-72798730I-1J-152407D01*
G01*
X118899644Y-74241504D02*
G75*
G02*
X118747244Y-74393904I-152400J0D01*
G01*
%TO.C,U6*%
X108104904Y-61498729D02*
X109753697Y-61498729D01*
X108104904Y-63651129D02*
X109753697Y-63651129D01*
X110257304Y-61498729D02*
X108608511Y-61498729D01*
X110257304Y-63651129D02*
X108608511Y-63651129D01*
D18*
X107855476Y-61824865D02*
G75*
G02*
X107655322Y-61824865I-100077J0D01*
G01*
X107655322Y-61824865D02*
G75*
G02*
X107855476Y-61824865I100077J0D01*
G01*
D14*
%TO.C,U10*%
X103623825Y-64773787D02*
X104655448Y-64773787D01*
X103623825Y-66226213D02*
X103623825Y-64773787D01*
X105605436Y-66226213D02*
X104694640Y-66226213D01*
X106676251Y-64773787D02*
X105644628Y-64773787D01*
X106676251Y-66226213D02*
X106676251Y-64773787D01*
D16*
%TO.C,JP10*%
X115250000Y-84250000D02*
X115250000Y-82850000D01*
X115950000Y-82150000D02*
X116550000Y-82150000D01*
X116550000Y-84950000D02*
X115950000Y-84950000D01*
X117250000Y-82850000D02*
X117250000Y-84250000D01*
X115250000Y-82850000D02*
G75*
G02*
X115950000Y-82150000I699999J1D01*
G01*
X115950000Y-84950000D02*
G75*
G02*
X115250000Y-84250000I0J700000D01*
G01*
X116550000Y-82150000D02*
G75*
G02*
X117250000Y-82850000I1J-699999D01*
G01*
X117250000Y-84250000D02*
G75*
G02*
X116550000Y-84950000I-700000J0D01*
G01*
D14*
%TO.C,R14*%
X114739395Y-72668276D02*
X114739395Y-73627153D01*
X114739395Y-75438456D02*
X114739395Y-74479579D01*
X116060605Y-72668276D02*
X114739395Y-72668276D01*
X116060605Y-73627153D02*
X116060605Y-72668276D01*
X116060605Y-74479579D02*
X116060605Y-75438456D01*
X116060605Y-75438456D02*
X114739395Y-75438456D01*
%TO.C,C16*%
X109236729Y-73338862D02*
X109236729Y-72838862D01*
X109238812Y-74281636D02*
X109238812Y-73781636D01*
X109389079Y-72686436D02*
X110081509Y-72686436D01*
X110083592Y-74434062D02*
X109391187Y-74434062D01*
X110233859Y-72838862D02*
X110233859Y-73338862D01*
X110235992Y-73781636D02*
X110235992Y-74281636D01*
X109236704Y-72838862D02*
G75*
G02*
X109389104Y-72686465I152394J3D01*
G01*
X109391187Y-74434036D02*
G75*
G02*
X109238787Y-74281636I0J152400D01*
G01*
X110081509Y-72686462D02*
G75*
G02*
X110233915Y-72838862I-1J-152407D01*
G01*
X110235992Y-74281636D02*
G75*
G02*
X110083592Y-74434036I-152400J0D01*
G01*
D16*
%TO.C,JP4*%
X100250000Y-84250000D02*
X100250000Y-82850000D01*
X100950000Y-82150000D02*
X101550000Y-82150000D01*
X101550000Y-84950000D02*
X100950000Y-84950000D01*
X102250000Y-82850000D02*
X102250000Y-84250000D01*
X100250000Y-82850000D02*
G75*
G02*
X100950000Y-82150000I699999J1D01*
G01*
X100950000Y-84950000D02*
G75*
G02*
X100250000Y-84250000I0J700000D01*
G01*
X101550000Y-82150000D02*
G75*
G02*
X102250000Y-82850000I1J-699999D01*
G01*
X102250000Y-84250000D02*
G75*
G02*
X101550000Y-84950000I-700000J0D01*
G01*
%TO.C,J1*%
X92245000Y-53730000D02*
X92245000Y-52400000D01*
X93575000Y-53730000D02*
X92245000Y-53730000D01*
X94845000Y-51070000D02*
X117765000Y-51070000D01*
X94845000Y-53730000D02*
X94845000Y-51070000D01*
X94845000Y-53730000D02*
X117765000Y-53730000D01*
X117765000Y-53730000D02*
X117765000Y-51070000D01*
D14*
%TO.C,U7*%
X95023825Y-66102463D02*
X95023825Y-67804877D01*
X96073635Y-67804877D02*
X97026441Y-67804877D01*
X98076251Y-66102463D02*
X98076251Y-67804877D01*
D12*
X98351155Y-65810668D02*
G75*
G02*
X98050927Y-65810668I-150114J0D01*
G01*
X98050927Y-65810668D02*
G75*
G02*
X98351155Y-65810668I150114J0D01*
G01*
D16*
%TO.C,JP6*%
X105250000Y-84250000D02*
X105250000Y-82850000D01*
X105950000Y-82150000D02*
X106550000Y-82150000D01*
X106550000Y-84950000D02*
X105950000Y-84950000D01*
X107250000Y-82850000D02*
X107250000Y-84250000D01*
X105250000Y-82850000D02*
G75*
G02*
X105950000Y-82150000I699999J1D01*
G01*
X105950000Y-84950000D02*
G75*
G02*
X105250000Y-84250000I0J700000D01*
G01*
X106550000Y-82150000D02*
G75*
G02*
X107250000Y-82850000I1J-699999D01*
G01*
X107250000Y-84250000D02*
G75*
G02*
X106550000Y-84950000I-700000J0D01*
G01*
D14*
%TO.C,C6*%
X95050394Y-63832283D02*
X95050394Y-63332283D01*
X95052527Y-64775057D02*
X95052527Y-64275057D01*
X95202794Y-63179857D02*
X95895199Y-63179857D01*
X95897307Y-64927483D02*
X95204877Y-64927483D01*
X96047574Y-63332283D02*
X96047574Y-63832283D01*
X96049657Y-64275057D02*
X96049657Y-64775057D01*
X95050394Y-63332283D02*
G75*
G02*
X95202794Y-63179883I152400J0D01*
G01*
X95204877Y-64927457D02*
G75*
G02*
X95052471Y-64775057I1J152407D01*
G01*
X95895199Y-63179883D02*
G75*
G02*
X96047599Y-63332283I0J-152400D01*
G01*
X96049682Y-64775057D02*
G75*
G02*
X95897282Y-64927454I-152394J-3D01*
G01*
%TO.C,R11*%
X114739395Y-65868276D02*
X116060605Y-65868276D01*
X114739395Y-66827153D02*
X114739395Y-65868276D01*
X114739395Y-67679579D02*
X114739395Y-68638456D01*
X114739395Y-68638456D02*
X116060605Y-68638456D01*
X116060605Y-65868276D02*
X116060605Y-66827153D01*
X116060605Y-68638456D02*
X116060605Y-67679579D01*
%TO.C,R18*%
X116339395Y-69414910D02*
X117660605Y-69414910D01*
X116339395Y-70373787D02*
X116339395Y-69414910D01*
X116339395Y-71226213D02*
X116339395Y-72185090D01*
X116339395Y-72185090D02*
X117660605Y-72185090D01*
X117660605Y-69414910D02*
X117660605Y-70373787D01*
X117660605Y-72185090D02*
X117660605Y-71226213D01*
%TO.C,R7*%
X98639395Y-66461544D02*
X98639395Y-67420421D01*
X98639395Y-69231724D02*
X98639395Y-68272847D01*
X99960605Y-66461544D02*
X98639395Y-66461544D01*
X99960605Y-67420421D02*
X99960605Y-66461544D01*
X99960605Y-68272847D02*
X99960605Y-69231724D01*
X99960605Y-69231724D02*
X98639395Y-69231724D01*
%TO.C,R2*%
X63539395Y-92161544D02*
X64860605Y-92161544D01*
X63539395Y-93120421D02*
X63539395Y-92161544D01*
X63539395Y-93972847D02*
X63539395Y-94931724D01*
X63539395Y-94931724D02*
X64860605Y-94931724D01*
X64860605Y-92161544D02*
X64860605Y-93120421D01*
X64860605Y-94931724D02*
X64860605Y-93972847D01*
%TO.C,C12*%
X81536398Y-38240208D02*
X81536398Y-36359792D01*
X81688799Y-36207391D02*
X83173787Y-36207391D01*
X83173787Y-38392609D02*
X81688799Y-38392609D01*
X85026213Y-38392609D02*
X86511201Y-38392609D01*
X86511201Y-36207391D02*
X85026213Y-36207391D01*
X86663602Y-38240208D02*
X86663602Y-36359792D01*
X81536398Y-36359792D02*
G75*
G02*
X81688799Y-36207391I152400J1D01*
G01*
X81688799Y-38392609D02*
G75*
G02*
X81536398Y-38240208I-1J152400D01*
G01*
X86511201Y-36207391D02*
G75*
G02*
X86663609Y-36359792I-1J-152409D01*
G01*
X86663602Y-38240208D02*
G75*
G02*
X86511201Y-38392602I-152402J8D01*
G01*
%TO.C,U3*%
D11*
X64300000Y-39350000D02*
X61300000Y-39350000D01*
X61300000Y-46250000D01*
X64300000Y-46250000D01*
X64300000Y-39350000D01*
X65800000Y-46250000D02*
X59800000Y-46250000D01*
X59800000Y-53350000D01*
X65800000Y-53350000D01*
X65800000Y-46250000D01*
X69400000Y-53850000D02*
X56200000Y-53850000D01*
X56200000Y-66300000D01*
X69400000Y-66300000D01*
X69400000Y-53850000D01*
D14*
%TO.C,C3*%
X109650343Y-71003632D02*
X109650343Y-70503632D01*
X109652426Y-71946406D02*
X109652426Y-71446406D01*
X109802693Y-70351206D02*
X110495123Y-70351206D01*
X110497206Y-72098832D02*
X109804801Y-72098832D01*
X110647473Y-70503632D02*
X110647473Y-71003632D01*
X110649606Y-71446406D02*
X110649606Y-71946406D01*
X109650318Y-70503632D02*
G75*
G02*
X109802718Y-70351235I152394J3D01*
G01*
X109804801Y-72098806D02*
G75*
G02*
X109652401Y-71946406I0J152400D01*
G01*
X110495123Y-70351232D02*
G75*
G02*
X110647519Y-70503632I-1J-152397D01*
G01*
X110649606Y-71946406D02*
G75*
G02*
X110497206Y-72098806I-152400J0D01*
G01*
D15*
%TO.C,U1*%
X107649886Y-67075006D02*
X107649886Y-68875031D01*
X110749911Y-67075006D02*
X110749911Y-68875031D01*
X107675997Y-69372009D02*
G75*
G02*
X107421997Y-69372009I-127000J0D01*
G01*
X107421997Y-69372009D02*
G75*
G02*
X107675997Y-69372009I127000J0D01*
G01*
D16*
%TO.C,JP1*%
X92750000Y-84250000D02*
X92750000Y-82850000D01*
X93450000Y-82150000D02*
X94050000Y-82150000D01*
X94050000Y-84950000D02*
X93450000Y-84950000D01*
X94750000Y-82850000D02*
X94750000Y-84250000D01*
X92750000Y-82850000D02*
G75*
G02*
X93450000Y-82150000I699999J1D01*
G01*
X93450000Y-84950000D02*
G75*
G02*
X92750000Y-84250000I0J700000D01*
G01*
X94050000Y-82150000D02*
G75*
G02*
X94750000Y-82850000I1J-699999D01*
G01*
X94750000Y-84250000D02*
G75*
G02*
X94050000Y-84950000I-700000J0D01*
G01*
D14*
%TO.C,C13*%
X81536398Y-42535967D02*
X81536398Y-41843562D01*
X81688824Y-41691187D02*
X82188824Y-41691187D01*
X82188824Y-42688367D02*
X81688824Y-42688367D01*
X82631598Y-41689104D02*
X83131598Y-41689104D01*
X83131598Y-42686234D02*
X82631598Y-42686234D01*
X83284024Y-41841454D02*
X83284024Y-42533884D01*
X81536424Y-41843562D02*
G75*
G02*
X81688824Y-41691162I152400J0D01*
G01*
X81688824Y-42688367D02*
G75*
G02*
X81536424Y-42535967I0J152400D01*
G01*
X83131598Y-41689079D02*
G75*
G02*
X83283995Y-41841479I3J-152394D01*
G01*
X83283998Y-42533884D02*
G75*
G02*
X83131598Y-42686280I-152397J1D01*
G01*
D16*
%TO.C,JP12*%
X56000000Y-70850000D02*
X56000000Y-69450000D01*
X56700000Y-68750000D02*
X57300000Y-68750000D01*
X57300000Y-71550000D02*
X56700000Y-71550000D01*
X58000000Y-69450000D02*
X58000000Y-70850000D01*
X56000000Y-69450000D02*
G75*
G02*
X56700000Y-68750000I699999J1D01*
G01*
X56700000Y-71550000D02*
G75*
G02*
X56000000Y-70850000I0J700000D01*
G01*
X57300000Y-68750000D02*
G75*
G02*
X58000000Y-69450000I1J-699999D01*
G01*
X58000000Y-70850000D02*
G75*
G02*
X57300000Y-71550000I-700000J0D01*
G01*
D14*
%TO.C,R4*%
X97068276Y-69439395D02*
X98027153Y-69439395D01*
X97068276Y-70760605D02*
X97068276Y-69439395D01*
X98027153Y-70760605D02*
X97068276Y-70760605D01*
X98879579Y-70760605D02*
X99838456Y-70760605D01*
X99838456Y-69439395D02*
X98879579Y-69439395D01*
X99838456Y-70760605D02*
X99838456Y-69439395D01*
%TO.C,R17*%
X112939395Y-62061544D02*
X112939395Y-63020421D01*
X112939395Y-64831724D02*
X112939395Y-63872847D01*
X114260605Y-62061544D02*
X112939395Y-62061544D01*
X114260605Y-63020421D02*
X114260605Y-62061544D01*
X114260605Y-63872847D02*
X114260605Y-64831724D01*
X114260605Y-64831724D02*
X112939395Y-64831724D01*
D16*
%TO.C,JP8*%
X110250000Y-84250000D02*
X110250000Y-82850000D01*
X110950000Y-82150000D02*
X111550000Y-82150000D01*
X111550000Y-84950000D02*
X110950000Y-84950000D01*
X112250000Y-82850000D02*
X112250000Y-84250000D01*
X110250000Y-82850000D02*
G75*
G02*
X110950000Y-82150000I699999J1D01*
G01*
X110950000Y-84950000D02*
G75*
G02*
X110250000Y-84250000I0J700000D01*
G01*
X111550000Y-82150000D02*
G75*
G02*
X112250000Y-82850000I1J-699999D01*
G01*
X112250000Y-84250000D02*
G75*
G02*
X111550000Y-84950000I-700000J0D01*
G01*
D15*
%TO.C,U9*%
X101699594Y-61563145D02*
X102700356Y-61563145D01*
X101699594Y-64362231D02*
X101699594Y-61563145D01*
X102700356Y-61563145D02*
X102700356Y-64362231D01*
X102700356Y-64362231D02*
X101699594Y-64362231D01*
D19*
X100678512Y-61173280D02*
G75*
G02*
X100678512Y-61170740I134405J1270D01*
G01*
D14*
%TO.C,C14*%
X117900356Y-70098730D02*
X117900356Y-69598730D01*
X117902489Y-71041504D02*
X117902489Y-70541504D01*
X118052756Y-69446304D02*
X118745161Y-69446304D01*
X118747269Y-71193930D02*
X118054839Y-71193930D01*
X118897536Y-69598730D02*
X118897536Y-70098730D01*
X118899619Y-70541504D02*
X118899619Y-71041504D01*
X117900356Y-69598730D02*
G75*
G02*
X118052756Y-69446330I152400J0D01*
G01*
X118054839Y-71193904D02*
G75*
G02*
X117902433Y-71041504I1J152407D01*
G01*
X118745161Y-69446330D02*
G75*
G02*
X118897561Y-69598730I0J-152400D01*
G01*
X118899644Y-71041504D02*
G75*
G02*
X118747244Y-71193901I-152394J-3D01*
G01*
D15*
%TO.C,U8*%
X71749987Y-54975006D02*
X71749987Y-59193828D01*
X72700254Y-54976226D02*
X71750292Y-54976226D01*
X72700254Y-56551029D02*
X72700254Y-54976226D01*
X73967717Y-56551029D02*
X72700254Y-56551029D01*
X75968860Y-56549987D02*
X75431140Y-56549987D01*
X78100000Y-62575006D02*
X73300000Y-62575006D01*
X78700000Y-54975006D02*
X78700000Y-56549987D01*
X78700000Y-56549987D02*
X77431140Y-56549987D01*
X79650013Y-54975006D02*
X78700000Y-54975006D01*
X79650013Y-54975006D02*
X79650013Y-59193828D01*
D16*
X75200051Y-62274956D02*
X74200000Y-62275057D01*
X74700000Y-60875057D01*
X75200051Y-62274956D01*
G36*
X75200051Y-62274956D02*
G01*
X74200000Y-62275057D01*
X74700000Y-60875057D01*
X75200051Y-62274956D01*
G37*
D14*
%TO.C,R3*%
X114214910Y-60039395D02*
X115173787Y-60039395D01*
X114214910Y-61360605D02*
X114214910Y-60039395D01*
X115173787Y-61360605D02*
X114214910Y-61360605D01*
X116026213Y-61360605D02*
X116985090Y-61360605D01*
X116985090Y-60039395D02*
X116026213Y-60039395D01*
X116985090Y-61360605D02*
X116985090Y-60039395D01*
D20*
%TO.C,LED1*%
X65654153Y-93560452D02*
X65654153Y-92510338D01*
X65656464Y-93940462D02*
X65656464Y-95090475D01*
X65954204Y-92210389D02*
X65654153Y-92510338D01*
X66054229Y-92210389D02*
X65954204Y-92210389D01*
X66076480Y-93910465D02*
X66406528Y-93580417D01*
X66076480Y-93920422D02*
X66076480Y-93910465D01*
X66406528Y-93920422D02*
X66406528Y-93580417D01*
X66746533Y-93920422D02*
X66406528Y-93580417D01*
X66754178Y-92210389D02*
X66054229Y-92210389D01*
X66754178Y-92210389D02*
X66854331Y-92210389D01*
X66756515Y-93920422D02*
X66076480Y-93920422D01*
X66756515Y-93920422D02*
X66746533Y-93920422D01*
X66854331Y-92210389D02*
X67154280Y-92510338D01*
X67154280Y-93560452D02*
X67154280Y-92510338D01*
X67156490Y-95090475D02*
X65676556Y-95090475D01*
X67156591Y-93940462D02*
X67156591Y-95090475D01*
D14*
%TO.C,R19*%
X116339395Y-72668276D02*
X117660605Y-72668276D01*
X116339395Y-73627153D02*
X116339395Y-72668276D01*
X116339395Y-74479579D02*
X116339395Y-75438456D01*
X116339395Y-75438456D02*
X117660605Y-75438456D01*
X117660605Y-72668276D02*
X117660605Y-73627153D01*
X117660605Y-75438456D02*
X117660605Y-74479579D01*
%TO.C,C4*%
X107750343Y-71003632D02*
X107750343Y-70503632D01*
X107752426Y-71946406D02*
X107752426Y-71446406D01*
X107902693Y-70351206D02*
X108595123Y-70351206D01*
X108597206Y-72098832D02*
X107904801Y-72098832D01*
X108747473Y-70503632D02*
X108747473Y-71003632D01*
X108749606Y-71446406D02*
X108749606Y-71946406D01*
X107750318Y-70503632D02*
G75*
G02*
X107902718Y-70351235I152394J3D01*
G01*
X107904801Y-72098806D02*
G75*
G02*
X107752401Y-71946406I0J152400D01*
G01*
X108595123Y-70351232D02*
G75*
G02*
X108747519Y-70503632I-1J-152397D01*
G01*
X108749606Y-71946406D02*
G75*
G02*
X108597206Y-72098806I-152400J0D01*
G01*
%TO.C,R1*%
X60839395Y-92161544D02*
X62160605Y-92161544D01*
X60839395Y-93120421D02*
X60839395Y-92161544D01*
X60839395Y-93972847D02*
X60839395Y-94931724D01*
X60839395Y-94931724D02*
X62160605Y-94931724D01*
X62160605Y-92161544D02*
X62160605Y-93120421D01*
X62160605Y-94931724D02*
X62160605Y-93972847D01*
%TD*%
%LPC*%
D21*
%TO.C,C11*%
X112200000Y-62459766D03*
X112200000Y-63300000D03*
%TD*%
D22*
%TO.C,R9*%
X118400000Y-64100000D03*
X116893268Y-64100000D03*
%TD*%
D23*
%TO.C,U2*%
X120350012Y-58879908D03*
X120350012Y-60149911D03*
X120350012Y-61419913D03*
X120350012Y-62689916D03*
X120350012Y-63959918D03*
X120350012Y-65229921D03*
X120350012Y-66499923D03*
X120350012Y-67769926D03*
X120350012Y-69039929D03*
X120350012Y-70309931D03*
X120350012Y-71579934D03*
X120350012Y-72849936D03*
X120350012Y-74119939D03*
X120350012Y-75389941D03*
D24*
X122115062Y-76669850D03*
X123385065Y-76669850D03*
X124655067Y-76669850D03*
X125925070Y-76669850D03*
X127195072Y-76669850D03*
X128465075Y-76669850D03*
X129735077Y-76669850D03*
X131005080Y-76669850D03*
X132275082Y-76669850D03*
X133545085Y-76669850D03*
X134815087Y-76669850D03*
X136085090Y-76639878D03*
D23*
X137850140Y-75389941D03*
X137850140Y-74119939D03*
X137850140Y-72849936D03*
X137850140Y-71579934D03*
X137850140Y-70309931D03*
X137850140Y-69039929D03*
X137850140Y-67769926D03*
X137850140Y-66499923D03*
X137850140Y-65229921D03*
X137850140Y-63959918D03*
X137850140Y-62689916D03*
X137850140Y-61419913D03*
X137850140Y-60149911D03*
X137850140Y-58879908D03*
D25*
X126199898Y-65199949D03*
X126199898Y-66600000D03*
X126199898Y-68000050D03*
X127599949Y-65199949D03*
X127599949Y-66600000D03*
X127599949Y-68000050D03*
X129000000Y-65199949D03*
X129000000Y-66600000D03*
X129000000Y-68000050D03*
%TD*%
D26*
%TO.C,R12*%
X115200000Y-64200000D03*
X115200000Y-62693268D03*
%TD*%
D21*
%TO.C,C7*%
X99400000Y-61179883D03*
X99400000Y-62020117D03*
%TD*%
D27*
%TO.C,C17*%
X116300000Y-59000000D03*
X114899950Y-59000000D03*
%TD*%
D22*
%TO.C,R8*%
X118400000Y-62600000D03*
X116893268Y-62600000D03*
%TD*%
D28*
%TO.C,JP2*%
X96250000Y-82900000D03*
D29*
X96250000Y-84200000D03*
%TD*%
D28*
%TO.C,JP3*%
X98750000Y-82900000D03*
D29*
X98750000Y-84200000D03*
%TD*%
D30*
%TO.C,U11*%
X101800000Y-70903683D03*
X101800000Y-65896317D03*
%TD*%
D31*
%TO.C,U4*%
X81000000Y-93684912D03*
X81000000Y-89315088D03*
%TD*%
D26*
%TO.C,R15*%
X115400000Y-71553366D03*
X115400000Y-70046634D03*
%TD*%
%TO.C,R6*%
X99300000Y-65453366D03*
X99300000Y-63946634D03*
%TD*%
D28*
%TO.C,JP9*%
X113750000Y-82900000D03*
D29*
X113750000Y-84200000D03*
%TD*%
D31*
%TO.C,U5*%
X88500000Y-93684912D03*
X88500000Y-89315088D03*
%TD*%
D28*
%TO.C,JP11*%
X68600000Y-69500000D03*
D29*
X68600000Y-70800000D03*
%TD*%
D26*
%TO.C,R13*%
X112700000Y-74806732D03*
X112700000Y-73300000D03*
%TD*%
D27*
%TO.C,C10*%
X109899987Y-64725019D03*
X108499937Y-64725019D03*
%TD*%
D26*
%TO.C,R5*%
X97450038Y-62200304D03*
X97450038Y-63707036D03*
%TD*%
D28*
%TO.C,JP5*%
X103750000Y-82900000D03*
D29*
X103750000Y-84200000D03*
%TD*%
D21*
%TO.C,C1*%
X106700000Y-70775006D03*
X106700000Y-71615240D03*
%TD*%
D32*
%TO.C,U12*%
X59900076Y-97483424D03*
X65699924Y-97483424D03*
D33*
X67125121Y-96983297D03*
D34*
X67125121Y-101163129D03*
X58474879Y-101163129D03*
D33*
X58474879Y-96983297D03*
D35*
X59600102Y-96214945D03*
D36*
X60399949Y-96214945D03*
D37*
X61550064Y-96214945D03*
X62550064Y-96214945D03*
X63049936Y-96214945D03*
X64049682Y-96214945D03*
D38*
X66000152Y-96214945D03*
X65200305Y-96214945D03*
D37*
X64550064Y-96214945D03*
X63550064Y-96214945D03*
X62049936Y-96214945D03*
X61049936Y-96214945D03*
%TD*%
D26*
%TO.C,R20*%
X111136348Y-74806732D03*
X111136348Y-73300000D03*
%TD*%
D39*
%TO.C,C9*%
X81990094Y-40037035D03*
X82830328Y-40037035D03*
%TD*%
D26*
%TO.C,R10*%
X112900000Y-66146634D03*
X112900000Y-67653366D03*
%TD*%
D28*
%TO.C,JP7*%
X108750000Y-82900000D03*
D29*
X108750000Y-84200000D03*
%TD*%
D21*
%TO.C,C2*%
X118400000Y-67173483D03*
X118400000Y-66333249D03*
%TD*%
D39*
%TO.C,C8*%
X105720092Y-61950318D03*
X104879858Y-61950318D03*
%TD*%
D40*
%TO.C,P1*%
X102752477Y-89161335D03*
X103251588Y-89161335D03*
X103751969Y-89161335D03*
X104252350Y-89161335D03*
X104752731Y-89161335D03*
X105253112Y-89161335D03*
X105753493Y-89161335D03*
X106252604Y-89161335D03*
X106751715Y-89161335D03*
X107252096Y-89161335D03*
D41*
X101050419Y-91908605D03*
X108949581Y-91839771D03*
%TD*%
D26*
%TO.C,R16*%
X117000000Y-66500000D03*
X117000000Y-68006732D03*
%TD*%
D21*
%TO.C,C15*%
X118400000Y-73940234D03*
X118400000Y-73100000D03*
%TD*%
D42*
%TO.C,U6*%
X108243588Y-61824865D03*
X108243588Y-62324993D03*
X108243588Y-62824865D03*
X108243588Y-63324993D03*
X110118620Y-63324993D03*
X110118620Y-62824865D03*
X110118620Y-62324993D03*
X110118620Y-61824865D03*
D43*
X109181104Y-62574929D03*
%TD*%
D44*
%TO.C,U10*%
X104200076Y-66500000D03*
X106100000Y-66500000D03*
X105150038Y-64500000D03*
%TD*%
D45*
%TO.C,H4*%
X157000000Y-101000000D03*
%TD*%
D28*
%TO.C,JP10*%
X116250000Y-82900000D03*
D29*
X116250000Y-84200000D03*
%TD*%
D45*
%TO.C,H2*%
X157000000Y-53000000D03*
%TD*%
D26*
%TO.C,R14*%
X115400000Y-74806732D03*
X115400000Y-73300000D03*
%TD*%
D21*
%TO.C,C16*%
X109736348Y-73980366D03*
X109736348Y-73140132D03*
%TD*%
D28*
%TO.C,JP4*%
X101250000Y-82900000D03*
D29*
X101250000Y-84200000D03*
%TD*%
D46*
%TO.C,J1*%
X93575000Y-52400000D03*
D47*
X96115000Y-52400000D03*
X98655000Y-52400000D03*
X101195000Y-52400000D03*
X103735000Y-52400000D03*
X106275000Y-52400000D03*
X108815000Y-52400000D03*
X111355000Y-52400000D03*
X113895000Y-52400000D03*
X116435000Y-52400000D03*
%TD*%
D48*
%TO.C,U7*%
X97500000Y-65800000D03*
X96550038Y-65800000D03*
X95600076Y-65800000D03*
D49*
X95600076Y-68107340D03*
X97500000Y-68107340D03*
%TD*%
D28*
%TO.C,JP6*%
X106250000Y-82900000D03*
D29*
X106250000Y-84200000D03*
%TD*%
D45*
%TO.C,H3*%
X53000000Y-101000000D03*
%TD*%
D21*
%TO.C,C6*%
X95550038Y-63633553D03*
X95550038Y-64473787D03*
%TD*%
D26*
%TO.C,R11*%
X115400000Y-66500000D03*
X115400000Y-68006732D03*
%TD*%
%TO.C,R18*%
X117000000Y-70046634D03*
X117000000Y-71553366D03*
%TD*%
%TO.C,R7*%
X99300000Y-68600000D03*
X99300000Y-67093268D03*
%TD*%
%TO.C,R2*%
X64200000Y-92793268D03*
X64200000Y-94300000D03*
%TD*%
D50*
%TO.C,C12*%
X82507417Y-37300000D03*
X85692583Y-37300000D03*
%TD*%
D51*
%TO.C,U3*%
X67500000Y-66300000D03*
X62800000Y-66300000D03*
X58100000Y-66300000D03*
X65300000Y-53600000D03*
X60300000Y-53600000D03*
%TD*%
D21*
%TO.C,C3*%
X110149962Y-71645136D03*
X110149962Y-70804902D03*
%TD*%
D52*
%TO.C,U1*%
X108250038Y-69325019D03*
X109200000Y-69325019D03*
X110149962Y-69325019D03*
X110149962Y-66624993D03*
X109200000Y-66624993D03*
X108250038Y-66624993D03*
%TD*%
D28*
%TO.C,JP1*%
X93750000Y-82900000D03*
D29*
X93750000Y-84200000D03*
%TD*%
D39*
%TO.C,C13*%
X81990094Y-42188723D03*
X82830328Y-42188723D03*
%TD*%
D28*
%TO.C,JP12*%
X57000000Y-69500000D03*
D29*
X57000000Y-70800000D03*
%TD*%
D22*
%TO.C,R4*%
X97700000Y-70100000D03*
X99206732Y-70100000D03*
%TD*%
D26*
%TO.C,R17*%
X113600000Y-64200000D03*
X113600000Y-62693268D03*
%TD*%
D28*
%TO.C,JP8*%
X111250000Y-82900000D03*
D29*
X111250000Y-84200000D03*
%TD*%
D53*
%TO.C,U9*%
X100900000Y-62000585D03*
X100900000Y-62949785D03*
X100900000Y-63900000D03*
X103499950Y-63900000D03*
X103499950Y-62000585D03*
%TD*%
D45*
%TO.C,H1*%
X53000000Y-53000000D03*
%TD*%
D21*
%TO.C,C14*%
X118400000Y-69900000D03*
X118400000Y-70740234D03*
%TD*%
D54*
%TO.C,U8*%
X74700000Y-55274930D03*
X76700000Y-55274930D03*
D55*
X79050013Y-61125070D03*
X72349987Y-61125070D03*
%TD*%
D22*
%TO.C,R3*%
X114846634Y-60700000D03*
X116353366Y-60700000D03*
%TD*%
D56*
%TO.C,LED1*%
X66399873Y-92951003D03*
X66400127Y-94448997D03*
%TD*%
D26*
%TO.C,R19*%
X117000000Y-73300000D03*
X117000000Y-74806732D03*
%TD*%
D21*
%TO.C,C4*%
X108249962Y-71645136D03*
X108249962Y-70804902D03*
%TD*%
D26*
%TO.C,R1*%
X61500000Y-92793268D03*
X61500000Y-94300000D03*
%TD*%
D57*
%TO.C,ENC1*%
X65300000Y-84500000D03*
D58*
X60300000Y-84500000D03*
X62800000Y-84500000D03*
D59*
X57200000Y-77000000D03*
X68400000Y-77000000D03*
D58*
X60300000Y-70000000D03*
X65300000Y-70000000D03*
%TD*%
D60*
%TO.C,SW1*%
X148400000Y-68500000D03*
D61*
X144000000Y-63800000D03*
X151000000Y-62750000D03*
%TD*%
D60*
%TO.C,SW2*%
X148400000Y-85500000D03*
D61*
X144000000Y-80800000D03*
X151000000Y-79750000D03*
%TD*%
%LPD*%
M02*
